<svg width="340" height="337" viewBox="0 0 340 337" fill="none" xmlns="http://www.w3.org/2000/svg">
<rect x="0.5" y="0.5" width="339" height="336" rx="4.5" fill="#ECF6FF"/>
<rect x="0.5" y="0.5" width="339" height="336" rx="4.5" stroke="#3C5E9B"/>
<path d="M134.165 94.164C134.301 94.368 134.369 94.5607 134.369 94.742C134.369 94.9687 134.29 95.1727 134.131 95.354C133.995 95.5127 133.803 95.592 133.553 95.592H129.507L122.401 85.222V92.906C122.401 93.5633 122.322 94.0847 122.163 94.47C122.027 94.8327 121.744 95.116 121.313 95.32C120.883 95.5013 120.248 95.592 119.409 95.592H117.981V72.166H121.177C121.993 72.166 122.401 72.5513 122.401 73.322V81.38L128.827 72.166H132.941C133.168 72.166 133.349 72.234 133.485 72.37C133.621 72.4833 133.689 72.6307 133.689 72.812C133.689 72.9933 133.621 73.1747 133.485 73.356L126.549 83.318L134.165 94.164ZM153.284 83.964C153.284 87.84 152.456 90.798 150.802 92.838C149.17 94.878 146.778 95.898 143.628 95.898C140.477 95.898 138.074 94.878 136.42 92.838C134.788 90.798 133.972 87.84 133.972 83.964C133.972 81.2667 134.38 79.0227 135.196 77.232C136.034 75.4187 137.168 74.07 138.596 73.186C140.046 72.302 141.724 71.86 143.628 71.86C145.532 71.86 147.198 72.302 148.626 73.186C150.076 74.07 151.21 75.4187 152.026 77.232C152.864 79.0227 153.284 81.2667 153.284 83.964ZM148.66 83.998C148.66 78.7847 146.982 76.178 143.628 76.178C140.273 76.178 138.596 78.7847 138.596 83.998C138.596 89.0527 140.273 91.58 143.628 91.58C146.982 91.58 148.66 89.0527 148.66 83.998ZM158.891 72.166C159.707 72.166 160.115 72.5513 160.115 73.322V92.906C160.115 93.8807 159.888 94.572 159.435 94.98C159.004 95.388 158.177 95.592 156.953 95.592H155.695V72.166H158.891ZM179.548 94.368C178.823 94.844 177.939 95.218 176.896 95.49C175.876 95.762 174.822 95.898 173.734 95.898C171.694 95.898 169.87 95.5013 168.26 94.708C166.651 93.892 165.37 92.6227 164.418 90.9C163.466 89.1547 162.99 86.9447 162.99 84.27C162.99 81.5047 163.466 79.1927 164.418 77.334C165.393 75.4753 166.651 74.104 168.192 73.22C169.756 72.3133 171.434 71.86 173.224 71.86C174.448 71.86 175.593 72.0413 176.658 72.404C177.746 72.7667 178.63 73.22 179.31 73.764C179.56 73.9453 179.684 74.1833 179.684 74.478C179.684 74.6367 179.65 74.784 179.582 74.92L178.188 77.538C177.463 77.0393 176.704 76.654 175.91 76.382C175.14 76.11 174.414 75.974 173.734 75.974C172.624 75.974 171.604 76.2913 170.674 76.926C169.745 77.5607 168.997 78.5127 168.43 79.782C167.886 81.0287 167.614 82.5247 167.614 84.27C167.614 86.6953 168.158 88.554 169.246 89.846C170.357 91.138 171.955 91.784 174.04 91.784C175.559 91.784 176.942 91.4213 178.188 90.696L179.752 93.518C179.798 93.654 179.82 93.756 179.82 93.824C179.82 94.0733 179.73 94.2547 179.548 94.368ZM199.318 94.436C199.363 94.6173 199.386 94.7533 199.386 94.844C199.386 95.0707 199.306 95.252 199.148 95.388C199.012 95.524 198.819 95.592 198.57 95.592H195L193.3 89.574H186.942L185.548 94.538C185.434 94.9233 185.264 95.1953 185.038 95.354C184.834 95.5127 184.516 95.592 184.086 95.592H180.55L187.724 72.166H191.6C192.166 72.166 192.518 72.3927 192.654 72.846L199.318 94.436ZM190.104 78.184L188.064 85.562H192.178L190.104 78.184Z" fill="black"/>
<path d="M201.196 76.96C201.717 75.6 202.556 74.5007 203.712 73.662C204.891 72.8233 206.319 72.404 207.996 72.404C209.311 72.404 210.489 72.6873 211.532 73.254C212.575 73.8207 213.391 74.648 213.98 75.736C214.569 76.8013 214.864 78.0707 214.864 79.544C214.864 81.312 214.399 82.7513 213.47 83.862C212.563 84.95 211.362 85.698 209.866 86.106V86.888C209.843 87.908 209.651 88.622 209.288 89.03C208.925 89.438 208.223 89.6307 207.18 89.608L205.65 89.574L205.582 84.78C205.582 84.4853 205.65 84.2587 205.786 84.1C205.922 83.9187 206.149 83.794 206.466 83.726C209.231 83.114 210.614 81.72 210.614 79.544C210.614 78.524 210.353 77.7307 209.832 77.164C209.311 76.5747 208.585 76.28 207.656 76.28C206.228 76.28 205.197 77.1187 204.562 78.796L201.638 77.844C201.298 77.7307 201.128 77.538 201.128 77.266C201.128 77.198 201.151 77.096 201.196 76.96ZM207.656 96C206.863 96 206.251 95.8187 205.82 95.456C205.412 95.0707 205.208 94.5267 205.208 93.824C205.208 93.1213 205.435 92.532 205.888 92.056C206.341 91.58 206.931 91.342 207.656 91.342C208.381 91.342 208.971 91.58 209.424 92.056C209.877 92.532 210.104 93.1213 210.104 93.824C210.104 94.5267 209.889 95.0707 209.458 95.456C209.05 95.8187 208.449 96 207.656 96ZM220.889 72.472C221.659 72.472 222.045 72.846 222.045 73.594L221.943 86.888C221.943 87.908 221.75 88.622 221.365 89.03C221.002 89.438 220.299 89.6307 219.257 89.608L217.795 89.574L217.625 72.472H220.889ZM219.801 95.898C219.03 95.898 218.441 95.7167 218.033 95.354C217.647 94.9913 217.455 94.4813 217.455 93.824C217.455 93.1667 217.67 92.6113 218.101 92.158C218.531 91.682 219.098 91.444 219.801 91.444C220.503 91.444 221.07 91.682 221.501 92.158C221.931 92.6113 222.147 93.1667 222.147 93.824C222.147 94.4813 221.943 94.9913 221.535 95.354C221.149 95.7167 220.571 95.898 219.801 95.898Z" fill="#00B0EB"/>
<path d="M5 0.5H335C337.485 0.500003 339.5 2.51472 339.5 5V21.5H0.5V5C0.5 2.51472 2.51472 0.5 5 0.5Z" fill="#B3E7F6"/>
<path d="M5 0.5H335C337.485 0.500003 339.5 2.51472 339.5 5V21.5H0.5V5C0.5 2.51472 2.51472 0.5 5 0.5Z" stroke="#3C5E9B"/>
<line x1="31.5" y1="15.5" x2="23.5" y2="15.5" stroke="#3C5E9B" stroke-linecap="round"/>
<rect x="38.5" y="7.5" width="8" height="8" stroke="#3C5E9B"/>
<path d="M13.5 11.5L18 16M13.5 11.5L9 7M13.5 11.5L9 16M13.5 11.5L18 7" stroke="#3C5E9B" stroke-linecap="round" stroke-linejoin="round"/>
<line x1="57.45" y1="6.05" x2="329.55" y2="6.05" stroke="#90C3EB" stroke-width="0.9" stroke-linecap="round"/>
<line x1="57.45" y1="10.55" x2="329.55" y2="10.55" stroke="#90C3EB" stroke-width="0.9" stroke-linecap="round"/>
<line x1="57.45" y1="15.05" x2="329.55" y2="15.05" stroke="#90C3EB" stroke-width="0.9" stroke-linecap="round"/>
<mask id="path-10-inside-1_172_51" fill="white">
<path d="M42 135H298V159H42V135Z"/>
</mask>
<path d="M42 159V159.5H43V159V158.5H42V159ZM45 159V159.5H47V159V158.5H45V159ZM49 159V159.5H51V159V158.5H49V159ZM53 159V159.5H55V159V158.5H53V159ZM57 159V159.5H59V159V158.5H57V159ZM61 159V159.5H63V159V158.5H61V159ZM65 159V159.5H67V159V158.5H65V159ZM69 159V159.5H71V159V158.5H69V159ZM73 159V159.5H75V159V158.5H73V159ZM77 159V159.5H79V159V158.5H77V159ZM81 159V159.5H83V159V158.5H81V159ZM85 159V159.5H87V159V158.5H85V159ZM89 159V159.5H91V159V158.5H89V159ZM93 159V159.5H95V159V158.5H93V159ZM97 159V159.5H99V159V158.5H97V159ZM101 159V159.5H103V159V158.5H101V159ZM105 159V159.5H107V159V158.5H105V159ZM109 159V159.5H111V159V158.5H109V159ZM113 159V159.5H115V159V158.5H113V159ZM117 159V159.5H119V159V158.5H117V159ZM121 159V159.5H123V159V158.5H121V159ZM125 159V159.5H127V159V158.5H125V159ZM129 159V159.5H131V159V158.5H129V159ZM133 159V159.5H135V159V158.5H133V159ZM137 159V159.5H139V159V158.5H137V159ZM141 159V159.5H143V159V158.5H141V159ZM145 159V159.5H147V159V158.5H145V159ZM149 159V159.5H151V159V158.5H149V159ZM153 159V159.5H155V159V158.5H153V159ZM157 159V159.5H159V159V158.5H157V159ZM161 159V159.5H163V159V158.5H161V159ZM165 159V159.5H167V159V158.5H165V159ZM169 159V159.5H171V159V158.5H169V159ZM173 159V159.5H175V159V158.5H173V159ZM177 159V159.5H179V159V158.5H177V159ZM181 159V159.5H183V159V158.5H181V159ZM185 159V159.5H187V159V158.5H185V159ZM189 159V159.5H191V159V158.5H189V159ZM193 159V159.5H195V159V158.5H193V159ZM197 159V159.5H199V159V158.5H197V159ZM201 159V159.5H203V159V158.5H201V159ZM205 159V159.5H207V159V158.5H205V159ZM209 159V159.5H211V159V158.5H209V159ZM213 159V159.5H215V159V158.5H213V159ZM217 159V159.5H219V159V158.5H217V159ZM221 159V159.5H223V159V158.5H221V159ZM225 159V159.5H227V159V158.5H225V159ZM229 159V159.5H231V159V158.5H229V159ZM233 159V159.5H235V159V158.5H233V159ZM237 159V159.5H239V159V158.5H237V159ZM241 159V159.5H243V159V158.5H241V159ZM245 159V159.5H247V159V158.5H245V159ZM249 159V159.5H251V159V158.5H249V159ZM253 159V159.5H255V159V158.5H253V159ZM257 159V159.5H259V159V158.5H257V159ZM261 159V159.5H263V159V158.5H261V159ZM265 159V159.5H267V159V158.5H265V159ZM269 159V159.5H271V159V158.5H269V159ZM273 159V159.5H275V159V158.5H273V159ZM277 159V159.5H279V159V158.5H277V159ZM281 159V159.5H283V159V158.5H281V159ZM285 159V159.5H287V159V158.5H285V159ZM289 159V159.5H291V159V158.5H289V159ZM293 159V159.5H295V159V158.5H293V159ZM297 159V159.5H298V159V158.5H297V159ZM42 159V160H43V159V158H42V159ZM45 159V160H47V159V158H45V159ZM49 159V160H51V159V158H49V159ZM53 159V160H55V159V158H53V159ZM57 159V160H59V159V158H57V159ZM61 159V160H63V159V158H61V159ZM65 159V160H67V159V158H65V159ZM69 159V160H71V159V158H69V159ZM73 159V160H75V159V158H73V159ZM77 159V160H79V159V158H77V159ZM81 159V160H83V159V158H81V159ZM85 159V160H87V159V158H85V159ZM89 159V160H91V159V158H89V159ZM93 159V160H95V159V158H93V159ZM97 159V160H99V159V158H97V159ZM101 159V160H103V159V158H101V159ZM105 159V160H107V159V158H105V159ZM109 159V160H111V159V158H109V159ZM113 159V160H115V159V158H113V159ZM117 159V160H119V159V158H117V159ZM121 159V160H123V159V158H121V159ZM125 159V160H127V159V158H125V159ZM129 159V160H131V159V158H129V159ZM133 159V160H135V159V158H133V159ZM137 159V160H139V159V158H137V159ZM141 159V160H143V159V158H141V159ZM145 159V160H147V159V158H145V159ZM149 159V160H151V159V158H149V159ZM153 159V160H155V159V158H153V159ZM157 159V160H159V159V158H157V159ZM161 159V160H163V159V158H161V159ZM165 159V160H167V159V158H165V159ZM169 159V160H171V159V158H169V159ZM173 159V160H175V159V158H173V159ZM177 159V160H179V159V158H177V159ZM181 159V160H183V159V158H181V159ZM185 159V160H187V159V158H185V159ZM189 159V160H191V159V158H189V159ZM193 159V160H195V159V158H193V159ZM197 159V160H199V159V158H197V159ZM201 159V160H203V159V158H201V159ZM205 159V160H207V159V158H205V159ZM209 159V160H211V159V158H209V159ZM213 159V160H215V159V158H213V159ZM217 159V160H219V159V158H217V159ZM221 159V160H223V159V158H221V159ZM225 159V160H227V159V158H225V159ZM229 159V160H231V159V158H229V159ZM233 159V160H235V159V158H233V159ZM237 159V160H239V159V158H237V159ZM241 159V160H243V159V158H241V159ZM245 159V160H247V159V158H245V159ZM249 159V160H251V159V158H249V159ZM253 159V160H255V159V158H253V159ZM257 159V160H259V159V158H257V159ZM261 159V160H263V159V158H261V159ZM265 159V160H267V159V158H265V159ZM269 159V160H271V159V158H269V159ZM273 159V160H275V159V158H273V159ZM277 159V160H279V159V158H277V159ZM281 159V160H283V159V158H281V159ZM285 159V160H287V159V158H285V159ZM289 159V160H291V159V158H289V159ZM293 159V160H295V159V158H293V159ZM297 159V160H298V159V158H297V159Z" fill="#E5E5E5" mask="url(#path-10-inside-1_172_51)"/>
<path d="M33.3652 151V142.516H34.4199V146.711H34.5254L38.2988 142.516H39.6816L36.1309 146.348L39.6816 151H38.3926L35.4746 147.074L34.4199 148.27V151H33.3652ZM47.5801 146.758C47.5801 149.441 45.998 151.117 43.8301 151.117C41.6504 151.117 40.0801 149.441 40.0801 146.758C40.0801 144.074 41.6504 142.398 43.8301 142.398C45.998 142.398 47.5801 144.074 47.5801 146.758ZM46.5605 146.758C46.5605 144.566 45.3652 143.383 43.8301 143.383C42.2949 143.383 41.0996 144.566 41.0996 146.758C41.0996 148.949 42.2949 150.133 43.8301 150.133C45.3652 150.133 46.5605 148.949 46.5605 146.758ZM50.1816 142.516V151H49.127V142.516H50.1816ZM57.8457 145.188C57.5996 144.016 56.5918 143.383 55.4785 143.383C53.9434 143.383 52.748 144.566 52.748 146.758C52.748 148.949 53.9434 150.133 55.4785 150.133C56.5918 150.133 57.5879 149.5 57.8457 148.34H58.9004C58.5957 150.074 57.2012 151.117 55.4785 151.117C53.2988 151.117 51.7285 149.441 51.7285 146.758C51.7285 144.074 53.2988 142.398 55.4785 142.398C57.1895 142.398 58.584 143.43 58.9004 145.188H57.8457ZM60.7402 151H59.6387L62.7441 142.516H63.8574L66.9629 151H65.8496L65.0059 148.609H61.5957L60.7402 151ZM61.9121 147.684H64.6777L63.3301 143.887H63.2598L61.9121 147.684ZM76.0215 144.695V145.434H68.8848V141.918H69.7988V144.695H76.0215ZM77.123 146.852V147.602H67.584V146.852H77.123ZM76.0801 150.93V151.691H68.8262V148.668H69.7402V150.93H76.0801ZM84.3535 142.516V151H83.2871V143.617H83.2402L81.1777 144.988V143.922L83.2871 142.516H84.3535ZM89.4395 142.398C90.9043 142.41 92.5215 143.289 92.5215 146.418C92.5215 149.43 91.291 151.117 89.2988 151.117C87.8105 151.117 86.7559 150.203 86.5449 148.855H87.5879C87.7754 149.617 88.3496 150.18 89.2988 150.18C90.6816 150.18 91.5254 148.984 91.5371 146.922H91.4199C90.9277 147.625 90.1543 148.047 89.252 148.047C87.7285 148.047 86.4746 146.887 86.4746 145.246C86.4746 143.664 87.6348 142.387 89.4395 142.398ZM89.4395 143.324C88.3262 143.324 87.4941 144.191 87.5059 145.234C87.5059 146.289 88.291 147.121 89.4043 147.121C90.5059 147.121 91.373 146.207 91.373 145.211C91.373 144.238 90.5645 143.324 89.4395 143.324ZM96.7988 142.398C98.2637 142.41 99.8809 143.289 99.8809 146.418C99.8809 149.43 98.6504 151.117 96.6582 151.117C95.1699 151.117 94.1152 150.203 93.9043 148.855H94.9473C95.1348 149.617 95.709 150.18 96.6582 150.18C98.041 150.18 98.8848 148.984 98.8965 146.922H98.7793C98.2871 147.625 97.5137 148.047 96.6113 148.047C95.0879 148.047 93.834 146.887 93.834 145.246C93.834 143.664 94.9941 142.387 96.7988 142.398ZM96.7988 143.324C95.6855 143.324 94.8535 144.191 94.8652 145.234C94.8652 146.289 95.6504 147.121 96.7637 147.121C97.8652 147.121 98.7324 146.207 98.7324 145.211C98.7324 144.238 97.9238 143.324 96.7988 143.324ZM104.334 142.516V151H103.268V143.617H103.221L101.158 144.988V143.922L103.268 142.516H104.334ZM114.857 141.543V149.254H113.932V145.645H110.932V144.906H113.932V143.652H110.932V142.914H113.932V141.543H114.857ZM115.139 150.953V151.727H108.143V148.598H109.068V150.953H115.139ZM107.768 142.293V146.922C109.203 146.916 110.586 146.84 112.174 146.547L112.268 147.309C110.568 147.625 109.15 147.695 107.627 147.707H106.842V142.293H107.768ZM128.24 141.531V146.922H127.314V144.215H124.994V143.453H127.314V141.531H128.24ZM128.24 147.449V149.934H122.416V151.07H128.627V151.809H121.514V149.23H127.326V148.188H121.49V147.449H128.24ZM123.154 142.855C123.143 144.227 124.221 145.469 125.744 145.973L125.252 146.688C124.098 146.277 123.178 145.457 122.721 144.402C122.275 145.592 121.332 146.5 120.096 146.945L119.592 146.207C121.162 145.691 122.24 144.379 122.252 142.855V141.871H123.154V142.855ZM138.576 141.543V147.262H137.662V141.543H138.576ZM135.26 142.047V144.859H131.416V146.277C133.279 146.266 134.674 146.23 136.361 145.949L136.467 146.711C134.721 146.992 133.291 147.039 131.369 147.051H130.525V144.133H134.346V142.809H130.502V142.047H135.26ZM132.729 147.789V149.031H137.662V147.789H138.576V151.809H131.803V147.789H132.729ZM132.729 151.059H137.662V149.77H132.729V151.059ZM146.404 144.953V145.703H144.295V147.156C145.268 147.115 146.24 147.045 147.143 146.945L147.213 147.625C144.975 147.93 142.49 148 140.533 148L140.393 147.25C141.307 147.244 142.332 147.232 143.381 147.191V145.703H141.342V142.211H146.322V142.973H142.268V144.953H146.404ZM148.936 141.543V149.336H148.01V141.543H148.936ZM149.275 150.953V151.727H142.174V148.797H143.088V150.953H149.275ZM162.635 141.531V151.949H161.756V146.488H160.221V151.41H159.377V141.766H160.221V145.727H161.756V141.531H162.635ZM158.018 142.809V143.57H155.029V148.586C156.465 148.58 157.461 148.527 158.615 148.293L158.697 149.066C157.443 149.324 156.377 149.371 154.783 149.371H154.115V142.809H158.018ZM172.244 141.543V144.977H173.814V145.75H172.244V149.348H171.33V141.543H172.244ZM170.334 142.82V143.57H164.123V142.82H166.771V141.543H167.686V142.82H170.334ZM167.229 144.145C168.717 144.145 169.725 144.906 169.736 146.09C169.725 147.262 168.717 148.012 167.229 148.012C165.729 148.012 164.709 147.262 164.721 146.09C164.709 144.906 165.729 144.145 167.229 144.145ZM167.229 144.871C166.244 144.871 165.588 145.352 165.6 146.09C165.588 146.828 166.244 147.297 167.229 147.285C168.201 147.297 168.857 146.828 168.869 146.09C168.857 145.352 168.201 144.871 167.229 144.871ZM172.725 150.953V151.727H165.729V148.727H166.631V150.953H172.725ZM179.908 142.445V147.273H175.021V142.445H179.908ZM175.924 143.207V146.535H179.006V143.207H175.924ZM183.072 141.543V149.031H182.158V141.543H183.072ZM183.4 150.836V151.598H176.346V148.305H177.26V150.836H183.4ZM193.127 142.047V142.797C193.127 143.576 193.127 144.508 192.869 145.762H194.381V146.512H190.045V148.434H193.197V151.949H192.271V149.195H185.826V148.434H189.131V146.512H184.842V145.762H191.943C192.213 144.484 192.213 143.576 192.213 142.797H186.049V142.047H193.127ZM198.623 142.293C200.264 142.293 201.424 143.289 201.424 144.742C201.424 146.195 200.264 147.191 198.623 147.191C196.982 147.191 195.799 146.195 195.811 144.742C195.799 143.289 196.982 142.293 198.623 142.293ZM198.623 143.102C197.51 143.102 196.701 143.77 196.713 144.742C196.701 145.715 197.51 146.383 198.623 146.383C199.725 146.383 200.521 145.715 200.521 144.742C200.521 143.77 199.725 143.102 198.623 143.102ZM203.756 141.531V151.973H202.842V141.531H203.756ZM195.271 148.891C197.193 148.891 199.842 148.879 202.15 148.539L202.221 149.219C199.842 149.664 197.275 149.676 195.4 149.676L195.271 148.891ZM217.49 141.531V151.949H216.588V146.5H215.146V151.434H214.268V141.812H215.146V145.738H216.588V141.531H217.49ZM213.084 142.891C213.072 145.539 212.146 148.047 209.146 149.711L208.607 149.066C211.027 147.719 212.029 145.809 212.182 143.652H209.006V142.891H213.084ZM220.314 141.977V143.477H223.35V141.977H224.264V146.512H219.412V141.977H220.314ZM220.314 145.762H223.35V144.191H220.314V145.762ZM227.111 141.531V143.793H228.682V144.566H227.111V146.922H226.197V141.531H227.111ZM227.111 147.414V149.934H221.393V151.082H227.498V151.832H220.49V149.23H226.197V148.152H220.467V147.414H227.111ZM235.244 142.586V143.348H229.35V142.586H231.881V141.438H232.795V142.586H235.244ZM232.326 143.852C233.721 143.852 234.705 144.602 234.705 145.738C234.705 146.863 233.721 147.602 232.326 147.602C230.92 147.602 229.959 146.863 229.971 145.738C229.959 144.602 230.92 143.852 232.326 143.852ZM232.326 144.566C231.424 144.566 230.826 145.035 230.826 145.738C230.826 146.43 231.424 146.91 232.326 146.91C233.229 146.91 233.838 146.43 233.85 145.738C233.838 145.035 233.229 144.566 232.326 144.566ZM237.975 141.531V147.695H237.049V146.77H235.232V146.008H237.049V144.73H235.244V143.969H237.049V141.531H237.975ZM232.104 148.129V149.23H237.061V148.129H237.975V151.809H231.189V148.129H232.104ZM232.104 151.07H237.061V149.945H232.104V151.07ZM244.654 142.176V145.094H241.068V146.711C243.025 146.711 244.033 146.682 245.264 146.453L245.357 147.215C244.057 147.426 243.002 147.461 240.893 147.461H240.154V144.391H243.74V142.914H240.131V142.176H244.654ZM248.346 141.543V147.941H247.42V146.008H245.346V145.246H247.42V143.84H245.346V143.09H247.42V141.543H248.346ZM248.346 148.504V151.973H247.42V149.254H241.326V148.504H248.346ZM261.705 141.531V151.949H260.779V141.531H261.705ZM258.623 142.668C258.611 145.668 257.217 148.316 253.725 149.992L253.221 149.242C256.039 147.906 257.475 145.908 257.686 143.418H253.701V142.668H258.623ZM271.701 142.211V143.125C271.701 144.115 271.701 145.188 271.408 146.688H272.955V147.449H268.654V151.973H267.729V147.449H263.463V146.688H270.471C270.787 145.188 270.787 144.092 270.787 143.125V142.973H264.658V142.211H271.701ZM282.436 141.531V147.121H281.521V141.531H282.436ZM276.6 147.648V148.914H281.521V147.648H282.436V151.809H275.686V147.648H276.6ZM276.6 151.059H281.521V149.652H276.6V151.059ZM276.811 142.047C278.393 142.035 279.541 143.008 279.541 144.438C279.541 145.855 278.393 146.828 276.811 146.828C275.229 146.828 274.08 145.855 274.08 144.438C274.08 143.008 275.229 142.035 276.811 142.047ZM276.811 142.82C275.744 142.809 274.971 143.488 274.982 144.438C274.971 145.387 275.744 146.066 276.811 146.066C277.865 146.066 278.639 145.387 278.639 144.438C278.639 143.488 277.865 142.809 276.811 142.82ZM292.795 141.531V151.949H291.881V141.531H292.795ZM285.787 142.562V148.469C287.375 148.463 289.021 148.334 290.768 147.965L290.896 148.75C289.045 149.137 287.393 149.266 285.729 149.266H284.885V142.562H285.787ZM302.639 141.531V145.656H304.385V146.43H302.639V151.973H301.725V141.531H302.639ZM299.896 142.551V143.312H295.947V148.586C297.834 148.586 299.17 148.498 300.717 148.211L300.834 149.008C299.205 149.301 297.834 149.359 295.854 149.359H295.033V142.551H299.896ZM306.049 151.07C305.639 151.07 305.287 150.73 305.299 150.309C305.287 149.898 305.639 149.559 306.049 149.559C306.459 149.559 306.799 149.898 306.799 150.309C306.799 150.73 306.459 151.07 306.049 151.07Z" fill="#333333"/>
<mask id="path-13-inside-2_172_51" fill="white">
<path d="M42 164H298V188H42V164Z"/>
</mask>
<path d="M42 188V188.5H43V188V187.5H42V188ZM45 188V188.5H47V188V187.5H45V188ZM49 188V188.5H51V188V187.5H49V188ZM53 188V188.5H55V188V187.5H53V188ZM57 188V188.5H59V188V187.5H57V188ZM61 188V188.5H63V188V187.5H61V188ZM65 188V188.5H67V188V187.5H65V188ZM69 188V188.5H71V188V187.5H69V188ZM73 188V188.5H75V188V187.5H73V188ZM77 188V188.5H79V188V187.5H77V188ZM81 188V188.5H83V188V187.5H81V188ZM85 188V188.5H87V188V187.5H85V188ZM89 188V188.5H91V188V187.5H89V188ZM93 188V188.5H95V188V187.5H93V188ZM97 188V188.5H99V188V187.5H97V188ZM101 188V188.5H103V188V187.5H101V188ZM105 188V188.5H107V188V187.5H105V188ZM109 188V188.5H111V188V187.5H109V188ZM113 188V188.5H115V188V187.5H113V188ZM117 188V188.5H119V188V187.5H117V188ZM121 188V188.5H123V188V187.5H121V188ZM125 188V188.5H127V188V187.5H125V188ZM129 188V188.5H131V188V187.5H129V188ZM133 188V188.5H135V188V187.5H133V188ZM137 188V188.5H139V188V187.5H137V188ZM141 188V188.5H143V188V187.5H141V188ZM145 188V188.5H147V188V187.5H145V188ZM149 188V188.5H151V188V187.5H149V188ZM153 188V188.5H155V188V187.5H153V188ZM157 188V188.5H159V188V187.5H157V188ZM161 188V188.5H163V188V187.5H161V188ZM165 188V188.5H167V188V187.5H165V188ZM169 188V188.5H171V188V187.5H169V188ZM173 188V188.5H175V188V187.5H173V188ZM177 188V188.5H179V188V187.5H177V188ZM181 188V188.5H183V188V187.5H181V188ZM185 188V188.5H187V188V187.5H185V188ZM189 188V188.5H191V188V187.5H189V188ZM193 188V188.5H195V188V187.5H193V188ZM197 188V188.5H199V188V187.5H197V188ZM201 188V188.5H203V188V187.5H201V188ZM205 188V188.5H207V188V187.5H205V188ZM209 188V188.5H211V188V187.5H209V188ZM213 188V188.5H215V188V187.5H213V188ZM217 188V188.5H219V188V187.5H217V188ZM221 188V188.5H223V188V187.5H221V188ZM225 188V188.5H227V188V187.5H225V188ZM229 188V188.5H231V188V187.5H229V188ZM233 188V188.5H235V188V187.5H233V188ZM237 188V188.5H239V188V187.5H237V188ZM241 188V188.5H243V188V187.5H241V188ZM245 188V188.5H247V188V187.5H245V188ZM249 188V188.5H251V188V187.5H249V188ZM253 188V188.5H255V188V187.5H253V188ZM257 188V188.5H259V188V187.5H257V188ZM261 188V188.5H263V188V187.5H261V188ZM265 188V188.5H267V188V187.5H265V188ZM269 188V188.5H271V188V187.5H269V188ZM273 188V188.5H275V188V187.5H273V188ZM277 188V188.5H279V188V187.5H277V188ZM281 188V188.5H283V188V187.5H281V188ZM285 188V188.5H287V188V187.5H285V188ZM289 188V188.5H291V188V187.5H289V188ZM293 188V188.5H295V188V187.5H293V188ZM297 188V188.5H298V188V187.5H297V188ZM42 188V189H43V188V187H42V188ZM45 188V189H47V188V187H45V188ZM49 188V189H51V188V187H49V188ZM53 188V189H55V188V187H53V188ZM57 188V189H59V188V187H57V188ZM61 188V189H63V188V187H61V188ZM65 188V189H67V188V187H65V188ZM69 188V189H71V188V187H69V188ZM73 188V189H75V188V187H73V188ZM77 188V189H79V188V187H77V188ZM81 188V189H83V188V187H81V188ZM85 188V189H87V188V187H85V188ZM89 188V189H91V188V187H89V188ZM93 188V189H95V188V187H93V188ZM97 188V189H99V188V187H97V188ZM101 188V189H103V188V187H101V188ZM105 188V189H107V188V187H105V188ZM109 188V189H111V188V187H109V188ZM113 188V189H115V188V187H113V188ZM117 188V189H119V188V187H117V188ZM121 188V189H123V188V187H121V188ZM125 188V189H127V188V187H125V188ZM129 188V189H131V188V187H129V188ZM133 188V189H135V188V187H133V188ZM137 188V189H139V188V187H137V188ZM141 188V189H143V188V187H141V188ZM145 188V189H147V188V187H145V188ZM149 188V189H151V188V187H149V188ZM153 188V189H155V188V187H153V188ZM157 188V189H159V188V187H157V188ZM161 188V189H163V188V187H161V188ZM165 188V189H167V188V187H165V188ZM169 188V189H171V188V187H169V188ZM173 188V189H175V188V187H173V188ZM177 188V189H179V188V187H177V188ZM181 188V189H183V188V187H181V188ZM185 188V189H187V188V187H185V188ZM189 188V189H191V188V187H189V188ZM193 188V189H195V188V187H193V188ZM197 188V189H199V188V187H197V188ZM201 188V189H203V188V187H201V188ZM205 188V189H207V188V187H205V188ZM209 188V189H211V188V187H209V188ZM213 188V189H215V188V187H213V188ZM217 188V189H219V188V187H217V188ZM221 188V189H223V188V187H221V188ZM225 188V189H227V188V187H225V188ZM229 188V189H231V188V187H229V188ZM233 188V189H235V188V187H233V188ZM237 188V189H239V188V187H237V188ZM241 188V189H243V188V187H241V188ZM245 188V189H247V188V187H245V188ZM249 188V189H251V188V187H249V188ZM253 188V189H255V188V187H253V188ZM257 188V189H259V188V187H257V188ZM261 188V189H263V188V187H261V188ZM265 188V189H267V188V187H265V188ZM269 188V189H271V188V187H269V188ZM273 188V189H275V188V187H273V188ZM277 188V189H279V188V187H277V188ZM281 188V189H283V188V187H281V188ZM285 188V189H287V188V187H285V188ZM289 188V189H291V188V187H289V188ZM293 188V189H295V188V187H293V188ZM297 188V189H298V188V187H297V188Z" fill="#E5E5E5" mask="url(#path-13-inside-2_172_51)"/>
<path d="M53.3047 180V171.516H54.3594V175.711H54.4648L58.2383 171.516H59.6211L56.0703 175.348L59.6211 180H58.332L55.4141 176.074L54.3594 177.27V180H53.3047ZM67.5195 175.758C67.5195 178.441 65.9375 180.117 63.7695 180.117C61.5898 180.117 60.0195 178.441 60.0195 175.758C60.0195 173.074 61.5898 171.398 63.7695 171.398C65.9375 171.398 67.5195 173.074 67.5195 175.758ZM66.5 175.758C66.5 173.566 65.3047 172.383 63.7695 172.383C62.2344 172.383 61.0391 173.566 61.0391 175.758C61.0391 177.949 62.2344 179.133 63.7695 179.133C65.3047 179.133 66.5 177.949 66.5 175.758ZM70.1211 171.516V180H69.0664V171.516H70.1211ZM77.7852 174.188C77.5391 173.016 76.5312 172.383 75.418 172.383C73.8828 172.383 72.6875 173.566 72.6875 175.758C72.6875 177.949 73.8828 179.133 75.418 179.133C76.5312 179.133 77.5273 178.5 77.7852 177.34H78.8398C78.5352 179.074 77.1406 180.117 75.418 180.117C73.2383 180.117 71.668 178.441 71.668 175.758C71.668 173.074 73.2383 171.398 75.418 171.398C77.1289 171.398 78.5234 172.43 78.8398 174.188H77.7852ZM80.6797 180H79.5781L82.6836 171.516H83.7969L86.9023 180H85.7891L84.9453 177.609H81.5352L80.6797 180ZM81.8516 176.684H84.6172L83.2695 172.887H83.1992L81.8516 176.684ZM95.9609 173.695V174.434H88.8242V170.918H89.7383V173.695H95.9609ZM97.0625 175.852V176.602H87.5234V175.852H97.0625ZM96.0195 179.93V180.691H88.7656V177.668H89.6797V179.93H96.0195ZM103.707 171.34C105.242 171.352 106.332 172.758 106.344 174.973C106.332 177.188 105.242 178.594 103.707 178.594C102.16 178.594 101.082 177.188 101.082 174.973C101.082 172.758 102.16 171.352 103.707 171.34ZM103.707 172.16C102.676 172.172 101.949 173.273 101.949 174.973C101.949 176.672 102.676 177.773 103.707 177.773C104.75 177.773 105.453 176.672 105.453 174.973C105.453 173.273 104.75 172.172 103.707 172.16ZM108.98 170.531V174.691H110.727V175.488H108.98V180.949H108.066V170.531H108.98ZM114.992 173.332C114.98 175.23 116.281 177.152 117.816 177.844L117.254 178.57C116.07 177.99 115.045 176.766 114.547 175.277C114.061 176.854 113.035 178.166 111.816 178.781L111.23 178.008C112.777 177.293 114.066 175.312 114.078 173.332V171.434H114.992V173.332ZM119.879 170.531V180.973H118.953V170.531H119.879ZM124.449 171.34C125.984 171.352 127.074 172.758 127.086 174.973C127.074 177.188 125.984 178.594 124.449 178.594C122.902 178.594 121.824 177.188 121.824 174.973C121.824 172.758 122.902 171.352 124.449 171.34ZM124.449 172.16C123.418 172.172 122.691 173.273 122.691 174.973C122.691 176.672 123.418 177.773 124.449 177.773C125.492 177.773 126.195 176.672 126.195 174.973C126.195 173.273 125.492 172.172 124.449 172.16ZM129.723 170.531V174.691H131.469V175.488H129.723V180.949H128.809V170.531H129.723ZM133.742 179.215L132.828 182.402H131.961L132.605 179.215H133.742ZM140.902 171.34C142.438 171.352 143.527 172.758 143.539 174.973C143.527 177.188 142.438 178.594 140.902 178.594C139.355 178.594 138.277 177.188 138.277 174.973C138.277 172.758 139.355 171.352 140.902 171.34ZM140.902 172.16C139.871 172.172 139.145 173.273 139.145 174.973C139.145 176.672 139.871 177.773 140.902 177.773C141.945 177.773 142.648 176.672 142.648 174.973C142.648 173.273 141.945 172.172 140.902 172.16ZM146.176 170.531V174.691H147.922V175.488H146.176V180.949H145.262V170.531H146.176ZM158.023 178.828V179.613H148.484V178.828H158.023ZM157.109 171.586V172.348H155.457V175.992H157.086V176.742H149.352V175.992H150.98V172.348H149.328V171.586H157.109ZM151.895 175.992H154.555V172.348H151.895V175.992ZM167.457 170.531V180.973H166.543V170.531H167.457ZM164.293 171.504V175.207H160.402V177.668C162.131 177.668 163.672 177.592 165.535 177.293L165.629 178.066C163.707 178.371 162.125 178.441 160.332 178.441H159.465V174.457H163.367V172.266H159.441V171.504H164.293ZM174.629 171.621C174.617 174.633 173.598 177.387 169.848 179.227L169.332 178.523C171.295 177.574 172.473 176.367 173.105 174.961L169.531 175.301L169.379 174.492L173.387 174.223C173.568 173.637 173.674 173.021 173.715 172.383H169.906V171.621H174.629ZM177.289 170.531V174.773H178.977V175.547H177.289V180.949H176.375V170.531H177.289ZM181.309 179.215L180.395 182.402H179.527L180.172 179.215H181.309ZM195.172 175.406V176.168H190.871V177.281C192.84 177.363 194 178.008 194.012 179.109C194 180.27 192.664 180.926 190.426 180.926C188.164 180.926 186.828 180.27 186.828 179.109C186.828 178.008 187.982 177.363 189.969 177.281V176.168H185.68V175.406H195.172ZM190.426 177.984C188.75 177.996 187.754 178.406 187.766 179.109C187.754 179.801 188.75 180.211 190.426 180.211C192.078 180.211 193.086 179.801 193.086 179.109C193.086 178.406 192.078 177.996 190.426 177.984ZM194.328 171.023V171.773H191.023C191.082 172.945 192.805 173.854 194.645 174.047L194.305 174.773C192.6 174.568 191 173.807 190.426 172.641C189.857 173.807 188.264 174.568 186.547 174.773L186.219 174.047C188.023 173.854 189.758 172.945 189.828 171.773H186.547V171.023H194.328ZM204.195 170.543V172.934H205.777V173.707H204.195V176.426H203.281V170.543H204.195ZM204.195 177V180.809H197.598V177H204.195ZM198.5 177.727V180.059H203.305V177.727H198.5ZM197.48 171.07V174.855C198.963 174.85 200.492 174.732 202.18 174.387L202.297 175.16C200.527 175.512 198.957 175.629 197.387 175.629H196.555V171.07H197.48ZM211.848 171.562V178.336H207.031V171.562H211.848ZM207.934 172.301V177.586H210.945V172.301H207.934ZM215.012 170.531V180.973H214.086V170.531H215.012ZM229.309 175.488V176.262H219.805V175.488H229.309ZM228.195 173.742V174.492H221.012V170.953H228.125V171.727H221.914V173.742H228.195ZM224.551 177.176C226.789 177.176 228.125 177.855 228.137 179.051C228.125 180.258 226.789 180.926 224.551 180.926C222.301 180.926 220.953 180.258 220.953 179.051C220.953 177.855 222.301 177.176 224.551 177.176ZM224.551 177.891C222.875 177.902 221.879 178.324 221.891 179.051C221.879 179.789 222.875 180.199 224.551 180.199C226.203 180.199 227.211 179.789 227.211 179.051C227.211 178.324 226.203 177.902 224.551 177.891ZM241.824 170.543V178.184H240.898V174.188H238.754V173.426H240.898V170.543H241.824ZM242.117 179.953V180.727H235.133V177.492H236.059V179.953H242.117ZM236.809 172.688C236.809 174.035 237.852 175.348 239.375 175.863L238.895 176.602C237.717 176.18 236.809 175.301 236.363 174.223C235.912 175.424 234.951 176.385 233.715 176.848L233.234 176.098C234.77 175.559 235.883 174.188 235.883 172.688V172.148H233.527V171.387H239.141V172.148H236.809V172.688ZM246.652 173.496C246.652 175.148 247.461 176.941 248.844 177.762L248.316 178.477C247.314 177.867 246.594 176.754 246.23 175.488C245.844 176.871 245.07 178.061 244.027 178.699L243.441 178.008C244.883 177.164 245.762 175.312 245.762 173.531V171.516H246.652V173.496ZM252.488 170.531V180.949H251.598V170.531H252.488ZM250.332 170.754V180.422H249.465V175.055H247.695V174.27H249.465V170.754H250.332ZM262.848 170.531V180.949H261.969V170.531H262.848ZM260.738 170.812V180.422H259.859V176.812H257.926V176.051H259.859V174.199H258.102C257.592 175.963 256.449 177.521 254.48 178.699L253.918 178.031C256.186 176.689 257.322 174.809 257.504 172.629H254.387V171.867H258.418C258.418 172.4 258.371 172.928 258.277 173.438H259.859V170.812H260.738ZM273.219 171.586V172.348H267.324V171.586H269.855V170.438H270.77V171.586H273.219ZM270.301 172.852C271.695 172.852 272.68 173.602 272.68 174.738C272.68 175.863 271.695 176.602 270.301 176.602C268.895 176.602 267.934 175.863 267.945 174.738C267.934 173.602 268.895 172.852 270.301 172.852ZM270.301 173.566C269.398 173.566 268.801 174.035 268.801 174.738C268.801 175.43 269.398 175.91 270.301 175.91C271.203 175.91 271.812 175.43 271.824 174.738C271.812 174.035 271.203 173.566 270.301 173.566ZM275.949 170.531V176.695H275.023V175.77H273.207V175.008H275.023V173.73H273.219V172.969H275.023V170.531H275.949ZM270.078 177.129V178.23H275.035V177.129H275.949V180.809H269.164V177.129H270.078ZM270.078 180.07H275.035V178.945H270.078V180.07ZM282.629 171.176V174.094H279.043V175.711C281 175.711 282.008 175.682 283.238 175.453L283.332 176.215C282.031 176.426 280.977 176.461 278.867 176.461H278.129V173.391H281.715V171.914H278.105V171.176H282.629ZM286.32 170.543V176.941H285.395V175.008H283.32V174.246H285.395V172.84H283.32V172.09H285.395V170.543H286.32ZM286.32 177.504V180.973H285.395V178.254H279.301V177.504H286.32Z" fill="#333333"/>
<mask id="path-16-inside-3_172_51" fill="white">
<path d="M42 193H298V217H42V193Z"/>
</mask>
<path d="M42 217V217.5H43V217V216.5H42V217ZM45 217V217.5H47V217V216.5H45V217ZM49 217V217.5H51V217V216.5H49V217ZM53 217V217.5H55V217V216.5H53V217ZM57 217V217.5H59V217V216.5H57V217ZM61 217V217.5H63V217V216.5H61V217ZM65 217V217.5H67V217V216.5H65V217ZM69 217V217.5H71V217V216.5H69V217ZM73 217V217.5H75V217V216.5H73V217ZM77 217V217.5H79V217V216.5H77V217ZM81 217V217.5H83V217V216.5H81V217ZM85 217V217.5H87V217V216.5H85V217ZM89 217V217.5H91V217V216.5H89V217ZM93 217V217.5H95V217V216.5H93V217ZM97 217V217.5H99V217V216.5H97V217ZM101 217V217.5H103V217V216.5H101V217ZM105 217V217.5H107V217V216.5H105V217ZM109 217V217.5H111V217V216.5H109V217ZM113 217V217.5H115V217V216.5H113V217ZM117 217V217.5H119V217V216.5H117V217ZM121 217V217.5H123V217V216.5H121V217ZM125 217V217.5H127V217V216.5H125V217ZM129 217V217.5H131V217V216.5H129V217ZM133 217V217.5H135V217V216.5H133V217ZM137 217V217.5H139V217V216.5H137V217ZM141 217V217.5H143V217V216.5H141V217ZM145 217V217.5H147V217V216.5H145V217ZM149 217V217.5H151V217V216.5H149V217ZM153 217V217.5H155V217V216.5H153V217ZM157 217V217.5H159V217V216.5H157V217ZM161 217V217.5H163V217V216.5H161V217ZM165 217V217.5H167V217V216.5H165V217ZM169 217V217.5H171V217V216.5H169V217ZM173 217V217.5H175V217V216.5H173V217ZM177 217V217.5H179V217V216.5H177V217ZM181 217V217.5H183V217V216.5H181V217ZM185 217V217.5H187V217V216.5H185V217ZM189 217V217.5H191V217V216.5H189V217ZM193 217V217.5H195V217V216.5H193V217ZM197 217V217.5H199V217V216.5H197V217ZM201 217V217.5H203V217V216.5H201V217ZM205 217V217.5H207V217V216.5H205V217ZM209 217V217.5H211V217V216.5H209V217ZM213 217V217.5H215V217V216.5H213V217ZM217 217V217.5H219V217V216.5H217V217ZM221 217V217.5H223V217V216.5H221V217ZM225 217V217.5H227V217V216.5H225V217ZM229 217V217.5H231V217V216.5H229V217ZM233 217V217.5H235V217V216.5H233V217ZM237 217V217.5H239V217V216.5H237V217ZM241 217V217.5H243V217V216.5H241V217ZM245 217V217.5H247V217V216.5H245V217ZM249 217V217.5H251V217V216.5H249V217ZM253 217V217.5H255V217V216.5H253V217ZM257 217V217.5H259V217V216.5H257V217ZM261 217V217.5H263V217V216.5H261V217ZM265 217V217.5H267V217V216.5H265V217ZM269 217V217.5H271V217V216.5H269V217ZM273 217V217.5H275V217V216.5H273V217ZM277 217V217.5H279V217V216.5H277V217ZM281 217V217.5H283V217V216.5H281V217ZM285 217V217.5H287V217V216.5H285V217ZM289 217V217.5H291V217V216.5H289V217ZM293 217V217.5H295V217V216.5H293V217ZM297 217V217.5H298V217V216.5H297V217ZM42 217V218H43V217V216H42V217ZM45 217V218H47V217V216H45V217ZM49 217V218H51V217V216H49V217ZM53 217V218H55V217V216H53V217ZM57 217V218H59V217V216H57V217ZM61 217V218H63V217V216H61V217ZM65 217V218H67V217V216H65V217ZM69 217V218H71V217V216H69V217ZM73 217V218H75V217V216H73V217ZM77 217V218H79V217V216H77V217ZM81 217V218H83V217V216H81V217ZM85 217V218H87V217V216H85V217ZM89 217V218H91V217V216H89V217ZM93 217V218H95V217V216H93V217ZM97 217V218H99V217V216H97V217ZM101 217V218H103V217V216H101V217ZM105 217V218H107V217V216H105V217ZM109 217V218H111V217V216H109V217ZM113 217V218H115V217V216H113V217ZM117 217V218H119V217V216H117V217ZM121 217V218H123V217V216H121V217ZM125 217V218H127V217V216H125V217ZM129 217V218H131V217V216H129V217ZM133 217V218H135V217V216H133V217ZM137 217V218H139V217V216H137V217ZM141 217V218H143V217V216H141V217ZM145 217V218H147V217V216H145V217ZM149 217V218H151V217V216H149V217ZM153 217V218H155V217V216H153V217ZM157 217V218H159V217V216H157V217ZM161 217V218H163V217V216H161V217ZM165 217V218H167V217V216H165V217ZM169 217V218H171V217V216H169V217ZM173 217V218H175V217V216H173V217ZM177 217V218H179V217V216H177V217ZM181 217V218H183V217V216H181V217ZM185 217V218H187V217V216H185V217ZM189 217V218H191V217V216H189V217ZM193 217V218H195V217V216H193V217ZM197 217V218H199V217V216H197V217ZM201 217V218H203V217V216H201V217ZM205 217V218H207V217V216H205V217ZM209 217V218H211V217V216H209V217ZM213 217V218H215V217V216H213V217ZM217 217V218H219V217V216H217V217ZM221 217V218H223V217V216H221V217ZM225 217V218H227V217V216H225V217ZM229 217V218H231V217V216H229V217ZM233 217V218H235V217V216H233V217ZM237 217V218H239V217V216H237V217ZM241 217V218H243V217V216H241V217ZM245 217V218H247V217V216H245V217ZM249 217V218H251V217V216H249V217ZM253 217V218H255V217V216H253V217ZM257 217V218H259V217V216H257V217ZM261 217V218H263V217V216H261V217ZM265 217V218H267V217V216H265V217ZM269 217V218H271V217V216H269V217ZM273 217V218H275V217V216H273V217ZM277 217V218H279V217V216H277V217ZM281 217V218H283V217V216H281V217ZM285 217V218H287V217V216H285V217ZM289 217V218H291V217V216H289V217ZM293 217V218H295V217V216H293V217ZM297 217V218H298V217V216H297V217Z" fill="#E5E5E5" mask="url(#path-16-inside-3_172_51)"/>
<path d="M68.0879 199.531V209.949H67.209V204.488H65.6738V209.41H64.8301V199.766H65.6738V203.727H67.209V199.531H68.0879ZM63.4707 200.809V201.57H60.4824V206.586C61.918 206.58 62.9141 206.527 64.0684 206.293L64.1504 207.066C62.8965 207.324 61.8301 207.371 60.2363 207.371H59.5684V200.809H63.4707ZM73.0332 201.219C73.0332 202.637 74.1113 203.938 75.623 204.453L75.1191 205.18C73.9648 204.758 73.0566 203.896 72.5996 202.812C72.1543 204.037 71.2285 205.004 70.0098 205.473L69.5176 204.734C71.0762 204.148 72.1191 202.754 72.1309 201.148V200.07H73.0332V201.219ZM77.6973 199.531V202.25H79.2676V203.023H77.6973V205.871H76.7832V199.531H77.6973ZM74.3574 206.141C76.502 206.141 77.791 206.832 77.791 208.027C77.791 209.246 76.502 209.926 74.3574 209.926C72.2129 209.926 70.9004 209.246 70.9004 208.027C70.9004 206.832 72.2129 206.141 74.3574 206.141ZM74.3574 206.879C72.7871 206.879 71.8145 207.312 71.8262 208.027C71.8145 208.766 72.7871 209.188 74.3574 209.199C75.9395 209.188 76.9004 208.766 76.9004 208.027C76.9004 207.312 75.9395 206.879 74.3574 206.879ZM88.209 200.047V200.797C88.209 201.576 88.209 202.508 87.9512 203.762H89.4629V204.512H85.127V206.434H88.2793V209.949H87.3535V207.195H80.9082V206.434H84.2129V204.512H79.9238V203.762H87.0254C87.2949 202.484 87.2949 201.576 87.2949 200.797H81.1309V200.047H88.209ZM99.2246 199.531V209.949H98.334V199.531H99.2246ZM97.127 199.754V209.422H96.248V204.359H94.9121C94.8125 206.387 93.9512 207.652 92.6621 207.652C91.3027 207.652 90.4238 206.246 90.4238 204.031C90.4238 201.816 91.3027 200.41 92.6621 200.41C93.9277 200.41 94.7832 201.635 94.9004 203.598H96.248V199.754H97.127ZM92.6621 201.277C91.8184 201.277 91.2793 202.332 91.291 204.031C91.2793 205.719 91.8184 206.785 92.6621 206.773C93.5059 206.785 94.0449 205.719 94.0449 204.031C94.0449 202.332 93.5059 201.277 92.6621 201.277ZM112.314 199.543V205.801H111.389V204.395H108.623V203.633H111.389V202.227H108.729C108.043 203.902 106.432 205.115 104.205 205.777L103.818 205.051C106.338 204.301 107.902 202.895 108.096 201.09H104.346V200.316H109.092C109.092 200.727 109.045 201.119 108.963 201.488H111.389V199.543H112.314ZM108.904 205.906C111.014 205.906 112.373 206.656 112.373 207.898C112.373 209.152 111.014 209.902 108.904 209.902C106.771 209.902 105.424 209.152 105.424 207.898C105.424 206.656 106.771 205.906 108.904 205.906ZM108.904 206.645C107.334 206.633 106.326 207.113 106.326 207.898C106.326 208.684 107.334 209.152 108.904 209.152C110.451 209.152 111.447 208.684 111.459 207.898C111.447 207.113 110.451 206.633 108.904 206.645ZM122.955 199.531V209.949H122.076V199.531H122.955ZM120.846 199.789V209.41H119.979V204.043H118.221V203.293H119.979V199.789H120.846ZM117.107 202.508C117.107 204.312 117.916 206.105 119.357 206.938L118.795 207.617C117.77 207.002 117.043 205.877 116.686 204.547C116.305 205.982 115.549 207.207 114.506 207.863L113.92 207.172C115.373 206.305 116.217 204.406 116.217 202.508V201.523H114.213V200.762H119.018V201.523H117.107V202.508ZM130.924 202.332C130.924 204.172 132.143 206.059 133.619 206.785L133.057 207.523C131.908 206.92 130.947 205.689 130.49 204.242C130.021 205.783 129.037 207.096 127.865 207.723L127.279 206.984C128.803 206.234 130.01 204.23 130.021 202.332V200.434H130.924V202.332ZM135.494 199.531V203.762H137.24V204.559H135.494V209.949H134.58V199.531H135.494ZM146.346 199.531V209.949H145.432V199.531H146.346ZM137.861 207.172C138.752 207.166 139.771 207.16 140.826 207.125V205.988C139.578 205.854 138.764 205.145 138.775 204.102C138.764 202.93 139.771 202.168 141.271 202.168C142.771 202.168 143.791 202.93 143.791 204.102C143.791 205.133 142.982 205.842 141.752 205.977V207.09C142.76 207.049 143.779 206.973 144.74 206.844L144.811 207.547C142.49 207.922 139.936 207.957 138.002 207.957L137.861 207.172ZM144.471 200.82V201.57H138.084V200.82H140.826V199.543H141.752V200.82H144.471ZM141.271 202.883C140.311 202.883 139.631 203.375 139.631 204.102C139.631 204.828 140.311 205.297 141.271 205.285C142.244 205.297 142.912 204.828 142.912 204.102C142.912 203.375 142.244 202.883 141.271 202.883ZM152.533 199.977V201.477H155.568V199.977H156.482V204.512H151.631V199.977H152.533ZM152.533 203.762H155.568V202.191H152.533V203.762ZM159.33 199.531V201.793H160.9V202.566H159.33V204.922H158.416V199.531H159.33ZM159.33 205.414V207.934H153.611V209.082H159.717V209.832H152.709V207.23H158.416V206.152H152.686V205.414H159.33ZM170.193 199.543V207.184H169.268V203.188H167.123V202.426H169.268V199.543H170.193ZM170.486 208.953V209.727H163.502V206.492H164.428V208.953H170.486ZM165.178 201.688C165.178 203.035 166.221 204.348 167.744 204.863L167.264 205.602C166.086 205.18 165.178 204.301 164.732 203.223C164.281 204.424 163.32 205.385 162.084 205.848L161.604 205.098C163.139 204.559 164.252 203.188 164.252 201.688V201.148H161.896V200.387H167.51V201.148H165.178V201.688ZM176.674 199.719C178.994 199.719 180.354 200.352 180.354 201.512C180.354 202.695 178.994 203.328 176.674 203.34C174.354 203.328 172.982 202.695 172.982 201.512C172.982 200.352 174.354 199.719 176.674 199.719ZM176.674 200.41C174.939 200.41 173.932 200.832 173.943 201.512C173.932 202.238 174.939 202.637 176.674 202.637C178.396 202.637 179.416 202.238 179.416 201.512C179.416 200.832 178.396 200.41 176.674 200.41ZM181.42 204.043V204.793H171.928V204.043H181.42ZM180.201 205.695V208.027H174.014V209.105H180.518V209.832H173.1V207.348H179.299V206.398H173.076V205.695H180.201ZM189.037 202.73C189.037 204.5 190.326 206.293 191.861 206.961L191.346 207.688C190.127 207.131 189.072 205.93 188.592 204.488C188.1 206.018 187.051 207.348 185.861 207.945L185.311 207.219C186.799 206.504 188.1 204.535 188.111 202.73V201.371H185.65V200.609H191.521V201.371H189.037V202.73ZM193.9 199.531V209.949H192.975V199.531H193.9ZM204.271 199.543V207.453H203.346V206.375H201.189V205.707H203.346V199.543H204.271ZM204.529 208.953V209.727H197.123V206.68H198.049V208.953H204.529ZM195.623 204.371C197.568 204.359 200.17 204.348 202.408 204.066L202.467 204.734C201.535 204.881 200.562 204.975 199.607 205.027V207.09H198.682V205.074C197.627 205.121 196.625 205.127 195.752 205.121L195.623 204.371ZM199.045 199.965C200.568 199.965 201.611 200.691 201.623 201.781C201.611 202.895 200.568 203.586 199.045 203.586C197.51 203.586 196.467 202.895 196.467 201.781C196.467 200.691 197.51 199.965 199.045 199.965ZM199.045 200.668C198.025 200.656 197.334 201.113 197.346 201.781C197.334 202.461 198.025 202.906 199.045 202.906C200.029 202.906 200.732 202.461 200.744 201.781C200.732 201.113 200.029 200.656 199.045 200.668ZM214.115 199.531V203.832H215.861V204.594H214.115V209.949H213.201V199.531H214.115ZM212.193 201.207V201.969H205.994V201.207H208.678V199.66H209.592V201.207H212.193ZM209.146 202.836C210.623 202.836 211.689 203.82 211.701 205.227C211.689 206.633 210.623 207.617 209.146 207.617C207.658 207.617 206.58 206.633 206.592 205.227C206.58 203.82 207.658 202.836 209.146 202.836ZM209.146 203.609C208.174 203.609 207.459 204.289 207.471 205.227C207.459 206.176 208.174 206.844 209.146 206.832C210.107 206.844 210.811 206.176 210.822 205.227C210.811 204.289 210.107 203.609 209.146 203.609ZM221.592 200.574V202.039H224.146V199.531H225.061V209.973H224.146V205.672H221.592V207.312H216.846V200.574H221.592ZM217.76 201.301V206.574H220.701V201.301H217.76ZM221.592 204.91H224.146V202.801H221.592V204.91ZM238.092 200.047V200.797C238.092 201.576 238.092 202.508 237.834 203.762H239.346V204.512H235.01V206.434H238.162V209.949H237.236V207.195H230.791V206.434H234.096V204.512H229.807V203.762H236.908C237.178 202.484 237.178 201.576 237.178 200.797H231.014V200.047H238.092ZM249.084 199.531V209.949H248.205V199.531H249.084ZM246.975 199.789V209.41H246.107V204.043H244.35V203.293H246.107V199.789H246.975ZM243.236 202.508C243.236 204.312 244.045 206.105 245.486 206.938L244.924 207.617C243.898 207.002 243.172 205.877 242.814 204.547C242.434 205.982 241.678 207.207 240.635 207.863L240.049 207.172C241.502 206.305 242.346 204.406 242.346 202.508V201.523H240.342V200.762H245.146V201.523H243.236V202.508ZM254.041 202.332C254.041 204.172 255.26 206.059 256.736 206.785L256.174 207.523C255.025 206.92 254.064 205.689 253.607 204.242C253.139 205.783 252.154 207.096 250.982 207.723L250.396 206.984C251.92 206.234 253.127 204.23 253.139 202.332V200.434H254.041V202.332ZM258.611 199.531V203.762H260.357V204.559H258.611V209.949H257.697V199.531H258.611ZM269.463 199.531V209.949H268.549V199.531H269.463ZM260.979 207.172C261.869 207.166 262.889 207.16 263.943 207.125V205.988C262.695 205.854 261.881 205.145 261.893 204.102C261.881 202.93 262.889 202.168 264.389 202.168C265.889 202.168 266.908 202.93 266.908 204.102C266.908 205.133 266.1 205.842 264.869 205.977V207.09C265.877 207.049 266.896 206.973 267.857 206.844L267.928 207.547C265.607 207.922 263.053 207.957 261.119 207.957L260.979 207.172ZM267.588 200.82V201.57H261.201V200.82H263.943V199.543H264.869V200.82H267.588ZM264.389 202.883C263.428 202.883 262.748 203.375 262.748 204.102C262.748 204.828 263.428 205.297 264.389 205.285C265.361 205.297 266.029 204.828 266.029 204.102C266.029 203.375 265.361 202.883 264.389 202.883ZM274.701 200.293C276.342 200.293 277.502 201.289 277.502 202.742C277.502 204.195 276.342 205.191 274.701 205.191C273.061 205.191 271.877 204.195 271.889 202.742C271.877 201.289 273.061 200.293 274.701 200.293ZM274.701 201.102C273.588 201.102 272.779 201.77 272.791 202.742C272.779 203.715 273.588 204.383 274.701 204.383C275.803 204.383 276.6 203.715 276.6 202.742C276.6 201.77 275.803 201.102 274.701 201.102ZM279.834 199.531V209.973H278.92V199.531H279.834ZM271.35 206.891C273.271 206.891 275.92 206.879 278.229 206.539L278.299 207.219C275.92 207.664 273.354 207.676 271.479 207.676L271.35 206.891Z" fill="#333333"/>
<mask id="path-19-inside-4_172_51" fill="white">
<path d="M42 222H298V246H42V222Z"/>
</mask>
<path d="M42 246V246.5H43V246V245.5H42V246ZM45 246V246.5H47V246V245.5H45V246ZM49 246V246.5H51V246V245.5H49V246ZM53 246V246.5H55V246V245.5H53V246ZM57 246V246.5H59V246V245.5H57V246ZM61 246V246.5H63V246V245.5H61V246ZM65 246V246.5H67V246V245.5H65V246ZM69 246V246.5H71V246V245.5H69V246ZM73 246V246.5H75V246V245.5H73V246ZM77 246V246.5H79V246V245.5H77V246ZM81 246V246.5H83V246V245.5H81V246ZM85 246V246.5H87V246V245.5H85V246ZM89 246V246.5H91V246V245.5H89V246ZM93 246V246.5H95V246V245.5H93V246ZM97 246V246.5H99V246V245.5H97V246ZM101 246V246.5H103V246V245.5H101V246ZM105 246V246.5H107V246V245.5H105V246ZM109 246V246.5H111V246V245.5H109V246ZM113 246V246.5H115V246V245.5H113V246ZM117 246V246.5H119V246V245.5H117V246ZM121 246V246.5H123V246V245.5H121V246ZM125 246V246.5H127V246V245.5H125V246ZM129 246V246.5H131V246V245.5H129V246ZM133 246V246.5H135V246V245.5H133V246ZM137 246V246.5H139V246V245.5H137V246ZM141 246V246.5H143V246V245.5H141V246ZM145 246V246.5H147V246V245.5H145V246ZM149 246V246.5H151V246V245.5H149V246ZM153 246V246.5H155V246V245.5H153V246ZM157 246V246.5H159V246V245.5H157V246ZM161 246V246.5H163V246V245.5H161V246ZM165 246V246.5H167V246V245.5H165V246ZM169 246V246.5H171V246V245.5H169V246ZM173 246V246.5H175V246V245.5H173V246ZM177 246V246.5H179V246V245.5H177V246ZM181 246V246.5H183V246V245.5H181V246ZM185 246V246.5H187V246V245.5H185V246ZM189 246V246.5H191V246V245.5H189V246ZM193 246V246.5H195V246V245.5H193V246ZM197 246V246.5H199V246V245.5H197V246ZM201 246V246.5H203V246V245.5H201V246ZM205 246V246.5H207V246V245.5H205V246ZM209 246V246.5H211V246V245.5H209V246ZM213 246V246.5H215V246V245.5H213V246ZM217 246V246.5H219V246V245.5H217V246ZM221 246V246.5H223V246V245.5H221V246ZM225 246V246.5H227V246V245.5H225V246ZM229 246V246.5H231V246V245.5H229V246ZM233 246V246.5H235V246V245.5H233V246ZM237 246V246.5H239V246V245.5H237V246ZM241 246V246.5H243V246V245.5H241V246ZM245 246V246.5H247V246V245.5H245V246ZM249 246V246.5H251V246V245.5H249V246ZM253 246V246.5H255V246V245.5H253V246ZM257 246V246.5H259V246V245.5H257V246ZM261 246V246.5H263V246V245.5H261V246ZM265 246V246.5H267V246V245.5H265V246ZM269 246V246.5H271V246V245.5H269V246ZM273 246V246.5H275V246V245.5H273V246ZM277 246V246.5H279V246V245.5H277V246ZM281 246V246.5H283V246V245.5H281V246ZM285 246V246.5H287V246V245.5H285V246ZM289 246V246.5H291V246V245.5H289V246ZM293 246V246.5H295V246V245.5H293V246ZM297 246V246.5H298V246V245.5H297V246ZM42 246V247H43V246V245H42V246ZM45 246V247H47V246V245H45V246ZM49 246V247H51V246V245H49V246ZM53 246V247H55V246V245H53V246ZM57 246V247H59V246V245H57V246ZM61 246V247H63V246V245H61V246ZM65 246V247H67V246V245H65V246ZM69 246V247H71V246V245H69V246ZM73 246V247H75V246V245H73V246ZM77 246V247H79V246V245H77V246ZM81 246V247H83V246V245H81V246ZM85 246V247H87V246V245H85V246ZM89 246V247H91V246V245H89V246ZM93 246V247H95V246V245H93V246ZM97 246V247H99V246V245H97V246ZM101 246V247H103V246V245H101V246ZM105 246V247H107V246V245H105V246ZM109 246V247H111V246V245H109V246ZM113 246V247H115V246V245H113V246ZM117 246V247H119V246V245H117V246ZM121 246V247H123V246V245H121V246ZM125 246V247H127V246V245H125V246ZM129 246V247H131V246V245H129V246ZM133 246V247H135V246V245H133V246ZM137 246V247H139V246V245H137V246ZM141 246V247H143V246V245H141V246ZM145 246V247H147V246V245H145V246ZM149 246V247H151V246V245H149V246ZM153 246V247H155V246V245H153V246ZM157 246V247H159V246V245H157V246ZM161 246V247H163V246V245H161V246ZM165 246V247H167V246V245H165V246ZM169 246V247H171V246V245H169V246ZM173 246V247H175V246V245H173V246ZM177 246V247H179V246V245H177V246ZM181 246V247H183V246V245H181V246ZM185 246V247H187V246V245H185V246ZM189 246V247H191V246V245H189V246ZM193 246V247H195V246V245H193V246ZM197 246V247H199V246V245H197V246ZM201 246V247H203V246V245H201V246ZM205 246V247H207V246V245H205V246ZM209 246V247H211V246V245H209V246ZM213 246V247H215V246V245H213V246ZM217 246V247H219V246V245H217V246ZM221 246V247H223V246V245H221V246ZM225 246V247H227V246V245H225V246ZM229 246V247H231V246V245H229V246ZM233 246V247H235V246V245H233V246ZM237 246V247H239V246V245H237V246ZM241 246V247H243V246V245H241V246ZM245 246V247H247V246V245H245V246ZM249 246V247H251V246V245H249V246ZM253 246V247H255V246V245H253V246ZM257 246V247H259V246V245H257V246ZM261 246V247H263V246V245H261V246ZM265 246V247H267V246V245H265V246ZM269 246V247H271V246V245H269V246ZM273 246V247H275V246V245H273V246ZM277 246V247H279V246V245H277V246ZM281 246V247H283V246V245H281V246ZM285 246V247H287V246V245H285V246ZM289 246V247H291V246V245H289V246ZM293 246V247H295V246V245H293V246ZM297 246V247H298V246V245H297V246Z" fill="#E5E5E5" mask="url(#path-19-inside-4_172_51)"/>
<path d="M76.9062 229.328V230.09H75.8398V233.418C76.3262 233.389 76.7949 233.348 77.2461 233.289L77.293 233.992C75.2656 234.309 72.8867 234.332 71.1992 234.332L71.082 233.559L72.4297 233.547V230.09H71.375V229.328H76.9062ZM79.6953 228.531V234.965H78.7695V233.031H77.0117V232.27H78.7695V231.168H77.0117V230.406H78.7695V228.531H79.6953ZM76.2383 235.188C78.418 235.188 79.7305 235.867 79.7305 237.051C79.7305 238.246 78.418 238.926 76.2383 238.926C74.0586 238.926 72.7461 238.246 72.7461 237.051C72.7461 235.867 74.0586 235.188 76.2383 235.188ZM76.2383 235.902C74.6328 235.902 73.6484 236.336 73.6602 237.051C73.6484 237.777 74.6328 238.199 76.2383 238.199C77.8438 238.199 78.8164 237.777 78.8164 237.051C78.8164 236.336 77.8438 235.902 76.2383 235.902ZM73.3203 233.535C73.8535 233.523 74.4043 233.506 74.9492 233.477V230.09H73.3203V233.535ZM89.5156 228.531V232.973H91.1797V233.746H89.5156V238.949H88.5898V228.531H89.5156ZM81.3008 236.172C82.1504 236.172 83.1406 236.172 84.1719 236.137V234.977C82.959 234.842 82.168 234.133 82.1797 233.102C82.168 231.93 83.1641 231.168 84.6406 231.168C86.0938 231.168 87.1016 231.93 87.1133 233.102C87.1016 234.133 86.2988 234.842 85.0977 234.988V236.102C86.0703 236.055 87.0488 235.979 87.957 235.844L88.0156 236.547C85.7422 236.934 83.2812 236.957 81.4531 236.957L81.3008 236.172ZM87.7695 229.809V230.559H81.4883V229.809H84.1719V228.555H85.0977V229.809H87.7695ZM84.6406 231.883C83.6797 231.883 83.0352 232.375 83.0352 233.102C83.0352 233.828 83.6797 234.297 84.6406 234.285C85.5898 234.297 86.2344 233.828 86.2344 233.102C86.2344 232.375 85.5898 231.883 84.6406 231.883ZM94.9414 229.211C96.5469 229.223 97.707 230.207 97.7188 231.66C97.707 232.967 96.7695 233.898 95.4102 234.062V235.844C96.3828 235.797 97.3613 235.727 98.2695 235.609L98.3281 236.301C96.125 236.676 93.6523 236.699 91.8242 236.688L91.6719 235.914C92.5098 235.908 93.4824 235.902 94.4844 235.867V234.062C93.1016 233.904 92.1523 232.973 92.1641 231.66C92.1523 230.207 93.3125 229.223 94.9414 229.211ZM94.9414 230.008C93.8516 230.008 93.0547 230.688 93.0664 231.66C93.0547 232.633 93.8516 233.312 94.9414 233.312C96.0195 233.312 96.8047 232.633 96.8164 231.66C96.8047 230.688 96.0195 230.008 94.9414 230.008ZM99.8516 228.531V232.832H101.551V233.629H99.8516V238.949H98.9375V228.531H99.8516ZM113.82 228.543V236.254H112.895V232.246H110.434V234.473H105.711V229.234H106.625V231.086H109.531V229.234H110.434V231.473H112.895V228.543H113.82ZM114.055 237.953V238.727H107.082V235.492H108.008V237.953H114.055ZM106.625 233.711H109.531V231.812H106.625V233.711ZM118.426 229.164C119.305 229.158 120.055 229.486 120.535 230.043H123.266V228.531H124.191V234.707H123.266V233.219H120.547C120.055 233.775 119.305 234.104 118.426 234.098C116.867 234.109 115.719 233.09 115.719 231.637C115.719 230.172 116.867 229.152 118.426 229.164ZM118.426 229.961C117.359 229.949 116.598 230.652 116.598 231.637C116.598 232.609 117.359 233.312 118.426 233.312C119.457 233.312 120.23 232.609 120.23 231.637C120.23 230.652 119.457 229.949 118.426 229.961ZM120.734 234.953C122.891 234.953 124.227 235.68 124.227 236.934C124.227 238.199 122.891 238.926 120.734 238.926C118.566 238.926 117.242 238.199 117.242 236.934C117.242 235.68 118.566 234.953 120.734 234.953ZM120.734 235.668C119.141 235.668 118.145 236.148 118.145 236.934C118.145 237.719 119.141 238.188 120.734 238.188C122.34 238.188 123.324 237.719 123.324 236.934C123.324 236.148 122.34 235.668 120.734 235.668ZM120.98 230.793C121.068 231.051 121.121 231.332 121.121 231.637C121.121 231.93 121.068 232.205 120.98 232.457H123.266V230.793H120.98ZM134.855 228.531V238.949H133.965V228.531H134.855ZM132.758 228.754V238.422H131.879V233.359H130.543C130.443 235.387 129.582 236.652 128.293 236.652C126.934 236.652 126.055 235.246 126.055 233.031C126.055 230.816 126.934 229.41 128.293 229.41C129.559 229.41 130.414 230.635 130.531 232.598H131.879V228.754H132.758ZM128.293 230.277C127.449 230.277 126.91 231.332 126.922 233.031C126.91 234.719 127.449 235.785 128.293 235.773C129.137 235.785 129.676 234.719 129.676 233.031C129.676 231.332 129.137 230.277 128.293 230.277ZM147.922 228.531V238.949H146.996V228.531H147.922ZM144.84 229.668C144.828 232.668 143.434 235.316 139.941 236.992L139.438 236.242C142.256 234.906 143.691 232.908 143.902 230.418H139.918V229.668H144.84ZM152.48 229.34C153.436 229.346 154.209 229.902 154.66 230.863H157.402V228.531H158.316V238.973H157.402V234.93H154.73C154.291 235.984 153.488 236.594 152.48 236.594C150.945 236.594 149.867 235.188 149.867 232.973C149.867 230.758 150.945 229.352 152.48 229.34ZM152.48 230.16C151.449 230.172 150.746 231.273 150.746 232.973C150.746 234.672 151.449 235.773 152.48 235.773C153.5 235.773 154.215 234.672 154.215 232.973C154.215 231.273 153.5 230.172 152.48 230.16ZM154.93 231.637C155.023 232.041 155.082 232.486 155.082 232.973C155.082 233.4 155.035 233.805 154.965 234.168H157.402V231.637H154.93ZM168.113 228.531V232.832H169.859V233.594H168.113V238.949H167.199V228.531H168.113ZM166.191 230.207V230.969H159.992V230.207H162.676V228.66H163.59V230.207H166.191ZM163.145 231.836C164.621 231.836 165.688 232.82 165.699 234.227C165.688 235.633 164.621 236.617 163.145 236.617C161.656 236.617 160.578 235.633 160.59 234.227C160.578 232.82 161.656 231.836 163.145 231.836ZM163.145 232.609C162.172 232.609 161.457 233.289 161.469 234.227C161.457 235.176 162.172 235.844 163.145 235.832C164.105 235.844 164.809 235.176 164.82 234.227C164.809 233.289 164.105 232.609 163.145 232.609ZM178.848 231.695V232.434H171.711V228.918H172.625V231.695H178.848ZM179.949 233.852V234.602H170.41V233.852H179.949ZM178.906 237.93V238.691H171.652V235.668H172.566V237.93H178.906ZM192.711 228.531V238.949H191.832V233.488H190.297V238.41H189.453V228.766H190.297V232.727H191.832V228.531H192.711ZM188.094 229.809V230.57H185.105V235.586C186.541 235.58 187.537 235.527 188.691 235.293L188.773 236.066C187.52 236.324 186.453 236.371 184.859 236.371H184.191V229.809H188.094ZM202.32 228.543V231.977H203.891V232.75H202.32V236.348H201.406V228.543H202.32ZM200.41 229.82V230.57H194.199V229.82H196.848V228.543H197.762V229.82H200.41ZM197.305 231.145C198.793 231.145 199.801 231.906 199.812 233.09C199.801 234.262 198.793 235.012 197.305 235.012C195.805 235.012 194.785 234.262 194.797 233.09C194.785 231.906 195.805 231.145 197.305 231.145ZM197.305 231.871C196.32 231.871 195.664 232.352 195.676 233.09C195.664 233.828 196.32 234.297 197.305 234.285C198.277 234.297 198.934 233.828 198.945 233.09C198.934 232.352 198.277 231.871 197.305 231.871ZM202.801 237.953V238.727H195.805V235.727H196.707V237.953H202.801ZM209.984 229.445V234.273H205.098V229.445H209.984ZM206 230.207V233.535H209.082V230.207H206ZM213.148 228.543V236.031H212.234V228.543H213.148ZM213.477 237.836V238.598H206.422V235.305H207.336V237.836H213.477ZM223.203 229.047V229.797C223.203 230.576 223.203 231.508 222.945 232.762H224.457V233.512H220.121V235.434H223.273V238.949H222.348V236.195H215.902V235.434H219.207V233.512H214.918V232.762H222.02C222.289 231.484 222.289 230.576 222.289 229.797H216.125V229.047H223.203ZM228.699 229.293C230.34 229.293 231.5 230.289 231.5 231.742C231.5 233.195 230.34 234.191 228.699 234.191C227.059 234.191 225.875 233.195 225.887 231.742C225.875 230.289 227.059 229.293 228.699 229.293ZM228.699 230.102C227.586 230.102 226.777 230.77 226.789 231.742C226.777 232.715 227.586 233.383 228.699 233.383C229.801 233.383 230.598 232.715 230.598 231.742C230.598 230.77 229.801 230.102 228.699 230.102ZM233.832 228.531V238.973H232.918V228.531H233.832ZM225.348 235.891C227.27 235.891 229.918 235.879 232.227 235.539L232.297 236.219C229.918 236.664 227.352 236.676 225.477 236.676L225.348 235.891ZM242.234 230.5C242.234 231.953 243.289 233.324 244.812 233.875L244.297 234.59C243.154 234.133 242.246 233.225 241.801 232.094C241.355 233.354 240.406 234.355 239.176 234.848L238.684 234.098C240.242 233.523 241.32 232.07 241.332 230.465V229.176H242.234V230.5ZM247.309 228.543V236.348H246.383V231.766H244.062V230.992H246.383V228.543H247.309ZM247.543 237.953V238.727H240.57V235.457H241.496V237.953H247.543ZM257.457 233.418V234.168H254.234V236.863H258.582V237.637H249.043V236.863H253.332V234.168H250.262V229.387H257.352V230.137H251.188V233.418H257.457ZM263.035 230.453C263.035 231.812 264.078 233.102 265.602 233.629L265.121 234.355C263.943 233.934 263.035 233.061 262.59 231.988C262.139 233.189 261.178 234.15 259.941 234.602L259.461 233.875C260.996 233.324 262.109 231.93 262.109 230.465V230.008H259.754V229.258H265.367V230.008H263.035V230.453ZM268.051 235.328V238.949H267.125V236.09H261.043V235.328H268.051ZM268.051 228.531V234.777H267.125V232.035H265.039V231.262H267.125V228.531H268.051Z" fill="#333333"/>
<mask id="path-22-inside-5_172_51" fill="white">
<path d="M42 251H298V275H42V251Z"/>
</mask>
<path d="M42 275V275.5H43V275V274.5H42V275ZM45 275V275.5H47V275V274.5H45V275ZM49 275V275.5H51V275V274.5H49V275ZM53 275V275.5H55V275V274.5H53V275ZM57 275V275.5H59V275V274.5H57V275ZM61 275V275.5H63V275V274.5H61V275ZM65 275V275.5H67V275V274.5H65V275ZM69 275V275.5H71V275V274.5H69V275ZM73 275V275.5H75V275V274.5H73V275ZM77 275V275.5H79V275V274.5H77V275ZM81 275V275.5H83V275V274.5H81V275ZM85 275V275.5H87V275V274.5H85V275ZM89 275V275.5H91V275V274.5H89V275ZM93 275V275.5H95V275V274.5H93V275ZM97 275V275.5H99V275V274.5H97V275ZM101 275V275.5H103V275V274.5H101V275ZM105 275V275.5H107V275V274.5H105V275ZM109 275V275.5H111V275V274.5H109V275ZM113 275V275.5H115V275V274.5H113V275ZM117 275V275.5H119V275V274.5H117V275ZM121 275V275.5H123V275V274.5H121V275ZM125 275V275.5H127V275V274.5H125V275ZM129 275V275.5H131V275V274.5H129V275ZM133 275V275.5H135V275V274.5H133V275ZM137 275V275.5H139V275V274.5H137V275ZM141 275V275.5H143V275V274.5H141V275ZM145 275V275.5H147V275V274.5H145V275ZM149 275V275.5H151V275V274.5H149V275ZM153 275V275.5H155V275V274.5H153V275ZM157 275V275.5H159V275V274.5H157V275ZM161 275V275.5H163V275V274.5H161V275ZM165 275V275.5H167V275V274.5H165V275ZM169 275V275.5H171V275V274.5H169V275ZM173 275V275.5H175V275V274.5H173V275ZM177 275V275.5H179V275V274.5H177V275ZM181 275V275.5H183V275V274.5H181V275ZM185 275V275.5H187V275V274.5H185V275ZM189 275V275.5H191V275V274.5H189V275ZM193 275V275.5H195V275V274.5H193V275ZM197 275V275.5H199V275V274.5H197V275ZM201 275V275.5H203V275V274.5H201V275ZM205 275V275.5H207V275V274.5H205V275ZM209 275V275.5H211V275V274.5H209V275ZM213 275V275.5H215V275V274.5H213V275ZM217 275V275.5H219V275V274.5H217V275ZM221 275V275.5H223V275V274.5H221V275ZM225 275V275.5H227V275V274.5H225V275ZM229 275V275.5H231V275V274.5H229V275ZM233 275V275.5H235V275V274.5H233V275ZM237 275V275.5H239V275V274.5H237V275ZM241 275V275.5H243V275V274.5H241V275ZM245 275V275.5H247V275V274.5H245V275ZM249 275V275.5H251V275V274.5H249V275ZM253 275V275.5H255V275V274.5H253V275ZM257 275V275.5H259V275V274.5H257V275ZM261 275V275.5H263V275V274.5H261V275ZM265 275V275.5H267V275V274.5H265V275ZM269 275V275.5H271V275V274.5H269V275ZM273 275V275.5H275V275V274.5H273V275ZM277 275V275.5H279V275V274.5H277V275ZM281 275V275.5H283V275V274.5H281V275ZM285 275V275.5H287V275V274.5H285V275ZM289 275V275.5H291V275V274.5H289V275ZM293 275V275.5H295V275V274.5H293V275ZM297 275V275.5H298V275V274.5H297V275ZM42 275V276H43V275V274H42V275ZM45 275V276H47V275V274H45V275ZM49 275V276H51V275V274H49V275ZM53 275V276H55V275V274H53V275ZM57 275V276H59V275V274H57V275ZM61 275V276H63V275V274H61V275ZM65 275V276H67V275V274H65V275ZM69 275V276H71V275V274H69V275ZM73 275V276H75V275V274H73V275ZM77 275V276H79V275V274H77V275ZM81 275V276H83V275V274H81V275ZM85 275V276H87V275V274H85V275ZM89 275V276H91V275V274H89V275ZM93 275V276H95V275V274H93V275ZM97 275V276H99V275V274H97V275ZM101 275V276H103V275V274H101V275ZM105 275V276H107V275V274H105V275ZM109 275V276H111V275V274H109V275ZM113 275V276H115V275V274H113V275ZM117 275V276H119V275V274H117V275ZM121 275V276H123V275V274H121V275ZM125 275V276H127V275V274H125V275ZM129 275V276H131V275V274H129V275ZM133 275V276H135V275V274H133V275ZM137 275V276H139V275V274H137V275ZM141 275V276H143V275V274H141V275ZM145 275V276H147V275V274H145V275ZM149 275V276H151V275V274H149V275ZM153 275V276H155V275V274H153V275ZM157 275V276H159V275V274H157V275ZM161 275V276H163V275V274H161V275ZM165 275V276H167V275V274H165V275ZM169 275V276H171V275V274H169V275ZM173 275V276H175V275V274H173V275ZM177 275V276H179V275V274H177V275ZM181 275V276H183V275V274H181V275ZM185 275V276H187V275V274H185V275ZM189 275V276H191V275V274H189V275ZM193 275V276H195V275V274H193V275ZM197 275V276H199V275V274H197V275ZM201 275V276H203V275V274H201V275ZM205 275V276H207V275V274H205V275ZM209 275V276H211V275V274H209V275ZM213 275V276H215V275V274H213V275ZM217 275V276H219V275V274H217V275ZM221 275V276H223V275V274H221V275ZM225 275V276H227V275V274H225V275ZM229 275V276H231V275V274H229V275ZM233 275V276H235V275V274H233V275ZM237 275V276H239V275V274H237V275ZM241 275V276H243V275V274H241V275ZM245 275V276H247V275V274H245V275ZM249 275V276H251V275V274H249V275ZM253 275V276H255V275V274H253V275ZM257 275V276H259V275V274H257V275ZM261 275V276H263V275V274H261V275ZM265 275V276H267V275V274H265V275ZM269 275V276H271V275V274H269V275ZM273 275V276H275V275V274H273V275ZM277 275V276H279V275V274H277V275ZM281 275V276H283V275V274H281V275ZM285 275V276H287V275V274H285V275ZM289 275V276H291V275V274H289V275ZM293 275V276H295V275V274H293V275ZM297 275V276H298V275V274H297V275Z" fill="#E5E5E5" mask="url(#path-22-inside-5_172_51)"/>
<path d="M101.574 257.988V258.656C101.574 259.365 101.574 260.256 101.34 261.434H102.828V262.172H93.2891V261.434H100.414C100.648 260.273 100.66 259.418 100.66 258.738H94.4961V257.988H101.574ZM101.609 263.227V265.852H95.3633V267.082H101.879V267.832H94.4375V265.125H100.695V263.965H94.4258V263.227H101.609ZM113.199 265.887V266.66H103.66V265.887H107.949V263.918H104.855V260.707H111.09V259.066H104.832V258.305H111.992V261.457H105.77V263.156H112.238V263.918H108.852V265.887H113.199ZM122.656 257.531V262.969H121.742V260.625H119.281V262.547H114.559V258.023H115.473V259.512H118.379V258.023H119.281V259.852H121.742V257.531H122.656ZM122.656 263.473V265.934H116.844V267.07H123.055V267.809H115.93V265.23H121.742V264.211H115.906V263.473H122.656ZM115.473 261.797H118.379V260.25H115.473V261.797ZM136.309 257.531V267.949H135.406V262.5H133.965V267.434H133.086V257.812H133.965V261.738H135.406V257.531H136.309ZM131.902 258.891C131.891 261.539 130.965 264.047 127.965 265.711L127.426 265.066C129.846 263.719 130.848 261.809 131 259.652H127.824V258.891H131.902ZM139.133 257.977V259.477H142.168V257.977H143.082V262.512H138.23V257.977H139.133ZM139.133 261.762H142.168V260.191H139.133V261.762ZM145.93 257.531V259.793H147.5V260.566H145.93V262.922H145.016V257.531H145.93ZM145.93 263.414V265.934H140.211V267.082H146.316V267.832H139.309V265.23H145.016V264.152H139.285V263.414H145.93ZM154.062 258.586V259.348H148.168V258.586H150.699V257.438H151.613V258.586H154.062ZM151.145 259.852C152.539 259.852 153.523 260.602 153.523 261.738C153.523 262.863 152.539 263.602 151.145 263.602C149.738 263.602 148.777 262.863 148.789 261.738C148.777 260.602 149.738 259.852 151.145 259.852ZM151.145 260.566C150.242 260.566 149.645 261.035 149.645 261.738C149.645 262.43 150.242 262.91 151.145 262.91C152.047 262.91 152.656 262.43 152.668 261.738C152.656 261.035 152.047 260.566 151.145 260.566ZM156.793 257.531V263.695H155.867V262.77H154.051V262.008H155.867V260.73H154.062V259.969H155.867V257.531H156.793ZM150.922 264.129V265.23H155.879V264.129H156.793V267.809H150.008V264.129H150.922ZM150.922 267.07H155.879V265.945H150.922V267.07ZM163.473 258.176V261.094H159.887V262.711C161.844 262.711 162.852 262.682 164.082 262.453L164.176 263.215C162.875 263.426 161.82 263.461 159.711 263.461H158.973V260.391H162.559V258.914H158.949V258.176H163.473ZM167.164 257.543V263.941H166.238V262.008H164.164V261.246H166.238V259.84H164.164V259.09H166.238V257.543H167.164ZM167.164 264.504V267.973H166.238V265.254H160.145V264.504H167.164ZM180.816 257.531V267.949H179.938V262.488H178.402V267.41H177.559V257.766H178.402V261.727H179.938V257.531H180.816ZM176.199 258.809V259.57H173.211V264.586C174.646 264.58 175.643 264.527 176.797 264.293L176.879 265.066C175.625 265.324 174.559 265.371 172.965 265.371H172.297V258.809H176.199ZM191.82 265.91V266.672H182.281V265.91H184.941V263.426H183.148V262.664H184.777V259.266H183.125V258.504H190.906V259.266H189.254V262.664H190.883V263.426H189.09V265.91H191.82ZM185.691 262.664H188.352V259.266H185.691V262.664ZM185.867 265.91H188.176V263.426H185.867V265.91ZM201.266 257.531V267.949H200.34V257.531H201.266ZM198.184 258.668C198.172 261.668 196.777 264.316 193.285 265.992L192.781 265.242C195.6 263.906 197.035 261.908 197.246 259.418H193.262V258.668H198.184ZM208.801 258.34V258.891C208.789 259.57 208.789 260.613 208.531 261.973L207.605 261.902C207.857 260.654 207.881 259.77 207.898 259.113H203.609V258.34H208.801ZM206.117 260.648V262.887C207.271 262.84 208.467 262.758 209.551 262.605L209.609 263.285C207.43 263.66 204.91 263.707 203.059 263.707L202.965 262.945C203.639 262.939 204.4 262.934 205.203 262.91V260.648H206.117ZM211.191 257.531V260.93H212.715V261.715H211.191V265.371H210.254V257.531H211.191ZM211.531 266.953V267.727H204.57V264.668H205.496V266.953H211.531ZM221.996 257.531V263.121H221.082V257.531H221.996ZM216.16 263.648V264.914H221.082V263.648H221.996V267.809H215.246V263.648H216.16ZM216.16 267.059H221.082V265.652H216.16V267.059ZM216.371 258.047C217.953 258.035 219.102 259.008 219.102 260.438C219.102 261.855 217.953 262.828 216.371 262.828C214.789 262.828 213.641 261.855 213.641 260.438C213.641 259.008 214.789 258.035 216.371 258.047ZM216.371 258.82C215.305 258.809 214.531 259.488 214.543 260.438C214.531 261.387 215.305 262.066 216.371 262.066C217.426 262.066 218.199 261.387 218.199 260.438C218.199 259.488 217.426 258.809 216.371 258.82ZM232.355 257.531V267.949H231.441V257.531H232.355ZM225.348 258.562V264.469C226.936 264.463 228.582 264.334 230.328 263.965L230.457 264.75C228.605 265.137 226.953 265.266 225.289 265.266H224.445V258.562H225.348ZM242.199 257.531V261.656H243.945V262.43H242.199V267.973H241.285V257.531H242.199ZM239.457 258.551V259.312H235.508V264.586C237.395 264.586 238.73 264.498 240.277 264.211L240.395 265.008C238.766 265.301 237.395 265.359 235.414 265.359H234.594V258.551H239.457ZM245.609 267.07C245.199 267.07 244.848 266.73 244.859 266.309C244.848 265.898 245.199 265.559 245.609 265.559C246.02 265.559 246.359 265.898 246.359 266.309C246.359 266.73 246.02 267.07 245.609 267.07Z" fill="#333333"/>
</svg>
