<svg width="558" height="240" viewBox="0 0 558 240" fill="none" xmlns="http://www.w3.org/2000/svg">
<path opacity="0.9" d="M158.721 27.8H168.801V50.28H175.921V27.4H186.161V94.12H175.921V59.24H168.801V93.72H158.721V27.8ZM155.121 80.12H130.721C128.641 80.12 127.014 79.56 125.841 78.44C124.721 77.2667 124.161 75.64 124.161 73.56V31.48H151.921V40.44H134.401V71.16H155.121V80.12ZM262.813 56.84H252.493V79.16H241.933V27.4H252.493V47.88H262.813V56.84ZM215.533 89.4H253.773V98.36H211.133C208.947 98.36 207.373 97.88 206.413 96.92C205.453 95.96 204.973 94.3867 204.973 92.2V77.48H215.533V89.4ZM209.773 34.28V26.52H220.333V34.28H235.693V42.68H194.253V34.28H209.773ZM222.093 58.92C222.093 57.0533 221.4 55.5333 220.013 54.36C218.68 53.1867 217.027 52.6 215.053 52.6C213.08 52.6 211.4 53.1867 210.013 54.36C208.68 55.5333 208.013 57.0533 208.013 58.92C208.013 60.7867 208.68 62.3067 210.013 63.48C211.4 64.6533 213.08 65.24 215.053 65.24C217.027 65.24 218.68 64.6533 220.013 63.48C221.4 62.3067 222.093 60.7867 222.093 58.92ZM197.933 58.92C197.933 56.84 198.387 54.92 199.293 53.16C200.2 51.4 201.427 49.9067 202.973 48.68C204.52 47.4 206.333 46.4133 208.413 45.72C210.493 45.0267 212.707 44.68 215.053 44.68C217.4 44.68 219.613 45.0267 221.693 45.72C223.773 46.4133 225.587 47.4 227.133 48.68C228.68 49.9067 229.907 51.4 230.813 53.16C231.72 54.92 232.173 56.84 232.173 58.92C232.173 61 231.72 62.92 230.813 64.68C229.907 66.44 228.68 67.96 227.133 69.24C225.587 70.4667 223.773 71.4267 221.693 72.12C219.613 72.8133 217.4 73.16 215.053 73.16C212.707 73.16 210.493 72.8133 208.413 72.12C206.333 71.4267 204.52 70.4667 202.973 69.24C201.427 67.96 200.2 66.44 199.293 64.68C198.387 62.92 197.933 61 197.933 58.92ZM318.586 27.4H329.146V76.76H318.586V27.4ZM292.586 89.16H330.826V98.12H288.186C285.999 98.12 284.426 97.64 283.466 96.68C282.506 95.72 282.026 94.1467 282.026 91.96V74.28H292.586V89.16ZM271.786 30.2H307.386V60.12C307.386 64.6 305.146 66.84 300.666 66.84H278.506C274.026 66.84 271.786 64.6 271.786 60.12V30.2ZM282.266 57.88H296.906V39.16H282.266V57.88ZM398.278 28.84V52.28H387.718V37.8H348.518V28.84H398.278ZM368.518 73V63.96H340.998V55.08H406.598V63.96H379.078V73H368.518ZM398.838 75V99.08H388.278V83.96H347.958V75H398.838ZM417.491 79.08H428.611L421.091 100.2H412.611L417.491 79.08Z" fill="black"/>
<path opacity="0.9" d="M54.1719 147.4H64.7319V214.04H54.1719V147.4ZM3.21188 171.8C3.21188 168.92 3.69188 166.253 4.65188 163.8C5.66521 161.293 7.07854 159.133 8.89188 157.32C10.7052 155.453 12.8919 154.013 15.4519 153C18.0119 151.933 20.8652 151.4 24.0119 151.4C27.1585 151.4 30.0119 151.933 32.5719 153C35.1319 154.013 37.3185 155.453 39.1319 157.32C40.9452 159.133 42.3319 161.293 43.2919 163.8C44.3052 166.253 44.8119 168.92 44.8119 171.8C44.8119 174.68 44.3052 177.373 43.2919 179.88C42.3319 182.333 40.9452 184.493 39.1319 186.36C37.3185 188.173 35.1319 189.613 32.5719 190.68C30.0119 191.693 27.1585 192.2 24.0119 192.2C20.8652 192.2 18.0119 191.693 15.4519 190.68C12.8919 189.613 10.7052 188.173 8.89188 186.36C7.07854 184.493 5.66521 182.333 4.65188 179.88C3.69188 177.373 3.21188 174.68 3.21188 171.8ZM34.2519 171.8C34.2519 170.2 34.0385 168.707 33.6119 167.32C33.1852 165.933 32.5452 164.733 31.6919 163.72C30.8385 162.653 29.7719 161.827 28.4919 161.24C27.2119 160.653 25.7185 160.36 24.0119 160.36C22.3052 160.36 20.8119 160.653 19.5319 161.24C18.2519 161.827 17.1852 162.653 16.3319 163.72C15.4785 164.733 14.8385 165.933 14.4119 167.32C13.9852 168.707 13.7719 170.2 13.7719 171.8C13.7719 173.4 13.9852 174.893 14.4119 176.28C14.8385 177.667 15.4785 178.893 16.3319 179.96C17.1852 180.973 18.2519 181.773 19.5319 182.36C20.8119 182.947 22.3052 183.24 24.0119 183.24C25.7185 183.24 27.2119 182.947 28.4919 182.36C29.7719 181.773 30.8385 180.973 31.6919 179.96C32.5452 178.893 33.1852 177.667 33.6119 176.28C34.0385 174.893 34.2519 173.4 34.2519 171.8ZM76.0244 151.48H110.504V160.44H97.7044C98.931 163.48 100.211 166.68 101.544 170.04C102.931 173.347 104.291 176.627 105.624 179.88C106.958 183.08 108.211 186.147 109.384 189.08C110.611 191.96 111.678 194.467 112.584 196.6L103.544 199.96C102.744 197.933 101.891 195.8 100.984 193.56C100.078 191.267 99.171 189 98.2644 186.76C97.411 184.467 96.5577 182.253 95.7044 180.12C94.9044 177.933 94.1577 175.933 93.4644 174.12C92.771 175.933 91.9977 177.987 91.1444 180.28C90.291 182.52 89.3844 184.84 88.4244 187.24C87.5177 189.587 86.5844 191.96 85.6244 194.36C84.6644 196.707 83.7844 198.92 82.9844 201L74.0244 197.64C74.8777 195.56 75.9177 193.027 77.1444 190.04C78.371 187.053 79.651 183.88 80.9844 180.52C82.371 177.16 83.731 173.747 85.0644 170.28C86.451 166.813 87.7577 163.533 88.9844 160.44H76.0244V151.48ZM107.144 166.84H116.104V147.8H126.024V213.72H116.104V175.8H107.144V166.84ZM140.584 214.12H130.344V147.4H140.584V214.12ZM190.261 149.16C191.061 151.187 191.968 153.533 192.981 156.2C194.048 158.867 195.141 161.667 196.261 164.6C197.435 167.48 198.608 170.44 199.781 173.48C201.008 176.52 202.181 179.453 203.301 182.28C204.421 185.107 205.461 187.747 206.421 190.2C207.435 192.6 208.315 194.68 209.061 196.44L199.461 199.96L189.861 174.12C189.221 175.827 188.475 177.827 187.621 180.12C186.821 182.36 185.968 184.707 185.061 187.16C184.155 189.613 183.248 192.04 182.341 194.44C181.435 196.84 180.608 199.027 179.861 201L170.261 197.48C170.955 195.72 171.808 193.613 172.821 191.16C173.835 188.653 174.928 185.96 176.101 183.08C177.275 180.147 178.475 177.133 179.701 174.04C180.928 170.893 182.128 167.827 183.301 164.84C184.528 161.853 185.648 159.027 186.661 156.36C187.728 153.64 188.661 151.24 189.461 149.16H190.261ZM203.061 166.6H212.661V147.8H222.581V213.72H212.661V175.56H203.061V166.6ZM236.981 214.12H226.741V147.4H236.981V214.12ZM285.794 147.8H295.634V213.72H285.794V189.88H277.874V180.92H285.794V169.4H277.874V160.44H285.794V147.8ZM310.194 214.12H299.954V147.4H310.194V214.12ZM275.634 151.48V200.68H265.394V160.44H246.194V151.48H275.634ZM332.766 219.08C330.74 219.08 329.246 218.6 328.286 217.64C327.38 216.733 326.926 215.267 326.926 213.24V201.32H366.206V198.04H326.926V190.84H376.766V208.28H337.486V211.88H378.446V219.08H332.766ZM337.966 169.88H378.046V177.08H333.246C331.22 177.08 329.726 176.627 328.766 175.72C327.86 174.76 327.406 173.267 327.406 171.24V159.08H365.806V155.48H327.406V148.28H376.366V166.04H337.966V169.88ZM384.606 180.44V187.72H319.006V180.44H384.606ZM423.723 190.84H434.283V197H462.923V190.84H473.483V211.64C473.483 216.12 471.243 218.36 466.763 218.36H430.443C425.963 218.36 423.723 216.12 423.723 211.64V190.84ZM430.043 172.36C425.936 172.36 423.883 170.307 423.883 166.2V148.84H472.603V157.64H434.443V163.56H473.403V172.36H430.043ZM453.883 174.36V178.84H481.403V187.64H415.803V178.84H443.323V174.36H453.883ZM462.923 209.88V205.16H434.283V209.88H462.923ZM556.856 178.12H546.536V214.04H535.976V147.4H546.536V169.16H556.856V178.12ZM490.216 151H523.816V159.96H500.776V191.24H529.976V200.2H497.176C492.536 200.2 490.216 197.88 490.216 193.24V151Z" fill="black"/>
</svg>
