<svg width="390" height="1671" viewBox="0 0 390 1671" fill="none" xmlns="http://www.w3.org/2000/svg">
<g clip-path="url(#clip0_262_183)">
<rect width="390" height="1671" fill="#8396BF"/>
<rect width="390" height="1116" transform="translate(0 555)" fill="#EFF5BF"/>
<path d="M195.001 -113L424.497 577.75H-34.4961L195.001 -113Z" fill="#EFF5BF"/>
<path d="M314 54C314 55.6569 312.657 57 311 57C309.343 57 308 55.6569 308 54C308 52.3431 309.343 51 311 51C312.657 51 314 52.3431 314 54Z" fill="white"/>
<path d="M106 74C106 75.6569 104.657 77 103 77C101.343 77 100 75.6569 100 74C100 72.3431 101.343 71 103 71C104.657 71 106 72.3431 106 74Z" fill="white"/>
<path d="M26 169C26 170.657 24.6569 172 23 172C21.3431 172 20 170.657 20 169C20 167.343 21.3431 166 23 166C24.6569 166 26 167.343 26 169Z" fill="white"/>
<path d="M51 234C51 235.657 49.6569 237 48 237C46.3431 237 45 235.657 45 234C45 232.343 46.3431 231 48 231C49.6569 231 51 232.343 51 234Z" fill="white"/>
<path d="M15 376C15 377.657 13.6569 379 12 379C10.3431 379 9 377.657 9 376C9 374.343 10.3431 373 12 373C13.6569 373 15 374.343 15 376Z" fill="white"/>
<path d="M296 110C296 111.657 294.657 113 293 113C291.343 113 290 111.657 290 110C290 108.343 291.343 107 293 107C294.657 107 296 108.343 296 110Z" fill="white"/>
<path d="M359 128C359 129.657 357.657 131 356 131C354.343 131 353 129.657 353 128C353 126.343 354.343 125 356 125C357.657 125 359 126.343 359 128Z" fill="white"/>
<path d="M359 287C359 288.657 357.657 290 356 290C354.343 290 353 288.657 353 287C353 285.343 354.343 284 356 284C357.657 284 359 285.343 359 287Z" fill="white"/>
<path d="M54 74L56.6635 79.5698L62.4853 77.5147L60.4302 83.3365L66 86L60.4302 88.6635L62.4853 94.4853L56.6635 92.4302L54 98L51.3365 92.4302L45.5147 94.4853L47.5698 88.6635L42 86L47.5698 83.3365L45.5147 77.5147L51.3365 79.5698L54 74Z" fill="white"/>
<path d="M341 205L343.663 210.57L349.485 208.515L347.43 214.337L353 217L347.43 219.663L349.485 225.485L343.663 223.43L341 229L338.337 223.43L332.515 225.485L334.57 219.663L329 217L334.57 214.337L332.515 208.515L338.337 210.57L341 205Z" fill="white"/>
<path d="M328 98L330.663 103.57L336.485 101.515L334.43 107.337L340 110L334.43 112.663L336.485 118.485L330.663 116.43L328 122L325.337 116.43L319.515 118.485L321.57 112.663L316 110L321.57 107.337L319.515 101.515L325.337 103.57L328 98Z" fill="white"/>
</g>
<defs>
<clipPath id="clip0_262_183">
<rect width="390" height="1671" fill="white"/>
</clipPath>
</defs>
</svg>
