<svg width="330" height="136" viewBox="0 0 330 136" fill="none" xmlns="http://www.w3.org/2000/svg">
<rect width="330" height="136" rx="10" fill="white" fill-opacity="0.4"/>
<rect x="94" y="33" width="143" height="9" fill="#E2EB91"/>
<path d="M102.205 26.4414C102.205 27.8633 103.312 29.1758 105.186 29.709L104.584 30.7207C103.169 30.3037 102.123 29.4424 101.576 28.3281C101.043 29.5586 99.9697 30.5088 98.5137 30.9531L97.8848 29.9414C99.7578 29.3945 100.92 27.9863 100.92 26.4414V26.3184H98.2539V25.2793H100.92V23.8574H102.219V25.2793H104.871V26.3184H102.205V26.4414ZM107.537 23.9121V26.9473H109.314V28.0273H107.537V31.1445H106.238V23.9121H107.537ZM107.537 31.6914V36.0117H99.7168V31.6914H107.537ZM100.988 32.7168V34.959H106.252V32.7168H100.988ZM113.334 24.8281C114.448 24.8281 115.371 25.4707 115.918 26.5781H118.939V23.9121H120.225V36.1895H118.939V31.4863H116C115.474 32.7168 114.51 33.4277 113.334 33.4277C111.502 33.4277 110.217 31.7598 110.23 29.1211C110.217 26.4961 111.502 24.8281 113.334 24.8281ZM113.334 25.9902C112.227 25.9902 111.461 27.1934 111.461 29.1211C111.461 31.0625 112.227 32.2656 113.334 32.2656C114.441 32.2656 115.207 31.0625 115.207 29.1211C115.207 27.1934 114.441 25.9902 113.334 25.9902ZM116.287 27.6445C116.376 28.0957 116.438 28.5879 116.438 29.1211C116.438 29.5859 116.396 30.0166 116.314 30.4199H118.939V27.6445H116.287ZM130.027 27.0293C130.014 29.2715 131.367 31.5137 133.268 32.3613L132.488 33.3867C131.08 32.7168 129.966 31.3428 129.398 29.668C128.824 31.459 127.696 32.9424 126.227 33.6602L125.434 32.5664C127.361 31.7051 128.715 29.3672 128.715 27.0293V24.9375H130.027V27.0293ZM135.674 23.9121V36.1895H134.375V23.9121H135.674ZM151 24.4453V25.0469C151 25.8262 151 27.0703 150.645 28.7109L149.373 28.5605C149.667 27.2207 149.715 26.2227 149.742 25.4844H146.775V24.4453H151ZM152.203 29.6543V30.707H141.061V29.6543H146.229V27.2891H147.514V29.6543H152.203ZM150.822 31.9102V36.0938H149.496V32.9629H142.277V31.9102H150.822ZM145.777 24.4453V24.8965C145.764 25.6348 145.764 26.9473 145.176 28.7246L143.932 28.5469C144.369 27.1934 144.472 26.1885 144.506 25.4844H142.004V24.4453H145.777ZM166.203 23.9258V27.5625H167.953V28.6289H166.203V32.1699H164.904V23.9258H166.203ZM156.482 30.8027C157.433 30.8027 158.533 30.8027 159.682 30.7617V29.9414C158.287 29.7979 157.398 29.1416 157.412 28.1504C157.398 27.0293 158.561 26.332 160.324 26.3457C162.074 26.332 163.236 27.0293 163.236 28.1504C163.236 29.1348 162.361 29.791 160.98 29.9414V30.7207C162.074 30.666 163.182 30.5771 164.207 30.4336L164.316 31.3633C161.678 31.8281 158.779 31.8418 156.619 31.8418L156.482 30.8027ZM166.203 32.7441V36.1621H164.904V33.7559H158.014V32.7441H166.203ZM163.865 24.9648V25.9355H156.797V24.9648H159.682V23.8164H160.98V24.9648H163.865ZM160.324 27.2344C159.271 27.2207 158.643 27.5625 158.643 28.1504C158.643 28.7246 159.271 29.0938 160.324 29.0938C161.363 29.0938 161.992 28.7246 161.992 28.1504C161.992 27.5625 161.363 27.2207 160.324 27.2344ZM178.822 23.9258V32.8262H177.523V23.9258H178.822ZM179.191 34.8496V35.9023H170.811V31.9238H172.123V34.8496H179.191ZM172.178 24.7461C174.023 24.7461 175.432 26.0039 175.432 27.7812C175.432 29.5859 174.023 30.8301 172.178 30.8301C170.332 30.8301 168.91 29.5859 168.91 27.7812C168.91 26.0039 170.332 24.7461 172.178 24.7461ZM172.178 25.8809C171.029 25.8809 170.182 26.6602 170.182 27.7812C170.182 28.9297 171.029 29.6953 172.178 29.6953C173.299 29.6953 174.16 28.9297 174.16 27.7812C174.16 26.6602 173.299 25.8809 172.178 25.8809ZM186.82 25.9355V26.9883H180.736V25.9355H183.143V24.2676H184.428V25.9355H186.82ZM183.785 27.7266C185.344 27.7266 186.438 28.8887 186.451 30.543C186.438 32.2109 185.344 33.3867 183.785 33.3867C182.254 33.3867 181.119 32.2109 181.133 30.543C181.119 28.8887 182.254 27.7266 183.785 27.7266ZM183.785 28.8066C182.896 28.8066 182.281 29.5312 182.281 30.543C182.281 31.582 182.896 32.2793 183.785 32.2793C184.66 32.2793 185.303 31.582 185.303 30.543C185.303 29.5312 184.66 28.8066 183.785 28.8066ZM191.25 23.9121V36.1621H190.02V30.0781H188.611V35.5879H187.381V24.1855H188.611V29.0117H190.02V23.9121H191.25ZM207.451 30.8164V31.8691H202.475V36.1484H201.203V31.8691H196.281V30.8164H207.451ZM206.398 24.6367V25.6758H202.611C202.632 27.1934 204.519 28.5469 206.836 28.8613L206.357 29.8867C204.348 29.5723 202.611 28.5811 201.873 27.1797C201.114 28.5811 199.385 29.5723 197.402 29.8867L196.91 28.8613C199.2 28.5469 201.087 27.1934 201.135 25.6758H197.32V24.6367H206.398ZM212.113 27.2617C212.113 29.2168 212.934 31.3086 214.574 32.3066L213.85 33.3047C212.701 32.6143 211.922 31.3906 211.512 29.9688C211.054 31.5273 210.213 32.8535 209.023 33.5781L208.217 32.6074C209.953 31.5684 210.855 29.4082 210.855 27.3164V25.0332H212.113V27.2617ZM218.922 23.9121V36.1621H217.678V23.9121H218.922ZM216.379 24.1445V35.5605H215.148V29.2988H213.248V28.2188H215.148V24.1445H216.379ZM231.691 33.5508V34.6309H220.48V33.5508H223.16V30.3516C222.155 29.7979 221.547 28.916 221.547 27.8223C221.547 25.8945 223.434 24.623 226.059 24.623C228.697 24.623 230.584 25.8945 230.584 27.8223C230.584 28.9023 229.996 29.7705 229.012 30.3242V33.5508H231.691ZM226.059 25.6621C224.131 25.6621 222.805 26.4961 222.805 27.8223C222.805 29.1348 224.131 29.9961 226.059 29.9961C227.973 29.9961 229.326 29.1348 229.326 27.8223C229.326 26.4961 227.973 25.6621 226.059 25.6621ZM224.445 33.5508H227.699V30.8164C227.2 30.9463 226.646 31.0078 226.059 31.0078C225.484 31.0078 224.938 30.9463 224.445 30.8301V33.5508ZM234.836 25.1016L234.713 32.1426H233.359L233.236 25.1016H234.836ZM234.043 35.0957C233.51 35.0957 233.059 34.6582 233.072 34.125C233.059 33.5918 233.51 33.1543 234.043 33.1543C234.562 33.1543 235.014 33.5918 235.014 34.125C235.014 34.6582 234.562 35.0957 234.043 35.0957Z" fill="black"/>
<path d="M50.7578 51.0293V51.4482C50.7471 52.1304 50.7471 53.312 50.4463 55.0039C50.8652 54.9771 51.2896 54.9395 51.7031 54.8965L51.7676 55.541C50.79 55.6646 49.7749 55.7451 48.7812 55.7881V59.3008H47.9326V55.8203C47.0249 55.8579 46.144 55.8633 45.3438 55.8633L45.2256 55.165C46.5469 55.1489 48.0723 55.1382 49.5869 55.0576C49.7051 54.4775 49.7803 53.9565 49.834 53.4893L46.0205 53.8223L45.8809 53.1025L49.8877 52.877C49.9199 52.4204 49.9307 52.0391 49.9307 51.7275H46.085V51.0293H50.7578ZM53.2393 50.3203V59.8701H52.4014V50.3203H53.2393ZM63.541 57.8936V58.6025H54.7969V57.8936H63.541ZM59.5879 52.4258C59.5879 53.9512 61.4785 55.251 63.1221 55.5195L62.7783 56.1855C61.3174 55.9009 59.7759 54.9663 59.1689 53.6504C58.5513 54.9771 57.0151 55.9385 55.5811 56.2285L55.2266 55.5518C56.8379 55.2725 58.7178 53.9512 58.7178 52.4258V51.9854H55.5166V51.2871H62.7891V51.9854H59.5879V52.4258ZM74.9814 50.3203V56.0137H74.1328V53.5107H72.21V52.8125H74.1328V50.3203H74.9814ZM71.8125 56.3145C73.7998 56.3145 75.0137 56.959 75.0137 58.0869C75.0137 59.2148 73.7998 59.8594 71.8125 59.8701C69.8252 59.8594 68.6113 59.2148 68.6113 58.0869C68.6113 56.959 69.8252 56.3145 71.8125 56.3145ZM71.8125 56.9697C70.3516 56.9697 69.4385 57.3887 69.4492 58.0869C69.4385 58.7744 70.3516 59.1934 71.8125 59.1934C73.2734 59.1934 74.1758 58.7744 74.1758 58.0869C74.1758 57.3887 73.2734 56.9697 71.8125 56.9697ZM70.3838 52.0713C70.3838 53.3174 71.3398 54.499 72.7363 54.9824L72.2959 55.6592C71.2217 55.2725 70.3892 54.4722 69.9863 53.4785C69.5674 54.6011 68.6812 55.498 67.5479 55.9277L67.1074 55.251C68.5254 54.7354 69.5352 53.4463 69.5352 52.082V51.7275H67.376V51.0186H72.5215V51.7275H70.3838V52.0713ZM84.0371 50.3203V52.5654H85.4766V53.2744H84.0371V55.4121H83.1992V50.3203H84.0371ZM81.2549 50.9541V51.6523H77.8604V54.3809C79.7778 54.3809 80.8682 54.3218 82.1465 54.0586L82.2539 54.7568C80.9111 55.0254 79.7725 55.0898 77.7637 55.0898H77.0225V50.9541H81.2549ZM78.8271 55.9277V57.1201H83.1992V55.9277H84.0371V59.709H77.9893V55.9277H78.8271ZM78.8271 59.0107H83.1992V57.7969H78.8271V59.0107ZM97.0029 50.3203V59.8701H96.1973V50.3203H97.0029ZM95.0693 50.5566V59.376H94.2744V54.4561H92.6631V53.7686H94.2744V50.5566H95.0693ZM91.6426 53.0488C91.6426 54.7031 92.3838 56.3467 93.7051 57.1094L93.1895 57.7324C92.2495 57.1685 91.5835 56.1372 91.2559 54.918C90.9067 56.2339 90.2139 57.3564 89.2578 57.958L88.7207 57.3242C90.0527 56.5293 90.8262 54.7891 90.8262 53.0488V52.1465H88.9893V51.4482H93.3936V52.1465H91.6426V53.0488ZM107.047 54.5742V55.2295H103.104V56.1211H105.93V58.1836H100.258V59.1182H106.22V59.7627H99.4199V57.582H105.103V56.7549H99.3984V56.1211H102.277V55.2295H98.3564V54.5742H107.047ZM103.104 50.2666V51.1582H106.166V51.8242H103.169C103.325 52.7749 104.818 53.3765 106.574 53.4893L106.316 54.1338C104.721 53.9995 103.282 53.5054 102.696 52.5977C102.111 53.5054 100.671 53.9995 99.0654 54.1338L98.8184 53.4893C100.564 53.3765 102.057 52.7749 102.224 51.8242H99.248V51.1582H102.277V50.2666H103.104ZM118.81 51.416V52.1143H111.064V51.416H114.545V50.2666H115.372V51.416H118.81ZM119.357 56.5078V57.2061H115.372V59.8916H114.545V57.2061H110.613V56.5078H119.357ZM114.964 52.6621C116.908 52.6621 118.079 53.2314 118.079 54.2627C118.079 55.2725 116.908 55.8418 114.964 55.8525C113.009 55.8418 111.838 55.2725 111.849 54.2627C111.838 53.2314 113.009 52.6621 114.964 52.6621ZM114.964 53.3066C113.535 53.3066 112.708 53.6611 112.719 54.2627C112.708 54.8535 113.535 55.1973 114.964 55.1973C116.371 55.1973 117.198 54.8535 117.209 54.2627C117.198 53.6611 116.371 53.3066 114.964 53.3066ZM131.131 51.3193V52.1357H123.3V51.3193H126.727V50.2451H127.736V51.3193H131.131ZM131.657 56.4434V57.2705H129.434V59.9238H128.402V57.2705H126.082V59.9238H125.062V57.2705H122.849V56.4434H131.657ZM127.231 52.6299C129.229 52.6299 130.433 53.1992 130.433 54.2412C130.433 55.2725 129.229 55.8525 127.231 55.8525C125.223 55.8525 124.02 55.2725 124.03 54.2412C124.02 53.1992 125.223 52.6299 127.231 52.6299ZM127.231 53.4033C125.846 53.4141 125.083 53.6934 125.083 54.2412C125.083 54.7783 125.846 55.0684 127.231 55.0684C128.606 55.0684 129.369 54.7783 129.38 54.2412C129.369 53.6934 128.606 53.4141 127.231 53.4033ZM140.616 50.2881V59.9131H139.639V54.9395H138.393V59.4189H137.458V50.4814H138.393V54.1016H139.639V50.2881H140.616ZM136.287 51.4482V52.2754H133.698V56.7334C134.88 56.7227 135.771 56.6689 136.803 56.4756L136.878 57.3135C135.718 57.5498 134.729 57.5928 133.322 57.6035H132.678V51.4482H136.287ZM149.812 50.6963V51.5342H148.415V53.5537H149.769V54.3594H146.75V55.4443H150.639V56.2607H141.862V55.4443H145.74V54.3594H142.711V53.5537H144.075V51.5342H142.668V50.6963H149.812ZM149.65 58.8818V59.709H142.969V57.0342H144V58.8818H149.65ZM145.085 53.5537H147.395V51.5342H145.085V53.5537ZM162.079 50.2988V57.4102H161.059V53.7793H158.953V55.8096H154.517V50.9326H155.537V52.5654H157.943V50.9326H158.953V52.9521H161.059V50.2988H162.079ZM162.294 58.8818V59.709H155.795V56.7119H156.826V58.8818H162.294ZM155.537 54.9824H157.943V53.3496H155.537V54.9824ZM171.897 51.6416V52.4688H163.98V51.6416H167.439V50.4277H168.449V51.6416H171.897ZM172.37 58.001V58.8281H163.562V58.001H167.439V56.7227C165.753 56.6206 164.732 55.9546 164.732 54.8857C164.732 53.7256 165.957 53.0488 167.944 53.0488C169.91 53.0488 171.146 53.7256 171.146 54.8857C171.146 55.9546 170.12 56.6206 168.449 56.7227V58.001H172.37ZM167.944 53.8545C166.569 53.8545 165.764 54.2197 165.774 54.8857C165.764 55.5518 166.569 55.917 167.944 55.9277C169.298 55.917 170.104 55.5518 170.104 54.8857C170.104 54.2197 169.298 53.8545 167.944 53.8545ZM181.834 54.7568V55.4229H173.09V54.7568H181.834ZM180.738 56.1855V58.2158H175.002V59.1289H181.05V59.7412H174.153V57.6357H179.9V56.8193H174.143V56.1855H180.738ZM180.706 50.6104V52.5869H175.066V53.4248H180.878V54.0371H174.229V52.0068H179.857V51.2227H174.196V50.6104H180.706ZM193.285 50.3203V56.0137H192.437V53.5107H190.514V52.8125H192.437V50.3203H193.285ZM190.116 56.3145C192.104 56.3145 193.317 56.959 193.317 58.0869C193.317 59.2148 192.104 59.8594 190.116 59.8701C188.129 59.8594 186.915 59.2148 186.915 58.0869C186.915 56.959 188.129 56.3145 190.116 56.3145ZM190.116 56.9697C188.655 56.9697 187.742 57.3887 187.753 58.0869C187.742 58.7744 188.655 59.1934 190.116 59.1934C191.577 59.1934 192.479 58.7744 192.479 58.0869C192.479 57.3887 191.577 56.9697 190.116 56.9697ZM188.688 52.0713C188.688 53.3174 189.644 54.499 191.04 54.9824L190.6 55.6592C189.525 55.2725 188.693 54.4722 188.29 53.4785C187.871 54.6011 186.985 55.498 185.852 55.9277L185.411 55.251C186.829 54.7354 187.839 53.4463 187.839 52.082V51.7275H185.68V51.0186H190.825V51.7275H188.688V52.0713ZM202.33 50.3311V53.2207H203.759V53.9297H202.33V56.7334H201.481V50.3311H202.33ZM194.832 55.7559C195.595 55.7559 196.486 55.7559 197.421 55.7236V55.0254C196.309 54.9287 195.595 54.4077 195.595 53.6182C195.595 52.748 196.486 52.2109 197.829 52.2109C199.183 52.2109 200.063 52.748 200.074 53.6182C200.063 54.4023 199.365 54.9233 198.259 55.0254V55.6914C199.15 55.6484 200.053 55.5786 200.891 55.4551L200.966 56.0674C198.893 56.4326 196.604 56.4434 194.929 56.4434L194.832 55.7559ZM202.33 57.2061V59.8701H201.481V57.8828H196.003V57.2061H202.33ZM200.601 51.2012V51.8457H195.068V51.2012H197.421V50.2451H198.259V51.2012H200.601ZM197.829 52.8125C196.948 52.8018 196.4 53.1133 196.4 53.6182C196.4 54.1123 196.948 54.4561 197.829 54.4453C198.71 54.4561 199.269 54.1123 199.269 53.6182C199.269 53.1133 198.71 52.8018 197.829 52.8125ZM211.772 50.3203V54.2627H213.373V54.9609H211.772V59.8701H210.935V50.3203H211.772ZM210.011 51.8564V52.5547H204.328V51.8564H206.788V50.4385H207.626V51.8564H210.011ZM207.218 53.3496C208.571 53.3496 209.549 54.252 209.56 55.541C209.549 56.8301 208.571 57.7324 207.218 57.7324C205.854 57.7324 204.865 56.8301 204.876 55.541C204.865 54.252 205.854 53.3496 207.218 53.3496ZM207.218 54.0586C206.326 54.0586 205.671 54.6816 205.682 55.541C205.671 56.4111 206.326 57.0234 207.218 57.0127C208.099 57.0234 208.743 56.4111 208.754 55.541C208.743 54.6816 208.099 54.0586 207.218 54.0586ZM222.063 50.3203V59.8701H221.258V50.3203H222.063ZM220.055 50.5781V59.3867H219.249V54.9287H217.229C216.644 56.0405 215.726 57.0234 214.394 57.8076L213.899 57.1953C215.978 55.9653 217.02 54.2412 217.176 52.2432H214.308V51.5449H218.014C218.008 52.4849 217.858 53.3926 217.541 54.2412H219.249V50.5781H220.055ZM233.622 50.3311V52.5225H235.072V53.2314H233.622V55.7236H232.784V50.3311H233.622ZM233.622 56.25V59.7412H227.574V56.25H233.622ZM228.401 56.916V59.0537H232.806V56.916H228.401ZM227.467 50.8145V54.2842C228.826 54.2788 230.228 54.1714 231.774 53.8545L231.882 54.5635C230.26 54.8857 228.82 54.9932 227.381 54.9932H226.618V50.8145H227.467ZM240.508 51.3623C240.508 51.9048 240.459 52.4365 240.357 52.9521H242.731V50.3096H243.569V59.8701H242.731V56.1963H240.035V55.498H242.731V53.6396H240.186C239.632 55.4121 238.37 56.9697 236.114 58.0654L235.674 57.3779C238.22 56.1479 239.482 54.3057 239.659 52.0498H236.093V51.3623H240.508ZM249.993 51.6738C249.982 52.9521 251.69 54.0371 253.355 54.2842L253.044 54.9502C251.551 54.6978 250.101 53.9028 249.521 52.748C248.94 53.9028 247.485 54.6978 246.019 54.9502L245.686 54.2842C247.34 54.0371 249.048 52.9521 249.048 51.6738V51.6094H245.986V50.9219H253.044V51.6094H249.993V51.6738ZM253.871 55.7666V56.4648H249.918V59.8701H249.091V56.4648H245.17V55.7666H253.871ZM257.513 53.0381C257.513 54.5527 258.254 56.1963 259.521 56.9482L259.038 57.6035C258.12 57.0449 257.459 56.0244 257.126 54.8643C256.771 56.1318 256.062 57.2222 255.106 57.8076L254.569 57.1738C255.891 56.4004 256.696 54.7031 256.696 53.0703V51.2227H257.513V53.0381ZM262.862 50.3203V59.8701H262.046V50.3203H262.862ZM260.886 50.5244V59.3867H260.091V54.4668H258.469V53.7471H260.091V50.5244H260.886ZM272.928 57.9365V58.6455H264.184V57.9365H266.354V55.3584C265.537 54.9341 265.043 54.2466 265.043 53.3818C265.043 51.8994 266.493 50.9326 268.534 50.9219C270.575 50.9326 272.025 51.8994 272.025 53.3818C272.025 54.2305 271.547 54.9126 270.758 55.3369V57.9365H272.928ZM268.534 51.6201C266.966 51.6094 265.859 52.3184 265.859 53.3818C265.859 54.4453 266.966 55.165 268.534 55.165C270.092 55.165 271.209 54.4453 271.209 53.3818C271.209 52.3184 270.092 51.6094 268.534 51.6201ZM267.181 57.9365H269.909V55.6592C269.496 55.772 269.034 55.8311 268.534 55.8311C268.045 55.8311 267.589 55.7773 267.181 55.6699V57.9365ZM274.7 59.0645C274.324 59.0645 274.002 58.7529 274.013 58.3662C274.002 57.9902 274.324 57.6787 274.7 57.6787C275.076 57.6787 275.388 57.9902 275.388 58.3662C275.388 58.7529 275.076 59.0645 274.7 59.0645ZM38.5547 69.3838V70.0713H30.8096V69.3838H34.29V68.2666H35.1172V69.3838H38.5547ZM39.1025 74.4219V75.1201H36.793V77.8916H35.9551V75.1201H33.4844V77.8916H32.6357V75.1201H30.3584V74.4219H39.1025ZM34.709 70.6191C36.6533 70.6191 37.8242 71.1777 37.8242 72.1982C37.8242 73.208 36.6533 73.7773 34.709 73.7773C32.7539 73.7773 31.583 73.208 31.5938 72.1982C31.583 71.1777 32.7539 70.6191 34.709 70.6191ZM34.709 71.2637C33.2803 71.2744 32.4531 71.6074 32.4639 72.1982C32.4531 72.7891 33.2803 73.1221 34.709 73.1221C36.1162 73.1221 36.9434 72.7891 36.9541 72.1982C36.9434 71.6074 36.1162 71.2744 34.709 71.2637ZM48.0293 68.3203V77.8701H47.2236V72.8643H45.8164V77.376H45.043V68.5352H45.8164V72.166H47.2236V68.3203H48.0293ZM43.7969 69.4912V70.1895H41.0576V74.7871C42.3735 74.7817 43.2866 74.7334 44.3447 74.5186L44.4199 75.2275C43.2705 75.4639 42.293 75.5068 40.832 75.5068H40.2197V69.4912H43.7969ZM57.2461 68.7607V69.459H55.7744V71.6504H57.2139V72.3271H54.1416V73.498H58.0732V74.1855H49.3721V73.498H53.3037V72.3271H50.2207V71.6504H51.6602V69.459H50.1885V68.7607H57.2461ZM57.1064 76.957V77.666H50.5V75.0234H51.3486V76.957H57.1064ZM52.498 71.6504H54.9365V69.459H52.498V71.6504ZM69.5566 68.3311V75.3994H68.708V71.7256H66.4521V73.7666H62.123V68.9648H62.9609V70.6621H65.625V68.9648H66.4521V71.0166H68.708V68.3311H69.5566ZM69.7715 76.957V77.666H63.3799V74.7012H64.2285V76.957H69.7715ZM62.9609 73.0684H65.625V71.3281H62.9609V73.0684ZM79.3965 69.7383V70.4365H71.5762V69.7383H75.0781V68.4814H75.9053V69.7383H79.3965ZM79.8906 76.0547V76.7529H71.1465V76.0547H75.0781V74.7119C73.3809 74.6206 72.3496 73.96 72.3604 72.8857C72.3496 71.7471 73.5527 71.0811 75.4971 71.0918C77.4199 71.0811 78.6338 71.7471 78.6338 72.8857C78.6338 73.96 77.5918 74.6206 75.9053 74.7119V76.0547H79.8906ZM75.4971 71.7578C74.0684 71.7578 73.1982 72.1768 73.209 72.8857C73.1982 73.6162 74.0684 74.0244 75.4971 74.0352C76.9043 74.0244 77.7744 73.6162 77.7744 72.8857C77.7744 72.1768 76.9043 71.7578 75.4971 71.7578ZM89.3867 72.7568V73.4229H80.6426V72.7568H89.3867ZM88.291 74.1855V76.2158H82.5547V77.1289H88.6025V77.7412H81.7061V75.6357H87.4531V74.8193H81.6953V74.1855H88.291ZM88.2588 68.6104V70.5869H82.6191V71.4248H88.4307V72.0371H81.7812V70.0068H87.4102V69.2227H81.749V68.6104H88.2588ZM100.387 68.3311V70.5225H101.837V71.2314H100.387V73.7236H99.5488V68.3311H100.387ZM100.387 74.25V77.7412H94.3389V74.25H100.387ZM95.166 74.916V77.0537H99.5703V74.916H95.166ZM94.2314 68.8145V72.2842C95.5903 72.2788 96.9922 72.1714 98.5391 71.8545L98.6465 72.5635C97.0244 72.8857 95.585 72.9932 94.1455 72.9932H93.3828V68.8145H94.2314ZM110.323 68.3203V77.8701H109.475V68.3203H110.323ZM107.498 69.3623C107.487 72.1123 106.209 74.54 103.008 76.0762L102.546 75.3887C105.129 74.1641 106.445 72.3325 106.639 70.0498H102.986V69.3623H107.498ZM115.351 71.2529C115.351 72.875 116.532 74.5186 117.939 75.1309L117.467 75.7969C116.35 75.2866 115.383 74.1855 114.942 72.8643C114.491 74.2661 113.53 75.4854 112.439 76.0332L111.935 75.3672C113.299 74.7119 114.491 72.9072 114.502 71.2529V70.0068H112.246V69.3086H117.628V70.0068H115.351V71.2529ZM119.809 68.3203V77.8701H118.96V68.3203H119.809ZM126.866 68.8682C128.295 68.8682 129.348 69.7812 129.348 71.0703C129.348 72.3701 128.295 73.2725 126.866 73.2832C125.438 73.2725 124.374 72.3701 124.385 71.0703C124.374 69.7812 125.438 68.8682 126.866 68.8682ZM126.866 69.5771C125.932 69.5771 125.201 70.2109 125.212 71.0703C125.201 71.9512 125.932 72.585 126.866 72.585C127.812 72.585 128.521 71.9512 128.521 71.0703C128.521 70.2109 127.812 69.5771 126.866 69.5771ZM131.668 68.3203V70.4795H133.107V71.1777H131.668V73.1006H130.83V68.3203H131.668ZM126.039 74.1318V76.9141C126.592 76.8979 127.328 76.8174 128.005 76.5918L128.134 77.2686C127.199 77.5801 126.297 77.6123 125.674 77.6123H125.223V74.1318H126.039ZM132.624 74.1748V74.8301H127.801V74.1748H129.81V73.3262H130.637V74.1748H132.624ZM130.207 75.1523C131.249 75.1523 131.99 75.6787 132.001 76.5059C131.99 77.333 131.249 77.8486 130.207 77.8486C129.154 77.8486 128.424 77.333 128.435 76.5059C128.424 75.6787 129.154 75.1523 130.207 75.1523ZM130.207 75.7646C129.616 75.7646 129.187 76.0654 129.187 76.5059C129.187 76.957 129.616 77.2471 130.207 77.2471C130.809 77.2471 131.228 76.957 131.228 76.5059C131.228 76.0654 130.809 75.7646 130.207 75.7646ZM138.06 68.9434C140.058 68.9434 141.551 69.9854 141.551 71.5645C141.551 73.1543 140.058 74.1963 138.06 74.1855C136.062 74.1963 134.568 73.1543 134.568 71.5645C134.568 69.9854 136.062 68.9434 138.06 68.9434ZM138.06 69.6309C136.523 69.6201 135.363 70.4258 135.374 71.5645C135.363 72.7246 136.523 73.498 138.06 73.498C139.585 73.498 140.734 72.7246 140.734 71.5645C140.734 70.4258 139.585 69.6201 138.06 69.6309ZM142.453 75.8936V76.6025H133.709V75.8936H142.453ZM148.05 69.1582V70.0068H150.284V68.3311H151.133V75.3027H150.284V72.7568H148.05V73.6162H143.667V69.1582H148.05ZM144.505 69.8564V72.9395H147.223V69.8564H144.505ZM151.348 76.957V77.666H144.956V74.6797H145.805V76.957H151.348ZM148.05 72.0586H150.284V70.7158H148.05V72.0586ZM162.96 68.3203V70.8125H164.389V71.5215H162.96V74.0244H162.111V68.3203H162.96ZM159.888 74.207C161.832 74.207 163.035 74.8838 163.035 76.0225C163.035 77.1826 161.832 77.8486 159.888 77.8486C157.933 77.8486 156.719 77.1826 156.719 76.0225C156.719 74.8838 157.933 74.207 159.888 74.207ZM159.888 74.9053C158.448 74.8945 157.546 75.3242 157.546 76.0225C157.546 76.7314 158.448 77.1719 159.888 77.1719C161.316 77.1719 162.219 76.7314 162.219 76.0225C162.219 75.3242 161.316 74.8945 159.888 74.9053ZM160.167 69.0508V69.749H156.751V72.5527C158.685 72.542 159.802 72.4829 161.08 72.2197L161.166 72.918C159.834 73.1865 158.685 73.2402 156.665 73.2402H155.924V69.0508H160.167ZM168.245 70.3506C168.245 71.543 169.276 72.5635 170.684 72.9717L170.297 73.6377C169.169 73.3047 168.277 72.5957 167.848 71.6611C167.429 72.6709 166.542 73.4497 165.409 73.8203L164.99 73.165C166.408 72.7354 167.418 71.6182 167.418 70.3506V70.1357H165.259V69.459H167.418V68.2773H168.267V69.459H170.404V70.1357H168.245V70.3506ZM172.907 68.3203V73.9814H172.059V71.7041H170.125V71.0059H172.059V68.3203H172.907ZM172.907 74.4756V77.7412H166.666V74.4756H172.907ZM167.504 75.1631V77.0537H172.08V75.1631H167.504ZM177.73 71.2529C177.72 72.7891 178.826 74.4756 180.212 75.1309L179.729 75.7969C178.654 75.2759 177.747 74.1372 177.322 72.8428C176.882 74.25 175.92 75.4854 174.852 76.0332L174.336 75.3672C175.711 74.7012 176.893 72.8857 176.903 71.2529V70.0068H174.68V69.3086H179.879V70.0068H177.73V71.2529ZM181.888 68.3203V72.1875H183.488V72.9072H181.888V77.8701H181.05V68.3203H181.888ZM190.03 70.125C190.03 71.457 190.997 72.7139 192.394 73.2188L191.921 73.874C190.874 73.4551 190.041 72.6226 189.633 71.5859C189.225 72.7407 188.354 73.6592 187.227 74.1104L186.775 73.4229C188.204 72.8965 189.192 71.5645 189.203 70.0928V68.9111H190.03V70.125ZM194.682 68.3311V75.4854H193.833V71.2852H191.706V70.5762H193.833V68.3311H194.682ZM194.896 76.957V77.666H188.505V74.6689H189.354V76.957H194.896ZM204.188 68.3203V74.0137H203.34V71.5107H201.417V70.8125H203.34V68.3203H204.188ZM201.02 74.3145C203.007 74.3145 204.221 74.959 204.221 76.0869C204.221 77.2148 203.007 77.8594 201.02 77.8701C199.032 77.8594 197.818 77.2148 197.818 76.0869C197.818 74.959 199.032 74.3145 201.02 74.3145ZM201.02 74.9697C199.559 74.9697 198.646 75.3887 198.656 76.0869C198.646 76.7744 199.559 77.1934 201.02 77.1934C202.48 77.1934 203.383 76.7744 203.383 76.0869C203.383 75.3887 202.48 74.9697 201.02 74.9697ZM199.591 70.0713C199.591 71.3174 200.547 72.499 201.943 72.9824L201.503 73.6592C200.429 73.2725 199.596 72.4722 199.193 71.4785C198.774 72.6011 197.888 73.498 196.755 73.9277L196.314 73.251C197.732 72.7354 198.742 71.4463 198.742 70.082V69.7275H196.583V69.0186H201.729V69.7275H199.591V70.0713ZM213.652 68.3203V77.8916H212.804V68.3203H213.652ZM208.571 69.0615C209.989 69.0723 211.01 70.3613 211.01 72.3916C211.01 74.4219 209.989 75.7109 208.571 75.7109C207.143 75.7109 206.133 74.4219 206.133 72.3916C206.133 70.3613 207.143 69.0723 208.571 69.0615ZM208.571 69.8135C207.615 69.8242 206.949 70.834 206.949 72.3916C206.949 73.9492 207.615 74.959 208.571 74.959C209.527 74.959 210.193 73.9492 210.193 72.3916C210.193 70.834 209.527 69.8242 208.571 69.8135ZM220.613 69.0615C221.913 69.0723 222.848 70.1841 222.987 71.9727H225.125V68.3203H225.963V77.8916H225.125V72.6709H222.998C222.896 74.54 221.945 75.7109 220.613 75.7109C219.206 75.7109 218.218 74.4219 218.218 72.3916C218.218 70.3613 219.206 69.0723 220.613 69.0615ZM220.613 69.8135C219.668 69.8242 219.023 70.834 219.023 72.3916C219.023 73.9492 219.668 74.959 220.613 74.959C221.548 74.959 222.203 73.9492 222.203 72.3916C222.203 70.834 221.548 69.8242 220.613 69.8135ZM235.459 68.3203V77.8916H234.621V73.8203H232.634V73.1113H234.621V71.21H232.709V70.501H234.621V68.3203H235.459ZM232.086 69.1904V72.585H228.756V74.9375C230.19 74.9321 231.377 74.8784 232.827 74.6582L232.902 75.3672C231.377 75.6035 230.152 75.6572 228.627 75.6572H227.918V71.8975H231.259V69.8887H227.886V69.1904H232.086ZM241.41 68.4385C243.537 68.4385 244.783 69.0293 244.783 70.0928C244.783 71.167 243.537 71.7471 241.41 71.7578C239.283 71.7471 238.026 71.167 238.026 70.0928C238.026 69.0293 239.283 68.4385 241.41 68.4385ZM241.41 69.083C239.82 69.0938 238.896 69.459 238.907 70.0928C238.896 70.748 239.82 71.1025 241.41 71.1133C242.989 71.1025 243.924 70.748 243.924 70.0928C243.924 69.459 242.989 69.0938 241.41 69.083ZM245.761 72.3916V73.0684H241.818V73.9707H244.644V76.1084H238.972V77.0967H244.934V77.7627H238.134V75.4854H243.816V74.6152H238.112V73.9707H240.98V73.0684H237.06V72.3916H245.761ZM254.118 69.2119C254.118 70.5547 255.88 71.7256 257.599 71.9619L257.255 72.6494C255.772 72.4023 254.306 71.5806 253.688 70.4043C253.076 71.5859 251.604 72.4023 250.122 72.6494L249.778 71.9619C251.497 71.7256 253.248 70.5762 253.248 69.2119V68.6641H254.118V69.2119ZM258.028 73.7021V74.4111H254.075V77.8701H253.248V74.4111H249.327V73.7021H258.028ZM264.828 74.7334C264.828 75.5767 265.279 76.4736 266.192 76.9893C267.095 76.4253 267.578 75.4746 267.578 74.7334V74.207H268.405V74.7334C268.405 75.7109 269.125 76.6992 270.35 77.1182L269.931 77.7412C268.975 77.4028 268.303 76.7368 267.976 75.9365C267.68 76.71 267.095 77.4404 266.214 77.8164C265.285 77.4619 264.694 76.7583 264.409 75.958C264.071 76.7314 263.41 77.3975 262.497 77.7412L262.067 77.1182C263.271 76.667 264.001 75.6465 264.012 74.7334V74.207H264.828V74.7334ZM269.479 68.3311V73.7881H268.642V68.3311H269.479ZM264.323 68.8896C265.773 68.8896 266.826 69.792 266.826 71.124C266.826 72.4346 265.773 73.3369 264.323 73.3369C262.873 73.3369 261.82 72.4346 261.82 71.124C261.82 69.792 262.873 68.8896 264.323 68.8896ZM264.323 69.6094C263.346 69.5986 262.637 70.2324 262.647 71.124C262.637 72.0049 263.346 72.6279 264.323 72.6387C265.29 72.6279 265.999 72.0049 265.999 71.124C265.999 70.2324 265.29 69.5986 264.323 69.6094ZM273.046 74.0566V75.1738H277.815V74.0566H278.664V77.7412H272.208V74.0566H273.046ZM273.046 77.0645H277.815V75.8398H273.046V77.0645ZM279.803 72.6816V73.3799H271.102V72.6816H279.803ZM275.893 68.8789C275.893 70.0605 277.633 71.1133 279.309 71.3281L278.997 72.0049C277.515 71.7847 276.064 71.0273 275.463 69.9531C274.851 71.0327 273.39 71.7847 271.918 72.0049L271.596 71.3281C273.293 71.1025 275.022 70.0928 275.022 68.8789V68.4277H275.893V68.8789ZM288.482 68.3203V77.8701H287.645V68.3203H288.482ZM282.059 69.2656V74.6797C283.514 74.6743 285.023 74.5562 286.624 74.2178L286.742 74.9375C285.045 75.292 283.53 75.4102 282.005 75.4102H281.231V69.2656H282.059ZM297.506 68.3203V72.1016H299.106V72.8105H297.506V77.8916H296.668V68.3203H297.506ZM294.992 69.2549V69.9531H291.372V74.7871C293.102 74.7871 294.326 74.7065 295.744 74.4434L295.852 75.1738C294.358 75.4424 293.102 75.4961 291.286 75.4961H290.534V69.2549H294.992ZM300.632 77.0645C300.256 77.0645 299.934 76.7529 299.944 76.3662C299.934 75.9902 300.256 75.6787 300.632 75.6787C301.008 75.6787 301.319 75.9902 301.319 76.3662C301.319 76.7529 301.008 77.0645 300.632 77.0645Z" fill="#333333"/>
<path d="M58.1406 97.5078V103.719H57.0273V102.441H54.3789V101.527H57.0273V100.25H54.4844C53.8105 101.938 52.2344 103.127 49.9609 103.777L49.5156 102.91C52 102.195 53.4531 100.865 53.6523 99.1719H50.0547V98.2578H54.8594C54.8594 98.6445 54.8184 99.0195 54.7539 99.3711H57.0273V97.5078H58.1406ZM54.6836 103.836C56.8047 103.836 58.1992 104.609 58.2109 105.887C58.1992 107.164 56.8047 107.949 54.6836 107.949C52.5273 107.949 51.1445 107.164 51.1445 105.887C51.1445 104.609 52.5273 103.836 54.6836 103.836ZM54.6836 104.715C53.1836 104.715 52.2461 105.137 52.2461 105.887C52.2461 106.625 53.1836 107.059 54.6836 107.059C56.1602 107.059 57.0859 106.625 57.0977 105.887C57.0859 105.137 56.1602 104.715 54.6836 104.715ZM69.332 102.523V103.414H65.0898V104.539H68.1602V107.867H60.9062V104.539H63.9883V103.414H59.7578V102.523H69.332ZM68.4297 97.8242V98.7266H66.9062V100.73H68.3828V101.633H60.6836V100.73H62.1719V98.7266H60.6367V97.8242H68.4297ZM62.0078 105.418V106.965H67.082V105.418H62.0078ZM63.2734 100.73H65.793V98.7266H63.2734V100.73ZM81.3086 97.4844V100.625H82.832V101.562H81.3086V105.207H80.1953V97.4844H81.3086ZM81.7539 106.871V107.773H74.6523V104.398H75.7656V106.871H81.7539ZM76.0117 98.2109C77.5938 98.2109 78.8008 99.2891 78.8125 100.824C78.8008 102.348 77.5938 103.438 76.0117 103.438C74.4297 103.438 73.2109 102.348 73.2227 100.824C73.2109 99.2891 74.4297 98.2109 76.0117 98.2109ZM76.0117 99.1836C75.0508 99.1836 74.3008 99.8516 74.3125 100.824C74.3008 101.797 75.0508 102.465 76.0117 102.465C76.9844 102.465 77.7227 101.797 77.7227 100.824C77.7227 99.8516 76.9844 99.1836 76.0117 99.1836ZM92.418 97.4961V107.996H91.3516V102.617H90.0039V107.457H88.9609V97.707H90.0039V101.703H91.3516V97.4961H92.418ZM85.0352 98.7383V104.34C86.0078 104.334 87.0684 104.258 88.2578 104.023L88.375 104.996C86.9336 105.254 85.7266 105.324 84.6016 105.324H83.9219V98.7383H85.0352Z" fill="black"/>
<path d="M131.645 101.188C131.398 100.016 130.391 99.3828 129.277 99.3828C127.742 99.3828 126.547 100.566 126.547 102.758C126.547 104.949 127.742 106.133 129.277 106.133C130.391 106.133 131.387 105.5 131.645 104.34H132.699C132.395 106.074 131 107.117 129.277 107.117C127.098 107.117 125.527 105.441 125.527 102.758C125.527 100.074 127.098 98.3984 129.277 98.3984C130.988 98.3984 132.383 99.4297 132.699 101.188H131.645ZM137.422 98.5156H138.488V104.574C138.488 106.203 137.527 107.117 136.051 107.117C134.645 107.117 133.625 106.309 133.625 104.996H134.668C134.668 105.711 135.254 106.18 136.051 106.18C136.93 106.18 137.422 105.629 137.422 104.574V98.5156ZM146.34 99.2188C146.34 100.637 147.418 101.938 148.93 102.453L148.426 103.18C147.271 102.758 146.363 101.896 145.906 100.812C145.461 102.037 144.535 103.004 143.316 103.473L142.824 102.734C144.383 102.148 145.426 100.754 145.438 99.1484V98.0703H146.34V99.2188ZM151.004 97.5312V100.25H152.574V101.023H151.004V103.871H150.09V97.5312H151.004ZM147.664 104.141C149.809 104.141 151.098 104.832 151.098 106.027C151.098 107.246 149.809 107.926 147.664 107.926C145.52 107.926 144.207 107.246 144.207 106.027C144.207 104.832 145.52 104.141 147.664 104.141ZM147.664 104.879C146.094 104.879 145.121 105.312 145.133 106.027C145.121 106.766 146.094 107.188 147.664 107.199C149.246 107.188 150.207 106.766 150.207 106.027C150.207 105.312 149.246 104.879 147.664 104.879ZM162.723 102.57V103.332H158.422V104.562H161.562V107.809H154.391V104.562H157.52V103.332H153.23V102.57H162.723ZM161.82 97.8711V98.6328H160.215V100.824H161.785V101.586H154.156V100.824H155.727V98.6328H154.121V97.8711H161.82ZM155.305 105.289V107.059H160.66V105.289H155.305ZM156.641 100.824H159.301V98.6328H156.641V100.824ZM172.227 97.543V105.418H171.289V103.953H168.992V103.203H171.289V97.543H172.227ZM172.484 106.953V107.727H165.09V104.539H166.016V106.953H172.484ZM163.531 101.668C164.867 101.668 166.549 101.65 168.207 101.539C168.412 100.385 168.447 99.5234 168.453 98.9258H164.469V98.1758H169.367V98.5859C169.367 99.1602 169.367 100.139 169.145 101.457C169.555 101.428 169.953 101.381 170.34 101.328L170.41 101.996C169.438 102.16 168.418 102.26 167.422 102.324V104.727H166.508V102.371C165.477 102.418 164.504 102.43 163.66 102.43L163.531 101.668ZM180.359 98.5156V107H179.293V99.6172H179.246L177.184 100.988V99.9219L179.293 98.5156H180.359ZM185.398 107.117C183.512 107.117 182.434 105.535 182.434 102.758C182.434 100.004 183.535 98.3984 185.398 98.3984C187.262 98.3984 188.363 100.004 188.363 102.758C188.363 105.535 187.273 107.117 185.398 107.117ZM185.398 106.18C186.617 106.18 187.332 104.949 187.332 102.758C187.332 100.566 186.617 99.3125 185.398 99.3125C184.18 99.3125 183.453 100.566 183.453 102.758C183.453 104.949 184.168 106.18 185.398 106.18ZM190.801 106.215L189.887 109.402H189.02L189.664 106.215H190.801ZM195.031 107.117C193.145 107.117 192.066 105.535 192.066 102.758C192.066 100.004 193.168 98.3984 195.031 98.3984C196.895 98.3984 197.996 100.004 197.996 102.758C197.996 105.535 196.906 107.117 195.031 107.117ZM195.031 106.18C196.25 106.18 196.965 104.949 196.965 102.758C196.965 100.566 196.25 99.3125 195.031 99.3125C193.812 99.3125 193.086 100.566 193.086 102.758C193.086 104.949 193.801 106.18 195.031 106.18ZM202.18 107.117C200.293 107.117 199.215 105.535 199.215 102.758C199.215 100.004 200.316 98.3984 202.18 98.3984C204.043 98.3984 205.145 100.004 205.145 102.758C205.145 105.535 204.055 107.117 202.18 107.117ZM202.18 106.18C203.398 106.18 204.113 104.949 204.113 102.758C204.113 100.566 203.398 99.3125 202.18 99.3125C200.961 99.3125 200.234 100.566 200.234 102.758C200.234 104.949 200.949 106.18 202.18 106.18ZM209.328 107.117C207.441 107.117 206.363 105.535 206.363 102.758C206.363 100.004 207.465 98.3984 209.328 98.3984C211.191 98.3984 212.293 100.004 212.293 102.758C212.293 105.535 211.203 107.117 209.328 107.117ZM209.328 106.18C210.547 106.18 211.262 104.949 211.262 102.758C211.262 100.566 210.547 99.3125 209.328 99.3125C208.109 99.3125 207.383 100.566 207.383 102.758C207.383 104.949 208.098 106.18 209.328 106.18ZM221.914 97.543V105.453H220.988V104.375H218.832V103.707H220.988V97.543H221.914ZM222.172 106.953V107.727H214.766V104.68H215.691V106.953H222.172ZM213.266 102.371C215.211 102.359 217.812 102.348 220.051 102.066L220.109 102.734C219.178 102.881 218.205 102.975 217.25 103.027V105.09H216.324V103.074C215.27 103.121 214.268 103.127 213.395 103.121L213.266 102.371ZM216.688 97.9648C218.211 97.9648 219.254 98.6914 219.266 99.7812C219.254 100.895 218.211 101.586 216.688 101.586C215.152 101.586 214.109 100.895 214.109 99.7812C214.109 98.6914 215.152 97.9648 216.688 97.9648ZM216.688 98.668C215.668 98.6562 214.977 99.1133 214.988 99.7812C214.977 100.461 215.668 100.906 216.688 100.906C217.672 100.906 218.375 100.461 218.387 99.7812C218.375 99.1133 217.672 98.6562 216.688 98.668ZM232.32 97.543V105.418H231.383V103.953H229.086V103.203H231.383V97.543H232.32ZM232.578 106.953V107.727H225.184V104.539H226.109V106.953H232.578ZM223.625 101.668C224.961 101.668 226.643 101.65 228.301 101.539C228.506 100.385 228.541 99.5234 228.547 98.9258H224.562V98.1758H229.461V98.5859C229.461 99.1602 229.461 100.139 229.238 101.457C229.648 101.428 230.047 101.381 230.434 101.328L230.504 101.996C229.531 102.16 228.512 102.26 227.516 102.324V104.727H226.602V102.371C225.57 102.418 224.598 102.43 223.754 102.43L223.625 101.668ZM237.723 103.766C237.734 101.551 238.332 99.7109 239.41 98.1523H240.301C239.504 99.3125 238.766 101.68 238.766 103.766C238.766 105.852 239.504 108.23 240.301 109.391H239.41C238.332 107.82 237.734 105.98 237.723 103.766ZM250.66 102.934V103.695H241.168V102.934H245.457V101.633H246.359V102.934H250.66ZM246.359 97.5078V98.5508H249.699V99.3008H246.418C246.494 100.455 248.146 101.252 250.098 101.434L249.816 102.148C248.088 101.967 246.547 101.346 245.914 100.297C245.275 101.346 243.729 101.967 242.012 102.148L241.719 101.434C243.67 101.252 245.322 100.455 245.41 99.3008H242.152V98.5508H245.457V97.5078H246.359ZM245.914 104.48C248.176 104.48 249.488 105.09 249.5 106.203C249.488 107.328 248.176 107.926 245.914 107.926C243.652 107.926 242.316 107.328 242.316 106.203C242.316 105.09 243.652 104.48 245.914 104.48ZM245.914 105.172C244.227 105.172 243.242 105.547 243.254 106.203C243.242 106.859 244.227 107.223 245.914 107.211C247.578 107.223 248.574 106.859 248.574 106.203C248.574 105.547 247.578 105.172 245.914 105.172ZM257.926 98.5156V107H256.859V99.6172H256.812L254.75 100.988V99.9219L256.859 98.5156H257.926ZM262.965 107.117C261.078 107.117 260 105.535 260 102.758C260 100.004 261.102 98.3984 262.965 98.3984C264.828 98.3984 265.93 100.004 265.93 102.758C265.93 105.535 264.84 107.117 262.965 107.117ZM262.965 106.18C264.184 106.18 264.898 104.949 264.898 102.758C264.898 100.566 264.184 99.3125 262.965 99.3125C261.746 99.3125 261.02 100.566 261.02 102.758C261.02 104.949 261.734 106.18 262.965 106.18ZM275.598 97.5312V103.707H274.672V102.066H272.234V102.957H267.453V98.3281H272.234V99.2305H274.672V97.5312H275.598ZM268.367 99.0781V102.207H271.332V99.0781H268.367ZM272.141 104.012C274.309 104.012 275.633 104.727 275.633 105.98C275.633 107.223 274.309 107.926 272.141 107.926C269.973 107.926 268.648 107.223 268.648 105.98C268.648 104.727 269.973 104.012 272.141 104.012ZM272.141 104.727C270.547 104.738 269.551 105.195 269.562 105.98C269.551 106.73 270.547 107.199 272.141 107.199C273.734 107.199 274.719 106.73 274.719 105.98C274.719 105.195 273.734 104.738 272.141 104.727ZM272.234 101.293H274.672V99.9922H272.234V101.293ZM279.934 103.766C279.922 105.98 279.324 107.82 278.246 109.391H277.355C278.152 108.23 278.891 105.852 278.891 103.766C278.891 101.68 278.152 99.3125 277.355 98.1523H278.246C279.324 99.7109 279.922 101.551 279.934 103.766Z" fill="#333333"/>
</svg>
