<svg width="330" height="136" viewBox="0 0 330 136" fill="none" xmlns="http://www.w3.org/2000/svg">
<rect width="330" height="136" rx="10" fill="white" fill-opacity="0.4"/>
<rect x="29" y="32" width="143" height="9" fill="#E2EB91"/>
<path d="M37.1621 25.4414C37.1621 26.8633 38.2695 28.1758 40.1426 28.709L39.541 29.7207C38.126 29.3037 37.0801 28.4424 36.5332 27.3281C36 28.5586 34.9268 29.5088 33.4707 29.9531L32.8418 28.9414C34.7148 28.3945 35.877 26.9863 35.877 25.4414V25.3184H33.2109V24.2793H35.877V22.8574H37.1758V24.2793H39.8281V25.3184H37.1621V25.4414ZM42.4941 22.9121V25.9473H44.2715V27.0273H42.4941V30.1445H41.1953V22.9121H42.4941ZM42.4941 30.6914V35.0117H34.6738V30.6914H42.4941ZM35.9453 31.7168V33.959H41.209V31.7168H35.9453ZM48.291 23.8281C49.4053 23.8281 50.3281 24.4707 50.875 25.5781H53.8965V22.9121H55.1816V35.1895H53.8965V30.4863H50.957C50.4307 31.7168 49.4668 32.4277 48.291 32.4277C46.459 32.4277 45.1738 30.7598 45.1875 28.1211C45.1738 25.4961 46.459 23.8281 48.291 23.8281ZM48.291 24.9902C47.1836 24.9902 46.418 26.1934 46.418 28.1211C46.418 30.0625 47.1836 31.2656 48.291 31.2656C49.3984 31.2656 50.1641 30.0625 50.1641 28.1211C50.1641 26.1934 49.3984 24.9902 48.291 24.9902ZM51.2441 26.6445C51.333 27.0957 51.3945 27.5879 51.3945 28.1211C51.3945 28.5859 51.3535 29.0166 51.2715 29.4199H53.8965V26.6445H51.2441ZM64.9844 26.0293C64.9707 28.2715 66.3242 30.5137 68.2246 31.3613L67.4453 32.3867C66.0371 31.7168 64.9229 30.3428 64.3555 28.668C63.7812 30.459 62.6533 31.9424 61.1836 32.6602L60.3906 31.5664C62.3184 30.7051 63.6719 28.3672 63.6719 26.0293V23.9375H64.9844V26.0293ZM70.6309 22.9121V35.1895H69.332V22.9121H70.6309ZM85.957 23.4453V24.0469C85.957 24.8262 85.957 26.0703 85.6016 27.7109L84.3301 27.5605C84.624 26.2207 84.6719 25.2227 84.6992 24.4844H81.7324V23.4453H85.957ZM87.1602 28.6543V29.707H76.0176V28.6543H81.1855V26.2891H82.4707V28.6543H87.1602ZM85.7793 30.9102V35.0938H84.4531V31.9629H77.2344V30.9102H85.7793ZM80.7344 23.4453V23.8965C80.7207 24.6348 80.7207 25.9473 80.1328 27.7246L78.8887 27.5469C79.3262 26.1934 79.4287 25.1885 79.4629 24.4844H76.9609V23.4453H80.7344ZM101.16 22.9258V26.5625H102.91V27.6289H101.16V31.1699H99.8613V22.9258H101.16ZM91.4395 29.8027C92.3896 29.8027 93.4902 29.8027 94.6387 29.7617V28.9414C93.2441 28.7979 92.3555 28.1416 92.3691 27.1504C92.3555 26.0293 93.5176 25.332 95.2812 25.3457C97.0312 25.332 98.1934 26.0293 98.1934 27.1504C98.1934 28.1348 97.3184 28.791 95.9375 28.9414V29.7207C97.0312 29.666 98.1387 29.5771 99.1641 29.4336L99.2734 30.3633C96.6348 30.8281 93.7363 30.8418 91.5762 30.8418L91.4395 29.8027ZM101.16 31.7441V35.1621H99.8613V32.7559H92.9707V31.7441H101.16ZM98.8223 23.9648V24.9355H91.7539V23.9648H94.6387V22.8164H95.9375V23.9648H98.8223ZM95.2812 26.2344C94.2285 26.2207 93.5996 26.5625 93.5996 27.1504C93.5996 27.7246 94.2285 28.0938 95.2812 28.0938C96.3203 28.0938 96.9492 27.7246 96.9492 27.1504C96.9492 26.5625 96.3203 26.2207 95.2812 26.2344ZM113.779 22.9258V31.8262H112.48V22.9258H113.779ZM114.148 33.8496V34.9023H105.768V30.9238H107.08V33.8496H114.148ZM107.135 23.7461C108.98 23.7461 110.389 25.0039 110.389 26.7812C110.389 28.5859 108.98 29.8301 107.135 29.8301C105.289 29.8301 103.867 28.5859 103.867 26.7812C103.867 25.0039 105.289 23.7461 107.135 23.7461ZM107.135 24.8809C105.986 24.8809 105.139 25.6602 105.139 26.7812C105.139 27.9297 105.986 28.6953 107.135 28.6953C108.256 28.6953 109.117 27.9297 109.117 26.7812C109.117 25.6602 108.256 24.8809 107.135 24.8809ZM121.777 24.9355V25.9883H115.693V24.9355H118.1V23.2676H119.385V24.9355H121.777ZM118.742 26.7266C120.301 26.7266 121.395 27.8887 121.408 29.543C121.395 31.2109 120.301 32.3867 118.742 32.3867C117.211 32.3867 116.076 31.2109 116.09 29.543C116.076 27.8887 117.211 26.7266 118.742 26.7266ZM118.742 27.8066C117.854 27.8066 117.238 28.5312 117.238 29.543C117.238 30.582 117.854 31.2793 118.742 31.2793C119.617 31.2793 120.26 30.582 120.26 29.543C120.26 28.5312 119.617 27.8066 118.742 27.8066ZM126.207 22.9121V35.1621H124.977V29.0781H123.568V34.5879H122.338V23.1855H123.568V28.0117H124.977V22.9121H126.207ZM138.99 29.8164V30.8691H134.014V35.1484H132.742V30.8691H127.82V29.8164H138.99ZM137.938 23.6367V24.6758H134.15C134.171 26.1934 136.058 27.5469 138.375 27.8613L137.896 28.8867C135.887 28.5723 134.15 27.5811 133.412 26.1797C132.653 27.5811 130.924 28.5723 128.941 28.8867L128.449 27.8613C130.739 27.5469 132.626 26.1934 132.674 24.6758H128.859V23.6367H137.938ZM143.652 26.2617C143.652 28.2168 144.473 30.3086 146.113 31.3066L145.389 32.3047C144.24 31.6143 143.461 30.3906 143.051 28.9688C142.593 30.5273 141.752 31.8535 140.562 32.5781L139.756 31.6074C141.492 30.5684 142.395 28.4082 142.395 26.3164V24.0332H143.652V26.2617ZM150.461 22.9121V35.1621H149.217V22.9121H150.461ZM147.918 23.1445V34.5605H146.688V28.2988H144.787V27.2188H146.688V23.1445H147.918ZM163.23 32.5508V33.6309H152.02V32.5508H154.699V29.3516C153.694 28.7979 153.086 27.916 153.086 26.8223C153.086 24.8945 154.973 23.623 157.598 23.623C160.236 23.623 162.123 24.8945 162.123 26.8223C162.123 27.9023 161.535 28.7705 160.551 29.3242V32.5508H163.23ZM157.598 24.6621C155.67 24.6621 154.344 25.4961 154.344 26.8223C154.344 28.1348 155.67 28.9961 157.598 28.9961C159.512 28.9961 160.865 28.1348 160.865 26.8223C160.865 25.4961 159.512 24.6621 157.598 24.6621ZM155.984 32.5508H159.238V29.8164C158.739 29.9463 158.186 30.0078 157.598 30.0078C157.023 30.0078 156.477 29.9463 155.984 29.8301V32.5508ZM166.375 24.1016L166.252 31.1426H164.898L164.775 24.1016H166.375ZM165.582 34.0957C165.049 34.0957 164.598 33.6582 164.611 33.125C164.598 32.5918 165.049 32.1543 165.582 32.1543C166.102 32.1543 166.553 32.5918 166.553 33.125C166.553 33.6582 166.102 34.0957 165.582 34.0957Z" fill="black"/>
<path d="M34.8545 50.0293V50.4482C34.8438 51.1304 34.8438 52.312 34.543 54.0039C34.9619 53.9771 35.3862 53.9395 35.7998 53.8965L35.8643 54.541C34.8867 54.6646 33.8716 54.7451 32.8779 54.7881V58.3008H32.0293V54.8203C31.1216 54.8579 30.2407 54.8633 29.4404 54.8633L29.3223 54.165C30.6436 54.1489 32.1689 54.1382 33.6836 54.0576C33.8018 53.4775 33.877 52.9565 33.9307 52.4893L30.1172 52.8223L29.9775 52.1025L33.9844 51.877C34.0166 51.4204 34.0273 51.0391 34.0273 50.7275H30.1816V50.0293H34.8545ZM37.3359 49.3203V58.8701H36.498V49.3203H37.3359ZM47.6377 56.8936V57.6025H38.8936V56.8936H47.6377ZM43.6846 51.4258C43.6846 52.9512 45.5752 54.251 47.2188 54.5195L46.875 55.1855C45.4141 54.9009 43.8726 53.9663 43.2656 52.6504C42.6479 53.9771 41.1118 54.9385 39.6777 55.2285L39.3232 54.5518C40.9346 54.2725 42.8145 52.9512 42.8145 51.4258V50.9854H39.6133V50.2871H46.8857V50.9854H43.6846V51.4258ZM59.0781 49.3203V55.0137H58.2295V52.5107H56.3066V51.8125H58.2295V49.3203H59.0781ZM55.9092 55.3145C57.8965 55.3145 59.1104 55.959 59.1104 57.0869C59.1104 58.2148 57.8965 58.8594 55.9092 58.8701C53.9219 58.8594 52.708 58.2148 52.708 57.0869C52.708 55.959 53.9219 55.3145 55.9092 55.3145ZM55.9092 55.9697C54.4482 55.9697 53.5352 56.3887 53.5459 57.0869C53.5352 57.7744 54.4482 58.1934 55.9092 58.1934C57.3701 58.1934 58.2725 57.7744 58.2725 57.0869C58.2725 56.3887 57.3701 55.9697 55.9092 55.9697ZM54.4805 51.0713C54.4805 52.3174 55.4365 53.499 56.833 53.9824L56.3926 54.6592C55.3184 54.2725 54.4858 53.4722 54.083 52.4785C53.6641 53.6011 52.7778 54.498 51.6445 54.9277L51.2041 54.251C52.6221 53.7354 53.6318 52.4463 53.6318 51.082V50.7275H51.4727V50.0186H56.6182V50.7275H54.4805V51.0713ZM68.1338 49.3203V51.5654H69.5732V52.2744H68.1338V54.4121H67.2959V49.3203H68.1338ZM65.3516 49.9541V50.6523H61.957V53.3809C63.8745 53.3809 64.9648 53.3218 66.2432 53.0586L66.3506 53.7568C65.0078 54.0254 63.8691 54.0898 61.8604 54.0898H61.1191V49.9541H65.3516ZM62.9238 54.9277V56.1201H67.2959V54.9277H68.1338V58.709H62.0859V54.9277H62.9238ZM62.9238 58.0107H67.2959V56.7969H62.9238V58.0107ZM81.0996 49.3203V58.8701H80.2939V49.3203H81.0996ZM79.166 49.5566V58.376H78.3711V53.4561H76.7598V52.7686H78.3711V49.5566H79.166ZM75.7393 52.0488C75.7393 53.7031 76.4805 55.3467 77.8018 56.1094L77.2861 56.7324C76.3462 56.1685 75.6802 55.1372 75.3525 53.918C75.0034 55.2339 74.3105 56.3564 73.3545 56.958L72.8174 56.3242C74.1494 55.5293 74.9229 53.7891 74.9229 52.0488V51.1465H73.0859V50.4482H77.4902V51.1465H75.7393V52.0488ZM91.1436 53.5742V54.2295H87.2012V55.1211H90.0264V57.1836H84.3545V58.1182H90.3164V58.7627H83.5166V56.582H89.1992V55.7549H83.4951V55.1211H86.374V54.2295H82.4531V53.5742H91.1436ZM87.2012 49.2666V50.1582H90.2627V50.8242H87.2656C87.4214 51.7749 88.9146 52.3765 90.6709 52.4893L90.4131 53.1338C88.8179 52.9995 87.3784 52.5054 86.793 51.5977C86.2075 52.5054 84.7681 52.9995 83.1621 53.1338L82.915 52.4893C84.6606 52.3765 86.1538 51.7749 86.3203 50.8242H83.3447V50.1582H86.374V49.2666H87.2012ZM102.906 50.416V51.1143H95.1611V50.416H98.6416V49.2666H99.4688V50.416H102.906ZM103.454 55.5078V56.2061H99.4688V58.8916H98.6416V56.2061H94.71V55.5078H103.454ZM99.0605 51.6621C101.005 51.6621 102.176 52.2314 102.176 53.2627C102.176 54.2725 101.005 54.8418 99.0605 54.8525C97.1055 54.8418 95.9346 54.2725 95.9453 53.2627C95.9346 52.2314 97.1055 51.6621 99.0605 51.6621ZM99.0605 52.3066C97.6318 52.3066 96.8047 52.6611 96.8154 53.2627C96.8047 53.8535 97.6318 54.1973 99.0605 54.1973C100.468 54.1973 101.295 53.8535 101.306 53.2627C101.295 52.6611 100.468 52.3066 99.0605 52.3066ZM115.228 50.3193V51.1357H107.396V50.3193H110.823V49.2451H111.833V50.3193H115.228ZM115.754 55.4434V56.2705H113.53V58.9238H112.499V56.2705H110.179V58.9238H109.158V56.2705H106.945V55.4434H115.754ZM111.328 51.6299C113.326 51.6299 114.529 52.1992 114.529 53.2412C114.529 54.2725 113.326 54.8525 111.328 54.8525C109.319 54.8525 108.116 54.2725 108.127 53.2412C108.116 52.1992 109.319 51.6299 111.328 51.6299ZM111.328 52.4033C109.942 52.4141 109.18 52.6934 109.18 53.2412C109.18 53.7783 109.942 54.0684 111.328 54.0684C112.703 54.0684 113.466 53.7783 113.477 53.2412C113.466 52.6934 112.703 52.4141 111.328 52.4033ZM124.713 49.2881V58.9131H123.735V53.9395H122.489V58.4189H121.555V49.4814H122.489V53.1016H123.735V49.2881H124.713ZM120.384 50.4482V51.2754H117.795V55.7334C118.977 55.7227 119.868 55.6689 120.899 55.4756L120.975 56.3135C119.814 56.5498 118.826 56.5928 117.419 56.6035H116.774V50.4482H120.384ZM133.908 49.6963V50.5342H132.512V52.5537H133.865V53.3594H130.847V54.4443H134.735V55.2607H125.959V54.4443H129.837V53.3594H126.808V52.5537H128.172V50.5342H126.765V49.6963H133.908ZM133.747 57.8818V58.709H127.065V56.0342H128.097V57.8818H133.747ZM129.182 52.5537H131.491V50.5342H129.182V52.5537ZM146.176 49.2988V56.4102H145.155V52.7793H143.05V54.8096H138.613V49.9326H139.634V51.5654H142.04V49.9326H143.05V51.9521H145.155V49.2988H146.176ZM146.391 57.8818V58.709H139.892V55.7119H140.923V57.8818H146.391ZM139.634 53.9824H142.04V52.3496H139.634V53.9824ZM155.994 50.6416V51.4688H148.077V50.6416H151.536V49.4277H152.546V50.6416H155.994ZM156.467 57.001V57.8281H147.658V57.001H151.536V55.7227C149.85 55.6206 148.829 54.9546 148.829 53.8857C148.829 52.7256 150.054 52.0488 152.041 52.0488C154.007 52.0488 155.242 52.7256 155.242 53.8857C155.242 54.9546 154.216 55.6206 152.546 55.7227V57.001H156.467ZM152.041 52.8545C150.666 52.8545 149.86 53.2197 149.871 53.8857C149.86 54.5518 150.666 54.917 152.041 54.9277C153.395 54.917 154.2 54.5518 154.2 53.8857C154.2 53.2197 153.395 52.8545 152.041 52.8545ZM165.931 53.7568V54.4229H157.187V53.7568H165.931ZM164.835 55.1855V57.2158H159.099V58.1289H165.146V58.7412H158.25V56.6357H163.997V55.8193H158.239V55.1855H164.835ZM164.803 49.6104V51.5869H159.163V52.4248H164.975V53.0371H158.325V51.0068H163.954V50.2227H158.293V49.6104H164.803ZM177.382 49.3203V55.0137H176.533V52.5107H174.61V51.8125H176.533V49.3203H177.382ZM174.213 55.3145C176.2 55.3145 177.414 55.959 177.414 57.0869C177.414 58.2148 176.2 58.8594 174.213 58.8701C172.226 58.8594 171.012 58.2148 171.012 57.0869C171.012 55.959 172.226 55.3145 174.213 55.3145ZM174.213 55.9697C172.752 55.9697 171.839 56.3887 171.85 57.0869C171.839 57.7744 172.752 58.1934 174.213 58.1934C175.674 58.1934 176.576 57.7744 176.576 57.0869C176.576 56.3887 175.674 55.9697 174.213 55.9697ZM172.784 51.0713C172.784 52.3174 173.74 53.499 175.137 53.9824L174.696 54.6592C173.622 54.2725 172.79 53.4722 172.387 52.4785C171.968 53.6011 171.082 54.498 169.948 54.9277L169.508 54.251C170.926 53.7354 171.936 52.4463 171.936 51.082V50.7275H169.776V50.0186H174.922V50.7275H172.784V51.0713ZM186.427 49.3311V52.2207H187.855V52.9297H186.427V55.7334H185.578V49.3311H186.427ZM178.929 54.7559C179.691 54.7559 180.583 54.7559 181.518 54.7236V54.0254C180.406 53.9287 179.691 53.4077 179.691 52.6182C179.691 51.748 180.583 51.2109 181.926 51.2109C183.279 51.2109 184.16 51.748 184.171 52.6182C184.16 53.4023 183.462 53.9233 182.355 54.0254V54.6914C183.247 54.6484 184.149 54.5786 184.987 54.4551L185.062 55.0674C182.989 55.4326 180.701 55.4434 179.025 55.4434L178.929 54.7559ZM186.427 56.2061V58.8701H185.578V56.8828H180.1V56.2061H186.427ZM184.697 50.2012V50.8457H179.165V50.2012H181.518V49.2451H182.355V50.2012H184.697ZM181.926 51.8125C181.045 51.8018 180.497 52.1133 180.497 52.6182C180.497 53.1123 181.045 53.4561 181.926 53.4453C182.807 53.4561 183.365 53.1123 183.365 52.6182C183.365 52.1133 182.807 51.8018 181.926 51.8125ZM195.869 49.3203V53.2627H197.47V53.9609H195.869V58.8701H195.031V49.3203H195.869ZM194.107 50.8564V51.5547H188.425V50.8564H190.885V49.4385H191.723V50.8564H194.107ZM191.314 52.3496C192.668 52.3496 193.646 53.252 193.656 54.541C193.646 55.8301 192.668 56.7324 191.314 56.7324C189.95 56.7324 188.962 55.8301 188.973 54.541C188.962 53.252 189.95 52.3496 191.314 52.3496ZM191.314 53.0586C190.423 53.0586 189.768 53.6816 189.778 54.541C189.768 55.4111 190.423 56.0234 191.314 56.0127C192.195 56.0234 192.84 55.4111 192.851 54.541C192.84 53.6816 192.195 53.0586 191.314 53.0586ZM206.16 49.3203V58.8701H205.354V49.3203H206.16ZM204.151 49.5781V58.3867H203.346V53.9287H201.326C200.741 55.0405 199.822 56.0234 198.49 56.8076L197.996 56.1953C200.075 54.9653 201.117 53.2412 201.272 51.2432H198.404V50.5449H202.11C202.105 51.4849 201.955 52.3926 201.638 53.2412H203.346V49.5781H204.151ZM217.719 49.3311V51.5225H219.169V52.2314H217.719V54.7236H216.881V49.3311H217.719ZM217.719 55.25V58.7412H211.671V55.25H217.719ZM212.498 55.916V58.0537H216.902V55.916H212.498ZM211.563 49.8145V53.2842C212.922 53.2788 214.324 53.1714 215.871 52.8545L215.979 53.5635C214.356 53.8857 212.917 53.9932 211.478 53.9932H210.715V49.8145H211.563ZM224.604 50.3623C224.604 50.9048 224.556 51.4365 224.454 51.9521H226.828V49.3096H227.666V58.8701H226.828V55.1963H224.132V54.498H226.828V52.6396H224.282C223.729 54.4121 222.467 55.9697 220.211 57.0654L219.771 56.3779C222.316 55.1479 223.579 53.3057 223.756 51.0498H220.189V50.3623H224.604ZM234.09 50.6738C234.079 51.9521 235.787 53.0371 237.452 53.2842L237.141 53.9502C235.647 53.6978 234.197 52.9028 233.617 51.748C233.037 52.9028 231.582 53.6978 230.115 53.9502L229.782 53.2842C231.437 53.0371 233.145 51.9521 233.145 50.6738V50.6094H230.083V49.9219H237.141V50.6094H234.09V50.6738ZM237.968 54.7666V55.4648H234.015V58.8701H233.188V55.4648H229.267V54.7666H237.968ZM241.609 52.0381C241.609 53.5527 242.351 55.1963 243.618 55.9482L243.135 56.6035C242.216 56.0449 241.556 55.0244 241.223 53.8643C240.868 55.1318 240.159 56.2222 239.203 56.8076L238.666 56.1738C239.987 55.4004 240.793 53.7031 240.793 52.0703V50.2227H241.609V52.0381ZM246.959 49.3203V58.8701H246.143V49.3203H246.959ZM244.982 49.5244V58.3867H244.188V53.4668H242.565V52.7471H244.188V49.5244H244.982ZM257.024 56.9365V57.6455H248.28V56.9365H250.45V54.3584C249.634 53.9341 249.14 53.2466 249.14 52.3818C249.14 50.8994 250.59 49.9326 252.631 49.9219C254.672 49.9326 256.122 50.8994 256.122 52.3818C256.122 53.2305 255.644 53.9126 254.854 54.3369V56.9365H257.024ZM252.631 50.6201C251.062 50.6094 249.956 51.3184 249.956 52.3818C249.956 53.4453 251.062 54.165 252.631 54.165C254.188 54.165 255.306 53.4453 255.306 52.3818C255.306 51.3184 254.188 50.6094 252.631 50.6201ZM251.277 56.9365H254.006V54.6592C253.592 54.772 253.13 54.8311 252.631 54.8311C252.142 54.8311 251.686 54.7773 251.277 54.6699V56.9365ZM258.797 58.0645C258.421 58.0645 258.099 57.7529 258.109 57.3662C258.099 56.9902 258.421 56.6787 258.797 56.6787C259.173 56.6787 259.484 56.9902 259.484 57.3662C259.484 57.7529 259.173 58.0645 258.797 58.0645ZM37.583 68.3838V69.0713H29.8379V68.3838H33.3184V67.2666H34.1455V68.3838H37.583ZM38.1309 73.4219V74.1201H35.8213V76.8916H34.9834V74.1201H32.5127V76.8916H31.6641V74.1201H29.3867V73.4219H38.1309ZM33.7373 69.6191C35.6816 69.6191 36.8525 70.1777 36.8525 71.1982C36.8525 72.208 35.6816 72.7773 33.7373 72.7773C31.7822 72.7773 30.6113 72.208 30.6221 71.1982C30.6113 70.1777 31.7822 69.6191 33.7373 69.6191ZM33.7373 70.2637C32.3086 70.2744 31.4814 70.6074 31.4922 71.1982C31.4814 71.7891 32.3086 72.1221 33.7373 72.1221C35.1445 72.1221 35.9717 71.7891 35.9824 71.1982C35.9717 70.6074 35.1445 70.2744 33.7373 70.2637ZM47.0576 67.3203V76.8701H46.252V71.8643H44.8447V76.376H44.0713V67.5352H44.8447V71.166H46.252V67.3203H47.0576ZM42.8252 68.4912V69.1895H40.0859V73.7871C41.4019 73.7817 42.3149 73.7334 43.373 73.5186L43.4482 74.2275C42.2988 74.4639 41.3213 74.5068 39.8604 74.5068H39.248V68.4912H42.8252ZM56.2744 67.7607V68.459H54.8027V70.6504H56.2422V71.3271H53.1699V72.498H57.1016V73.1855H48.4004V72.498H52.332V71.3271H49.249V70.6504H50.6885V68.459H49.2168V67.7607H56.2744ZM56.1348 75.957V76.666H49.5283V74.0234H50.377V75.957H56.1348ZM51.5264 70.6504H53.9648V68.459H51.5264V70.6504ZM68.585 67.3311V74.3994H67.7363V70.7256H65.4805V72.7666H61.1514V67.9648H61.9893V69.6621H64.6533V67.9648H65.4805V70.0166H67.7363V67.3311H68.585ZM68.7998 75.957V76.666H62.4082V73.7012H63.2568V75.957H68.7998ZM61.9893 72.0684H64.6533V70.3281H61.9893V72.0684ZM78.4248 68.7383V69.4365H70.6045V68.7383H74.1064V67.4814H74.9336V68.7383H78.4248ZM78.9189 75.0547V75.7529H70.1748V75.0547H74.1064V73.7119C72.4092 73.6206 71.3779 72.96 71.3887 71.8857C71.3779 70.7471 72.5811 70.0811 74.5254 70.0918C76.4482 70.0811 77.6621 70.7471 77.6621 71.8857C77.6621 72.96 76.6201 73.6206 74.9336 73.7119V75.0547H78.9189ZM74.5254 70.7578C73.0967 70.7578 72.2266 71.1768 72.2373 71.8857C72.2266 72.6162 73.0967 73.0244 74.5254 73.0352C75.9326 73.0244 76.8027 72.6162 76.8027 71.8857C76.8027 71.1768 75.9326 70.7578 74.5254 70.7578ZM88.415 71.7568V72.4229H79.6709V71.7568H88.415ZM87.3193 73.1855V75.2158H81.583V76.1289H87.6309V76.7412H80.7344V74.6357H86.4814V73.8193H80.7236V73.1855H87.3193ZM87.2871 67.6104V69.5869H81.6475V70.4248H87.459V71.0371H80.8096V69.0068H86.4385V68.2227H80.7773V67.6104H87.2871ZM99.415 67.3311V69.5225H100.865V70.2314H99.415V72.7236H98.5771V67.3311H99.415ZM99.415 73.25V76.7412H93.3672V73.25H99.415ZM94.1943 73.916V76.0537H98.5986V73.916H94.1943ZM93.2598 67.8145V71.2842C94.6187 71.2788 96.0205 71.1714 97.5674 70.8545L97.6748 71.5635C96.0527 71.8857 94.6133 71.9932 93.1738 71.9932H92.4111V67.8145H93.2598ZM109.352 67.3203V76.8701H108.503V67.3203H109.352ZM106.526 68.3623C106.516 71.1123 105.237 73.54 102.036 75.0762L101.574 74.3887C104.158 73.1641 105.474 71.3325 105.667 69.0498H102.015V68.3623H106.526ZM114.379 70.2529C114.379 71.875 115.561 73.5186 116.968 74.1309L116.495 74.7969C115.378 74.2866 114.411 73.1855 113.971 71.8643C113.52 73.2661 112.558 74.4854 111.468 75.0332L110.963 74.3672C112.327 73.7119 113.52 71.9072 113.53 70.2529V69.0068H111.274V68.3086H116.656V69.0068H114.379V70.2529ZM118.837 67.3203V76.8701H117.988V67.3203H118.837ZM125.895 67.8682C127.323 67.8682 128.376 68.7812 128.376 70.0703C128.376 71.3701 127.323 72.2725 125.895 72.2832C124.466 72.2725 123.402 71.3701 123.413 70.0703C123.402 68.7812 124.466 67.8682 125.895 67.8682ZM125.895 68.5771C124.96 68.5771 124.229 69.2109 124.24 70.0703C124.229 70.9512 124.96 71.585 125.895 71.585C126.84 71.585 127.549 70.9512 127.549 70.0703C127.549 69.2109 126.84 68.5771 125.895 68.5771ZM130.696 67.3203V69.4795H132.136V70.1777H130.696V72.1006H129.858V67.3203H130.696ZM125.067 73.1318V75.9141C125.621 75.8979 126.356 75.8174 127.033 75.5918L127.162 76.2686C126.228 76.5801 125.325 76.6123 124.702 76.6123H124.251V73.1318H125.067ZM131.652 73.1748V73.8301H126.829V73.1748H128.838V72.3262H129.665V73.1748H131.652ZM129.235 74.1523C130.277 74.1523 131.019 74.6787 131.029 75.5059C131.019 76.333 130.277 76.8486 129.235 76.8486C128.183 76.8486 127.452 76.333 127.463 75.5059C127.452 74.6787 128.183 74.1523 129.235 74.1523ZM129.235 74.7646C128.645 74.7646 128.215 75.0654 128.215 75.5059C128.215 75.957 128.645 76.2471 129.235 76.2471C129.837 76.2471 130.256 75.957 130.256 75.5059C130.256 75.0654 129.837 74.7646 129.235 74.7646ZM137.088 67.9434C139.086 67.9434 140.579 68.9854 140.579 70.5645C140.579 72.1543 139.086 73.1963 137.088 73.1855C135.09 73.1963 133.597 72.1543 133.597 70.5645C133.597 68.9854 135.09 67.9434 137.088 67.9434ZM137.088 68.6309C135.552 68.6201 134.392 69.4258 134.402 70.5645C134.392 71.7246 135.552 72.498 137.088 72.498C138.613 72.498 139.763 71.7246 139.763 70.5645C139.763 69.4258 138.613 68.6201 137.088 68.6309ZM141.481 74.8936V75.6025H132.737V74.8936H141.481ZM147.078 68.1582V69.0068H149.312V67.3311H150.161V74.3027H149.312V71.7568H147.078V72.6162H142.695V68.1582H147.078ZM143.533 68.8564V71.9395H146.251V68.8564H143.533ZM150.376 75.957V76.666H143.984V73.6797H144.833V75.957H150.376ZM147.078 71.0586H149.312V69.7158H147.078V71.0586ZM161.988 67.3203V69.8125H163.417V70.5215H161.988V73.0244H161.14V67.3203H161.988ZM158.916 73.207C160.86 73.207 162.063 73.8838 162.063 75.0225C162.063 76.1826 160.86 76.8486 158.916 76.8486C156.961 76.8486 155.747 76.1826 155.747 75.0225C155.747 73.8838 156.961 73.207 158.916 73.207ZM158.916 73.9053C157.477 73.8945 156.574 74.3242 156.574 75.0225C156.574 75.7314 157.477 76.1719 158.916 76.1719C160.345 76.1719 161.247 75.7314 161.247 75.0225C161.247 74.3242 160.345 73.8945 158.916 73.9053ZM159.195 68.0508V68.749H155.779V71.5527C157.713 71.542 158.83 71.4829 160.108 71.2197L160.194 71.918C158.862 72.1865 157.713 72.2402 155.693 72.2402H154.952V68.0508H159.195ZM167.273 69.3506C167.273 70.543 168.305 71.5635 169.712 71.9717L169.325 72.6377C168.197 72.3047 167.306 71.5957 166.876 70.6611C166.457 71.6709 165.571 72.4497 164.438 72.8203L164.019 72.165C165.437 71.7354 166.446 70.6182 166.446 69.3506V69.1357H164.287V68.459H166.446V67.2773H167.295V68.459H169.433V69.1357H167.273V69.3506ZM171.936 67.3203V72.9814H171.087V70.7041H169.153V70.0059H171.087V67.3203H171.936ZM171.936 73.4756V76.7412H165.694V73.4756H171.936ZM166.532 74.1631V76.0537H171.108V74.1631H166.532ZM176.759 70.2529C176.748 71.7891 177.854 73.4756 179.24 74.1309L178.757 74.7969C177.683 74.2759 176.775 73.1372 176.351 71.8428C175.91 73.25 174.949 74.4854 173.88 75.0332L173.364 74.3672C174.739 73.7012 175.921 71.8857 175.932 70.2529V69.0068H173.708V68.3086H178.907V69.0068H176.759V70.2529ZM180.916 67.3203V71.1875H182.517V71.9072H180.916V76.8701H180.078V67.3203H180.916ZM189.059 69.125C189.059 70.457 190.025 71.7139 191.422 72.2188L190.949 72.874C189.902 72.4551 189.069 71.6226 188.661 70.5859C188.253 71.7407 187.383 72.6592 186.255 73.1104L185.804 72.4229C187.232 71.8965 188.221 70.5645 188.231 69.0928V67.9111H189.059V69.125ZM193.71 67.3311V74.4854H192.861V70.2852H190.734V69.5762H192.861V67.3311H193.71ZM193.925 75.957V76.666H187.533V73.6689H188.382V75.957H193.925ZM203.217 67.3203V73.0137H202.368V70.5107H200.445V69.8125H202.368V67.3203H203.217ZM200.048 73.3145C202.035 73.3145 203.249 73.959 203.249 75.0869C203.249 76.2148 202.035 76.8594 200.048 76.8701C198.061 76.8594 196.847 76.2148 196.847 75.0869C196.847 73.959 198.061 73.3145 200.048 73.3145ZM200.048 73.9697C198.587 73.9697 197.674 74.3887 197.685 75.0869C197.674 75.7744 198.587 76.1934 200.048 76.1934C201.509 76.1934 202.411 75.7744 202.411 75.0869C202.411 74.3887 201.509 73.9697 200.048 73.9697ZM198.619 69.0713C198.619 70.3174 199.575 71.499 200.972 71.9824L200.531 72.6592C199.457 72.2725 198.625 71.4722 198.222 70.4785C197.803 71.6011 196.917 72.498 195.783 72.9277L195.343 72.251C196.761 71.7354 197.771 70.4463 197.771 69.082V68.7275H195.611V68.0186H200.757V68.7275H198.619V69.0713ZM212.681 67.3203V76.8916H211.832V67.3203H212.681ZM207.6 68.0615C209.018 68.0723 210.038 69.3613 210.038 71.3916C210.038 73.4219 209.018 74.7109 207.6 74.7109C206.171 74.7109 205.161 73.4219 205.161 71.3916C205.161 69.3613 206.171 68.0723 207.6 68.0615ZM207.6 68.8135C206.644 68.8242 205.978 69.834 205.978 71.3916C205.978 72.9492 206.644 73.959 207.6 73.959C208.556 73.959 209.222 72.9492 209.222 71.3916C209.222 69.834 208.556 68.8242 207.6 68.8135ZM219.642 68.0615C220.941 68.0723 221.876 69.1841 222.016 70.9727H224.153V67.3203H224.991V76.8916H224.153V71.6709H222.026C221.924 73.54 220.974 74.7109 219.642 74.7109C218.234 74.7109 217.246 73.4219 217.246 71.3916C217.246 69.3613 218.234 68.0723 219.642 68.0615ZM219.642 68.8135C218.696 68.8242 218.052 69.834 218.052 71.3916C218.052 72.9492 218.696 73.959 219.642 73.959C220.576 73.959 221.231 72.9492 221.231 71.3916C221.231 69.834 220.576 68.8242 219.642 68.8135ZM234.487 67.3203V76.8916H233.649V72.8203H231.662V72.1113H233.649V70.21H231.737V69.501H233.649V67.3203H234.487ZM231.114 68.1904V71.585H227.784V73.9375C229.218 73.9321 230.405 73.8784 231.855 73.6582L231.931 74.3672C230.405 74.6035 229.181 74.6572 227.655 74.6572H226.946V70.8975H230.287V68.8887H226.914V68.1904H231.114ZM240.438 67.4385C242.565 67.4385 243.812 68.0293 243.812 69.0928C243.812 70.167 242.565 70.7471 240.438 70.7578C238.312 70.7471 237.055 70.167 237.055 69.0928C237.055 68.0293 238.312 67.4385 240.438 67.4385ZM240.438 68.083C238.849 68.0938 237.925 68.459 237.936 69.0928C237.925 69.748 238.849 70.1025 240.438 70.1133C242.018 70.1025 242.952 69.748 242.952 69.0928C242.952 68.459 242.018 68.0938 240.438 68.083ZM244.789 71.3916V72.0684H240.847V72.9707H243.672V75.1084H238V76.0967H243.962V76.7627H237.162V74.4854H242.845V73.6152H237.141V72.9707H240.009V72.0684H236.088V71.3916H244.789ZM253.146 68.2119C253.146 69.5547 254.908 70.7256 256.627 70.9619L256.283 71.6494C254.801 71.4023 253.334 70.5806 252.717 69.4043C252.104 70.5859 250.633 71.4023 249.15 71.6494L248.807 70.9619C250.525 70.7256 252.276 69.5762 252.276 68.2119V67.6641H253.146V68.2119ZM257.057 72.7021V73.4111H253.104V76.8701H252.276V73.4111H248.355V72.7021H257.057ZM263.856 73.7334C263.856 74.5767 264.308 75.4736 265.221 75.9893C266.123 75.4253 266.606 74.4746 266.606 73.7334V73.207H267.434V73.7334C267.434 74.7109 268.153 75.6992 269.378 76.1182L268.959 76.7412C268.003 76.4028 267.332 75.7368 267.004 74.9365C266.708 75.71 266.123 76.4404 265.242 76.8164C264.313 76.4619 263.722 75.7583 263.438 74.958C263.099 75.7314 262.438 76.3975 261.525 76.7412L261.096 76.1182C262.299 75.667 263.029 74.6465 263.04 73.7334V73.207H263.856V73.7334ZM268.508 67.3311V72.7881H267.67V67.3311H268.508ZM263.352 67.8896C264.802 67.8896 265.854 68.792 265.854 70.124C265.854 71.4346 264.802 72.3369 263.352 72.3369C261.901 72.3369 260.849 71.4346 260.849 70.124C260.849 68.792 261.901 67.8896 263.352 67.8896ZM263.352 68.6094C262.374 68.5986 261.665 69.2324 261.676 70.124C261.665 71.0049 262.374 71.6279 263.352 71.6387C264.318 71.6279 265.027 71.0049 265.027 70.124C265.027 69.2324 264.318 68.5986 263.352 68.6094ZM272.074 73.0566V74.1738H276.844V73.0566H277.692V76.7412H271.236V73.0566H272.074ZM272.074 76.0645H276.844V74.8398H272.074V76.0645ZM278.831 71.6816V72.3799H270.13V71.6816H278.831ZM274.921 67.8789C274.921 69.0605 276.661 70.1133 278.337 70.3281L278.025 71.0049C276.543 70.7847 275.093 70.0273 274.491 68.9531C273.879 70.0327 272.418 70.7847 270.946 71.0049L270.624 70.3281C272.321 70.1025 274.051 69.0928 274.051 67.8789V67.4277H274.921V67.8789ZM287.511 67.3203V76.8701H286.673V67.3203H287.511ZM281.087 68.2656V73.6797C282.542 73.6743 284.052 73.5562 285.652 73.2178L285.771 73.9375C284.073 74.292 282.559 74.4102 281.033 74.4102H280.26V68.2656H281.087ZM296.534 67.3203V71.1016H298.135V71.8105H296.534V76.8916H295.696V67.3203H296.534ZM294.021 68.2549V68.9531H290.4V73.7871C292.13 73.7871 293.354 73.7065 294.772 73.4434L294.88 74.1738C293.387 74.4424 292.13 74.4961 290.314 74.4961H289.562V68.2549H294.021ZM299.66 76.0645C299.284 76.0645 298.962 75.7529 298.973 75.3662C298.962 74.9902 299.284 74.6787 299.66 74.6787C300.036 74.6787 300.348 74.9902 300.348 75.3662C300.348 75.7529 300.036 76.0645 299.66 76.0645Z" fill="#333333"/>
<path d="M38.1406 93.5078V99.7188H37.0273V98.4414H34.3789V97.5273H37.0273V96.25H34.4844C33.8105 97.9375 32.2344 99.127 29.9609 99.7773L29.5156 98.9102C32 98.1953 33.4531 96.8652 33.6523 95.1719H30.0547V94.2578H34.8594C34.8594 94.6445 34.8184 95.0195 34.7539 95.3711H37.0273V93.5078H38.1406ZM34.6836 99.8359C36.8047 99.8359 38.1992 100.609 38.2109 101.887C38.1992 103.164 36.8047 103.949 34.6836 103.949C32.5273 103.949 31.1445 103.164 31.1445 101.887C31.1445 100.609 32.5273 99.8359 34.6836 99.8359ZM34.6836 100.715C33.1836 100.715 32.2461 101.137 32.2461 101.887C32.2461 102.625 33.1836 103.059 34.6836 103.059C36.1602 103.059 37.0859 102.625 37.0977 101.887C37.0859 101.137 36.1602 100.715 34.6836 100.715ZM49.332 98.5234V99.4141H45.0898V100.539H48.1602V103.867H40.9062V100.539H43.9883V99.4141H39.7578V98.5234H49.332ZM48.4297 93.8242V94.7266H46.9062V96.7305H48.3828V97.6328H40.6836V96.7305H42.1719V94.7266H40.6367V93.8242H48.4297ZM42.0078 101.418V102.965H47.082V101.418H42.0078ZM43.2734 96.7305H45.793V94.7266H43.2734V96.7305ZM61.3086 93.4844V96.625H62.832V97.5625H61.3086V101.207H60.1953V93.4844H61.3086ZM61.7539 102.871V103.773H54.6523V100.398H55.7656V102.871H61.7539ZM56.0117 94.2109C57.5938 94.2109 58.8008 95.2891 58.8125 96.8242C58.8008 98.3477 57.5938 99.4375 56.0117 99.4375C54.4297 99.4375 53.2109 98.3477 53.2227 96.8242C53.2109 95.2891 54.4297 94.2109 56.0117 94.2109ZM56.0117 95.1836C55.0508 95.1836 54.3008 95.8516 54.3125 96.8242C54.3008 97.7969 55.0508 98.4648 56.0117 98.4648C56.9844 98.4648 57.7227 97.7969 57.7227 96.8242C57.7227 95.8516 56.9844 95.1836 56.0117 95.1836ZM72.418 93.4961V103.996H71.3516V98.6172H70.0039V103.457H68.9609V93.707H70.0039V97.7031H71.3516V93.4961H72.418ZM65.0352 94.7383V100.34C66.0078 100.334 67.0684 100.258 68.2578 100.023L68.375 100.996C66.9336 101.254 65.7266 101.324 64.6016 101.324H63.9219V94.7383H65.0352Z" fill="black"/>
<path d="M106.258 94.5273V97.0703H108.52V94.5273H109.375V101.348H105.379V94.5273H106.258ZM106.258 100.586H108.52V97.8203H106.258V100.586ZM113.922 93.5312V103.949H113.031V98.4297H111.578V103.422H110.699V93.7539H111.578V97.668H113.031V93.5312H113.922ZM120.473 94.1406V94.8906H116.746V97.6328C118.785 97.6445 120.016 97.5684 121.445 97.2812L121.562 98.0195C120.074 98.3359 118.797 98.3945 116.652 98.3828H115.844V94.1406H120.473ZM123.508 93.5312V95.7461H125.078V96.5078H123.508V98.793H122.594V93.5312H123.508ZM123.508 99.3086V101.875H117.789V103.059H123.895V103.809H116.887V101.148H122.594V100.059H116.863V99.3086H123.508ZM129.145 94.293C130.785 94.293 131.945 95.2891 131.945 96.7422C131.945 98.1953 130.785 99.1914 129.145 99.1914C127.504 99.1914 126.32 98.1953 126.332 96.7422C126.32 95.2891 127.504 94.293 129.145 94.293ZM129.145 95.1016C128.031 95.1016 127.223 95.7695 127.234 96.7422C127.223 97.7148 128.031 98.3828 129.145 98.3828C130.246 98.3828 131.043 97.7148 131.043 96.7422C131.043 95.7695 130.246 95.1016 129.145 95.1016ZM134.277 93.5312V103.973H133.363V93.5312H134.277ZM125.793 100.891C127.715 100.891 130.363 100.879 132.672 100.539L132.742 101.219C130.363 101.664 127.797 101.676 125.922 101.676L125.793 100.891ZM141.543 94.4453V99.2734H136.656V94.4453H141.543ZM137.559 95.207V98.5352H140.641V95.207H137.559ZM144.707 93.543V101.031H143.793V93.543H144.707ZM145.035 102.836V103.598H137.98V100.305H138.895V102.836H145.035ZM155.125 93.9648V94.7148H151.82C151.832 95.8984 153.602 96.8359 155.441 97.0469L155.102 97.7734C153.396 97.5566 151.797 96.7949 151.223 95.6289C150.654 96.7949 149.061 97.5566 147.355 97.7734L147.016 97.0469C148.844 96.8359 150.602 95.8984 150.625 94.7148H147.344V93.9648H155.125ZM156.004 98.7695V99.5312H146.477V98.7695H150.766V97.1875H151.668V98.7695H156.004ZM154.797 100.562V103.949H153.871V101.312H147.531V100.562H154.797ZM163.34 95.2188C163.34 96.6367 164.418 97.9375 165.93 98.4531L165.426 99.1797C164.271 98.7578 163.363 97.8965 162.906 96.8125C162.461 98.0371 161.535 99.0039 160.316 99.4727L159.824 98.7344C161.383 98.1484 162.426 96.7539 162.438 95.1484V94.0703H163.34V95.2188ZM168.004 93.5312V96.25H169.574V97.0234H168.004V99.8711H167.09V93.5312H168.004ZM164.664 100.141C166.809 100.141 168.098 100.832 168.098 102.027C168.098 103.246 166.809 103.926 164.664 103.926C162.52 103.926 161.207 103.246 161.207 102.027C161.207 100.832 162.52 100.141 164.664 100.141ZM164.664 100.879C163.094 100.879 162.121 101.312 162.133 102.027C162.121 102.766 163.094 103.188 164.664 103.199C166.246 103.188 167.207 102.766 167.207 102.027C167.207 101.312 166.246 100.879 164.664 100.879ZM179.723 98.5703V99.332H175.422V100.562H178.562V103.809H171.391V100.562H174.52V99.332H170.23V98.5703H179.723ZM178.82 93.8711V94.6328H177.215V96.8242H178.785V97.5859H171.156V96.8242H172.727V94.6328H171.121V93.8711H178.82ZM172.305 101.289V103.059H177.66V101.289H172.305ZM173.641 96.8242H176.301V94.6328H173.641V96.8242ZM189.227 93.543V101.418H188.289V99.9531H185.992V99.2031H188.289V93.543H189.227ZM189.484 102.953V103.727H182.09V100.539H183.016V102.953H189.484ZM180.531 97.668C181.867 97.668 183.549 97.6504 185.207 97.5391C185.412 96.3848 185.447 95.5234 185.453 94.9258H181.469V94.1758H186.367V94.5859C186.367 95.1602 186.367 96.1387 186.145 97.457C186.555 97.4277 186.953 97.3809 187.34 97.3281L187.41 97.9961C186.438 98.1602 185.418 98.2598 184.422 98.3242V100.727H183.508V98.3711C182.477 98.418 181.504 98.4297 180.66 98.4297L180.531 97.668ZM197.359 94.5156V103H196.293V95.6172H196.246L194.184 96.9883V95.9219L196.293 94.5156H197.359ZM202.398 103.117C200.512 103.117 199.434 101.535 199.434 98.7578C199.434 96.0039 200.535 94.3984 202.398 94.3984C204.262 94.3984 205.363 96.0039 205.363 98.7578C205.363 101.535 204.273 103.117 202.398 103.117ZM202.398 102.18C203.617 102.18 204.332 100.949 204.332 98.7578C204.332 96.5664 203.617 95.3125 202.398 95.3125C201.18 95.3125 200.453 96.5664 200.453 98.7578C200.453 100.949 201.168 102.18 202.398 102.18ZM207.801 102.215L206.887 105.402H206.02L206.664 102.215H207.801ZM212.031 103.117C210.145 103.117 209.066 101.535 209.066 98.7578C209.066 96.0039 210.168 94.3984 212.031 94.3984C213.895 94.3984 214.996 96.0039 214.996 98.7578C214.996 101.535 213.906 103.117 212.031 103.117ZM212.031 102.18C213.25 102.18 213.965 100.949 213.965 98.7578C213.965 96.5664 213.25 95.3125 212.031 95.3125C210.812 95.3125 210.086 96.5664 210.086 98.7578C210.086 100.949 210.801 102.18 212.031 102.18ZM219.18 103.117C217.293 103.117 216.215 101.535 216.215 98.7578C216.215 96.0039 217.316 94.3984 219.18 94.3984C221.043 94.3984 222.145 96.0039 222.145 98.7578C222.145 101.535 221.055 103.117 219.18 103.117ZM219.18 102.18C220.398 102.18 221.113 100.949 221.113 98.7578C221.113 96.5664 220.398 95.3125 219.18 95.3125C217.961 95.3125 217.234 96.5664 217.234 98.7578C217.234 100.949 217.949 102.18 219.18 102.18ZM226.328 103.117C224.441 103.117 223.363 101.535 223.363 98.7578C223.363 96.0039 224.465 94.3984 226.328 94.3984C228.191 94.3984 229.293 96.0039 229.293 98.7578C229.293 101.535 228.203 103.117 226.328 103.117ZM226.328 102.18C227.547 102.18 228.262 100.949 228.262 98.7578C228.262 96.5664 227.547 95.3125 226.328 95.3125C225.109 95.3125 224.383 96.5664 224.383 98.7578C224.383 100.949 225.098 102.18 226.328 102.18ZM238.914 93.543V101.453H237.988V100.375H235.832V99.707H237.988V93.543H238.914ZM239.172 102.953V103.727H231.766V100.68H232.691V102.953H239.172ZM230.266 98.3711C232.211 98.3594 234.812 98.3477 237.051 98.0664L237.109 98.7344C236.178 98.8809 235.205 98.9746 234.25 99.0273V101.09H233.324V99.0742C232.27 99.1211 231.268 99.127 230.395 99.1211L230.266 98.3711ZM233.688 93.9648C235.211 93.9648 236.254 94.6914 236.266 95.7812C236.254 96.8945 235.211 97.5859 233.688 97.5859C232.152 97.5859 231.109 96.8945 231.109 95.7812C231.109 94.6914 232.152 93.9648 233.688 93.9648ZM233.688 94.668C232.668 94.6562 231.977 95.1133 231.988 95.7812C231.977 96.4609 232.668 96.9062 233.688 96.9062C234.672 96.9062 235.375 96.4609 235.387 95.7812C235.375 95.1133 234.672 94.6562 233.688 94.668ZM249.32 93.543V101.418H248.383V99.9531H246.086V99.2031H248.383V93.543H249.32ZM249.578 102.953V103.727H242.184V100.539H243.109V102.953H249.578ZM240.625 97.668C241.961 97.668 243.643 97.6504 245.301 97.5391C245.506 96.3848 245.541 95.5234 245.547 94.9258H241.562V94.1758H246.461V94.5859C246.461 95.1602 246.461 96.1387 246.238 97.457C246.648 97.4277 247.047 97.3809 247.434 97.3281L247.504 97.9961C246.531 98.1602 245.512 98.2598 244.516 98.3242V100.727H243.602V98.3711C242.57 98.418 241.598 98.4297 240.754 98.4297L240.625 97.668ZM254.723 99.7656C254.734 97.5508 255.332 95.7109 256.41 94.1523H257.301C256.504 95.3125 255.766 97.6797 255.766 99.7656C255.766 101.852 256.504 104.23 257.301 105.391H256.41C255.332 103.82 254.734 101.98 254.723 99.7656ZM267.66 98.9336V99.6953H258.168V98.9336H262.457V97.6328H263.359V98.9336H267.66ZM263.359 93.5078V94.5508H266.699V95.3008H263.418C263.494 96.4551 265.146 97.252 267.098 97.4336L266.816 98.1484C265.088 97.9668 263.547 97.3457 262.914 96.2969C262.275 97.3457 260.729 97.9668 259.012 98.1484L258.719 97.4336C260.67 97.252 262.322 96.4551 262.41 95.3008H259.152V94.5508H262.457V93.5078H263.359ZM262.914 100.48C265.176 100.48 266.488 101.09 266.5 102.203C266.488 103.328 265.176 103.926 262.914 103.926C260.652 103.926 259.316 103.328 259.316 102.203C259.316 101.09 260.652 100.48 262.914 100.48ZM262.914 101.172C261.227 101.172 260.242 101.547 260.254 102.203C260.242 102.859 261.227 103.223 262.914 103.211C264.578 103.223 265.574 102.859 265.574 102.203C265.574 101.547 264.578 101.172 262.914 101.172ZM274.926 94.5156V103H273.859V95.6172H273.812L271.75 96.9883V95.9219L273.859 94.5156H274.926ZM279.965 103.117C278.078 103.117 277 101.535 277 98.7578C277 96.0039 278.102 94.3984 279.965 94.3984C281.828 94.3984 282.93 96.0039 282.93 98.7578C282.93 101.535 281.84 103.117 279.965 103.117ZM279.965 102.18C281.184 102.18 281.898 100.949 281.898 98.7578C281.898 96.5664 281.184 95.3125 279.965 95.3125C278.746 95.3125 278.02 96.5664 278.02 98.7578C278.02 100.949 278.734 102.18 279.965 102.18ZM292.598 93.5312V99.707H291.672V98.0664H289.234V98.957H284.453V94.3281H289.234V95.2305H291.672V93.5312H292.598ZM285.367 95.0781V98.207H288.332V95.0781H285.367ZM289.141 100.012C291.309 100.012 292.633 100.727 292.633 101.98C292.633 103.223 291.309 103.926 289.141 103.926C286.973 103.926 285.648 103.223 285.648 101.98C285.648 100.727 286.973 100.012 289.141 100.012ZM289.141 100.727C287.547 100.738 286.551 101.195 286.562 101.98C286.551 102.73 287.547 103.199 289.141 103.199C290.734 103.199 291.719 102.73 291.719 101.98C291.719 101.195 290.734 100.738 289.141 100.727ZM289.234 97.293H291.672V95.9922H289.234V97.293ZM296.934 99.7656C296.922 101.98 296.324 103.82 295.246 105.391H294.355C295.152 104.23 295.891 101.852 295.891 99.7656C295.891 97.6797 295.152 95.3125 294.355 94.1523H295.246C296.324 95.7109 296.922 97.5508 296.934 99.7656Z" fill="#333333"/>
</svg>
