<svg width="320" height="136" viewBox="0 0 320 136" fill="none" xmlns="http://www.w3.org/2000/svg">
<rect width="320" height="136" rx="10" fill="white" fill-opacity="0.4"/>
<rect x="24" y="29" width="141" height="9" fill="#E2EB91"/>
<path d="M32.2578 25.4414C32.2578 26.8633 33.3652 28.1758 35.2383 28.709L34.6367 29.7207C33.2217 29.3037 32.1758 28.4424 31.6289 27.3281C31.0957 28.5586 30.0225 29.5088 28.5664 29.9531L27.9375 28.9414C29.8105 28.3945 30.9727 26.9863 30.9727 25.4414V25.3184H28.3066V24.2793H30.9727V22.8574H32.2715V24.2793H34.9238V25.3184H32.2578V25.4414ZM37.5898 22.9121V25.9473H39.3672V27.0273H37.5898V30.1445H36.291V22.9121H37.5898ZM37.5898 30.6914V35.0117H29.7695V30.6914H37.5898ZM31.041 31.7168V33.959H36.3047V31.7168H31.041ZM43.3867 23.8281C44.501 23.8281 45.4238 24.4707 45.9707 25.5781H48.9922V22.9121H50.2773V35.1895H48.9922V30.4863H46.0527C45.5264 31.7168 44.5625 32.4277 43.3867 32.4277C41.5547 32.4277 40.2695 30.7598 40.2832 28.1211C40.2695 25.4961 41.5547 23.8281 43.3867 23.8281ZM43.3867 24.9902C42.2793 24.9902 41.5137 26.1934 41.5137 28.1211C41.5137 30.0625 42.2793 31.2656 43.3867 31.2656C44.4941 31.2656 45.2598 30.0625 45.2598 28.1211C45.2598 26.1934 44.4941 24.9902 43.3867 24.9902ZM46.3398 26.6445C46.4287 27.0957 46.4902 27.5879 46.4902 28.1211C46.4902 28.5859 46.4492 29.0166 46.3672 29.4199H48.9922V26.6445H46.3398ZM60.0801 26.0293C60.0664 28.2715 61.4199 30.5137 63.3203 31.3613L62.541 32.3867C61.1328 31.7168 60.0186 30.3428 59.4512 28.668C58.877 30.459 57.749 31.9424 56.2793 32.6602L55.4863 31.5664C57.4141 30.7051 58.7676 28.3672 58.7676 26.0293V23.9375H60.0801V26.0293ZM65.7266 22.9121V35.1895H64.4277V22.9121H65.7266ZM81.0527 23.4453V24.0469C81.0527 24.8262 81.0527 26.0703 80.6973 27.7109L79.4258 27.5605C79.7197 26.2207 79.7676 25.2227 79.7949 24.4844H76.8281V23.4453H81.0527ZM82.2559 28.6543V29.707H71.1133V28.6543H76.2812V26.2891H77.5664V28.6543H82.2559ZM80.875 30.9102V35.0938H79.5488V31.9629H72.3301V30.9102H80.875ZM75.8301 23.4453V23.8965C75.8164 24.6348 75.8164 25.9473 75.2285 27.7246L73.9844 27.5469C74.4219 26.1934 74.5244 25.1885 74.5586 24.4844H72.0566V23.4453H75.8301ZM96.2559 22.9258V26.5625H98.0059V27.6289H96.2559V31.1699H94.957V22.9258H96.2559ZM86.5352 29.8027C87.4854 29.8027 88.5859 29.8027 89.7344 29.7617V28.9414C88.3398 28.7979 87.4512 28.1416 87.4648 27.1504C87.4512 26.0293 88.6133 25.332 90.377 25.3457C92.127 25.332 93.2891 26.0293 93.2891 27.1504C93.2891 28.1348 92.4141 28.791 91.0332 28.9414V29.7207C92.127 29.666 93.2344 29.5771 94.2598 29.4336L94.3691 30.3633C91.7305 30.8281 88.832 30.8418 86.6719 30.8418L86.5352 29.8027ZM96.2559 31.7441V35.1621H94.957V32.7559H88.0664V31.7441H96.2559ZM93.918 23.9648V24.9355H86.8496V23.9648H89.7344V22.8164H91.0332V23.9648H93.918ZM90.377 26.2344C89.3242 26.2207 88.6953 26.5625 88.6953 27.1504C88.6953 27.7246 89.3242 28.0938 90.377 28.0938C91.416 28.0938 92.0449 27.7246 92.0449 27.1504C92.0449 26.5625 91.416 26.2207 90.377 26.2344ZM108.875 22.9258V31.8262H107.576V22.9258H108.875ZM109.244 33.8496V34.9023H100.863V30.9238H102.176V33.8496H109.244ZM102.23 23.7461C104.076 23.7461 105.484 25.0039 105.484 26.7812C105.484 28.5859 104.076 29.8301 102.23 29.8301C100.385 29.8301 98.9629 28.5859 98.9629 26.7812C98.9629 25.0039 100.385 23.7461 102.23 23.7461ZM102.23 24.8809C101.082 24.8809 100.234 25.6602 100.234 26.7812C100.234 27.9297 101.082 28.6953 102.23 28.6953C103.352 28.6953 104.213 27.9297 104.213 26.7812C104.213 25.6602 103.352 24.8809 102.23 24.8809ZM116.873 24.9355V25.9883H110.789V24.9355H113.195V23.2676H114.48V24.9355H116.873ZM113.838 26.7266C115.396 26.7266 116.49 27.8887 116.504 29.543C116.49 31.2109 115.396 32.3867 113.838 32.3867C112.307 32.3867 111.172 31.2109 111.186 29.543C111.172 27.8887 112.307 26.7266 113.838 26.7266ZM113.838 27.8066C112.949 27.8066 112.334 28.5312 112.334 29.543C112.334 30.582 112.949 31.2793 113.838 31.2793C114.713 31.2793 115.355 30.582 115.355 29.543C115.355 28.5312 114.713 27.8066 113.838 27.8066ZM121.303 22.9121V35.1621H120.072V29.0781H118.664V34.5879H117.434V23.1855H118.664V28.0117H120.072V22.9121H121.303ZM134.086 29.8164V30.8691H129.109V35.1484H127.838V30.8691H122.916V29.8164H134.086ZM133.033 23.6367V24.6758H129.246C129.267 26.1934 131.153 27.5469 133.471 27.8613L132.992 28.8867C130.982 28.5723 129.246 27.5811 128.508 26.1797C127.749 27.5811 126.02 28.5723 124.037 28.8867L123.545 27.8613C125.835 27.5469 127.722 26.1934 127.77 24.6758H123.955V23.6367H133.033ZM138.748 26.2617C138.748 28.2168 139.568 30.3086 141.209 31.3066L140.484 32.3047C139.336 31.6143 138.557 30.3906 138.146 28.9688C137.688 30.5273 136.848 31.8535 135.658 32.5781L134.852 31.6074C136.588 30.5684 137.49 28.4082 137.49 26.3164V24.0332H138.748V26.2617ZM145.557 22.9121V35.1621H144.312V22.9121H145.557ZM143.014 23.1445V34.5605H141.783V28.2988H139.883V27.2188H141.783V23.1445H143.014ZM158.326 32.5508V33.6309H147.115V32.5508H149.795V29.3516C148.79 28.7979 148.182 27.916 148.182 26.8223C148.182 24.8945 150.068 23.623 152.693 23.623C155.332 23.623 157.219 24.8945 157.219 26.8223C157.219 27.9023 156.631 28.7705 155.646 29.3242V32.5508H158.326ZM152.693 24.6621C150.766 24.6621 149.439 25.4961 149.439 26.8223C149.439 28.1348 150.766 28.9961 152.693 28.9961C154.607 28.9961 155.961 28.1348 155.961 26.8223C155.961 25.4961 154.607 24.6621 152.693 24.6621ZM151.08 32.5508H154.334V29.8164C153.835 29.9463 153.281 30.0078 152.693 30.0078C152.119 30.0078 151.572 29.9463 151.08 29.8301V32.5508ZM161.471 24.1016L161.348 31.1426H159.994L159.871 24.1016H161.471ZM160.678 34.0957C160.145 34.0957 159.693 33.6582 159.707 33.125C159.693 32.5918 160.145 32.1543 160.678 32.1543C161.197 32.1543 161.648 32.5918 161.648 33.125C161.648 33.6582 161.197 34.0957 160.678 34.0957Z" fill="black"/>
<path d="M29.8545 53.0293V53.4482C29.8438 54.1304 29.8438 55.312 29.543 57.0039C29.9619 56.9771 30.3862 56.9395 30.7998 56.8965L30.8643 57.541C29.8867 57.6646 28.8716 57.7451 27.8779 57.7881V61.3008H27.0293V57.8203C26.1216 57.8579 25.2407 57.8633 24.4404 57.8633L24.3223 57.165C25.6436 57.1489 27.1689 57.1382 28.6836 57.0576C28.8018 56.4775 28.877 55.9565 28.9307 55.4893L25.1172 55.8223L24.9775 55.1025L28.9844 54.877C29.0166 54.4204 29.0273 54.0391 29.0273 53.7275H25.1816V53.0293H29.8545ZM32.3359 52.3203V61.8701H31.498V52.3203H32.3359ZM42.6377 59.8936V60.6025H33.8936V59.8936H42.6377ZM38.6846 54.4258C38.6846 55.9512 40.5752 57.251 42.2188 57.5195L41.875 58.1855C40.4141 57.9009 38.8726 56.9663 38.2656 55.6504C37.6479 56.9771 36.1118 57.9385 34.6777 58.2285L34.3232 57.5518C35.9346 57.2725 37.8145 55.9512 37.8145 54.4258V53.9854H34.6133V53.2871H41.8857V53.9854H38.6846V54.4258ZM54.0781 52.3203V58.0137H53.2295V55.5107H51.3066V54.8125H53.2295V52.3203H54.0781ZM50.9092 58.3145C52.8965 58.3145 54.1104 58.959 54.1104 60.0869C54.1104 61.2148 52.8965 61.8594 50.9092 61.8701C48.9219 61.8594 47.708 61.2148 47.708 60.0869C47.708 58.959 48.9219 58.3145 50.9092 58.3145ZM50.9092 58.9697C49.4482 58.9697 48.5352 59.3887 48.5459 60.0869C48.5352 60.7744 49.4482 61.1934 50.9092 61.1934C52.3701 61.1934 53.2725 60.7744 53.2725 60.0869C53.2725 59.3887 52.3701 58.9697 50.9092 58.9697ZM49.4805 54.0713C49.4805 55.3174 50.4365 56.499 51.833 56.9824L51.3926 57.6592C50.3184 57.2725 49.4858 56.4722 49.083 55.4785C48.6641 56.6011 47.7778 57.498 46.6445 57.9277L46.2041 57.251C47.6221 56.7354 48.6318 55.4463 48.6318 54.082V53.7275H46.4727V53.0186H51.6182V53.7275H49.4805V54.0713ZM63.1338 52.3203V54.5654H64.5732V55.2744H63.1338V57.4121H62.2959V52.3203H63.1338ZM60.3516 52.9541V53.6523H56.957V56.3809C58.8745 56.3809 59.9648 56.3218 61.2432 56.0586L61.3506 56.7568C60.0078 57.0254 58.8691 57.0898 56.8604 57.0898H56.1191V52.9541H60.3516ZM57.9238 57.9277V59.1201H62.2959V57.9277H63.1338V61.709H57.0859V57.9277H57.9238ZM57.9238 61.0107H62.2959V59.7969H57.9238V61.0107ZM76.0996 52.3203V61.8701H75.2939V52.3203H76.0996ZM74.166 52.5566V61.376H73.3711V56.4561H71.7598V55.7686H73.3711V52.5566H74.166ZM70.7393 55.0488C70.7393 56.7031 71.4805 58.3467 72.8018 59.1094L72.2861 59.7324C71.3462 59.1685 70.6802 58.1372 70.3525 56.918C70.0034 58.2339 69.3105 59.3564 68.3545 59.958L67.8174 59.3242C69.1494 58.5293 69.9229 56.7891 69.9229 55.0488V54.1465H68.0859V53.4482H72.4902V54.1465H70.7393V55.0488ZM86.1436 56.5742V57.2295H82.2012V58.1211H85.0264V60.1836H79.3545V61.1182H85.3164V61.7627H78.5166V59.582H84.1992V58.7549H78.4951V58.1211H81.374V57.2295H77.4531V56.5742H86.1436ZM82.2012 52.2666V53.1582H85.2627V53.8242H82.2656C82.4214 54.7749 83.9146 55.3765 85.6709 55.4893L85.4131 56.1338C83.8179 55.9995 82.3784 55.5054 81.793 54.5977C81.2075 55.5054 79.7681 55.9995 78.1621 56.1338L77.915 55.4893C79.6606 55.3765 81.1538 54.7749 81.3203 53.8242H78.3447V53.1582H81.374V52.2666H82.2012ZM97.9062 53.416V54.1143H90.1611V53.416H93.6416V52.2666H94.4688V53.416H97.9062ZM98.4541 58.5078V59.2061H94.4688V61.8916H93.6416V59.2061H89.71V58.5078H98.4541ZM94.0605 54.6621C96.0049 54.6621 97.1758 55.2314 97.1758 56.2627C97.1758 57.2725 96.0049 57.8418 94.0605 57.8525C92.1055 57.8418 90.9346 57.2725 90.9453 56.2627C90.9346 55.2314 92.1055 54.6621 94.0605 54.6621ZM94.0605 55.3066C92.6318 55.3066 91.8047 55.6611 91.8154 56.2627C91.8047 56.8535 92.6318 57.1973 94.0605 57.1973C95.4678 57.1973 96.2949 56.8535 96.3057 56.2627C96.2949 55.6611 95.4678 55.3066 94.0605 55.3066ZM110.228 53.3193V54.1357H102.396V53.3193H105.823V52.2451H106.833V53.3193H110.228ZM110.754 58.4434V59.2705H108.53V61.9238H107.499V59.2705H105.179V61.9238H104.158V59.2705H101.945V58.4434H110.754ZM106.328 54.6299C108.326 54.6299 109.529 55.1992 109.529 56.2412C109.529 57.2725 108.326 57.8525 106.328 57.8525C104.319 57.8525 103.116 57.2725 103.127 56.2412C103.116 55.1992 104.319 54.6299 106.328 54.6299ZM106.328 55.4033C104.942 55.4141 104.18 55.6934 104.18 56.2412C104.18 56.7783 104.942 57.0684 106.328 57.0684C107.703 57.0684 108.466 56.7783 108.477 56.2412C108.466 55.6934 107.703 55.4141 106.328 55.4033ZM119.713 52.2881V61.9131H118.735V56.9395H117.489V61.4189H116.555V52.4814H117.489V56.1016H118.735V52.2881H119.713ZM115.384 53.4482V54.2754H112.795V58.7334C113.977 58.7227 114.868 58.6689 115.899 58.4756L115.975 59.3135C114.814 59.5498 113.826 59.5928 112.419 59.6035H111.774V53.4482H115.384ZM128.908 52.6963V53.5342H127.512V55.5537H128.865V56.3594H125.847V57.4443H129.735V58.2607H120.959V57.4443H124.837V56.3594H121.808V55.5537H123.172V53.5342H121.765V52.6963H128.908ZM128.747 60.8818V61.709H122.065V59.0342H123.097V60.8818H128.747ZM124.182 55.5537H126.491V53.5342H124.182V55.5537ZM141.176 52.2988V59.4102H140.155V55.7793H138.05V57.8096H133.613V52.9326H134.634V54.5654H137.04V52.9326H138.05V54.9521H140.155V52.2988H141.176ZM141.391 60.8818V61.709H134.892V58.7119H135.923V60.8818H141.391ZM134.634 56.9824H137.04V55.3496H134.634V56.9824ZM150.994 53.6416V54.4688H143.077V53.6416H146.536V52.4277H147.546V53.6416H150.994ZM151.467 60.001V60.8281H142.658V60.001H146.536V58.7227C144.85 58.6206 143.829 57.9546 143.829 56.8857C143.829 55.7256 145.054 55.0488 147.041 55.0488C149.007 55.0488 150.242 55.7256 150.242 56.8857C150.242 57.9546 149.216 58.6206 147.546 58.7227V60.001H151.467ZM147.041 55.8545C145.666 55.8545 144.86 56.2197 144.871 56.8857C144.86 57.5518 145.666 57.917 147.041 57.9277C148.395 57.917 149.2 57.5518 149.2 56.8857C149.2 56.2197 148.395 55.8545 147.041 55.8545ZM160.931 56.7568V57.4229H152.187V56.7568H160.931ZM159.835 58.1855V60.2158H154.099V61.1289H160.146V61.7412H153.25V59.6357H158.997V58.8193H153.239V58.1855H159.835ZM159.803 52.6104V54.5869H154.163V55.4248H159.975V56.0371H153.325V54.0068H158.954V53.2227H153.293V52.6104H159.803ZM172.382 52.3203V58.0137H171.533V55.5107H169.61V54.8125H171.533V52.3203H172.382ZM169.213 58.3145C171.2 58.3145 172.414 58.959 172.414 60.0869C172.414 61.2148 171.2 61.8594 169.213 61.8701C167.226 61.8594 166.012 61.2148 166.012 60.0869C166.012 58.959 167.226 58.3145 169.213 58.3145ZM169.213 58.9697C167.752 58.9697 166.839 59.3887 166.85 60.0869C166.839 60.7744 167.752 61.1934 169.213 61.1934C170.674 61.1934 171.576 60.7744 171.576 60.0869C171.576 59.3887 170.674 58.9697 169.213 58.9697ZM167.784 54.0713C167.784 55.3174 168.74 56.499 170.137 56.9824L169.696 57.6592C168.622 57.2725 167.79 56.4722 167.387 55.4785C166.968 56.6011 166.082 57.498 164.948 57.9277L164.508 57.251C165.926 56.7354 166.936 55.4463 166.936 54.082V53.7275H164.776V53.0186H169.922V53.7275H167.784V54.0713ZM181.427 52.3311V55.2207H182.855V55.9297H181.427V58.7334H180.578V52.3311H181.427ZM173.929 57.7559C174.691 57.7559 175.583 57.7559 176.518 57.7236V57.0254C175.406 56.9287 174.691 56.4077 174.691 55.6182C174.691 54.748 175.583 54.2109 176.926 54.2109C178.279 54.2109 179.16 54.748 179.171 55.6182C179.16 56.4023 178.462 56.9233 177.355 57.0254V57.6914C178.247 57.6484 179.149 57.5786 179.987 57.4551L180.062 58.0674C177.989 58.4326 175.701 58.4434 174.025 58.4434L173.929 57.7559ZM181.427 59.2061V61.8701H180.578V59.8828H175.1V59.2061H181.427ZM179.697 53.2012V53.8457H174.165V53.2012H176.518V52.2451H177.355V53.2012H179.697ZM176.926 54.8125C176.045 54.8018 175.497 55.1133 175.497 55.6182C175.497 56.1123 176.045 56.4561 176.926 56.4453C177.807 56.4561 178.365 56.1123 178.365 55.6182C178.365 55.1133 177.807 54.8018 176.926 54.8125ZM190.869 52.3203V56.2627H192.47V56.9609H190.869V61.8701H190.031V52.3203H190.869ZM189.107 53.8564V54.5547H183.425V53.8564H185.885V52.4385H186.723V53.8564H189.107ZM186.314 55.3496C187.668 55.3496 188.646 56.252 188.656 57.541C188.646 58.8301 187.668 59.7324 186.314 59.7324C184.95 59.7324 183.962 58.8301 183.973 57.541C183.962 56.252 184.95 55.3496 186.314 55.3496ZM186.314 56.0586C185.423 56.0586 184.768 56.6816 184.778 57.541C184.768 58.4111 185.423 59.0234 186.314 59.0127C187.195 59.0234 187.84 58.4111 187.851 57.541C187.84 56.6816 187.195 56.0586 186.314 56.0586ZM201.16 52.3203V61.8701H200.354V52.3203H201.16ZM199.151 52.5781V61.3867H198.346V56.9287H196.326C195.741 58.0405 194.822 59.0234 193.49 59.8076L192.996 59.1953C195.075 57.9653 196.117 56.2412 196.272 54.2432H193.404V53.5449H197.11C197.105 54.4849 196.955 55.3926 196.638 56.2412H198.346V52.5781H199.151ZM212.719 52.3311V54.5225H214.169V55.2314H212.719V57.7236H211.881V52.3311H212.719ZM212.719 58.25V61.7412H206.671V58.25H212.719ZM207.498 58.916V61.0537H211.902V58.916H207.498ZM206.563 52.8145V56.2842C207.922 56.2788 209.324 56.1714 210.871 55.8545L210.979 56.5635C209.356 56.8857 207.917 56.9932 206.478 56.9932H205.715V52.8145H206.563ZM219.604 53.3623C219.604 53.9048 219.556 54.4365 219.454 54.9521H221.828V52.3096H222.666V61.8701H221.828V58.1963H219.132V57.498H221.828V55.6396H219.282C218.729 57.4121 217.467 58.9697 215.211 60.0654L214.771 59.3779C217.316 58.1479 218.579 56.3057 218.756 54.0498H215.189V53.3623H219.604ZM229.09 53.6738C229.079 54.9521 230.787 56.0371 232.452 56.2842L232.141 56.9502C230.647 56.6978 229.197 55.9028 228.617 54.748C228.037 55.9028 226.582 56.6978 225.115 56.9502L224.782 56.2842C226.437 56.0371 228.145 54.9521 228.145 53.6738V53.6094H225.083V52.9219H232.141V53.6094H229.09V53.6738ZM232.968 57.7666V58.4648H229.015V61.8701H228.188V58.4648H224.267V57.7666H232.968ZM236.609 55.0381C236.609 56.5527 237.351 58.1963 238.618 58.9482L238.135 59.6035C237.216 59.0449 236.556 58.0244 236.223 56.8643C235.868 58.1318 235.159 59.2222 234.203 59.8076L233.666 59.1738C234.987 58.4004 235.793 56.7031 235.793 55.0703V53.2227H236.609V55.0381ZM241.959 52.3203V61.8701H241.143V52.3203H241.959ZM239.982 52.5244V61.3867H239.188V56.4668H237.565V55.7471H239.188V52.5244H239.982ZM252.024 59.9365V60.6455H243.28V59.9365H245.45V57.3584C244.634 56.9341 244.14 56.2466 244.14 55.3818C244.14 53.8994 245.59 52.9326 247.631 52.9219C249.672 52.9326 251.122 53.8994 251.122 55.3818C251.122 56.2305 250.644 56.9126 249.854 57.3369V59.9365H252.024ZM247.631 53.6201C246.062 53.6094 244.956 54.3184 244.956 55.3818C244.956 56.4453 246.062 57.165 247.631 57.165C249.188 57.165 250.306 56.4453 250.306 55.3818C250.306 54.3184 249.188 53.6094 247.631 53.6201ZM246.277 59.9365H249.006V57.6592C248.592 57.772 248.13 57.8311 247.631 57.8311C247.142 57.8311 246.686 57.7773 246.277 57.6699V59.9365ZM253.797 61.0645C253.421 61.0645 253.099 60.7529 253.109 60.3662C253.099 59.9902 253.421 59.6787 253.797 59.6787C254.173 59.6787 254.484 59.9902 254.484 60.3662C254.484 60.7529 254.173 61.0645 253.797 61.0645ZM32.583 71.3838V72.0713H24.8379V71.3838H28.3184V70.2666H29.1455V71.3838H32.583ZM33.1309 76.4219V77.1201H30.8213V79.8916H29.9834V77.1201H27.5127V79.8916H26.6641V77.1201H24.3867V76.4219H33.1309ZM28.7373 72.6191C30.6816 72.6191 31.8525 73.1777 31.8525 74.1982C31.8525 75.208 30.6816 75.7773 28.7373 75.7773C26.7822 75.7773 25.6113 75.208 25.6221 74.1982C25.6113 73.1777 26.7822 72.6191 28.7373 72.6191ZM28.7373 73.2637C27.3086 73.2744 26.4814 73.6074 26.4922 74.1982C26.4814 74.7891 27.3086 75.1221 28.7373 75.1221C30.1445 75.1221 30.9717 74.7891 30.9824 74.1982C30.9717 73.6074 30.1445 73.2744 28.7373 73.2637ZM42.0576 70.3203V79.8701H41.252V74.8643H39.8447V79.376H39.0713V70.5352H39.8447V74.166H41.252V70.3203H42.0576ZM37.8252 71.4912V72.1895H35.0859V76.7871C36.4019 76.7817 37.3149 76.7334 38.373 76.5186L38.4482 77.2275C37.2988 77.4639 36.3213 77.5068 34.8604 77.5068H34.248V71.4912H37.8252ZM51.2744 70.7607V71.459H49.8027V73.6504H51.2422V74.3271H48.1699V75.498H52.1016V76.1855H43.4004V75.498H47.332V74.3271H44.249V73.6504H45.6885V71.459H44.2168V70.7607H51.2744ZM51.1348 78.957V79.666H44.5283V77.0234H45.377V78.957H51.1348ZM46.5264 73.6504H48.9648V71.459H46.5264V73.6504ZM63.585 70.3311V77.3994H62.7363V73.7256H60.4805V75.7666H56.1514V70.9648H56.9893V72.6621H59.6533V70.9648H60.4805V73.0166H62.7363V70.3311H63.585ZM63.7998 78.957V79.666H57.4082V76.7012H58.2568V78.957H63.7998ZM56.9893 75.0684H59.6533V73.3281H56.9893V75.0684ZM73.4248 71.7383V72.4365H65.6045V71.7383H69.1064V70.4814H69.9336V71.7383H73.4248ZM73.9189 78.0547V78.7529H65.1748V78.0547H69.1064V76.7119C67.4092 76.6206 66.3779 75.96 66.3887 74.8857C66.3779 73.7471 67.5811 73.0811 69.5254 73.0918C71.4482 73.0811 72.6621 73.7471 72.6621 74.8857C72.6621 75.96 71.6201 76.6206 69.9336 76.7119V78.0547H73.9189ZM69.5254 73.7578C68.0967 73.7578 67.2266 74.1768 67.2373 74.8857C67.2266 75.6162 68.0967 76.0244 69.5254 76.0352C70.9326 76.0244 71.8027 75.6162 71.8027 74.8857C71.8027 74.1768 70.9326 73.7578 69.5254 73.7578ZM83.415 74.7568V75.4229H74.6709V74.7568H83.415ZM82.3193 76.1855V78.2158H76.583V79.1289H82.6309V79.7412H75.7344V77.6357H81.4814V76.8193H75.7236V76.1855H82.3193ZM82.2871 70.6104V72.5869H76.6475V73.4248H82.459V74.0371H75.8096V72.0068H81.4385V71.2227H75.7773V70.6104H82.2871ZM94.415 70.3311V72.5225H95.8652V73.2314H94.415V75.7236H93.5771V70.3311H94.415ZM94.415 76.25V79.7412H88.3672V76.25H94.415ZM89.1943 76.916V79.0537H93.5986V76.916H89.1943ZM88.2598 70.8145V74.2842C89.6187 74.2788 91.0205 74.1714 92.5674 73.8545L92.6748 74.5635C91.0527 74.8857 89.6133 74.9932 88.1738 74.9932H87.4111V70.8145H88.2598ZM104.352 70.3203V79.8701H103.503V70.3203H104.352ZM101.526 71.3623C101.516 74.1123 100.237 76.54 97.0361 78.0762L96.5742 77.3887C99.1577 76.1641 100.474 74.3325 100.667 72.0498H97.0146V71.3623H101.526ZM109.379 73.2529C109.379 74.875 110.561 76.5186 111.968 77.1309L111.495 77.7969C110.378 77.2866 109.411 76.1855 108.971 74.8643C108.52 76.2661 107.558 77.4854 106.468 78.0332L105.963 77.3672C107.327 76.7119 108.52 74.9072 108.53 73.2529V72.0068H106.274V71.3086H111.656V72.0068H109.379V73.2529ZM113.837 70.3203V79.8701H112.988V70.3203H113.837ZM120.895 70.8682C122.323 70.8682 123.376 71.7812 123.376 73.0703C123.376 74.3701 122.323 75.2725 120.895 75.2832C119.466 75.2725 118.402 74.3701 118.413 73.0703C118.402 71.7812 119.466 70.8682 120.895 70.8682ZM120.895 71.5771C119.96 71.5771 119.229 72.2109 119.24 73.0703C119.229 73.9512 119.96 74.585 120.895 74.585C121.84 74.585 122.549 73.9512 122.549 73.0703C122.549 72.2109 121.84 71.5771 120.895 71.5771ZM125.696 70.3203V72.4795H127.136V73.1777H125.696V75.1006H124.858V70.3203H125.696ZM120.067 76.1318V78.9141C120.621 78.8979 121.356 78.8174 122.033 78.5918L122.162 79.2686C121.228 79.5801 120.325 79.6123 119.702 79.6123H119.251V76.1318H120.067ZM126.652 76.1748V76.8301H121.829V76.1748H123.838V75.3262H124.665V76.1748H126.652ZM124.235 77.1523C125.277 77.1523 126.019 77.6787 126.029 78.5059C126.019 79.333 125.277 79.8486 124.235 79.8486C123.183 79.8486 122.452 79.333 122.463 78.5059C122.452 77.6787 123.183 77.1523 124.235 77.1523ZM124.235 77.7646C123.645 77.7646 123.215 78.0654 123.215 78.5059C123.215 78.957 123.645 79.2471 124.235 79.2471C124.837 79.2471 125.256 78.957 125.256 78.5059C125.256 78.0654 124.837 77.7646 124.235 77.7646ZM132.088 70.9434C134.086 70.9434 135.579 71.9854 135.579 73.5645C135.579 75.1543 134.086 76.1963 132.088 76.1855C130.09 76.1963 128.597 75.1543 128.597 73.5645C128.597 71.9854 130.09 70.9434 132.088 70.9434ZM132.088 71.6309C130.552 71.6201 129.392 72.4258 129.402 73.5645C129.392 74.7246 130.552 75.498 132.088 75.498C133.613 75.498 134.763 74.7246 134.763 73.5645C134.763 72.4258 133.613 71.6201 132.088 71.6309ZM136.481 77.8936V78.6025H127.737V77.8936H136.481ZM142.078 71.1582V72.0068H144.312V70.3311H145.161V77.3027H144.312V74.7568H142.078V75.6162H137.695V71.1582H142.078ZM138.533 71.8564V74.9395H141.251V71.8564H138.533ZM145.376 78.957V79.666H138.984V76.6797H139.833V78.957H145.376ZM142.078 74.0586H144.312V72.7158H142.078V74.0586ZM156.988 70.3203V72.8125H158.417V73.5215H156.988V76.0244H156.14V70.3203H156.988ZM153.916 76.207C155.86 76.207 157.063 76.8838 157.063 78.0225C157.063 79.1826 155.86 79.8486 153.916 79.8486C151.961 79.8486 150.747 79.1826 150.747 78.0225C150.747 76.8838 151.961 76.207 153.916 76.207ZM153.916 76.9053C152.477 76.8945 151.574 77.3242 151.574 78.0225C151.574 78.7314 152.477 79.1719 153.916 79.1719C155.345 79.1719 156.247 78.7314 156.247 78.0225C156.247 77.3242 155.345 76.8945 153.916 76.9053ZM154.195 71.0508V71.749H150.779V74.5527C152.713 74.542 153.83 74.4829 155.108 74.2197L155.194 74.918C153.862 75.1865 152.713 75.2402 150.693 75.2402H149.952V71.0508H154.195ZM162.273 72.3506C162.273 73.543 163.305 74.5635 164.712 74.9717L164.325 75.6377C163.197 75.3047 162.306 74.5957 161.876 73.6611C161.457 74.6709 160.571 75.4497 159.438 75.8203L159.019 75.165C160.437 74.7354 161.446 73.6182 161.446 72.3506V72.1357H159.287V71.459H161.446V70.2773H162.295V71.459H164.433V72.1357H162.273V72.3506ZM166.936 70.3203V75.9814H166.087V73.7041H164.153V73.0059H166.087V70.3203H166.936ZM166.936 76.4756V79.7412H160.694V76.4756H166.936ZM161.532 77.1631V79.0537H166.108V77.1631H161.532ZM171.759 73.2529C171.748 74.7891 172.854 76.4756 174.24 77.1309L173.757 77.7969C172.683 77.2759 171.775 76.1372 171.351 74.8428C170.91 76.25 169.949 77.4854 168.88 78.0332L168.364 77.3672C169.739 76.7012 170.921 74.8857 170.932 73.2529V72.0068H168.708V71.3086H173.907V72.0068H171.759V73.2529ZM175.916 70.3203V74.1875H177.517V74.9072H175.916V79.8701H175.078V70.3203H175.916ZM184.059 72.125C184.059 73.457 185.025 74.7139 186.422 75.2188L185.949 75.874C184.902 75.4551 184.069 74.6226 183.661 73.5859C183.253 74.7407 182.383 75.6592 181.255 76.1104L180.804 75.4229C182.232 74.8965 183.221 73.5645 183.231 72.0928V70.9111H184.059V72.125ZM188.71 70.3311V77.4854H187.861V73.2852H185.734V72.5762H187.861V70.3311H188.71ZM188.925 78.957V79.666H182.533V76.6689H183.382V78.957H188.925ZM198.217 70.3203V76.0137H197.368V73.5107H195.445V72.8125H197.368V70.3203H198.217ZM195.048 76.3145C197.035 76.3145 198.249 76.959 198.249 78.0869C198.249 79.2148 197.035 79.8594 195.048 79.8701C193.061 79.8594 191.847 79.2148 191.847 78.0869C191.847 76.959 193.061 76.3145 195.048 76.3145ZM195.048 76.9697C193.587 76.9697 192.674 77.3887 192.685 78.0869C192.674 78.7744 193.587 79.1934 195.048 79.1934C196.509 79.1934 197.411 78.7744 197.411 78.0869C197.411 77.3887 196.509 76.9697 195.048 76.9697ZM193.619 72.0713C193.619 73.3174 194.575 74.499 195.972 74.9824L195.531 75.6592C194.457 75.2725 193.625 74.4722 193.222 73.4785C192.803 74.6011 191.917 75.498 190.783 75.9277L190.343 75.251C191.761 74.7354 192.771 73.4463 192.771 72.082V71.7275H190.611V71.0186H195.757V71.7275H193.619V72.0713ZM207.681 70.3203V79.8916H206.832V70.3203H207.681ZM202.6 71.0615C204.018 71.0723 205.038 72.3613 205.038 74.3916C205.038 76.4219 204.018 77.7109 202.6 77.7109C201.171 77.7109 200.161 76.4219 200.161 74.3916C200.161 72.3613 201.171 71.0723 202.6 71.0615ZM202.6 71.8135C201.644 71.8242 200.978 72.834 200.978 74.3916C200.978 75.9492 201.644 76.959 202.6 76.959C203.556 76.959 204.222 75.9492 204.222 74.3916C204.222 72.834 203.556 71.8242 202.6 71.8135ZM214.642 71.0615C215.941 71.0723 216.876 72.1841 217.016 73.9727H219.153V70.3203H219.991V79.8916H219.153V74.6709H217.026C216.924 76.54 215.974 77.7109 214.642 77.7109C213.234 77.7109 212.246 76.4219 212.246 74.3916C212.246 72.3613 213.234 71.0723 214.642 71.0615ZM214.642 71.8135C213.696 71.8242 213.052 72.834 213.052 74.3916C213.052 75.9492 213.696 76.959 214.642 76.959C215.576 76.959 216.231 75.9492 216.231 74.3916C216.231 72.834 215.576 71.8242 214.642 71.8135ZM229.487 70.3203V79.8916H228.649V75.8203H226.662V75.1113H228.649V73.21H226.737V72.501H228.649V70.3203H229.487ZM226.114 71.1904V74.585H222.784V76.9375C224.218 76.9321 225.405 76.8784 226.855 76.6582L226.931 77.3672C225.405 77.6035 224.181 77.6572 222.655 77.6572H221.946V73.8975H225.287V71.8887H221.914V71.1904H226.114ZM235.438 70.4385C237.565 70.4385 238.812 71.0293 238.812 72.0928C238.812 73.167 237.565 73.7471 235.438 73.7578C233.312 73.7471 232.055 73.167 232.055 72.0928C232.055 71.0293 233.312 70.4385 235.438 70.4385ZM235.438 71.083C233.849 71.0938 232.925 71.459 232.936 72.0928C232.925 72.748 233.849 73.1025 235.438 73.1133C237.018 73.1025 237.952 72.748 237.952 72.0928C237.952 71.459 237.018 71.0938 235.438 71.083ZM239.789 74.3916V75.0684H235.847V75.9707H238.672V78.1084H233V79.0967H238.962V79.7627H232.162V77.4854H237.845V76.6152H232.141V75.9707H235.009V75.0684H231.088V74.3916H239.789ZM248.146 71.2119C248.146 72.5547 249.908 73.7256 251.627 73.9619L251.283 74.6494C249.801 74.4023 248.334 73.5806 247.717 72.4043C247.104 73.5859 245.633 74.4023 244.15 74.6494L243.807 73.9619C245.525 73.7256 247.276 72.5762 247.276 71.2119V70.6641H248.146V71.2119ZM252.057 75.7021V76.4111H248.104V79.8701H247.276V76.4111H243.355V75.7021H252.057ZM258.856 76.7334C258.856 77.5767 259.308 78.4736 260.221 78.9893C261.123 78.4253 261.606 77.4746 261.606 76.7334V76.207H262.434V76.7334C262.434 77.7109 263.153 78.6992 264.378 79.1182L263.959 79.7412C263.003 79.4028 262.332 78.7368 262.004 77.9365C261.708 78.71 261.123 79.4404 260.242 79.8164C259.313 79.4619 258.722 78.7583 258.438 77.958C258.099 78.7314 257.438 79.3975 256.525 79.7412L256.096 79.1182C257.299 78.667 258.029 77.6465 258.04 76.7334V76.207H258.856V76.7334ZM263.508 70.3311V75.7881H262.67V70.3311H263.508ZM258.352 70.8896C259.802 70.8896 260.854 71.792 260.854 73.124C260.854 74.4346 259.802 75.3369 258.352 75.3369C256.901 75.3369 255.849 74.4346 255.849 73.124C255.849 71.792 256.901 70.8896 258.352 70.8896ZM258.352 71.6094C257.374 71.5986 256.665 72.2324 256.676 73.124C256.665 74.0049 257.374 74.6279 258.352 74.6387C259.318 74.6279 260.027 74.0049 260.027 73.124C260.027 72.2324 259.318 71.5986 258.352 71.6094ZM267.074 76.0566V77.1738H271.844V76.0566H272.692V79.7412H266.236V76.0566H267.074ZM267.074 79.0645H271.844V77.8398H267.074V79.0645ZM273.831 74.6816V75.3799H265.13V74.6816H273.831ZM269.921 70.8789C269.921 72.0605 271.661 73.1133 273.337 73.3281L273.025 74.0049C271.543 73.7847 270.093 73.0273 269.491 71.9531C268.879 73.0327 267.418 73.7847 265.946 74.0049L265.624 73.3281C267.321 73.1025 269.051 72.0928 269.051 70.8789V70.4277H269.921V70.8789ZM282.511 70.3203V79.8701H281.673V70.3203H282.511ZM276.087 71.2656V76.6797C277.542 76.6743 279.052 76.5562 280.652 76.2178L280.771 76.9375C279.073 77.292 277.559 77.4102 276.033 77.4102H275.26V71.2656H276.087ZM291.534 70.3203V74.1016H293.135V74.8105H291.534V79.8916H290.696V70.3203H291.534ZM289.021 71.2549V71.9531H285.4V76.7871C287.13 76.7871 288.354 76.7065 289.772 76.4434L289.88 77.1738C288.387 77.4424 287.13 77.4961 285.314 77.4961H284.562V71.2549H289.021ZM294.66 79.0645C294.284 79.0645 293.962 78.7529 293.973 78.3662C293.962 77.9902 294.284 77.6787 294.66 77.6787C295.036 77.6787 295.348 77.9902 295.348 78.3662C295.348 78.7529 295.036 79.0645 294.66 79.0645Z" fill="#333333"/>
<path d="M33.1406 99.5078V105.719H32.0273V104.441H29.3789V103.527H32.0273V102.25H29.4844C28.8105 103.938 27.2344 105.127 24.9609 105.777L24.5156 104.91C27 104.195 28.4531 102.865 28.6523 101.172H25.0547V100.258H29.8594C29.8594 100.645 29.8184 101.02 29.7539 101.371H32.0273V99.5078H33.1406ZM29.6836 105.836C31.8047 105.836 33.1992 106.609 33.2109 107.887C33.1992 109.164 31.8047 109.949 29.6836 109.949C27.5273 109.949 26.1445 109.164 26.1445 107.887C26.1445 106.609 27.5273 105.836 29.6836 105.836ZM29.6836 106.715C28.1836 106.715 27.2461 107.137 27.2461 107.887C27.2461 108.625 28.1836 109.059 29.6836 109.059C31.1602 109.059 32.0859 108.625 32.0977 107.887C32.0859 107.137 31.1602 106.715 29.6836 106.715ZM44.332 104.523V105.414H40.0898V106.539H43.1602V109.867H35.9062V106.539H38.9883V105.414H34.7578V104.523H44.332ZM43.4297 99.8242V100.727H41.9062V102.73H43.3828V103.633H35.6836V102.73H37.1719V100.727H35.6367V99.8242H43.4297ZM37.0078 107.418V108.965H42.082V107.418H37.0078ZM38.2734 102.73H40.793V100.727H38.2734V102.73ZM56.3086 99.4844V102.625H57.832V103.562H56.3086V107.207H55.1953V99.4844H56.3086ZM56.7539 108.871V109.773H49.6523V106.398H50.7656V108.871H56.7539ZM51.0117 100.211C52.5938 100.211 53.8008 101.289 53.8125 102.824C53.8008 104.348 52.5938 105.438 51.0117 105.438C49.4297 105.438 48.2109 104.348 48.2227 102.824C48.2109 101.289 49.4297 100.211 51.0117 100.211ZM51.0117 101.184C50.0508 101.184 49.3008 101.852 49.3125 102.824C49.3008 103.797 50.0508 104.465 51.0117 104.465C51.9844 104.465 52.7227 103.797 52.7227 102.824C52.7227 101.852 51.9844 101.184 51.0117 101.184ZM67.418 99.4961V109.996H66.3516V104.617H65.0039V109.457H63.9609V99.707H65.0039V103.703H66.3516V99.4961H67.418ZM60.0352 100.738V106.34C61.0078 106.334 62.0684 106.258 63.2578 106.023L63.375 106.996C61.9336 107.254 60.7266 107.324 59.6016 107.324H58.9219V100.738H60.0352Z" fill="black"/>
<path d="M101.258 100.527V103.07H103.52V100.527H104.375V107.348H100.379V100.527H101.258ZM101.258 106.586H103.52V103.82H101.258V106.586ZM108.922 99.5312V109.949H108.031V104.43H106.578V109.422H105.699V99.7539H106.578V103.668H108.031V99.5312H108.922ZM115.473 100.141V100.891H111.746V103.633C113.785 103.645 115.016 103.568 116.445 103.281L116.562 104.02C115.074 104.336 113.797 104.395 111.652 104.383H110.844V100.141H115.473ZM118.508 99.5312V101.746H120.078V102.508H118.508V104.793H117.594V99.5312H118.508ZM118.508 105.309V107.875H112.789V109.059H118.895V109.809H111.887V107.148H117.594V106.059H111.863V105.309H118.508ZM124.145 100.293C125.785 100.293 126.945 101.289 126.945 102.742C126.945 104.195 125.785 105.191 124.145 105.191C122.504 105.191 121.32 104.195 121.332 102.742C121.32 101.289 122.504 100.293 124.145 100.293ZM124.145 101.102C123.031 101.102 122.223 101.77 122.234 102.742C122.223 103.715 123.031 104.383 124.145 104.383C125.246 104.383 126.043 103.715 126.043 102.742C126.043 101.77 125.246 101.102 124.145 101.102ZM129.277 99.5312V109.973H128.363V99.5312H129.277ZM120.793 106.891C122.715 106.891 125.363 106.879 127.672 106.539L127.742 107.219C125.363 107.664 122.797 107.676 120.922 107.676L120.793 106.891ZM136.543 100.445V105.273H131.656V100.445H136.543ZM132.559 101.207V104.535H135.641V101.207H132.559ZM139.707 99.543V107.031H138.793V99.543H139.707ZM140.035 108.836V109.598H132.98V106.305H133.895V108.836H140.035ZM150.125 99.9648V100.715H146.82C146.832 101.898 148.602 102.836 150.441 103.047L150.102 103.773C148.396 103.557 146.797 102.795 146.223 101.629C145.654 102.795 144.061 103.557 142.355 103.773L142.016 103.047C143.844 102.836 145.602 101.898 145.625 100.715H142.344V99.9648H150.125ZM151.004 104.77V105.531H141.477V104.77H145.766V103.188H146.668V104.77H151.004ZM149.797 106.562V109.949H148.871V107.312H142.531V106.562H149.797ZM158.34 101.219C158.34 102.637 159.418 103.938 160.93 104.453L160.426 105.18C159.271 104.758 158.363 103.896 157.906 102.812C157.461 104.037 156.535 105.004 155.316 105.473L154.824 104.734C156.383 104.148 157.426 102.754 157.438 101.148V100.07H158.34V101.219ZM163.004 99.5312V102.25H164.574V103.023H163.004V105.871H162.09V99.5312H163.004ZM159.664 106.141C161.809 106.141 163.098 106.832 163.098 108.027C163.098 109.246 161.809 109.926 159.664 109.926C157.52 109.926 156.207 109.246 156.207 108.027C156.207 106.832 157.52 106.141 159.664 106.141ZM159.664 106.879C158.094 106.879 157.121 107.312 157.133 108.027C157.121 108.766 158.094 109.188 159.664 109.199C161.246 109.188 162.207 108.766 162.207 108.027C162.207 107.312 161.246 106.879 159.664 106.879ZM174.723 104.57V105.332H170.422V106.562H173.562V109.809H166.391V106.562H169.52V105.332H165.23V104.57H174.723ZM173.82 99.8711V100.633H172.215V102.824H173.785V103.586H166.156V102.824H167.727V100.633H166.121V99.8711H173.82ZM167.305 107.289V109.059H172.66V107.289H167.305ZM168.641 102.824H171.301V100.633H168.641V102.824ZM184.227 99.543V107.418H183.289V105.953H180.992V105.203H183.289V99.543H184.227ZM184.484 108.953V109.727H177.09V106.539H178.016V108.953H184.484ZM175.531 103.668C176.867 103.668 178.549 103.65 180.207 103.539C180.412 102.385 180.447 101.523 180.453 100.926H176.469V100.176H181.367V100.586C181.367 101.16 181.367 102.139 181.145 103.457C181.555 103.428 181.953 103.381 182.34 103.328L182.41 103.996C181.438 104.16 180.418 104.26 179.422 104.324V106.727H178.508V104.371C177.477 104.418 176.504 104.43 175.66 104.43L175.531 103.668ZM192.359 100.516V109H191.293V101.617H191.246L189.184 102.988V101.922L191.293 100.516H192.359ZM197.398 109.117C195.512 109.117 194.434 107.535 194.434 104.758C194.434 102.004 195.535 100.398 197.398 100.398C199.262 100.398 200.363 102.004 200.363 104.758C200.363 107.535 199.273 109.117 197.398 109.117ZM197.398 108.18C198.617 108.18 199.332 106.949 199.332 104.758C199.332 102.566 198.617 101.312 197.398 101.312C196.18 101.312 195.453 102.566 195.453 104.758C195.453 106.949 196.168 108.18 197.398 108.18ZM202.801 108.215L201.887 111.402H201.02L201.664 108.215H202.801ZM207.031 109.117C205.145 109.117 204.066 107.535 204.066 104.758C204.066 102.004 205.168 100.398 207.031 100.398C208.895 100.398 209.996 102.004 209.996 104.758C209.996 107.535 208.906 109.117 207.031 109.117ZM207.031 108.18C208.25 108.18 208.965 106.949 208.965 104.758C208.965 102.566 208.25 101.312 207.031 101.312C205.812 101.312 205.086 102.566 205.086 104.758C205.086 106.949 205.801 108.18 207.031 108.18ZM214.18 109.117C212.293 109.117 211.215 107.535 211.215 104.758C211.215 102.004 212.316 100.398 214.18 100.398C216.043 100.398 217.145 102.004 217.145 104.758C217.145 107.535 216.055 109.117 214.18 109.117ZM214.18 108.18C215.398 108.18 216.113 106.949 216.113 104.758C216.113 102.566 215.398 101.312 214.18 101.312C212.961 101.312 212.234 102.566 212.234 104.758C212.234 106.949 212.949 108.18 214.18 108.18ZM221.328 109.117C219.441 109.117 218.363 107.535 218.363 104.758C218.363 102.004 219.465 100.398 221.328 100.398C223.191 100.398 224.293 102.004 224.293 104.758C224.293 107.535 223.203 109.117 221.328 109.117ZM221.328 108.18C222.547 108.18 223.262 106.949 223.262 104.758C223.262 102.566 222.547 101.312 221.328 101.312C220.109 101.312 219.383 102.566 219.383 104.758C219.383 106.949 220.098 108.18 221.328 108.18ZM233.914 99.543V107.453H232.988V106.375H230.832V105.707H232.988V99.543H233.914ZM234.172 108.953V109.727H226.766V106.68H227.691V108.953H234.172ZM225.266 104.371C227.211 104.359 229.812 104.348 232.051 104.066L232.109 104.734C231.178 104.881 230.205 104.975 229.25 105.027V107.09H228.324V105.074C227.27 105.121 226.268 105.127 225.395 105.121L225.266 104.371ZM228.688 99.9648C230.211 99.9648 231.254 100.691 231.266 101.781C231.254 102.895 230.211 103.586 228.688 103.586C227.152 103.586 226.109 102.895 226.109 101.781C226.109 100.691 227.152 99.9648 228.688 99.9648ZM228.688 100.668C227.668 100.656 226.977 101.113 226.988 101.781C226.977 102.461 227.668 102.906 228.688 102.906C229.672 102.906 230.375 102.461 230.387 101.781C230.375 101.113 229.672 100.656 228.688 100.668ZM244.32 99.543V107.418H243.383V105.953H241.086V105.203H243.383V99.543H244.32ZM244.578 108.953V109.727H237.184V106.539H238.109V108.953H244.578ZM235.625 103.668C236.961 103.668 238.643 103.65 240.301 103.539C240.506 102.385 240.541 101.523 240.547 100.926H236.562V100.176H241.461V100.586C241.461 101.16 241.461 102.139 241.238 103.457C241.648 103.428 242.047 103.381 242.434 103.328L242.504 103.996C241.531 104.16 240.512 104.26 239.516 104.324V106.727H238.602V104.371C237.57 104.418 236.598 104.43 235.754 104.43L235.625 103.668ZM249.723 105.766C249.734 103.551 250.332 101.711 251.41 100.152H252.301C251.504 101.312 250.766 103.68 250.766 105.766C250.766 107.852 251.504 110.23 252.301 111.391H251.41C250.332 109.82 249.734 107.98 249.723 105.766ZM262.66 104.934V105.695H253.168V104.934H257.457V103.633H258.359V104.934H262.66ZM258.359 99.5078V100.551H261.699V101.301H258.418C258.494 102.455 260.146 103.252 262.098 103.434L261.816 104.148C260.088 103.967 258.547 103.346 257.914 102.297C257.275 103.346 255.729 103.967 254.012 104.148L253.719 103.434C255.67 103.252 257.322 102.455 257.41 101.301H254.152V100.551H257.457V99.5078H258.359ZM257.914 106.48C260.176 106.48 261.488 107.09 261.5 108.203C261.488 109.328 260.176 109.926 257.914 109.926C255.652 109.926 254.316 109.328 254.316 108.203C254.316 107.09 255.652 106.48 257.914 106.48ZM257.914 107.172C256.227 107.172 255.242 107.547 255.254 108.203C255.242 108.859 256.227 109.223 257.914 109.211C259.578 109.223 260.574 108.859 260.574 108.203C260.574 107.547 259.578 107.172 257.914 107.172ZM269.926 100.516V109H268.859V101.617H268.812L266.75 102.988V101.922L268.859 100.516H269.926ZM274.965 109.117C273.078 109.117 272 107.535 272 104.758C272 102.004 273.102 100.398 274.965 100.398C276.828 100.398 277.93 102.004 277.93 104.758C277.93 107.535 276.84 109.117 274.965 109.117ZM274.965 108.18C276.184 108.18 276.898 106.949 276.898 104.758C276.898 102.566 276.184 101.312 274.965 101.312C273.746 101.312 273.02 102.566 273.02 104.758C273.02 106.949 273.734 108.18 274.965 108.18ZM287.598 99.5312V105.707H286.672V104.066H284.234V104.957H279.453V100.328H284.234V101.23H286.672V99.5312H287.598ZM280.367 101.078V104.207H283.332V101.078H280.367ZM284.141 106.012C286.309 106.012 287.633 106.727 287.633 107.98C287.633 109.223 286.309 109.926 284.141 109.926C281.973 109.926 280.648 109.223 280.648 107.98C280.648 106.727 281.973 106.012 284.141 106.012ZM284.141 106.727C282.547 106.738 281.551 107.195 281.562 107.98C281.551 108.73 282.547 109.199 284.141 109.199C285.734 109.199 286.719 108.73 286.719 107.98C286.719 107.195 285.734 106.738 284.141 106.727ZM284.234 103.293H286.672V101.992H284.234V103.293ZM291.934 105.766C291.922 107.98 291.324 109.82 290.246 111.391H289.355C290.152 110.23 290.891 107.852 290.891 105.766C290.891 103.68 290.152 101.312 289.355 100.152H290.246C291.324 101.711 291.922 103.551 291.934 105.766Z" fill="#333333"/>
</svg>
