<svg width="340" height="337" viewBox="0 0 340 337" fill="none" xmlns="http://www.w3.org/2000/svg">
<rect x="0.5" y="0.5" width="339" height="336" rx="4.5" fill="#ECF6FF"/>
<rect x="0.5" y="0.5" width="339" height="336" rx="4.5" stroke="#3C5E9B"/>
<path d="M74.7474 82.774C75.5407 82.774 75.9374 83.148 75.9374 83.896V93.246C75.9374 94.0393 75.6087 94.5833 74.9514 94.878C73.6594 95.49 71.9594 95.796 69.8514 95.796C66.4287 95.796 63.7201 94.8553 61.7254 92.974C59.7307 91.0927 58.7334 88.2027 58.7334 84.304C58.7334 81.652 59.2094 79.3967 60.1614 77.538C61.1134 75.6567 62.4054 74.24 64.0374 73.288C65.6921 72.336 67.5621 71.86 69.6474 71.86C70.8261 71.86 71.9254 72.0187 72.9454 72.336C73.9881 72.6307 74.8041 73.016 75.3934 73.492C75.6427 73.696 75.7674 73.9113 75.7674 74.138C75.7674 74.206 75.7221 74.3533 75.6314 74.58L74.2034 77.266C73.5461 76.8127 72.8434 76.484 72.0954 76.28C71.3701 76.076 70.5541 75.974 69.6474 75.974C67.6754 75.974 66.1227 76.6993 64.9894 78.15C63.8787 79.578 63.3234 81.6293 63.3234 84.304C63.3234 86.4347 63.7767 88.146 64.6834 89.438C65.5901 90.73 66.8481 91.5007 68.4574 91.75C68.8654 91.818 69.2961 91.852 69.7494 91.852C70.5427 91.852 71.2454 91.7613 71.8574 91.58V86.616H69.2054C68.3894 86.616 67.9814 86.2307 67.9814 85.46V82.774H74.7474ZM90.3789 78.354C90.6962 78.5127 90.8549 78.7393 90.8549 79.034C90.8549 79.1247 90.8322 79.238 90.7869 79.374L89.7669 82.502C89.0869 82.1847 88.3389 82.026 87.5229 82.026C86.0949 82.026 84.8936 82.7287 83.9189 84.134V93.076C83.9189 94.0507 83.7036 94.742 83.2729 95.15C82.8649 95.5353 82.0489 95.728 80.8249 95.728H79.4989V78.082H82.3209C83.0689 78.082 83.4429 78.4333 83.4429 79.136V80.156C84.0322 79.34 84.7122 78.7393 85.4829 78.354C86.2536 77.946 87.0129 77.742 87.7609 77.742C88.2596 77.742 88.7016 77.7987 89.0869 77.912C89.4722 78.0027 89.9029 78.15 90.3789 78.354ZM106.973 86.888C106.973 88.8827 106.633 90.5713 105.953 91.954C105.295 93.314 104.377 94.334 103.199 95.014C102.02 95.694 100.694 96.034 99.2205 96.034C96.8858 96.034 95.0045 95.252 93.5765 93.688C92.1712 92.124 91.4685 89.8573 91.4685 86.888C91.4685 83.9187 92.1712 81.6633 93.5765 80.122C95.0045 78.558 96.8858 77.776 99.2205 77.776C100.717 77.776 102.043 78.116 103.199 78.796C104.377 79.476 105.295 80.496 105.953 81.856C106.633 83.216 106.973 84.8933 106.973 86.888ZM102.553 86.888C102.553 85.188 102.258 83.896 101.669 83.012C101.079 82.1053 100.263 81.652 99.2205 81.652C98.1552 81.652 97.3278 82.094 96.7385 82.978C96.1718 83.862 95.8885 85.1653 95.8885 86.888C95.8885 88.6107 96.1718 89.9253 96.7385 90.832C97.3278 91.716 98.1552 92.158 99.2205 92.158C100.263 92.158 101.079 91.7047 101.669 90.798C102.258 89.8913 102.553 88.588 102.553 86.888ZM129.433 78.082C130.136 78.082 130.453 78.422 130.385 79.102C130.204 81.2327 129.819 83.6353 129.229 86.31C128.663 88.9847 127.926 91.6027 127.019 94.164C126.815 94.776 126.577 95.1953 126.305 95.422C126.033 95.626 125.603 95.728 125.013 95.728H121.715L119.641 85.63C118.848 89.4153 118.077 92.294 117.329 94.266C117.103 94.81 116.831 95.1953 116.513 95.422C116.196 95.626 115.731 95.728 115.119 95.728H111.957L107.945 78.082H111.345C112.071 78.082 112.501 78.388 112.637 79L114.847 90.39C115.822 87.6473 116.547 84.3153 117.023 80.394H120.661C121.047 80.394 121.33 80.462 121.511 80.598C121.715 80.734 121.863 80.9607 121.953 81.278L124.061 90.39C125.059 86.99 125.773 82.8873 126.203 78.082H129.433ZM162.703 78.082C163.405 78.082 163.723 78.422 163.655 79.102C163.473 81.2327 163.088 83.6353 162.499 86.31C161.932 88.9847 161.195 91.6027 160.289 94.164C160.085 94.776 159.847 95.1953 159.575 95.422C159.303 95.626 158.872 95.728 158.283 95.728H154.985L152.911 85.63C152.117 89.4153 151.347 92.294 150.599 94.266C150.372 94.81 150.1 95.1953 149.783 95.422C149.465 95.626 149.001 95.728 148.389 95.728H145.227L141.215 78.082H144.615C145.34 78.082 145.771 78.388 145.907 79L148.117 90.39C149.091 87.6473 149.817 84.3153 150.293 80.394H153.931C154.316 80.394 154.599 80.462 154.781 80.598C154.985 80.734 155.132 80.9607 155.223 81.278L157.331 90.39C158.328 86.99 159.042 82.8873 159.473 78.082H162.703ZM165.687 71.656C166.004 71.4067 166.401 71.2253 166.877 71.112C167.376 70.976 167.863 70.908 168.339 70.908C168.815 70.908 169.246 70.976 169.631 71.112C170.062 71.2707 170.39 71.5427 170.617 71.928C170.844 72.2907 170.957 72.744 170.957 73.288C170.957 74.0587 170.685 74.9767 170.141 76.042H166.231L165.687 71.656ZM169.427 77.912C170.175 77.912 170.549 78.2633 170.549 78.966V92.94C170.549 93.9147 170.368 94.5947 170.005 94.98C169.642 95.3653 168.917 95.558 167.829 95.558H166.129V77.912H169.427ZM185.205 93.994C185.273 94.13 185.307 94.266 185.307 94.402C185.307 94.742 185.092 95.014 184.661 95.218C183.777 95.694 182.701 95.932 181.431 95.932C179.731 95.932 178.383 95.5013 177.385 94.64C176.411 93.756 175.923 92.4073 175.923 90.594V81.992H174.155C173.43 81.992 173.067 81.6407 173.067 80.938V77.946H175.923V72.608H179.255C179.981 72.608 180.343 72.9707 180.343 73.696V77.946H182.995C183.743 77.946 184.117 78.3087 184.117 79.034V81.992H180.343V89.574C180.343 90.322 180.468 90.8547 180.717 91.172C180.989 91.4667 181.42 91.614 182.009 91.614C182.644 91.614 183.324 91.4327 184.049 91.07L185.205 93.994ZM195.843 77.572C197.452 77.572 198.778 78.1273 199.821 79.238C200.886 80.326 201.419 81.8787 201.419 83.896V92.94C201.419 93.892 201.203 94.572 200.773 94.98C200.342 95.3653 199.526 95.558 198.325 95.558H196.999V84.746C196.999 83.726 196.761 82.9667 196.285 82.468C195.831 81.9693 195.185 81.72 194.347 81.72C193.803 81.72 193.293 81.856 192.817 82.128C192.363 82.3773 192.012 82.7173 191.763 83.148V92.94C191.763 93.892 191.559 94.572 191.151 94.98C190.743 95.3653 189.938 95.558 188.737 95.558H187.343V70.908H190.675C191.4 70.908 191.763 71.2707 191.763 71.996V79.272C192.987 78.1387 194.347 77.572 195.843 77.572Z" fill="black"/>
<path d="M220.055 72.166C221.551 72.166 222.866 72.472 223.999 73.084C225.133 73.696 226.005 74.5573 226.617 75.668C227.229 76.7787 227.535 78.0707 227.535 79.544C227.535 81.0627 227.195 82.3773 226.515 83.488C225.858 84.5987 224.963 85.4487 223.829 86.038C222.696 86.6273 221.438 86.922 220.055 86.922H217.199V92.906C217.199 93.8807 216.984 94.572 216.553 94.98C216.123 95.388 215.295 95.592 214.071 95.592H212.643V72.166H220.055ZM219.851 82.842C220.894 82.842 221.699 82.5473 222.265 81.958C222.832 81.3687 223.115 80.564 223.115 79.544C223.115 78.524 222.832 77.7307 222.265 77.164C221.699 76.5747 220.894 76.28 219.851 76.28H217.063V82.842H219.851ZM242.565 95.286C241.817 95.5807 241.103 95.7847 240.423 95.898C239.743 95.9887 238.972 96.034 238.111 96.034C235.255 96.034 232.988 95.3313 231.311 93.926C229.634 92.498 228.795 90.1633 228.795 86.922C228.795 84.882 229.135 83.182 229.815 81.822C230.495 80.4393 231.413 79.4193 232.569 78.762C233.725 78.1047 235.04 77.776 236.513 77.776C237.76 77.776 238.893 78.0367 239.913 78.558C240.956 79.0793 241.772 79.8273 242.361 80.802C242.95 81.7767 243.245 82.91 243.245 84.202C243.245 85.63 242.86 86.7407 242.089 87.534C241.318 88.3047 240.072 88.7127 238.349 88.758L233.181 88.894C233.181 89.8687 233.646 90.6733 234.575 91.308C235.504 91.92 236.694 92.226 238.145 92.226C239.709 92.226 241.16 91.988 242.497 91.512L243.109 94.334C243.132 94.402 243.143 94.4927 243.143 94.606C243.143 94.9007 242.95 95.1273 242.565 95.286ZM239.335 83.964C239.335 83.2613 239.086 82.672 238.587 82.196C238.088 81.6973 237.42 81.448 236.581 81.448C235.516 81.448 234.677 81.7993 234.065 82.502C233.476 83.2047 233.181 84.202 233.181 85.494L237.975 85.426C238.428 85.426 238.768 85.3127 238.995 85.086C239.222 84.8367 239.335 84.4627 239.335 83.964ZM262.163 94.164C262.299 94.368 262.367 94.5607 262.367 94.742C262.367 94.9687 262.288 95.1727 262.129 95.354C261.993 95.5127 261.801 95.592 261.551 95.592H257.505L250.399 85.222V92.906C250.399 93.5633 250.32 94.0847 250.161 94.47C250.025 94.8327 249.742 95.116 249.311 95.32C248.881 95.5013 248.246 95.592 247.407 95.592H245.979V72.166H249.175C249.991 72.166 250.399 72.5513 250.399 73.322V81.38L256.825 72.166H260.939C261.166 72.166 261.347 72.234 261.483 72.37C261.619 72.4833 261.687 72.6307 261.687 72.812C261.687 72.9933 261.619 73.1747 261.483 73.356L254.547 83.318L262.163 94.164ZM281.282 83.964C281.282 87.84 280.454 90.798 278.8 92.838C277.168 94.878 274.776 95.898 271.626 95.898C268.475 95.898 266.072 94.878 264.418 92.838C262.786 90.798 261.97 87.84 261.97 83.964C261.97 81.2667 262.378 79.0227 263.194 77.232C264.032 75.4187 265.166 74.07 266.594 73.186C268.044 72.302 269.722 71.86 271.626 71.86C273.53 71.86 275.196 72.302 276.624 73.186C278.074 74.07 279.208 75.4187 280.024 77.232C280.862 79.0227 281.282 81.2667 281.282 83.964ZM276.658 83.998C276.658 78.7847 274.98 76.178 271.626 76.178C268.271 76.178 266.594 78.7847 266.594 83.998C266.594 89.0527 268.271 91.58 271.626 91.58C274.98 91.58 276.658 89.0527 276.658 83.998Z" fill="#00B0EB"/>
<path d="M5 0.5H335C337.485 0.500003 339.5 2.51472 339.5 5V21.5H0.5V5C0.5 2.51472 2.51472 0.5 5 0.5Z" fill="#B3E7F6"/>
<path d="M5 0.5H335C337.485 0.500003 339.5 2.51472 339.5 5V21.5H0.5V5C0.5 2.51472 2.51472 0.5 5 0.5Z" stroke="#3C5E9B"/>
<line x1="31.5" y1="15.5" x2="23.5" y2="15.5" stroke="#3C5E9B" stroke-linecap="round"/>
<rect x="38.5" y="7.5" width="8" height="8" stroke="#3C5E9B"/>
<path d="M13.5 11.5L18 16M13.5 11.5L9 7M13.5 11.5L9 16M13.5 11.5L18 7" stroke="#3C5E9B" stroke-linecap="round" stroke-linejoin="round"/>
<line x1="57.45" y1="6.05" x2="329.55" y2="6.05" stroke="#90C3EB" stroke-width="0.9" stroke-linecap="round"/>
<line x1="57.45" y1="10.55" x2="329.55" y2="10.55" stroke="#90C3EB" stroke-width="0.9" stroke-linecap="round"/>
<line x1="57.45" y1="15.05" x2="329.55" y2="15.05" stroke="#90C3EB" stroke-width="0.9" stroke-linecap="round"/>
<mask id="path-10-inside-1_149_35" fill="white">
<path d="M42 138H298V162H42V138Z"/>
</mask>
<path d="M42 162V162.5H43V162V161.5H42V162ZM45 162V162.5H47V162V161.5H45V162ZM49 162V162.5H51V162V161.5H49V162ZM53 162V162.5H55V162V161.5H53V162ZM57 162V162.5H59V162V161.5H57V162ZM61 162V162.5H63V162V161.5H61V162ZM65 162V162.5H67V162V161.5H65V162ZM69 162V162.5H71V162V161.5H69V162ZM73 162V162.5H75V162V161.5H73V162ZM77 162V162.5H79V162V161.5H77V162ZM81 162V162.5H83V162V161.5H81V162ZM85 162V162.5H87V162V161.5H85V162ZM89 162V162.5H91V162V161.5H89V162ZM93 162V162.5H95V162V161.5H93V162ZM97 162V162.5H99V162V161.5H97V162ZM101 162V162.5H103V162V161.5H101V162ZM105 162V162.5H107V162V161.5H105V162ZM109 162V162.5H111V162V161.5H109V162ZM113 162V162.5H115V162V161.5H113V162ZM117 162V162.5H119V162V161.5H117V162ZM121 162V162.5H123V162V161.5H121V162ZM125 162V162.5H127V162V161.5H125V162ZM129 162V162.5H131V162V161.5H129V162ZM133 162V162.5H135V162V161.5H133V162ZM137 162V162.5H139V162V161.5H137V162ZM141 162V162.5H143V162V161.5H141V162ZM145 162V162.5H147V162V161.5H145V162ZM149 162V162.5H151V162V161.5H149V162ZM153 162V162.5H155V162V161.5H153V162ZM157 162V162.5H159V162V161.5H157V162ZM161 162V162.5H163V162V161.5H161V162ZM165 162V162.5H167V162V161.5H165V162ZM169 162V162.5H171V162V161.5H169V162ZM173 162V162.5H175V162V161.5H173V162ZM177 162V162.5H179V162V161.5H177V162ZM181 162V162.5H183V162V161.5H181V162ZM185 162V162.5H187V162V161.5H185V162ZM189 162V162.5H191V162V161.5H189V162ZM193 162V162.5H195V162V161.5H193V162ZM197 162V162.5H199V162V161.5H197V162ZM201 162V162.5H203V162V161.5H201V162ZM205 162V162.5H207V162V161.5H205V162ZM209 162V162.5H211V162V161.5H209V162ZM213 162V162.5H215V162V161.5H213V162ZM217 162V162.5H219V162V161.5H217V162ZM221 162V162.5H223V162V161.5H221V162ZM225 162V162.5H227V162V161.5H225V162ZM229 162V162.5H231V162V161.5H229V162ZM233 162V162.5H235V162V161.5H233V162ZM237 162V162.5H239V162V161.5H237V162ZM241 162V162.5H243V162V161.5H241V162ZM245 162V162.5H247V162V161.5H245V162ZM249 162V162.5H251V162V161.5H249V162ZM253 162V162.5H255V162V161.5H253V162ZM257 162V162.5H259V162V161.5H257V162ZM261 162V162.5H263V162V161.5H261V162ZM265 162V162.5H267V162V161.5H265V162ZM269 162V162.5H271V162V161.5H269V162ZM273 162V162.5H275V162V161.5H273V162ZM277 162V162.5H279V162V161.5H277V162ZM281 162V162.5H283V162V161.5H281V162ZM285 162V162.5H287V162V161.5H285V162ZM289 162V162.5H291V162V161.5H289V162ZM293 162V162.5H295V162V161.5H293V162ZM297 162V162.5H298V162V161.5H297V162ZM42 162V163H43V162V161H42V162ZM45 162V163H47V162V161H45V162ZM49 162V163H51V162V161H49V162ZM53 162V163H55V162V161H53V162ZM57 162V163H59V162V161H57V162ZM61 162V163H63V162V161H61V162ZM65 162V163H67V162V161H65V162ZM69 162V163H71V162V161H69V162ZM73 162V163H75V162V161H73V162ZM77 162V163H79V162V161H77V162ZM81 162V163H83V162V161H81V162ZM85 162V163H87V162V161H85V162ZM89 162V163H91V162V161H89V162ZM93 162V163H95V162V161H93V162ZM97 162V163H99V162V161H97V162ZM101 162V163H103V162V161H101V162ZM105 162V163H107V162V161H105V162ZM109 162V163H111V162V161H109V162ZM113 162V163H115V162V161H113V162ZM117 162V163H119V162V161H117V162ZM121 162V163H123V162V161H121V162ZM125 162V163H127V162V161H125V162ZM129 162V163H131V162V161H129V162ZM133 162V163H135V162V161H133V162ZM137 162V163H139V162V161H137V162ZM141 162V163H143V162V161H141V162ZM145 162V163H147V162V161H145V162ZM149 162V163H151V162V161H149V162ZM153 162V163H155V162V161H153V162ZM157 162V163H159V162V161H157V162ZM161 162V163H163V162V161H161V162ZM165 162V163H167V162V161H165V162ZM169 162V163H171V162V161H169V162ZM173 162V163H175V162V161H173V162ZM177 162V163H179V162V161H177V162ZM181 162V163H183V162V161H181V162ZM185 162V163H187V162V161H185V162ZM189 162V163H191V162V161H189V162ZM193 162V163H195V162V161H193V162ZM197 162V163H199V162V161H197V162ZM201 162V163H203V162V161H201V162ZM205 162V163H207V162V161H205V162ZM209 162V163H211V162V161H209V162ZM213 162V163H215V162V161H213V162ZM217 162V163H219V162V161H217V162ZM221 162V163H223V162V161H221V162ZM225 162V163H227V162V161H225V162ZM229 162V163H231V162V161H229V162ZM233 162V163H235V162V161H233V162ZM237 162V163H239V162V161H237V162ZM241 162V163H243V162V161H241V162ZM245 162V163H247V162V161H245V162ZM249 162V163H251V162V161H249V162ZM253 162V163H255V162V161H253V162ZM257 162V163H259V162V161H257V162ZM261 162V163H263V162V161H261V162ZM265 162V163H267V162V161H265V162ZM269 162V163H271V162V161H269V162ZM273 162V163H275V162V161H273V162ZM277 162V163H279V162V161H277V162ZM281 162V163H283V162V161H281V162ZM285 162V163H287V162V161H285V162ZM289 162V163H291V162V161H289V162ZM293 162V163H295V162V161H293V162ZM297 162V163H298V162V161H297V162Z" fill="#E5E5E5" mask="url(#path-10-inside-1_149_35)"/>
<path d="M53.2402 147.496C53.2402 149.148 54.0488 150.941 55.4316 151.762L54.9043 152.477C53.9023 151.867 53.1816 150.754 52.8184 149.488C52.4316 150.871 51.6582 152.061 50.6152 152.699L50.0293 152.008C51.4707 151.164 52.3496 149.312 52.3496 147.531V145.516H53.2402V147.496ZM59.0762 144.531V154.949H58.1855V144.531H59.0762ZM56.9199 144.754V154.422H56.0527V149.055H54.2832V148.27H56.0527V144.754H56.9199ZM63.998 146.219C63.998 147.637 65.0762 148.938 66.5879 149.453L66.084 150.18C64.9297 149.758 64.0215 148.896 63.5645 147.812C63.1191 149.037 62.1934 150.004 60.9746 150.473L60.4824 149.734C62.041 149.148 63.084 147.754 63.0957 146.148V145.07H63.998V146.219ZM68.6621 144.531V147.25H70.2324V148.023H68.6621V150.871H67.748V144.531H68.6621ZM65.3223 151.141C67.4668 151.141 68.7559 151.832 68.7559 153.027C68.7559 154.246 67.4668 154.926 65.3223 154.926C63.1777 154.926 61.8652 154.246 61.8652 153.027C61.8652 151.832 63.1777 151.141 65.3223 151.141ZM65.3223 151.879C63.752 151.879 62.7793 152.312 62.791 153.027C62.7793 153.766 63.752 154.188 65.3223 154.199C66.9043 154.188 67.8652 153.766 67.8652 153.027C67.8652 152.312 66.9043 151.879 65.3223 151.879ZM75.6348 144.719C77.9551 144.719 79.3145 145.352 79.3145 146.512C79.3145 147.695 77.9551 148.328 75.6348 148.34C73.3145 148.328 71.9434 147.695 71.9434 146.512C71.9434 145.352 73.3145 144.719 75.6348 144.719ZM75.6348 145.41C73.9004 145.41 72.8926 145.832 72.9043 146.512C72.8926 147.238 73.9004 147.637 75.6348 147.637C77.3574 147.637 78.377 147.238 78.377 146.512C78.377 145.832 77.3574 145.41 75.6348 145.41ZM80.3809 149.043V149.793H70.8887V149.043H80.3809ZM79.1621 150.695V153.027H72.9746V154.105H79.4785V154.832H72.0605V152.348H78.2598V151.398H72.0371V150.695H79.1621ZM92.334 144.531V148.633H94.0801V149.43H92.334V154.949H91.4199V144.531H92.334ZM85.6191 145.422V148.176H88.666V145.422H89.5801V152.453H84.7051V145.422H85.6191ZM85.6191 151.68H88.666V148.914H85.6191V151.68ZM104.135 149.594V150.367H99.834V154.961H98.9199V150.367H94.6426V149.594H97.3848C97.8066 147.994 97.8828 146.787 97.9121 146.02H95.4043V145.27H98.8027V145.586C98.8027 146.248 98.8027 147.619 98.3223 149.594H101.744C102.107 147.971 102.148 146.793 102.154 146.02H99.5762V145.27H103.068V145.727C103.068 146.441 103.068 147.73 102.682 149.594H104.135ZM113.439 147.695V148.434H106.303V144.918H107.217V147.695H113.439ZM114.541 149.852V150.602H105.002V149.852H114.541ZM113.498 153.93V154.691H106.244V151.668H107.158V153.93H113.498ZM124.244 145.328V146.09H123.178V149.418C123.664 149.389 124.133 149.348 124.584 149.289L124.631 149.992C122.604 150.309 120.225 150.332 118.537 150.332L118.42 149.559L119.768 149.547V146.09H118.713V145.328H124.244ZM127.033 144.531V150.965H126.107V149.031H124.35V148.27H126.107V147.168H124.35V146.406H126.107V144.531H127.033ZM123.576 151.188C125.756 151.188 127.068 151.867 127.068 153.051C127.068 154.246 125.756 154.926 123.576 154.926C121.396 154.926 120.084 154.246 120.084 153.051C120.084 151.867 121.396 151.188 123.576 151.188ZM123.576 151.902C121.971 151.902 120.986 152.336 120.998 153.051C120.986 153.777 121.971 154.199 123.576 154.199C125.182 154.199 126.154 153.777 126.154 153.051C126.154 152.336 125.182 151.902 123.576 151.902ZM120.658 149.535C121.191 149.523 121.742 149.506 122.287 149.477V146.09H120.658V149.535ZM136.854 144.531V148.973H138.518V149.746H136.854V154.949H135.928V144.531H136.854ZM128.639 152.172C129.488 152.172 130.479 152.172 131.51 152.137V150.977C130.297 150.842 129.506 150.133 129.518 149.102C129.506 147.93 130.502 147.168 131.979 147.168C133.432 147.168 134.439 147.93 134.451 149.102C134.439 150.133 133.637 150.842 132.436 150.988V152.102C133.408 152.055 134.387 151.979 135.295 151.844L135.354 152.547C133.08 152.934 130.619 152.957 128.791 152.957L128.639 152.172ZM135.107 145.809V146.559H128.826V145.809H131.51V144.555H132.436V145.809H135.107ZM131.979 147.883C131.018 147.883 130.373 148.375 130.373 149.102C130.373 149.828 131.018 150.297 131.979 150.285C132.928 150.297 133.572 149.828 133.572 149.102C133.572 148.375 132.928 147.883 131.979 147.883ZM142.549 145.293C144.189 145.293 145.35 146.289 145.35 147.742C145.35 149.195 144.189 150.191 142.549 150.191C140.908 150.191 139.725 149.195 139.736 147.742C139.725 146.289 140.908 145.293 142.549 145.293ZM142.549 146.102C141.436 146.102 140.627 146.77 140.639 147.742C140.627 148.715 141.436 149.383 142.549 149.383C143.65 149.383 144.447 148.715 144.447 147.742C144.447 146.77 143.65 146.102 142.549 146.102ZM147.682 144.531V154.973H146.768V144.531H147.682ZM139.197 151.891C141.119 151.891 143.768 151.879 146.076 151.539L146.146 152.219C143.768 152.664 141.201 152.676 139.326 152.676L139.197 151.891ZM161.252 144.531V154.949H160.326V144.531H161.252ZM154.9 147.848C154.9 148.891 155.111 150.432 155.967 151.469C156.799 150.455 157.01 148.955 157.01 147.848V145.469H157.9V147.848C157.889 149.219 158.264 151.012 159.553 151.914L158.967 152.582C158.176 152.014 157.707 151.07 157.467 150.051C157.221 151.088 156.77 152.078 155.967 152.664C155.152 152.072 154.701 151.076 154.467 150.039C154.209 151.047 153.752 151.984 152.99 152.559L152.381 151.914C153.658 150.988 154.033 149.172 154.033 147.848V145.469H154.9V147.848ZM171.037 144.531V147.391H172.607V148.164H171.037V151.469H170.123V144.531H171.037ZM168.33 151.27C168.318 152.77 170.018 153.871 171.857 154.176L171.482 154.902C169.941 154.621 168.506 153.824 167.885 152.629C167.252 153.824 165.811 154.621 164.264 154.902L163.9 154.176C165.74 153.871 167.416 152.77 167.416 151.27V150.953H168.33V151.27ZM165.822 145.258C167.404 145.27 168.553 146.254 168.564 147.73C168.553 149.207 167.404 150.215 165.822 150.203C164.24 150.215 163.08 149.207 163.092 147.73C163.08 146.254 164.24 145.27 165.822 145.258ZM165.822 146.043C164.768 146.043 163.982 146.746 163.994 147.73C163.982 148.727 164.768 149.418 165.822 149.418C166.889 149.418 167.662 148.727 167.662 147.73C167.662 146.746 166.889 146.043 165.822 146.043ZM174.975 153.215L174.061 156.402H173.193L173.838 153.215H174.975ZM179.861 154V145.516H182.744C184.736 145.516 185.639 146.699 185.639 148.211C185.639 149.711 184.736 150.918 182.756 150.918H180.916V154H179.861ZM180.916 149.98H182.709C184.057 149.98 184.596 149.219 184.596 148.211C184.596 147.191 184.057 146.453 182.697 146.453H180.916V149.98ZM189.588 154.129C187.748 154.129 186.611 152.828 186.611 150.871C186.611 148.914 187.76 147.555 189.494 147.555C190.83 147.555 192.236 148.375 192.236 150.73V151.152H187.619C187.666 152.5 188.451 153.238 189.588 153.238C190.35 153.238 190.83 152.91 191.064 152.512H192.143C191.838 153.473 190.9 154.129 189.588 154.129ZM187.631 150.297H191.217C191.217 149.23 190.537 148.445 189.494 148.445C188.393 148.445 187.689 149.312 187.631 150.297ZM193.678 154V145.516H194.732V149.711H194.838L198.611 145.516H199.994L196.443 149.348L199.994 154H198.705L195.787 150.074L194.732 151.27V154H193.678ZM207.893 149.758C207.893 152.441 206.311 154.117 204.143 154.117C201.963 154.117 200.393 152.441 200.393 149.758C200.393 147.074 201.963 145.398 204.143 145.398C206.311 145.398 207.893 147.074 207.893 149.758ZM206.873 149.758C206.873 147.566 205.678 146.383 204.143 146.383C202.607 146.383 201.412 147.566 201.412 149.758C201.412 151.949 202.607 153.133 204.143 153.133C205.678 153.133 206.873 151.949 206.873 149.758ZM217.854 144.531V154.949H216.963V144.531H217.854ZM215.756 144.754V154.422H214.877V149.359H213.541C213.441 151.387 212.58 152.652 211.291 152.652C209.932 152.652 209.053 151.246 209.053 149.031C209.053 146.816 209.932 145.41 211.291 145.41C212.557 145.41 213.412 146.635 213.529 148.598H214.877V144.754H215.756ZM211.291 146.277C210.447 146.277 209.908 147.332 209.92 149.031C209.908 150.719 210.447 151.785 211.291 151.773C212.135 151.785 212.674 150.719 212.674 149.031C212.674 147.332 212.135 146.277 211.291 146.277ZM222.963 147.332C222.963 149.219 224.17 151.117 225.682 151.809L225.131 152.559C223.947 151.949 222.969 150.701 222.506 149.219C222.043 150.777 221.064 152.113 219.881 152.746L219.283 152.008C220.807 151.258 222.025 149.254 222.025 147.332V145.434H222.963V147.332ZM227.932 144.531V154.973H227.018V148.844H224.545V148.094H227.018V144.531H227.932ZM236.381 147.332C236.369 149.23 237.67 151.152 239.205 151.844L238.643 152.57C237.459 151.99 236.434 150.766 235.936 149.277C235.449 150.854 234.424 152.166 233.205 152.781L232.619 152.008C234.166 151.293 235.455 149.312 235.467 147.332V145.434H236.381V147.332ZM241.268 144.531V154.973H240.342V144.531H241.268ZM246.576 146.465C246.576 147.848 247.596 149.113 249.143 149.652L248.674 150.367C247.484 149.945 246.576 149.09 246.131 148.012C245.686 149.195 244.73 150.115 243.506 150.566L243.014 149.852C244.572 149.301 245.662 147.953 245.674 146.465V146.02H243.295V145.27H248.92V146.02H246.576V146.465ZM251.193 144.531V147.285H252.764V148.07H251.193V150.812H250.279V144.531H251.193ZM251.193 151.363V154.949H250.279V152.113H244.373V151.363H251.193ZM262.021 144.543V150.531H261.096V144.543H262.021ZM253.455 149.512C254.34 149.512 255.371 149.506 256.443 149.465V148.352H254.404V145.059H259.35V145.82H255.33V147.613H259.443V148.352H257.369V149.43C258.336 149.389 259.314 149.307 260.229 149.184L260.287 149.852C258.002 150.238 255.471 150.273 253.596 150.273L253.455 149.512ZM256.068 151V152.113H261.119V151H262.021V154.809H255.154V151H256.068ZM256.068 154.059H261.119V152.828H256.068V154.059ZM272.381 144.531V154.949H271.467V144.531H272.381ZM265.373 145.562V151.469C266.961 151.463 268.607 151.334 270.354 150.965L270.482 151.75C268.631 152.137 266.979 152.266 265.314 152.266H264.471V145.562H265.373ZM282.225 144.531V148.656H283.971V149.43H282.225V154.973H281.311V144.531H282.225ZM279.482 145.551V146.312H275.533V151.586C277.42 151.586 278.756 151.498 280.303 151.211L280.42 152.008C278.791 152.301 277.42 152.359 275.439 152.359H274.619V145.551H279.482ZM285.635 154.07C285.225 154.07 284.873 153.73 284.885 153.309C284.873 152.898 285.225 152.559 285.635 152.559C286.045 152.559 286.385 152.898 286.385 153.309C286.385 153.73 286.045 154.07 285.635 154.07Z" fill="#333333"/>
<mask id="path-13-inside-2_149_35" fill="white">
<path d="M42 167H298V191H42V167Z"/>
</mask>
<path d="M42 191V191.5H43V191V190.5H42V191ZM45 191V191.5H47V191V190.5H45V191ZM49 191V191.5H51V191V190.5H49V191ZM53 191V191.5H55V191V190.5H53V191ZM57 191V191.5H59V191V190.5H57V191ZM61 191V191.5H63V191V190.5H61V191ZM65 191V191.5H67V191V190.5H65V191ZM69 191V191.5H71V191V190.5H69V191ZM73 191V191.5H75V191V190.5H73V191ZM77 191V191.5H79V191V190.5H77V191ZM81 191V191.5H83V191V190.5H81V191ZM85 191V191.5H87V191V190.5H85V191ZM89 191V191.5H91V191V190.5H89V191ZM93 191V191.5H95V191V190.5H93V191ZM97 191V191.5H99V191V190.5H97V191ZM101 191V191.5H103V191V190.5H101V191ZM105 191V191.5H107V191V190.5H105V191ZM109 191V191.5H111V191V190.5H109V191ZM113 191V191.5H115V191V190.5H113V191ZM117 191V191.5H119V191V190.5H117V191ZM121 191V191.5H123V191V190.5H121V191ZM125 191V191.5H127V191V190.5H125V191ZM129 191V191.5H131V191V190.5H129V191ZM133 191V191.5H135V191V190.5H133V191ZM137 191V191.5H139V191V190.5H137V191ZM141 191V191.5H143V191V190.5H141V191ZM145 191V191.5H147V191V190.5H145V191ZM149 191V191.5H151V191V190.5H149V191ZM153 191V191.5H155V191V190.5H153V191ZM157 191V191.5H159V191V190.5H157V191ZM161 191V191.5H163V191V190.5H161V191ZM165 191V191.5H167V191V190.5H165V191ZM169 191V191.5H171V191V190.5H169V191ZM173 191V191.5H175V191V190.5H173V191ZM177 191V191.5H179V191V190.5H177V191ZM181 191V191.5H183V191V190.5H181V191ZM185 191V191.5H187V191V190.5H185V191ZM189 191V191.5H191V191V190.5H189V191ZM193 191V191.5H195V191V190.5H193V191ZM197 191V191.5H199V191V190.5H197V191ZM201 191V191.5H203V191V190.5H201V191ZM205 191V191.5H207V191V190.5H205V191ZM209 191V191.5H211V191V190.5H209V191ZM213 191V191.5H215V191V190.5H213V191ZM217 191V191.5H219V191V190.5H217V191ZM221 191V191.5H223V191V190.5H221V191ZM225 191V191.5H227V191V190.5H225V191ZM229 191V191.5H231V191V190.5H229V191ZM233 191V191.5H235V191V190.5H233V191ZM237 191V191.5H239V191V190.5H237V191ZM241 191V191.5H243V191V190.5H241V191ZM245 191V191.5H247V191V190.5H245V191ZM249 191V191.5H251V191V190.5H249V191ZM253 191V191.5H255V191V190.5H253V191ZM257 191V191.5H259V191V190.5H257V191ZM261 191V191.5H263V191V190.5H261V191ZM265 191V191.5H267V191V190.5H265V191ZM269 191V191.5H271V191V190.5H269V191ZM273 191V191.5H275V191V190.5H273V191ZM277 191V191.5H279V191V190.5H277V191ZM281 191V191.5H283V191V190.5H281V191ZM285 191V191.5H287V191V190.5H285V191ZM289 191V191.5H291V191V190.5H289V191ZM293 191V191.5H295V191V190.5H293V191ZM297 191V191.5H298V191V190.5H297V191ZM42 191V192H43V191V190H42V191ZM45 191V192H47V191V190H45V191ZM49 191V192H51V191V190H49V191ZM53 191V192H55V191V190H53V191ZM57 191V192H59V191V190H57V191ZM61 191V192H63V191V190H61V191ZM65 191V192H67V191V190H65V191ZM69 191V192H71V191V190H69V191ZM73 191V192H75V191V190H73V191ZM77 191V192H79V191V190H77V191ZM81 191V192H83V191V190H81V191ZM85 191V192H87V191V190H85V191ZM89 191V192H91V191V190H89V191ZM93 191V192H95V191V190H93V191ZM97 191V192H99V191V190H97V191ZM101 191V192H103V191V190H101V191ZM105 191V192H107V191V190H105V191ZM109 191V192H111V191V190H109V191ZM113 191V192H115V191V190H113V191ZM117 191V192H119V191V190H117V191ZM121 191V192H123V191V190H121V191ZM125 191V192H127V191V190H125V191ZM129 191V192H131V191V190H129V191ZM133 191V192H135V191V190H133V191ZM137 191V192H139V191V190H137V191ZM141 191V192H143V191V190H141V191ZM145 191V192H147V191V190H145V191ZM149 191V192H151V191V190H149V191ZM153 191V192H155V191V190H153V191ZM157 191V192H159V191V190H157V191ZM161 191V192H163V191V190H161V191ZM165 191V192H167V191V190H165V191ZM169 191V192H171V191V190H169V191ZM173 191V192H175V191V190H173V191ZM177 191V192H179V191V190H177V191ZM181 191V192H183V191V190H181V191ZM185 191V192H187V191V190H185V191ZM189 191V192H191V191V190H189V191ZM193 191V192H195V191V190H193V191ZM197 191V192H199V191V190H197V191ZM201 191V192H203V191V190H201V191ZM205 191V192H207V191V190H205V191ZM209 191V192H211V191V190H209V191ZM213 191V192H215V191V190H213V191ZM217 191V192H219V191V190H217V191ZM221 191V192H223V191V190H221V191ZM225 191V192H227V191V190H225V191ZM229 191V192H231V191V190H229V191ZM233 191V192H235V191V190H233V191ZM237 191V192H239V191V190H237V191ZM241 191V192H243V191V190H241V191ZM245 191V192H247V191V190H245V191ZM249 191V192H251V191V190H249V191ZM253 191V192H255V191V190H253V191ZM257 191V192H259V191V190H257V191ZM261 191V192H263V191V190H261V191ZM265 191V192H267V191V190H265V191ZM269 191V192H271V191V190H269V191ZM273 191V192H275V191V190H273V191ZM277 191V192H279V191V190H277V191ZM281 191V192H283V191V190H281V191ZM285 191V192H287V191V190H285V191ZM289 191V192H291V191V190H289V191ZM293 191V192H295V191V190H293V191ZM297 191V192H298V191V190H297V191Z" fill="#E5E5E5" mask="url(#path-13-inside-2_149_35)"/>
<path d="M43.0918 183V174.516H44.1465V178.711H44.252L48.0254 174.516H49.4082L45.8574 178.348L49.4082 183H48.1191L45.2012 179.074L44.1465 180.27V183H43.0918ZM57.3066 178.758C57.3066 181.441 55.7246 183.117 53.5566 183.117C51.377 183.117 49.8066 181.441 49.8066 178.758C49.8066 176.074 51.377 174.398 53.5566 174.398C55.7246 174.398 57.3066 176.074 57.3066 178.758ZM56.2871 178.758C56.2871 176.566 55.0918 175.383 53.5566 175.383C52.0215 175.383 50.8262 176.566 50.8262 178.758C50.8262 180.949 52.0215 182.133 53.5566 182.133C55.0918 182.133 56.2871 180.949 56.2871 178.758ZM59.9082 174.516V183H58.8535V174.516H59.9082ZM67.5723 177.188C67.3262 176.016 66.3184 175.383 65.2051 175.383C63.6699 175.383 62.4746 176.566 62.4746 178.758C62.4746 180.949 63.6699 182.133 65.2051 182.133C66.3184 182.133 67.3145 181.5 67.5723 180.34H68.627C68.3223 182.074 66.9277 183.117 65.2051 183.117C63.0254 183.117 61.4551 181.441 61.4551 178.758C61.4551 176.074 63.0254 174.398 65.2051 174.398C66.916 174.398 68.3105 175.43 68.627 177.188H67.5723ZM70.4668 183H69.3652L72.4707 174.516H73.584L76.6895 183H75.5762L74.7324 180.609H71.3223L70.4668 183ZM71.6387 179.684H74.4043L73.0566 175.887H72.9863L71.6387 179.684ZM80.7324 174.293C82.373 174.293 83.5332 175.289 83.5332 176.742C83.5332 178.195 82.373 179.191 80.7324 179.191C79.0918 179.191 77.9082 178.195 77.9199 176.742C77.9082 175.289 79.0918 174.293 80.7324 174.293ZM80.7324 175.102C79.6191 175.102 78.8105 175.77 78.8223 176.742C78.8105 177.715 79.6191 178.383 80.7324 178.383C81.834 178.383 82.6309 177.715 82.6309 176.742C82.6309 175.77 81.834 175.102 80.7324 175.102ZM85.8652 173.531V183.973H84.9512V173.531H85.8652ZM77.3809 180.891C79.3027 180.891 81.9512 180.879 84.2598 180.539L84.3301 181.219C81.9512 181.664 79.3848 181.676 77.5098 181.676L77.3809 180.891ZM99.623 173.531V183.949H98.7324V178.523H97.2793V183.434H96.4121V173.789H97.2793V177.762H98.7324V173.531H99.623ZM95.334 174.797C95.3223 177.492 94.502 180.059 91.3262 181.793L90.7754 181.137C92.4043 180.246 93.3711 179.145 93.8926 177.891L90.916 178.207L90.7754 177.398L94.1504 177.176C94.2969 176.654 94.3789 176.115 94.4199 175.559H91.291V174.797H95.334ZM109.678 173.543V179.906H108.764V173.543H109.678ZM109.678 180.469V183.949H108.764V181.23H102.67V180.469H109.678ZM106.361 174.164V177.035H102.518V178.547C104.381 178.547 105.775 178.488 107.463 178.23L107.568 178.98C105.822 179.25 104.393 179.309 102.471 179.309H101.627V176.309H105.447V174.914H101.604V174.164H106.361ZM120.084 173.531V183.973H119.17V178.23H116.967V177.469H119.17V173.531H120.084ZM116.791 174.492V175.254H112.854V177.422H116.334V178.172H112.854V180.691C114.77 180.691 115.988 180.627 117.424 180.375L117.529 181.137C116.018 181.383 114.74 181.453 112.725 181.453H111.928V174.492H116.791ZM125.346 183V174.516H128.229C130.221 174.516 131.123 175.699 131.123 177.211C131.123 178.711 130.221 179.918 128.24 179.918H126.4V183H125.346ZM126.4 178.98H128.193C129.541 178.98 130.08 178.219 130.08 177.211C130.08 176.191 129.541 175.453 128.182 175.453H126.4V178.98ZM135.072 183.129C133.232 183.129 132.096 181.828 132.096 179.871C132.096 177.914 133.244 176.555 134.979 176.555C136.314 176.555 137.721 177.375 137.721 179.73V180.152H133.104C133.15 181.5 133.936 182.238 135.072 182.238C135.834 182.238 136.314 181.91 136.549 181.512H137.627C137.322 182.473 136.385 183.129 135.072 183.129ZM133.115 179.297H136.701C136.701 178.23 136.021 177.445 134.979 177.445C133.877 177.445 133.174 178.312 133.115 179.297ZM139.162 183V174.516H140.217V178.711H140.322L144.096 174.516H145.479L141.928 178.348L145.479 183H144.189L141.271 179.074L140.217 180.27V183H139.162ZM153.377 178.758C153.377 181.441 151.795 183.117 149.627 183.117C147.447 183.117 145.877 181.441 145.877 178.758C145.877 176.074 147.447 174.398 149.627 174.398C151.795 174.398 153.377 176.074 153.377 178.758ZM152.357 178.758C152.357 176.566 151.162 175.383 149.627 175.383C148.092 175.383 146.896 176.566 146.896 178.758C146.896 180.949 148.092 182.133 149.627 182.133C151.162 182.133 152.357 180.949 152.357 178.758ZM162.834 176.695V177.434H155.697V173.918H156.611V176.695H162.834ZM163.936 178.852V179.602H154.396V178.852H163.936ZM162.893 182.93V183.691H155.639V180.668H156.553V182.93H162.893ZM173.123 174.094V175.793H175.502V173.531H176.416V178.887H175.502V176.543H173.123V178.348H168.283V174.094H173.123ZM169.197 174.832V177.609H172.221V174.832H169.197ZM176.416 179.414V181.91H170.604V183.07H176.814V183.809H169.689V181.207H175.502V180.152H169.666V179.414H176.416ZM187.08 173.531V183.949H186.201V173.531H187.08ZM184.889 173.812V183.422H184.01V178.559H181.807C181.168 179.771 180.166 180.844 178.713 181.699L178.174 181.031C180.441 179.689 181.578 177.809 181.748 175.629H178.619V174.867H182.662C182.656 175.893 182.492 176.883 182.146 177.809H184.01V173.812H184.889ZM193.795 174.48V179.273H188.979V174.48H193.795ZM189.881 175.23V178.535H192.904V175.23H189.881ZM196.678 173.531V176.707H198.248V177.48H196.678V181.172H195.764V173.531H196.678ZM197.158 182.953V183.727H190.162V180.445H191.064V182.953H197.158ZM210.354 178.254V179.016H203.088V174.445H204.014V178.254H210.354ZM211.455 181.734V182.508H201.916V181.734H211.455ZM220.877 173.531V183.949H219.975V179.906H217.35C217.004 180.738 216.547 181.541 215.932 182.273L215.158 181.77C216.758 179.93 217.273 177.615 217.361 175.441H215.732V174.668H218.24C218.24 175.219 218.217 175.793 218.158 176.379H219.975V173.531H220.877ZM215.416 174.668C215.416 177.129 214.795 179.59 212.932 181.559L212.193 181.031C213.729 179.455 214.402 177.51 214.525 175.441H212.557V174.668H215.416ZM217.631 179.133H219.975V177.129H218.076C217.977 177.797 217.836 178.471 217.631 179.133ZM226.385 176.73C226.385 178.5 227.674 180.293 229.209 180.961L228.693 181.688C227.475 181.131 226.42 179.93 225.939 178.488C225.447 180.018 224.398 181.348 223.209 181.945L222.658 181.219C224.146 180.504 225.447 178.535 225.459 176.73V175.371H222.998V174.609H228.869V175.371H226.385V176.73ZM231.248 173.531V183.949H230.322V173.531H231.248ZM238.432 174.41V175.172H234.541V178.852C236.41 178.852 237.617 178.787 239.018 178.512L239.135 179.273C237.646 179.531 236.381 179.613 234.424 179.613H233.639V174.41H238.432ZM241.666 173.543V181.148H240.74V177.188H237.752V176.438H240.74V173.543H241.666ZM241.947 183.035V183.785H234.951V180.574H235.877V183.035H241.947ZM255.307 173.531V183.949H254.404V178.5H252.963V183.434H252.084V173.812H252.963V177.738H254.404V173.531H255.307ZM250.9 174.891C250.889 177.539 249.963 180.047 246.963 181.711L246.424 181.066C248.844 179.719 249.846 177.809 249.998 175.652H246.822V174.891H250.9ZM258.131 173.977V175.477H261.166V173.977H262.08V178.512H257.229V173.977H258.131ZM258.131 177.762H261.166V176.191H258.131V177.762ZM264.928 173.531V175.793H266.498V176.566H264.928V178.922H264.014V173.531H264.928ZM264.928 179.414V181.934H259.209V183.082H265.314V183.832H258.307V181.23H264.014V180.152H258.283V179.414H264.928ZM273.061 174.586V175.348H267.166V174.586H269.697V173.438H270.611V174.586H273.061ZM270.143 175.852C271.537 175.852 272.521 176.602 272.521 177.738C272.521 178.863 271.537 179.602 270.143 179.602C268.736 179.602 267.775 178.863 267.787 177.738C267.775 176.602 268.736 175.852 270.143 175.852ZM270.143 176.566C269.24 176.566 268.643 177.035 268.643 177.738C268.643 178.43 269.24 178.91 270.143 178.91C271.045 178.91 271.654 178.43 271.666 177.738C271.654 177.035 271.045 176.566 270.143 176.566ZM275.791 173.531V179.695H274.865V178.77H273.049V178.008H274.865V176.73H273.061V175.969H274.865V173.531H275.791ZM269.92 180.129V181.23H274.877V180.129H275.791V183.809H269.006V180.129H269.92ZM269.92 183.07H274.877V181.945H269.92V183.07ZM282.471 174.176V177.094H278.885V178.711C280.842 178.711 281.85 178.682 283.08 178.453L283.174 179.215C281.873 179.426 280.818 179.461 278.709 179.461H277.971V176.391H281.557V174.914H277.947V174.176H282.471ZM286.162 173.543V179.941H285.236V178.008H283.162V177.246H285.236V175.84H283.162V175.09H285.236V173.543H286.162ZM286.162 180.504V183.973H285.236V181.254H279.143V180.504H286.162ZM292.643 173.719C294.963 173.719 296.322 174.352 296.322 175.512C296.322 176.695 294.963 177.328 292.643 177.34C290.322 177.328 288.951 176.695 288.951 175.512C288.951 174.352 290.322 173.719 292.643 173.719ZM292.643 174.41C290.908 174.41 289.9 174.832 289.912 175.512C289.9 176.238 290.908 176.637 292.643 176.637C294.365 176.637 295.385 176.238 295.385 175.512C295.385 174.832 294.365 174.41 292.643 174.41ZM297.389 178.043V178.793H287.896V178.043H297.389ZM296.17 179.695V182.027H289.982V183.105H296.486V183.832H289.068V181.348H295.268V180.398H289.045V179.695H296.17Z" fill="#333333"/>
<mask id="path-16-inside-3_149_35" fill="white">
<path d="M42 196H298V220H42V196Z"/>
</mask>
<path d="M42 220V220.5H43V220V219.5H42V220ZM45 220V220.5H47V220V219.5H45V220ZM49 220V220.5H51V220V219.5H49V220ZM53 220V220.5H55V220V219.5H53V220ZM57 220V220.5H59V220V219.5H57V220ZM61 220V220.5H63V220V219.5H61V220ZM65 220V220.5H67V220V219.5H65V220ZM69 220V220.5H71V220V219.5H69V220ZM73 220V220.5H75V220V219.5H73V220ZM77 220V220.5H79V220V219.5H77V220ZM81 220V220.5H83V220V219.5H81V220ZM85 220V220.5H87V220V219.5H85V220ZM89 220V220.5H91V220V219.5H89V220ZM93 220V220.5H95V220V219.5H93V220ZM97 220V220.5H99V220V219.5H97V220ZM101 220V220.5H103V220V219.5H101V220ZM105 220V220.5H107V220V219.5H105V220ZM109 220V220.5H111V220V219.5H109V220ZM113 220V220.5H115V220V219.5H113V220ZM117 220V220.5H119V220V219.5H117V220ZM121 220V220.5H123V220V219.5H121V220ZM125 220V220.5H127V220V219.5H125V220ZM129 220V220.5H131V220V219.5H129V220ZM133 220V220.5H135V220V219.5H133V220ZM137 220V220.5H139V220V219.5H137V220ZM141 220V220.5H143V220V219.5H141V220ZM145 220V220.5H147V220V219.5H145V220ZM149 220V220.5H151V220V219.5H149V220ZM153 220V220.5H155V220V219.5H153V220ZM157 220V220.5H159V220V219.5H157V220ZM161 220V220.5H163V220V219.5H161V220ZM165 220V220.5H167V220V219.5H165V220ZM169 220V220.5H171V220V219.5H169V220ZM173 220V220.5H175V220V219.5H173V220ZM177 220V220.5H179V220V219.5H177V220ZM181 220V220.5H183V220V219.5H181V220ZM185 220V220.5H187V220V219.5H185V220ZM189 220V220.5H191V220V219.5H189V220ZM193 220V220.5H195V220V219.5H193V220ZM197 220V220.5H199V220V219.5H197V220ZM201 220V220.5H203V220V219.5H201V220ZM205 220V220.5H207V220V219.5H205V220ZM209 220V220.5H211V220V219.5H209V220ZM213 220V220.5H215V220V219.5H213V220ZM217 220V220.5H219V220V219.5H217V220ZM221 220V220.5H223V220V219.5H221V220ZM225 220V220.5H227V220V219.5H225V220ZM229 220V220.5H231V220V219.5H229V220ZM233 220V220.5H235V220V219.5H233V220ZM237 220V220.5H239V220V219.5H237V220ZM241 220V220.5H243V220V219.5H241V220ZM245 220V220.5H247V220V219.5H245V220ZM249 220V220.5H251V220V219.5H249V220ZM253 220V220.5H255V220V219.5H253V220ZM257 220V220.5H259V220V219.5H257V220ZM261 220V220.5H263V220V219.5H261V220ZM265 220V220.5H267V220V219.5H265V220ZM269 220V220.5H271V220V219.5H269V220ZM273 220V220.5H275V220V219.5H273V220ZM277 220V220.5H279V220V219.5H277V220ZM281 220V220.5H283V220V219.5H281V220ZM285 220V220.5H287V220V219.5H285V220ZM289 220V220.5H291V220V219.5H289V220ZM293 220V220.5H295V220V219.5H293V220ZM297 220V220.5H298V220V219.5H297V220ZM42 220V221H43V220V219H42V220ZM45 220V221H47V220V219H45V220ZM49 220V221H51V220V219H49V220ZM53 220V221H55V220V219H53V220ZM57 220V221H59V220V219H57V220ZM61 220V221H63V220V219H61V220ZM65 220V221H67V220V219H65V220ZM69 220V221H71V220V219H69V220ZM73 220V221H75V220V219H73V220ZM77 220V221H79V220V219H77V220ZM81 220V221H83V220V219H81V220ZM85 220V221H87V220V219H85V220ZM89 220V221H91V220V219H89V220ZM93 220V221H95V220V219H93V220ZM97 220V221H99V220V219H97V220ZM101 220V221H103V220V219H101V220ZM105 220V221H107V220V219H105V220ZM109 220V221H111V220V219H109V220ZM113 220V221H115V220V219H113V220ZM117 220V221H119V220V219H117V220ZM121 220V221H123V220V219H121V220ZM125 220V221H127V220V219H125V220ZM129 220V221H131V220V219H129V220ZM133 220V221H135V220V219H133V220ZM137 220V221H139V220V219H137V220ZM141 220V221H143V220V219H141V220ZM145 220V221H147V220V219H145V220ZM149 220V221H151V220V219H149V220ZM153 220V221H155V220V219H153V220ZM157 220V221H159V220V219H157V220ZM161 220V221H163V220V219H161V220ZM165 220V221H167V220V219H165V220ZM169 220V221H171V220V219H169V220ZM173 220V221H175V220V219H173V220ZM177 220V221H179V220V219H177V220ZM181 220V221H183V220V219H181V220ZM185 220V221H187V220V219H185V220ZM189 220V221H191V220V219H189V220ZM193 220V221H195V220V219H193V220ZM197 220V221H199V220V219H197V220ZM201 220V221H203V220V219H201V220ZM205 220V221H207V220V219H205V220ZM209 220V221H211V220V219H209V220ZM213 220V221H215V220V219H213V220ZM217 220V221H219V220V219H217V220ZM221 220V221H223V220V219H221V220ZM225 220V221H227V220V219H225V220ZM229 220V221H231V220V219H229V220ZM233 220V221H235V220V219H233V220ZM237 220V221H239V220V219H237V220ZM241 220V221H243V220V219H241V220ZM245 220V221H247V220V219H245V220ZM249 220V221H251V220V219H249V220ZM253 220V221H255V220V219H253V220ZM257 220V221H259V220V219H257V220ZM261 220V221H263V220V219H261V220ZM265 220V221H267V220V219H265V220ZM269 220V221H271V220V219H269V220ZM273 220V221H275V220V219H273V220ZM277 220V221H279V220V219H277V220ZM281 220V221H283V220V219H281V220ZM285 220V221H287V220V219H285V220ZM289 220V221H291V220V219H289V220ZM293 220V221H295V220V219H293V220ZM297 220V221H298V220V219H297V220Z" fill="#E5E5E5" mask="url(#path-16-inside-3_149_35)"/>
<path d="M59.6387 202.531V212.949H58.7246V202.531H59.6387ZM50.8965 207.512C52.2969 207.506 53.9082 207.488 55.5137 207.406C55.7832 205.918 55.8242 204.816 55.8418 204.102H51.8223V203.34H56.7559V203.762C56.7441 204.43 56.7441 205.643 56.4629 207.359C56.9668 207.324 57.4707 207.283 57.9629 207.23L58.0332 207.922C56.9668 208.057 55.8594 208.145 54.7754 208.203V212.328H53.8496V208.238C52.8594 208.273 51.8984 208.285 51.0254 208.285L50.8965 207.512ZM64.209 203.012C65.0879 203.012 65.8379 203.334 66.3184 203.879H69.0488V202.531H69.9746V208.121H69.0488V206.996H66.3066C65.8203 207.535 65.0762 207.852 64.209 207.852C62.6504 207.852 61.502 206.855 61.502 205.426C61.502 204.008 62.6504 203.012 64.209 203.012ZM64.209 203.797C63.1426 203.785 62.3809 204.477 62.3809 205.426C62.3809 206.387 63.1426 207.078 64.209 207.078C65.2402 207.078 66.0137 206.387 66.0137 205.426C66.0137 204.477 65.2402 203.785 64.209 203.797ZM64.1855 208.648V209.973H69.0488V208.648H69.9746V212.809H63.2598V208.648H64.1855ZM64.1855 212.059H69.0488V210.711H64.1855V212.059ZM66.7637 206.246H69.0488V204.641H66.7754C66.8574 204.881 66.9043 205.145 66.9043 205.426C66.9043 205.719 66.8516 205.994 66.7637 206.246ZM80.0645 203.586V204.629C80.0527 205.906 80.0527 207.336 79.6777 209.434L78.7402 209.328C79.1387 207.336 79.1387 205.871 79.1387 204.629V204.348H72.7168V203.586H80.0645ZM81.2012 210.711V211.473H71.709V210.711H75.4355V206.984H76.3379V210.711H81.2012ZM93.3301 202.52V206.633H94.8535V207.418H93.3301V212.949H92.416V202.52H93.3301ZM88.0566 203.633V204.395H86.3223V209.434C86.8379 209.422 87.4707 209.375 88.1621 209.223L88.2559 209.996C87.2715 210.207 86.4863 210.219 85.8652 210.219H85.4082V203.633H88.0566ZM91.4316 203.633V204.395H89.5684V209.445C90.3828 209.434 91.0332 209.381 91.7715 209.199L91.8652 209.973C90.9512 210.195 90.2129 210.219 89.1582 210.219H88.6543V203.633H91.4316ZM104.955 207.547V208.309H95.4629V207.547H104.955ZM104.135 205.824V206.574H100.514V203.047H104.041V203.797H101.439V205.824H104.135ZM99.9277 203.047V203.797H97.291V205.824C98.1934 205.812 99.0781 205.748 100.068 205.52L100.174 206.281C98.9902 206.539 97.9941 206.574 96.9512 206.574H96.3535V203.047H99.9277ZM100.689 209.469C100.689 210.875 102.33 211.906 104.229 212.176L103.877 212.902C102.295 212.639 100.848 211.895 100.221 210.746C99.5938 211.895 98.1465 212.639 96.5645 212.902L96.2129 212.176C98.0996 211.906 99.752 210.875 99.752 209.469V209.129H100.689V209.469ZM113.979 202.543V205.977H115.549V206.75H113.979V210.348H113.064V202.543H113.979ZM112.068 203.82V204.57H105.857V203.82H108.506V202.543H109.42V203.82H112.068ZM108.963 205.145C110.451 205.145 111.459 205.906 111.471 207.09C111.459 208.262 110.451 209.012 108.963 209.012C107.463 209.012 106.443 208.262 106.455 207.09C106.443 205.906 107.463 205.145 108.963 205.145ZM108.963 205.871C107.979 205.871 107.322 206.352 107.334 207.09C107.322 207.828 107.979 208.297 108.963 208.285C109.936 208.297 110.592 207.828 110.604 207.09C110.592 206.352 109.936 205.871 108.963 205.871ZM114.459 211.953V212.727H107.463V209.727H108.365V211.953H114.459ZM124.021 209.082C126.166 209.082 127.455 209.785 127.455 211.004C127.455 212.234 126.166 212.938 124.021 212.949C121.877 212.938 120.564 212.234 120.564 211.004C120.564 209.785 121.877 209.082 124.021 209.082ZM124.021 209.809C122.451 209.82 121.479 210.254 121.49 211.004C121.479 211.754 122.451 212.199 124.021 212.199C125.604 212.199 126.564 211.754 126.564 211.004C126.564 210.254 125.604 209.82 124.021 209.809ZM127.361 202.531V205.156H128.932V205.941H127.361V208.801H126.447V202.531H127.361ZM120.564 203.188V204.781H123.6V203.188H124.514V207.992H119.662V203.188H120.564ZM120.564 207.242H123.6V205.508H120.564V207.242ZM133.279 204.043C133.268 205.566 134.369 206.914 135.916 207.453L135.447 208.18C134.24 207.74 133.285 206.838 132.822 205.684C132.359 206.92 131.393 207.893 130.174 208.367L129.693 207.641C131.252 207.066 132.342 205.613 132.342 204.043V203.047H133.279V204.043ZM138.189 209.328V212.949H137.275V210.09H131.182V209.328H138.189ZM138.189 202.531V208.812H137.275V202.531H138.189ZM144.705 203.211C146.885 203.211 148.514 204.348 148.514 206.07C148.514 207.805 146.885 208.941 144.705 208.93C142.525 208.941 140.896 207.805 140.896 206.07C140.896 204.348 142.525 203.211 144.705 203.211ZM144.705 203.961C143.029 203.949 141.764 204.828 141.775 206.07C141.764 207.336 143.029 208.18 144.705 208.18C146.369 208.18 147.623 207.336 147.623 206.07C147.623 204.828 146.369 203.949 144.705 203.961ZM149.498 210.793V211.566H139.959V210.793H149.498ZM159.869 210.887V211.66H150.33V210.887H154.619V208.918H151.525V205.707H157.76V204.066H151.502V203.305H158.662V206.457H152.439V208.156H158.908V208.918H155.521V210.887H159.869ZM173.24 208.508V209.281H168.893V212.949H167.99V209.281H163.701V208.508H173.24ZM168.447 202.953C170.639 202.953 172.115 203.832 172.115 205.25C172.115 206.633 170.639 207.512 168.447 207.512C166.256 207.512 164.779 206.633 164.779 205.25C164.779 203.832 166.256 202.953 168.447 202.953ZM168.447 203.703C166.818 203.703 165.717 204.312 165.729 205.25C165.717 206.176 166.818 206.773 168.447 206.773C170.064 206.773 171.178 206.176 171.178 205.25C171.178 204.312 170.064 203.703 168.447 203.703ZM182.686 202.531V212.973H181.771V202.531H182.686ZM179.521 203.504V207.207H175.631V209.668C177.359 209.668 178.9 209.592 180.764 209.293L180.857 210.066C178.936 210.371 177.354 210.441 175.561 210.441H174.693V206.457H178.596V204.266H174.67V203.504H179.521ZM190.42 202.918C191.979 202.93 193.115 203.867 193.115 205.227C193.115 206.586 191.979 207.523 190.42 207.523C188.838 207.523 187.713 206.586 187.713 205.227C187.713 203.867 188.838 202.93 190.42 202.918ZM190.42 203.691C189.377 203.691 188.604 204.324 188.615 205.227C188.604 206.141 189.377 206.773 190.42 206.773C191.451 206.773 192.225 206.141 192.225 205.227C192.225 204.324 191.451 203.691 190.42 203.691ZM196.068 202.531V207.887H195.154V202.531H196.068ZM196.068 208.391V210.898H190.221V212.07H196.443V212.809H189.318V210.207H195.154V209.129H189.295V208.391H196.068ZM201.318 204.219C201.318 205.637 202.396 206.938 203.908 207.453L203.404 208.18C202.25 207.758 201.342 206.896 200.885 205.812C200.439 207.037 199.514 208.004 198.295 208.473L197.803 207.734C199.361 207.148 200.404 205.754 200.416 204.148V203.07H201.318V204.219ZM205.982 202.531V205.25H207.553V206.023H205.982V208.871H205.068V202.531H205.982ZM202.643 209.141C204.787 209.141 206.076 209.832 206.076 211.027C206.076 212.246 204.787 212.926 202.643 212.926C200.498 212.926 199.186 212.246 199.186 211.027C199.186 209.832 200.498 209.141 202.643 209.141ZM202.643 209.879C201.072 209.879 200.1 210.312 200.111 211.027C200.1 211.766 201.072 212.188 202.643 212.199C204.225 212.188 205.186 211.766 205.186 211.027C205.186 210.312 204.225 209.879 202.643 209.879ZM220.748 207.77V208.531H211.221V207.77H215.51V206.164H216.412V207.77H220.748ZM216.424 203.188C216.424 204.57 218.299 205.73 220.139 205.988L219.764 206.727C218.182 206.451 216.617 205.613 215.967 204.406C215.311 205.619 213.74 206.451 212.146 206.727L211.795 205.988C213.635 205.73 215.498 204.57 215.498 203.188V202.695H216.424V203.188ZM219.541 209.551V212.949H218.615V210.289H212.275V209.551H219.541ZM230.521 202.531V212.949H229.631V202.531H230.521ZM228.424 202.754V212.422H227.545V207.359H226.209C226.109 209.387 225.248 210.652 223.959 210.652C222.6 210.652 221.721 209.246 221.721 207.031C221.721 204.816 222.6 203.41 223.959 203.41C225.225 203.41 226.08 204.635 226.197 206.598H227.545V202.754H228.424ZM223.959 204.277C223.115 204.277 222.576 205.332 222.588 207.031C222.576 208.719 223.115 209.785 223.959 209.773C224.803 209.785 225.342 208.719 225.342 207.031C225.342 205.332 224.803 204.277 223.959 204.277ZM243.576 202.543V208.461H242.662V202.543H243.576ZM243.576 209.059V212.809H236.803V209.059H243.576ZM237.705 209.809V212.059H242.674V209.809H237.705ZM238.666 203.973C238.654 205.449 239.779 206.75 241.314 207.289L240.846 207.992C239.639 207.576 238.678 206.697 238.209 205.555C237.746 206.773 236.773 207.734 235.525 208.191L235.057 207.465C236.639 206.914 237.729 205.508 237.729 203.973V202.953H238.666V203.973ZM248.146 203.34C249.564 203.352 250.584 204.564 250.736 206.516H253.068V202.531H253.982V212.973H253.068V207.277H250.748C250.637 209.316 249.6 210.594 248.146 210.594C246.611 210.594 245.533 209.188 245.533 206.973C245.533 204.758 246.611 203.352 248.146 203.34ZM248.146 204.16C247.115 204.172 246.412 205.273 246.412 206.973C246.412 208.672 247.115 209.773 248.146 209.773C249.166 209.773 249.881 208.672 249.881 206.973C249.881 205.273 249.166 204.172 248.146 204.16ZM263.861 202.531V205.016H265.432V205.789H263.861V208.168H262.936V202.531H263.861ZM261.025 203.176C261.025 205.777 259.162 207.547 256.092 208.309L255.74 207.547C258.318 206.926 259.848 205.607 260.018 203.926H256.197V203.176H261.025ZM258.166 208.648V209.973H262.947V208.648H263.861V212.809H257.24V208.648H258.166ZM258.166 212.059H262.947V210.711H258.166V212.059ZM274.678 202.531V212.949H273.764V202.531H274.678ZM267.67 203.562V209.469C269.258 209.463 270.904 209.334 272.65 208.965L272.779 209.75C270.928 210.137 269.275 210.266 267.611 210.266H266.768V203.562H267.67ZM284.521 202.531V206.656H286.268V207.43H284.521V212.973H283.607V202.531H284.521ZM281.779 203.551V204.312H277.83V209.586C279.717 209.586 281.053 209.498 282.6 209.211L282.717 210.008C281.088 210.301 279.717 210.359 277.736 210.359H276.916V203.551H281.779ZM287.932 212.07C287.521 212.07 287.17 211.73 287.182 211.309C287.17 210.898 287.521 210.559 287.932 210.559C288.342 210.559 288.682 210.898 288.682 211.309C288.682 211.73 288.342 212.07 287.932 212.07Z" fill="#333333"/>
<mask id="path-19-inside-4_149_35" fill="white">
<path d="M42 225H298V249H42V225Z"/>
</mask>
<path d="M42 249V249.5H43V249V248.5H42V249ZM45 249V249.5H47V249V248.5H45V249ZM49 249V249.5H51V249V248.5H49V249ZM53 249V249.5H55V249V248.5H53V249ZM57 249V249.5H59V249V248.5H57V249ZM61 249V249.5H63V249V248.5H61V249ZM65 249V249.5H67V249V248.5H65V249ZM69 249V249.5H71V249V248.5H69V249ZM73 249V249.5H75V249V248.5H73V249ZM77 249V249.5H79V249V248.5H77V249ZM81 249V249.5H83V249V248.5H81V249ZM85 249V249.5H87V249V248.5H85V249ZM89 249V249.5H91V249V248.5H89V249ZM93 249V249.5H95V249V248.5H93V249ZM97 249V249.5H99V249V248.5H97V249ZM101 249V249.5H103V249V248.5H101V249ZM105 249V249.5H107V249V248.5H105V249ZM109 249V249.5H111V249V248.5H109V249ZM113 249V249.5H115V249V248.5H113V249ZM117 249V249.5H119V249V248.5H117V249ZM121 249V249.5H123V249V248.5H121V249ZM125 249V249.5H127V249V248.5H125V249ZM129 249V249.5H131V249V248.5H129V249ZM133 249V249.5H135V249V248.5H133V249ZM137 249V249.5H139V249V248.5H137V249ZM141 249V249.5H143V249V248.5H141V249ZM145 249V249.5H147V249V248.5H145V249ZM149 249V249.5H151V249V248.5H149V249ZM153 249V249.5H155V249V248.5H153V249ZM157 249V249.5H159V249V248.5H157V249ZM161 249V249.5H163V249V248.5H161V249ZM165 249V249.5H167V249V248.5H165V249ZM169 249V249.5H171V249V248.5H169V249ZM173 249V249.5H175V249V248.5H173V249ZM177 249V249.5H179V249V248.5H177V249ZM181 249V249.5H183V249V248.5H181V249ZM185 249V249.5H187V249V248.5H185V249ZM189 249V249.5H191V249V248.5H189V249ZM193 249V249.5H195V249V248.5H193V249ZM197 249V249.5H199V249V248.5H197V249ZM201 249V249.5H203V249V248.5H201V249ZM205 249V249.5H207V249V248.5H205V249ZM209 249V249.5H211V249V248.5H209V249ZM213 249V249.5H215V249V248.5H213V249ZM217 249V249.5H219V249V248.5H217V249ZM221 249V249.5H223V249V248.5H221V249ZM225 249V249.5H227V249V248.5H225V249ZM229 249V249.5H231V249V248.5H229V249ZM233 249V249.5H235V249V248.5H233V249ZM237 249V249.5H239V249V248.5H237V249ZM241 249V249.5H243V249V248.5H241V249ZM245 249V249.5H247V249V248.5H245V249ZM249 249V249.5H251V249V248.5H249V249ZM253 249V249.5H255V249V248.5H253V249ZM257 249V249.5H259V249V248.5H257V249ZM261 249V249.5H263V249V248.5H261V249ZM265 249V249.5H267V249V248.5H265V249ZM269 249V249.5H271V249V248.5H269V249ZM273 249V249.5H275V249V248.5H273V249ZM277 249V249.5H279V249V248.5H277V249ZM281 249V249.5H283V249V248.5H281V249ZM285 249V249.5H287V249V248.5H285V249ZM289 249V249.5H291V249V248.5H289V249ZM293 249V249.5H295V249V248.5H293V249ZM297 249V249.5H298V249V248.5H297V249ZM42 249V250H43V249V248H42V249ZM45 249V250H47V249V248H45V249ZM49 249V250H51V249V248H49V249ZM53 249V250H55V249V248H53V249ZM57 249V250H59V249V248H57V249ZM61 249V250H63V249V248H61V249ZM65 249V250H67V249V248H65V249ZM69 249V250H71V249V248H69V249ZM73 249V250H75V249V248H73V249ZM77 249V250H79V249V248H77V249ZM81 249V250H83V249V248H81V249ZM85 249V250H87V249V248H85V249ZM89 249V250H91V249V248H89V249ZM93 249V250H95V249V248H93V249ZM97 249V250H99V249V248H97V249ZM101 249V250H103V249V248H101V249ZM105 249V250H107V249V248H105V249ZM109 249V250H111V249V248H109V249ZM113 249V250H115V249V248H113V249ZM117 249V250H119V249V248H117V249ZM121 249V250H123V249V248H121V249ZM125 249V250H127V249V248H125V249ZM129 249V250H131V249V248H129V249ZM133 249V250H135V249V248H133V249ZM137 249V250H139V249V248H137V249ZM141 249V250H143V249V248H141V249ZM145 249V250H147V249V248H145V249ZM149 249V250H151V249V248H149V249ZM153 249V250H155V249V248H153V249ZM157 249V250H159V249V248H157V249ZM161 249V250H163V249V248H161V249ZM165 249V250H167V249V248H165V249ZM169 249V250H171V249V248H169V249ZM173 249V250H175V249V248H173V249ZM177 249V250H179V249V248H177V249ZM181 249V250H183V249V248H181V249ZM185 249V250H187V249V248H185V249ZM189 249V250H191V249V248H189V249ZM193 249V250H195V249V248H193V249ZM197 249V250H199V249V248H197V249ZM201 249V250H203V249V248H201V249ZM205 249V250H207V249V248H205V249ZM209 249V250H211V249V248H209V249ZM213 249V250H215V249V248H213V249ZM217 249V250H219V249V248H217V249ZM221 249V250H223V249V248H221V249ZM225 249V250H227V249V248H225V249ZM229 249V250H231V249V248H229V249ZM233 249V250H235V249V248H233V249ZM237 249V250H239V249V248H237V249ZM241 249V250H243V249V248H241V249ZM245 249V250H247V249V248H245V249ZM249 249V250H251V249V248H249V249ZM253 249V250H255V249V248H253V249ZM257 249V250H259V249V248H257V249ZM261 249V250H263V249V248H261V249ZM265 249V250H267V249V248H265V249ZM269 249V250H271V249V248H269V249ZM273 249V250H275V249V248H273V249ZM277 249V250H279V249V248H277V249ZM281 249V250H283V249V248H281V249ZM285 249V250H287V249V248H285V249ZM289 249V250H291V249V248H289V249ZM293 249V250H295V249V248H293V249ZM297 249V250H298V249V248H297V249Z" fill="#E5E5E5" mask="url(#path-19-inside-4_149_35)"/>
<path d="M89.6094 231.918C91.168 231.93 92.3047 232.867 92.3047 234.227C92.3047 235.586 91.168 236.523 89.6094 236.523C88.0273 236.523 86.9023 235.586 86.9023 234.227C86.9023 232.867 88.0273 231.93 89.6094 231.918ZM89.6094 232.691C88.5664 232.691 87.793 233.324 87.8047 234.227C87.793 235.141 88.5664 235.773 89.6094 235.773C90.6406 235.773 91.4141 235.141 91.4141 234.227C91.4141 233.324 90.6406 232.691 89.6094 232.691ZM95.2578 231.531V236.887H94.3438V231.531H95.2578ZM95.2578 237.391V239.898H89.4102V241.07H95.6328V241.809H88.5078V239.207H94.3438V238.129H88.4844V237.391H95.2578ZM100.508 233.219C100.508 234.637 101.586 235.938 103.098 236.453L102.594 237.18C101.439 236.758 100.531 235.896 100.074 234.812C99.6289 236.037 98.7031 237.004 97.4844 237.473L96.9922 236.734C98.5508 236.148 99.5938 234.754 99.6055 233.148V232.07H100.508V233.219ZM105.172 231.531V234.25H106.742V235.023H105.172V237.871H104.258V231.531H105.172ZM101.832 238.141C103.977 238.141 105.266 238.832 105.266 240.027C105.266 241.246 103.977 241.926 101.832 241.926C99.6875 241.926 98.375 241.246 98.375 240.027C98.375 238.832 99.6875 238.141 101.832 238.141ZM101.832 238.879C100.262 238.879 99.2891 239.312 99.3008 240.027C99.2891 240.766 100.262 241.188 101.832 241.199C103.414 241.188 104.375 240.766 104.375 240.027C104.375 239.312 103.414 238.879 101.832 238.879ZM119.938 236.77V237.531H110.41V236.77H114.699V235.164H115.602V236.77H119.938ZM115.613 232.188C115.613 233.57 117.488 234.73 119.328 234.988L118.953 235.727C117.371 235.451 115.807 234.613 115.156 233.406C114.5 234.619 112.93 235.451 111.336 235.727L110.984 234.988C112.824 234.73 114.688 233.57 114.688 232.188V231.695H115.613V232.188ZM118.73 238.551V241.949H117.805V239.289H111.465V238.551H118.73ZM131.938 231.543V234.977H133.508V235.75H131.938V239.348H131.023V231.543H131.938ZM130.027 232.82V233.57H123.816V232.82H126.465V231.543H127.379V232.82H130.027ZM126.922 234.145C128.41 234.145 129.418 234.906 129.43 236.09C129.418 237.262 128.41 238.012 126.922 238.012C125.422 238.012 124.402 237.262 124.414 236.09C124.402 234.906 125.422 234.145 126.922 234.145ZM126.922 234.871C125.938 234.871 125.281 235.352 125.293 236.09C125.281 236.828 125.938 237.297 126.922 237.285C127.895 237.297 128.551 236.828 128.562 236.09C128.551 235.352 127.895 234.871 126.922 234.871ZM132.418 240.953V241.727H125.422V238.727H126.324V240.953H132.418ZM139.578 232.375C139.578 232.809 139.537 233.23 139.461 233.629H141.875V231.543H142.801V239.277H141.875V236.793H139.109V236.031H141.875V234.391H139.262C138.682 236.084 137.275 237.385 134.82 238.211L134.445 237.473C136.232 236.887 137.369 236.061 138.008 235.035L134.551 235.328L134.387 234.566L138.336 234.379C138.482 233.986 138.576 233.57 138.617 233.137H134.914V232.375H139.578ZM143.07 240.953V241.727H136.168V238.504H137.105V240.953H143.07ZM147.945 232.293C149.586 232.293 150.746 233.289 150.746 234.742C150.746 236.195 149.586 237.191 147.945 237.191C146.305 237.191 145.121 236.195 145.133 234.742C145.121 233.289 146.305 232.293 147.945 232.293ZM147.945 233.102C146.832 233.102 146.023 233.77 146.035 234.742C146.023 235.715 146.832 236.383 147.945 236.383C149.047 236.383 149.844 235.715 149.844 234.742C149.844 233.77 149.047 233.102 147.945 233.102ZM153.078 231.531V241.973H152.164V231.531H153.078ZM144.594 238.891C146.516 238.891 149.164 238.879 151.473 238.539L151.543 239.219C149.164 239.664 146.598 239.676 144.723 239.676L144.594 238.891ZM166.613 231.496V241.996H165.488V231.496H166.613ZM164.117 232.574V233.488H163.027V238.363C163.572 238.328 164.111 238.281 164.633 238.223L164.691 239.043C162.418 239.406 159.922 239.441 157.988 239.453L157.859 238.527L159.242 238.516V233.488H158.141V232.574H164.117ZM160.32 238.492C160.848 238.48 161.393 238.463 161.938 238.434V233.488H160.32V238.492ZM176.727 232.469V233.453C176.715 234.73 176.727 236.184 176.281 238.363L175.191 238.246C175.385 237.35 175.496 236.559 175.555 235.844L169.238 236.219L169.074 235.258L175.613 235C175.637 234.438 175.637 233.928 175.637 233.453V233.383H169.391V232.469H176.727ZM177.828 239.711V240.637H168.254V239.711H171.898V237.051H173V239.711H177.828ZM187.332 231.508V237.449H186.219V231.508H187.332ZM187.332 238.012V241.867H180.43V238.012H187.332ZM181.531 238.902V240.965H186.242V238.902H181.531ZM182.445 232.926C182.434 234.344 183.453 235.621 185.047 236.16L184.496 237.016C183.277 236.611 182.363 235.779 181.883 234.695C181.414 235.85 180.482 236.77 179.223 237.215L178.672 236.336C180.312 235.785 181.309 234.391 181.309 232.926V231.906H182.445V232.926ZM197.469 232.469V233.453C197.457 234.73 197.469 236.184 197.023 238.363L195.934 238.246C196.127 237.35 196.238 236.559 196.297 235.844L189.98 236.219L189.816 235.258L196.355 235C196.379 234.438 196.379 233.928 196.379 233.453V233.383H190.133V232.469H197.469ZM198.57 239.711V240.637H188.996V239.711H192.641V237.051H193.742V239.711H198.57ZM205.953 234.59C205.953 236.254 207.043 238.105 208.637 238.855L208.004 239.723C206.826 239.154 205.895 237.971 205.426 236.594C204.939 238.1 203.955 239.395 202.754 239.992L202.098 239.113C203.691 238.352 204.852 236.371 204.852 234.59V233.477H202.484V232.551H208.238V233.477H205.953V234.59ZM210.477 231.496V235.656H212.164V236.594H210.477V241.996H209.363V231.496H210.477ZM218.633 232.445V233.348H217.637V236.641C218.135 236.6 218.621 236.553 219.09 236.5L219.16 237.332C217.039 237.672 214.602 237.719 212.797 237.719L212.668 236.805L213.957 236.793V233.348H212.961V232.445H218.633ZM220.918 231.508V234.613H222.441V235.551H220.918V239.23H219.805V231.508H220.918ZM221.363 240.871V241.773H214.262V238.492H215.375V240.871H221.363ZM215.035 236.758C215.533 236.752 216.037 236.734 216.547 236.699V233.348H215.035V236.758ZM231.77 231.496V241.996H230.645V231.496H231.77ZM228.641 232.621C228.641 235.691 227.328 238.363 223.73 240.086L223.145 239.184C225.939 237.854 227.299 235.961 227.516 233.512H223.648V232.621H228.641ZM242.375 231.531V241.949H241.484V231.531H242.375ZM240.277 231.754V241.422H239.398V236.359H238.062C237.963 238.387 237.102 239.652 235.812 239.652C234.453 239.652 233.574 238.246 233.574 236.031C233.574 233.816 234.453 232.41 235.812 232.41C237.078 232.41 237.934 233.635 238.051 235.598H239.398V231.754H240.277ZM235.812 233.277C234.969 233.277 234.43 234.332 234.441 236.031C234.43 237.719 234.969 238.785 235.812 238.773C236.656 238.785 237.195 237.719 237.195 236.031C237.195 234.332 236.656 233.277 235.812 233.277ZM247.484 234.332C247.484 236.219 248.691 238.117 250.203 238.809L249.652 239.559C248.469 238.949 247.49 237.701 247.027 236.219C246.564 237.777 245.586 239.113 244.402 239.746L243.805 239.008C245.328 238.258 246.547 236.254 246.547 234.332V232.434H247.484V234.332ZM252.453 231.531V241.973H251.539V235.844H249.066V235.094H251.539V231.531H252.453Z" fill="#333333"/>
<mask id="path-22-inside-5_149_35" fill="white">
<path d="M42 254H298V278H42V254Z"/>
</mask>
<path d="M42 278V278.5H43V278V277.5H42V278ZM45 278V278.5H47V278V277.5H45V278ZM49 278V278.5H51V278V277.5H49V278ZM53 278V278.5H55V278V277.5H53V278ZM57 278V278.5H59V278V277.5H57V278ZM61 278V278.5H63V278V277.5H61V278ZM65 278V278.5H67V278V277.5H65V278ZM69 278V278.5H71V278V277.5H69V278ZM73 278V278.5H75V278V277.5H73V278ZM77 278V278.5H79V278V277.5H77V278ZM81 278V278.5H83V278V277.5H81V278ZM85 278V278.5H87V278V277.5H85V278ZM89 278V278.5H91V278V277.5H89V278ZM93 278V278.5H95V278V277.5H93V278ZM97 278V278.5H99V278V277.5H97V278ZM101 278V278.5H103V278V277.5H101V278ZM105 278V278.5H107V278V277.5H105V278ZM109 278V278.5H111V278V277.5H109V278ZM113 278V278.5H115V278V277.5H113V278ZM117 278V278.5H119V278V277.5H117V278ZM121 278V278.5H123V278V277.5H121V278ZM125 278V278.5H127V278V277.5H125V278ZM129 278V278.5H131V278V277.5H129V278ZM133 278V278.5H135V278V277.5H133V278ZM137 278V278.5H139V278V277.5H137V278ZM141 278V278.5H143V278V277.5H141V278ZM145 278V278.5H147V278V277.5H145V278ZM149 278V278.5H151V278V277.5H149V278ZM153 278V278.5H155V278V277.5H153V278ZM157 278V278.5H159V278V277.5H157V278ZM161 278V278.5H163V278V277.5H161V278ZM165 278V278.5H167V278V277.5H165V278ZM169 278V278.5H171V278V277.5H169V278ZM173 278V278.5H175V278V277.5H173V278ZM177 278V278.5H179V278V277.5H177V278ZM181 278V278.5H183V278V277.5H181V278ZM185 278V278.5H187V278V277.5H185V278ZM189 278V278.5H191V278V277.5H189V278ZM193 278V278.5H195V278V277.5H193V278ZM197 278V278.5H199V278V277.5H197V278ZM201 278V278.5H203V278V277.5H201V278ZM205 278V278.5H207V278V277.5H205V278ZM209 278V278.5H211V278V277.5H209V278ZM213 278V278.5H215V278V277.5H213V278ZM217 278V278.5H219V278V277.5H217V278ZM221 278V278.5H223V278V277.5H221V278ZM225 278V278.5H227V278V277.5H225V278ZM229 278V278.5H231V278V277.5H229V278ZM233 278V278.5H235V278V277.5H233V278ZM237 278V278.5H239V278V277.5H237V278ZM241 278V278.5H243V278V277.5H241V278ZM245 278V278.5H247V278V277.5H245V278ZM249 278V278.5H251V278V277.5H249V278ZM253 278V278.5H255V278V277.5H253V278ZM257 278V278.5H259V278V277.5H257V278ZM261 278V278.5H263V278V277.5H261V278ZM265 278V278.5H267V278V277.5H265V278ZM269 278V278.5H271V278V277.5H269V278ZM273 278V278.5H275V278V277.5H273V278ZM277 278V278.5H279V278V277.5H277V278ZM281 278V278.5H283V278V277.5H281V278ZM285 278V278.5H287V278V277.5H285V278ZM289 278V278.5H291V278V277.5H289V278ZM293 278V278.5H295V278V277.5H293V278ZM297 278V278.5H298V278V277.5H297V278ZM42 278V279H43V278V277H42V278ZM45 278V279H47V278V277H45V278ZM49 278V279H51V278V277H49V278ZM53 278V279H55V278V277H53V278ZM57 278V279H59V278V277H57V278ZM61 278V279H63V278V277H61V278ZM65 278V279H67V278V277H65V278ZM69 278V279H71V278V277H69V278ZM73 278V279H75V278V277H73V278ZM77 278V279H79V278V277H77V278ZM81 278V279H83V278V277H81V278ZM85 278V279H87V278V277H85V278ZM89 278V279H91V278V277H89V278ZM93 278V279H95V278V277H93V278ZM97 278V279H99V278V277H97V278ZM101 278V279H103V278V277H101V278ZM105 278V279H107V278V277H105V278ZM109 278V279H111V278V277H109V278ZM113 278V279H115V278V277H113V278ZM117 278V279H119V278V277H117V278ZM121 278V279H123V278V277H121V278ZM125 278V279H127V278V277H125V278ZM129 278V279H131V278V277H129V278ZM133 278V279H135V278V277H133V278ZM137 278V279H139V278V277H137V278ZM141 278V279H143V278V277H141V278ZM145 278V279H147V278V277H145V278ZM149 278V279H151V278V277H149V278ZM153 278V279H155V278V277H153V278ZM157 278V279H159V278V277H157V278ZM161 278V279H163V278V277H161V278ZM165 278V279H167V278V277H165V278ZM169 278V279H171V278V277H169V278ZM173 278V279H175V278V277H173V278ZM177 278V279H179V278V277H177V278ZM181 278V279H183V278V277H181V278ZM185 278V279H187V278V277H185V278ZM189 278V279H191V278V277H189V278ZM193 278V279H195V278V277H193V278ZM197 278V279H199V278V277H197V278ZM201 278V279H203V278V277H201V278ZM205 278V279H207V278V277H205V278ZM209 278V279H211V278V277H209V278ZM213 278V279H215V278V277H213V278ZM217 278V279H219V278V277H217V278ZM221 278V279H223V278V277H221V278ZM225 278V279H227V278V277H225V278ZM229 278V279H231V278V277H229V278ZM233 278V279H235V278V277H233V278ZM237 278V279H239V278V277H237V278ZM241 278V279H243V278V277H241V278ZM245 278V279H247V278V277H245V278ZM249 278V279H251V278V277H249V278ZM253 278V279H255V278V277H253V278ZM257 278V279H259V278V277H257V278ZM261 278V279H263V278V277H261V278ZM265 278V279H267V278V277H265V278ZM269 278V279H271V278V277H269V278ZM273 278V279H275V278V277H273V278ZM277 278V279H279V278V277H277V278ZM281 278V279H283V278V277H281V278ZM285 278V279H287V278V277H285V278ZM289 278V279H291V278V277H289V278ZM293 278V279H295V278V277H293V278ZM297 278V279H298V278V277H297V278Z" fill="#E5E5E5" mask="url(#path-22-inside-5_149_35)"/>
<path d="M88.0098 260.531V263.25H89.5684V264.023H88.0098V266.754H87.084V260.531H88.0098ZM84.6582 266.953C86.7793 266.953 88.0918 267.691 88.0918 268.934C88.0918 270.199 86.7793 270.926 84.6582 270.926C82.5254 270.926 81.2012 270.199 81.2012 268.934C81.2012 267.691 82.5254 266.953 84.6582 266.953ZM84.6582 267.715C83.0879 267.703 82.1035 268.172 82.1035 268.934C82.1035 269.707 83.0879 270.188 84.6582 270.188C86.2168 270.188 87.2012 269.707 87.2012 268.934C87.2012 268.172 86.2168 267.703 84.6582 267.715ZM84.9629 261.328V262.09H81.2363V265.148C83.3457 265.137 84.5645 265.072 85.959 264.785L86.0527 265.547C84.5996 265.84 83.3457 265.898 81.1426 265.898H80.334V261.328H84.9629ZM98.8262 260.543V268.184H97.9121V260.543H98.8262ZM99.1543 269.953V270.727H92.0996V267.48H93.0137V269.953H99.1543ZM93.916 262.172C93.9043 263.754 94.9941 265.184 96.541 265.746L96.0605 266.484C94.8535 266.021 93.916 265.084 93.459 263.883C92.9961 265.16 92.0469 266.186 90.834 266.672L90.3301 265.957C91.9121 265.348 92.9785 263.812 92.9785 262.172V261.129H93.916V262.172ZM104.006 261.293C105.646 261.293 106.807 262.289 106.807 263.742C106.807 265.195 105.646 266.191 104.006 266.191C102.365 266.191 101.182 265.195 101.193 263.742C101.182 262.289 102.365 261.293 104.006 261.293ZM104.006 262.102C102.893 262.102 102.084 262.77 102.096 263.742C102.084 264.715 102.893 265.383 104.006 265.383C105.107 265.383 105.904 264.715 105.904 263.742C105.904 262.77 105.107 262.102 104.006 262.102ZM109.139 260.531V270.973H108.225V260.531H109.139ZM100.654 267.891C102.576 267.891 105.225 267.879 107.533 267.539L107.604 268.219C105.225 268.664 102.658 268.676 100.783 268.676L100.654 267.891ZM116.932 260.918C118.49 260.93 119.627 261.867 119.627 263.227C119.627 264.586 118.49 265.523 116.932 265.523C115.35 265.523 114.225 264.586 114.225 263.227C114.225 261.867 115.35 260.93 116.932 260.918ZM116.932 261.691C115.889 261.691 115.115 262.324 115.127 263.227C115.115 264.141 115.889 264.773 116.932 264.773C117.963 264.773 118.736 264.141 118.736 263.227C118.736 262.324 117.963 261.691 116.932 261.691ZM122.58 260.531V265.887H121.666V260.531H122.58ZM122.58 266.391V268.898H116.732V270.07H122.955V270.809H115.83V268.207H121.666V267.129H115.807V266.391H122.58ZM127.83 262.219C127.83 263.637 128.908 264.938 130.42 265.453L129.916 266.18C128.762 265.758 127.854 264.896 127.396 263.812C126.951 265.037 126.025 266.004 124.807 266.473L124.314 265.734C125.873 265.148 126.916 263.754 126.928 262.148V261.07H127.83V262.219ZM132.494 260.531V263.25H134.064V264.023H132.494V266.871H131.58V260.531H132.494ZM129.154 267.141C131.299 267.141 132.588 267.832 132.588 269.027C132.588 270.246 131.299 270.926 129.154 270.926C127.01 270.926 125.697 270.246 125.697 269.027C125.697 267.832 127.01 267.141 129.154 267.141ZM129.154 267.879C127.584 267.879 126.611 268.312 126.623 269.027C126.611 269.766 127.584 270.188 129.154 270.199C130.736 270.188 131.697 269.766 131.697 269.027C131.697 268.312 130.736 267.879 129.154 267.879ZM139.467 260.719C141.787 260.719 143.146 261.352 143.146 262.512C143.146 263.695 141.787 264.328 139.467 264.34C137.146 264.328 135.775 263.695 135.775 262.512C135.775 261.352 137.146 260.719 139.467 260.719ZM139.467 261.41C137.732 261.41 136.725 261.832 136.736 262.512C136.725 263.238 137.732 263.637 139.467 263.637C141.189 263.637 142.209 263.238 142.209 262.512C142.209 261.832 141.189 261.41 139.467 261.41ZM144.213 265.043V265.793H134.721V265.043H144.213ZM142.994 266.695V269.027H136.807V270.105H143.311V270.832H135.893V268.348H142.092V267.398H135.869V266.695H142.994ZM153.951 261.328V262.09H152.885V265.418C153.371 265.389 153.84 265.348 154.291 265.289L154.338 265.992C152.311 266.309 149.932 266.332 148.244 266.332L148.127 265.559L149.475 265.547V262.09H148.42V261.328H153.951ZM156.74 260.531V266.965H155.814V265.031H154.057V264.27H155.814V263.168H154.057V262.406H155.814V260.531H156.74ZM153.283 267.188C155.463 267.188 156.775 267.867 156.775 269.051C156.775 270.246 155.463 270.926 153.283 270.926C151.104 270.926 149.791 270.246 149.791 269.051C149.791 267.867 151.104 267.188 153.283 267.188ZM153.283 267.902C151.678 267.902 150.693 268.336 150.705 269.051C150.693 269.777 151.678 270.199 153.283 270.199C154.889 270.199 155.861 269.777 155.861 269.051C155.861 268.336 154.889 267.902 153.283 267.902ZM150.365 265.535C150.898 265.523 151.449 265.506 151.994 265.477V262.09H150.365V265.535ZM166.561 260.531V264.973H168.225V265.746H166.561V270.949H165.635V260.531H166.561ZM158.346 268.172C159.195 268.172 160.186 268.172 161.217 268.137V266.977C160.004 266.842 159.213 266.133 159.225 265.102C159.213 263.93 160.209 263.168 161.686 263.168C163.139 263.168 164.146 263.93 164.158 265.102C164.146 266.133 163.344 266.842 162.143 266.988V268.102C163.115 268.055 164.094 267.979 165.002 267.844L165.061 268.547C162.787 268.934 160.326 268.957 158.498 268.957L158.346 268.172ZM164.814 261.809V262.559H158.533V261.809H161.217V260.555H162.143V261.809H164.814ZM161.686 263.883C160.725 263.883 160.08 264.375 160.08 265.102C160.08 265.828 160.725 266.297 161.686 266.285C162.635 266.297 163.279 265.828 163.279 265.102C163.279 264.375 162.635 263.883 161.686 263.883ZM178.373 265.875V266.625H168.834V265.875H173.146V264.867H170.076V262.441H176.217V261.48H170.041V260.754H177.143V263.133H170.99V264.141H177.365V264.867H174.049V265.875H178.373ZM171.037 267.152V268.172H176.24V267.152H177.143V270.809H170.111V267.152H171.037ZM171.037 270.07H176.24V268.898H171.037V270.07ZM188.135 260.531V270.949H187.256V260.531H188.135ZM185.943 260.812V270.422H185.064V265.559H182.861C182.223 266.771 181.221 267.844 179.768 268.699L179.229 268.031C181.496 266.689 182.633 264.809 182.803 262.629H179.674V261.867H183.717C183.711 262.893 183.547 263.883 183.201 264.809H185.064V260.812H185.943ZM197.861 261.48V266.273H193.045V261.48H197.861ZM193.947 262.23V265.535H196.971V262.23H193.947ZM200.744 260.531V263.707H202.314V264.48H200.744V268.172H199.83V260.531H200.744ZM201.225 269.953V270.727H194.229V267.445H195.131V269.953H201.225ZM212.475 264.914V265.652H202.971V264.914H212.475ZM211.338 263.309V264.059H204.236V260.895H211.232V261.633H205.162V263.309H211.338ZM211.244 266.59V269.004H205.057V270.082H211.561V270.832H204.143V268.312H210.342V267.305H204.119V266.59H211.244ZM216.143 261.34C217.561 261.352 218.58 262.564 218.732 264.516H221.064V260.531H221.979V270.973H221.064V265.277H218.744C218.633 267.316 217.596 268.594 216.143 268.594C214.607 268.594 213.529 267.188 213.529 264.973C213.529 262.758 214.607 261.352 216.143 261.34ZM216.143 262.16C215.111 262.172 214.408 263.273 214.408 264.973C214.408 266.672 215.111 267.773 216.143 267.773C217.162 267.773 217.877 266.672 217.877 264.973C217.877 263.273 217.162 262.172 216.143 262.16ZM233.252 268.852V269.613H223.713V268.852H228.002V266.602H224.838V261.27H225.764V263.156H231.178V261.27H232.08V266.602H228.904V268.852H233.252ZM225.764 265.852H231.178V263.906H225.764V265.852ZM237.178 263.496C237.178 265.148 237.986 266.941 239.369 267.762L238.842 268.477C237.84 267.867 237.119 266.754 236.756 265.488C236.369 266.871 235.596 268.061 234.553 268.699L233.967 268.008C235.408 267.164 236.287 265.312 236.287 263.531V261.516H237.178V263.496ZM243.014 260.531V270.949H242.123V260.531H243.014ZM240.857 260.754V270.422H239.99V265.055H238.221V264.27H239.99V260.754H240.857ZM253.994 268.84V269.613H244.455V268.84H246.822V266.027C245.932 265.564 245.393 264.814 245.393 263.871C245.393 262.254 246.975 261.199 249.201 261.188C251.428 261.199 253.01 262.254 253.01 263.871C253.01 264.797 252.488 265.541 251.627 266.004V268.84H253.994ZM249.201 261.949C247.49 261.938 246.283 262.711 246.283 263.871C246.283 265.031 247.49 265.816 249.201 265.816C250.9 265.816 252.119 265.031 252.119 263.871C252.119 262.711 250.9 261.938 249.201 261.949ZM247.725 268.84H250.701V266.355C250.25 266.479 249.746 266.543 249.201 266.543C248.668 266.543 248.17 266.484 247.725 266.367V268.84ZM255.928 270.07C255.518 270.07 255.166 269.73 255.178 269.309C255.166 268.898 255.518 268.559 255.928 268.559C256.338 268.559 256.678 268.898 256.678 269.309C256.678 269.73 256.338 270.07 255.928 270.07Z" fill="#333333"/>
</svg>
