<svg width="360" height="298" viewBox="0 0 360 298" fill="none" xmlns="http://www.w3.org/2000/svg">
<rect width="360" height="298" rx="15" fill="#FFFDF8"/>
<circle cx="130" cy="39" r="3" fill="#F06C4E"/>
<path d="M150.408 36.738C149.851 37.486 149.228 38.1093 148.538 38.608C148.113 38.916 147.673 39.07 147.218 39.07C146.793 39.07 146.441 38.9307 146.162 38.652C145.898 38.3733 145.744 38.0287 145.7 37.618C146.771 36.914 147.629 36.1367 148.274 35.286C148.92 34.4207 149.272 33.6287 149.33 32.91H146.976C146.507 32.91 146.272 32.6827 146.272 32.228V30.71H149.484C149.294 30.05 149.169 29.5807 149.11 29.302C149.316 29.1407 149.543 29.0087 149.792 28.906C150.056 28.8033 150.32 28.752 150.584 28.752C150.775 28.752 150.98 28.7887 151.2 28.862C151.728 29.0527 151.992 29.39 151.992 29.874C151.992 30.1087 151.912 30.3873 151.75 30.71H154.192C154.662 30.71 154.896 30.9373 154.896 31.392V32.91H151.882C151.868 33.3793 151.765 33.9 151.574 34.472L154.456 36.452C154.97 36.804 155.226 37.2 155.226 37.64C155.226 37.9627 155.102 38.256 154.852 38.52C154.618 38.784 154.332 38.9527 153.994 39.026L150.408 36.738ZM162.068 33.812C162.142 33.988 162.178 34.23 162.178 34.538C162.178 35.0807 162.046 35.5647 161.782 35.99H159.472V37.002C159.472 37.5447 159.443 37.9333 159.384 38.168C159.311 38.5493 159.12 38.8353 158.812 39.026C158.519 39.202 158.079 39.29 157.492 39.29C157.346 39.29 157.082 39.2753 156.7 39.246V29.016H158.724C159.223 29.016 159.472 29.258 159.472 29.742V33.218C159.971 33.13 160.389 33.086 160.726 33.086C161.108 33.086 161.401 33.1447 161.606 33.262C161.812 33.3793 161.966 33.5627 162.068 33.812ZM158.592 40.346C159.062 40.346 159.296 40.5733 159.296 41.028V45.912C158.666 46.4107 157.852 46.7993 156.854 47.078C155.872 47.3567 154.801 47.496 153.642 47.496C153.305 47.496 153.056 47.4887 152.894 47.474C151.662 47.4007 150.672 47.144 149.924 46.704C149.191 46.2787 148.722 45.6847 148.516 44.922C148.399 44.5113 148.34 43.9687 148.34 43.294C148.34 42.3407 148.458 41.358 148.692 40.346H158.592ZM150.98 42.59C150.966 42.722 150.958 42.898 150.958 43.118C150.958 43.6607 151.076 44.0787 151.31 44.372C151.545 44.6507 151.934 44.8487 152.476 44.966C152.916 45.0393 153.364 45.076 153.818 45.076C154.376 45.076 154.904 45.032 155.402 44.944C155.916 44.856 156.319 44.724 156.612 44.548V42.59H150.98ZM177.799 43.91V44.966C177.799 45.538 177.77 45.9413 177.711 46.176C177.638 46.5573 177.447 46.836 177.139 47.012C176.831 47.2027 176.384 47.298 175.797 47.298C175.636 47.298 175.364 47.2833 174.983 47.254V40.632H171.705C170.928 41.7467 169.732 42.304 168.119 42.304C166.682 42.304 165.567 41.8567 164.775 40.962C163.983 40.0527 163.587 38.6593 163.587 36.782C163.587 34.9047 163.99 33.4527 164.797 32.426C165.618 31.3993 166.726 30.886 168.119 30.886C168.926 30.886 169.644 31.0693 170.275 31.436C170.906 31.788 171.412 32.3013 171.793 32.976H174.983V29.016H177.051C177.55 29.016 177.799 29.258 177.799 29.742V43.91ZM168.119 39.752C168.676 39.752 169.109 39.51 169.417 39.026C169.725 38.5273 169.879 37.7207 169.879 36.606C169.879 35.4913 169.725 34.6627 169.417 34.12C169.109 33.5773 168.676 33.306 168.119 33.306C167.562 33.306 167.122 33.5773 166.799 34.12C166.491 34.6627 166.337 35.4913 166.337 36.606C166.337 38.7033 166.931 39.752 168.119 39.752ZM174.983 38.146V35.462H172.563C172.622 35.8287 172.651 36.2687 172.651 36.782C172.651 37.3247 172.622 37.7793 172.563 38.146H174.983ZM196.83 33.702C196.903 33.878 196.94 34.12 196.94 34.428C196.94 34.9707 196.808 35.4547 196.544 35.88H194.234V36.452V37.508C194.234 38.08 194.205 38.4833 194.146 38.718C194.073 39.0993 193.882 39.3853 193.574 39.576C193.281 39.752 192.841 39.84 192.254 39.84C192.107 39.84 191.843 39.8253 191.462 39.796V29.016H193.486C193.985 29.016 194.234 29.258 194.234 29.742V33.108C194.733 33.02 195.151 32.976 195.488 32.976C195.869 32.976 196.163 33.0347 196.368 33.152C196.573 33.2693 196.727 33.4527 196.83 33.702ZM189.592 37.706C189.079 38.1313 188.448 38.454 187.7 38.674C186.952 38.8793 186.167 38.982 185.346 38.982C182.779 38.982 181.313 38.0433 180.946 36.166C180.843 35.55 180.792 34.7727 180.792 33.834C180.792 32.47 180.88 31.0987 181.056 29.72H182.948C183.417 29.72 183.637 29.9767 183.608 30.49C183.579 30.7833 183.549 31.2673 183.52 31.942H186.974V29.72H188.844C189.343 29.72 189.592 29.962 189.592 30.446V37.706ZM183.542 35.286C183.645 36.1073 184.063 36.584 184.796 36.716C185.119 36.7453 185.353 36.76 185.5 36.76C186.101 36.76 186.593 36.65 186.974 36.43V34.054H183.476C183.476 34.5673 183.498 34.978 183.542 35.286ZM188.888 40.126C190.149 40.126 191.213 40.302 192.078 40.654C192.958 40.9913 193.611 41.4533 194.036 42.04C194.461 42.6267 194.674 43.2793 194.674 43.998C194.674 45.0687 194.19 45.9193 193.222 46.55C192.254 47.1807 190.809 47.496 188.888 47.496C186.967 47.496 185.522 47.1807 184.554 46.55C183.586 45.9193 183.102 45.0687 183.102 43.998C183.102 43.2793 183.315 42.6267 183.74 42.04C184.165 41.4533 184.811 40.9913 185.676 40.654C186.556 40.302 187.627 40.126 188.888 40.126ZM188.888 45.12C189.929 45.12 190.677 45.01 191.132 44.79C191.601 44.57 191.836 44.2473 191.836 43.822C191.836 43.3967 191.587 43.052 191.088 42.788C190.589 42.5093 189.856 42.37 188.888 42.37C187.92 42.37 187.187 42.5093 186.688 42.788C186.189 43.052 185.94 43.3967 185.94 43.822C185.94 44.2473 186.167 44.57 186.622 44.79C187.091 45.01 187.847 45.12 188.888 45.12ZM212.561 35.132V36.188C212.561 36.76 212.532 37.1633 212.473 37.398C212.4 37.7793 212.209 38.0653 211.901 38.256C211.608 38.432 211.168 38.52 210.581 38.52C210.434 38.52 210.17 38.5053 209.789 38.476V34.912H207.237V37.222C206.724 37.6327 206.093 37.948 205.345 38.168C204.597 38.3733 203.805 38.476 202.969 38.476C202.676 38.476 202.456 38.4687 202.309 38.454C200.153 38.278 198.921 37.376 198.613 35.748C198.51 35.132 198.459 34.3767 198.459 33.482C198.459 32.2793 198.54 31.0107 198.701 29.676H200.593C201.062 29.676 201.282 29.9327 201.253 30.446C201.224 30.7247 201.194 31.1573 201.165 31.744H204.641V29.676H206.489C206.988 29.676 207.237 29.918 207.237 30.402V32.668H209.789V29.016H211.813C212.312 29.016 212.561 29.258 212.561 29.742V35.132ZM202.441 36.232C202.676 36.276 202.918 36.298 203.167 36.298C203.71 36.298 204.201 36.188 204.641 35.968V33.812H201.143C201.143 34.164 201.158 34.516 201.187 34.868C201.29 35.66 201.708 36.1147 202.441 36.232ZM211.659 39.444C212.143 39.444 212.385 39.6787 212.385 40.148V46C211.857 46.44 211.094 46.7847 210.097 47.034C209.114 47.298 208.036 47.43 206.863 47.43C206.408 47.43 205.946 47.408 205.477 47.364C203.262 47.144 201.935 46.2787 201.495 44.768C201.334 44.1667 201.253 43.4187 201.253 42.524C201.253 41.6293 201.334 40.6027 201.495 39.444H203.409C203.629 39.444 203.783 39.488 203.871 39.576C203.959 39.664 204.003 39.796 204.003 39.972C204.003 40.2067 203.988 40.6027 203.959 41.16H209.723V39.444H211.659ZM205.763 45.032C206.115 45.0907 206.54 45.12 207.039 45.12C208.11 45.12 209.004 44.9807 209.723 44.702V43.338H204.047L204.069 43.58C204.113 43.9907 204.267 44.3133 204.531 44.548C204.81 44.768 205.22 44.9293 205.763 45.032Z" fill="black"/>
<circle cx="230" cy="39" r="3" fill="#F06C4E"/>
<rect x="93" y="210" width="96" height="12" fill="#FFF1CD"/>
<rect x="93" y="127" width="125" height="12" fill="#FFF1CD"/>
<rect x="202" y="87" width="61" height="12" fill="#FFF1CD"/>
<path d="M48.7106 91.91V92.966C48.7106 93.538 48.6812 93.9413 48.6226 94.176C48.5492 94.5573 48.3586 94.836 48.0506 95.012C47.7426 95.2027 47.2952 95.298 46.7086 95.298C46.5472 95.298 46.2759 95.2833 45.8946 95.254V77.016H47.9626C48.4612 77.016 48.7106 77.258 48.7106 77.742V84.474C49.2092 84.386 49.6272 84.342 49.9646 84.342C50.3459 84.342 50.6392 84.4007 50.8446 84.518C51.0499 84.6353 51.2039 84.8187 51.3066 85.068C51.3799 85.244 51.4166 85.486 51.4166 85.794C51.4166 86.3367 51.2846 86.8207 51.0206 87.246H48.7106V91.91ZM43.7826 80.074C44.2812 80.074 44.5306 80.316 44.5306 80.8V82.472H35.6206C35.1219 82.472 34.8726 82.23 34.8726 81.746V80.074H38.5466C38.4732 79.6487 38.3559 79.0107 38.1946 78.16C38.3852 77.9987 38.6126 77.8667 38.8766 77.764C39.1406 77.6613 39.4046 77.61 39.6686 77.61C39.8592 77.61 40.0792 77.6467 40.3286 77.72C40.9152 77.9253 41.2086 78.3507 41.2086 78.996C41.2086 79.304 41.1279 79.6633 40.9666 80.074H43.7826ZM39.7126 83C40.5046 83 41.2012 83.1907 41.8026 83.572C42.4186 83.9387 42.8952 84.452 43.2326 85.112C43.5846 85.772 43.7606 86.52 43.7606 87.356C43.7606 88.6027 43.3939 89.5927 42.6606 90.326C41.9419 91.0447 40.9592 91.404 39.7126 91.404C38.4659 91.404 37.4759 91.0447 36.7426 90.326C36.0239 89.5927 35.6646 88.6027 35.6646 87.356C35.6646 86.52 35.8332 85.772 36.1706 85.112C36.5226 84.452 36.9992 83.9387 37.6006 83.572C38.2166 83.1907 38.9206 83 39.7126 83ZM39.7126 88.984C40.1672 88.984 40.5119 88.83 40.7466 88.522C40.9812 88.214 41.0986 87.774 41.0986 87.202C41.0986 86.63 40.9666 86.1753 40.7026 85.838C40.4532 85.486 40.1232 85.31 39.7126 85.31C39.2872 85.31 38.9499 85.486 38.7006 85.838C38.4512 86.1753 38.3266 86.63 38.3266 87.202C38.3266 87.774 38.4439 88.214 38.6786 88.522C38.9132 88.83 39.2579 88.984 39.7126 88.984ZM66.0914 91.91V92.966C66.0914 93.538 66.0621 93.9413 66.0034 94.176C65.9301 94.5573 65.7394 94.836 65.4314 95.012C65.1234 95.2027 64.6761 95.298 64.0894 95.298C63.9281 95.298 63.6568 95.2833 63.2754 95.254V77.016H65.3434C65.8421 77.016 66.0914 77.258 66.0914 77.742V83.44C66.5901 83.352 67.0081 83.308 67.3454 83.308C67.7268 83.308 68.0201 83.3667 68.2254 83.484C68.4308 83.6013 68.5848 83.7847 68.6874 84.034C68.7608 84.21 68.7974 84.452 68.7974 84.76C68.7974 85.3027 68.6654 85.7867 68.4014 86.212H66.0914V91.91ZM61.3174 87.73C61.3761 87.7153 61.4714 87.708 61.6034 87.708C61.8234 87.708 61.9921 87.7667 62.1094 87.884C62.2414 88.0013 62.3074 88.1627 62.3074 88.368V89.952C61.1928 90.2893 59.9168 90.458 58.4794 90.458C57.7461 90.458 57.1448 90.4213 56.6754 90.348C55.6048 90.2013 54.7761 89.8787 54.1894 89.38C53.6174 88.8667 53.2434 88.1407 53.0674 87.202C52.9354 86.4393 52.8694 85.42 52.8694 84.144C52.8694 82.2373 52.9941 80.5727 53.2434 79.15H55.1354C55.6048 79.15 55.8174 79.3993 55.7734 79.898C55.6708 80.866 55.6194 82.1127 55.6194 83.638C55.6194 84.5767 55.6488 85.2733 55.7074 85.728C55.7661 86.344 55.9274 86.8207 56.1914 87.158C56.4554 87.4807 56.8294 87.7007 57.3134 87.818C57.7534 87.906 58.2521 87.95 58.8094 87.95C59.6454 87.95 60.4814 87.8767 61.3174 87.73ZM72.5823 78.776C73.0809 78.776 73.3303 79.018 73.3303 79.502L73.2643 88.104C73.2643 88.764 73.1396 89.226 72.8903 89.49C72.6556 89.754 72.2009 89.8787 71.5263 89.864L70.5803 89.842L70.4703 78.776H72.5823ZM71.8783 93.934C71.3796 93.934 70.9983 93.8167 70.7343 93.582C70.4849 93.3473 70.3603 93.0173 70.3603 92.592C70.3603 92.1667 70.4996 91.8073 70.7783 91.514C71.0569 91.206 71.4236 91.052 71.8783 91.052C72.3329 91.052 72.6996 91.206 72.9783 91.514C73.2569 91.8073 73.3963 92.1667 73.3963 92.592C73.3963 93.0173 73.2643 93.3473 73.0003 93.582C72.7509 93.8167 72.3769 93.934 71.8783 93.934Z" fill="#F06C4E"/>
<path d="M104.921 81.2422V92.5283H103.918V81.2422H104.921ZM102.318 82.4736V83.2988H101.036V88.7324C101.671 88.688 102.299 88.6309 102.902 88.5547L102.966 89.3037C100.503 89.6846 97.7861 89.7227 95.6914 89.7354L95.5771 88.8848L97.1387 88.8721V83.2988H95.8691V82.4736H102.318ZM98.1162 88.8594C98.751 88.8467 99.4048 88.8213 100.059 88.7832V83.2988H98.1162V88.8594ZM115.852 82.3467V83.4385C115.839 84.8096 115.852 86.3584 115.382 88.6562L114.404 88.542C114.626 87.52 114.741 86.625 114.811 85.8252L107.904 86.2441L107.739 85.3682L114.849 85.0762C114.874 84.4795 114.874 83.9399 114.874 83.4385V83.1719H108.069V82.3467H115.852ZM117.108 90.1416V90.9922H106.825V90.1416H110.862V87.2217H111.84V90.1416H117.108ZM127.379 81.2549V87.666H126.389V81.2549H127.379ZM127.379 88.3135V92.376H120.041V88.3135H127.379ZM121.019 89.126V91.5635H126.401V89.126H121.019ZM122.06 82.8037C122.047 84.4033 123.266 85.8125 124.929 86.3965L124.421 87.1582C123.113 86.7075 122.072 85.7554 121.564 84.5176C121.063 85.8379 120.009 86.8789 118.657 87.374L118.149 86.5869C119.863 85.9902 121.044 84.4668 121.044 82.8037V81.6992H122.06V82.8037ZM138.322 82.3467V83.4385C138.31 84.8096 138.322 86.3584 137.853 88.6562L136.875 88.542C137.097 87.52 137.211 86.625 137.281 85.8252L130.375 86.2441L130.21 85.3682L137.319 85.0762C137.345 84.4795 137.345 83.9399 137.345 83.4385V83.1719H130.54V82.3467H138.322ZM139.579 90.1416V90.9922H129.296V90.1416H133.333V87.2217H134.311V90.1416H139.579ZM147.615 84.708C147.603 86.5234 148.91 88.5166 150.548 89.291L149.977 90.0781C148.707 89.4624 147.634 88.1167 147.133 86.5869C146.612 88.25 145.476 89.71 144.213 90.3574L143.604 89.5703C145.229 88.7832 146.625 86.6377 146.638 84.708V83.2354H144.01V82.4102H150.154V83.2354H147.615V84.708ZM152.528 81.2422V85.8125H154.42V86.6631H152.528V92.5283H151.538V81.2422H152.528ZM161.479 82.3213V83.1338H160.323V86.8662C160.901 86.8281 161.472 86.7773 162.012 86.7139L162.088 87.4629C159.803 87.8184 157.137 87.8691 155.182 87.8691L155.067 87.0439L156.527 87.0186V83.1338H155.385V82.3213H161.479ZM163.853 81.2549V84.6826H165.554V85.5332H163.853V89.5576H162.862V81.2549H163.853ZM164.373 91.4492V92.2871H156.794V88.7705H157.771V91.4492H164.373ZM157.505 87.0059C158.108 86.9868 158.73 86.9678 159.346 86.9297V83.1338H157.505V87.0059ZM175.596 81.2422V92.5283H174.593V81.2422H175.596ZM172.257 82.4736C172.244 85.7236 170.733 88.5928 166.95 90.4082L166.404 89.5957C169.458 88.1484 171.013 85.9839 171.241 83.2861H166.925V82.4736H172.257ZM187.174 81.2422V92.5283H186.209V81.2422H187.174ZM184.901 81.4834V91.957H183.949V86.4727H182.502C182.394 88.6689 181.461 90.04 180.064 90.04C178.592 90.04 177.64 88.5166 177.64 86.1172C177.64 83.7178 178.592 82.1943 180.064 82.1943C181.436 82.1943 182.362 83.521 182.489 85.6475H183.949V81.4834H184.901ZM180.064 83.1338C179.15 83.1338 178.566 84.2764 178.579 86.1172C178.566 87.9453 179.15 89.1006 180.064 89.0879C180.979 89.1006 181.562 87.9453 181.562 86.1172C181.562 84.2764 180.979 83.1338 180.064 83.1338ZM192.709 84.2764C192.709 86.3203 194.017 88.377 195.654 89.126L195.058 89.9385C193.775 89.2783 192.715 87.9263 192.214 86.3203C191.712 88.0088 190.652 89.4561 189.37 90.1416L188.723 89.3418C190.373 88.5293 191.693 86.3584 191.693 84.2764V82.2197H192.709V84.2764ZM198.092 81.2422V92.5537H197.102V85.9141H194.423V85.1016H197.102V81.2422H198.092ZM209.568 82.0293V83.0068H208.477V86.4473C208.959 86.4092 209.422 86.3647 209.873 86.3076L209.924 87.2217C207.74 87.5645 205.188 87.6025 203.36 87.6025L203.208 86.5996L204.592 86.5869V83.0068H203.525V82.0293H209.568ZM212.679 81.2041V88.1992H211.473V86.2188H209.733V85.2539H211.473V84.1494H209.733V83.1846H211.473V81.2041H212.679ZM208.87 88.415C211.27 88.415 212.717 89.1641 212.717 90.4971C212.717 91.792 211.27 92.5664 208.87 92.5537C206.471 92.5664 205.011 91.792 205.023 90.4971C205.011 89.1641 206.471 88.415 208.87 88.415ZM208.87 89.3545C207.194 89.3545 206.217 89.7607 206.217 90.4971C206.217 91.2207 207.194 91.627 208.87 91.627C210.533 91.627 211.523 91.2207 211.523 90.4971C211.523 89.7607 210.533 89.3545 208.87 89.3545ZM205.76 86.5742C206.274 86.5615 206.794 86.5425 207.321 86.5107V83.0068H205.76V86.5742ZM223.343 81.2041V85.9648H225.057V86.9805H223.343V92.5791H222.137V81.2041H223.343ZM214.291 89.4814C215.186 89.4814 216.227 89.4814 217.312 89.4434V88.2881C216.03 88.1104 215.192 87.3359 215.205 86.2314C215.192 84.9492 216.297 84.0986 217.922 84.0986C219.534 84.0986 220.651 84.9492 220.664 86.2314C220.651 87.3359 219.801 88.1167 218.519 88.3008V89.3926C219.528 89.3545 220.543 89.272 221.489 89.1387L221.565 90.0273C219.103 90.4717 216.437 90.4844 214.481 90.4844L214.291 89.4814ZM221.324 82.5498V83.5146H214.507V82.5498H217.312V81.2295H218.519V82.5498H221.324ZM217.922 85.0381C216.97 85.0381 216.335 85.5078 216.335 86.2314C216.335 86.9551 216.97 87.3994 217.922 87.3994C218.874 87.3994 219.509 86.9551 219.509 86.2314C219.509 85.5078 218.874 85.0381 217.922 85.0381ZM229.373 82.0166C231.176 82.0039 232.458 83.1211 232.471 84.7207C232.458 86.3203 231.176 87.4375 229.373 87.4375C227.583 87.4375 226.263 86.3203 226.275 84.7207C226.263 83.1211 227.583 82.0039 229.373 82.0166ZM229.373 83.0576C228.269 83.0576 227.456 83.7178 227.469 84.7207C227.456 85.7236 228.269 86.3838 229.373 86.3838C230.478 86.3838 231.29 85.7236 231.29 84.7207C231.29 83.7178 230.478 83.0576 229.373 83.0576ZM235.073 81.2041V92.6045H233.867V81.2041H235.073ZM225.729 89.1514C227.799 89.1514 230.668 89.126 233.156 88.7705L233.245 89.6465C230.668 90.1416 227.913 90.1543 225.882 90.1543L225.729 89.1514ZM248.987 81.2041V85.9648H250.701V86.9805H248.987V92.5791H247.781V81.2041H248.987ZM239.936 89.4814C240.831 89.4814 241.872 89.4814 242.957 89.4434V88.2881C241.675 88.1104 240.837 87.3359 240.85 86.2314C240.837 84.9492 241.941 84.0986 243.566 84.0986C245.179 84.0986 246.296 84.9492 246.309 86.2314C246.296 87.3359 245.445 88.1167 244.163 88.3008V89.3926C245.172 89.3545 246.188 89.272 247.134 89.1387L247.21 90.0273C244.747 90.4717 242.081 90.4844 240.126 90.4844L239.936 89.4814ZM246.969 82.5498V83.5146H240.151V82.5498H242.957V81.2295H244.163V82.5498H246.969ZM243.566 85.0381C242.614 85.0381 241.979 85.5078 241.979 86.2314C241.979 86.9551 242.614 87.3994 243.566 87.3994C244.519 87.3994 245.153 86.9551 245.153 86.2314C245.153 85.5078 244.519 85.0381 243.566 85.0381ZM261.708 87.1582V88.123H257.188V90.2178H255.995V88.123H251.298V87.1582H261.708ZM260.553 91.3604V92.3379H252.593V89.2275H253.786V91.3604H260.553ZM253.862 81.5596V82.9434H259.131V81.5596H260.337V86.1553H252.669V81.5596H253.862ZM253.862 85.1904H259.131V83.8447H253.862V85.1904ZM267.726 81.4453C270.239 81.4453 271.712 82.1309 271.712 83.3877C271.712 84.6699 270.239 85.3555 267.726 85.3682C265.212 85.3555 263.727 84.6699 263.727 83.3877C263.727 82.1309 265.212 81.4453 267.726 81.4453ZM267.726 82.1943C265.847 82.1943 264.755 82.6514 264.768 83.3877C264.755 84.1748 265.847 84.6064 267.726 84.6064C269.592 84.6064 270.696 84.1748 270.696 83.3877C270.696 82.6514 269.592 82.1943 267.726 82.1943ZM272.867 86.1299V86.9424H262.584V86.1299H272.867ZM271.547 87.9199V90.4463H264.844V91.6143H271.89V92.4014H263.854V89.71H270.569V88.6816H263.828V87.9199H271.547ZM282.744 82.2959C282.744 83.8828 284.826 85.2666 286.857 85.5459L286.451 86.3584C284.699 86.0664 282.966 85.0952 282.236 83.7051C281.513 85.1016 279.773 86.0664 278.021 86.3584L277.615 85.5459C279.646 85.2666 281.716 83.9082 281.716 82.2959V81.6484H282.744V82.2959ZM287.365 87.6025V88.4404H282.693V92.5283H281.716V88.4404H277.082V87.6025H287.365ZM293.675 81.8896V85.0508H289.79V86.7773C291.91 86.7773 293.002 86.7329 294.335 86.4854L294.437 87.3105C293.027 87.5645 291.885 87.6025 289.6 87.5898H288.8V84.251H292.685V82.7148H288.774V81.8896H293.675ZM297.674 81.2549V88.2373H296.671V86.1553H294.437V85.3174H296.671V83.8447H294.437V83.0322H296.671V81.2549H297.674ZM293.941 88.4277C296.29 88.4277 297.712 89.2021 297.712 90.5225C297.712 91.8428 296.29 92.5918 293.941 92.5918C291.58 92.5918 290.146 91.8428 290.146 90.5225C290.146 89.2021 291.58 88.4277 293.941 88.4277ZM293.941 89.2148C292.202 89.2148 291.148 89.6973 291.161 90.5225C291.148 91.335 292.202 91.8047 293.941 91.8047C295.668 91.8047 296.734 91.335 296.734 90.5225C296.734 89.6973 295.668 89.2148 293.941 89.2148ZM308.376 81.2549V84.9746H310.077V85.8125H308.376V89.71H307.386V81.2549H308.376ZM306.307 82.6387V83.4512H299.578V82.6387H302.447V81.2549H303.438V82.6387H306.307ZM302.942 84.0732C304.555 84.0732 305.646 84.8984 305.659 86.1807C305.646 87.4502 304.555 88.2627 302.942 88.2627C301.317 88.2627 300.213 87.4502 300.226 86.1807C300.213 84.8984 301.317 84.0732 302.942 84.0732ZM302.942 84.8604C301.876 84.8604 301.165 85.3809 301.178 86.1807C301.165 86.9805 301.876 87.4883 302.942 87.4756C303.996 87.4883 304.707 86.9805 304.72 86.1807C304.707 85.3809 303.996 84.8604 302.942 84.8604ZM308.896 91.4492V92.2871H301.317V89.0371H302.295V91.4492H308.896ZM319.522 81.2422V85.7109H321.414V86.5488H319.522V92.5537H318.532V81.2422H319.522ZM316.552 82.3467V83.1719H312.273V88.8848C314.317 88.8848 315.765 88.7896 317.44 88.4785L317.567 89.3418C315.803 89.6592 314.317 89.7227 312.172 89.7227H311.283V82.3467H316.552ZM323.217 91.5762C322.772 91.5762 322.392 91.208 322.404 90.751C322.392 90.3066 322.772 89.9385 323.217 89.9385C323.661 89.9385 324.029 90.3066 324.029 90.751C324.029 91.208 323.661 91.5762 323.217 91.5762Z" fill="black" fill-opacity="0.9"/>
<path d="M49.987 135.77C48.799 135.667 47.9043 135.418 47.303 135.022C46.7163 134.626 46.3643 134.076 46.247 133.372C46.203 133.02 46.181 132.624 46.181 132.184C46.181 131.172 46.269 130.219 46.445 129.324H56.477C56.9757 129.324 57.225 129.544 57.225 129.984V131.722H48.887C48.8577 131.927 48.843 132.103 48.843 132.25C48.843 132.617 48.953 132.888 49.173 133.064C49.393 133.24 49.8257 133.357 50.471 133.416C51.0577 133.475 51.857 133.504 52.869 133.504C54.321 133.504 55.553 133.46 56.565 133.372C56.8877 133.343 57.137 133.394 57.313 133.526C57.5037 133.658 57.599 133.871 57.599 134.164V135.528C55.971 135.763 54.3063 135.88 52.605 135.88C51.769 135.88 50.8963 135.843 49.987 135.77ZM53.287 138.872C53.287 139.268 53.2797 139.561 53.265 139.752H56.631C57.0857 139.752 57.313 139.972 57.313 140.412V143.602C57.313 144.115 57.0417 144.372 56.499 144.372H48.777C48.7477 144.592 48.7917 144.761 48.909 144.878C49.041 144.981 49.261 145.061 49.569 145.12C50.1997 145.223 51.263 145.274 52.759 145.274C54.4017 145.274 55.795 145.223 56.939 145.12C57.2177 145.105 57.423 145.149 57.555 145.252C57.7017 145.355 57.775 145.509 57.775 145.714V147.056C56.1617 147.276 54.4457 147.386 52.627 147.386C51.1897 147.386 50.0017 147.313 49.063 147.166C47.611 146.946 46.7237 146.425 46.401 145.604C46.2397 145.193 46.159 144.702 46.159 144.13C46.159 143.661 46.2177 143.147 46.335 142.59H54.827V141.754H47.281C46.577 141.754 46.225 141.446 46.225 140.83V139.752H50.449V138.828H44.465C43.9663 138.828 43.717 138.586 43.717 138.102V136.518H59.249C59.7477 136.518 59.997 136.76 59.997 137.244V138.828H53.287V138.872ZM63.8919 130.776C64.3905 130.776 64.6399 131.018 64.6399 131.502L64.5739 140.104C64.5739 140.764 64.4492 141.226 64.1999 141.49C63.9652 141.754 63.5105 141.879 62.8359 141.864L61.8899 141.842L61.7799 130.776H63.8919ZM63.1879 145.934C62.6892 145.934 62.3079 145.817 62.0439 145.582C61.7945 145.347 61.6699 145.017 61.6699 144.592C61.6699 144.167 61.8092 143.807 62.0879 143.514C62.3665 143.206 62.7332 143.052 63.1879 143.052C63.6425 143.052 64.0092 143.206 64.2879 143.514C64.5665 143.807 64.7059 144.167 64.7059 144.592C64.7059 145.017 64.5739 145.347 64.3099 145.582C64.0605 145.817 63.6865 145.934 63.1879 145.934Z" fill="#F06C4E"/>
<path d="M98.8975 124.85C98.8975 126.132 99.6846 127.414 101.157 127.985L100.51 128.912C99.4688 128.493 98.7324 127.706 98.3262 126.754C97.9009 127.814 97.1265 128.728 96.0283 129.204L95.3682 128.277C96.9043 127.604 97.7295 126.132 97.7295 124.85V123.39H98.8975V124.85ZM105.118 122.717V129.585H103.976V126.614H102.643V129.521H101.525V122.907H102.643V125.611H103.976V122.717H105.118ZM105.118 130.182V134.079H103.925V131.159H97.3867V130.182H105.118ZM116.087 122.704V128.709H114.881V122.704H116.087ZM116.087 129.217V131.959H109.815V133.025H116.468V133.965H108.647V131.096H114.894V130.144H108.609V129.217H116.087ZM113.396 123.847V124.812H110.895C110.99 126.024 112.094 127.128 113.776 127.541L113.23 128.455C111.853 128.112 110.825 127.319 110.298 126.284C109.79 127.395 108.762 128.252 107.378 128.646L106.819 127.706C108.495 127.243 109.581 126.106 109.676 124.812H107.149V123.847H109.676V122.628H110.895V123.847H113.396ZM119.934 132.124L118.918 135.628H117.839L118.512 132.124H119.934ZM130.166 124.316C130.166 126.17 132.146 127.922 134.33 128.315L133.771 129.318C131.956 128.925 130.28 127.731 129.544 126.132C128.795 127.719 127.125 128.912 125.304 129.318L124.771 128.315C126.929 127.909 128.896 126.17 128.896 124.316V123.453H130.166V124.316ZM134.8 131.578V132.581H124.39V131.578H134.8ZM141.947 123.707V124.697H137.517V126.894H141.516V127.858H137.517V130.41C139.51 130.404 140.944 130.321 142.633 130.055L142.76 131.032C140.957 131.324 139.396 131.388 137.25 131.388H136.323V123.707H141.947ZM145.083 122.704V134.079H143.864V122.704H145.083ZM152.662 123.859C152.649 127.211 151.558 130.194 147.521 132.251L146.848 131.337C148.841 130.315 150.072 129.09 150.758 127.643L147.076 127.998L146.886 126.957L151.139 126.69C151.31 126.106 151.418 125.484 151.469 124.837H147.47V123.859H152.662ZM156.331 122.704V134.079H155.138V128.201H152.637V127.211H155.138V122.704H156.331ZM160.14 132.124L159.124 135.628H158.045L158.718 132.124H160.14ZM173.609 123.859V125.078C173.609 126.551 173.609 128.15 173.19 130.575L171.959 130.461C172.416 128.188 172.416 126.513 172.416 125.078V124.85H165.713V123.859H173.609ZM174.968 131.464V132.467H164.596V131.464H174.968ZM185.264 122.717V129.458H184.058V122.717H185.264ZM181.633 123.39V126.589H177.608V127.96C179.595 127.966 181.062 127.896 182.788 127.617L182.94 128.607C181.087 128.899 179.525 128.963 177.38 128.95H176.428V125.649H180.439V124.354H176.402V123.39H181.633ZM185.264 130.029V133.939H177.786V130.029H185.264ZM178.979 130.994V132.962H184.083V130.994H178.979ZM189.11 132.124L188.095 135.628H187.016L187.688 132.124H189.11ZM203.964 128.455V129.433H199.444V131.642H198.251V129.433H193.554V128.455H203.964ZM202.618 123.237V127.274H194.887V123.237H202.618ZM196.067 124.189V126.322H201.425V124.189H196.067ZM202.809 132.86V133.838H194.849V130.562H196.055V132.86H202.809ZM213.854 123.415V124.418C213.854 125.497 213.854 126.665 213.536 128.29H215.174V129.28H210.565V134.092H209.347V129.28H204.802V128.29H212.317C212.66 126.671 212.66 125.478 212.66 124.418V124.405H206.071V123.415H213.854ZM229.634 128.112V128.95H219.338V128.112H229.634ZM228.428 126.221V127.033H220.646V123.199H228.352V124.037H221.623V126.221H228.428ZM224.479 129.94C226.904 129.94 228.352 130.677 228.364 131.972C228.352 133.279 226.904 134.003 224.479 134.003C222.042 134.003 220.582 133.279 220.582 131.972C220.582 130.677 222.042 129.94 224.479 129.94ZM224.479 130.715C222.664 130.728 221.585 131.185 221.598 131.972C221.585 132.771 222.664 133.216 224.479 133.216C226.27 133.216 227.361 132.771 227.361 131.972C227.361 131.185 226.27 130.728 224.479 130.715ZM235.715 123.479C238.076 123.479 239.841 124.71 239.841 126.576C239.841 128.455 238.076 129.687 235.715 129.674C233.354 129.687 231.589 128.455 231.589 126.576C231.589 124.71 233.354 123.479 235.715 123.479ZM235.715 124.291C233.899 124.278 232.528 125.23 232.541 126.576C232.528 127.947 233.899 128.861 235.715 128.861C237.518 128.861 238.876 127.947 238.876 126.576C238.876 125.23 237.518 124.278 235.715 124.291ZM240.907 131.692V132.53H230.573V131.692H240.907ZM252.143 131.794V132.632H241.809V131.794H246.455V129.661H243.104V126.183H249.857V124.405H243.078V123.58H250.835V126.995H244.094V128.836H251.102V129.661H247.433V131.794H252.143ZM260.128 126.208C260.115 128.023 261.423 130.017 263.061 130.791L262.489 131.578C261.22 130.962 260.147 129.617 259.646 128.087C259.125 129.75 257.989 131.21 256.726 131.857L256.116 131.07C257.741 130.283 259.138 128.138 259.15 126.208V124.735H256.522V123.91H262.667V124.735H260.128V126.208ZM265.041 122.742V127.312H266.933V128.163H265.041V134.028H264.051V122.742H265.041ZM276.86 122.755V131.032H275.87V122.755H276.86ZM277.216 132.949V133.787H269.573V130.271H270.563V132.949H277.216ZM271.541 124.52C271.528 126.233 272.709 127.782 274.385 128.392L273.864 129.191C272.557 128.69 271.541 127.674 271.046 126.373C270.544 127.757 269.516 128.868 268.202 129.395L267.656 128.62C269.37 127.96 270.525 126.297 270.525 124.52V123.39H271.541V124.52ZM284.478 123.771V128.963H279.26V123.771H284.478ZM280.237 124.583V128.163H283.513V124.583H280.237ZM287.601 122.742V126.183H289.302V127.021H287.601V131.02H286.61V122.742H287.601ZM288.121 132.949V133.787H280.542V130.232H281.52V132.949H288.121ZM293.707 123.567C295.484 123.567 296.741 124.646 296.741 126.221C296.741 127.795 295.484 128.874 293.707 128.874C291.93 128.874 290.647 127.795 290.66 126.221C290.647 124.646 291.93 123.567 293.707 123.567ZM293.707 124.443C292.501 124.443 291.625 125.167 291.638 126.221C291.625 127.274 292.501 127.998 293.707 127.998C294.9 127.998 295.764 127.274 295.764 126.221C295.764 125.167 294.9 124.443 293.707 124.443ZM299.268 122.742V134.054H298.277V122.742H299.268ZM290.076 130.715C292.158 130.715 295.027 130.702 297.528 130.334L297.604 131.07C295.027 131.553 292.247 131.565 290.216 131.565L290.076 130.715ZM105.093 143.742V155.028H104.115V149.125H102.554V154.47H101.602V144.047H102.554V148.3H104.115V143.742H105.093ZM100.319 145.215C100.307 148.084 99.3037 150.801 96.0537 152.604L95.4697 151.905C98.0913 150.445 99.1768 148.376 99.3418 146.04H95.9014V145.215H100.319ZM110.577 145.52C110.564 147.132 111.707 148.554 113.37 149.112L112.812 149.887C111.567 149.417 110.59 148.503 110.107 147.31C109.619 148.662 108.584 149.715 107.226 150.229L106.68 149.417C108.419 148.808 109.574 147.31 109.587 145.558V144.39H110.577V145.52ZM116.049 143.742V150.433H115.046V146.992H112.532V146.167H115.046V143.742H116.049ZM112.304 150.763C114.652 150.763 116.087 151.537 116.087 152.896C116.087 154.241 114.652 155.003 112.304 155.003C109.955 155.003 108.521 154.241 108.521 152.896C108.521 151.537 109.955 150.763 112.304 150.763ZM112.304 151.55C110.577 151.55 109.498 152.058 109.511 152.896C109.498 153.708 110.577 154.203 112.304 154.203C114.03 154.203 115.097 153.708 115.097 152.896C115.097 152.058 114.03 151.55 112.304 151.55ZM125.012 151.321C125.012 152.318 125.545 153.378 126.624 153.987C127.69 153.321 128.262 152.197 128.262 151.321V150.699H129.239V151.321C129.239 152.477 130.09 153.645 131.537 154.14L131.042 154.876C129.912 154.476 129.119 153.689 128.731 152.743C128.382 153.657 127.69 154.521 126.649 154.965C125.551 154.546 124.853 153.714 124.517 152.769C124.117 153.683 123.336 154.47 122.257 154.876L121.749 154.14C123.171 153.606 124.034 152.4 124.047 151.321V150.699H125.012V151.321ZM130.509 143.755V150.204H129.519V143.755H130.509ZM124.415 144.415C126.129 144.415 127.373 145.481 127.373 147.056C127.373 148.604 126.129 149.671 124.415 149.671C122.701 149.671 121.457 148.604 121.457 147.056C121.457 145.481 122.701 144.415 124.415 144.415ZM124.415 145.266C123.26 145.253 122.422 146.002 122.435 147.056C122.422 148.097 123.26 148.833 124.415 148.846C125.558 148.833 126.396 148.097 126.396 147.056C126.396 146.002 125.558 145.253 124.415 145.266ZM141.554 147.17V147.97H133.822V144.161H134.812V147.17H141.554ZM142.747 149.506V150.318H132.413V149.506H142.747ZM141.617 153.924V154.749H133.759V151.474H134.749V153.924H141.617ZM155.684 143.742V148.554H157.486V149.392H155.684V155.028H154.681V143.742H155.684ZM146.784 152.02C147.705 152.02 148.777 152.02 149.895 151.981V150.725C148.581 150.579 147.724 149.811 147.736 148.693C147.724 147.424 148.803 146.599 150.402 146.599C151.977 146.599 153.068 147.424 153.081 148.693C153.068 149.811 152.199 150.579 150.897 150.737V151.943C151.951 151.893 153.011 151.81 153.995 151.664L154.059 152.426C151.596 152.845 148.93 152.87 146.949 152.87L146.784 152.02ZM153.792 145.126V145.938H146.987V145.126H149.895V143.768H150.897V145.126H153.792ZM150.402 147.373C149.361 147.373 148.663 147.906 148.663 148.693C148.663 149.48 149.361 149.988 150.402 149.976C151.431 149.988 152.129 149.48 152.129 148.693C152.129 147.906 151.431 147.373 150.402 147.373ZM168.48 149.722V150.534H163.885V152.743H162.895V150.534H158.146V149.722H168.48ZM167.325 153.949V154.787H159.467V151.702H160.457V153.949H167.325ZM160.521 144.11V145.558H166.106V144.11H167.097V148.617H159.53V144.11H160.521ZM160.521 147.805H166.106V146.319H160.521V147.805ZM174.536 143.945C177.05 143.945 178.522 144.631 178.522 145.888C178.522 147.17 177.05 147.855 174.536 147.868C172.022 147.855 170.537 147.17 170.537 145.888C170.537 144.631 172.022 143.945 174.536 143.945ZM174.536 144.694C172.657 144.694 171.565 145.151 171.578 145.888C171.565 146.675 172.657 147.106 174.536 147.106C176.402 147.106 177.507 146.675 177.507 145.888C177.507 145.151 176.402 144.694 174.536 144.694ZM179.678 148.63V149.442H169.395V148.63H179.678ZM178.357 150.42V152.946H171.654V154.114H178.7V154.901H170.664V152.21H177.38V151.182H170.639V150.42H178.357ZM194.176 149.227V150.064H189.517V155.041H188.526V150.064H183.893V149.227H186.863C187.32 147.494 187.403 146.186 187.435 145.354H184.718V144.542H188.399V144.885C188.399 145.602 188.399 147.087 187.879 149.227H191.586C191.979 147.468 192.024 146.192 192.03 145.354H189.237V144.542H193.021V145.037C193.021 145.812 193.021 147.208 192.602 149.227H194.176ZM200.727 144.872V146.459H203.494V143.742H204.484V155.054H203.494V150.395H200.727V152.172H195.585V144.872H200.727ZM196.575 145.659V151.372H199.762V145.659H196.575ZM200.727 149.569H203.494V147.284H200.727V149.569ZM208.725 144.199V145.634H214.311V144.199H215.301V148.706H212V149.912H216.646V150.737H206.363V149.912H211.01V148.706H207.734V144.199H208.725ZM208.725 147.906H214.311V146.421H208.725V147.906ZM215.504 153.949V154.787H207.696V151.639H208.699V153.949H215.504ZM226.333 143.742V148.211H228.225V149.049H226.333V155.054H225.343V143.742H226.333ZM223.362 144.847V145.672H219.084V151.385C221.128 151.385 222.575 151.29 224.251 150.979L224.378 151.842C222.613 152.159 221.128 152.223 218.982 152.223H218.094V144.847H223.362ZM230.027 154.076C229.583 154.076 229.202 153.708 229.215 153.251C229.202 152.807 229.583 152.438 230.027 152.438C230.472 152.438 230.84 152.807 230.84 153.251C230.84 153.708 230.472 154.076 230.027 154.076Z" fill="black"/>
<path d="M58.897 200.19V201.246C58.897 201.818 58.8677 202.221 58.809 202.456C58.7357 202.837 58.5523 203.123 58.259 203.314C57.9657 203.49 57.5477 203.578 57.005 203.578C56.8877 203.578 56.6383 203.563 56.257 203.534V191.016H58.149C58.6477 191.016 58.897 191.258 58.897 191.742V200.19ZM52.627 196.956C52.4803 196.971 52.2823 196.978 52.033 196.978C51.5783 196.978 51.2263 196.927 50.977 196.824C50.7423 196.707 50.581 196.545 50.493 196.34C50.405 196.164 50.361 195.915 50.361 195.592C50.361 195.196 50.427 194.815 50.559 194.448H52.627V191.258H54.409C54.9077 191.258 55.157 191.5 55.157 191.984V200.476C55.157 200.872 55.0983 201.173 54.981 201.378C54.8637 201.583 54.673 201.723 54.409 201.796C54.2037 201.869 53.9397 201.906 53.617 201.906C53.397 201.906 53.067 201.877 52.627 201.818V196.956ZM46.929 200.498C46.489 201.07 46.0123 201.356 45.499 201.356C45.1763 201.356 44.8683 201.275 44.575 201.114C44.2963 200.938 44.069 200.711 43.893 200.432C44.8757 199.127 45.6163 197.807 46.115 196.472C46.6137 195.137 46.863 193.854 46.863 192.622V191.896H48.733C49.129 191.896 49.327 192.087 49.327 192.468V193.062C49.327 193.737 49.2317 194.514 49.041 195.394L51.461 199.09C51.725 199.457 51.857 199.772 51.857 200.036C51.857 200.227 51.791 200.425 51.659 200.63C51.4097 200.997 50.8963 201.239 50.119 201.356L48.095 198.342C47.743 199.149 47.3543 199.867 46.929 200.498ZM57.753 206.306C58.4423 206.57 58.787 206.988 58.787 207.56C58.787 208.249 58.457 208.755 57.797 209.078L52.319 206.944C51.483 207.663 50.515 208.242 49.415 208.682C48.8137 208.917 48.3077 209.034 47.897 209.034C47.6183 209.034 47.3617 208.975 47.127 208.858C46.863 208.726 46.6503 208.521 46.489 208.242C46.3423 207.963 46.2617 207.626 46.247 207.23C49.8843 205.91 51.7103 204.568 51.725 203.204V202.588H53.507C53.7563 202.588 53.9397 202.654 54.057 202.786C54.1743 202.903 54.233 203.094 54.233 203.358C54.233 203.871 54.145 204.348 53.969 204.788L57.753 206.306ZM63.8919 192.776C64.3905 192.776 64.6399 193.018 64.6399 193.502L64.5739 202.104C64.5739 202.764 64.4492 203.226 64.1999 203.49C63.9652 203.754 63.5105 203.879 62.8359 203.864L61.8899 203.842L61.7799 192.776H63.8919ZM63.1879 207.934C62.6892 207.934 62.3079 207.817 62.0439 207.582C61.7945 207.347 61.6699 207.017 61.6699 206.592C61.6699 206.167 61.8092 205.807 62.0879 205.514C62.3665 205.206 62.7332 205.052 63.1879 205.052C63.6425 205.052 64.0092 205.206 64.2879 205.514C64.5665 205.807 64.7059 206.167 64.7059 206.592C64.7059 207.017 64.5739 207.347 64.3099 207.582C64.0605 207.817 63.6865 207.934 63.1879 207.934Z" fill="#F06C4E"/>
<path d="M98.8975 185.275C100.548 185.275 101.703 186.164 101.703 187.51C101.703 188.671 100.789 189.516 99.4307 189.681V190.785C100.484 190.741 101.557 190.646 102.541 190.493L102.617 191.242C100.23 191.674 97.5264 191.699 95.5713 191.699L95.4443 190.874C96.3203 190.88 97.3486 190.874 98.4277 190.836V189.693C97.0312 189.541 96.0918 188.69 96.1045 187.51C96.0918 186.164 97.2471 185.275 98.8975 185.275ZM98.8975 186.05C97.8057 186.05 97.0312 186.634 97.0439 187.51C97.0312 188.36 97.8057 188.944 98.8975 188.957C100.002 188.944 100.751 188.36 100.764 187.51C100.751 186.634 100.002 186.05 98.8975 186.05ZM104.268 184.755V188.576H105.956V189.427H104.268V193.388H103.265V184.755H104.268ZM104.674 194.937V195.774H97.0947V192.639H98.0977V194.937H104.674ZM110.577 186.52C110.564 188.132 111.707 189.554 113.37 190.112L112.812 190.887C111.567 190.417 110.59 189.503 110.107 188.31C109.619 189.662 108.584 190.715 107.226 191.229L106.68 190.417C108.419 189.808 109.574 188.31 109.587 186.558V185.39H110.577V186.52ZM116.049 184.742V191.433H115.046V187.992H112.532V187.167H115.046V184.742H116.049ZM112.304 191.763C114.652 191.763 116.087 192.537 116.087 193.896C116.087 195.241 114.652 196.003 112.304 196.003C109.955 196.003 108.521 195.241 108.521 193.896C108.521 192.537 109.955 191.763 112.304 191.763ZM112.304 192.55C110.577 192.55 109.498 193.058 109.511 193.896C109.498 194.708 110.577 195.203 112.304 195.203C114.03 195.203 115.097 194.708 115.097 193.896C115.097 193.058 114.03 192.55 112.304 192.55ZM124.491 188.449V189.262H122.206V190.836C123.26 190.792 124.313 190.715 125.291 190.607L125.367 191.344C122.942 191.674 120.251 191.75 118.131 191.75L117.979 190.938C118.969 190.931 120.08 190.918 121.216 190.874V189.262H119.007V185.479H124.402V186.304H120.01V188.449H124.491ZM127.233 184.755V193.197H126.23V184.755H127.233ZM127.602 194.949V195.787H119.908V192.613H120.898V194.949H127.602ZM141.186 184.742V189.554H142.988V190.392H141.186V196.028H140.183V184.742H141.186ZM132.286 193.02C133.207 193.02 134.279 193.02 135.396 192.981V191.725C134.083 191.579 133.226 190.811 133.238 189.693C133.226 188.424 134.305 187.599 135.904 187.599C137.479 187.599 138.57 188.424 138.583 189.693C138.57 190.811 137.701 191.579 136.399 191.737V192.943C137.453 192.893 138.513 192.81 139.497 192.664L139.561 193.426C137.098 193.845 134.432 193.87 132.451 193.87L132.286 193.02ZM139.294 186.126V186.938H132.489V186.126H135.396V184.768H136.399V186.126H139.294ZM135.904 188.373C134.863 188.373 134.165 188.906 134.165 189.693C134.165 190.48 134.863 190.988 135.904 190.976C136.933 190.988 137.631 190.48 137.631 189.693C137.631 188.906 136.933 188.373 135.904 188.373ZM153.982 190.722V191.534H149.387V193.743H148.396V191.534H143.648V190.722H153.982ZM152.827 194.949V195.787H144.969V192.702H145.959V194.949H152.827ZM146.022 185.11V186.558H151.608V185.11H152.599V189.617H145.032V185.11H146.022ZM146.022 188.805H151.608V187.319H146.022V188.805ZM160.038 184.945C162.552 184.945 164.024 185.631 164.024 186.888C164.024 188.17 162.552 188.855 160.038 188.868C157.524 188.855 156.039 188.17 156.039 186.888C156.039 185.631 157.524 184.945 160.038 184.945ZM160.038 185.694C158.159 185.694 157.067 186.151 157.08 186.888C157.067 187.675 158.159 188.106 160.038 188.106C161.904 188.106 163.009 187.675 163.009 186.888C163.009 186.151 161.904 185.694 160.038 185.694ZM165.18 189.63V190.442H154.896V189.63H165.18ZM163.859 191.42V193.946H157.156V195.114H164.202V195.901H156.166V193.21H162.882V192.182H156.141V191.42H163.859ZM175.945 185.72V186.469H173.432C173.451 187.396 174.663 188.145 176.212 188.386L175.856 189.122C174.504 188.894 173.438 188.303 172.962 187.472C172.479 188.348 171.407 188.982 170.042 189.236L169.687 188.513C171.235 188.246 172.435 187.446 172.454 186.469H169.953V185.72H172.454V184.717H173.432V185.72H175.945ZM173.432 188.716V189.935C174.473 189.884 175.52 189.801 176.491 189.668L176.555 190.366C174.168 190.772 171.502 190.798 169.509 190.785L169.382 190.011C170.29 190.011 171.35 190.004 172.454 189.973V188.716H173.432ZM178.205 191.661V194.086H171.87V195.14H178.637V195.901H170.88V193.362H177.215V192.41H170.854V191.661H178.205ZM178.205 184.742V187.472H179.894V188.297H178.205V191.166H177.202V184.742H178.205ZM183.74 185.428C184.692 185.421 185.505 185.777 186.025 186.38H188.983V184.742H189.986V191.433H188.983V189.82H186.038C185.505 190.423 184.692 190.779 183.74 190.772C182.052 190.785 180.808 189.681 180.808 188.106C180.808 186.52 182.052 185.415 183.74 185.428ZM183.74 186.291C182.585 186.278 181.76 187.04 181.76 188.106C181.76 189.16 182.585 189.922 183.74 189.922C184.857 189.922 185.695 189.16 185.695 188.106C185.695 187.04 184.857 186.278 183.74 186.291ZM186.241 191.699C188.577 191.699 190.024 192.486 190.024 193.845C190.024 195.216 188.577 196.003 186.241 196.003C183.893 196.003 182.458 195.216 182.458 193.845C182.458 192.486 183.893 191.699 186.241 191.699ZM186.241 192.474C184.515 192.474 183.436 192.994 183.436 193.845C183.436 194.695 184.515 195.203 186.241 195.203C187.98 195.203 189.047 194.695 189.047 193.845C189.047 192.994 187.98 192.474 186.241 192.474ZM186.508 187.192C186.603 187.472 186.66 187.776 186.66 188.106C186.66 188.424 186.603 188.722 186.508 188.995H188.983V187.192H186.508ZM197.502 186.697V187.51H191.84V186.697H194.188V185.085H195.179V186.697H197.502ZM194.671 188.271C196.093 188.271 197.108 189.338 197.121 190.836C197.108 192.347 196.093 193.426 194.671 193.426C193.262 193.426 192.246 192.347 192.246 190.836C192.246 189.338 193.262 188.271 194.671 188.271ZM194.671 189.109C193.782 189.122 193.135 189.846 193.135 190.836C193.135 191.839 193.782 192.562 194.671 192.55C195.572 192.562 196.232 191.839 196.232 190.836C196.232 189.846 195.572 189.122 194.671 189.109ZM201.476 184.742V196.028H200.523V190.328H199.025V195.47H198.086V185.021H199.025V189.503H200.523V184.742H201.476ZM104.852 205.717V213.981H103.646V205.717H104.852ZM105.194 215.86V216.838H97.4121V213.144H98.6309V215.86H105.194ZM98.6816 206.479C100.396 206.479 101.703 207.646 101.703 209.297C101.703 210.973 100.396 212.128 98.6816 212.128C96.9678 212.128 95.6475 210.973 95.6475 209.297C95.6475 207.646 96.9678 206.479 98.6816 206.479ZM98.6816 207.532C97.6152 207.532 96.8281 208.256 96.8281 209.297C96.8281 210.363 97.6152 211.074 98.6816 211.074C99.7227 211.074 100.522 210.363 100.522 209.297C100.522 208.256 99.7227 207.532 98.6816 207.532ZM112.431 207.316C112.431 209.17 114.411 210.922 116.595 211.315L116.036 212.318C114.221 211.925 112.545 210.731 111.809 209.132C111.06 210.719 109.39 211.912 107.568 212.318L107.035 211.315C109.193 210.909 111.161 209.17 111.161 207.316V206.453H112.431V207.316ZM117.064 214.578V215.581H106.654V214.578H117.064ZM123.729 206.707V207.697H119.591V209.894H123.501V210.858H119.591V213.41C121.489 213.404 122.892 213.321 124.542 213.055L124.656 214.032C122.904 214.324 121.381 214.388 119.286 214.388H118.372V206.707H123.729ZM126.751 205.704V210.186H128.579V211.201H126.751V217.079H125.545V205.704H126.751ZM138.139 206.859V208.078C138.139 209.551 138.139 211.15 137.72 213.575L136.488 213.461C136.945 211.188 136.945 209.513 136.945 208.078V207.85H130.242V206.859H138.139ZM139.497 214.464V215.467H129.125V214.464H139.497ZM150.06 205.717V212.471H148.917V209.513H147.521V212.344H146.391V205.92H147.521V208.522H148.917V205.717H150.06ZM150.06 212.979V216.939H142.455V212.979H150.06ZM143.661 213.943V215.962H148.879V213.943H143.661ZM145.159 206.428V209.627H142.036V211.049C143.445 211.036 144.518 210.973 145.769 210.731L145.896 211.696C144.461 211.963 143.28 212.001 141.617 212.001H140.868V208.7H144.004V207.393H140.843V206.428H145.159ZM160.546 207.316C160.546 209.17 162.526 210.922 164.71 211.315L164.151 212.318C162.336 211.925 160.66 210.731 159.924 209.132C159.175 210.719 157.505 211.912 155.684 212.318L155.15 211.315C157.309 210.909 159.276 209.17 159.276 207.316V206.453H160.546V207.316ZM165.18 214.578V215.581H154.77V214.578H165.18ZM175.234 211.531V212.496H171.794V214.718H176.415V215.708H166.005V214.718H170.588V212.496H167.312V206.58H175.12V207.57H168.531V209.03H174.879V209.982H168.531V211.531H175.234ZM186.686 205.704V217.104H185.479V205.704H186.686ZM183.207 206.732V210.884H179.119V213.372C180.96 213.366 182.572 213.283 184.477 212.966L184.591 213.956C182.572 214.299 180.858 214.375 178.853 214.375H177.888V209.919H181.976V207.71H177.875V206.732H183.207ZM198.188 205.742V217.028H197.223V205.742H198.188ZM195.915 205.983V216.457H194.963V210.973H193.516C193.408 213.169 192.475 214.54 191.078 214.54C189.605 214.54 188.653 213.017 188.653 210.617C188.653 208.218 189.605 206.694 191.078 206.694C192.449 206.694 193.376 208.021 193.503 210.147H194.963V205.983H195.915ZM191.078 207.634C190.164 207.634 189.58 208.776 189.593 210.617C189.58 212.445 190.164 213.601 191.078 213.588C191.992 213.601 192.576 212.445 192.576 210.617C192.576 208.776 191.992 207.634 191.078 207.634ZM206.122 206.275C207.639 206.263 208.788 207.145 209.004 208.446H211.365V205.742H212.368V211.798H211.365V209.271H209.017C208.813 210.604 207.652 211.493 206.122 211.493C204.408 211.493 203.189 210.427 203.189 208.878C203.189 207.342 204.408 206.263 206.122 206.275ZM206.122 207.126C204.967 207.113 204.142 207.837 204.142 208.878C204.142 209.906 204.967 210.655 206.122 210.655C207.265 210.655 208.077 209.906 208.077 208.878C208.077 207.837 207.265 207.113 206.122 207.126ZM206.097 212.369V213.804H211.365V212.369H212.368V216.876H205.094V212.369H206.097ZM206.097 216.063H211.365V214.604H206.097V216.063ZM224.581 214.794V215.632H214.247V214.794H218.894V212.661H215.542V209.183H222.296V207.405H215.517V206.58H223.273V209.995H216.532V211.836H223.54V212.661H219.871V214.794H224.581ZM234.598 211.176V212.001H226.803V206.796H234.483V207.621H227.793V211.176H234.598ZM235.816 214.654V215.492H225.482V214.654H235.816ZM238.546 206.809L238.457 213.41H237.391L237.302 206.809H238.546ZM237.924 216.076C237.479 216.076 237.099 215.708 237.111 215.251C237.099 214.807 237.479 214.438 237.924 214.438C238.368 214.438 238.736 214.807 238.736 215.251C238.736 215.708 238.368 216.076 237.924 216.076Z" fill="black"/>
</svg>
