<svg width="360" height="24" viewBox="0 0 360 24" fill="none" xmlns="http://www.w3.org/2000/svg">
<path d="M99.6083 7.172H101.456V11.372H101.498L105.026 7.172H107.35L103.402 11.708L107.658 17H105.236L101.498 12.114H101.456V17H99.6083V7.172ZM116.331 12.086C116.331 12.8327 116.233 13.5233 116.037 14.158C115.851 14.7927 115.571 15.3433 115.197 15.81C114.824 16.2673 114.367 16.6267 113.825 16.888C113.293 17.1493 112.682 17.28 111.991 17.28C111.301 17.28 110.685 17.1493 110.143 16.888C109.611 16.6267 109.159 16.2673 108.785 15.81C108.412 15.3433 108.127 14.7927 107.931 14.158C107.745 13.5233 107.651 12.8327 107.651 12.086C107.651 11.3393 107.745 10.6487 107.931 10.014C108.127 9.37933 108.412 8.83333 108.785 8.376C109.159 7.90933 109.611 7.54533 110.143 7.284C110.685 7.02267 111.301 6.892 111.991 6.892C112.682 6.892 113.293 7.02267 113.825 7.284C114.367 7.54533 114.824 7.90933 115.197 8.376C115.571 8.83333 115.851 9.37933 116.037 10.014C116.233 10.6487 116.331 11.3393 116.331 12.086ZM114.483 12.086C114.483 11.6007 114.432 11.1387 114.329 10.7C114.236 10.252 114.087 9.86467 113.881 9.538C113.676 9.21133 113.415 8.95 113.097 8.754C112.789 8.558 112.421 8.46 111.991 8.46C111.562 8.46 111.189 8.558 110.871 8.754C110.563 8.95 110.307 9.21133 110.101 9.538C109.896 9.86467 109.742 10.252 109.639 10.7C109.546 11.1387 109.499 11.6007 109.499 12.086C109.499 12.5807 109.546 13.0473 109.639 13.486C109.742 13.9247 109.896 14.3073 110.101 14.634C110.307 14.9607 110.563 15.222 110.871 15.418C111.189 15.614 111.562 15.712 111.991 15.712C112.421 15.712 112.789 15.614 113.097 15.418C113.415 15.222 113.676 14.9607 113.881 14.634C114.087 14.3073 114.236 13.9247 114.329 13.486C114.432 13.0473 114.483 12.5807 114.483 12.086ZM118.147 7.172H119.995V17H118.147V7.172ZM126.407 17.28C125.698 17.28 125.059 17.1587 124.489 16.916C123.929 16.6733 123.449 16.328 123.047 15.88C122.655 15.432 122.352 14.886 122.137 14.242C121.923 13.598 121.815 12.87 121.815 12.058C121.815 11.274 121.927 10.5647 122.151 9.93C122.375 9.29533 122.693 8.754 123.103 8.306C123.514 7.858 124.004 7.51267 124.573 7.27C125.143 7.018 125.773 6.892 126.463 6.892C127.051 6.892 127.569 6.98533 128.017 7.172C128.465 7.34933 128.834 7.55933 129.123 7.802L128.255 9.076C128.003 8.88933 127.733 8.74 127.443 8.628C127.163 8.516 126.837 8.46 126.463 8.46C126.034 8.46 125.647 8.544 125.301 8.712C124.956 8.88 124.662 9.12267 124.419 9.44C124.177 9.75733 123.99 10.14 123.859 10.588C123.729 11.0267 123.663 11.5167 123.663 12.058C123.663 12.6273 123.733 13.1407 123.873 13.598C124.013 14.046 124.205 14.4287 124.447 14.746C124.699 15.054 124.998 15.292 125.343 15.46C125.689 15.628 126.067 15.712 126.477 15.712C126.823 15.712 127.163 15.6513 127.499 15.53C127.835 15.3993 128.139 15.236 128.409 15.04L129.235 16.412C128.517 16.9907 127.574 17.28 126.407 17.28ZM135.697 14.774H132.267L131.567 17H129.677L133.079 7.172H134.899L138.301 17H136.411L135.697 14.774ZM132.771 13.206H135.207L133.989 9.37L132.771 13.206ZM152.085 6.57H153.933V15.208H152.085V6.57ZM147.535 17.378H154.227V18.946H146.765C146.382 18.946 146.107 18.862 145.939 18.694C145.771 18.526 145.687 18.2507 145.687 17.868V14.634H147.535V17.378ZM150.153 10.07C150.153 10.5647 150.064 11.0127 149.887 11.414C149.719 11.806 149.481 12.142 149.173 12.422C148.874 12.702 148.519 12.9167 148.109 13.066C147.698 13.2153 147.259 13.29 146.793 13.29C146.317 13.29 145.873 13.2247 145.463 13.094C145.052 12.9633 144.697 12.7673 144.399 12.506C144.1 12.2353 143.862 11.8993 143.685 11.498C143.517 11.0967 143.433 10.6207 143.433 10.07C143.433 9.57533 143.517 9.132 143.685 8.74C143.862 8.33867 144.1 7.998 144.399 7.718C144.697 7.438 145.052 7.22333 145.463 7.074C145.873 6.92467 146.317 6.85 146.793 6.85C147.259 6.85 147.693 6.92933 148.095 7.088C148.505 7.23733 148.86 7.452 149.159 7.732C149.467 8.012 149.709 8.35267 149.887 8.754C150.064 9.146 150.153 9.58467 150.153 10.07ZM148.361 10.07C148.361 9.80867 148.319 9.57533 148.235 9.37C148.151 9.15533 148.034 8.97333 147.885 8.824C147.745 8.67467 147.577 8.56267 147.381 8.488C147.194 8.41333 146.998 8.376 146.793 8.376C146.354 8.376 145.981 8.52067 145.673 8.81C145.374 9.09933 145.225 9.51933 145.225 10.07C145.225 10.6207 145.374 11.0407 145.673 11.33C145.981 11.6193 146.354 11.764 146.793 11.764C147.231 11.764 147.6 11.624 147.899 11.344C148.207 11.0547 148.361 10.63 148.361 10.07ZM161.873 6.682C162.05 6.92467 162.265 7.22333 162.517 7.578C162.769 7.92333 163.035 8.292 163.315 8.684C163.604 9.076 163.903 9.482 164.211 9.902C164.519 10.322 164.813 10.728 165.093 11.12C165.382 11.5027 165.648 11.862 165.891 12.198C166.143 12.534 166.353 12.814 166.521 13.038L165.149 14.116C164.944 13.8453 164.682 13.5 164.365 13.08C164.057 12.66 163.74 12.2307 163.413 11.792C163.096 11.344 162.788 10.9193 162.489 10.518C162.2 10.1073 161.971 9.776 161.803 9.524C161.635 9.76667 161.411 10.0793 161.131 10.462C160.86 10.8353 160.566 11.2413 160.249 11.68C159.932 12.1093 159.61 12.5433 159.283 12.982C158.966 13.4207 158.676 13.822 158.415 14.186L156.973 13.108C157.169 12.856 157.393 12.5573 157.645 12.212C157.906 11.8667 158.182 11.498 158.471 11.106C158.77 10.714 159.068 10.3127 159.367 9.902C159.675 9.482 159.974 9.076 160.263 8.684C160.552 8.292 160.823 7.92333 161.075 7.578C161.327 7.23267 161.546 6.934 161.733 6.682H161.873ZM167.487 15.74V17.308H156.007V15.74H167.487ZM169.029 7.158H175.357V8.726H170.877V10.616H175.007V12.184H170.877V14.34H175.987V15.908H170.247C169.435 15.908 169.029 15.502 169.029 14.69V7.158ZM180.691 12.086H178.885V18.232H177.037V6.57H178.885V10.518H180.691V12.086ZM192.971 15.74V17.308H181.491V15.74H192.971ZM191.585 7.116V13.626H189.737V8.684H182.737V7.116H191.585ZM196.46 14.396H205.056V17.77C205.056 18.554 204.664 18.946 203.88 18.946H197.636C196.852 18.946 196.46 18.554 196.46 17.77V14.396ZM198.308 17.378H203.208V15.964H198.308V17.378ZM205.056 13.836H203.306V10.896H202.382V13.836H200.646V6.64H202.382V9.328H203.306V6.57H205.056V13.836ZM195.634 13.486C194.924 13.486 194.57 13.1313 194.57 12.422V9.482H197.846V8.558H194.57V7.032H199.596V11.008H196.348V11.96H200.072V13.486H195.634ZM213.161 7.13V10.028H215.821V7.13H217.669V14.592C217.669 15.404 217.263 15.81 216.451 15.81H212.531C211.719 15.81 211.313 15.404 211.313 14.592V7.13H213.161ZM223.115 11.946H221.309V18.232H219.461V6.57H221.309V10.378H223.115V11.946ZM215.821 14.242V11.596H213.161V14.242H215.821ZM230.579 14.312V15.74H235.395V17.308H223.915V15.74H228.731V14.312H230.579ZM227.163 12.128H234.317V13.682H226.393C225.674 13.682 225.315 13.3227 225.315 12.604V9.566H232.175V8.614H225.315V7.06H234.023V11.078H227.163V12.128ZM248.599 12.016H246.723V18.232H244.875V6.57H246.723V10.448H248.599V12.016ZM242.635 7.2V15.81H240.787V8.768H236.447V7.2H242.635ZM258.22 6.57H260.068V18.232H258.22V6.57ZM256.078 7.2V15.81H254.23V8.768H249.61V7.2H256.078Z" fill="black"/>
<rect y="11.75" width="92" height="0.5" fill="black"/>
<rect x="268" y="11.75" width="92" height="0.5" fill="black"/>
</svg>
