<svg width="23" height="23" viewBox="0 0 23 23" fill="none" xmlns="http://www.w3.org/2000/svg">
<rect x="0.4" y="0.4" width="22.2" height="22.2" rx="11.1" stroke="white" stroke-width="0.8"/>
<path d="M15.75 5.125H7.25C6.04583 5.125 5.125 6.04583 5.125 7.25V15.75C5.125 16.9542 6.04583 17.875 7.25 17.875H15.75C16.9542 17.875 17.875 16.9542 17.875 15.75V7.25C17.875 6.04583 16.9542 5.125 15.75 5.125ZM11.5 9.375C12.7042 9.375 13.625 10.2958 13.625 11.5C13.625 12.7042 12.7042 13.625 11.5 13.625C10.2958 13.625 9.375 12.7042 9.375 11.5C9.375 10.2958 10.2958 9.375 11.5 9.375ZM14.1917 7.95833C14.1917 7.4625 14.6167 7.10833 15.0417 7.10833C15.4667 7.10833 15.8917 7.53333 15.8917 7.95833C15.8917 8.38333 15.5375 8.80833 15.0417 8.80833C14.5458 8.80833 14.1917 8.45417 14.1917 7.95833ZM15.75 16.4583H7.25C6.825 16.4583 6.54167 16.175 6.54167 15.75V11.5H7.95833C7.95833 13.4833 9.51667 15.0417 11.5 15.0417C13.4833 15.0417 15.0417 13.4833 15.0417 11.5H16.4583V15.75C16.4583 16.175 16.175 16.4583 15.75 16.4583Z" fill="white"/>
</svg>
