<svg width="315" height="88" viewBox="0 0 315 88" fill="none" xmlns="http://www.w3.org/2000/svg">
<path d="M-0.000198364 86.0156V1.17188H17.5779V38.7891H18.7498L49.5701 1.17188H70.7811L39.1404 39.1406L71.1326 86.0156H50.0389L26.4842 50.9766L17.5779 61.7578V86.0156H-0.000198364ZM148.861 43.5938C148.861 71.25 131.634 87.1875 109.251 87.1875C86.6342 87.1875 69.5248 71.1328 69.5248 43.5938C69.5248 15.9375 86.6342 0 109.251 0C131.634 0 148.861 15.9375 148.861 43.5938ZM130.931 43.5938C130.931 25.4297 122.376 15.5859 109.251 15.5859C96.1264 15.5859 87.4545 25.4297 87.4545 43.5938C87.4545 61.7578 96.1264 71.6016 109.251 71.6016C122.376 71.6016 130.931 61.7578 130.931 43.5938ZM175.495 1.17188V86.0156H157.917V1.17188H175.495ZM242.911 30.7031C241.504 21.3281 234.239 15.5859 224.395 15.5859C211.153 15.5859 202.481 25.7812 202.481 43.5938C202.481 61.875 211.27 71.6016 224.278 71.6016C234.004 71.6016 241.153 66.2109 242.911 57.0703L260.723 57.1875C258.731 72.8906 245.606 87.1875 224.044 87.1875C201.309 87.1875 184.551 71.25 184.551 43.5938C184.551 15.9375 201.661 0 224.044 0C243.614 0 258.379 11.25 260.723 30.7031H242.911ZM282.084 86.0156H263.1L292.514 1.17188H315.131L344.428 86.0156H325.561L319.233 66.4453H288.529L282.084 86.0156ZM292.983 52.7344H314.779L304.115 20.2734H303.529L292.983 52.7344Z" fill="white" fill-opacity="0.1"/>
</svg>
