<svg width="174" height="326" viewBox="0 0 174 326" fill="none" xmlns="http://www.w3.org/2000/svg">
<rect x="5" y="10" width="169" height="316" rx="5" fill="#3C5E9B"/>
<rect x="0.5" y="0.5" width="169" height="322" rx="4.5" fill="white" stroke="#3C5E9B"/>
<path d="M48.8164 100.1H44.5464V101.682H46.8284C47.1458 101.682 47.3044 101.836 47.3044 102.144V103.012V103.992C47.3044 104.636 47.2858 105.033 47.2484 105.182C47.1551 105.658 46.7444 105.896 46.0164 105.896C45.8018 105.896 45.6338 105.887 45.5124 105.868V103.222H40.4304C40.1131 103.222 39.9544 103.068 39.9544 102.76V101.682H42.7404V100.1H38.9324C38.6151 100.1 38.4564 99.946 38.4564 99.638V98.588H45.5404V96.166H40.5424C40.2624 96.166 40.1224 96.0307 40.1224 95.76V94.626H46.8284C47.0898 94.6353 47.2204 94.7707 47.2204 95.032V95.83V96.698C47.2204 97.6313 47.2111 98.2613 47.1924 98.588H48.3404C48.6578 98.588 48.8164 98.742 48.8164 99.05V100.1ZM59.177 103.67V104.342C59.177 104.706 59.1583 104.963 59.121 105.112C59.0743 105.355 58.953 105.532 58.757 105.644C58.5703 105.765 58.2997 105.826 57.945 105.826C57.861 105.826 57.6977 105.817 57.455 105.798V94.192H58.701C59.0183 94.192 59.177 94.346 59.177 94.654V103.67ZM56.363 94.472C56.6803 94.472 56.839 94.626 56.839 94.934V104.398C56.839 104.65 56.797 104.841 56.713 104.972C56.6383 105.103 56.517 105.191 56.349 105.238C56.2183 105.285 56.0503 105.308 55.845 105.308C55.705 105.308 55.4857 105.289 55.187 105.252V99.848C54.9257 99.8667 54.7483 99.876 54.655 99.876C54.3563 99.876 54.1277 99.8433 53.969 99.778C53.8197 99.7033 53.703 99.5913 53.619 99.442C53.5443 99.2927 53.507 99.092 53.507 98.84C53.507 98.5507 53.5583 98.2753 53.661 98.014H55.187V94.472H56.363ZM54.403 101.472C54.5803 101.761 54.669 102.009 54.669 102.214C54.669 102.382 54.613 102.531 54.501 102.662C54.2863 102.923 53.927 103.063 53.423 103.082L52.051 100.954C51.799 101.505 51.519 102.018 51.211 102.494C51.071 102.699 50.9263 102.849 50.777 102.942C50.6277 103.035 50.4597 103.082 50.273 103.082C50.0583 103.082 49.8483 103.031 49.643 102.928C49.447 102.816 49.3023 102.671 49.209 102.494C49.8343 101.635 50.329 100.758 50.693 99.862C51.0663 98.966 51.253 98.126 51.253 97.342H50.091C49.7737 97.342 49.615 97.188 49.615 96.88V95.802H54.095C54.403 95.802 54.557 95.956 54.557 96.264V97.342H52.891C52.891 97.846 52.835 98.35 52.723 98.854L54.403 101.472ZM70.3075 103.67V104.342C70.3075 104.706 70.2889 104.963 70.2515 105.112C70.2049 105.355 70.0835 105.532 69.8875 105.644C69.7009 105.765 69.4302 105.826 69.0755 105.826C68.9915 105.826 68.8282 105.817 68.5855 105.798V100.366H67.6755V104.398C67.6755 104.65 67.6335 104.841 67.5495 104.972C67.4749 105.103 67.3535 105.191 67.1855 105.238C67.0549 105.285 66.8869 105.308 66.6815 105.308C66.5415 105.308 66.3222 105.289 66.0235 105.252V94.472H67.1995C67.5169 94.472 67.6755 94.626 67.6755 94.934V98.616H68.5855V94.192H69.8315C70.1489 94.192 70.3075 94.346 70.3075 94.654V103.67ZM64.8475 95.578C64.9969 95.578 65.1042 95.6107 65.1695 95.676C65.2442 95.7413 65.2815 95.844 65.2815 95.984V96.628C65.2815 97.4493 65.1602 98.2613 64.9175 99.064C64.6749 99.8667 64.3482 100.604 63.9375 101.276C63.5269 101.948 63.0695 102.508 62.5655 102.956C62.2482 103.245 61.9542 103.39 61.6835 103.39C61.5622 103.39 61.4409 103.362 61.3195 103.306C61.1609 103.25 61.0162 103.157 60.8855 103.026C60.7549 102.895 60.6615 102.751 60.6055 102.592C61.5015 101.827 62.2062 100.949 62.7195 99.96C63.2329 98.9613 63.5129 98.014 63.5595 97.118H61.4175C61.1095 97.118 60.9555 96.9687 60.9555 96.67V95.578H64.8475ZM81.9981 96.964C82.0448 97.076 82.0681 97.23 82.0681 97.426C82.0681 97.7713 81.9841 98.0793 81.8161 98.35H80.3461V98.77C80.3461 99.162 80.3274 99.4373 80.2901 99.596C80.2434 99.8387 80.1221 100.021 79.9261 100.142C79.7394 100.254 79.4594 100.31 79.0861 100.31C78.9928 100.31 78.8248 100.301 78.5821 100.282V94.192H79.8701C80.1874 94.192 80.3461 94.346 80.3461 94.654V96.586C80.6634 96.53 80.9294 96.502 81.1441 96.502C81.3868 96.502 81.5734 96.5393 81.7041 96.614C81.8348 96.6887 81.9328 96.8053 81.9981 96.964ZM77.3921 99.274C77.0748 99.5353 76.6781 99.7313 76.2021 99.862C75.7261 99.9927 75.2221 100.058 74.6901 100.058C74.4941 100.058 74.3494 100.053 74.2561 100.044C72.8841 99.9507 72.1001 99.3813 71.9041 98.336C71.8388 97.944 71.8061 97.4727 71.8061 96.922C71.8061 96.1753 71.8574 95.382 71.9601 94.542H73.1641C73.4628 94.542 73.6028 94.7053 73.5841 95.032C73.5654 95.1907 73.5468 95.4567 73.5281 95.83H75.7401V94.542H76.9161C77.2334 94.542 77.3921 94.696 77.3921 95.004V99.274ZM73.5421 97.79C73.6074 98.294 73.8781 98.5787 74.3541 98.644C74.5034 98.672 74.6528 98.686 74.8021 98.686C75.1474 98.686 75.4601 98.6207 75.7401 98.49V97.132H73.5141C73.5141 97.3467 73.5234 97.566 73.5421 97.79ZM79.9261 104.342C80.1034 104.323 80.2434 104.347 80.3461 104.412C80.4488 104.477 80.5001 104.589 80.5001 104.748V105.644C79.4548 105.775 78.4234 105.84 77.4061 105.84C76.5848 105.84 75.8568 105.798 75.2221 105.714C74.7181 105.649 74.3214 105.527 74.0321 105.35C73.7521 105.182 73.5608 104.944 73.4581 104.636C73.3648 104.393 73.3181 104.081 73.3181 103.698C73.3181 103.343 73.3601 102.979 73.4441 102.606H78.5541V102.046H74.0601C73.8268 102.046 73.6494 101.99 73.5281 101.878C73.4068 101.766 73.3461 101.612 73.3461 101.416V100.73H79.7301C80.0474 100.73 80.2061 100.884 80.2061 101.192V103.292C80.2061 103.647 80.0194 103.824 79.6461 103.824H75.0121C75.0028 103.973 75.0354 104.09 75.1101 104.174C75.1941 104.249 75.3481 104.305 75.5721 104.342C75.9641 104.407 76.5894 104.44 77.4481 104.44C78.3814 104.44 79.2074 104.407 79.9261 104.342ZM83.2446 96.446C82.9273 96.446 82.7686 96.292 82.7686 95.984V95.088H85.0926L84.8546 94.08C84.976 93.9867 85.1206 93.912 85.2886 93.856C85.4566 93.7907 85.62 93.758 85.7786 93.758C86.068 93.758 86.2873 93.828 86.4366 93.968C86.586 94.0987 86.6606 94.2807 86.6606 94.514C86.6606 94.6633 86.614 94.8547 86.5206 95.088H88.2706C88.588 95.088 88.7466 95.242 88.7466 95.55V96.446H83.2446ZM92.0086 98.644V99.316C92.0086 99.68 91.99 99.9367 91.9526 100.086C91.906 100.329 91.7846 100.511 91.5886 100.632C91.402 100.744 91.122 100.8 90.7486 100.8C90.6553 100.8 90.4873 100.791 90.2446 100.772V100.422C89.9273 100.441 89.7173 100.45 89.6146 100.45C89.288 100.45 89.05 100.422 88.9006 100.366C88.7513 100.301 88.6486 100.203 88.5926 100.072C88.5366 99.96 88.5086 99.8013 88.5086 99.596C88.5086 99.3347 88.5506 99.1013 88.6346 98.896H90.2446V98.238C89.9273 98.2567 89.7173 98.266 89.6146 98.266C89.288 98.266 89.05 98.238 88.9006 98.182C88.7513 98.1167 88.6486 98.0187 88.5926 97.888C88.5366 97.776 88.5086 97.6173 88.5086 97.412C88.5086 97.1507 88.5506 96.9173 88.6346 96.712H90.2446V94.192H91.5326C91.85 94.192 92.0086 94.346 92.0086 94.654V98.644ZM88.2706 98.84C88.2706 99.4747 88.056 99.9693 87.6266 100.324C87.1973 100.679 86.5766 100.856 85.7646 100.856C84.962 100.856 84.346 100.679 83.9166 100.324C83.4873 99.9693 83.2726 99.4747 83.2726 98.84C83.2726 98.2053 83.492 97.692 83.9306 97.3C84.3786 96.8987 84.99 96.698 85.7646 96.698C86.5393 96.698 87.1506 96.8987 87.5986 97.3C88.0466 97.692 88.2706 98.2053 88.2706 98.84ZM84.8826 98.756C84.8826 98.9987 84.9573 99.19 85.1066 99.33C85.256 99.4607 85.4753 99.526 85.7646 99.526C86.054 99.526 86.2733 99.4607 86.4226 99.33C86.5813 99.19 86.6606 98.9987 86.6606 98.756C86.6606 98.5133 86.5766 98.322 86.4086 98.182C86.25 98.0327 86.0353 97.958 85.7646 97.958C85.494 97.958 85.2793 98.0327 85.1206 98.182C84.962 98.322 84.8826 98.5133 84.8826 98.756ZM91.4346 101.388C91.7426 101.388 91.8966 101.537 91.8966 101.836V105C91.5606 105.289 91.08 105.513 90.4546 105.672C89.8293 105.831 89.1386 105.91 88.3826 105.91C88.0933 105.91 87.7993 105.896 87.5006 105.868C86.782 105.803 86.2173 105.635 85.8066 105.364C85.396 105.103 85.1206 104.739 84.9806 104.272C84.8873 103.983 84.8406 103.563 84.8406 103.012C84.8406 102.461 84.8826 101.92 84.9666 101.388H86.1706C86.3013 101.388 86.3946 101.421 86.4506 101.486C86.5066 101.542 86.5346 101.631 86.5346 101.752L86.5206 102.256H90.2026V101.388H91.4346ZM87.6406 104.426C87.958 104.463 88.2193 104.482 88.4246 104.482C88.742 104.482 89.0593 104.459 89.3766 104.412C89.7033 104.365 89.9786 104.3 90.2026 104.216V103.544H86.5766V103.586C86.6046 103.838 86.698 104.025 86.8566 104.146C87.0153 104.267 87.2766 104.361 87.6406 104.426ZM101.305 97.062C101.025 97.09 100.787 97.104 100.591 97.104C100.265 97.104 100.022 97.0713 99.8632 97.006C99.7138 96.9407 99.6065 96.8427 99.5412 96.712C99.4852 96.6 99.4572 96.4413 99.4572 96.236C99.4572 95.9747 99.4992 95.7413 99.5832 95.536H101.305V94.192H102.593C102.911 94.192 103.069 94.346 103.069 94.654V98.924V99.596C103.069 99.96 103.051 100.217 103.013 100.366C102.967 100.609 102.845 100.791 102.649 100.912C102.463 101.024 102.183 101.08 101.809 101.08C101.716 101.08 101.548 101.071 101.305 101.052V99.232C101.025 99.26 100.787 99.274 100.591 99.274C100.265 99.274 100.022 99.2413 99.8632 99.176C99.7138 99.1107 99.6065 99.0127 99.5412 98.882C99.4852 98.77 99.4572 98.6113 99.4572 98.406C99.4572 98.1447 99.4992 97.9113 99.5832 97.706H101.305V97.062ZM99.9612 100.562C99.3452 100.665 98.6078 100.716 97.7492 100.716C97.2825 100.716 96.9372 100.707 96.7132 100.688C95.9945 100.641 95.4532 100.506 95.0892 100.282C94.7252 100.049 94.4965 99.7033 94.4032 99.246C94.3658 99.05 94.3472 98.7793 94.3472 98.434C94.3472 97.8927 94.3892 97.398 94.4732 96.95H97.5392V96.082H94.8232C94.5058 96.082 94.3472 95.928 94.3472 95.62V94.724H98.7852C99.0745 94.724 99.2192 94.878 99.2192 95.186V98.252H95.9992L95.9852 98.49C95.9852 98.6767 96.0038 98.8167 96.0412 98.91C96.0878 99.0033 96.1812 99.078 96.3212 99.134C96.4612 99.1807 96.6758 99.2133 96.9652 99.232C97.3292 99.26 97.6698 99.274 97.9872 99.274C98.3512 99.274 98.8318 99.2553 99.4292 99.218C99.5972 99.2087 99.7278 99.2413 99.8212 99.316C99.9145 99.3907 99.9612 99.5073 99.9612 99.666V100.562ZM103.069 103.04L103.083 103.95C103.083 104.501 103.06 104.911 103.013 105.182C102.929 105.658 102.537 105.896 101.837 105.896C101.623 105.896 101.455 105.887 101.333 105.868V103.25H96.3492C96.0318 103.25 95.8732 103.096 95.8732 102.788V101.71H102.593C102.911 101.71 103.069 101.864 103.069 102.172V103.04ZM113.654 94.192C113.971 94.192 114.13 94.346 114.13 94.654V103.67V104.342C114.13 104.706 114.111 104.963 114.074 105.112C114.027 105.355 113.906 105.532 113.71 105.644C113.514 105.765 113.229 105.826 112.856 105.826C112.753 105.826 112.58 105.817 112.338 105.798V94.192H113.654ZM108.04 102.606C107.106 102.606 106.378 102.321 105.856 101.752C105.342 101.173 105.086 100.287 105.086 99.092C105.086 97.888 105.347 96.964 105.87 96.32C106.402 95.6667 107.125 95.34 108.04 95.34C108.945 95.34 109.664 95.6667 110.196 96.32C110.728 96.964 110.994 97.888 110.994 99.092C110.994 100.287 110.732 101.173 110.21 101.752C109.687 102.321 108.964 102.606 108.04 102.606ZM108.04 100.982C108.422 100.982 108.712 100.828 108.908 100.52C109.113 100.212 109.216 99.6987 109.216 98.98C109.216 98.2707 109.113 97.7433 108.908 97.398C108.702 97.0527 108.413 96.88 108.04 96.88C107.666 96.88 107.377 97.0527 107.172 97.398C106.966 97.7433 106.864 98.2707 106.864 98.98C106.864 99.6987 106.962 100.212 107.158 100.52C107.363 100.828 107.657 100.982 108.04 100.982ZM126.24 97.664C126.287 97.776 126.31 97.93 126.31 98.126C126.31 98.4713 126.226 98.7793 126.058 99.05H124.588V100.38V101.052C124.588 101.416 124.57 101.673 124.532 101.822C124.486 102.065 124.364 102.247 124.168 102.368C123.982 102.48 123.702 102.536 123.328 102.536C123.235 102.536 123.067 102.527 122.824 102.508V94.192H124.112C124.43 94.192 124.588 94.346 124.588 94.654V97.286C124.906 97.23 125.172 97.202 125.386 97.202C125.629 97.202 125.816 97.2393 125.946 97.314C126.077 97.3887 126.175 97.5053 126.24 97.664ZM122.012 100.94C121.312 101.061 120.538 101.122 119.688 101.122C119.231 101.122 118.89 101.113 118.666 101.094C117.901 101.047 117.322 100.907 116.93 100.674C116.548 100.431 116.31 100.067 116.216 99.582C116.17 99.2833 116.146 98.9893 116.146 98.7C116.146 98.2147 116.193 97.7013 116.286 97.16H119.758V96.194H116.636C116.319 96.194 116.16 96.04 116.16 95.732V94.794H121.004C121.294 94.794 121.438 94.948 121.438 95.256V98.504H117.826C117.817 98.5787 117.812 98.6813 117.812 98.812C117.812 98.9987 117.836 99.1433 117.882 99.246C117.938 99.3487 118.041 99.4327 118.19 99.498C118.349 99.554 118.582 99.5913 118.89 99.61C119.226 99.638 119.553 99.652 119.87 99.652C120.262 99.652 120.794 99.624 121.466 99.568C121.634 99.5493 121.765 99.582 121.858 99.666C121.961 99.75 122.012 99.8667 122.012 100.016V100.94ZM124.154 103.88C124.182 103.871 124.229 103.866 124.294 103.866C124.602 103.866 124.756 104.039 124.756 104.384V105.35C123.916 105.518 122.922 105.602 121.774 105.602C120.981 105.602 120.262 105.56 119.618 105.476C119.04 105.392 118.596 105.233 118.288 105C117.98 104.757 117.784 104.435 117.7 104.034C117.626 103.717 117.588 103.329 117.588 102.872C117.588 102.536 117.612 102.205 117.658 101.878H118.848C119.156 101.878 119.31 102.051 119.31 102.396C119.31 102.807 119.329 103.101 119.366 103.278C119.422 103.623 119.726 103.847 120.276 103.95C120.659 104.006 121.116 104.034 121.648 104.034C122.479 104.034 123.314 103.983 124.154 103.88ZM126.913 97.16C127.127 96.6 127.473 96.1473 127.949 95.802C128.434 95.4567 129.022 95.284 129.713 95.284C130.254 95.284 130.739 95.4007 131.169 95.634C131.598 95.8673 131.934 96.208 132.177 96.656C132.419 97.0947 132.541 97.6173 132.541 98.224C132.541 98.952 132.349 99.5447 131.967 100.002C131.593 100.45 131.099 100.758 130.483 100.926V101.248C130.473 101.668 130.394 101.962 130.245 102.13C130.095 102.298 129.806 102.377 129.377 102.368L128.747 102.354L128.719 100.38C128.719 100.259 128.747 100.165 128.803 100.1C128.859 100.025 128.952 99.974 129.083 99.946C130.221 99.694 130.791 99.12 130.791 98.224C130.791 97.804 130.683 97.4773 130.469 97.244C130.254 97.0013 129.955 96.88 129.573 96.88C128.985 96.88 128.56 97.2253 128.299 97.916L127.095 97.524C126.955 97.4773 126.885 97.398 126.885 97.286C126.885 97.258 126.894 97.216 126.913 97.16ZM129.573 105C129.246 105 128.994 104.925 128.817 104.776C128.649 104.617 128.565 104.393 128.565 104.104C128.565 103.815 128.658 103.572 128.845 103.376C129.031 103.18 129.274 103.082 129.573 103.082C129.871 103.082 130.114 103.18 130.301 103.376C130.487 103.572 130.581 103.815 130.581 104.104C130.581 104.393 130.492 104.617 130.315 104.776C130.147 104.925 129.899 105 129.573 105Z" fill="#333333"/>
<path d="M5 0.5H165C167.485 0.500003 169.5 2.51472 169.5 5V21.5H0.5V5C0.5 2.51472 2.51472 0.5 5 0.5Z" fill="#B3E7F6"/>
<path d="M5 0.5H165C167.485 0.500003 169.5 2.51472 169.5 5V21.5H0.5V5C0.5 2.51472 2.51472 0.5 5 0.5Z" stroke="#3C5E9B"/>
<line x1="31.5" y1="15.5" x2="23.5" y2="15.5" stroke="#3C5E9B" stroke-linecap="round"/>
<rect x="38.5" y="7.5" width="8" height="8" stroke="#3C5E9B"/>
<path d="M13 11L17 15M13 11L9 7M13 11L9 15M13 11L17 7" stroke="#3C5E9B" stroke-linecap="round" stroke-linejoin="round"/>
<line x1="57.45" y1="6.55" x2="159.55" y2="6.55" stroke="#90C3EB" stroke-width="0.9" stroke-linecap="round"/>
<line x1="57.45" y1="11.05" x2="159.55" y2="11.05" stroke="#90C3EB" stroke-width="0.9" stroke-linecap="round"/>
<line x1="57.45" y1="15.55" x2="159.55" y2="15.55" stroke="#90C3EB" stroke-width="0.9" stroke-linecap="round"/>
<mask id="path-11-inside-1_172_463" fill="white">
<path d="M16 120H154V140H16V120Z"/>
</mask>
<path d="M16 140V140.5H16.9857V140V139.5H16V140ZM18.9571 140V140.5H20.9286V140V139.5H18.9571V140ZM22.9 140V140.5H24.8714V140V139.5H22.9V140ZM26.8429 140V140.5H28.8143V140V139.5H26.8429V140ZM30.7857 140V140.5H32.7571V140V139.5H30.7857V140ZM34.7286 140V140.5H36.7V140V139.5H34.7286V140ZM38.6714 140V140.5H40.6429V140V139.5H38.6714V140ZM42.6143 140V140.5H44.5857V140V139.5H42.6143V140ZM46.5571 140V140.5H48.5286V140V139.5H46.5571V140ZM50.5 140V140.5H52.4714V140V139.5H50.5V140ZM54.4429 140V140.5H56.4143V140V139.5H54.4429V140ZM58.3857 140V140.5H60.3571V140V139.5H58.3857V140ZM62.3286 140V140.5H64.3V140V139.5H62.3286V140ZM66.2714 140V140.5H68.2428V140V139.5H66.2714V140ZM70.2143 140V140.5H72.1857V140V139.5H70.2143V140ZM74.1571 140V140.5H76.1286V140V139.5H74.1571V140ZM78.1 140V140.5H80.0714V140V139.5H78.1V140ZM82.0428 140V140.5H84.0143V140V139.5H82.0428V140ZM85.9857 140V140.5H87.9571V140V139.5H85.9857V140ZM89.9286 140V140.5H91.9V140V139.5H89.9286V140ZM93.8714 140V140.5H95.8428V140V139.5H93.8714V140ZM97.8143 140V140.5H99.7857V140V139.5H97.8143V140ZM101.757 140V140.5H103.729V140V139.5H101.757V140ZM105.7 140V140.5H107.671V140V139.5H105.7V140ZM109.643 140V140.5H111.614V140V139.5H109.643V140ZM113.586 140V140.5H115.557V140V139.5H113.586V140ZM117.529 140V140.5H119.5V140V139.5H117.529V140ZM121.471 140V140.5H123.443V140V139.5H121.471V140ZM125.414 140V140.5H127.386V140V139.5H125.414V140ZM129.357 140V140.5H131.329V140V139.5H129.357V140ZM133.3 140V140.5H135.271V140V139.5H133.3V140ZM137.243 140V140.5H139.214V140V139.5H137.243V140ZM141.186 140V140.5H143.157V140V139.5H141.186V140ZM145.129 140V140.5H147.1V140V139.5H145.129V140ZM149.071 140V140.5H151.043V140V139.5H149.071V140ZM153.014 140V140.5H154V140V139.5H153.014V140ZM16 140V141H16.9857V140V139H16V140ZM18.9571 140V141H20.9286V140V139H18.9571V140ZM22.9 140V141H24.8714V140V139H22.9V140ZM26.8429 140V141H28.8143V140V139H26.8429V140ZM30.7857 140V141H32.7571V140V139H30.7857V140ZM34.7286 140V141H36.7V140V139H34.7286V140ZM38.6714 140V141H40.6429V140V139H38.6714V140ZM42.6143 140V141H44.5857V140V139H42.6143V140ZM46.5571 140V141H48.5286V140V139H46.5571V140ZM50.5 140V141H52.4714V140V139H50.5V140ZM54.4429 140V141H56.4143V140V139H54.4429V140ZM58.3857 140V141H60.3571V140V139H58.3857V140ZM62.3286 140V141H64.3V140V139H62.3286V140ZM66.2714 140V141H68.2428V140V139H66.2714V140ZM70.2143 140V141H72.1857V140V139H70.2143V140ZM74.1571 140V141H76.1286V140V139H74.1571V140ZM78.1 140V141H80.0714V140V139H78.1V140ZM82.0428 140V141H84.0143V140V139H82.0428V140ZM85.9857 140V141H87.9571V140V139H85.9857V140ZM89.9286 140V141H91.9V140V139H89.9286V140ZM93.8714 140V141H95.8428V140V139H93.8714V140ZM97.8143 140V141H99.7857V140V139H97.8143V140ZM101.757 140V141H103.729V140V139H101.757V140ZM105.7 140V141H107.671V140V139H105.7V140ZM109.643 140V141H111.614V140V139H109.643V140ZM113.586 140V141H115.557V140V139H113.586V140ZM117.529 140V141H119.5V140V139H117.529V140ZM121.471 140V141H123.443V140V139H121.471V140ZM125.414 140V141H127.386V140V139H125.414V140ZM129.357 140V141H131.329V140V139H129.357V140ZM133.3 140V141H135.271V140V139H133.3V140ZM137.243 140V141H139.214V140V139H137.243V140ZM141.186 140V141H143.157V140V139H141.186V140ZM145.129 140V141H147.1V140V139H145.129V140ZM149.071 140V141H151.043V140V139H149.071V140ZM153.014 140V141H154V140V139H153.014V140Z" fill="#E5E5E5" mask="url(#path-11-inside-1_172_463)"/>
<path d="M25.4277 125.047V125.797C25.4277 126.576 25.4277 127.508 25.1699 128.762H26.6816V129.512H22.3457V131.434H25.498V134.949H24.5723V132.195H18.127V131.434H21.4316V129.512H17.1426V128.762H24.2441C24.5137 127.484 24.5137 126.576 24.5137 125.797H18.3496V125.047H25.4277ZM35.5762 124.531V128.773H37.2637V129.547H35.5762V134.949H34.6621V124.531H35.5762ZM32.8809 125.656C32.8809 128.609 31.498 131.293 28.0996 132.969L27.584 132.242C30.2793 130.9 31.7441 128.896 31.9551 126.43H28.0645V125.656H32.8809ZM46.0293 124.531V127.707H47.5996V128.48H46.0293V132.16H45.1035V124.531H46.0293ZM43.2168 125.34C43.2168 128.023 41.2949 130.016 38.2949 130.953L37.8965 130.215C40.3926 129.436 42.0215 127.947 42.2207 126.113H38.3301V125.34H43.2168ZM46.5098 133.953V134.727H39.502V131.387H40.416V133.953H46.5098ZM49.9668 133.215L49.0527 136.402H48.1855L48.8301 133.215H49.9668ZM63.1152 129.371V130.121H59.3418V125.527H62.9863V126.277H60.2676V129.371H63.1152ZM63.877 132.852V133.613H54.3379V132.852H58.6152V130.648H59.5176V132.852H63.877ZM58.709 125.527V126.289H56.084V129.359C56.9629 129.354 57.8359 129.283 58.8027 129.066L58.8848 129.84C57.748 130.098 56.7871 130.133 55.7441 130.121H55.1699V125.527H58.709ZM73.1348 127.695V128.434H65.998V124.918H66.9121V127.695H73.1348ZM74.2363 129.852V130.602H64.6973V129.852H74.2363ZM73.1934 133.93V134.691H65.9395V131.668H66.8535V133.93H73.1934ZM86.9863 124.531V134.949H86.084V129.5H84.6426V134.434H83.7637V124.812H84.6426V128.738H86.084V124.531H86.9863ZM82.5801 125.891C82.5684 128.539 81.6426 131.047 78.6426 132.711L78.1035 132.066C80.5234 130.719 81.5254 128.809 81.6777 126.652H78.502V125.891H82.5801ZM89.8105 124.977V126.477H92.8457V124.977H93.7598V129.512H88.9082V124.977H89.8105ZM89.8105 128.762H92.8457V127.191H89.8105V128.762ZM96.6074 124.531V126.793H98.1777V127.566H96.6074V129.922H95.6934V124.531H96.6074ZM96.6074 130.414V132.934H90.8887V134.082H96.9941V134.832H89.9863V132.23H95.6934V131.152H89.9629V130.414H96.6074ZM107.248 129.418V130.168H104.025V132.863H108.373V133.637H98.834V132.863H103.123V130.168H100.053V125.387H107.143V126.137H100.979V129.418H107.248ZM112.686 126.219C112.686 127.637 113.764 128.938 115.275 129.453L114.771 130.18C113.617 129.758 112.709 128.896 112.252 127.812C111.807 129.037 110.881 130.004 109.662 130.473L109.17 129.734C110.729 129.148 111.771 127.754 111.783 126.148V125.07H112.686V126.219ZM117.35 124.531V127.25H118.92V128.023H117.35V130.871H116.436V124.531H117.35ZM114.01 131.141C116.154 131.141 117.443 131.832 117.443 133.027C117.443 134.246 116.154 134.926 114.01 134.926C111.865 134.926 110.553 134.246 110.553 133.027C110.553 131.832 111.865 131.141 114.01 131.141ZM114.01 131.879C112.439 131.879 111.467 132.312 111.479 133.027C111.467 133.766 112.439 134.188 114.01 134.199C115.592 134.188 116.553 133.766 116.553 133.027C116.553 132.312 115.592 131.879 114.01 131.879ZM127.861 125.047V125.797C127.861 126.576 127.861 127.508 127.604 128.762H129.115V129.512H124.779V131.434H127.932V134.949H127.006V132.195H120.561V131.434H123.865V129.512H119.576V128.762H126.678C126.947 127.484 126.947 126.576 126.947 125.797H120.783V125.047H127.861ZM141.854 124.531V134.949H140.951V129.559H139.451V134.41H138.584V124.766H139.451V128.773H140.951V124.531H141.854ZM134.4 125.809V131.434C135.438 131.422 136.539 131.352 137.811 131.094L137.928 131.914C136.475 132.172 135.279 132.254 134.131 132.254H133.486V125.809H134.4ZM152.26 124.531V134.949H151.369V124.531H152.26ZM150.162 124.754V134.422H149.283V129.359H147.947C147.848 131.387 146.986 132.652 145.697 132.652C144.338 132.652 143.459 131.246 143.459 129.031C143.459 126.816 144.338 125.41 145.697 125.41C146.963 125.41 147.818 126.635 147.936 128.598H149.283V124.754H150.162ZM145.697 126.277C144.854 126.277 144.314 127.332 144.326 129.031C144.314 130.719 144.854 131.785 145.697 131.773C146.541 131.785 147.08 130.719 147.08 129.031C147.08 127.332 146.541 126.277 145.697 126.277Z" fill="#333333"/>
<mask id="path-14-inside-2_172_463" fill="white">
<path d="M16 145H154V165H16V145Z"/>
</mask>
<path d="M16 165V165.5H16.9857V165V164.5H16V165ZM18.9571 165V165.5H20.9286V165V164.5H18.9571V165ZM22.9 165V165.5H24.8714V165V164.5H22.9V165ZM26.8429 165V165.5H28.8143V165V164.5H26.8429V165ZM30.7857 165V165.5H32.7571V165V164.5H30.7857V165ZM34.7286 165V165.5H36.7V165V164.5H34.7286V165ZM38.6714 165V165.5H40.6429V165V164.5H38.6714V165ZM42.6143 165V165.5H44.5857V165V164.5H42.6143V165ZM46.5571 165V165.5H48.5286V165V164.5H46.5571V165ZM50.5 165V165.5H52.4714V165V164.5H50.5V165ZM54.4429 165V165.5H56.4143V165V164.5H54.4429V165ZM58.3857 165V165.5H60.3571V165V164.5H58.3857V165ZM62.3286 165V165.5H64.3V165V164.5H62.3286V165ZM66.2714 165V165.5H68.2428V165V164.5H66.2714V165ZM70.2143 165V165.5H72.1857V165V164.5H70.2143V165ZM74.1571 165V165.5H76.1286V165V164.5H74.1571V165ZM78.1 165V165.5H80.0714V165V164.5H78.1V165ZM82.0428 165V165.5H84.0143V165V164.5H82.0428V165ZM85.9857 165V165.5H87.9571V165V164.5H85.9857V165ZM89.9286 165V165.5H91.9V165V164.5H89.9286V165ZM93.8714 165V165.5H95.8428V165V164.5H93.8714V165ZM97.8143 165V165.5H99.7857V165V164.5H97.8143V165ZM101.757 165V165.5H103.729V165V164.5H101.757V165ZM105.7 165V165.5H107.671V165V164.5H105.7V165ZM109.643 165V165.5H111.614V165V164.5H109.643V165ZM113.586 165V165.5H115.557V165V164.5H113.586V165ZM117.529 165V165.5H119.5V165V164.5H117.529V165ZM121.471 165V165.5H123.443V165V164.5H121.471V165ZM125.414 165V165.5H127.386V165V164.5H125.414V165ZM129.357 165V165.5H131.329V165V164.5H129.357V165ZM133.3 165V165.5H135.271V165V164.5H133.3V165ZM137.243 165V165.5H139.214V165V164.5H137.243V165ZM141.186 165V165.5H143.157V165V164.5H141.186V165ZM145.129 165V165.5H147.1V165V164.5H145.129V165ZM149.071 165V165.5H151.043V165V164.5H149.071V165ZM153.014 165V165.5H154V165V164.5H153.014V165ZM16 165V166H16.9857V165V164H16V165ZM18.9571 165V166H20.9286V165V164H18.9571V165ZM22.9 165V166H24.8714V165V164H22.9V165ZM26.8429 165V166H28.8143V165V164H26.8429V165ZM30.7857 165V166H32.7571V165V164H30.7857V165ZM34.7286 165V166H36.7V165V164H34.7286V165ZM38.6714 165V166H40.6429V165V164H38.6714V165ZM42.6143 165V166H44.5857V165V164H42.6143V165ZM46.5571 165V166H48.5286V165V164H46.5571V165ZM50.5 165V166H52.4714V165V164H50.5V165ZM54.4429 165V166H56.4143V165V164H54.4429V165ZM58.3857 165V166H60.3571V165V164H58.3857V165ZM62.3286 165V166H64.3V165V164H62.3286V165ZM66.2714 165V166H68.2428V165V164H66.2714V165ZM70.2143 165V166H72.1857V165V164H70.2143V165ZM74.1571 165V166H76.1286V165V164H74.1571V165ZM78.1 165V166H80.0714V165V164H78.1V165ZM82.0428 165V166H84.0143V165V164H82.0428V165ZM85.9857 165V166H87.9571V165V164H85.9857V165ZM89.9286 165V166H91.9V165V164H89.9286V165ZM93.8714 165V166H95.8428V165V164H93.8714V165ZM97.8143 165V166H99.7857V165V164H97.8143V165ZM101.757 165V166H103.729V165V164H101.757V165ZM105.7 165V166H107.671V165V164H105.7V165ZM109.643 165V166H111.614V165V164H109.643V165ZM113.586 165V166H115.557V165V164H113.586V165ZM117.529 165V166H119.5V165V164H117.529V165ZM121.471 165V166H123.443V165V164H121.471V165ZM125.414 165V166H127.386V165V164H125.414V165ZM129.357 165V166H131.329V165V164H129.357V165ZM133.3 165V166H135.271V165V164H133.3V165ZM137.243 165V166H139.214V165V164H137.243V165ZM141.186 165V166H143.157V165V164H141.186V165ZM145.129 165V166H147.1V165V164H145.129V165ZM149.071 165V166H151.043V165V164H149.071V165ZM153.014 165V166H154V165V164H153.014V165Z" fill="#E5E5E5" mask="url(#path-14-inside-2_172_463)"/>
<path d="M34.3926 150.832C34.3809 152.121 36.1387 153.176 37.9785 153.41L37.6152 154.16C35.9336 153.896 34.3633 153.064 33.7949 151.84C33.2324 153.064 31.668 153.896 29.9746 154.16L29.6348 153.41C31.4746 153.176 33.1973 152.121 33.1973 150.832V150.809H29.916V150.047H37.6973V150.809H34.3926V150.832ZM37.4863 158.953V159.727H30.2793V156.762H31.2051V158.953H37.4863ZM38.5762 155.156V155.918H29.0488V155.156H33.3379V153.41H34.2402V155.156H38.5762ZM48.373 149.531V159.949H47.4824V154.535H46.0645V159.422H45.1855V149.754H46.0645V153.75H47.4824V149.531H48.373ZM42.502 152.379C42.502 154.289 43.2871 155.965 44.7754 156.727L44.2246 157.441C43.1699 156.867 42.4492 155.836 42.0801 154.559C41.7227 156.012 40.9902 157.148 39.8887 157.793L39.3145 157.09C40.8145 156.27 41.6113 154.488 41.6113 152.379V151.547H39.5605V150.773H44.4355V151.547H42.502V152.379ZM57.8535 149.531V153.832H59.5996V154.594H57.8535V159.949H56.9395V149.531H57.8535ZM55.9316 151.207V151.969H49.7324V151.207H52.416V149.66H53.3301V151.207H55.9316ZM52.8848 152.836C54.3613 152.836 55.4277 153.82 55.4395 155.227C55.4277 156.633 54.3613 157.617 52.8848 157.617C51.3965 157.617 50.3184 156.633 50.3301 155.227C50.3184 153.82 51.3965 152.836 52.8848 152.836ZM52.8848 153.609C51.9121 153.609 51.1973 154.289 51.209 155.227C51.1973 156.176 51.9121 156.844 52.8848 156.832C53.8457 156.844 54.5488 156.176 54.5605 155.227C54.5488 154.289 53.8457 153.609 52.8848 153.609ZM68.5879 152.695V153.434H61.4512V149.918H62.3652V152.695H68.5879ZM69.6895 154.852V155.602H60.1504V154.852H69.6895ZM68.6465 158.93V159.691H61.3926V156.668H62.3066V158.93H68.6465ZM82.4395 149.531V159.949H81.5371V154.5H80.0957V159.434H79.2168V149.812H80.0957V153.738H81.5371V149.531H82.4395ZM78.0332 150.891C78.0215 153.539 77.0957 156.047 74.0957 157.711L73.5566 157.066C75.9766 155.719 76.9785 153.809 77.1309 151.652H73.9551V150.891H78.0332ZM85.2637 149.977V151.477H88.2988V149.977H89.2129V154.512H84.3613V149.977H85.2637ZM85.2637 153.762H88.2988V152.191H85.2637V153.762ZM92.0605 149.531V151.793H93.6309V152.566H92.0605V154.922H91.1465V149.531H92.0605ZM92.0605 155.414V157.934H86.3418V159.082H92.4473V159.832H85.4395V157.23H91.1465V156.152H85.416V155.414H92.0605ZM102.736 150.211V154.453H97.8496V150.211H102.736ZM98.752 150.961V153.727H101.834V150.961H98.752ZM105.889 149.531V155.52H104.986V149.531H105.889ZM103.064 156.949C103.064 157.969 104.729 158.977 106.521 159.199L106.205 159.914C104.635 159.703 103.205 158.965 102.596 157.992C101.963 158.982 100.498 159.703 98.9277 159.914L98.5996 159.199C100.393 159 102.115 157.992 102.115 156.949H99.0332V156.234H102.127V155.215H103.041V156.234H106.158V156.949H103.064ZM112.146 150.281V152.027H115.217V150.281H116.131V155.414H111.232V150.281H112.146ZM112.146 154.676H115.217V152.754H112.146V154.676ZM119.283 149.543V157.23H118.369V149.543H119.283ZM119.529 158.953V159.727H112.486V156.457H113.412V158.953H119.529ZM130.58 155.719V156.469H126.232V159.949H125.33V156.469H121.041V155.719H130.58ZM123.174 149.965V151.406H128.424V149.965H129.35V154.453H122.26V149.965H123.174ZM123.174 153.703H128.424V152.156H123.174V153.703ZM134.834 150.293C136.475 150.293 137.635 151.289 137.635 152.742C137.635 154.195 136.475 155.191 134.834 155.191C133.193 155.191 132.01 154.195 132.021 152.742C132.01 151.289 133.193 150.293 134.834 150.293ZM134.834 151.102C133.721 151.102 132.912 151.77 132.924 152.742C132.912 153.715 133.721 154.383 134.834 154.383C135.936 154.383 136.732 153.715 136.732 152.742C136.732 151.77 135.936 151.102 134.834 151.102ZM139.967 149.531V159.973H139.053V149.531H139.967ZM131.482 156.891C133.404 156.891 136.053 156.879 138.361 156.539L138.432 157.219C136.053 157.664 133.486 157.676 131.611 157.676L131.482 156.891Z" fill="#333333"/>
<mask id="path-17-inside-3_172_463" fill="white">
<path d="M16 170H154V190H16V170Z"/>
</mask>
<path d="M16 190V190.5H16.9857V190V189.5H16V190ZM18.9571 190V190.5H20.9286V190V189.5H18.9571V190ZM22.9 190V190.5H24.8714V190V189.5H22.9V190ZM26.8429 190V190.5H28.8143V190V189.5H26.8429V190ZM30.7857 190V190.5H32.7571V190V189.5H30.7857V190ZM34.7286 190V190.5H36.7V190V189.5H34.7286V190ZM38.6714 190V190.5H40.6429V190V189.5H38.6714V190ZM42.6143 190V190.5H44.5857V190V189.5H42.6143V190ZM46.5571 190V190.5H48.5286V190V189.5H46.5571V190ZM50.5 190V190.5H52.4714V190V189.5H50.5V190ZM54.4429 190V190.5H56.4143V190V189.5H54.4429V190ZM58.3857 190V190.5H60.3571V190V189.5H58.3857V190ZM62.3286 190V190.5H64.3V190V189.5H62.3286V190ZM66.2714 190V190.5H68.2428V190V189.5H66.2714V190ZM70.2143 190V190.5H72.1857V190V189.5H70.2143V190ZM74.1571 190V190.5H76.1286V190V189.5H74.1571V190ZM78.1 190V190.5H80.0714V190V189.5H78.1V190ZM82.0428 190V190.5H84.0143V190V189.5H82.0428V190ZM85.9857 190V190.5H87.9571V190V189.5H85.9857V190ZM89.9286 190V190.5H91.9V190V189.5H89.9286V190ZM93.8714 190V190.5H95.8428V190V189.5H93.8714V190ZM97.8143 190V190.5H99.7857V190V189.5H97.8143V190ZM101.757 190V190.5H103.729V190V189.5H101.757V190ZM105.7 190V190.5H107.671V190V189.5H105.7V190ZM109.643 190V190.5H111.614V190V189.5H109.643V190ZM113.586 190V190.5H115.557V190V189.5H113.586V190ZM117.529 190V190.5H119.5V190V189.5H117.529V190ZM121.471 190V190.5H123.443V190V189.5H121.471V190ZM125.414 190V190.5H127.386V190V189.5H125.414V190ZM129.357 190V190.5H131.329V190V189.5H129.357V190ZM133.3 190V190.5H135.271V190V189.5H133.3V190ZM137.243 190V190.5H139.214V190V189.5H137.243V190ZM141.186 190V190.5H143.157V190V189.5H141.186V190ZM145.129 190V190.5H147.1V190V189.5H145.129V190ZM149.071 190V190.5H151.043V190V189.5H149.071V190ZM153.014 190V190.5H154V190V189.5H153.014V190ZM16 190V191H16.9857V190V189H16V190ZM18.9571 190V191H20.9286V190V189H18.9571V190ZM22.9 190V191H24.8714V190V189H22.9V190ZM26.8429 190V191H28.8143V190V189H26.8429V190ZM30.7857 190V191H32.7571V190V189H30.7857V190ZM34.7286 190V191H36.7V190V189H34.7286V190ZM38.6714 190V191H40.6429V190V189H38.6714V190ZM42.6143 190V191H44.5857V190V189H42.6143V190ZM46.5571 190V191H48.5286V190V189H46.5571V190ZM50.5 190V191H52.4714V190V189H50.5V190ZM54.4429 190V191H56.4143V190V189H54.4429V190ZM58.3857 190V191H60.3571V190V189H58.3857V190ZM62.3286 190V191H64.3V190V189H62.3286V190ZM66.2714 190V191H68.2428V190V189H66.2714V190ZM70.2143 190V191H72.1857V190V189H70.2143V190ZM74.1571 190V191H76.1286V190V189H74.1571V190ZM78.1 190V191H80.0714V190V189H78.1V190ZM82.0428 190V191H84.0143V190V189H82.0428V190ZM85.9857 190V191H87.9571V190V189H85.9857V190ZM89.9286 190V191H91.9V190V189H89.9286V190ZM93.8714 190V191H95.8428V190V189H93.8714V190ZM97.8143 190V191H99.7857V190V189H97.8143V190ZM101.757 190V191H103.729V190V189H101.757V190ZM105.7 190V191H107.671V190V189H105.7V190ZM109.643 190V191H111.614V190V189H109.643V190ZM113.586 190V191H115.557V190V189H113.586V190ZM117.529 190V191H119.5V190V189H117.529V190ZM121.471 190V191H123.443V190V189H121.471V190ZM125.414 190V191H127.386V190V189H125.414V190ZM129.357 190V191H131.329V190V189H129.357V190ZM133.3 190V191H135.271V190V189H133.3V190ZM137.243 190V191H139.214V190V189H137.243V190ZM141.186 190V191H143.157V190V189H141.186V190ZM145.129 190V191H147.1V190V189H145.129V190ZM149.071 190V191H151.043V190V189H149.071V190ZM153.014 190V191H154V190V189H153.014V190Z" fill="#E5E5E5" mask="url(#path-17-inside-3_172_463)"/>
<path d="M25.6504 175.246C25.6504 175.65 25.6035 176.037 25.5215 176.406H27.8652V174.543H28.791V180.754H27.8652V179.371H25.0996V178.609H27.8652V177.168H25.2754C24.5664 178.809 22.9375 179.992 20.6816 180.613L20.3184 179.875C22.8613 179.172 24.4727 177.771 24.666 175.996H20.8457V175.246H25.6504ZM28.791 181.211V184.938H27.8652V181.949H21.7832V181.211H28.791ZM33.9941 177.93C33.9941 179.594 35.084 181.305 36.5957 182.031L36.0566 182.746C34.9082 182.184 34 181.047 33.5723 179.699C33.1152 181.146 32.1484 182.359 30.959 182.934L30.4316 182.219C31.9551 181.504 33.0918 179.723 33.1035 177.93V177.098H30.7129V176.348H33.0918V174.73H34.0176V176.348H36.3613V177.098H33.9941V177.93ZM38.5879 174.531V178.809H40.334V179.594H38.5879V184.949H37.6738V174.531H38.5879ZM50.4238 179.371V180.098H40.8848V179.371H50.4238ZM49.2285 180.93V183.145H42.9707V184.141H49.5684V184.809H42.0449V182.512H48.3145V181.621H42.0332V180.93H49.2285ZM49.1934 174.848V177.004H43.041V177.918H49.3809V178.586H42.127V176.371H48.2676V175.516H42.0918V174.848H49.1934ZM63.7715 178.891V179.641H59.4707V180.695H62.5527V183.062H56.3652V184.105H62.8691V184.832H55.4512V182.383H61.6504V181.398H55.4277V180.695H58.5684V179.641H54.2793V178.891H63.7715ZM62.9277 174.906V175.633H59.5645C59.6934 176.711 61.4336 177.514 63.2676 177.672L62.9629 178.375C61.2578 178.199 59.6523 177.537 59.0371 176.488C58.4043 177.537 56.8047 178.199 55.0996 178.375L54.7949 177.672C56.6172 177.514 58.3516 176.723 58.498 175.633H55.1465V174.906H62.9277ZM73.2402 174.531V184.973H72.3145V174.531H73.2402ZM67.6973 175.34C69.2441 175.352 70.3574 176.758 70.3574 178.973C70.3574 181.188 69.2441 182.594 67.6973 182.594C66.1387 182.594 65.0371 181.188 65.0371 178.973C65.0371 176.758 66.1387 175.352 67.6973 175.34ZM67.6973 176.16C66.6543 176.172 65.9277 177.273 65.9277 178.973C65.9277 180.672 66.6543 181.773 67.6973 181.773C68.7402 181.773 69.4668 180.672 69.4668 178.973C69.4668 177.273 68.7402 176.172 67.6973 176.16ZM83.377 175.586V176.629C83.3652 177.906 83.3652 179.336 82.9902 181.434L82.0527 181.328C82.4512 179.336 82.4512 177.871 82.4512 176.629V176.348H76.0293V175.586H83.377ZM84.5137 182.711V183.473H75.0215V182.711H78.748V178.984H79.6504V182.711H84.5137ZM87.1035 183.215L86.1895 186.402H85.3223L85.9668 183.215H87.1035ZM100.369 174.531V184.949H99.4668V179.5H98.0254V184.434H97.1465V174.812H98.0254V178.738H99.4668V174.531H100.369ZM95.9629 175.891C95.9512 178.539 95.0254 181.047 92.0254 182.711L91.4863 182.066C93.9062 180.719 94.9082 178.809 95.0605 176.652H91.8848V175.891H95.9629ZM103.193 174.977V176.477H106.229V174.977H107.143V179.512H102.291V174.977H103.193ZM103.193 178.762H106.229V177.191H103.193V178.762ZM109.99 174.531V176.793H111.561V177.566H109.99V179.922H109.076V174.531H109.99ZM109.99 180.414V182.934H104.271V184.082H110.377V184.832H103.369V182.23H109.076V181.152H103.346V180.414H109.99ZM120.631 179.418V180.168H117.408V182.863H121.756V183.637H112.217V182.863H116.506V180.168H113.436V175.387H120.525V176.137H114.361V179.418H120.631ZM126.068 176.219C126.068 177.637 127.146 178.938 128.658 179.453L128.154 180.18C127 179.758 126.092 178.896 125.635 177.812C125.189 179.037 124.264 180.004 123.045 180.473L122.553 179.734C124.111 179.148 125.154 177.754 125.166 176.148V175.07H126.068V176.219ZM130.732 174.531V177.25H132.303V178.023H130.732V180.871H129.818V174.531H130.732ZM127.393 181.141C129.537 181.141 130.826 181.832 130.826 183.027C130.826 184.246 129.537 184.926 127.393 184.926C125.248 184.926 123.936 184.246 123.936 183.027C123.936 181.832 125.248 181.141 127.393 181.141ZM127.393 181.879C125.822 181.879 124.85 182.312 124.861 183.027C124.85 183.766 125.822 184.188 127.393 184.199C128.975 184.188 129.936 183.766 129.936 183.027C129.936 182.312 128.975 181.879 127.393 181.879ZM141.244 175.047V175.797C141.244 176.576 141.244 177.508 140.986 178.762H142.498V179.512H138.162V181.434H141.314V184.949H140.389V182.195H133.943V181.434H137.248V179.512H132.959V178.762H140.061C140.33 177.484 140.33 176.576 140.33 175.797H134.166V175.047H141.244ZM146.74 175.293C148.381 175.293 149.541 176.289 149.541 177.742C149.541 179.195 148.381 180.191 146.74 180.191C145.1 180.191 143.916 179.195 143.928 177.742C143.916 176.289 145.1 175.293 146.74 175.293ZM146.74 176.102C145.627 176.102 144.818 176.77 144.83 177.742C144.818 178.715 145.627 179.383 146.74 179.383C147.842 179.383 148.639 178.715 148.639 177.742C148.639 176.77 147.842 176.102 146.74 176.102ZM151.873 174.531V184.973H150.959V174.531H151.873ZM143.389 181.891C145.311 181.891 147.959 181.879 150.268 181.539L150.338 182.219C147.959 182.664 145.393 182.676 143.518 182.676L143.389 181.891Z" fill="#333333"/>
<mask id="path-20-inside-4_172_463" fill="white">
<path d="M16 195H154V215H16V195Z"/>
</mask>
<path d="M16 215V215.5H16.9857V215V214.5H16V215ZM18.9571 215V215.5H20.9286V215V214.5H18.9571V215ZM22.9 215V215.5H24.8714V215V214.5H22.9V215ZM26.8429 215V215.5H28.8143V215V214.5H26.8429V215ZM30.7857 215V215.5H32.7571V215V214.5H30.7857V215ZM34.7286 215V215.5H36.7V215V214.5H34.7286V215ZM38.6714 215V215.5H40.6429V215V214.5H38.6714V215ZM42.6143 215V215.5H44.5857V215V214.5H42.6143V215ZM46.5571 215V215.5H48.5286V215V214.5H46.5571V215ZM50.5 215V215.5H52.4714V215V214.5H50.5V215ZM54.4429 215V215.5H56.4143V215V214.5H54.4429V215ZM58.3857 215V215.5H60.3571V215V214.5H58.3857V215ZM62.3286 215V215.5H64.3V215V214.5H62.3286V215ZM66.2714 215V215.5H68.2428V215V214.5H66.2714V215ZM70.2143 215V215.5H72.1857V215V214.5H70.2143V215ZM74.1571 215V215.5H76.1286V215V214.5H74.1571V215ZM78.1 215V215.5H80.0714V215V214.5H78.1V215ZM82.0428 215V215.5H84.0143V215V214.5H82.0428V215ZM85.9857 215V215.5H87.9571V215V214.5H85.9857V215ZM89.9286 215V215.5H91.9V215V214.5H89.9286V215ZM93.8714 215V215.5H95.8428V215V214.5H93.8714V215ZM97.8143 215V215.5H99.7857V215V214.5H97.8143V215ZM101.757 215V215.5H103.729V215V214.5H101.757V215ZM105.7 215V215.5H107.671V215V214.5H105.7V215ZM109.643 215V215.5H111.614V215V214.5H109.643V215ZM113.586 215V215.5H115.557V215V214.5H113.586V215ZM117.529 215V215.5H119.5V215V214.5H117.529V215ZM121.471 215V215.5H123.443V215V214.5H121.471V215ZM125.414 215V215.5H127.386V215V214.5H125.414V215ZM129.357 215V215.5H131.329V215V214.5H129.357V215ZM133.3 215V215.5H135.271V215V214.5H133.3V215ZM137.243 215V215.5H139.214V215V214.5H137.243V215ZM141.186 215V215.5H143.157V215V214.5H141.186V215ZM145.129 215V215.5H147.1V215V214.5H145.129V215ZM149.071 215V215.5H151.043V215V214.5H149.071V215ZM153.014 215V215.5H154V215V214.5H153.014V215ZM16 215V216H16.9857V215V214H16V215ZM18.9571 215V216H20.9286V215V214H18.9571V215ZM22.9 215V216H24.8714V215V214H22.9V215ZM26.8429 215V216H28.8143V215V214H26.8429V215ZM30.7857 215V216H32.7571V215V214H30.7857V215ZM34.7286 215V216H36.7V215V214H34.7286V215ZM38.6714 215V216H40.6429V215V214H38.6714V215ZM42.6143 215V216H44.5857V215V214H42.6143V215ZM46.5571 215V216H48.5286V215V214H46.5571V215ZM50.5 215V216H52.4714V215V214H50.5V215ZM54.4429 215V216H56.4143V215V214H54.4429V215ZM58.3857 215V216H60.3571V215V214H58.3857V215ZM62.3286 215V216H64.3V215V214H62.3286V215ZM66.2714 215V216H68.2428V215V214H66.2714V215ZM70.2143 215V216H72.1857V215V214H70.2143V215ZM74.1571 215V216H76.1286V215V214H74.1571V215ZM78.1 215V216H80.0714V215V214H78.1V215ZM82.0428 215V216H84.0143V215V214H82.0428V215ZM85.9857 215V216H87.9571V215V214H85.9857V215ZM89.9286 215V216H91.9V215V214H89.9286V215ZM93.8714 215V216H95.8428V215V214H93.8714V215ZM97.8143 215V216H99.7857V215V214H97.8143V215ZM101.757 215V216H103.729V215V214H101.757V215ZM105.7 215V216H107.671V215V214H105.7V215ZM109.643 215V216H111.614V215V214H109.643V215ZM113.586 215V216H115.557V215V214H113.586V215ZM117.529 215V216H119.5V215V214H117.529V215ZM121.471 215V216H123.443V215V214H121.471V215ZM125.414 215V216H127.386V215V214H125.414V215ZM129.357 215V216H131.329V215V214H129.357V215ZM133.3 215V216H135.271V215V214H133.3V215ZM137.243 215V216H139.214V215V214H137.243V215ZM141.186 215V216H143.157V215V214H141.186V215ZM145.129 215V216H147.1V215V214H145.129V215ZM149.071 215V216H151.043V215V214H149.071V215ZM153.014 215V216H154V215V214H153.014V215Z" fill="#E5E5E5" mask="url(#path-20-inside-4_172_463)"/>
<path d="M18.6367 200.281V202.027H21.707V200.281H22.6211V205.414H17.7227V200.281H18.6367ZM18.6367 204.676H21.707V202.754H18.6367V204.676ZM25.7734 199.543V207.23H24.8594V199.543H25.7734ZM26.0195 208.953V209.727H18.9766V206.457H19.9023V208.953H26.0195ZM35.8281 200.164V200.891C35.8281 201.688 35.8281 202.695 35.5469 204.031L34.6211 203.914C34.9141 202.613 34.9141 201.705 34.9141 200.914H28.6797V200.164H35.8281ZM37.0352 204.746V205.496H27.5547V204.746H31.4805V202.59H32.3828V204.746H37.0352ZM36.0977 208.953V209.727H28.7617V206.562H29.6875V208.953H36.0977ZM50.4531 204.863V205.625H46.2109V207.758H45.2969V205.625H40.9141V204.863H50.4531ZM49.2109 200.047V203.668H42.1562V200.047H49.2109ZM43.0586 200.773V202.93H48.2969V200.773H43.0586ZM49.3867 208.953V209.727H42.1328V206.727H43.0586V208.953H49.3867ZM60.2031 199.531V209.949H59.3242V199.531H60.2031ZM58.0938 199.789V209.41H57.2266V204.043H55.4688V203.293H57.2266V199.789H58.0938ZM54.3555 202.508C54.3555 204.312 55.1641 206.105 56.6055 206.938L56.043 207.617C55.0176 207.002 54.291 205.877 53.9336 204.547C53.5527 205.982 52.7969 207.207 51.7539 207.863L51.168 207.172C52.6211 206.305 53.4648 204.406 53.4648 202.508V201.523H51.4609V200.762H56.2656V201.523H54.3555V202.508ZM69.8828 201.336V202.086H64.6562V201.336H66.8242V199.848H67.7383V201.336H69.8828ZM67.2695 202.789C68.582 202.789 69.5195 203.773 69.5312 205.156C69.5195 206.551 68.582 207.547 67.2695 207.547C65.9688 207.547 65.0312 206.551 65.0312 205.156C65.0312 203.773 65.9688 202.789 67.2695 202.789ZM67.2695 203.562C66.4492 203.574 65.8516 204.242 65.8516 205.156C65.8516 206.082 66.4492 206.75 67.2695 206.738C68.1016 206.75 68.7109 206.082 68.7109 205.156C68.7109 204.242 68.1016 203.574 67.2695 203.562ZM73.5508 199.531V209.949H72.6719V204.688H71.2891V209.434H70.4219V199.789H71.2891V203.926H72.6719V199.531H73.5508ZM83.6875 199.531V204.863H82.7617V203.773H79.9844V203.047H82.7617V201.793H80.1367C79.4805 203.439 77.8633 204.547 75.5547 205.098L75.2266 204.336C77.7812 203.744 79.2695 202.496 79.4453 200.82H75.7539V200.059H80.4531C80.4531 200.404 80.418 200.738 80.3594 201.055H82.7617V199.531H83.6875ZM83.6875 205.332V207.875H77.875V209.094H84.0391V209.855H76.9609V207.172H82.7617V206.082H76.9375V205.332H83.6875ZM90.168 199.719C92.4883 199.719 93.8477 200.352 93.8477 201.512C93.8477 202.695 92.4883 203.328 90.168 203.34C87.8477 203.328 86.4766 202.695 86.4766 201.512C86.4766 200.352 87.8477 199.719 90.168 199.719ZM90.168 200.41C88.4336 200.41 87.4258 200.832 87.4375 201.512C87.4258 202.238 88.4336 202.637 90.168 202.637C91.8906 202.637 92.9102 202.238 92.9102 201.512C92.9102 200.832 91.8906 200.41 90.168 200.41ZM94.9141 204.043V204.793H85.4219V204.043H94.9141ZM93.6953 205.695V208.027H87.5078V209.105H94.0117V209.832H86.5938V207.348H92.793V206.398H86.5703V205.695H93.6953ZM108.297 205.062V205.812H98.793V205.062H103.082V204.031H100.059V199.836H107.113V200.586H100.984V201.559H106.832V202.262H100.984V203.293H107.172V204.031H103.996V205.062H108.297ZM103.551 206.598C105.836 206.586 107.125 207.172 107.137 208.262C107.125 209.352 105.836 209.926 103.551 209.926C101.242 209.926 99.9531 209.352 99.9531 208.262C99.9531 207.172 101.242 206.586 103.551 206.598ZM103.551 207.289C101.828 207.289 100.867 207.641 100.879 208.262C100.867 208.895 101.828 209.223 103.551 209.211C105.25 209.223 106.211 208.895 106.211 208.262C106.211 207.641 105.25 207.289 103.551 207.289ZM114.379 201.336V202.086H109.152V201.336H111.32V199.848H112.234V201.336H114.379ZM111.766 202.789C113.078 202.789 114.016 203.773 114.027 205.156C114.016 206.551 113.078 207.547 111.766 207.547C110.465 207.547 109.527 206.551 109.527 205.156C109.527 203.773 110.465 202.789 111.766 202.789ZM111.766 203.562C110.945 203.574 110.348 204.242 110.348 205.156C110.348 206.082 110.945 206.75 111.766 206.738C112.598 206.75 113.207 206.082 113.207 205.156C113.207 204.242 112.598 203.574 111.766 203.562ZM118.047 199.531V209.949H117.168V204.688H115.785V209.434H114.918V199.789H115.785V203.926H117.168V199.531H118.047ZM131.16 199.543V207.16H130.246V199.543H131.16ZM131.488 208.953V209.727H124.434V206.387H125.348V208.953H131.488ZM125.535 200.27C127.094 200.27 128.266 201.324 128.266 202.824C128.266 204.348 127.094 205.391 125.535 205.391C123.977 205.391 122.805 204.348 122.805 202.824C122.805 201.324 123.977 200.27 125.535 200.27ZM125.535 201.078C124.48 201.078 123.695 201.805 123.707 202.824C123.695 203.867 124.48 204.582 125.535 204.582C126.566 204.582 127.363 203.867 127.363 202.824C127.363 201.805 126.566 201.078 125.535 201.078ZM141.074 199.531V202.707H142.645V203.48H141.074V207.16H140.148V199.531H141.074ZM138.262 200.34C138.262 203.023 136.34 205.016 133.34 205.953L132.941 205.215C135.438 204.436 137.066 202.947 137.266 201.113H133.375V200.34H138.262ZM141.555 208.953V209.727H134.547V206.387H135.461V208.953H141.555ZM146.711 200.293C148.352 200.293 149.512 201.289 149.512 202.742C149.512 204.195 148.352 205.191 146.711 205.191C145.07 205.191 143.887 204.195 143.898 202.742C143.887 201.289 145.07 200.293 146.711 200.293ZM146.711 201.102C145.598 201.102 144.789 201.77 144.801 202.742C144.789 203.715 145.598 204.383 146.711 204.383C147.812 204.383 148.609 203.715 148.609 202.742C148.609 201.77 147.812 201.102 146.711 201.102ZM151.844 199.531V209.973H150.93V199.531H151.844ZM143.359 206.891C145.281 206.891 147.93 206.879 150.238 206.539L150.309 207.219C147.93 207.664 145.363 207.676 143.488 207.676L143.359 206.891Z" fill="#333333"/>
<mask id="path-23-inside-5_172_463" fill="white">
<path d="M16 220H154V240H16V220Z"/>
</mask>
<path d="M16 240V240.5H16.9857V240V239.5H16V240ZM18.9571 240V240.5H20.9286V240V239.5H18.9571V240ZM22.9 240V240.5H24.8714V240V239.5H22.9V240ZM26.8429 240V240.5H28.8143V240V239.5H26.8429V240ZM30.7857 240V240.5H32.7571V240V239.5H30.7857V240ZM34.7286 240V240.5H36.7V240V239.5H34.7286V240ZM38.6714 240V240.5H40.6429V240V239.5H38.6714V240ZM42.6143 240V240.5H44.5857V240V239.5H42.6143V240ZM46.5571 240V240.5H48.5286V240V239.5H46.5571V240ZM50.5 240V240.5H52.4714V240V239.5H50.5V240ZM54.4429 240V240.5H56.4143V240V239.5H54.4429V240ZM58.3857 240V240.5H60.3571V240V239.5H58.3857V240ZM62.3286 240V240.5H64.3V240V239.5H62.3286V240ZM66.2714 240V240.5H68.2428V240V239.5H66.2714V240ZM70.2143 240V240.5H72.1857V240V239.5H70.2143V240ZM74.1571 240V240.5H76.1286V240V239.5H74.1571V240ZM78.1 240V240.5H80.0714V240V239.5H78.1V240ZM82.0428 240V240.5H84.0143V240V239.5H82.0428V240ZM85.9857 240V240.5H87.9571V240V239.5H85.9857V240ZM89.9286 240V240.5H91.9V240V239.5H89.9286V240ZM93.8714 240V240.5H95.8428V240V239.5H93.8714V240ZM97.8143 240V240.5H99.7857V240V239.5H97.8143V240ZM101.757 240V240.5H103.729V240V239.5H101.757V240ZM105.7 240V240.5H107.671V240V239.5H105.7V240ZM109.643 240V240.5H111.614V240V239.5H109.643V240ZM113.586 240V240.5H115.557V240V239.5H113.586V240ZM117.529 240V240.5H119.5V240V239.5H117.529V240ZM121.471 240V240.5H123.443V240V239.5H121.471V240ZM125.414 240V240.5H127.386V240V239.5H125.414V240ZM129.357 240V240.5H131.329V240V239.5H129.357V240ZM133.3 240V240.5H135.271V240V239.5H133.3V240ZM137.243 240V240.5H139.214V240V239.5H137.243V240ZM141.186 240V240.5H143.157V240V239.5H141.186V240ZM145.129 240V240.5H147.1V240V239.5H145.129V240ZM149.071 240V240.5H151.043V240V239.5H149.071V240ZM153.014 240V240.5H154V240V239.5H153.014V240ZM16 240V241H16.9857V240V239H16V240ZM18.9571 240V241H20.9286V240V239H18.9571V240ZM22.9 240V241H24.8714V240V239H22.9V240ZM26.8429 240V241H28.8143V240V239H26.8429V240ZM30.7857 240V241H32.7571V240V239H30.7857V240ZM34.7286 240V241H36.7V240V239H34.7286V240ZM38.6714 240V241H40.6429V240V239H38.6714V240ZM42.6143 240V241H44.5857V240V239H42.6143V240ZM46.5571 240V241H48.5286V240V239H46.5571V240ZM50.5 240V241H52.4714V240V239H50.5V240ZM54.4429 240V241H56.4143V240V239H54.4429V240ZM58.3857 240V241H60.3571V240V239H58.3857V240ZM62.3286 240V241H64.3V240V239H62.3286V240ZM66.2714 240V241H68.2428V240V239H66.2714V240ZM70.2143 240V241H72.1857V240V239H70.2143V240ZM74.1571 240V241H76.1286V240V239H74.1571V240ZM78.1 240V241H80.0714V240V239H78.1V240ZM82.0428 240V241H84.0143V240V239H82.0428V240ZM85.9857 240V241H87.9571V240V239H85.9857V240ZM89.9286 240V241H91.9V240V239H89.9286V240ZM93.8714 240V241H95.8428V240V239H93.8714V240ZM97.8143 240V241H99.7857V240V239H97.8143V240ZM101.757 240V241H103.729V240V239H101.757V240ZM105.7 240V241H107.671V240V239H105.7V240ZM109.643 240V241H111.614V240V239H109.643V240ZM113.586 240V241H115.557V240V239H113.586V240ZM117.529 240V241H119.5V240V239H117.529V240ZM121.471 240V241H123.443V240V239H121.471V240ZM125.414 240V241H127.386V240V239H125.414V240ZM129.357 240V241H131.329V240V239H129.357V240ZM133.3 240V241H135.271V240V239H133.3V240ZM137.243 240V241H139.214V240V239H137.243V240ZM141.186 240V241H143.157V240V239H141.186V240ZM145.129 240V241H147.1V240V239H145.129V240ZM149.071 240V241H151.043V240V239H149.071V240ZM153.014 240V241H154V240V239H153.014V240Z" fill="#E5E5E5" mask="url(#path-23-inside-5_172_463)"/>
<path d="M51.0449 224.531V234.949H50.1191V224.531H51.0449ZM47.9629 225.668C47.9512 228.668 46.5566 231.316 43.0645 232.992L42.5605 232.242C45.3789 230.906 46.8145 228.908 47.0254 226.418H43.041V225.668H47.9629ZM54.9824 224.953V226.277H60.1387V224.953H61.0527V229.113H58.0059V230.227H62.2949V230.988H52.8027V230.227H57.0918V229.113H54.0684V224.953H54.9824ZM54.9824 228.375H60.1387V227.004H54.9824V228.375ZM61.2402 233.953V234.727H54.0332V231.82H54.959V233.953H61.2402ZM71.7988 224.543V232.418H70.8613V230.953H68.5645V230.203H70.8613V224.543H71.7988ZM72.0566 233.953V234.727H64.6621V231.539H65.5879V233.953H72.0566ZM63.1035 228.668C64.4395 228.668 66.1211 228.65 67.7793 228.539C67.9844 227.385 68.0195 226.523 68.0254 225.926H64.041V225.176H68.9395V225.586C68.9395 226.16 68.9395 227.139 68.7168 228.457C69.127 228.428 69.5254 228.381 69.9121 228.328L69.9824 228.996C69.0098 229.16 67.9902 229.26 66.9941 229.324V231.727H66.0801V229.371C65.0488 229.418 64.0762 229.43 63.2324 229.43L63.1035 228.668ZM78.291 224.719C80.6113 224.719 81.9707 225.352 81.9707 226.512C81.9707 227.695 80.6113 228.328 78.291 228.34C75.9707 228.328 74.5996 227.695 74.5996 226.512C74.5996 225.352 75.9707 224.719 78.291 224.719ZM78.291 225.41C76.5566 225.41 75.5488 225.832 75.5605 226.512C75.5488 227.238 76.5566 227.637 78.291 227.637C80.0137 227.637 81.0332 227.238 81.0332 226.512C81.0332 225.832 80.0137 225.41 78.291 225.41ZM83.0371 229.043V229.793H73.5449V229.043H83.0371ZM81.8184 230.695V233.027H75.6309V234.105H82.1348V234.832H74.7168V232.348H80.916V231.398H74.6934V230.695H81.8184ZM90.6543 227.73C90.6543 229.5 91.9434 231.293 93.4785 231.961L92.9629 232.688C91.7441 232.131 90.6895 230.93 90.209 229.488C89.7168 231.018 88.668 232.348 87.4785 232.945L86.9277 232.219C88.416 231.504 89.7168 229.535 89.7285 227.73V226.371H87.2676V225.609H93.1387V226.371H90.6543V227.73ZM95.5176 224.531V234.949H94.5918V224.531H95.5176ZM102.889 225.621C102.877 228.633 101.787 231.41 98.0254 233.25L97.5098 232.512C99.4609 231.574 100.668 230.373 101.33 228.961L97.709 229.312L97.5566 228.492L101.623 228.223C101.811 227.643 101.922 227.027 101.963 226.383H98.084V225.621H102.889ZM105.912 224.531V234.949H104.986V224.531H105.912ZM116.295 224.531V234.973H115.381V230.531H113.213V229.758H115.381V227.684H113.295V226.91H115.381V224.531H116.295ZM112.615 225.48V229.184H108.982V231.75C110.547 231.744 111.842 231.686 113.424 231.445L113.506 232.219C111.842 232.477 110.506 232.535 108.842 232.535H108.068V228.434H111.713V226.242H108.033V225.48H112.615ZM126.467 227.695V228.434H119.33V224.918H120.244V227.695H126.467ZM127.568 229.852V230.602H118.029V229.852H127.568ZM126.525 233.93V234.691H119.271V231.668H120.186V233.93H126.525Z" fill="#333333"/>
<mask id="path-26-inside-6_172_463" fill="white">
<path d="M16 245H154V265H16V245Z"/>
</mask>
<path d="M16 265V265.5H16.9857V265V264.5H16V265ZM18.9571 265V265.5H20.9286V265V264.5H18.9571V265ZM22.9 265V265.5H24.8714V265V264.5H22.9V265ZM26.8429 265V265.5H28.8143V265V264.5H26.8429V265ZM30.7857 265V265.5H32.7571V265V264.5H30.7857V265ZM34.7286 265V265.5H36.7V265V264.5H34.7286V265ZM38.6714 265V265.5H40.6429V265V264.5H38.6714V265ZM42.6143 265V265.5H44.5857V265V264.5H42.6143V265ZM46.5571 265V265.5H48.5286V265V264.5H46.5571V265ZM50.5 265V265.5H52.4714V265V264.5H50.5V265ZM54.4429 265V265.5H56.4143V265V264.5H54.4429V265ZM58.3857 265V265.5H60.3571V265V264.5H58.3857V265ZM62.3286 265V265.5H64.3V265V264.5H62.3286V265ZM66.2714 265V265.5H68.2428V265V264.5H66.2714V265ZM70.2143 265V265.5H72.1857V265V264.5H70.2143V265ZM74.1571 265V265.5H76.1286V265V264.5H74.1571V265ZM78.1 265V265.5H80.0714V265V264.5H78.1V265ZM82.0428 265V265.5H84.0143V265V264.5H82.0428V265ZM85.9857 265V265.5H87.9571V265V264.5H85.9857V265ZM89.9286 265V265.5H91.9V265V264.5H89.9286V265ZM93.8714 265V265.5H95.8428V265V264.5H93.8714V265ZM97.8143 265V265.5H99.7857V265V264.5H97.8143V265ZM101.757 265V265.5H103.729V265V264.5H101.757V265ZM105.7 265V265.5H107.671V265V264.5H105.7V265ZM109.643 265V265.5H111.614V265V264.5H109.643V265ZM113.586 265V265.5H115.557V265V264.5H113.586V265ZM117.529 265V265.5H119.5V265V264.5H117.529V265ZM121.471 265V265.5H123.443V265V264.5H121.471V265ZM125.414 265V265.5H127.386V265V264.5H125.414V265ZM129.357 265V265.5H131.329V265V264.5H129.357V265ZM133.3 265V265.5H135.271V265V264.5H133.3V265ZM137.243 265V265.5H139.214V265V264.5H137.243V265ZM141.186 265V265.5H143.157V265V264.5H141.186V265ZM145.129 265V265.5H147.1V265V264.5H145.129V265ZM149.071 265V265.5H151.043V265V264.5H149.071V265ZM153.014 265V265.5H154V265V264.5H153.014V265ZM16 265V266H16.9857V265V264H16V265ZM18.9571 265V266H20.9286V265V264H18.9571V265ZM22.9 265V266H24.8714V265V264H22.9V265ZM26.8429 265V266H28.8143V265V264H26.8429V265ZM30.7857 265V266H32.7571V265V264H30.7857V265ZM34.7286 265V266H36.7V265V264H34.7286V265ZM38.6714 265V266H40.6429V265V264H38.6714V265ZM42.6143 265V266H44.5857V265V264H42.6143V265ZM46.5571 265V266H48.5286V265V264H46.5571V265ZM50.5 265V266H52.4714V265V264H50.5V265ZM54.4429 265V266H56.4143V265V264H54.4429V265ZM58.3857 265V266H60.3571V265V264H58.3857V265ZM62.3286 265V266H64.3V265V264H62.3286V265ZM66.2714 265V266H68.2428V265V264H66.2714V265ZM70.2143 265V266H72.1857V265V264H70.2143V265ZM74.1571 265V266H76.1286V265V264H74.1571V265ZM78.1 265V266H80.0714V265V264H78.1V265ZM82.0428 265V266H84.0143V265V264H82.0428V265ZM85.9857 265V266H87.9571V265V264H85.9857V265ZM89.9286 265V266H91.9V265V264H89.9286V265ZM93.8714 265V266H95.8428V265V264H93.8714V265ZM97.8143 265V266H99.7857V265V264H97.8143V265ZM101.757 265V266H103.729V265V264H101.757V265ZM105.7 265V266H107.671V265V264H105.7V265ZM109.643 265V266H111.614V265V264H109.643V265ZM113.586 265V266H115.557V265V264H113.586V265ZM117.529 265V266H119.5V265V264H117.529V265ZM121.471 265V266H123.443V265V264H121.471V265ZM125.414 265V266H127.386V265V264H125.414V265ZM129.357 265V266H131.329V265V264H129.357V265ZM133.3 265V266H135.271V265V264H133.3V265ZM137.243 265V266H139.214V265V264H137.243V265ZM141.186 265V266H143.157V265V264H141.186V265ZM145.129 265V266H147.1V265V264H145.129V265ZM149.071 265V266H151.043V265V264H149.071V265ZM153.014 265V266H154V265V264H153.014V265Z" fill="#E5E5E5" mask="url(#path-26-inside-6_172_463)"/>
<path d="M33.6543 250.047V250.797C33.6543 251.576 33.6543 252.508 33.3965 253.762H34.9082V254.512H30.5723V256.434H33.7246V259.949H32.7988V257.195H26.3535V256.434H29.6582V254.512H25.3691V253.762H32.4707C32.7402 252.484 32.7402 251.576 32.7402 250.797H26.5762V250.047H33.6543ZM44.6465 249.531V259.949H43.7676V249.531H44.6465ZM42.5371 249.789V259.41H41.6699V254.043H39.9121V253.293H41.6699V249.789H42.5371ZM38.7988 252.508C38.7988 254.312 39.6074 256.105 41.0488 256.938L40.4863 257.617C39.4609 257.002 38.7344 255.877 38.377 254.547C37.9961 255.982 37.2402 257.207 36.1973 257.863L35.6113 257.172C37.0645 256.305 37.9082 254.406 37.9082 252.508V251.523H35.9043V250.762H40.709V251.523H38.7988V252.508ZM49.6035 252.332C49.6035 254.172 50.8223 256.059 52.2988 256.785L51.7363 257.523C50.5879 256.92 49.627 255.689 49.1699 254.242C48.7012 255.783 47.7168 257.096 46.5449 257.723L45.959 256.984C47.4824 256.234 48.6895 254.23 48.7012 252.332V250.434H49.6035V252.332ZM54.1738 249.531V253.762H55.9199V254.559H54.1738V259.949H53.2598V249.531H54.1738ZM65.0254 249.531V259.949H64.1113V249.531H65.0254ZM56.541 257.172C57.4316 257.166 58.4512 257.16 59.5059 257.125V255.988C58.2578 255.854 57.4434 255.145 57.4551 254.102C57.4434 252.93 58.4512 252.168 59.9512 252.168C61.4512 252.168 62.4707 252.93 62.4707 254.102C62.4707 255.133 61.6621 255.842 60.4316 255.977V257.09C61.4395 257.049 62.459 256.973 63.4199 256.844L63.4902 257.547C61.1699 257.922 58.6152 257.957 56.6816 257.957L56.541 257.172ZM63.1504 250.82V251.57H56.7637V250.82H59.5059V249.543H60.4316V250.82H63.1504ZM59.9512 252.883C58.9902 252.883 58.3105 253.375 58.3105 254.102C58.3105 254.828 58.9902 255.297 59.9512 255.285C60.9238 255.297 61.5918 254.828 61.5918 254.102C61.5918 253.375 60.9238 252.883 59.9512 252.883ZM70.2637 250.293C71.9043 250.293 73.0645 251.289 73.0645 252.742C73.0645 254.195 71.9043 255.191 70.2637 255.191C68.623 255.191 67.4395 254.195 67.4512 252.742C67.4395 251.289 68.623 250.293 70.2637 250.293ZM70.2637 251.102C69.1504 251.102 68.3418 251.77 68.3535 252.742C68.3418 253.715 69.1504 254.383 70.2637 254.383C71.3652 254.383 72.1621 253.715 72.1621 252.742C72.1621 251.77 71.3652 251.102 70.2637 251.102ZM75.3965 249.531V259.973H74.4824V249.531H75.3965ZM66.9121 256.891C68.834 256.891 71.4824 256.879 73.791 256.539L73.8613 257.219C71.4824 257.664 68.916 257.676 67.041 257.676L66.9121 256.891ZM88.6738 254.277V255.051H85.4395V257.828H89.7754V258.59H80.2363V257.828H84.5254V255.051H81.4082V250.422H82.3457V254.277H88.6738ZM95.5527 250.176V253.094H91.9668V254.711C93.9238 254.711 94.9316 254.682 96.1621 254.453L96.2559 255.215C94.9551 255.426 93.9004 255.461 91.791 255.461H91.0527V252.391H94.6387V250.914H91.0293V250.176H95.5527ZM99.2441 249.543V255.941H98.3184V254.008H96.2441V253.246H98.3184V251.84H96.2441V251.09H98.3184V249.543H99.2441ZM99.2441 256.504V259.973H98.3184V257.254H92.2246V256.504H99.2441ZM106.756 250.691V251.23C106.744 252.051 106.744 253.434 106.451 255.367L105.525 255.285C105.807 253.539 105.83 252.273 105.83 251.441H101.459V250.691H106.756ZM104.025 253.668V256.832C105.18 256.791 106.363 256.715 107.447 256.586L107.494 257.277C105.303 257.617 102.854 257.664 100.99 257.652L100.873 256.891C101.559 256.885 102.32 256.879 103.123 256.855V253.668H104.025ZM109.018 249.531V253.891H110.705V254.688H109.018V259.949H108.104V249.531H109.018ZM123.209 249.531V256.129H122.33V253.141H120.936V255.754H120.068V249.742H120.936V252.379H122.33V249.531H123.209ZM119.646 250.785V251.523H114.303V250.785H116.529V249.613H117.443V250.785H119.646ZM116.986 252.086C118.311 252.086 119.213 252.777 119.225 253.867C119.213 254.934 118.311 255.637 116.986 255.637C115.674 255.637 114.748 254.934 114.76 253.867C114.748 252.777 115.674 252.086 116.986 252.086ZM116.986 252.766C116.154 252.766 115.58 253.211 115.58 253.867C115.58 254.512 116.154 254.945 116.986 254.945C117.818 254.945 118.393 254.512 118.393 253.867C118.393 253.211 117.818 252.766 116.986 252.766ZM119.764 256.305C121.955 256.305 123.268 256.961 123.268 258.133C123.268 259.27 121.955 259.926 119.764 259.926C117.572 259.926 116.26 259.27 116.271 258.133C116.26 256.961 117.572 256.305 119.764 256.305ZM119.764 257.031C118.146 257.02 117.174 257.418 117.186 258.133C117.174 258.812 118.146 259.211 119.764 259.211C121.381 259.211 122.342 258.812 122.354 258.133C122.342 257.418 121.381 257.02 119.764 257.031ZM134.236 254.688V255.426H124.732V254.688H129.033V253.469H125.939V250.023H133.053V250.762H126.842V252.719H133.123V253.469H129.924V254.688H134.236ZM129.479 256.188C131.717 256.188 133.053 256.867 133.064 258.062C133.053 259.27 131.717 259.938 129.479 259.949C127.229 259.938 125.881 259.27 125.881 258.062C125.881 256.867 127.229 256.188 129.479 256.188ZM129.479 256.914C127.803 256.914 126.807 257.348 126.818 258.062C126.807 258.789 127.803 259.211 129.479 259.211C131.131 259.211 132.139 258.789 132.139 258.062C132.139 257.348 131.131 256.914 129.479 256.914ZM139.85 249.719C142.17 249.719 143.529 250.352 143.529 251.512C143.529 252.695 142.17 253.328 139.85 253.34C137.529 253.328 136.158 252.695 136.158 251.512C136.158 250.352 137.529 249.719 139.85 249.719ZM139.85 250.41C138.115 250.41 137.107 250.832 137.119 251.512C137.107 252.238 138.115 252.637 139.85 252.637C141.572 252.637 142.592 252.238 142.592 251.512C142.592 250.832 141.572 250.41 139.85 250.41ZM144.596 254.043V254.793H135.104V254.043H144.596ZM143.377 255.695V258.027H137.189V259.105H143.693V259.832H136.275V257.348H142.475V256.398H136.252V255.695H143.377Z" fill="#333333"/>
<mask id="path-29-inside-7_172_463" fill="white">
<path d="M16 270H154V290H16V270Z"/>
</mask>
<path d="M16 290V290.5H16.9857V290V289.5H16V290ZM18.9571 290V290.5H20.9286V290V289.5H18.9571V290ZM22.9 290V290.5H24.8714V290V289.5H22.9V290ZM26.8429 290V290.5H28.8143V290V289.5H26.8429V290ZM30.7857 290V290.5H32.7571V290V289.5H30.7857V290ZM34.7286 290V290.5H36.7V290V289.5H34.7286V290ZM38.6714 290V290.5H40.6429V290V289.5H38.6714V290ZM42.6143 290V290.5H44.5857V290V289.5H42.6143V290ZM46.5571 290V290.5H48.5286V290V289.5H46.5571V290ZM50.5 290V290.5H52.4714V290V289.5H50.5V290ZM54.4429 290V290.5H56.4143V290V289.5H54.4429V290ZM58.3857 290V290.5H60.3571V290V289.5H58.3857V290ZM62.3286 290V290.5H64.3V290V289.5H62.3286V290ZM66.2714 290V290.5H68.2428V290V289.5H66.2714V290ZM70.2143 290V290.5H72.1857V290V289.5H70.2143V290ZM74.1571 290V290.5H76.1286V290V289.5H74.1571V290ZM78.1 290V290.5H80.0714V290V289.5H78.1V290ZM82.0428 290V290.5H84.0143V290V289.5H82.0428V290ZM85.9857 290V290.5H87.9571V290V289.5H85.9857V290ZM89.9286 290V290.5H91.9V290V289.5H89.9286V290ZM93.8714 290V290.5H95.8428V290V289.5H93.8714V290ZM97.8143 290V290.5H99.7857V290V289.5H97.8143V290ZM101.757 290V290.5H103.729V290V289.5H101.757V290ZM105.7 290V290.5H107.671V290V289.5H105.7V290ZM109.643 290V290.5H111.614V290V289.5H109.643V290ZM113.586 290V290.5H115.557V290V289.5H113.586V290ZM117.529 290V290.5H119.5V290V289.5H117.529V290ZM121.471 290V290.5H123.443V290V289.5H121.471V290ZM125.414 290V290.5H127.386V290V289.5H125.414V290ZM129.357 290V290.5H131.329V290V289.5H129.357V290ZM133.3 290V290.5H135.271V290V289.5H133.3V290ZM137.243 290V290.5H139.214V290V289.5H137.243V290ZM141.186 290V290.5H143.157V290V289.5H141.186V290ZM145.129 290V290.5H147.1V290V289.5H145.129V290ZM149.071 290V290.5H151.043V290V289.5H149.071V290ZM153.014 290V290.5H154V290V289.5H153.014V290ZM16 290V291H16.9857V290V289H16V290ZM18.9571 290V291H20.9286V290V289H18.9571V290ZM22.9 290V291H24.8714V290V289H22.9V290ZM26.8429 290V291H28.8143V290V289H26.8429V290ZM30.7857 290V291H32.7571V290V289H30.7857V290ZM34.7286 290V291H36.7V290V289H34.7286V290ZM38.6714 290V291H40.6429V290V289H38.6714V290ZM42.6143 290V291H44.5857V290V289H42.6143V290ZM46.5571 290V291H48.5286V290V289H46.5571V290ZM50.5 290V291H52.4714V290V289H50.5V290ZM54.4429 290V291H56.4143V290V289H54.4429V290ZM58.3857 290V291H60.3571V290V289H58.3857V290ZM62.3286 290V291H64.3V290V289H62.3286V290ZM66.2714 290V291H68.2428V290V289H66.2714V290ZM70.2143 290V291H72.1857V290V289H70.2143V290ZM74.1571 290V291H76.1286V290V289H74.1571V290ZM78.1 290V291H80.0714V290V289H78.1V290ZM82.0428 290V291H84.0143V290V289H82.0428V290ZM85.9857 290V291H87.9571V290V289H85.9857V290ZM89.9286 290V291H91.9V290V289H89.9286V290ZM93.8714 290V291H95.8428V290V289H93.8714V290ZM97.8143 290V291H99.7857V290V289H97.8143V290ZM101.757 290V291H103.729V290V289H101.757V290ZM105.7 290V291H107.671V290V289H105.7V290ZM109.643 290V291H111.614V290V289H109.643V290ZM113.586 290V291H115.557V290V289H113.586V290ZM117.529 290V291H119.5V290V289H117.529V290ZM121.471 290V291H123.443V290V289H121.471V290ZM125.414 290V291H127.386V290V289H125.414V290ZM129.357 290V291H131.329V290V289H129.357V290ZM133.3 290V291H135.271V290V289H133.3V290ZM137.243 290V291H139.214V290V289H137.243V290ZM141.186 290V291H143.157V290V289H141.186V290ZM145.129 290V291H147.1V290V289H145.129V290ZM149.071 290V291H151.043V290V289H149.071V290ZM153.014 290V291H154V290V289H153.014V290Z" fill="#E5E5E5" mask="url(#path-29-inside-7_172_463)"/>
<path d="M61.3809 275.293C63.0215 275.293 64.1816 276.289 64.1816 277.742C64.1816 279.195 63.0215 280.191 61.3809 280.191C59.7402 280.191 58.5566 279.195 58.5684 277.742C58.5566 276.289 59.7402 275.293 61.3809 275.293ZM61.3809 276.102C60.2676 276.102 59.459 276.77 59.4707 277.742C59.459 278.715 60.2676 279.383 61.3809 279.383C62.4824 279.383 63.2793 278.715 63.2793 277.742C63.2793 276.77 62.4824 276.102 61.3809 276.102ZM66.5137 274.531V284.973H65.5996V274.531H66.5137ZM58.0293 281.891C59.9512 281.891 62.5996 281.879 64.9082 281.539L64.9785 282.219C62.5996 282.664 60.0332 282.676 58.1582 282.676L58.0293 281.891ZM73.7676 275.562V282.336H68.9512V275.562H73.7676ZM69.8535 276.301V281.586H72.8652V276.301H69.8535ZM76.9316 274.531V284.973H76.0059V274.531H76.9316ZM86.8574 274.531V277.203H88.4277V277.988H86.8574V280.59H85.9434V274.531H86.8574ZM81.1855 281.047V282.16H85.9434V281.047H86.8574V284.809H80.2715V281.047H81.1855ZM81.1855 284.07H85.9434V282.887H81.1855V284.07ZM84.9473 275.609V276.371H78.7363V275.609H81.3848V274.438H82.2988V275.609H84.9473ZM81.8418 276.852C83.3418 276.852 84.3379 277.566 84.3496 278.68C84.3379 279.793 83.3418 280.508 81.8418 280.508C80.3301 280.508 79.3223 279.793 79.334 278.68C79.3223 277.566 80.3301 276.852 81.8418 276.852ZM81.8418 277.566C80.8574 277.555 80.2012 278.012 80.2129 278.68C80.2012 279.359 80.8574 279.805 81.8418 279.805C82.8145 279.805 83.4707 279.359 83.4824 278.68C83.4707 278.012 82.8145 277.555 81.8418 277.566ZM97.6738 274.531V284.949H96.7598V274.531H97.6738ZM90.666 275.562V281.469C92.2539 281.463 93.9004 281.334 95.6465 280.965L95.7754 281.75C93.9238 282.137 92.2715 282.266 90.6074 282.266H89.7637V275.562H90.666ZM107.518 274.531V278.656H109.264V279.43H107.518V284.973H106.604V274.531H107.518ZM104.775 275.551V276.312H100.826V281.586C102.713 281.586 104.049 281.498 105.596 281.211L105.713 282.008C104.084 282.301 102.713 282.359 100.732 282.359H99.9121V275.551H104.775ZM110.928 284.07C110.518 284.07 110.166 283.73 110.178 283.309C110.166 282.898 110.518 282.559 110.928 282.559C111.338 282.559 111.678 282.898 111.678 283.309C111.678 283.73 111.338 284.07 110.928 284.07Z" fill="#333333"/>
<rect x="35" y="62" width="105" height="11" fill="#DDF7FF"/>
<path d="M46.5221 65.756C46.9188 65.756 47.1171 65.943 47.1171 66.317V67.796H40.5041C40.1075 67.796 39.9091 67.6033 39.9091 67.218V56.083H41.5241C41.9208 56.083 42.1191 56.2757 42.1191 56.661V65.756H46.5221ZM54.9363 67.643C54.5623 67.7903 54.2053 67.8923 53.8653 67.949C53.5253 67.9943 53.14 68.017 52.7093 68.017C51.2813 68.017 50.148 67.6657 49.3093 66.963C48.4707 66.249 48.0513 65.0817 48.0513 63.461C48.0513 62.441 48.2213 61.591 48.5613 60.911C48.9013 60.2197 49.3603 59.7097 49.9383 59.381C50.5163 59.0523 51.1737 58.888 51.9103 58.888C52.5337 58.888 53.1003 59.0183 53.6103 59.279C54.1317 59.5397 54.5397 59.9137 54.8343 60.401C55.129 60.8883 55.2763 61.455 55.2763 62.101C55.2763 62.815 55.0837 63.3703 54.6983 63.767C54.313 64.1523 53.6897 64.3563 52.8283 64.379L50.2443 64.447C50.2443 64.9343 50.4767 65.3367 50.9413 65.654C51.406 65.96 52.001 66.113 52.7263 66.113C53.5083 66.113 54.2337 65.994 54.9023 65.756L55.2083 67.167C55.2197 67.201 55.2253 67.2463 55.2253 67.303C55.2253 67.4503 55.129 67.5637 54.9363 67.643ZM53.3213 61.982C53.3213 61.6307 53.1967 61.336 52.9473 61.098C52.698 60.8487 52.3637 60.724 51.9443 60.724C51.4117 60.724 50.9923 60.8997 50.6863 61.251C50.3917 61.6023 50.2443 62.101 50.2443 62.747L52.6413 62.713C52.868 62.713 53.038 62.6563 53.1513 62.543C53.2647 62.4183 53.3213 62.2313 53.3213 61.982ZM61.8835 66.997C61.9175 67.065 61.9345 67.133 61.9345 67.201C61.9345 67.371 61.8268 67.507 61.6115 67.609C61.1695 67.847 60.6311 67.966 59.9965 67.966C59.1465 67.966 58.4721 67.7507 57.9735 67.32C57.4861 66.878 57.2425 66.2037 57.2425 65.297V60.996H56.3585C55.9958 60.996 55.8145 60.8203 55.8145 60.469V58.973H57.2425V56.304H58.9085C59.2711 56.304 59.4525 56.4853 59.4525 56.848V58.973H60.7785C61.1525 58.973 61.3395 59.1543 61.3395 59.517V60.996H59.4525V64.787C59.4525 65.161 59.5148 65.4273 59.6395 65.586C59.7755 65.7333 59.9908 65.807 60.2855 65.807C60.6028 65.807 60.9428 65.7163 61.3055 65.535L61.8835 66.997ZM63.0011 60.078C63.2731 59.7607 63.5111 59.4207 63.7151 59.058C63.9304 58.6953 64.0834 58.3497 64.1741 58.021C63.7661 57.9983 63.4431 57.885 63.2051 57.681C62.9784 57.4657 62.8651 57.1823 62.8651 56.831C62.8651 56.4457 62.9954 56.117 63.2561 55.845C63.5281 55.5617 63.8681 55.42 64.2761 55.42C64.6841 55.42 65.0128 55.5617 65.2621 55.845C65.5114 56.1283 65.6361 56.525 65.6361 57.035C65.6361 57.7377 65.4774 58.429 65.1601 59.109C64.8428 59.789 64.4971 60.2877 64.1231 60.605C64.0438 60.6617 63.9758 60.69 63.9191 60.69C63.8624 60.69 63.8114 60.673 63.7661 60.639L63.0011 60.078ZM72.9825 61.472C72.5632 61.234 72.1495 61.0583 71.7415 60.945C71.3335 60.8203 70.8802 60.758 70.3815 60.758C69.9962 60.758 69.7015 60.8203 69.4975 60.945C69.3048 61.0583 69.2085 61.2227 69.2085 61.438C69.2085 61.6533 69.3332 61.8403 69.5825 61.999C69.8318 62.1463 70.2965 62.3163 70.9765 62.509C72.8012 63.019 73.7135 63.988 73.7135 65.416C73.7135 66.2887 73.4188 66.9403 72.8295 67.371C72.2402 67.8017 71.4072 68.017 70.3305 68.017C69.6618 68.017 69.0385 67.9377 68.4605 67.779C67.8825 67.609 67.3952 67.371 66.9985 67.065C66.8512 66.963 66.7775 66.844 66.7775 66.708C66.7775 66.606 66.8115 66.504 66.8795 66.402L67.7295 65.229C68.5115 65.7957 69.3332 66.079 70.1945 66.079C71.0332 66.079 71.4525 65.8467 71.4525 65.382C71.4525 65.1553 71.3335 64.9513 71.0955 64.77C70.8575 64.5887 70.4382 64.4187 69.8375 64.26C68.8288 63.988 68.0978 63.6423 67.6445 63.223C67.1912 62.8037 66.9645 62.2597 66.9645 61.591C66.9645 60.7297 67.2705 60.0667 67.8825 59.602C68.4945 59.126 69.3275 58.888 70.3815 58.888C70.9028 58.888 71.4015 58.9503 71.8775 59.075C72.3535 59.1997 72.7672 59.3753 73.1185 59.602C73.3225 59.7267 73.4245 59.8683 73.4245 60.027C73.4245 60.095 73.4188 60.146 73.4075 60.18L72.9825 61.472ZM90.3772 66.385V67.201C90.3772 67.643 90.3545 67.9547 90.3092 68.136C90.2525 68.4307 90.1052 68.646 89.8672 68.782C89.6405 68.9293 89.3119 69.003 88.8812 69.003C88.7792 69.003 88.5809 68.9917 88.2862 68.969V62.373H87.1812V67.269C87.1812 67.575 87.1302 67.8073 87.0282 67.966C86.9375 68.1247 86.7902 68.2323 86.5862 68.289C86.4275 68.3457 86.2235 68.374 85.9742 68.374C85.8042 68.374 85.5379 68.3513 85.1752 68.306V55.216H86.6032C86.9885 55.216 87.1812 55.403 87.1812 55.777V60.248H88.2862V54.876H89.7992C90.1845 54.876 90.3772 55.063 90.3772 55.437V66.385ZM83.7472 56.559C83.9285 56.559 84.0589 56.5987 84.1382 56.678C84.2289 56.7573 84.2742 56.882 84.2742 57.052V57.834C84.2742 58.8313 84.1269 59.8173 83.8322 60.792C83.5375 61.7667 83.1409 62.662 82.6422 63.478C82.1435 64.294 81.5882 64.974 80.9762 65.518C80.5909 65.8693 80.2339 66.045 79.9052 66.045C79.7579 66.045 79.6105 66.011 79.4632 65.943C79.2705 65.875 79.0949 65.7617 78.9362 65.603C78.7775 65.4443 78.6642 65.2687 78.5962 65.076C79.6842 64.1467 80.5399 63.0813 81.1632 61.88C81.7865 60.6673 82.1265 59.517 82.1832 58.429H79.5822C79.2082 58.429 79.0212 58.2477 79.0212 57.885V56.559H83.7472ZM104.573 58.242C104.63 58.378 104.658 58.565 104.658 58.803C104.658 59.2223 104.556 59.5963 104.352 59.925H102.567V60.435C102.567 60.911 102.544 61.2453 102.499 61.438C102.442 61.7327 102.295 61.9537 102.057 62.101C101.83 62.237 101.49 62.305 101.037 62.305C100.924 62.305 100.72 62.2937 100.425 62.271V54.876H101.989C102.374 54.876 102.567 55.063 102.567 55.437V57.783C102.952 57.715 103.275 57.681 103.536 57.681C103.831 57.681 104.057 57.7263 104.216 57.817C104.375 57.9077 104.494 58.0493 104.573 58.242ZM98.9799 61.047C98.5945 61.3643 98.1129 61.6023 97.5349 61.761C96.9569 61.9197 96.3449 61.999 95.6989 61.999C95.4609 61.999 95.2852 61.9933 95.1719 61.982C93.5059 61.8687 92.5539 61.1773 92.3159 59.908C92.2365 59.432 92.1969 58.8597 92.1969 58.191C92.1969 57.2843 92.2592 56.321 92.3839 55.301H93.8459C94.2085 55.301 94.3785 55.4993 94.3559 55.896C94.3332 56.0887 94.3105 56.4117 94.2879 56.865H96.9739V55.301H98.4019C98.7872 55.301 98.9799 55.488 98.9799 55.862V61.047ZM94.3049 59.245C94.3842 59.857 94.7129 60.2027 95.2909 60.282C95.4722 60.316 95.6535 60.333 95.8349 60.333C96.2542 60.333 96.6339 60.2537 96.9739 60.095V58.446H94.2709C94.2709 58.7067 94.2822 58.973 94.3049 59.245ZM102.057 67.201C102.272 67.1783 102.442 67.2067 102.567 67.286C102.692 67.3653 102.754 67.5013 102.754 67.694V68.782C101.485 68.9407 100.232 69.02 98.9969 69.02C97.9995 69.02 97.1155 68.969 96.3449 68.867C95.7329 68.7877 95.2512 68.6403 94.8999 68.425C94.5599 68.221 94.3275 67.932 94.2029 67.558C94.0895 67.2633 94.0329 66.8837 94.0329 66.419C94.0329 65.9883 94.0839 65.5463 94.1859 65.093H100.391V64.413H94.9339C94.6505 64.413 94.4352 64.345 94.2879 64.209C94.1405 64.073 94.0669 63.886 94.0669 63.648V62.815H101.819C102.204 62.815 102.397 63.002 102.397 63.376V65.926C102.397 66.3567 102.17 66.572 101.717 66.572H96.0899C96.0785 66.7533 96.1182 66.895 96.2089 66.997C96.3109 67.0877 96.4979 67.1557 96.7699 67.201C97.2459 67.2803 98.0052 67.32 99.0479 67.32C100.181 67.32 101.184 67.2803 102.057 67.201ZM106.087 57.613C105.701 57.613 105.509 57.426 105.509 57.052V55.964H108.331L108.042 54.74C108.189 54.6267 108.365 54.536 108.569 54.468C108.773 54.3887 108.971 54.349 109.164 54.349C109.515 54.349 109.781 54.434 109.963 54.604C110.144 54.7627 110.235 54.9837 110.235 55.267C110.235 55.4483 110.178 55.6807 110.065 55.964H112.19C112.575 55.964 112.768 56.151 112.768 56.525V57.613H106.087ZM116.729 60.282V61.098C116.729 61.54 116.706 61.8517 116.661 62.033C116.604 62.3277 116.457 62.5487 116.219 62.696C115.992 62.832 115.652 62.9 115.199 62.9C115.085 62.9 114.881 62.8887 114.587 62.866V62.441C114.201 62.4637 113.946 62.475 113.822 62.475C113.425 62.475 113.136 62.441 112.955 62.373C112.773 62.2937 112.649 62.1747 112.581 62.016C112.513 61.88 112.479 61.6873 112.479 61.438C112.479 61.1207 112.53 60.8373 112.632 60.588H114.587V59.789C114.201 59.8117 113.946 59.823 113.822 59.823C113.425 59.823 113.136 59.789 112.955 59.721C112.773 59.6417 112.649 59.5227 112.581 59.364C112.513 59.228 112.479 59.0353 112.479 58.786C112.479 58.4687 112.53 58.1853 112.632 57.936H114.587V54.876H116.151C116.536 54.876 116.729 55.063 116.729 55.437V60.282ZM112.19 60.52C112.19 61.2907 111.929 61.8913 111.408 62.322C110.886 62.7527 110.133 62.968 109.147 62.968C108.172 62.968 107.424 62.7527 106.903 62.322C106.381 61.8913 106.121 61.2907 106.121 60.52C106.121 59.7493 106.387 59.126 106.92 58.65C107.464 58.1627 108.206 57.919 109.147 57.919C110.087 57.919 110.83 58.1627 111.374 58.65C111.918 59.126 112.19 59.7493 112.19 60.52ZM108.076 60.418C108.076 60.7127 108.166 60.945 108.348 61.115C108.529 61.2737 108.795 61.353 109.147 61.353C109.498 61.353 109.764 61.2737 109.946 61.115C110.138 60.945 110.235 60.7127 110.235 60.418C110.235 60.1233 110.133 59.891 109.929 59.721C109.736 59.5397 109.475 59.449 109.147 59.449C108.818 59.449 108.557 59.5397 108.365 59.721C108.172 59.891 108.076 60.1233 108.076 60.418ZM116.032 63.614C116.406 63.614 116.593 63.7953 116.593 64.158V68C116.185 68.3513 115.601 68.6233 114.842 68.816C114.082 69.0087 113.244 69.105 112.326 69.105C111.974 69.105 111.617 69.088 111.255 69.054C110.382 68.9747 109.696 68.7707 109.198 68.442C108.699 68.1247 108.365 67.6827 108.195 67.116C108.081 66.7647 108.025 66.2547 108.025 65.586C108.025 64.9173 108.076 64.26 108.178 63.614H109.64C109.798 63.614 109.912 63.6537 109.98 63.733C110.048 63.801 110.082 63.9087 110.082 64.056L110.065 64.668H114.536V63.614H116.032ZM111.425 67.303C111.81 67.3483 112.127 67.371 112.377 67.371C112.762 67.371 113.147 67.3427 113.533 67.286C113.929 67.2293 114.264 67.15 114.536 67.048V66.232H110.133V66.283C110.167 66.589 110.28 66.8157 110.473 66.963C110.665 67.1103 110.983 67.2237 111.425 67.303ZM128.017 58.361C127.677 58.395 127.388 58.412 127.15 58.412C126.754 58.412 126.459 58.3723 126.266 58.293C126.085 58.2137 125.955 58.0947 125.875 57.936C125.807 57.8 125.773 57.6073 125.773 57.358C125.773 57.0407 125.824 56.7573 125.926 56.508H128.017V54.876H129.581C129.967 54.876 130.159 55.063 130.159 55.437V60.622V61.438C130.159 61.88 130.137 62.1917 130.091 62.373C130.035 62.6677 129.887 62.8887 129.649 63.036C129.423 63.172 129.083 63.24 128.629 63.24C128.516 63.24 128.312 63.2287 128.017 63.206V60.996C127.677 61.03 127.388 61.047 127.15 61.047C126.754 61.047 126.459 61.0073 126.266 60.928C126.085 60.8487 125.955 60.7297 125.875 60.571C125.807 60.435 125.773 60.2423 125.773 59.993C125.773 59.6757 125.824 59.3923 125.926 59.143H128.017V58.361ZM126.385 62.611C125.637 62.7357 124.742 62.798 123.699 62.798C123.133 62.798 122.713 62.7867 122.441 62.764C121.569 62.7073 120.911 62.543 120.469 62.271C120.027 61.9877 119.75 61.5683 119.636 61.013C119.591 60.775 119.568 60.4463 119.568 60.027C119.568 59.3697 119.619 58.769 119.721 58.225H123.444V57.171H120.146C119.761 57.171 119.568 56.984 119.568 56.61V55.522H124.957C125.309 55.522 125.484 55.709 125.484 56.083V59.806H121.574L121.557 60.095C121.557 60.3217 121.58 60.4917 121.625 60.605C121.682 60.7183 121.795 60.809 121.965 60.877C122.135 60.9337 122.396 60.9733 122.747 60.996C123.189 61.03 123.603 61.047 123.988 61.047C124.43 61.047 125.014 61.0243 125.739 60.979C125.943 60.9677 126.102 61.0073 126.215 61.098C126.329 61.1887 126.385 61.3303 126.385 61.523V62.611ZM130.159 65.62L130.176 66.725C130.176 67.3937 130.148 67.8923 130.091 68.221C129.989 68.799 129.513 69.088 128.663 69.088C128.403 69.088 128.199 69.0767 128.051 69.054V65.875H121.999C121.614 65.875 121.421 65.688 121.421 65.314V64.005H129.581C129.967 64.005 130.159 64.192 130.159 64.566V65.62ZM134.444 56.236C134.829 56.236 135.022 56.423 135.022 56.797L134.971 63.444C134.971 63.954 134.875 64.311 134.682 64.515C134.501 64.719 134.149 64.8153 133.628 64.804L132.897 64.787L132.812 56.236H134.444ZM133.9 67.949C133.515 67.949 133.22 67.8583 133.016 67.677C132.823 67.4957 132.727 67.2407 132.727 66.912C132.727 66.5833 132.835 66.3057 133.05 66.079C133.265 65.841 133.549 65.722 133.9 65.722C134.251 65.722 134.535 65.841 134.75 66.079C134.965 66.3057 135.073 66.5833 135.073 66.912C135.073 67.2407 134.971 67.4957 134.767 67.677C134.574 67.8583 134.285 67.949 133.9 67.949Z" fill="#3060D1"/>
</svg>
