<svg width="174" height="326" viewBox="0 0 174 326" fill="none" xmlns="http://www.w3.org/2000/svg">
<rect x="5" y="10" width="169" height="316" rx="5" fill="#3C5E9B"/>
<rect x="0.5" y="0.5" width="169" height="322" rx="4.5" fill="white" stroke="#3C5E9B"/>
<path d="M5 0.5H165C167.485 0.500003 169.5 2.51472 169.5 5V21.5H0.5V5C0.5 2.51472 2.51472 0.5 5 0.5Z" fill="#B3E7F6"/>
<path d="M5 0.5H165C167.485 0.500003 169.5 2.51472 169.5 5V21.5H0.5V5C0.5 2.51472 2.51472 0.5 5 0.5Z" stroke="#3C5E9B"/>
<line x1="31.5" y1="15.5" x2="23.5" y2="15.5" stroke="#3C5E9B" stroke-linecap="round"/>
<rect x="38.5" y="7.5" width="8" height="8" stroke="#3C5E9B"/>
<path d="M13 11L17 15M13 11L9 7M13 11L9 15M13 11L17 7" stroke="#3C5E9B" stroke-linecap="round" stroke-linejoin="round"/>
<line x1="57.45" y1="6.55" x2="159.55" y2="6.55" stroke="#90C3EB" stroke-width="0.9" stroke-linecap="round"/>
<line x1="57.45" y1="11.05" x2="159.55" y2="11.05" stroke="#90C3EB" stroke-width="0.9" stroke-linecap="round"/>
<line x1="57.45" y1="15.55" x2="159.55" y2="15.55" stroke="#90C3EB" stroke-width="0.9" stroke-linecap="round"/>
<mask id="path-10-inside-1_172_130" fill="white">
<path d="M16 91H154V111H16V91Z"/>
</mask>
<path d="M16 111V111.5H16.9857V111V110.5H16V111ZM18.9571 111V111.5H20.9286V111V110.5H18.9571V111ZM22.9 111V111.5H24.8714V111V110.5H22.9V111ZM26.8429 111V111.5H28.8143V111V110.5H26.8429V111ZM30.7857 111V111.5H32.7571V111V110.5H30.7857V111ZM34.7286 111V111.5H36.7V111V110.5H34.7286V111ZM38.6714 111V111.5H40.6429V111V110.5H38.6714V111ZM42.6143 111V111.5H44.5857V111V110.5H42.6143V111ZM46.5571 111V111.5H48.5286V111V110.5H46.5571V111ZM50.5 111V111.5H52.4714V111V110.5H50.5V111ZM54.4429 111V111.5H56.4143V111V110.5H54.4429V111ZM58.3857 111V111.5H60.3571V111V110.5H58.3857V111ZM62.3286 111V111.5H64.3V111V110.5H62.3286V111ZM66.2714 111V111.5H68.2428V111V110.5H66.2714V111ZM70.2143 111V111.5H72.1857V111V110.5H70.2143V111ZM74.1571 111V111.5H76.1286V111V110.5H74.1571V111ZM78.1 111V111.5H80.0714V111V110.5H78.1V111ZM82.0428 111V111.5H84.0143V111V110.5H82.0428V111ZM85.9857 111V111.5H87.9571V111V110.5H85.9857V111ZM89.9286 111V111.5H91.9V111V110.5H89.9286V111ZM93.8714 111V111.5H95.8428V111V110.5H93.8714V111ZM97.8143 111V111.5H99.7857V111V110.5H97.8143V111ZM101.757 111V111.5H103.729V111V110.5H101.757V111ZM105.7 111V111.5H107.671V111V110.5H105.7V111ZM109.643 111V111.5H111.614V111V110.5H109.643V111ZM113.586 111V111.5H115.557V111V110.5H113.586V111ZM117.529 111V111.5H119.5V111V110.5H117.529V111ZM121.471 111V111.5H123.443V111V110.5H121.471V111ZM125.414 111V111.5H127.386V111V110.5H125.414V111ZM129.357 111V111.5H131.329V111V110.5H129.357V111ZM133.3 111V111.5H135.271V111V110.5H133.3V111ZM137.243 111V111.5H139.214V111V110.5H137.243V111ZM141.186 111V111.5H143.157V111V110.5H141.186V111ZM145.129 111V111.5H147.1V111V110.5H145.129V111ZM149.071 111V111.5H151.043V111V110.5H149.071V111ZM153.014 111V111.5H154V111V110.5H153.014V111ZM16 111V112H16.9857V111V110H16V111ZM18.9571 111V112H20.9286V111V110H18.9571V111ZM22.9 111V112H24.8714V111V110H22.9V111ZM26.8429 111V112H28.8143V111V110H26.8429V111ZM30.7857 111V112H32.7571V111V110H30.7857V111ZM34.7286 111V112H36.7V111V110H34.7286V111ZM38.6714 111V112H40.6429V111V110H38.6714V111ZM42.6143 111V112H44.5857V111V110H42.6143V111ZM46.5571 111V112H48.5286V111V110H46.5571V111ZM50.5 111V112H52.4714V111V110H50.5V111ZM54.4429 111V112H56.4143V111V110H54.4429V111ZM58.3857 111V112H60.3571V111V110H58.3857V111ZM62.3286 111V112H64.3V111V110H62.3286V111ZM66.2714 111V112H68.2428V111V110H66.2714V111ZM70.2143 111V112H72.1857V111V110H70.2143V111ZM74.1571 111V112H76.1286V111V110H74.1571V111ZM78.1 111V112H80.0714V111V110H78.1V111ZM82.0428 111V112H84.0143V111V110H82.0428V111ZM85.9857 111V112H87.9571V111V110H85.9857V111ZM89.9286 111V112H91.9V111V110H89.9286V111ZM93.8714 111V112H95.8428V111V110H93.8714V111ZM97.8143 111V112H99.7857V111V110H97.8143V111ZM101.757 111V112H103.729V111V110H101.757V111ZM105.7 111V112H107.671V111V110H105.7V111ZM109.643 111V112H111.614V111V110H109.643V111ZM113.586 111V112H115.557V111V110H113.586V111ZM117.529 111V112H119.5V111V110H117.529V111ZM121.471 111V112H123.443V111V110H121.471V111ZM125.414 111V112H127.386V111V110H125.414V111ZM129.357 111V112H131.329V111V110H129.357V111ZM133.3 111V112H135.271V111V110H133.3V111ZM137.243 111V112H139.214V111V110H137.243V111ZM141.186 111V112H143.157V111V110H141.186V111ZM145.129 111V112H147.1V111V110H145.129V111ZM149.071 111V112H151.043V111V110H149.071V111ZM153.014 111V112H154V111V110H153.014V111Z" fill="#E5E5E5" mask="url(#path-10-inside-1_172_130)"/>
<path d="M49.2988 95.9883V96.7734C49.2988 97.5469 49.2988 98.4727 49.0645 99.6914H50.5176V100.594H46.252V102.387H49.3457V105.996H48.2324V103.277H41.8926V102.387H45.1387V100.594H40.9082V99.6914H47.9395C48.1855 98.5195 48.1973 97.6406 48.1973 96.8906H42.1152V95.9883H49.2988ZM60.291 95.4961V105.996H59.2246V95.4961H60.291ZM58.1582 95.7188V105.469H57.1035V100.125H55.4746V99.2109H57.1035V95.7188H58.1582ZM54.4434 98.4258C54.4434 100.219 55.1699 102.012 56.6465 102.867L55.9785 103.688C54.9766 103.09 54.2852 102.029 53.9277 100.758C53.5469 102.129 52.832 103.295 51.8066 103.934L51.127 103.102C52.6152 102.199 53.377 100.289 53.377 98.4258V97.582H51.4434V96.6797H56.248V97.582H54.4434V98.4258ZM70.6387 95.4961V105.996H69.5723V100.547H68.2715V105.492H67.2285V95.7773H68.2715V99.6445H69.5723V95.4961H70.6387ZM66.1855 96.832C66.1738 99.5977 65.2598 102.07 62.2598 103.77L61.6152 102.996C63.9473 101.678 64.9316 99.8906 65.1074 97.7461H62.0605V96.832H66.1855ZM73.5215 95.9414V97.3711H76.2754V95.9414H77.377V100.523H72.4316V95.9414H73.5215ZM73.5215 99.6328H76.2754V98.2266H73.5215V99.6328ZM80.2715 95.4961V97.6992H81.7949V98.6016H80.2715V100.898H79.1582V95.4961H80.2715ZM80.2715 101.355V104.004H74.5996V105H80.6348V105.891H73.5098V103.184H79.1699V102.234H73.4863V101.355H80.2715ZM88.3105 96.5039V97.3945H82.4043V96.5039H84.8652V95.4023H85.9668V96.5039H88.3105ZM85.4043 97.8398C86.8223 97.8398 87.8184 98.6016 87.8301 99.7383C87.8184 100.887 86.8223 101.637 85.4043 101.637C83.9746 101.637 82.9902 100.887 82.9902 99.7383C82.9902 98.6016 83.9746 97.8398 85.4043 97.8398ZM85.4043 98.6953C84.5723 98.6953 84.0332 99.0938 84.0332 99.7383C84.0332 100.383 84.5723 100.805 85.4043 100.805C86.2246 100.805 86.7871 100.383 86.7988 99.7383C86.7871 99.0938 86.2246 98.6953 85.4043 98.6953ZM91.1465 95.4961V101.719H90.0332V100.84H88.334V99.9375H90.0332V98.7891H88.3457V97.875H90.0332V95.4961H91.1465ZM85.334 102.141V103.137H90.0449V102.141H91.1465V105.867H84.2324V102.141H85.334ZM85.334 104.988H90.0449V103.992H85.334V104.988ZM97.7676 96.1289V99.1875H94.2988V100.641C96.127 100.646 97.123 100.605 98.3066 100.383L98.4121 101.285C97.1348 101.508 96.0566 101.543 93.959 101.543H93.1973V98.3438H96.6543V97.0195H93.1855V96.1289H97.7676ZM101.518 95.5078V101.965H100.404V100.113H98.4355V99.2227H100.404V97.9219H98.4355V97.0312H100.404V95.5078H101.518ZM101.518 102.492V106.008H100.404V103.395H94.3926V102.492H101.518ZM111.83 95.4961V106.02H110.717V95.4961H111.83ZM106.217 96.2812C107.775 96.2812 108.924 97.7109 108.924 99.9609C108.924 102.223 107.775 103.652 106.217 103.652C104.635 103.652 103.498 102.223 103.498 99.9609C103.498 97.7109 104.635 96.2812 106.217 96.2812ZM106.217 97.2773C105.244 97.2773 104.576 98.3086 104.576 99.9609C104.576 101.625 105.244 102.656 106.217 102.656C107.178 102.656 107.846 101.625 107.846 99.9609C107.846 98.3086 107.178 97.2773 106.217 97.2773ZM121.756 95.5078V98.6602H123.291V99.5977H121.756V103.23H120.643V95.5078H121.756ZM122.225 104.871V105.773H115.158V102.633H116.283V104.871H122.225ZM118.709 96.1758V99.2695H115.053V100.734C116.875 100.74 118.164 100.652 119.693 100.395L119.811 101.309C118.182 101.59 116.799 101.648 114.783 101.648H113.939V98.4141H117.619V97.0898H113.928V96.1758H118.709ZM125.6 102.48C125.611 100.945 126.068 100.477 126.842 99.9961C127.334 99.6914 127.709 99.2695 127.709 98.6484C127.709 97.9102 127.146 97.4531 126.443 97.4531C125.811 97.4531 125.201 97.8398 125.143 98.707H123.877C123.924 97.2188 125.049 96.3984 126.443 96.3984C127.967 96.3984 128.986 97.3125 128.986 98.6484C128.986 99.5859 128.541 100.219 127.791 100.676C127.088 101.098 126.818 101.531 126.795 102.48V102.551H125.6V102.48ZM126.244 105.082C125.787 105.082 125.4 104.707 125.412 104.25C125.4 103.793 125.787 103.418 126.244 103.418C126.689 103.418 127.076 103.793 127.076 104.25C127.076 104.707 126.689 105.082 126.244 105.082Z" fill="#333333"/>
<mask id="path-13-inside-2_172_130" fill="white">
<path d="M16 116H154V136H16V116Z"/>
</mask>
<path d="M16 136V136.5H16.9857V136V135.5H16V136ZM18.9571 136V136.5H20.9286V136V135.5H18.9571V136ZM22.9 136V136.5H24.8714V136V135.5H22.9V136ZM26.8429 136V136.5H28.8143V136V135.5H26.8429V136ZM30.7857 136V136.5H32.7571V136V135.5H30.7857V136ZM34.7286 136V136.5H36.7V136V135.5H34.7286V136ZM38.6714 136V136.5H40.6429V136V135.5H38.6714V136ZM42.6143 136V136.5H44.5857V136V135.5H42.6143V136ZM46.5571 136V136.5H48.5286V136V135.5H46.5571V136ZM50.5 136V136.5H52.4714V136V135.5H50.5V136ZM54.4429 136V136.5H56.4143V136V135.5H54.4429V136ZM58.3857 136V136.5H60.3571V136V135.5H58.3857V136ZM62.3286 136V136.5H64.3V136V135.5H62.3286V136ZM66.2714 136V136.5H68.2428V136V135.5H66.2714V136ZM70.2143 136V136.5H72.1857V136V135.5H70.2143V136ZM74.1571 136V136.5H76.1286V136V135.5H74.1571V136ZM78.1 136V136.5H80.0714V136V135.5H78.1V136ZM82.0428 136V136.5H84.0143V136V135.5H82.0428V136ZM85.9857 136V136.5H87.9571V136V135.5H85.9857V136ZM89.9286 136V136.5H91.9V136V135.5H89.9286V136ZM93.8714 136V136.5H95.8428V136V135.5H93.8714V136ZM97.8143 136V136.5H99.7857V136V135.5H97.8143V136ZM101.757 136V136.5H103.729V136V135.5H101.757V136ZM105.7 136V136.5H107.671V136V135.5H105.7V136ZM109.643 136V136.5H111.614V136V135.5H109.643V136ZM113.586 136V136.5H115.557V136V135.5H113.586V136ZM117.529 136V136.5H119.5V136V135.5H117.529V136ZM121.471 136V136.5H123.443V136V135.5H121.471V136ZM125.414 136V136.5H127.386V136V135.5H125.414V136ZM129.357 136V136.5H131.329V136V135.5H129.357V136ZM133.3 136V136.5H135.271V136V135.5H133.3V136ZM137.243 136V136.5H139.214V136V135.5H137.243V136ZM141.186 136V136.5H143.157V136V135.5H141.186V136ZM145.129 136V136.5H147.1V136V135.5H145.129V136ZM149.071 136V136.5H151.043V136V135.5H149.071V136ZM153.014 136V136.5H154V136V135.5H153.014V136ZM16 136V137H16.9857V136V135H16V136ZM18.9571 136V137H20.9286V136V135H18.9571V136ZM22.9 136V137H24.8714V136V135H22.9V136ZM26.8429 136V137H28.8143V136V135H26.8429V136ZM30.7857 136V137H32.7571V136V135H30.7857V136ZM34.7286 136V137H36.7V136V135H34.7286V136ZM38.6714 136V137H40.6429V136V135H38.6714V136ZM42.6143 136V137H44.5857V136V135H42.6143V136ZM46.5571 136V137H48.5286V136V135H46.5571V136ZM50.5 136V137H52.4714V136V135H50.5V136ZM54.4429 136V137H56.4143V136V135H54.4429V136ZM58.3857 136V137H60.3571V136V135H58.3857V136ZM62.3286 136V137H64.3V136V135H62.3286V136ZM66.2714 136V137H68.2428V136V135H66.2714V136ZM70.2143 136V137H72.1857V136V135H70.2143V136ZM74.1571 136V137H76.1286V136V135H74.1571V136ZM78.1 136V137H80.0714V136V135H78.1V136ZM82.0428 136V137H84.0143V136V135H82.0428V136ZM85.9857 136V137H87.9571V136V135H85.9857V136ZM89.9286 136V137H91.9V136V135H89.9286V136ZM93.8714 136V137H95.8428V136V135H93.8714V136ZM97.8143 136V137H99.7857V136V135H97.8143V136ZM101.757 136V137H103.729V136V135H101.757V136ZM105.7 136V137H107.671V136V135H105.7V136ZM109.643 136V137H111.614V136V135H109.643V136ZM113.586 136V137H115.557V136V135H113.586V136ZM117.529 136V137H119.5V136V135H117.529V136ZM121.471 136V137H123.443V136V135H121.471V136ZM125.414 136V137H127.386V136V135H125.414V136ZM129.357 136V137H131.329V136V135H129.357V136ZM133.3 136V137H135.271V136V135H133.3V136ZM137.243 136V137H139.214V136V135H137.243V136ZM141.186 136V137H143.157V136V135H141.186V136ZM145.129 136V137H147.1V136V135H145.129V136ZM149.071 136V137H151.043V136V135H149.071V136ZM153.014 136V137H154V136V135H153.014V136Z" fill="#E5E5E5" mask="url(#path-13-inside-2_172_130)"/>
<path d="M25.4277 121.047V121.797C25.4277 122.576 25.4277 123.508 25.1699 124.762H26.6816V125.512H22.3457V127.434H25.498V130.949H24.5723V128.195H18.127V127.434H21.4316V125.512H17.1426V124.762H24.2441C24.5137 123.484 24.5137 122.576 24.5137 121.797H18.3496V121.047H25.4277ZM35.5762 120.531V124.773H37.2637V125.547H35.5762V130.949H34.6621V120.531H35.5762ZM32.8809 121.656C32.8809 124.609 31.498 127.293 28.0996 128.969L27.584 128.242C30.2793 126.9 31.7441 124.896 31.9551 122.43H28.0645V121.656H32.8809ZM46.0293 120.531V123.707H47.5996V124.48H46.0293V128.16H45.1035V120.531H46.0293ZM43.2168 121.34C43.2168 124.023 41.2949 126.016 38.2949 126.953L37.8965 126.215C40.3926 125.436 42.0215 123.947 42.2207 122.113H38.3301V121.34H43.2168ZM46.5098 129.953V130.727H39.502V127.387H40.416V129.953H46.5098ZM49.9668 129.215L49.0527 132.402H48.1855L48.8301 129.215H49.9668ZM63.1152 125.371V126.121H59.3418V121.527H62.9863V122.277H60.2676V125.371H63.1152ZM63.877 128.852V129.613H54.3379V128.852H58.6152V126.648H59.5176V128.852H63.877ZM58.709 121.527V122.289H56.084V125.359C56.9629 125.354 57.8359 125.283 58.8027 125.066L58.8848 125.84C57.748 126.098 56.7871 126.133 55.7441 126.121H55.1699V121.527H58.709ZM73.1348 123.695V124.434H65.998V120.918H66.9121V123.695H73.1348ZM74.2363 125.852V126.602H64.6973V125.852H74.2363ZM73.1934 129.93V130.691H65.9395V127.668H66.8535V129.93H73.1934ZM86.9863 120.531V130.949H86.084V125.5H84.6426V130.434H83.7637V120.812H84.6426V124.738H86.084V120.531H86.9863ZM82.5801 121.891C82.5684 124.539 81.6426 127.047 78.6426 128.711L78.1035 128.066C80.5234 126.719 81.5254 124.809 81.6777 122.652H78.502V121.891H82.5801ZM89.8105 120.977V122.477H92.8457V120.977H93.7598V125.512H88.9082V120.977H89.8105ZM89.8105 124.762H92.8457V123.191H89.8105V124.762ZM96.6074 120.531V122.793H98.1777V123.566H96.6074V125.922H95.6934V120.531H96.6074ZM96.6074 126.414V128.934H90.8887V130.082H96.9941V130.832H89.9863V128.23H95.6934V127.152H89.9629V126.414H96.6074ZM107.248 125.418V126.168H104.025V128.863H108.373V129.637H98.834V128.863H103.123V126.168H100.053V121.387H107.143V122.137H100.979V125.418H107.248ZM112.686 122.219C112.686 123.637 113.764 124.938 115.275 125.453L114.771 126.18C113.617 125.758 112.709 124.896 112.252 123.812C111.807 125.037 110.881 126.004 109.662 126.473L109.17 125.734C110.729 125.148 111.771 123.754 111.783 122.148V121.07H112.686V122.219ZM117.35 120.531V123.25H118.92V124.023H117.35V126.871H116.436V120.531H117.35ZM114.01 127.141C116.154 127.141 117.443 127.832 117.443 129.027C117.443 130.246 116.154 130.926 114.01 130.926C111.865 130.926 110.553 130.246 110.553 129.027C110.553 127.832 111.865 127.141 114.01 127.141ZM114.01 127.879C112.439 127.879 111.467 128.312 111.479 129.027C111.467 129.766 112.439 130.188 114.01 130.199C115.592 130.188 116.553 129.766 116.553 129.027C116.553 128.312 115.592 127.879 114.01 127.879ZM127.861 121.047V121.797C127.861 122.576 127.861 123.508 127.604 124.762H129.115V125.512H124.779V127.434H127.932V130.949H127.006V128.195H120.561V127.434H123.865V125.512H119.576V124.762H126.678C126.947 123.484 126.947 122.576 126.947 121.797H120.783V121.047H127.861ZM141.854 120.531V130.949H140.951V125.559H139.451V130.41H138.584V120.766H139.451V124.773H140.951V120.531H141.854ZM134.4 121.809V127.434C135.438 127.422 136.539 127.352 137.811 127.094L137.928 127.914C136.475 128.172 135.279 128.254 134.131 128.254H133.486V121.809H134.4ZM152.26 120.531V130.949H151.369V120.531H152.26ZM150.162 120.754V130.422H149.283V125.359H147.947C147.848 127.387 146.986 128.652 145.697 128.652C144.338 128.652 143.459 127.246 143.459 125.031C143.459 122.816 144.338 121.41 145.697 121.41C146.963 121.41 147.818 122.635 147.936 124.598H149.283V120.754H150.162ZM145.697 122.277C144.854 122.277 144.314 123.332 144.326 125.031C144.314 126.719 144.854 127.785 145.697 127.773C146.541 127.785 147.08 126.719 147.08 125.031C147.08 123.332 146.541 122.277 145.697 122.277Z" fill="#333333"/>
<mask id="path-16-inside-3_172_130" fill="white">
<path d="M16 141H154V161H16V141Z"/>
</mask>
<path d="M16 161V161.5H16.9857V161V160.5H16V161ZM18.9571 161V161.5H20.9286V161V160.5H18.9571V161ZM22.9 161V161.5H24.8714V161V160.5H22.9V161ZM26.8429 161V161.5H28.8143V161V160.5H26.8429V161ZM30.7857 161V161.5H32.7571V161V160.5H30.7857V161ZM34.7286 161V161.5H36.7V161V160.5H34.7286V161ZM38.6714 161V161.5H40.6429V161V160.5H38.6714V161ZM42.6143 161V161.5H44.5857V161V160.5H42.6143V161ZM46.5571 161V161.5H48.5286V161V160.5H46.5571V161ZM50.5 161V161.5H52.4714V161V160.5H50.5V161ZM54.4429 161V161.5H56.4143V161V160.5H54.4429V161ZM58.3857 161V161.5H60.3571V161V160.5H58.3857V161ZM62.3286 161V161.5H64.3V161V160.5H62.3286V161ZM66.2714 161V161.5H68.2428V161V160.5H66.2714V161ZM70.2143 161V161.5H72.1857V161V160.5H70.2143V161ZM74.1571 161V161.5H76.1286V161V160.5H74.1571V161ZM78.1 161V161.5H80.0714V161V160.5H78.1V161ZM82.0428 161V161.5H84.0143V161V160.5H82.0428V161ZM85.9857 161V161.5H87.9571V161V160.5H85.9857V161ZM89.9286 161V161.5H91.9V161V160.5H89.9286V161ZM93.8714 161V161.5H95.8428V161V160.5H93.8714V161ZM97.8143 161V161.5H99.7857V161V160.5H97.8143V161ZM101.757 161V161.5H103.729V161V160.5H101.757V161ZM105.7 161V161.5H107.671V161V160.5H105.7V161ZM109.643 161V161.5H111.614V161V160.5H109.643V161ZM113.586 161V161.5H115.557V161V160.5H113.586V161ZM117.529 161V161.5H119.5V161V160.5H117.529V161ZM121.471 161V161.5H123.443V161V160.5H121.471V161ZM125.414 161V161.5H127.386V161V160.5H125.414V161ZM129.357 161V161.5H131.329V161V160.5H129.357V161ZM133.3 161V161.5H135.271V161V160.5H133.3V161ZM137.243 161V161.5H139.214V161V160.5H137.243V161ZM141.186 161V161.5H143.157V161V160.5H141.186V161ZM145.129 161V161.5H147.1V161V160.5H145.129V161ZM149.071 161V161.5H151.043V161V160.5H149.071V161ZM153.014 161V161.5H154V161V160.5H153.014V161ZM16 161V162H16.9857V161V160H16V161ZM18.9571 161V162H20.9286V161V160H18.9571V161ZM22.9 161V162H24.8714V161V160H22.9V161ZM26.8429 161V162H28.8143V161V160H26.8429V161ZM30.7857 161V162H32.7571V161V160H30.7857V161ZM34.7286 161V162H36.7V161V160H34.7286V161ZM38.6714 161V162H40.6429V161V160H38.6714V161ZM42.6143 161V162H44.5857V161V160H42.6143V161ZM46.5571 161V162H48.5286V161V160H46.5571V161ZM50.5 161V162H52.4714V161V160H50.5V161ZM54.4429 161V162H56.4143V161V160H54.4429V161ZM58.3857 161V162H60.3571V161V160H58.3857V161ZM62.3286 161V162H64.3V161V160H62.3286V161ZM66.2714 161V162H68.2428V161V160H66.2714V161ZM70.2143 161V162H72.1857V161V160H70.2143V161ZM74.1571 161V162H76.1286V161V160H74.1571V161ZM78.1 161V162H80.0714V161V160H78.1V161ZM82.0428 161V162H84.0143V161V160H82.0428V161ZM85.9857 161V162H87.9571V161V160H85.9857V161ZM89.9286 161V162H91.9V161V160H89.9286V161ZM93.8714 161V162H95.8428V161V160H93.8714V161ZM97.8143 161V162H99.7857V161V160H97.8143V161ZM101.757 161V162H103.729V161V160H101.757V161ZM105.7 161V162H107.671V161V160H105.7V161ZM109.643 161V162H111.614V161V160H109.643V161ZM113.586 161V162H115.557V161V160H113.586V161ZM117.529 161V162H119.5V161V160H117.529V161ZM121.471 161V162H123.443V161V160H121.471V161ZM125.414 161V162H127.386V161V160H125.414V161ZM129.357 161V162H131.329V161V160H129.357V161ZM133.3 161V162H135.271V161V160H133.3V161ZM137.243 161V162H139.214V161V160H137.243V161ZM141.186 161V162H143.157V161V160H141.186V161ZM145.129 161V162H147.1V161V160H145.129V161ZM149.071 161V162H151.043V161V160H149.071V161ZM153.014 161V162H154V161V160H153.014V161Z" fill="#E5E5E5" mask="url(#path-16-inside-3_172_130)"/>
<path d="M34.3926 146.832C34.3809 148.121 36.1387 149.176 37.9785 149.41L37.6152 150.16C35.9336 149.896 34.3633 149.064 33.7949 147.84C33.2324 149.064 31.668 149.896 29.9746 150.16L29.6348 149.41C31.4746 149.176 33.1973 148.121 33.1973 146.832V146.809H29.916V146.047H37.6973V146.809H34.3926V146.832ZM37.4863 154.953V155.727H30.2793V152.762H31.2051V154.953H37.4863ZM38.5762 151.156V151.918H29.0488V151.156H33.3379V149.41H34.2402V151.156H38.5762ZM48.373 145.531V155.949H47.4824V150.535H46.0645V155.422H45.1855V145.754H46.0645V149.75H47.4824V145.531H48.373ZM42.502 148.379C42.502 150.289 43.2871 151.965 44.7754 152.727L44.2246 153.441C43.1699 152.867 42.4492 151.836 42.0801 150.559C41.7227 152.012 40.9902 153.148 39.8887 153.793L39.3145 153.09C40.8145 152.27 41.6113 150.488 41.6113 148.379V147.547H39.5605V146.773H44.4355V147.547H42.502V148.379ZM57.8535 145.531V149.832H59.5996V150.594H57.8535V155.949H56.9395V145.531H57.8535ZM55.9316 147.207V147.969H49.7324V147.207H52.416V145.66H53.3301V147.207H55.9316ZM52.8848 148.836C54.3613 148.836 55.4277 149.82 55.4395 151.227C55.4277 152.633 54.3613 153.617 52.8848 153.617C51.3965 153.617 50.3184 152.633 50.3301 151.227C50.3184 149.82 51.3965 148.836 52.8848 148.836ZM52.8848 149.609C51.9121 149.609 51.1973 150.289 51.209 151.227C51.1973 152.176 51.9121 152.844 52.8848 152.832C53.8457 152.844 54.5488 152.176 54.5605 151.227C54.5488 150.289 53.8457 149.609 52.8848 149.609ZM68.5879 148.695V149.434H61.4512V145.918H62.3652V148.695H68.5879ZM69.6895 150.852V151.602H60.1504V150.852H69.6895ZM68.6465 154.93V155.691H61.3926V152.668H62.3066V154.93H68.6465ZM82.4395 145.531V155.949H81.5371V150.5H80.0957V155.434H79.2168V145.812H80.0957V149.738H81.5371V145.531H82.4395ZM78.0332 146.891C78.0215 149.539 77.0957 152.047 74.0957 153.711L73.5566 153.066C75.9766 151.719 76.9785 149.809 77.1309 147.652H73.9551V146.891H78.0332ZM85.2637 145.977V147.477H88.2988V145.977H89.2129V150.512H84.3613V145.977H85.2637ZM85.2637 149.762H88.2988V148.191H85.2637V149.762ZM92.0605 145.531V147.793H93.6309V148.566H92.0605V150.922H91.1465V145.531H92.0605ZM92.0605 151.414V153.934H86.3418V155.082H92.4473V155.832H85.4395V153.23H91.1465V152.152H85.416V151.414H92.0605ZM102.736 146.211V150.453H97.8496V146.211H102.736ZM98.752 146.961V149.727H101.834V146.961H98.752ZM105.889 145.531V151.52H104.986V145.531H105.889ZM103.064 152.949C103.064 153.969 104.729 154.977 106.521 155.199L106.205 155.914C104.635 155.703 103.205 154.965 102.596 153.992C101.963 154.982 100.498 155.703 98.9277 155.914L98.5996 155.199C100.393 155 102.115 153.992 102.115 152.949H99.0332V152.234H102.127V151.215H103.041V152.234H106.158V152.949H103.064ZM112.146 146.281V148.027H115.217V146.281H116.131V151.414H111.232V146.281H112.146ZM112.146 150.676H115.217V148.754H112.146V150.676ZM119.283 145.543V153.23H118.369V145.543H119.283ZM119.529 154.953V155.727H112.486V152.457H113.412V154.953H119.529ZM130.58 151.719V152.469H126.232V155.949H125.33V152.469H121.041V151.719H130.58ZM123.174 145.965V147.406H128.424V145.965H129.35V150.453H122.26V145.965H123.174ZM123.174 149.703H128.424V148.156H123.174V149.703ZM134.834 146.293C136.475 146.293 137.635 147.289 137.635 148.742C137.635 150.195 136.475 151.191 134.834 151.191C133.193 151.191 132.01 150.195 132.021 148.742C132.01 147.289 133.193 146.293 134.834 146.293ZM134.834 147.102C133.721 147.102 132.912 147.77 132.924 148.742C132.912 149.715 133.721 150.383 134.834 150.383C135.936 150.383 136.732 149.715 136.732 148.742C136.732 147.77 135.936 147.102 134.834 147.102ZM139.967 145.531V155.973H139.053V145.531H139.967ZM131.482 152.891C133.404 152.891 136.053 152.879 138.361 152.539L138.432 153.219C136.053 153.664 133.486 153.676 131.611 153.676L131.482 152.891Z" fill="#333333"/>
<mask id="path-19-inside-4_172_130" fill="white">
<path d="M16 166H154V186H16V166Z"/>
</mask>
<path d="M16 186V186.5H16.9857V186V185.5H16V186ZM18.9571 186V186.5H20.9286V186V185.5H18.9571V186ZM22.9 186V186.5H24.8714V186V185.5H22.9V186ZM26.8429 186V186.5H28.8143V186V185.5H26.8429V186ZM30.7857 186V186.5H32.7571V186V185.5H30.7857V186ZM34.7286 186V186.5H36.7V186V185.5H34.7286V186ZM38.6714 186V186.5H40.6429V186V185.5H38.6714V186ZM42.6143 186V186.5H44.5857V186V185.5H42.6143V186ZM46.5571 186V186.5H48.5286V186V185.5H46.5571V186ZM50.5 186V186.5H52.4714V186V185.5H50.5V186ZM54.4429 186V186.5H56.4143V186V185.5H54.4429V186ZM58.3857 186V186.5H60.3571V186V185.5H58.3857V186ZM62.3286 186V186.5H64.3V186V185.5H62.3286V186ZM66.2714 186V186.5H68.2428V186V185.5H66.2714V186ZM70.2143 186V186.5H72.1857V186V185.5H70.2143V186ZM74.1571 186V186.5H76.1286V186V185.5H74.1571V186ZM78.1 186V186.5H80.0714V186V185.5H78.1V186ZM82.0428 186V186.5H84.0143V186V185.5H82.0428V186ZM85.9857 186V186.5H87.9571V186V185.5H85.9857V186ZM89.9286 186V186.5H91.9V186V185.5H89.9286V186ZM93.8714 186V186.5H95.8428V186V185.5H93.8714V186ZM97.8143 186V186.5H99.7857V186V185.5H97.8143V186ZM101.757 186V186.5H103.729V186V185.5H101.757V186ZM105.7 186V186.5H107.671V186V185.5H105.7V186ZM109.643 186V186.5H111.614V186V185.5H109.643V186ZM113.586 186V186.5H115.557V186V185.5H113.586V186ZM117.529 186V186.5H119.5V186V185.5H117.529V186ZM121.471 186V186.5H123.443V186V185.5H121.471V186ZM125.414 186V186.5H127.386V186V185.5H125.414V186ZM129.357 186V186.5H131.329V186V185.5H129.357V186ZM133.3 186V186.5H135.271V186V185.5H133.3V186ZM137.243 186V186.5H139.214V186V185.5H137.243V186ZM141.186 186V186.5H143.157V186V185.5H141.186V186ZM145.129 186V186.5H147.1V186V185.5H145.129V186ZM149.071 186V186.5H151.043V186V185.5H149.071V186ZM153.014 186V186.5H154V186V185.5H153.014V186ZM16 186V187H16.9857V186V185H16V186ZM18.9571 186V187H20.9286V186V185H18.9571V186ZM22.9 186V187H24.8714V186V185H22.9V186ZM26.8429 186V187H28.8143V186V185H26.8429V186ZM30.7857 186V187H32.7571V186V185H30.7857V186ZM34.7286 186V187H36.7V186V185H34.7286V186ZM38.6714 186V187H40.6429V186V185H38.6714V186ZM42.6143 186V187H44.5857V186V185H42.6143V186ZM46.5571 186V187H48.5286V186V185H46.5571V186ZM50.5 186V187H52.4714V186V185H50.5V186ZM54.4429 186V187H56.4143V186V185H54.4429V186ZM58.3857 186V187H60.3571V186V185H58.3857V186ZM62.3286 186V187H64.3V186V185H62.3286V186ZM66.2714 186V187H68.2428V186V185H66.2714V186ZM70.2143 186V187H72.1857V186V185H70.2143V186ZM74.1571 186V187H76.1286V186V185H74.1571V186ZM78.1 186V187H80.0714V186V185H78.1V186ZM82.0428 186V187H84.0143V186V185H82.0428V186ZM85.9857 186V187H87.9571V186V185H85.9857V186ZM89.9286 186V187H91.9V186V185H89.9286V186ZM93.8714 186V187H95.8428V186V185H93.8714V186ZM97.8143 186V187H99.7857V186V185H97.8143V186ZM101.757 186V187H103.729V186V185H101.757V186ZM105.7 186V187H107.671V186V185H105.7V186ZM109.643 186V187H111.614V186V185H109.643V186ZM113.586 186V187H115.557V186V185H113.586V186ZM117.529 186V187H119.5V186V185H117.529V186ZM121.471 186V187H123.443V186V185H121.471V186ZM125.414 186V187H127.386V186V185H125.414V186ZM129.357 186V187H131.329V186V185H129.357V186ZM133.3 186V187H135.271V186V185H133.3V186ZM137.243 186V187H139.214V186V185H137.243V186ZM141.186 186V187H143.157V186V185H141.186V186ZM145.129 186V187H147.1V186V185H145.129V186ZM149.071 186V187H151.043V186V185H149.071V186ZM153.014 186V187H154V186V185H153.014V186Z" fill="#E5E5E5" mask="url(#path-19-inside-4_172_130)"/>
<path d="M25.6504 171.246C25.6504 171.65 25.6035 172.037 25.5215 172.406H27.8652V170.543H28.791V176.754H27.8652V175.371H25.0996V174.609H27.8652V173.168H25.2754C24.5664 174.809 22.9375 175.992 20.6816 176.613L20.3184 175.875C22.8613 175.172 24.4727 173.771 24.666 171.996H20.8457V171.246H25.6504ZM28.791 177.211V180.938H27.8652V177.949H21.7832V177.211H28.791ZM33.9941 173.93C33.9941 175.594 35.084 177.305 36.5957 178.031L36.0566 178.746C34.9082 178.184 34 177.047 33.5723 175.699C33.1152 177.146 32.1484 178.359 30.959 178.934L30.4316 178.219C31.9551 177.504 33.0918 175.723 33.1035 173.93V173.098H30.7129V172.348H33.0918V170.73H34.0176V172.348H36.3613V173.098H33.9941V173.93ZM38.5879 170.531V174.809H40.334V175.594H38.5879V180.949H37.6738V170.531H38.5879ZM50.4238 175.371V176.098H40.8848V175.371H50.4238ZM49.2285 176.93V179.145H42.9707V180.141H49.5684V180.809H42.0449V178.512H48.3145V177.621H42.0332V176.93H49.2285ZM49.1934 170.848V173.004H43.041V173.918H49.3809V174.586H42.127V172.371H48.2676V171.516H42.0918V170.848H49.1934ZM63.7715 174.891V175.641H59.4707V176.695H62.5527V179.062H56.3652V180.105H62.8691V180.832H55.4512V178.383H61.6504V177.398H55.4277V176.695H58.5684V175.641H54.2793V174.891H63.7715ZM62.9277 170.906V171.633H59.5645C59.6934 172.711 61.4336 173.514 63.2676 173.672L62.9629 174.375C61.2578 174.199 59.6523 173.537 59.0371 172.488C58.4043 173.537 56.8047 174.199 55.0996 174.375L54.7949 173.672C56.6172 173.514 58.3516 172.723 58.498 171.633H55.1465V170.906H62.9277ZM73.2402 170.531V180.973H72.3145V170.531H73.2402ZM67.6973 171.34C69.2441 171.352 70.3574 172.758 70.3574 174.973C70.3574 177.188 69.2441 178.594 67.6973 178.594C66.1387 178.594 65.0371 177.188 65.0371 174.973C65.0371 172.758 66.1387 171.352 67.6973 171.34ZM67.6973 172.16C66.6543 172.172 65.9277 173.273 65.9277 174.973C65.9277 176.672 66.6543 177.773 67.6973 177.773C68.7402 177.773 69.4668 176.672 69.4668 174.973C69.4668 173.273 68.7402 172.172 67.6973 172.16ZM83.377 171.586V172.629C83.3652 173.906 83.3652 175.336 82.9902 177.434L82.0527 177.328C82.4512 175.336 82.4512 173.871 82.4512 172.629V172.348H76.0293V171.586H83.377ZM84.5137 178.711V179.473H75.0215V178.711H78.748V174.984H79.6504V178.711H84.5137ZM87.1035 179.215L86.1895 182.402H85.3223L85.9668 179.215H87.1035ZM100.369 170.531V180.949H99.4668V175.5H98.0254V180.434H97.1465V170.812H98.0254V174.738H99.4668V170.531H100.369ZM95.9629 171.891C95.9512 174.539 95.0254 177.047 92.0254 178.711L91.4863 178.066C93.9062 176.719 94.9082 174.809 95.0605 172.652H91.8848V171.891H95.9629ZM103.193 170.977V172.477H106.229V170.977H107.143V175.512H102.291V170.977H103.193ZM103.193 174.762H106.229V173.191H103.193V174.762ZM109.99 170.531V172.793H111.561V173.566H109.99V175.922H109.076V170.531H109.99ZM109.99 176.414V178.934H104.271V180.082H110.377V180.832H103.369V178.23H109.076V177.152H103.346V176.414H109.99ZM120.631 175.418V176.168H117.408V178.863H121.756V179.637H112.217V178.863H116.506V176.168H113.436V171.387H120.525V172.137H114.361V175.418H120.631ZM126.068 172.219C126.068 173.637 127.146 174.938 128.658 175.453L128.154 176.18C127 175.758 126.092 174.896 125.635 173.812C125.189 175.037 124.264 176.004 123.045 176.473L122.553 175.734C124.111 175.148 125.154 173.754 125.166 172.148V171.07H126.068V172.219ZM130.732 170.531V173.25H132.303V174.023H130.732V176.871H129.818V170.531H130.732ZM127.393 177.141C129.537 177.141 130.826 177.832 130.826 179.027C130.826 180.246 129.537 180.926 127.393 180.926C125.248 180.926 123.936 180.246 123.936 179.027C123.936 177.832 125.248 177.141 127.393 177.141ZM127.393 177.879C125.822 177.879 124.85 178.312 124.861 179.027C124.85 179.766 125.822 180.188 127.393 180.199C128.975 180.188 129.936 179.766 129.936 179.027C129.936 178.312 128.975 177.879 127.393 177.879ZM141.244 171.047V171.797C141.244 172.576 141.244 173.508 140.986 174.762H142.498V175.512H138.162V177.434H141.314V180.949H140.389V178.195H133.943V177.434H137.248V175.512H132.959V174.762H140.061C140.33 173.484 140.33 172.576 140.33 171.797H134.166V171.047H141.244ZM146.74 171.293C148.381 171.293 149.541 172.289 149.541 173.742C149.541 175.195 148.381 176.191 146.74 176.191C145.1 176.191 143.916 175.195 143.928 173.742C143.916 172.289 145.1 171.293 146.74 171.293ZM146.74 172.102C145.627 172.102 144.818 172.77 144.83 173.742C144.818 174.715 145.627 175.383 146.74 175.383C147.842 175.383 148.639 174.715 148.639 173.742C148.639 172.77 147.842 172.102 146.74 172.102ZM151.873 170.531V180.973H150.959V170.531H151.873ZM143.389 177.891C145.311 177.891 147.959 177.879 150.268 177.539L150.338 178.219C147.959 178.664 145.393 178.676 143.518 178.676L143.389 177.891Z" fill="#333333"/>
<mask id="path-22-inside-5_172_130" fill="white">
<path d="M16 191H154V211H16V191Z"/>
</mask>
<path d="M16 211V211.5H16.9857V211V210.5H16V211ZM18.9571 211V211.5H20.9286V211V210.5H18.9571V211ZM22.9 211V211.5H24.8714V211V210.5H22.9V211ZM26.8429 211V211.5H28.8143V211V210.5H26.8429V211ZM30.7857 211V211.5H32.7571V211V210.5H30.7857V211ZM34.7286 211V211.5H36.7V211V210.5H34.7286V211ZM38.6714 211V211.5H40.6429V211V210.5H38.6714V211ZM42.6143 211V211.5H44.5857V211V210.5H42.6143V211ZM46.5571 211V211.5H48.5286V211V210.5H46.5571V211ZM50.5 211V211.5H52.4714V211V210.5H50.5V211ZM54.4429 211V211.5H56.4143V211V210.5H54.4429V211ZM58.3857 211V211.5H60.3571V211V210.5H58.3857V211ZM62.3286 211V211.5H64.3V211V210.5H62.3286V211ZM66.2714 211V211.5H68.2428V211V210.5H66.2714V211ZM70.2143 211V211.5H72.1857V211V210.5H70.2143V211ZM74.1571 211V211.5H76.1286V211V210.5H74.1571V211ZM78.1 211V211.5H80.0714V211V210.5H78.1V211ZM82.0428 211V211.5H84.0143V211V210.5H82.0428V211ZM85.9857 211V211.5H87.9571V211V210.5H85.9857V211ZM89.9286 211V211.5H91.9V211V210.5H89.9286V211ZM93.8714 211V211.5H95.8428V211V210.5H93.8714V211ZM97.8143 211V211.5H99.7857V211V210.5H97.8143V211ZM101.757 211V211.5H103.729V211V210.5H101.757V211ZM105.7 211V211.5H107.671V211V210.5H105.7V211ZM109.643 211V211.5H111.614V211V210.5H109.643V211ZM113.586 211V211.5H115.557V211V210.5H113.586V211ZM117.529 211V211.5H119.5V211V210.5H117.529V211ZM121.471 211V211.5H123.443V211V210.5H121.471V211ZM125.414 211V211.5H127.386V211V210.5H125.414V211ZM129.357 211V211.5H131.329V211V210.5H129.357V211ZM133.3 211V211.5H135.271V211V210.5H133.3V211ZM137.243 211V211.5H139.214V211V210.5H137.243V211ZM141.186 211V211.5H143.157V211V210.5H141.186V211ZM145.129 211V211.5H147.1V211V210.5H145.129V211ZM149.071 211V211.5H151.043V211V210.5H149.071V211ZM153.014 211V211.5H154V211V210.5H153.014V211ZM16 211V212H16.9857V211V210H16V211ZM18.9571 211V212H20.9286V211V210H18.9571V211ZM22.9 211V212H24.8714V211V210H22.9V211ZM26.8429 211V212H28.8143V211V210H26.8429V211ZM30.7857 211V212H32.7571V211V210H30.7857V211ZM34.7286 211V212H36.7V211V210H34.7286V211ZM38.6714 211V212H40.6429V211V210H38.6714V211ZM42.6143 211V212H44.5857V211V210H42.6143V211ZM46.5571 211V212H48.5286V211V210H46.5571V211ZM50.5 211V212H52.4714V211V210H50.5V211ZM54.4429 211V212H56.4143V211V210H54.4429V211ZM58.3857 211V212H60.3571V211V210H58.3857V211ZM62.3286 211V212H64.3V211V210H62.3286V211ZM66.2714 211V212H68.2428V211V210H66.2714V211ZM70.2143 211V212H72.1857V211V210H70.2143V211ZM74.1571 211V212H76.1286V211V210H74.1571V211ZM78.1 211V212H80.0714V211V210H78.1V211ZM82.0428 211V212H84.0143V211V210H82.0428V211ZM85.9857 211V212H87.9571V211V210H85.9857V211ZM89.9286 211V212H91.9V211V210H89.9286V211ZM93.8714 211V212H95.8428V211V210H93.8714V211ZM97.8143 211V212H99.7857V211V210H97.8143V211ZM101.757 211V212H103.729V211V210H101.757V211ZM105.7 211V212H107.671V211V210H105.7V211ZM109.643 211V212H111.614V211V210H109.643V211ZM113.586 211V212H115.557V211V210H113.586V211ZM117.529 211V212H119.5V211V210H117.529V211ZM121.471 211V212H123.443V211V210H121.471V211ZM125.414 211V212H127.386V211V210H125.414V211ZM129.357 211V212H131.329V211V210H129.357V211ZM133.3 211V212H135.271V211V210H133.3V211ZM137.243 211V212H139.214V211V210H137.243V211ZM141.186 211V212H143.157V211V210H141.186V211ZM145.129 211V212H147.1V211V210H145.129V211ZM149.071 211V212H151.043V211V210H149.071V211ZM153.014 211V212H154V211V210H153.014V211Z" fill="#E5E5E5" mask="url(#path-22-inside-5_172_130)"/>
<path d="M18.6367 196.281V198.027H21.707V196.281H22.6211V201.414H17.7227V196.281H18.6367ZM18.6367 200.676H21.707V198.754H18.6367V200.676ZM25.7734 195.543V203.23H24.8594V195.543H25.7734ZM26.0195 204.953V205.727H18.9766V202.457H19.9023V204.953H26.0195ZM35.8281 196.164V196.891C35.8281 197.688 35.8281 198.695 35.5469 200.031L34.6211 199.914C34.9141 198.613 34.9141 197.705 34.9141 196.914H28.6797V196.164H35.8281ZM37.0352 200.746V201.496H27.5547V200.746H31.4805V198.59H32.3828V200.746H37.0352ZM36.0977 204.953V205.727H28.7617V202.562H29.6875V204.953H36.0977ZM50.4531 200.863V201.625H46.2109V203.758H45.2969V201.625H40.9141V200.863H50.4531ZM49.2109 196.047V199.668H42.1562V196.047H49.2109ZM43.0586 196.773V198.93H48.2969V196.773H43.0586ZM49.3867 204.953V205.727H42.1328V202.727H43.0586V204.953H49.3867ZM60.2031 195.531V205.949H59.3242V195.531H60.2031ZM58.0938 195.789V205.41H57.2266V200.043H55.4688V199.293H57.2266V195.789H58.0938ZM54.3555 198.508C54.3555 200.312 55.1641 202.105 56.6055 202.938L56.043 203.617C55.0176 203.002 54.291 201.877 53.9336 200.547C53.5527 201.982 52.7969 203.207 51.7539 203.863L51.168 203.172C52.6211 202.305 53.4648 200.406 53.4648 198.508V197.523H51.4609V196.762H56.2656V197.523H54.3555V198.508ZM69.8828 197.336V198.086H64.6562V197.336H66.8242V195.848H67.7383V197.336H69.8828ZM67.2695 198.789C68.582 198.789 69.5195 199.773 69.5312 201.156C69.5195 202.551 68.582 203.547 67.2695 203.547C65.9688 203.547 65.0312 202.551 65.0312 201.156C65.0312 199.773 65.9688 198.789 67.2695 198.789ZM67.2695 199.562C66.4492 199.574 65.8516 200.242 65.8516 201.156C65.8516 202.082 66.4492 202.75 67.2695 202.738C68.1016 202.75 68.7109 202.082 68.7109 201.156C68.7109 200.242 68.1016 199.574 67.2695 199.562ZM73.5508 195.531V205.949H72.6719V200.688H71.2891V205.434H70.4219V195.789H71.2891V199.926H72.6719V195.531H73.5508ZM83.6875 195.531V200.863H82.7617V199.773H79.9844V199.047H82.7617V197.793H80.1367C79.4805 199.439 77.8633 200.547 75.5547 201.098L75.2266 200.336C77.7812 199.744 79.2695 198.496 79.4453 196.82H75.7539V196.059H80.4531C80.4531 196.404 80.418 196.738 80.3594 197.055H82.7617V195.531H83.6875ZM83.6875 201.332V203.875H77.875V205.094H84.0391V205.855H76.9609V203.172H82.7617V202.082H76.9375V201.332H83.6875ZM90.168 195.719C92.4883 195.719 93.8477 196.352 93.8477 197.512C93.8477 198.695 92.4883 199.328 90.168 199.34C87.8477 199.328 86.4766 198.695 86.4766 197.512C86.4766 196.352 87.8477 195.719 90.168 195.719ZM90.168 196.41C88.4336 196.41 87.4258 196.832 87.4375 197.512C87.4258 198.238 88.4336 198.637 90.168 198.637C91.8906 198.637 92.9102 198.238 92.9102 197.512C92.9102 196.832 91.8906 196.41 90.168 196.41ZM94.9141 200.043V200.793H85.4219V200.043H94.9141ZM93.6953 201.695V204.027H87.5078V205.105H94.0117V205.832H86.5938V203.348H92.793V202.398H86.5703V201.695H93.6953ZM108.297 201.062V201.812H98.793V201.062H103.082V200.031H100.059V195.836H107.113V196.586H100.984V197.559H106.832V198.262H100.984V199.293H107.172V200.031H103.996V201.062H108.297ZM103.551 202.598C105.836 202.586 107.125 203.172 107.137 204.262C107.125 205.352 105.836 205.926 103.551 205.926C101.242 205.926 99.9531 205.352 99.9531 204.262C99.9531 203.172 101.242 202.586 103.551 202.598ZM103.551 203.289C101.828 203.289 100.867 203.641 100.879 204.262C100.867 204.895 101.828 205.223 103.551 205.211C105.25 205.223 106.211 204.895 106.211 204.262C106.211 203.641 105.25 203.289 103.551 203.289ZM114.379 197.336V198.086H109.152V197.336H111.32V195.848H112.234V197.336H114.379ZM111.766 198.789C113.078 198.789 114.016 199.773 114.027 201.156C114.016 202.551 113.078 203.547 111.766 203.547C110.465 203.547 109.527 202.551 109.527 201.156C109.527 199.773 110.465 198.789 111.766 198.789ZM111.766 199.562C110.945 199.574 110.348 200.242 110.348 201.156C110.348 202.082 110.945 202.75 111.766 202.738C112.598 202.75 113.207 202.082 113.207 201.156C113.207 200.242 112.598 199.574 111.766 199.562ZM118.047 195.531V205.949H117.168V200.688H115.785V205.434H114.918V195.789H115.785V199.926H117.168V195.531H118.047ZM131.16 195.543V203.16H130.246V195.543H131.16ZM131.488 204.953V205.727H124.434V202.387H125.348V204.953H131.488ZM125.535 196.27C127.094 196.27 128.266 197.324 128.266 198.824C128.266 200.348 127.094 201.391 125.535 201.391C123.977 201.391 122.805 200.348 122.805 198.824C122.805 197.324 123.977 196.27 125.535 196.27ZM125.535 197.078C124.48 197.078 123.695 197.805 123.707 198.824C123.695 199.867 124.48 200.582 125.535 200.582C126.566 200.582 127.363 199.867 127.363 198.824C127.363 197.805 126.566 197.078 125.535 197.078ZM141.074 195.531V198.707H142.645V199.48H141.074V203.16H140.148V195.531H141.074ZM138.262 196.34C138.262 199.023 136.34 201.016 133.34 201.953L132.941 201.215C135.438 200.436 137.066 198.947 137.266 197.113H133.375V196.34H138.262ZM141.555 204.953V205.727H134.547V202.387H135.461V204.953H141.555ZM146.711 196.293C148.352 196.293 149.512 197.289 149.512 198.742C149.512 200.195 148.352 201.191 146.711 201.191C145.07 201.191 143.887 200.195 143.898 198.742C143.887 197.289 145.07 196.293 146.711 196.293ZM146.711 197.102C145.598 197.102 144.789 197.77 144.801 198.742C144.789 199.715 145.598 200.383 146.711 200.383C147.812 200.383 148.609 199.715 148.609 198.742C148.609 197.77 147.812 197.102 146.711 197.102ZM151.844 195.531V205.973H150.93V195.531H151.844ZM143.359 202.891C145.281 202.891 147.93 202.879 150.238 202.539L150.309 203.219C147.93 203.664 145.363 203.676 143.488 203.676L143.359 202.891Z" fill="#333333"/>
<mask id="path-25-inside-6_172_130" fill="white">
<path d="M16 216H154V236H16V216Z"/>
</mask>
<path d="M16 236V236.5H16.9857V236V235.5H16V236ZM18.9571 236V236.5H20.9286V236V235.5H18.9571V236ZM22.9 236V236.5H24.8714V236V235.5H22.9V236ZM26.8429 236V236.5H28.8143V236V235.5H26.8429V236ZM30.7857 236V236.5H32.7571V236V235.5H30.7857V236ZM34.7286 236V236.5H36.7V236V235.5H34.7286V236ZM38.6714 236V236.5H40.6429V236V235.5H38.6714V236ZM42.6143 236V236.5H44.5857V236V235.5H42.6143V236ZM46.5571 236V236.5H48.5286V236V235.5H46.5571V236ZM50.5 236V236.5H52.4714V236V235.5H50.5V236ZM54.4429 236V236.5H56.4143V236V235.5H54.4429V236ZM58.3857 236V236.5H60.3571V236V235.5H58.3857V236ZM62.3286 236V236.5H64.3V236V235.5H62.3286V236ZM66.2714 236V236.5H68.2428V236V235.5H66.2714V236ZM70.2143 236V236.5H72.1857V236V235.5H70.2143V236ZM74.1571 236V236.5H76.1286V236V235.5H74.1571V236ZM78.1 236V236.5H80.0714V236V235.5H78.1V236ZM82.0428 236V236.5H84.0143V236V235.5H82.0428V236ZM85.9857 236V236.5H87.9571V236V235.5H85.9857V236ZM89.9286 236V236.5H91.9V236V235.5H89.9286V236ZM93.8714 236V236.5H95.8428V236V235.5H93.8714V236ZM97.8143 236V236.5H99.7857V236V235.5H97.8143V236ZM101.757 236V236.5H103.729V236V235.5H101.757V236ZM105.7 236V236.5H107.671V236V235.5H105.7V236ZM109.643 236V236.5H111.614V236V235.5H109.643V236ZM113.586 236V236.5H115.557V236V235.5H113.586V236ZM117.529 236V236.5H119.5V236V235.5H117.529V236ZM121.471 236V236.5H123.443V236V235.5H121.471V236ZM125.414 236V236.5H127.386V236V235.5H125.414V236ZM129.357 236V236.5H131.329V236V235.5H129.357V236ZM133.3 236V236.5H135.271V236V235.5H133.3V236ZM137.243 236V236.5H139.214V236V235.5H137.243V236ZM141.186 236V236.5H143.157V236V235.5H141.186V236ZM145.129 236V236.5H147.1V236V235.5H145.129V236ZM149.071 236V236.5H151.043V236V235.5H149.071V236ZM153.014 236V236.5H154V236V235.5H153.014V236ZM16 236V237H16.9857V236V235H16V236ZM18.9571 236V237H20.9286V236V235H18.9571V236ZM22.9 236V237H24.8714V236V235H22.9V236ZM26.8429 236V237H28.8143V236V235H26.8429V236ZM30.7857 236V237H32.7571V236V235H30.7857V236ZM34.7286 236V237H36.7V236V235H34.7286V236ZM38.6714 236V237H40.6429V236V235H38.6714V236ZM42.6143 236V237H44.5857V236V235H42.6143V236ZM46.5571 236V237H48.5286V236V235H46.5571V236ZM50.5 236V237H52.4714V236V235H50.5V236ZM54.4429 236V237H56.4143V236V235H54.4429V236ZM58.3857 236V237H60.3571V236V235H58.3857V236ZM62.3286 236V237H64.3V236V235H62.3286V236ZM66.2714 236V237H68.2428V236V235H66.2714V236ZM70.2143 236V237H72.1857V236V235H70.2143V236ZM74.1571 236V237H76.1286V236V235H74.1571V236ZM78.1 236V237H80.0714V236V235H78.1V236ZM82.0428 236V237H84.0143V236V235H82.0428V236ZM85.9857 236V237H87.9571V236V235H85.9857V236ZM89.9286 236V237H91.9V236V235H89.9286V236ZM93.8714 236V237H95.8428V236V235H93.8714V236ZM97.8143 236V237H99.7857V236V235H97.8143V236ZM101.757 236V237H103.729V236V235H101.757V236ZM105.7 236V237H107.671V236V235H105.7V236ZM109.643 236V237H111.614V236V235H109.643V236ZM113.586 236V237H115.557V236V235H113.586V236ZM117.529 236V237H119.5V236V235H117.529V236ZM121.471 236V237H123.443V236V235H121.471V236ZM125.414 236V237H127.386V236V235H125.414V236ZM129.357 236V237H131.329V236V235H129.357V236ZM133.3 236V237H135.271V236V235H133.3V236ZM137.243 236V237H139.214V236V235H137.243V236ZM141.186 236V237H143.157V236V235H141.186V236ZM145.129 236V237H147.1V236V235H145.129V236ZM149.071 236V237H151.043V236V235H149.071V236ZM153.014 236V237H154V236V235H153.014V236Z" fill="#E5E5E5" mask="url(#path-25-inside-6_172_130)"/>
<path d="M51.0449 220.531V230.949H50.1191V220.531H51.0449ZM47.9629 221.668C47.9512 224.668 46.5566 227.316 43.0645 228.992L42.5605 228.242C45.3789 226.906 46.8145 224.908 47.0254 222.418H43.041V221.668H47.9629ZM54.9824 220.953V222.277H60.1387V220.953H61.0527V225.113H58.0059V226.227H62.2949V226.988H52.8027V226.227H57.0918V225.113H54.0684V220.953H54.9824ZM54.9824 224.375H60.1387V223.004H54.9824V224.375ZM61.2402 229.953V230.727H54.0332V227.82H54.959V229.953H61.2402ZM71.7988 220.543V228.418H70.8613V226.953H68.5645V226.203H70.8613V220.543H71.7988ZM72.0566 229.953V230.727H64.6621V227.539H65.5879V229.953H72.0566ZM63.1035 224.668C64.4395 224.668 66.1211 224.65 67.7793 224.539C67.9844 223.385 68.0195 222.523 68.0254 221.926H64.041V221.176H68.9395V221.586C68.9395 222.16 68.9395 223.139 68.7168 224.457C69.127 224.428 69.5254 224.381 69.9121 224.328L69.9824 224.996C69.0098 225.16 67.9902 225.26 66.9941 225.324V227.727H66.0801V225.371C65.0488 225.418 64.0762 225.43 63.2324 225.43L63.1035 224.668ZM78.291 220.719C80.6113 220.719 81.9707 221.352 81.9707 222.512C81.9707 223.695 80.6113 224.328 78.291 224.34C75.9707 224.328 74.5996 223.695 74.5996 222.512C74.5996 221.352 75.9707 220.719 78.291 220.719ZM78.291 221.41C76.5566 221.41 75.5488 221.832 75.5605 222.512C75.5488 223.238 76.5566 223.637 78.291 223.637C80.0137 223.637 81.0332 223.238 81.0332 222.512C81.0332 221.832 80.0137 221.41 78.291 221.41ZM83.0371 225.043V225.793H73.5449V225.043H83.0371ZM81.8184 226.695V229.027H75.6309V230.105H82.1348V230.832H74.7168V228.348H80.916V227.398H74.6934V226.695H81.8184ZM90.6543 223.73C90.6543 225.5 91.9434 227.293 93.4785 227.961L92.9629 228.688C91.7441 228.131 90.6895 226.93 90.209 225.488C89.7168 227.018 88.668 228.348 87.4785 228.945L86.9277 228.219C88.416 227.504 89.7168 225.535 89.7285 223.73V222.371H87.2676V221.609H93.1387V222.371H90.6543V223.73ZM95.5176 220.531V230.949H94.5918V220.531H95.5176ZM102.889 221.621C102.877 224.633 101.787 227.41 98.0254 229.25L97.5098 228.512C99.4609 227.574 100.668 226.373 101.33 224.961L97.709 225.312L97.5566 224.492L101.623 224.223C101.811 223.643 101.922 223.027 101.963 222.383H98.084V221.621H102.889ZM105.912 220.531V230.949H104.986V220.531H105.912ZM116.295 220.531V230.973H115.381V226.531H113.213V225.758H115.381V223.684H113.295V222.91H115.381V220.531H116.295ZM112.615 221.48V225.184H108.982V227.75C110.547 227.744 111.842 227.686 113.424 227.445L113.506 228.219C111.842 228.477 110.506 228.535 108.842 228.535H108.068V224.434H111.713V222.242H108.033V221.48H112.615ZM126.467 223.695V224.434H119.33V220.918H120.244V223.695H126.467ZM127.568 225.852V226.602H118.029V225.852H127.568ZM126.525 229.93V230.691H119.271V227.668H120.186V229.93H126.525Z" fill="#333333"/>
<mask id="path-28-inside-7_172_130" fill="white">
<path d="M16 241H154V261H16V241Z"/>
</mask>
<path d="M16 261V261.5H16.9857V261V260.5H16V261ZM18.9571 261V261.5H20.9286V261V260.5H18.9571V261ZM22.9 261V261.5H24.8714V261V260.5H22.9V261ZM26.8429 261V261.5H28.8143V261V260.5H26.8429V261ZM30.7857 261V261.5H32.7571V261V260.5H30.7857V261ZM34.7286 261V261.5H36.7V261V260.5H34.7286V261ZM38.6714 261V261.5H40.6429V261V260.5H38.6714V261ZM42.6143 261V261.5H44.5857V261V260.5H42.6143V261ZM46.5571 261V261.5H48.5286V261V260.5H46.5571V261ZM50.5 261V261.5H52.4714V261V260.5H50.5V261ZM54.4429 261V261.5H56.4143V261V260.5H54.4429V261ZM58.3857 261V261.5H60.3571V261V260.5H58.3857V261ZM62.3286 261V261.5H64.3V261V260.5H62.3286V261ZM66.2714 261V261.5H68.2428V261V260.5H66.2714V261ZM70.2143 261V261.5H72.1857V261V260.5H70.2143V261ZM74.1571 261V261.5H76.1286V261V260.5H74.1571V261ZM78.1 261V261.5H80.0714V261V260.5H78.1V261ZM82.0428 261V261.5H84.0143V261V260.5H82.0428V261ZM85.9857 261V261.5H87.9571V261V260.5H85.9857V261ZM89.9286 261V261.5H91.9V261V260.5H89.9286V261ZM93.8714 261V261.5H95.8428V261V260.5H93.8714V261ZM97.8143 261V261.5H99.7857V261V260.5H97.8143V261ZM101.757 261V261.5H103.729V261V260.5H101.757V261ZM105.7 261V261.5H107.671V261V260.5H105.7V261ZM109.643 261V261.5H111.614V261V260.5H109.643V261ZM113.586 261V261.5H115.557V261V260.5H113.586V261ZM117.529 261V261.5H119.5V261V260.5H117.529V261ZM121.471 261V261.5H123.443V261V260.5H121.471V261ZM125.414 261V261.5H127.386V261V260.5H125.414V261ZM129.357 261V261.5H131.329V261V260.5H129.357V261ZM133.3 261V261.5H135.271V261V260.5H133.3V261ZM137.243 261V261.5H139.214V261V260.5H137.243V261ZM141.186 261V261.5H143.157V261V260.5H141.186V261ZM145.129 261V261.5H147.1V261V260.5H145.129V261ZM149.071 261V261.5H151.043V261V260.5H149.071V261ZM153.014 261V261.5H154V261V260.5H153.014V261ZM16 261V262H16.9857V261V260H16V261ZM18.9571 261V262H20.9286V261V260H18.9571V261ZM22.9 261V262H24.8714V261V260H22.9V261ZM26.8429 261V262H28.8143V261V260H26.8429V261ZM30.7857 261V262H32.7571V261V260H30.7857V261ZM34.7286 261V262H36.7V261V260H34.7286V261ZM38.6714 261V262H40.6429V261V260H38.6714V261ZM42.6143 261V262H44.5857V261V260H42.6143V261ZM46.5571 261V262H48.5286V261V260H46.5571V261ZM50.5 261V262H52.4714V261V260H50.5V261ZM54.4429 261V262H56.4143V261V260H54.4429V261ZM58.3857 261V262H60.3571V261V260H58.3857V261ZM62.3286 261V262H64.3V261V260H62.3286V261ZM66.2714 261V262H68.2428V261V260H66.2714V261ZM70.2143 261V262H72.1857V261V260H70.2143V261ZM74.1571 261V262H76.1286V261V260H74.1571V261ZM78.1 261V262H80.0714V261V260H78.1V261ZM82.0428 261V262H84.0143V261V260H82.0428V261ZM85.9857 261V262H87.9571V261V260H85.9857V261ZM89.9286 261V262H91.9V261V260H89.9286V261ZM93.8714 261V262H95.8428V261V260H93.8714V261ZM97.8143 261V262H99.7857V261V260H97.8143V261ZM101.757 261V262H103.729V261V260H101.757V261ZM105.7 261V262H107.671V261V260H105.7V261ZM109.643 261V262H111.614V261V260H109.643V261ZM113.586 261V262H115.557V261V260H113.586V261ZM117.529 261V262H119.5V261V260H117.529V261ZM121.471 261V262H123.443V261V260H121.471V261ZM125.414 261V262H127.386V261V260H125.414V261ZM129.357 261V262H131.329V261V260H129.357V261ZM133.3 261V262H135.271V261V260H133.3V261ZM137.243 261V262H139.214V261V260H137.243V261ZM141.186 261V262H143.157V261V260H141.186V261ZM145.129 261V262H147.1V261V260H145.129V261ZM149.071 261V262H151.043V261V260H149.071V261ZM153.014 261V262H154V261V260H153.014V261Z" fill="#E5E5E5" mask="url(#path-28-inside-7_172_130)"/>
<path d="M33.6543 246.047V246.797C33.6543 247.576 33.6543 248.508 33.3965 249.762H34.9082V250.512H30.5723V252.434H33.7246V255.949H32.7988V253.195H26.3535V252.434H29.6582V250.512H25.3691V249.762H32.4707C32.7402 248.484 32.7402 247.576 32.7402 246.797H26.5762V246.047H33.6543ZM44.6465 245.531V255.949H43.7676V245.531H44.6465ZM42.5371 245.789V255.41H41.6699V250.043H39.9121V249.293H41.6699V245.789H42.5371ZM38.7988 248.508C38.7988 250.312 39.6074 252.105 41.0488 252.938L40.4863 253.617C39.4609 253.002 38.7344 251.877 38.377 250.547C37.9961 251.982 37.2402 253.207 36.1973 253.863L35.6113 253.172C37.0645 252.305 37.9082 250.406 37.9082 248.508V247.523H35.9043V246.762H40.709V247.523H38.7988V248.508ZM49.6035 248.332C49.6035 250.172 50.8223 252.059 52.2988 252.785L51.7363 253.523C50.5879 252.92 49.627 251.689 49.1699 250.242C48.7012 251.783 47.7168 253.096 46.5449 253.723L45.959 252.984C47.4824 252.234 48.6895 250.23 48.7012 248.332V246.434H49.6035V248.332ZM54.1738 245.531V249.762H55.9199V250.559H54.1738V255.949H53.2598V245.531H54.1738ZM65.0254 245.531V255.949H64.1113V245.531H65.0254ZM56.541 253.172C57.4316 253.166 58.4512 253.16 59.5059 253.125V251.988C58.2578 251.854 57.4434 251.145 57.4551 250.102C57.4434 248.93 58.4512 248.168 59.9512 248.168C61.4512 248.168 62.4707 248.93 62.4707 250.102C62.4707 251.133 61.6621 251.842 60.4316 251.977V253.09C61.4395 253.049 62.459 252.973 63.4199 252.844L63.4902 253.547C61.1699 253.922 58.6152 253.957 56.6816 253.957L56.541 253.172ZM63.1504 246.82V247.57H56.7637V246.82H59.5059V245.543H60.4316V246.82H63.1504ZM59.9512 248.883C58.9902 248.883 58.3105 249.375 58.3105 250.102C58.3105 250.828 58.9902 251.297 59.9512 251.285C60.9238 251.297 61.5918 250.828 61.5918 250.102C61.5918 249.375 60.9238 248.883 59.9512 248.883ZM70.2637 246.293C71.9043 246.293 73.0645 247.289 73.0645 248.742C73.0645 250.195 71.9043 251.191 70.2637 251.191C68.623 251.191 67.4395 250.195 67.4512 248.742C67.4395 247.289 68.623 246.293 70.2637 246.293ZM70.2637 247.102C69.1504 247.102 68.3418 247.77 68.3535 248.742C68.3418 249.715 69.1504 250.383 70.2637 250.383C71.3652 250.383 72.1621 249.715 72.1621 248.742C72.1621 247.77 71.3652 247.102 70.2637 247.102ZM75.3965 245.531V255.973H74.4824V245.531H75.3965ZM66.9121 252.891C68.834 252.891 71.4824 252.879 73.791 252.539L73.8613 253.219C71.4824 253.664 68.916 253.676 67.041 253.676L66.9121 252.891ZM88.6738 250.277V251.051H85.4395V253.828H89.7754V254.59H80.2363V253.828H84.5254V251.051H81.4082V246.422H82.3457V250.277H88.6738ZM95.5527 246.176V249.094H91.9668V250.711C93.9238 250.711 94.9316 250.682 96.1621 250.453L96.2559 251.215C94.9551 251.426 93.9004 251.461 91.791 251.461H91.0527V248.391H94.6387V246.914H91.0293V246.176H95.5527ZM99.2441 245.543V251.941H98.3184V250.008H96.2441V249.246H98.3184V247.84H96.2441V247.09H98.3184V245.543H99.2441ZM99.2441 252.504V255.973H98.3184V253.254H92.2246V252.504H99.2441ZM106.756 246.691V247.23C106.744 248.051 106.744 249.434 106.451 251.367L105.525 251.285C105.807 249.539 105.83 248.273 105.83 247.441H101.459V246.691H106.756ZM104.025 249.668V252.832C105.18 252.791 106.363 252.715 107.447 252.586L107.494 253.277C105.303 253.617 102.854 253.664 100.99 253.652L100.873 252.891C101.559 252.885 102.32 252.879 103.123 252.855V249.668H104.025ZM109.018 245.531V249.891H110.705V250.688H109.018V255.949H108.104V245.531H109.018ZM123.209 245.531V252.129H122.33V249.141H120.936V251.754H120.068V245.742H120.936V248.379H122.33V245.531H123.209ZM119.646 246.785V247.523H114.303V246.785H116.529V245.613H117.443V246.785H119.646ZM116.986 248.086C118.311 248.086 119.213 248.777 119.225 249.867C119.213 250.934 118.311 251.637 116.986 251.637C115.674 251.637 114.748 250.934 114.76 249.867C114.748 248.777 115.674 248.086 116.986 248.086ZM116.986 248.766C116.154 248.766 115.58 249.211 115.58 249.867C115.58 250.512 116.154 250.945 116.986 250.945C117.818 250.945 118.393 250.512 118.393 249.867C118.393 249.211 117.818 248.766 116.986 248.766ZM119.764 252.305C121.955 252.305 123.268 252.961 123.268 254.133C123.268 255.27 121.955 255.926 119.764 255.926C117.572 255.926 116.26 255.27 116.271 254.133C116.26 252.961 117.572 252.305 119.764 252.305ZM119.764 253.031C118.146 253.02 117.174 253.418 117.186 254.133C117.174 254.812 118.146 255.211 119.764 255.211C121.381 255.211 122.342 254.812 122.354 254.133C122.342 253.418 121.381 253.02 119.764 253.031ZM134.236 250.688V251.426H124.732V250.688H129.033V249.469H125.939V246.023H133.053V246.762H126.842V248.719H133.123V249.469H129.924V250.688H134.236ZM129.479 252.188C131.717 252.188 133.053 252.867 133.064 254.062C133.053 255.27 131.717 255.938 129.479 255.949C127.229 255.938 125.881 255.27 125.881 254.062C125.881 252.867 127.229 252.188 129.479 252.188ZM129.479 252.914C127.803 252.914 126.807 253.348 126.818 254.062C126.807 254.789 127.803 255.211 129.479 255.211C131.131 255.211 132.139 254.789 132.139 254.062C132.139 253.348 131.131 252.914 129.479 252.914ZM139.85 245.719C142.17 245.719 143.529 246.352 143.529 247.512C143.529 248.695 142.17 249.328 139.85 249.34C137.529 249.328 136.158 248.695 136.158 247.512C136.158 246.352 137.529 245.719 139.85 245.719ZM139.85 246.41C138.115 246.41 137.107 246.832 137.119 247.512C137.107 248.238 138.115 248.637 139.85 248.637C141.572 248.637 142.592 248.238 142.592 247.512C142.592 246.832 141.572 246.41 139.85 246.41ZM144.596 250.043V250.793H135.104V250.043H144.596ZM143.377 251.695V254.027H137.189V255.105H143.693V255.832H136.275V253.348H142.475V252.398H136.252V251.695H143.377Z" fill="#333333"/>
<mask id="path-31-inside-8_172_130" fill="white">
<path d="M16 266H154V286H16V266Z"/>
</mask>
<path d="M16 286V286.5H16.9857V286V285.5H16V286ZM18.9571 286V286.5H20.9286V286V285.5H18.9571V286ZM22.9 286V286.5H24.8714V286V285.5H22.9V286ZM26.8429 286V286.5H28.8143V286V285.5H26.8429V286ZM30.7857 286V286.5H32.7571V286V285.5H30.7857V286ZM34.7286 286V286.5H36.7V286V285.5H34.7286V286ZM38.6714 286V286.5H40.6429V286V285.5H38.6714V286ZM42.6143 286V286.5H44.5857V286V285.5H42.6143V286ZM46.5571 286V286.5H48.5286V286V285.5H46.5571V286ZM50.5 286V286.5H52.4714V286V285.5H50.5V286ZM54.4429 286V286.5H56.4143V286V285.5H54.4429V286ZM58.3857 286V286.5H60.3571V286V285.5H58.3857V286ZM62.3286 286V286.5H64.3V286V285.5H62.3286V286ZM66.2714 286V286.5H68.2428V286V285.5H66.2714V286ZM70.2143 286V286.5H72.1857V286V285.5H70.2143V286ZM74.1571 286V286.5H76.1286V286V285.5H74.1571V286ZM78.1 286V286.5H80.0714V286V285.5H78.1V286ZM82.0428 286V286.5H84.0143V286V285.5H82.0428V286ZM85.9857 286V286.5H87.9571V286V285.5H85.9857V286ZM89.9286 286V286.5H91.9V286V285.5H89.9286V286ZM93.8714 286V286.5H95.8428V286V285.5H93.8714V286ZM97.8143 286V286.5H99.7857V286V285.5H97.8143V286ZM101.757 286V286.5H103.729V286V285.5H101.757V286ZM105.7 286V286.5H107.671V286V285.5H105.7V286ZM109.643 286V286.5H111.614V286V285.5H109.643V286ZM113.586 286V286.5H115.557V286V285.5H113.586V286ZM117.529 286V286.5H119.5V286V285.5H117.529V286ZM121.471 286V286.5H123.443V286V285.5H121.471V286ZM125.414 286V286.5H127.386V286V285.5H125.414V286ZM129.357 286V286.5H131.329V286V285.5H129.357V286ZM133.3 286V286.5H135.271V286V285.5H133.3V286ZM137.243 286V286.5H139.214V286V285.5H137.243V286ZM141.186 286V286.5H143.157V286V285.5H141.186V286ZM145.129 286V286.5H147.1V286V285.5H145.129V286ZM149.071 286V286.5H151.043V286V285.5H149.071V286ZM153.014 286V286.5H154V286V285.5H153.014V286ZM16 286V287H16.9857V286V285H16V286ZM18.9571 286V287H20.9286V286V285H18.9571V286ZM22.9 286V287H24.8714V286V285H22.9V286ZM26.8429 286V287H28.8143V286V285H26.8429V286ZM30.7857 286V287H32.7571V286V285H30.7857V286ZM34.7286 286V287H36.7V286V285H34.7286V286ZM38.6714 286V287H40.6429V286V285H38.6714V286ZM42.6143 286V287H44.5857V286V285H42.6143V286ZM46.5571 286V287H48.5286V286V285H46.5571V286ZM50.5 286V287H52.4714V286V285H50.5V286ZM54.4429 286V287H56.4143V286V285H54.4429V286ZM58.3857 286V287H60.3571V286V285H58.3857V286ZM62.3286 286V287H64.3V286V285H62.3286V286ZM66.2714 286V287H68.2428V286V285H66.2714V286ZM70.2143 286V287H72.1857V286V285H70.2143V286ZM74.1571 286V287H76.1286V286V285H74.1571V286ZM78.1 286V287H80.0714V286V285H78.1V286ZM82.0428 286V287H84.0143V286V285H82.0428V286ZM85.9857 286V287H87.9571V286V285H85.9857V286ZM89.9286 286V287H91.9V286V285H89.9286V286ZM93.8714 286V287H95.8428V286V285H93.8714V286ZM97.8143 286V287H99.7857V286V285H97.8143V286ZM101.757 286V287H103.729V286V285H101.757V286ZM105.7 286V287H107.671V286V285H105.7V286ZM109.643 286V287H111.614V286V285H109.643V286ZM113.586 286V287H115.557V286V285H113.586V286ZM117.529 286V287H119.5V286V285H117.529V286ZM121.471 286V287H123.443V286V285H121.471V286ZM125.414 286V287H127.386V286V285H125.414V286ZM129.357 286V287H131.329V286V285H129.357V286ZM133.3 286V287H135.271V286V285H133.3V286ZM137.243 286V287H139.214V286V285H137.243V286ZM141.186 286V287H143.157V286V285H141.186V286ZM145.129 286V287H147.1V286V285H145.129V286ZM149.071 286V287H151.043V286V285H149.071V286ZM153.014 286V287H154V286V285H153.014V286Z" fill="#E5E5E5" mask="url(#path-31-inside-8_172_130)"/>
<path d="M61.3809 271.293C63.0215 271.293 64.1816 272.289 64.1816 273.742C64.1816 275.195 63.0215 276.191 61.3809 276.191C59.7402 276.191 58.5566 275.195 58.5684 273.742C58.5566 272.289 59.7402 271.293 61.3809 271.293ZM61.3809 272.102C60.2676 272.102 59.459 272.77 59.4707 273.742C59.459 274.715 60.2676 275.383 61.3809 275.383C62.4824 275.383 63.2793 274.715 63.2793 273.742C63.2793 272.77 62.4824 272.102 61.3809 272.102ZM66.5137 270.531V280.973H65.5996V270.531H66.5137ZM58.0293 277.891C59.9512 277.891 62.5996 277.879 64.9082 277.539L64.9785 278.219C62.5996 278.664 60.0332 278.676 58.1582 278.676L58.0293 277.891ZM73.7676 271.562V278.336H68.9512V271.562H73.7676ZM69.8535 272.301V277.586H72.8652V272.301H69.8535ZM76.9316 270.531V280.973H76.0059V270.531H76.9316ZM86.8574 270.531V273.203H88.4277V273.988H86.8574V276.59H85.9434V270.531H86.8574ZM81.1855 277.047V278.16H85.9434V277.047H86.8574V280.809H80.2715V277.047H81.1855ZM81.1855 280.07H85.9434V278.887H81.1855V280.07ZM84.9473 271.609V272.371H78.7363V271.609H81.3848V270.438H82.2988V271.609H84.9473ZM81.8418 272.852C83.3418 272.852 84.3379 273.566 84.3496 274.68C84.3379 275.793 83.3418 276.508 81.8418 276.508C80.3301 276.508 79.3223 275.793 79.334 274.68C79.3223 273.566 80.3301 272.852 81.8418 272.852ZM81.8418 273.566C80.8574 273.555 80.2012 274.012 80.2129 274.68C80.2012 275.359 80.8574 275.805 81.8418 275.805C82.8145 275.805 83.4707 275.359 83.4824 274.68C83.4707 274.012 82.8145 273.555 81.8418 273.566ZM97.6738 270.531V280.949H96.7598V270.531H97.6738ZM90.666 271.562V277.469C92.2539 277.463 93.9004 277.334 95.6465 276.965L95.7754 277.75C93.9238 278.137 92.2715 278.266 90.6074 278.266H89.7637V271.562H90.666ZM107.518 270.531V274.656H109.264V275.43H107.518V280.973H106.604V270.531H107.518ZM104.775 271.551V272.312H100.826V277.586C102.713 277.586 104.049 277.498 105.596 277.211L105.713 278.008C104.084 278.301 102.713 278.359 100.732 278.359H99.9121V271.551H104.775ZM110.928 280.07C110.518 280.07 110.166 279.73 110.178 279.309C110.166 278.898 110.518 278.559 110.928 278.559C111.338 278.559 111.678 278.898 111.678 279.309C111.678 279.73 111.338 280.07 110.928 280.07Z" fill="#333333"/>
<rect x="35" y="62" width="105" height="11" fill="#DDF7FF"/>
<path d="M46.5221 65.756C46.9188 65.756 47.1171 65.943 47.1171 66.317V67.796H40.5041C40.1075 67.796 39.9091 67.6033 39.9091 67.218V56.083H41.5241C41.9208 56.083 42.1191 56.2757 42.1191 56.661V65.756H46.5221ZM54.9363 67.643C54.5623 67.7903 54.2053 67.8923 53.8653 67.949C53.5253 67.9943 53.14 68.017 52.7093 68.017C51.2813 68.017 50.148 67.6657 49.3093 66.963C48.4707 66.249 48.0513 65.0817 48.0513 63.461C48.0513 62.441 48.2213 61.591 48.5613 60.911C48.9013 60.2197 49.3603 59.7097 49.9383 59.381C50.5163 59.0523 51.1737 58.888 51.9103 58.888C52.5337 58.888 53.1003 59.0183 53.6103 59.279C54.1317 59.5397 54.5397 59.9137 54.8343 60.401C55.129 60.8883 55.2763 61.455 55.2763 62.101C55.2763 62.815 55.0837 63.3703 54.6983 63.767C54.313 64.1523 53.6897 64.3563 52.8283 64.379L50.2443 64.447C50.2443 64.9343 50.4767 65.3367 50.9413 65.654C51.406 65.96 52.001 66.113 52.7263 66.113C53.5083 66.113 54.2337 65.994 54.9023 65.756L55.2083 67.167C55.2197 67.201 55.2253 67.2463 55.2253 67.303C55.2253 67.4503 55.129 67.5637 54.9363 67.643ZM53.3213 61.982C53.3213 61.6307 53.1967 61.336 52.9473 61.098C52.698 60.8487 52.3637 60.724 51.9443 60.724C51.4117 60.724 50.9923 60.8997 50.6863 61.251C50.3917 61.6023 50.2443 62.101 50.2443 62.747L52.6413 62.713C52.868 62.713 53.038 62.6563 53.1513 62.543C53.2647 62.4183 53.3213 62.2313 53.3213 61.982ZM61.8835 66.997C61.9175 67.065 61.9345 67.133 61.9345 67.201C61.9345 67.371 61.8268 67.507 61.6115 67.609C61.1695 67.847 60.6311 67.966 59.9965 67.966C59.1465 67.966 58.4721 67.7507 57.9735 67.32C57.4861 66.878 57.2425 66.2037 57.2425 65.297V60.996H56.3585C55.9958 60.996 55.8145 60.8203 55.8145 60.469V58.973H57.2425V56.304H58.9085C59.2711 56.304 59.4525 56.4853 59.4525 56.848V58.973H60.7785C61.1525 58.973 61.3395 59.1543 61.3395 59.517V60.996H59.4525V64.787C59.4525 65.161 59.5148 65.4273 59.6395 65.586C59.7755 65.7333 59.9908 65.807 60.2855 65.807C60.6028 65.807 60.9428 65.7163 61.3055 65.535L61.8835 66.997ZM63.0011 60.078C63.2731 59.7607 63.5111 59.4207 63.7151 59.058C63.9304 58.6953 64.0834 58.3497 64.1741 58.021C63.7661 57.9983 63.4431 57.885 63.2051 57.681C62.9784 57.4657 62.8651 57.1823 62.8651 56.831C62.8651 56.4457 62.9954 56.117 63.2561 55.845C63.5281 55.5617 63.8681 55.42 64.2761 55.42C64.6841 55.42 65.0128 55.5617 65.2621 55.845C65.5114 56.1283 65.6361 56.525 65.6361 57.035C65.6361 57.7377 65.4774 58.429 65.1601 59.109C64.8428 59.789 64.4971 60.2877 64.1231 60.605C64.0438 60.6617 63.9758 60.69 63.9191 60.69C63.8624 60.69 63.8114 60.673 63.7661 60.639L63.0011 60.078ZM72.9825 61.472C72.5632 61.234 72.1495 61.0583 71.7415 60.945C71.3335 60.8203 70.8802 60.758 70.3815 60.758C69.9962 60.758 69.7015 60.8203 69.4975 60.945C69.3048 61.0583 69.2085 61.2227 69.2085 61.438C69.2085 61.6533 69.3332 61.8403 69.5825 61.999C69.8318 62.1463 70.2965 62.3163 70.9765 62.509C72.8012 63.019 73.7135 63.988 73.7135 65.416C73.7135 66.2887 73.4188 66.9403 72.8295 67.371C72.2402 67.8017 71.4072 68.017 70.3305 68.017C69.6618 68.017 69.0385 67.9377 68.4605 67.779C67.8825 67.609 67.3952 67.371 66.9985 67.065C66.8512 66.963 66.7775 66.844 66.7775 66.708C66.7775 66.606 66.8115 66.504 66.8795 66.402L67.7295 65.229C68.5115 65.7957 69.3332 66.079 70.1945 66.079C71.0332 66.079 71.4525 65.8467 71.4525 65.382C71.4525 65.1553 71.3335 64.9513 71.0955 64.77C70.8575 64.5887 70.4382 64.4187 69.8375 64.26C68.8288 63.988 68.0978 63.6423 67.6445 63.223C67.1912 62.8037 66.9645 62.2597 66.9645 61.591C66.9645 60.7297 67.2705 60.0667 67.8825 59.602C68.4945 59.126 69.3275 58.888 70.3815 58.888C70.9028 58.888 71.4015 58.9503 71.8775 59.075C72.3535 59.1997 72.7672 59.3753 73.1185 59.602C73.3225 59.7267 73.4245 59.8683 73.4245 60.027C73.4245 60.095 73.4188 60.146 73.4075 60.18L72.9825 61.472ZM90.3772 66.385V67.201C90.3772 67.643 90.3545 67.9547 90.3092 68.136C90.2525 68.4307 90.1052 68.646 89.8672 68.782C89.6405 68.9293 89.3119 69.003 88.8812 69.003C88.7792 69.003 88.5809 68.9917 88.2862 68.969V62.373H87.1812V67.269C87.1812 67.575 87.1302 67.8073 87.0282 67.966C86.9375 68.1247 86.7902 68.2323 86.5862 68.289C86.4275 68.3457 86.2235 68.374 85.9742 68.374C85.8042 68.374 85.5379 68.3513 85.1752 68.306V55.216H86.6032C86.9885 55.216 87.1812 55.403 87.1812 55.777V60.248H88.2862V54.876H89.7992C90.1845 54.876 90.3772 55.063 90.3772 55.437V66.385ZM83.7472 56.559C83.9285 56.559 84.0589 56.5987 84.1382 56.678C84.2289 56.7573 84.2742 56.882 84.2742 57.052V57.834C84.2742 58.8313 84.1269 59.8173 83.8322 60.792C83.5375 61.7667 83.1409 62.662 82.6422 63.478C82.1435 64.294 81.5882 64.974 80.9762 65.518C80.5909 65.8693 80.2339 66.045 79.9052 66.045C79.7579 66.045 79.6105 66.011 79.4632 65.943C79.2705 65.875 79.0949 65.7617 78.9362 65.603C78.7775 65.4443 78.6642 65.2687 78.5962 65.076C79.6842 64.1467 80.5399 63.0813 81.1632 61.88C81.7865 60.6673 82.1265 59.517 82.1832 58.429H79.5822C79.2082 58.429 79.0212 58.2477 79.0212 57.885V56.559H83.7472ZM104.573 58.242C104.63 58.378 104.658 58.565 104.658 58.803C104.658 59.2223 104.556 59.5963 104.352 59.925H102.567V60.435C102.567 60.911 102.544 61.2453 102.499 61.438C102.442 61.7327 102.295 61.9537 102.057 62.101C101.83 62.237 101.49 62.305 101.037 62.305C100.924 62.305 100.72 62.2937 100.425 62.271V54.876H101.989C102.374 54.876 102.567 55.063 102.567 55.437V57.783C102.952 57.715 103.275 57.681 103.536 57.681C103.831 57.681 104.057 57.7263 104.216 57.817C104.375 57.9077 104.494 58.0493 104.573 58.242ZM98.9799 61.047C98.5945 61.3643 98.1129 61.6023 97.5349 61.761C96.9569 61.9197 96.3449 61.999 95.6989 61.999C95.4609 61.999 95.2852 61.9933 95.1719 61.982C93.5059 61.8687 92.5539 61.1773 92.3159 59.908C92.2365 59.432 92.1969 58.8597 92.1969 58.191C92.1969 57.2843 92.2592 56.321 92.3839 55.301H93.8459C94.2085 55.301 94.3785 55.4993 94.3559 55.896C94.3332 56.0887 94.3105 56.4117 94.2879 56.865H96.9739V55.301H98.4019C98.7872 55.301 98.9799 55.488 98.9799 55.862V61.047ZM94.3049 59.245C94.3842 59.857 94.7129 60.2027 95.2909 60.282C95.4722 60.316 95.6535 60.333 95.8349 60.333C96.2542 60.333 96.6339 60.2537 96.9739 60.095V58.446H94.2709C94.2709 58.7067 94.2822 58.973 94.3049 59.245ZM102.057 67.201C102.272 67.1783 102.442 67.2067 102.567 67.286C102.692 67.3653 102.754 67.5013 102.754 67.694V68.782C101.485 68.9407 100.232 69.02 98.9969 69.02C97.9995 69.02 97.1155 68.969 96.3449 68.867C95.7329 68.7877 95.2512 68.6403 94.8999 68.425C94.5599 68.221 94.3275 67.932 94.2029 67.558C94.0895 67.2633 94.0329 66.8837 94.0329 66.419C94.0329 65.9883 94.0839 65.5463 94.1859 65.093H100.391V64.413H94.9339C94.6505 64.413 94.4352 64.345 94.2879 64.209C94.1405 64.073 94.0669 63.886 94.0669 63.648V62.815H101.819C102.204 62.815 102.397 63.002 102.397 63.376V65.926C102.397 66.3567 102.17 66.572 101.717 66.572H96.0899C96.0785 66.7533 96.1182 66.895 96.2089 66.997C96.3109 67.0877 96.4979 67.1557 96.7699 67.201C97.2459 67.2803 98.0052 67.32 99.0479 67.32C100.181 67.32 101.184 67.2803 102.057 67.201ZM106.087 57.613C105.701 57.613 105.509 57.426 105.509 57.052V55.964H108.331L108.042 54.74C108.189 54.6267 108.365 54.536 108.569 54.468C108.773 54.3887 108.971 54.349 109.164 54.349C109.515 54.349 109.781 54.434 109.963 54.604C110.144 54.7627 110.235 54.9837 110.235 55.267C110.235 55.4483 110.178 55.6807 110.065 55.964H112.19C112.575 55.964 112.768 56.151 112.768 56.525V57.613H106.087ZM116.729 60.282V61.098C116.729 61.54 116.706 61.8517 116.661 62.033C116.604 62.3277 116.457 62.5487 116.219 62.696C115.992 62.832 115.652 62.9 115.199 62.9C115.085 62.9 114.881 62.8887 114.587 62.866V62.441C114.201 62.4637 113.946 62.475 113.822 62.475C113.425 62.475 113.136 62.441 112.955 62.373C112.773 62.2937 112.649 62.1747 112.581 62.016C112.513 61.88 112.479 61.6873 112.479 61.438C112.479 61.1207 112.53 60.8373 112.632 60.588H114.587V59.789C114.201 59.8117 113.946 59.823 113.822 59.823C113.425 59.823 113.136 59.789 112.955 59.721C112.773 59.6417 112.649 59.5227 112.581 59.364C112.513 59.228 112.479 59.0353 112.479 58.786C112.479 58.4687 112.53 58.1853 112.632 57.936H114.587V54.876H116.151C116.536 54.876 116.729 55.063 116.729 55.437V60.282ZM112.19 60.52C112.19 61.2907 111.929 61.8913 111.408 62.322C110.886 62.7527 110.133 62.968 109.147 62.968C108.172 62.968 107.424 62.7527 106.903 62.322C106.381 61.8913 106.121 61.2907 106.121 60.52C106.121 59.7493 106.387 59.126 106.92 58.65C107.464 58.1627 108.206 57.919 109.147 57.919C110.087 57.919 110.83 58.1627 111.374 58.65C111.918 59.126 112.19 59.7493 112.19 60.52ZM108.076 60.418C108.076 60.7127 108.166 60.945 108.348 61.115C108.529 61.2737 108.795 61.353 109.147 61.353C109.498 61.353 109.764 61.2737 109.946 61.115C110.138 60.945 110.235 60.7127 110.235 60.418C110.235 60.1233 110.133 59.891 109.929 59.721C109.736 59.5397 109.475 59.449 109.147 59.449C108.818 59.449 108.557 59.5397 108.365 59.721C108.172 59.891 108.076 60.1233 108.076 60.418ZM116.032 63.614C116.406 63.614 116.593 63.7953 116.593 64.158V68C116.185 68.3513 115.601 68.6233 114.842 68.816C114.082 69.0087 113.244 69.105 112.326 69.105C111.974 69.105 111.617 69.088 111.255 69.054C110.382 68.9747 109.696 68.7707 109.198 68.442C108.699 68.1247 108.365 67.6827 108.195 67.116C108.081 66.7647 108.025 66.2547 108.025 65.586C108.025 64.9173 108.076 64.26 108.178 63.614H109.64C109.798 63.614 109.912 63.6537 109.98 63.733C110.048 63.801 110.082 63.9087 110.082 64.056L110.065 64.668H114.536V63.614H116.032ZM111.425 67.303C111.81 67.3483 112.127 67.371 112.377 67.371C112.762 67.371 113.147 67.3427 113.533 67.286C113.929 67.2293 114.264 67.15 114.536 67.048V66.232H110.133V66.283C110.167 66.589 110.28 66.8157 110.473 66.963C110.665 67.1103 110.983 67.2237 111.425 67.303ZM128.017 58.361C127.677 58.395 127.388 58.412 127.15 58.412C126.754 58.412 126.459 58.3723 126.266 58.293C126.085 58.2137 125.955 58.0947 125.875 57.936C125.807 57.8 125.773 57.6073 125.773 57.358C125.773 57.0407 125.824 56.7573 125.926 56.508H128.017V54.876H129.581C129.967 54.876 130.159 55.063 130.159 55.437V60.622V61.438C130.159 61.88 130.137 62.1917 130.091 62.373C130.035 62.6677 129.887 62.8887 129.649 63.036C129.423 63.172 129.083 63.24 128.629 63.24C128.516 63.24 128.312 63.2287 128.017 63.206V60.996C127.677 61.03 127.388 61.047 127.15 61.047C126.754 61.047 126.459 61.0073 126.266 60.928C126.085 60.8487 125.955 60.7297 125.875 60.571C125.807 60.435 125.773 60.2423 125.773 59.993C125.773 59.6757 125.824 59.3923 125.926 59.143H128.017V58.361ZM126.385 62.611C125.637 62.7357 124.742 62.798 123.699 62.798C123.133 62.798 122.713 62.7867 122.441 62.764C121.569 62.7073 120.911 62.543 120.469 62.271C120.027 61.9877 119.75 61.5683 119.636 61.013C119.591 60.775 119.568 60.4463 119.568 60.027C119.568 59.3697 119.619 58.769 119.721 58.225H123.444V57.171H120.146C119.761 57.171 119.568 56.984 119.568 56.61V55.522H124.957C125.309 55.522 125.484 55.709 125.484 56.083V59.806H121.574L121.557 60.095C121.557 60.3217 121.58 60.4917 121.625 60.605C121.682 60.7183 121.795 60.809 121.965 60.877C122.135 60.9337 122.396 60.9733 122.747 60.996C123.189 61.03 123.603 61.047 123.988 61.047C124.43 61.047 125.014 61.0243 125.739 60.979C125.943 60.9677 126.102 61.0073 126.215 61.098C126.329 61.1887 126.385 61.3303 126.385 61.523V62.611ZM130.159 65.62L130.176 66.725C130.176 67.3937 130.148 67.8923 130.091 68.221C129.989 68.799 129.513 69.088 128.663 69.088C128.403 69.088 128.199 69.0767 128.051 69.054V65.875H121.999C121.614 65.875 121.421 65.688 121.421 65.314V64.005H129.581C129.967 64.005 130.159 64.192 130.159 64.566V65.62ZM134.444 56.236C134.829 56.236 135.022 56.423 135.022 56.797L134.971 63.444C134.971 63.954 134.875 64.311 134.682 64.515C134.501 64.719 134.149 64.8153 133.628 64.804L132.897 64.787L132.812 56.236H134.444ZM133.9 67.949C133.515 67.949 133.22 67.8583 133.016 67.677C132.823 67.4957 132.727 67.2407 132.727 66.912C132.727 66.5833 132.835 66.3057 133.05 66.079C133.265 65.841 133.549 65.722 133.9 65.722C134.251 65.722 134.535 65.841 134.75 66.079C134.965 66.3057 135.073 66.5833 135.073 66.912C135.073 67.2407 134.971 67.4957 134.767 67.677C134.574 67.8583 134.285 67.949 133.9 67.949Z" fill="#3060D1"/>
</svg>
