<svg width="174" height="262" viewBox="0 0 174 262" fill="none" xmlns="http://www.w3.org/2000/svg">
<rect x="5" y="11" width="169" height="251" rx="5" fill="#3C5E9B"/>
<rect x="0.5" y="0.5" width="169" height="256" rx="4.5" fill="white" stroke="#3C5E9B"/>
<path d="M27.457 174.496C27.457 176.148 28.2656 177.941 29.6484 178.762L29.1211 179.477C28.1191 178.867 27.3984 177.754 27.0352 176.488C26.6484 177.871 25.875 179.061 24.832 179.699L24.2461 179.008C25.6875 178.164 26.5664 176.312 26.5664 174.531V172.516H27.457V174.496ZM33.293 171.531V181.949H32.4023V171.531H33.293ZM31.1367 171.754V181.422H30.2695V176.055H28.5V175.27H30.2695V171.754H31.1367ZM38.2148 173.219C38.2148 174.637 39.293 175.938 40.8047 176.453L40.3008 177.18C39.1465 176.758 38.2383 175.896 37.7812 174.812C37.3359 176.037 36.4102 177.004 35.1914 177.473L34.6992 176.734C36.2578 176.148 37.3008 174.754 37.3125 173.148V172.07H38.2148V173.219ZM42.8789 171.531V174.25H44.4492V175.023H42.8789V177.871H41.9648V171.531H42.8789ZM39.5391 178.141C41.6836 178.141 42.9727 178.832 42.9727 180.027C42.9727 181.246 41.6836 181.926 39.5391 181.926C37.3945 181.926 36.082 181.246 36.082 180.027C36.082 178.832 37.3945 178.141 39.5391 178.141ZM39.5391 178.879C37.9688 178.879 36.9961 179.312 37.0078 180.027C36.9961 180.766 37.9688 181.188 39.5391 181.199C41.1211 181.188 42.082 180.766 42.082 180.027C42.082 179.312 41.1211 178.879 39.5391 178.879ZM54.0352 171.531V181.949H53.1445V171.531H54.0352ZM51.9375 171.754V181.422H51.0586V176.359H49.7227C49.623 178.387 48.7617 179.652 47.4727 179.652C46.1133 179.652 45.2344 178.246 45.2344 176.031C45.2344 173.816 46.1133 172.41 47.4727 172.41C48.7383 172.41 49.5938 173.635 49.7109 175.598H51.0586V171.754H51.9375ZM47.4727 173.277C46.6289 173.277 46.0898 174.332 46.1016 176.031C46.0898 177.719 46.6289 178.785 47.4727 178.773C48.3164 178.785 48.8555 177.719 48.8555 176.031C48.8555 174.332 48.3164 173.277 47.4727 173.277ZM64.3359 172.328V173.09H63.2695V176.418C63.7559 176.389 64.2246 176.348 64.6758 176.289L64.7227 176.992C62.6953 177.309 60.3164 177.332 58.6289 177.332L58.5117 176.559L59.8594 176.547V173.09H58.8047V172.328H64.3359ZM67.125 171.531V177.965H66.1992V176.031H64.4414V175.27H66.1992V174.168H64.4414V173.406H66.1992V171.531H67.125ZM63.668 178.188C65.8477 178.188 67.1602 178.867 67.1602 180.051C67.1602 181.246 65.8477 181.926 63.668 181.926C61.4883 181.926 60.1758 181.246 60.1758 180.051C60.1758 178.867 61.4883 178.188 63.668 178.188ZM63.668 178.902C62.0625 178.902 61.0781 179.336 61.0898 180.051C61.0781 180.777 62.0625 181.199 63.668 181.199C65.2734 181.199 66.2461 180.777 66.2461 180.051C66.2461 179.336 65.2734 178.902 63.668 178.902ZM60.75 176.535C61.2832 176.523 61.834 176.506 62.3789 176.477V173.09H60.75V176.535ZM76.9453 171.531V175.973H78.6094V176.746H76.9453V181.949H76.0195V171.531H76.9453ZM68.7305 179.172C69.5801 179.172 70.5703 179.172 71.6016 179.137V177.977C70.3887 177.842 69.5977 177.133 69.6094 176.102C69.5977 174.93 70.5938 174.168 72.0703 174.168C73.5234 174.168 74.5312 174.93 74.543 176.102C74.5312 177.133 73.7285 177.842 72.5273 177.988V179.102C73.5 179.055 74.4785 178.979 75.3867 178.844L75.4453 179.547C73.1719 179.934 70.7109 179.957 68.8828 179.957L68.7305 179.172ZM75.1992 172.809V173.559H68.918V172.809H71.6016V171.555H72.5273V172.809H75.1992ZM72.0703 174.883C71.1094 174.883 70.4648 175.375 70.4648 176.102C70.4648 176.828 71.1094 177.297 72.0703 177.285C73.0195 177.297 73.6641 176.828 73.6641 176.102C73.6641 175.375 73.0195 174.883 72.0703 174.883ZM88.7578 176.371V177.098H79.2188V176.371H88.7578ZM87.5625 177.93V180.145H81.3047V181.141H87.9023V181.809H80.3789V179.512H86.6484V178.621H80.3672V177.93H87.5625ZM87.5273 171.848V174.004H81.375V174.918H87.7148V175.586H80.4609V173.371H86.6016V172.516H80.4258V171.848H87.5273ZM101.25 171.543V179.184H100.324V175.188H98.1797V174.426H100.324V171.543H101.25ZM101.543 180.953V181.727H94.5586V178.492H95.4844V180.953H101.543ZM96.2344 173.688C96.2344 175.035 97.2773 176.348 98.8008 176.863L98.3203 177.602C97.1426 177.18 96.2344 176.301 95.7891 175.223C95.3379 176.424 94.377 177.385 93.1406 177.848L92.6602 177.098C94.1953 176.559 95.3086 175.188 95.3086 173.688V173.148H92.9531V172.387H98.5664V173.148H96.2344V173.688ZM111.047 171.531V175.832H112.793V176.594H111.047V181.949H110.133V171.531H111.047ZM109.125 173.207V173.969H102.926V173.207H105.609V171.66H106.523V173.207H109.125ZM106.078 174.836C107.555 174.836 108.621 175.82 108.633 177.227C108.621 178.633 107.555 179.617 106.078 179.617C104.59 179.617 103.512 178.633 103.523 177.227C103.512 175.82 104.59 174.836 106.078 174.836ZM106.078 175.609C105.105 175.609 104.391 176.289 104.402 177.227C104.391 178.176 105.105 178.844 106.078 178.832C107.039 178.844 107.742 178.176 107.754 177.227C107.742 176.289 107.039 175.609 106.078 175.609ZM121.781 174.695V175.434H114.645V171.918H115.559V174.695H121.781ZM122.883 176.852V177.602H113.344V176.852H122.883ZM121.84 180.93V181.691H114.586V178.668H115.5V180.93H121.84ZM129.539 172.34C130.494 172.346 131.268 172.902 131.719 173.863H134.461V171.531H135.375V181.973H134.461V177.93H131.789C131.35 178.984 130.547 179.594 129.539 179.594C128.004 179.594 126.926 178.188 126.926 175.973C126.926 173.758 128.004 172.352 129.539 172.34ZM129.539 173.16C128.508 173.172 127.805 174.273 127.805 175.973C127.805 177.672 128.508 178.773 129.539 178.773C130.559 178.773 131.273 177.672 131.273 175.973C131.273 174.273 130.559 173.172 129.539 173.16ZM131.988 174.637C132.082 175.041 132.141 175.486 132.141 175.973C132.141 176.4 132.094 176.805 132.023 177.168H134.461V174.637H131.988ZM145.746 171.531V177.742H144.82V175.012H142.723V174.25H144.82V171.531H145.746ZM142.289 178.07C144.457 178.07 145.781 178.773 145.781 180.004C145.781 181.234 144.457 181.938 142.289 181.949C140.121 181.938 138.797 181.234 138.797 180.004C138.797 178.773 140.121 178.07 142.289 178.07ZM142.289 178.785C140.695 178.785 139.699 179.242 139.711 180.004C139.699 180.754 140.695 181.211 142.289 181.211C143.883 181.211 144.867 180.754 144.867 180.004C144.867 179.242 143.883 178.785 142.289 178.785ZM140.73 173.441C140.73 174.801 141.773 176.09 143.297 176.617L142.816 177.355C141.645 176.934 140.736 176.061 140.297 174.977C139.84 176.201 138.873 177.18 137.637 177.648L137.156 176.91C138.703 176.348 139.805 174.941 139.805 173.453V173.066H137.449V172.293H143.062V173.066H140.73V173.441Z" fill="#333333"/>
<path d="M58.5036 196.186C58.8396 196.186 59.0076 196.345 59.0076 196.662V204.726C59.0076 205.127 58.9143 205.412 58.7276 205.58C58.5503 205.748 58.2096 205.832 57.7056 205.832H57.1876V196.186H58.5036ZM64.8958 205.174C64.9238 205.23 64.9378 205.286 64.9378 205.342C64.9378 205.482 64.8492 205.594 64.6718 205.678C64.3078 205.874 63.8645 205.972 63.3418 205.972C62.6418 205.972 62.0865 205.795 61.6758 205.44C61.2745 205.076 61.0738 204.521 61.0738 203.774V200.232H60.3458C60.0472 200.232 59.8978 200.087 59.8978 199.798V198.566H61.0738V196.368H62.4458C62.7445 196.368 62.8938 196.517 62.8938 196.816V198.566H63.9858C64.2938 198.566 64.4478 198.715 64.4478 199.014V200.232H62.8938V203.354C62.8938 203.662 62.9452 203.881 63.0478 204.012C63.1598 204.133 63.3372 204.194 63.5798 204.194C63.8412 204.194 64.1212 204.119 64.4198 203.97L64.8958 205.174ZM65.8162 199.476C66.0402 199.215 66.2362 198.935 66.4042 198.636C66.5816 198.337 66.7076 198.053 66.7822 197.782C66.4462 197.763 66.1802 197.67 65.9842 197.502C65.7976 197.325 65.7042 197.091 65.7042 196.802C65.7042 196.485 65.8116 196.214 66.0262 195.99C66.2502 195.757 66.5302 195.64 66.8662 195.64C67.2022 195.64 67.4729 195.757 67.6782 195.99C67.8836 196.223 67.9862 196.55 67.9862 196.97C67.9862 197.549 67.8556 198.118 67.5942 198.678C67.3329 199.238 67.0482 199.649 66.7402 199.91C66.6749 199.957 66.6189 199.98 66.5722 199.98C66.5256 199.98 66.4836 199.966 66.4462 199.938L65.8162 199.476ZM74.0362 200.624C73.6909 200.428 73.3502 200.283 73.0142 200.19C72.6782 200.087 72.3049 200.036 71.8942 200.036C71.5769 200.036 71.3342 200.087 71.1662 200.19C71.0075 200.283 70.9282 200.419 70.9282 200.596C70.9282 200.773 71.0309 200.927 71.2362 201.058C71.4415 201.179 71.8242 201.319 72.3842 201.478C73.8869 201.898 74.6382 202.696 74.6382 203.872C74.6382 204.591 74.3955 205.127 73.9102 205.482C73.4249 205.837 72.7389 206.014 71.8522 206.014C71.3015 206.014 70.7882 205.949 70.3122 205.818C69.8362 205.678 69.4349 205.482 69.1082 205.23C68.9869 205.146 68.9262 205.048 68.9262 204.936C68.9262 204.852 68.9542 204.768 69.0102 204.684L69.7102 203.718C70.3542 204.185 71.0309 204.418 71.7402 204.418C72.4309 204.418 72.7762 204.227 72.7762 203.844C72.7762 203.657 72.6782 203.489 72.4822 203.34C72.2862 203.191 71.9409 203.051 71.4462 202.92C70.6155 202.696 70.0135 202.411 69.6402 202.066C69.2669 201.721 69.0802 201.273 69.0802 200.722C69.0802 200.013 69.3322 199.467 69.8362 199.084C70.3402 198.692 71.0262 198.496 71.8942 198.496C72.3235 198.496 72.7342 198.547 73.1262 198.65C73.5182 198.753 73.8589 198.897 74.1482 199.084C74.3162 199.187 74.4002 199.303 74.4002 199.434C74.4002 199.49 74.3955 199.532 74.3862 199.56L74.0362 200.624ZM82.1033 196.186C82.7193 196.186 83.2606 196.312 83.7273 196.564C84.1939 196.816 84.5533 197.171 84.8053 197.628C85.0573 198.085 85.1833 198.617 85.1833 199.224C85.1833 199.849 85.0433 200.391 84.7633 200.848C84.4926 201.305 84.1239 201.655 83.6573 201.898C83.1906 202.141 82.6726 202.262 82.1033 202.262H80.9273V204.726C80.9273 205.127 80.8386 205.412 80.6613 205.58C80.4839 205.748 80.1433 205.832 79.6393 205.832H79.0513V196.186H82.1033ZM82.0193 200.582C82.4486 200.582 82.7799 200.461 83.0133 200.218C83.2466 199.975 83.3633 199.644 83.3633 199.224C83.3633 198.804 83.2466 198.477 83.0133 198.244C82.7799 198.001 82.4486 197.88 82.0193 197.88H80.8713V200.582H82.0193ZM91.3719 205.706C91.0639 205.827 90.7699 205.911 90.4899 205.958C90.2099 205.995 89.8926 206.014 89.5379 206.014C88.3619 206.014 87.4286 205.725 86.7379 205.146C86.0472 204.558 85.7019 203.597 85.7019 202.262C85.7019 201.422 85.8419 200.722 86.1219 200.162C86.4019 199.593 86.7799 199.173 87.2559 198.902C87.7319 198.631 88.2732 198.496 88.8799 198.496C89.3932 198.496 89.8599 198.603 90.2799 198.818C90.7092 199.033 91.0452 199.341 91.2879 199.742C91.5306 200.143 91.6519 200.61 91.6519 201.142C91.6519 201.73 91.4932 202.187 91.1759 202.514C90.8586 202.831 90.3452 202.999 89.6359 203.018L87.5079 203.074C87.5079 203.475 87.6992 203.807 88.0819 204.068C88.4646 204.32 88.9546 204.446 89.5519 204.446C90.1959 204.446 90.7932 204.348 91.3439 204.152L91.5959 205.314C91.6052 205.342 91.6099 205.379 91.6099 205.426C91.6099 205.547 91.5306 205.641 91.3719 205.706ZM90.0419 201.044C90.0419 200.755 89.9392 200.512 89.7339 200.316C89.5286 200.111 89.2532 200.008 88.9079 200.008C88.4692 200.008 88.1239 200.153 87.8719 200.442C87.6292 200.731 87.5079 201.142 87.5079 201.674L89.4819 201.646C89.6686 201.646 89.8086 201.599 89.9019 201.506C89.9952 201.403 90.0419 201.249 90.0419 201.044ZM99.4418 205.244C99.4978 205.328 99.5258 205.407 99.5258 205.482C99.5258 205.575 99.4931 205.659 99.4278 205.734C99.3718 205.799 99.2925 205.832 99.1898 205.832H97.5238L94.5978 201.562V204.726C94.5978 204.997 94.5651 205.211 94.4998 205.37C94.4438 205.519 94.3271 205.636 94.1498 205.72C93.9725 205.795 93.7111 205.832 93.3658 205.832H92.7778V196.186H94.0938C94.4298 196.186 94.5978 196.345 94.5978 196.662V199.98L97.2438 196.186H98.9378C99.0311 196.186 99.1058 196.214 99.1618 196.27C99.2178 196.317 99.2458 196.377 99.2458 196.452C99.2458 196.527 99.2178 196.601 99.1618 196.676L96.3058 200.778L99.4418 205.244ZM107.314 201.044C107.314 202.64 106.973 203.858 106.292 204.698C105.62 205.538 104.635 205.958 103.338 205.958C102.041 205.958 101.051 205.538 100.37 204.698C99.6981 203.858 99.3621 202.64 99.3621 201.044C99.3621 199.933 99.5301 199.009 99.8661 198.272C100.211 197.525 100.678 196.97 101.266 196.606C101.863 196.242 102.554 196.06 103.338 196.06C104.122 196.06 104.808 196.242 105.396 196.606C105.993 196.97 106.46 197.525 106.796 198.272C107.141 199.009 107.314 199.933 107.314 201.044ZM105.41 201.058C105.41 198.911 104.719 197.838 103.338 197.838C101.957 197.838 101.266 198.911 101.266 201.058C101.266 203.139 101.957 204.18 103.338 204.18C104.719 204.18 105.41 203.139 105.41 201.058ZM108.526 207.764C108.741 207.521 108.927 207.26 109.086 206.98C109.254 206.7 109.371 206.434 109.436 206.182C109.119 206.163 108.871 206.075 108.694 205.916C108.526 205.757 108.442 205.538 108.442 205.258C108.442 204.959 108.54 204.707 108.736 204.502C108.941 204.287 109.203 204.18 109.52 204.18C109.837 204.18 110.089 204.292 110.276 204.516C110.463 204.731 110.556 205.034 110.556 205.426C110.556 205.949 110.435 206.462 110.192 206.966C109.949 207.479 109.683 207.881 109.394 208.17C109.357 208.207 109.305 208.226 109.24 208.226C109.193 208.226 109.156 208.217 109.128 208.198L108.526 207.764ZM30.8762 226.152C31.2028 226.152 31.3662 226.306 31.3662 226.614V227.832H25.9202C25.5935 227.832 25.4302 227.673 25.4302 227.356V218.186H26.7602C27.0868 218.186 27.2502 218.345 27.2502 218.662V226.152H30.8762ZM37.8055 227.706C37.4975 227.827 37.2035 227.911 36.9235 227.958C36.6435 227.995 36.3262 228.014 35.9715 228.014C34.7955 228.014 33.8622 227.725 33.1715 227.146C32.4808 226.558 32.1355 225.597 32.1355 224.262C32.1355 223.422 32.2755 222.722 32.5555 222.162C32.8355 221.593 33.2135 221.173 33.6895 220.902C34.1655 220.631 34.7068 220.496 35.3135 220.496C35.8268 220.496 36.2935 220.603 36.7135 220.818C37.1428 221.033 37.4788 221.341 37.7215 221.742C37.9642 222.143 38.0855 222.61 38.0855 223.142C38.0855 223.73 37.9268 224.187 37.6095 224.514C37.2922 224.831 36.7788 224.999 36.0695 225.018L33.9415 225.074C33.9415 225.475 34.1328 225.807 34.5155 226.068C34.8982 226.32 35.3882 226.446 35.9855 226.446C36.6295 226.446 37.2268 226.348 37.7775 226.152L38.0295 227.314C38.0388 227.342 38.0435 227.379 38.0435 227.426C38.0435 227.547 37.9642 227.641 37.8055 227.706ZM36.4755 223.044C36.4755 222.755 36.3728 222.512 36.1675 222.316C35.9622 222.111 35.6868 222.008 35.3415 222.008C34.9028 222.008 34.5575 222.153 34.3055 222.442C34.0628 222.731 33.9415 223.142 33.9415 223.674L35.9155 223.646C36.1022 223.646 36.2422 223.599 36.3355 223.506C36.4288 223.403 36.4755 223.249 36.4755 223.044ZM43.5267 227.174C43.5547 227.23 43.5687 227.286 43.5687 227.342C43.5687 227.482 43.48 227.594 43.3027 227.678C42.9387 227.874 42.4954 227.972 41.9727 227.972C41.2727 227.972 40.7174 227.795 40.3067 227.44C39.9054 227.076 39.7047 226.521 39.7047 225.774V222.232H38.9767C38.678 222.232 38.5287 222.087 38.5287 221.798V220.566H39.7047V218.368H41.0767C41.3754 218.368 41.5247 218.517 41.5247 218.816V220.566H42.6167C42.9247 220.566 43.0787 220.715 43.0787 221.014V222.232H41.5247V225.354C41.5247 225.662 41.576 225.881 41.6787 226.012C41.7907 226.133 41.968 226.194 42.2107 226.194C42.472 226.194 42.752 226.119 43.0507 225.97L43.5267 227.174ZM44.4471 221.476C44.6711 221.215 44.8671 220.935 45.0351 220.636C45.2124 220.337 45.3384 220.053 45.4131 219.782C45.0771 219.763 44.8111 219.67 44.6151 219.502C44.4284 219.325 44.3351 219.091 44.3351 218.802C44.3351 218.485 44.4424 218.214 44.6571 217.99C44.8811 217.757 45.1611 217.64 45.4971 217.64C45.8331 217.64 46.1037 217.757 46.3091 217.99C46.5144 218.223 46.6171 218.55 46.6171 218.97C46.6171 219.549 46.4864 220.118 46.2251 220.678C45.9637 221.238 45.6791 221.649 45.3711 221.91C45.3057 221.957 45.2497 221.98 45.2031 221.98C45.1564 221.98 45.1144 221.966 45.0771 221.938L44.4471 221.476ZM52.667 222.624C52.3217 222.428 51.981 222.283 51.645 222.19C51.309 222.087 50.9357 222.036 50.525 222.036C50.2077 222.036 49.965 222.087 49.797 222.19C49.6384 222.283 49.559 222.419 49.559 222.596C49.559 222.773 49.6617 222.927 49.867 223.058C50.0724 223.179 50.455 223.319 51.015 223.478C52.5177 223.898 53.269 224.696 53.269 225.872C53.269 226.591 53.0264 227.127 52.541 227.482C52.0557 227.837 51.3697 228.014 50.483 228.014C49.9324 228.014 49.419 227.949 48.943 227.818C48.467 227.678 48.0657 227.482 47.739 227.23C47.6177 227.146 47.557 227.048 47.557 226.936C47.557 226.852 47.585 226.768 47.641 226.684L48.341 225.718C48.985 226.185 49.6617 226.418 50.371 226.418C51.0617 226.418 51.407 226.227 51.407 225.844C51.407 225.657 51.309 225.489 51.113 225.34C50.917 225.191 50.5717 225.051 50.077 224.92C49.2464 224.696 48.6444 224.411 48.271 224.066C47.8977 223.721 47.711 223.273 47.711 222.722C47.711 222.013 47.963 221.467 48.467 221.084C48.971 220.692 49.657 220.496 50.525 220.496C50.9544 220.496 51.365 220.547 51.757 220.65C52.149 220.753 52.4897 220.897 52.779 221.084C52.947 221.187 53.031 221.303 53.031 221.434C53.031 221.49 53.0264 221.532 53.017 221.56L52.667 222.624ZM64.0381 222.554C64.3648 222.554 64.5281 222.708 64.5281 223.016V226.866C64.5281 227.193 64.3928 227.417 64.1221 227.538C63.5901 227.79 62.8901 227.916 62.0221 227.916C60.6128 227.916 59.4974 227.529 58.6761 226.754C57.8548 225.979 57.4441 224.789 57.4441 223.184C57.4441 222.092 57.6401 221.163 58.0321 220.398C58.4241 219.623 58.9561 219.04 59.6281 218.648C60.3094 218.256 61.0794 218.06 61.9381 218.06C62.4234 218.06 62.8761 218.125 63.2961 218.256C63.7254 218.377 64.0614 218.536 64.3041 218.732C64.4068 218.816 64.4581 218.905 64.4581 218.998C64.4581 219.026 64.4394 219.087 64.4021 219.18L63.8141 220.286C63.5434 220.099 63.2541 219.964 62.9461 219.88C62.6474 219.796 62.3114 219.754 61.9381 219.754C61.1261 219.754 60.4868 220.053 60.0201 220.65C59.5628 221.238 59.3341 222.083 59.3341 223.184C59.3341 224.061 59.5208 224.766 59.8941 225.298C60.2674 225.83 60.7854 226.147 61.4481 226.25C61.6161 226.278 61.7934 226.292 61.9801 226.292C62.3068 226.292 62.5961 226.255 62.8481 226.18V224.136H61.7561C61.4201 224.136 61.2521 223.977 61.2521 223.66V222.554H64.0381ZM70.4746 220.734C70.6053 220.799 70.6706 220.893 70.6706 221.014C70.6706 221.051 70.6613 221.098 70.6426 221.154L70.2226 222.442C69.9426 222.311 69.6346 222.246 69.2986 222.246C68.7106 222.246 68.2159 222.535 67.8146 223.114V226.796C67.8146 227.197 67.7259 227.482 67.5486 227.65C67.3806 227.809 67.0446 227.888 66.5406 227.888H65.9946V220.622H67.1566C67.4646 220.622 67.6186 220.767 67.6186 221.056V221.476C67.8613 221.14 68.1413 220.893 68.4586 220.734C68.7759 220.566 69.0886 220.482 69.3966 220.482C69.6019 220.482 69.7839 220.505 69.9426 220.552C70.1013 220.589 70.2786 220.65 70.4746 220.734ZM77.3073 224.248C77.3073 225.069 77.1673 225.765 76.8873 226.334C76.6166 226.894 76.2386 227.314 75.7533 227.594C75.2679 227.874 74.7219 228.014 74.1153 228.014C73.1539 228.014 72.3793 227.692 71.7913 227.048C71.2126 226.404 70.9233 225.471 70.9233 224.248C70.9233 223.025 71.2126 222.097 71.7913 221.462C72.3793 220.818 73.1539 220.496 74.1153 220.496C74.7313 220.496 75.2773 220.636 75.7533 220.916C76.2386 221.196 76.6166 221.616 76.8873 222.176C77.1673 222.736 77.3073 223.427 77.3073 224.248ZM75.4873 224.248C75.4873 223.548 75.3659 223.016 75.1233 222.652C74.8806 222.279 74.5446 222.092 74.1153 222.092C73.6766 222.092 73.3359 222.274 73.0933 222.638C72.8599 223.002 72.7433 223.539 72.7433 224.248C72.7433 224.957 72.8599 225.499 73.0933 225.872C73.3359 226.236 73.6766 226.418 74.1153 226.418C74.5446 226.418 74.8806 226.231 75.1233 225.858C75.3659 225.485 75.4873 224.948 75.4873 224.248ZM86.5558 220.622C86.8451 220.622 86.9758 220.762 86.9478 221.042C86.8731 221.919 86.7145 222.909 86.4718 224.01C86.2385 225.111 85.9351 226.189 85.5618 227.244C85.4778 227.496 85.3798 227.669 85.2678 227.762C85.1558 227.846 84.9785 227.888 84.7358 227.888H83.3778L82.5238 223.73C82.1971 225.289 81.8798 226.474 81.5718 227.286C81.4785 227.51 81.3665 227.669 81.2358 227.762C81.1051 227.846 80.9138 227.888 80.6618 227.888H79.3598L77.7078 220.622H79.1078C79.4065 220.622 79.5838 220.748 79.6398 221L80.5498 225.69C80.9511 224.561 81.2498 223.189 81.4458 221.574H82.9438C83.1025 221.574 83.2191 221.602 83.2938 221.658C83.3778 221.714 83.4385 221.807 83.4758 221.938L84.3438 225.69C84.7545 224.29 85.0485 222.601 85.2258 220.622H86.5558ZM98.155 219.88H95.509V226.726C95.509 227.118 95.4203 227.403 95.243 227.58C95.075 227.748 94.753 227.832 94.277 227.832H93.689V219.88H91.519C91.1923 219.88 91.029 219.726 91.029 219.418V218.186H97.665C97.9917 218.186 98.155 218.345 98.155 218.662V219.88ZM104.419 224.248C104.419 225.069 104.279 225.765 103.999 226.334C103.728 226.894 103.35 227.314 102.865 227.594C102.379 227.874 101.833 228.014 101.227 228.014C100.265 228.014 99.4906 227.692 98.9026 227.048C98.3239 226.404 98.0346 225.471 98.0346 224.248C98.0346 223.025 98.3239 222.097 98.9026 221.462C99.4906 220.818 100.265 220.496 101.227 220.496C101.843 220.496 102.389 220.636 102.865 220.916C103.35 221.196 103.728 221.616 103.999 222.176C104.279 222.736 104.419 223.427 104.419 224.248ZM102.599 224.248C102.599 223.548 102.477 223.016 102.235 222.652C101.992 222.279 101.656 222.092 101.227 222.092C100.788 222.092 100.447 222.274 100.205 222.638C99.9713 223.002 99.8546 223.539 99.8546 224.248C99.8546 224.957 99.9713 225.499 100.205 225.872C100.447 226.236 100.788 226.418 101.227 226.418C101.656 226.418 101.992 226.231 102.235 225.858C102.477 225.485 102.599 224.948 102.599 224.248ZM111.344 221.77C111.129 221.677 110.914 221.63 110.7 221.63C110.606 221.63 110.536 221.635 110.49 221.644C110.779 222.036 110.924 222.498 110.924 223.03C110.924 223.767 110.653 224.346 110.112 224.766C109.57 225.186 108.875 225.396 108.026 225.396C107.886 225.396 107.783 225.391 107.718 225.382C107.503 225.485 107.396 225.615 107.396 225.774C107.396 225.951 107.494 226.087 107.69 226.18C107.886 226.264 108.254 226.315 108.796 226.334C109.608 226.362 110.242 226.591 110.7 227.02C111.157 227.44 111.386 227.991 111.386 228.672C111.386 229.428 111.115 230.016 110.574 230.436C110.032 230.856 109.239 231.066 108.194 231.066C107.148 231.066 106.346 230.879 105.786 230.506C105.235 230.133 104.96 229.619 104.96 228.966C104.96 228.583 105.048 228.233 105.226 227.916C105.412 227.599 105.688 227.337 106.052 227.132C105.809 226.861 105.688 226.535 105.688 226.152C105.688 225.667 105.907 225.284 106.346 225.004C105.982 224.808 105.697 224.542 105.492 224.206C105.286 223.87 105.184 223.478 105.184 223.03C105.184 222.283 105.45 221.686 105.982 221.238C106.514 220.79 107.195 220.566 108.026 220.566C108.548 220.566 109.024 220.659 109.454 220.846C109.808 220.491 110.252 220.314 110.784 220.314C111.036 220.314 111.269 220.361 111.484 220.454C111.605 220.51 111.666 220.599 111.666 220.72C111.666 220.739 111.656 220.785 111.638 220.86L111.344 221.77ZM108.054 224.024C108.436 224.024 108.73 223.935 108.936 223.758C109.15 223.571 109.258 223.329 109.258 223.03C109.258 222.713 109.15 222.451 108.936 222.246C108.73 222.041 108.436 221.938 108.054 221.938C107.671 221.938 107.372 222.041 107.158 222.246C106.952 222.451 106.85 222.713 106.85 223.03C106.85 223.329 106.952 223.571 107.158 223.758C107.372 223.935 107.671 224.024 108.054 224.024ZM109.692 228.798C109.692 228.471 109.552 228.21 109.272 228.014C108.992 227.818 108.548 227.72 107.942 227.72C107.792 227.72 107.596 227.711 107.354 227.692C107.102 227.813 106.915 227.963 106.794 228.14C106.672 228.317 106.612 228.504 106.612 228.7C106.612 229.027 106.733 229.269 106.976 229.428C107.228 229.596 107.634 229.68 108.194 229.68C108.707 229.68 109.085 229.605 109.328 229.456C109.57 229.316 109.692 229.097 109.692 228.798ZM117.567 227.706C117.259 227.827 116.965 227.911 116.685 227.958C116.405 227.995 116.088 228.014 115.733 228.014C114.557 228.014 113.624 227.725 112.933 227.146C112.243 226.558 111.897 225.597 111.897 224.262C111.897 223.422 112.037 222.722 112.317 222.162C112.597 221.593 112.975 221.173 113.451 220.902C113.927 220.631 114.469 220.496 115.075 220.496C115.589 220.496 116.055 220.603 116.475 220.818C116.905 221.033 117.241 221.341 117.483 221.742C117.726 222.143 117.847 222.61 117.847 223.142C117.847 223.73 117.689 224.187 117.371 224.514C117.054 224.831 116.541 224.999 115.831 225.018L113.703 225.074C113.703 225.475 113.895 225.807 114.277 226.068C114.66 226.32 115.15 226.446 115.747 226.446C116.391 226.446 116.989 226.348 117.539 226.152L117.791 227.314C117.801 227.342 117.805 227.379 117.805 227.426C117.805 227.547 117.726 227.641 117.567 227.706ZM116.237 223.044C116.237 222.755 116.135 222.512 115.929 222.316C115.724 222.111 115.449 222.008 115.103 222.008C114.665 222.008 114.319 222.153 114.067 222.442C113.825 222.731 113.703 223.142 113.703 223.674L115.677 223.646C115.864 223.646 116.004 223.599 116.097 223.506C116.191 223.403 116.237 223.249 116.237 223.044ZM123.288 227.174C123.316 227.23 123.33 227.286 123.33 227.342C123.33 227.482 123.242 227.594 123.064 227.678C122.7 227.874 122.257 227.972 121.734 227.972C121.034 227.972 120.479 227.795 120.068 227.44C119.667 227.076 119.466 226.521 119.466 225.774V222.232H118.738C118.44 222.232 118.29 222.087 118.29 221.798V220.566H119.466V218.368H120.838C121.137 218.368 121.286 218.517 121.286 218.816V220.566H122.378C122.686 220.566 122.84 220.715 122.84 221.014V222.232H121.286V225.354C121.286 225.662 121.338 225.881 121.44 226.012C121.552 226.133 121.73 226.194 121.972 226.194C122.234 226.194 122.514 226.119 122.812 225.97L123.288 227.174ZM127.668 220.412C128.331 220.412 128.877 220.641 129.306 221.098C129.745 221.546 129.964 222.185 129.964 223.016V226.74C129.964 227.132 129.876 227.412 129.698 227.58C129.521 227.739 129.185 227.818 128.69 227.818H128.144V223.366C128.144 222.946 128.046 222.633 127.85 222.428C127.664 222.223 127.398 222.12 127.052 222.12C126.828 222.12 126.618 222.176 126.422 222.288C126.236 222.391 126.091 222.531 125.988 222.708V226.74C125.988 227.132 125.904 227.412 125.736 227.58C125.568 227.739 125.237 227.818 124.742 227.818H124.168V217.668H125.54C125.839 217.668 125.988 217.817 125.988 218.116V221.112C126.492 220.645 127.052 220.412 127.668 220.412ZM136.708 227.706C136.4 227.827 136.106 227.911 135.826 227.958C135.546 227.995 135.229 228.014 134.874 228.014C133.698 228.014 132.765 227.725 132.074 227.146C131.383 226.558 131.038 225.597 131.038 224.262C131.038 223.422 131.178 222.722 131.458 222.162C131.738 221.593 132.116 221.173 132.592 220.902C133.068 220.631 133.609 220.496 134.216 220.496C134.729 220.496 135.196 220.603 135.616 220.818C136.045 221.033 136.381 221.341 136.624 221.742C136.867 222.143 136.988 222.61 136.988 223.142C136.988 223.73 136.829 224.187 136.512 224.514C136.195 224.831 135.681 224.999 134.972 225.018L132.844 225.074C132.844 225.475 133.035 225.807 133.418 226.068C133.801 226.32 134.291 226.446 134.888 226.446C135.532 226.446 136.129 226.348 136.68 226.152L136.932 227.314C136.941 227.342 136.946 227.379 136.946 227.426C136.946 227.547 136.867 227.641 136.708 227.706ZM135.378 223.044C135.378 222.755 135.275 222.512 135.07 222.316C134.865 222.111 134.589 222.008 134.244 222.008C133.805 222.008 133.46 222.153 133.208 222.442C132.965 222.731 132.844 223.142 132.844 223.674L134.818 223.646C135.005 223.646 135.145 223.599 135.238 223.506C135.331 223.403 135.378 223.249 135.378 223.044ZM142.73 220.734C142.861 220.799 142.926 220.893 142.926 221.014C142.926 221.051 142.917 221.098 142.898 221.154L142.478 222.442C142.198 222.311 141.89 222.246 141.554 222.246C140.966 222.246 140.472 222.535 140.07 223.114V226.796C140.07 227.197 139.982 227.482 139.804 227.65C139.636 227.809 139.3 227.888 138.796 227.888H138.25V220.622H139.412C139.72 220.622 139.874 220.767 139.874 221.056V221.476C140.117 221.14 140.397 220.893 140.714 220.734C141.032 220.566 141.344 220.482 141.652 220.482C141.858 220.482 142.04 220.505 142.198 220.552C142.357 220.589 142.534 220.65 142.73 220.734ZM145.105 218.312C145.422 218.312 145.581 218.466 145.581 218.774L145.539 224.248C145.539 224.668 145.459 224.962 145.301 225.13C145.151 225.298 144.862 225.377 144.433 225.368L143.831 225.354L143.761 218.312H145.105ZM144.657 227.958C144.339 227.958 144.097 227.883 143.929 227.734C143.77 227.585 143.691 227.375 143.691 227.104C143.691 226.833 143.779 226.605 143.957 226.418C144.134 226.222 144.367 226.124 144.657 226.124C144.946 226.124 145.179 226.222 145.357 226.418C145.534 226.605 145.623 226.833 145.623 227.104C145.623 227.375 145.539 227.585 145.371 227.734C145.212 227.883 144.974 227.958 144.657 227.958Z" fill="#333333"/>
<path d="M5 0.5H165C167.485 0.500003 169.5 2.51472 169.5 5V21.5H0.5V5C0.5 2.51472 2.51472 0.5 5 0.5Z" fill="#B3E7F6"/>
<path d="M5 0.5H165C167.485 0.500003 169.5 2.51472 169.5 5V21.5H0.5V5C0.5 2.51472 2.51472 0.5 5 0.5Z" stroke="#3C5E9B"/>
<line x1="31.5" y1="15.5" x2="23.5" y2="15.5" stroke="#3C5E9B" stroke-linecap="round"/>
<rect x="38.5" y="7.5" width="8" height="8" stroke="#3C5E9B"/>
<path d="M13 11L17 15M13 11L9 7M13 11L9 15M13 11L17 7" stroke="#3C5E9B" stroke-linecap="round" stroke-linejoin="round"/>
<line x1="57.45" y1="6.55" x2="159.55" y2="6.55" stroke="#90C3EB" stroke-width="0.9" stroke-linecap="round"/>
<line x1="57.45" y1="11.05" x2="159.55" y2="11.05" stroke="#90C3EB" stroke-width="0.9" stroke-linecap="round"/>
<line x1="57.45" y1="15.55" x2="159.55" y2="15.55" stroke="#90C3EB" stroke-width="0.9" stroke-linecap="round"/>
<mask id="path-12-inside-1_137_515" fill="white">
<path d="M13 84H158V104H13V84Z"/>
</mask>
<path d="M13 104V104.5H14.0069V104V103.5H13V104ZM16.0208 104V104.5H18.0347V104V103.5H16.0208V104ZM20.0486 104V104.5H22.0625V104V103.5H20.0486V104ZM24.0764 104V104.5H26.0903V104V103.5H24.0764V104ZM28.1042 104V104.5H30.1181V104V103.5H28.1042V104ZM32.1319 104V104.5H34.1458V104V103.5H32.1319V104ZM36.1597 104V104.5H38.1736V104V103.5H36.1597V104ZM40.1875 104V104.5H42.2014V104V103.5H40.1875V104ZM44.2153 104V104.5H46.2292V104V103.5H44.2153V104ZM48.2431 104V104.5H50.2569V104V103.5H48.2431V104ZM52.2708 104V104.5H54.2847V104V103.5H52.2708V104ZM56.2986 104V104.5H58.3125V104V103.5H56.2986V104ZM60.3264 104V104.5H62.3403V104V103.5H60.3264V104ZM64.3542 104V104.5H66.3681V104V103.5H64.3542V104ZM68.382 104V104.5H70.3958V104V103.5H68.382V104ZM72.4097 104V104.5H74.4236V104V103.5H72.4097V104ZM76.4375 104V104.5H78.4514V104V103.5H76.4375V104ZM80.4653 104V104.5H82.4792V104V103.5H80.4653V104ZM84.4931 104V104.5H86.5069V104V103.5H84.4931V104ZM88.5208 104V104.5H90.5347V104V103.5H88.5208V104ZM92.5486 104V104.5H94.5625V104V103.5H92.5486V104ZM96.5764 104V104.5H98.5903V104V103.5H96.5764V104ZM100.604 104V104.5H102.618V104V103.5H100.604V104ZM104.632 104V104.5H106.646V104V103.5H104.632V104ZM108.66 104V104.5H110.674V104V103.5H108.66V104ZM112.687 104V104.5H114.701V104V103.5H112.687V104ZM116.715 104V104.5H118.729V104V103.5H116.715V104ZM120.743 104V104.5H122.757V104V103.5H120.743V104ZM124.771 104V104.5H126.785V104V103.5H124.771V104ZM128.799 104V104.5H130.812V104V103.5H128.799V104ZM132.826 104V104.5H134.84V104V103.5H132.826V104ZM136.854 104V104.5H138.868V104V103.5H136.854V104ZM140.882 104V104.5H142.896V104V103.5H140.882V104ZM144.91 104V104.5H146.924V104V103.5H144.91V104ZM148.937 104V104.5H150.951V104V103.5H148.937V104ZM152.965 104V104.5H154.979V104V103.5H152.965V104ZM156.993 104V104.5H158V104V103.5H156.993V104ZM13 104V105H14.0069V104V103H13V104ZM16.0208 104V105H18.0347V104V103H16.0208V104ZM20.0486 104V105H22.0625V104V103H20.0486V104ZM24.0764 104V105H26.0903V104V103H24.0764V104ZM28.1042 104V105H30.1181V104V103H28.1042V104ZM32.1319 104V105H34.1458V104V103H32.1319V104ZM36.1597 104V105H38.1736V104V103H36.1597V104ZM40.1875 104V105H42.2014V104V103H40.1875V104ZM44.2153 104V105H46.2292V104V103H44.2153V104ZM48.2431 104V105H50.2569V104V103H48.2431V104ZM52.2708 104V105H54.2847V104V103H52.2708V104ZM56.2986 104V105H58.3125V104V103H56.2986V104ZM60.3264 104V105H62.3403V104V103H60.3264V104ZM64.3542 104V105H66.3681V104V103H64.3542V104ZM68.382 104V105H70.3958V104V103H68.382V104ZM72.4097 104V105H74.4236V104V103H72.4097V104ZM76.4375 104V105H78.4514V104V103H76.4375V104ZM80.4653 104V105H82.4792V104V103H80.4653V104ZM84.4931 104V105H86.5069V104V103H84.4931V104ZM88.5208 104V105H90.5347V104V103H88.5208V104ZM92.5486 104V105H94.5625V104V103H92.5486V104ZM96.5764 104V105H98.5903V104V103H96.5764V104ZM100.604 104V105H102.618V104V103H100.604V104ZM104.632 104V105H106.646V104V103H104.632V104ZM108.66 104V105H110.674V104V103H108.66V104ZM112.687 104V105H114.701V104V103H112.687V104ZM116.715 104V105H118.729V104V103H116.715V104ZM120.743 104V105H122.757V104V103H120.743V104ZM124.771 104V105H126.785V104V103H124.771V104ZM128.799 104V105H130.812V104V103H128.799V104ZM132.826 104V105H134.84V104V103H132.826V104ZM136.854 104V105H138.868V104V103H136.854V104ZM140.882 104V105H142.896V104V103H140.882V104ZM144.91 104V105H146.924V104V103H144.91V104ZM148.937 104V105H150.951V104V103H148.937V104ZM152.965 104V105H154.979V104V103H152.965V104ZM156.993 104V105H158V104V103H156.993V104Z" fill="#E5E5E5" mask="url(#path-12-inside-1_137_515)"/>
<path d="M27.9785 88.5312V92.9727H29.6426V93.7461H27.9785V98.9492H27.0527V88.5312H27.9785ZM19.7637 96.1719C20.6133 96.1719 21.6035 96.1719 22.6348 96.1367V94.9766C21.4219 94.8418 20.6309 94.1328 20.6426 93.1016C20.6309 91.9297 21.627 91.168 23.1035 91.168C24.5566 91.168 25.5645 91.9297 25.5762 93.1016C25.5645 94.1328 24.7617 94.8418 23.5605 94.9883V96.1016C24.5332 96.0547 25.5117 95.9785 26.4199 95.8438L26.4785 96.5469C24.2051 96.9336 21.7441 96.957 19.916 96.957L19.7637 96.1719ZM26.2324 89.8086V90.5586H19.9512V89.8086H22.6348V88.5547H23.5605V89.8086H26.2324ZM23.1035 91.8828C22.1426 91.8828 21.498 92.375 21.498 93.1016C21.498 93.8281 22.1426 94.2969 23.1035 94.2852C24.0527 94.2969 24.6973 93.8281 24.6973 93.1016C24.6973 92.375 24.0527 91.8828 23.1035 91.8828ZM39.791 94.0508V94.8008H35.5488V96.8398H34.6348V94.8008H30.252V94.0508H39.791ZM38.7246 97.9531V98.7266H31.4707V95.8789H32.3848V97.9531H38.7246ZM32.4434 88.8711V90.207H37.5996V88.8711H38.5137V93.0312H31.5293V88.8711H32.4434ZM32.4434 92.2812H37.5996V90.9102H32.4434V92.2812ZM49.5645 88.5312V98.9492H48.6738V88.5312H49.5645ZM47.4668 88.7539V98.4219H46.5879V93.3594H45.252C45.1523 95.3867 44.291 96.6523 43.002 96.6523C41.6426 96.6523 40.7637 95.2461 40.7637 93.0312C40.7637 90.8164 41.6426 89.4102 43.002 89.4102C44.2676 89.4102 45.123 90.6348 45.2402 92.5977H46.5879V88.7539H47.4668ZM43.002 90.2773C42.1582 90.2773 41.6191 91.332 41.6309 93.0312C41.6191 94.7188 42.1582 95.7852 43.002 95.7734C43.8457 95.7852 44.3848 94.7188 44.3848 93.0312C44.3848 91.332 43.8457 90.2773 43.002 90.2773ZM57.5449 95.5273C57.5449 96.4473 58.0371 97.4258 59.0332 97.9883C60.0176 97.373 60.5449 96.3359 60.5449 95.5273V94.9531H61.4473V95.5273C61.4473 96.5938 62.2324 97.6719 63.5684 98.1289L63.1113 98.8086C62.0684 98.4395 61.3359 97.7129 60.9785 96.8398C60.6562 97.6836 60.0176 98.4805 59.0566 98.8906C58.043 98.5039 57.3984 97.7363 57.0879 96.8633C56.7188 97.707 55.998 98.4336 55.002 98.8086L54.5332 98.1289C55.8457 97.6367 56.6426 96.5234 56.6543 95.5273V94.9531H57.5449V95.5273ZM62.6191 88.543V94.4961H61.7051V88.543H62.6191ZM56.9941 89.1523C58.5762 89.1523 59.7246 90.1367 59.7246 91.5898C59.7246 93.0195 58.5762 94.0039 56.9941 94.0039C55.4121 94.0039 54.2637 93.0195 54.2637 91.5898C54.2637 90.1367 55.4121 89.1523 56.9941 89.1523ZM56.9941 89.9375C55.9277 89.9258 55.1543 90.6172 55.166 91.5898C55.1543 92.5508 55.9277 93.2305 56.9941 93.2422C58.0488 93.2305 58.8223 92.5508 58.8223 91.5898C58.8223 90.6172 58.0488 89.9258 56.9941 89.9375ZM72.8145 91.6953V92.4336H65.6777V88.918H66.5918V91.6953H72.8145ZM73.916 93.8516V94.6016H64.377V93.8516H73.916ZM72.873 97.9297V98.6914H65.6191V95.668H66.5332V97.9297H72.873ZM81.3223 95.2461H82.5879L83.4082 96.3008C83.9648 95.7734 84.3105 94.918 84.3105 93.7578C84.3105 91.6953 83.2207 90.582 81.7676 90.582C80.3027 90.582 79.2129 91.6953 79.2129 93.7578C79.2129 95.8203 80.3027 96.9336 81.7676 96.9336C82.0371 96.9336 82.2891 96.8984 82.5293 96.8164L81.3223 95.2461ZM85.5879 93.7578C85.5879 95.3164 85.0488 96.5293 84.1699 97.2734L85.3184 98.7617H83.9941L83.2793 97.8242C82.8223 98.0176 82.3125 98.1172 81.7676 98.1172C79.5527 98.1172 77.9355 96.4648 77.9355 93.7578C77.9355 91.0391 79.5527 89.3984 81.7676 89.3984C83.959 89.3984 85.5879 91.0391 85.5879 93.7578ZM87.041 98V89.5156H90.0645C92.0332 89.5156 93.0059 90.6172 93.0059 92.1758C93.0059 93.3184 92.4902 94.1855 91.459 94.5664L93.334 98H91.8691L90.1465 94.8008H90.0645H88.3301V98H87.041ZM88.3301 93.6875H89.9355C91.1895 93.6875 91.7051 93.1367 91.7051 92.1758C91.7051 91.2148 91.1895 90.6172 89.9355 90.6172H88.3301V93.6875ZM98.7363 88.7188C101.057 88.7188 102.416 89.3516 102.416 90.5117C102.416 91.6953 101.057 92.3281 98.7363 92.3398C96.416 92.3281 95.0449 91.6953 95.0449 90.5117C95.0449 89.3516 96.416 88.7188 98.7363 88.7188ZM98.7363 89.4102C97.002 89.4102 95.9941 89.832 96.0059 90.5117C95.9941 91.2383 97.002 91.6367 98.7363 91.6367C100.459 91.6367 101.479 91.2383 101.479 90.5117C101.479 89.832 100.459 89.4102 98.7363 89.4102ZM103.482 93.043V93.793H93.9902V93.043H103.482ZM102.264 94.6953V97.0273H96.0762V98.1055H102.58V98.832H95.1621V96.3477H101.361V95.3984H95.1387V94.6953H102.264ZM112.564 90.0664C112.564 91.8477 114.604 93.4414 116.42 93.7812L115.998 94.5547C114.428 94.1914 112.77 93.0723 112.096 91.5312C111.422 93.0664 109.77 94.1855 108.193 94.5547L107.771 93.7812C109.576 93.4297 111.604 91.8594 111.604 90.0664V89.2695H112.564V90.0664ZM116.912 96.7695V97.5312H107.373V96.7695H116.912ZM126.592 88.543V96.3711H125.713V92.5391H124.295V96.0312H123.416V88.7422H124.295V91.7656H125.713V88.543H126.592ZM126.92 97.9531V98.7266H119.736V95.4219H120.65V97.9531H126.92ZM122.396 89.4336C122.396 91.9648 121.236 93.9922 118.307 95.2109L117.85 94.543C119.379 93.916 120.375 93.0781 120.932 92.0586L117.979 92.3867L117.826 91.6016L121.236 91.3789C121.371 91.0039 121.447 90.6055 121.482 90.1953H118.33V89.4336H122.396ZM136.178 88.5312V92.832H137.924V93.5938H136.178V98.9492H135.264V88.5312H136.178ZM134.256 90.207V90.9688H128.057V90.207H130.74V88.6602H131.654V90.207H134.256ZM131.209 91.8359C132.686 91.8359 133.752 92.8203 133.764 94.2266C133.752 95.6328 132.686 96.6172 131.209 96.6172C129.721 96.6172 128.643 95.6328 128.654 94.2266C128.643 92.8203 129.721 91.8359 131.209 91.8359ZM131.209 92.6094C130.236 92.6094 129.521 93.2891 129.533 94.2266C129.521 95.1758 130.236 95.8438 131.209 95.832C132.17 95.8438 132.873 95.1758 132.885 94.2266C132.873 93.2891 132.17 92.6094 131.209 92.6094ZM143.76 89.4453V90.3711H146.197V88.543H147.123V96.1484H146.197V93.3711H143.76V94.3086H138.979V89.4453H143.76ZM139.893 90.207V93.5703H142.857V90.207H139.893ZM147.357 97.9531V98.7266H140.385V95.4688H141.311V97.9531H147.357ZM143.76 92.6094H146.197V91.1445H143.76V92.6094ZM150.568 97.2148L149.654 100.402H148.787L149.432 97.2148H150.568Z" fill="#333333"/>
<mask id="path-15-inside-2_137_515" fill="white">
<path d="M13 109H158V129H13V109Z"/>
</mask>
<path d="M13 129V129.5H14.0069V129V128.5H13V129ZM16.0208 129V129.5H18.0347V129V128.5H16.0208V129ZM20.0486 129V129.5H22.0625V129V128.5H20.0486V129ZM24.0764 129V129.5H26.0903V129V128.5H24.0764V129ZM28.1042 129V129.5H30.1181V129V128.5H28.1042V129ZM32.1319 129V129.5H34.1458V129V128.5H32.1319V129ZM36.1597 129V129.5H38.1736V129V128.5H36.1597V129ZM40.1875 129V129.5H42.2014V129V128.5H40.1875V129ZM44.2153 129V129.5H46.2292V129V128.5H44.2153V129ZM48.2431 129V129.5H50.2569V129V128.5H48.2431V129ZM52.2708 129V129.5H54.2847V129V128.5H52.2708V129ZM56.2986 129V129.5H58.3125V129V128.5H56.2986V129ZM60.3264 129V129.5H62.3403V129V128.5H60.3264V129ZM64.3542 129V129.5H66.3681V129V128.5H64.3542V129ZM68.382 129V129.5H70.3958V129V128.5H68.382V129ZM72.4097 129V129.5H74.4236V129V128.5H72.4097V129ZM76.4375 129V129.5H78.4514V129V128.5H76.4375V129ZM80.4653 129V129.5H82.4792V129V128.5H80.4653V129ZM84.4931 129V129.5H86.5069V129V128.5H84.4931V129ZM88.5208 129V129.5H90.5347V129V128.5H88.5208V129ZM92.5486 129V129.5H94.5625V129V128.5H92.5486V129ZM96.5764 129V129.5H98.5903V129V128.5H96.5764V129ZM100.604 129V129.5H102.618V129V128.5H100.604V129ZM104.632 129V129.5H106.646V129V128.5H104.632V129ZM108.66 129V129.5H110.674V129V128.5H108.66V129ZM112.687 129V129.5H114.701V129V128.5H112.687V129ZM116.715 129V129.5H118.729V129V128.5H116.715V129ZM120.743 129V129.5H122.757V129V128.5H120.743V129ZM124.771 129V129.5H126.785V129V128.5H124.771V129ZM128.799 129V129.5H130.812V129V128.5H128.799V129ZM132.826 129V129.5H134.84V129V128.5H132.826V129ZM136.854 129V129.5H138.868V129V128.5H136.854V129ZM140.882 129V129.5H142.896V129V128.5H140.882V129ZM144.91 129V129.5H146.924V129V128.5H144.91V129ZM148.937 129V129.5H150.951V129V128.5H148.937V129ZM152.965 129V129.5H154.979V129V128.5H152.965V129ZM156.993 129V129.5H158V129V128.5H156.993V129ZM13 129V130H14.0069V129V128H13V129ZM16.0208 129V130H18.0347V129V128H16.0208V129ZM20.0486 129V130H22.0625V129V128H20.0486V129ZM24.0764 129V130H26.0903V129V128H24.0764V129ZM28.1042 129V130H30.1181V129V128H28.1042V129ZM32.1319 129V130H34.1458V129V128H32.1319V129ZM36.1597 129V130H38.1736V129V128H36.1597V129ZM40.1875 129V130H42.2014V129V128H40.1875V129ZM44.2153 129V130H46.2292V129V128H44.2153V129ZM48.2431 129V130H50.2569V129V128H48.2431V129ZM52.2708 129V130H54.2847V129V128H52.2708V129ZM56.2986 129V130H58.3125V129V128H56.2986V129ZM60.3264 129V130H62.3403V129V128H60.3264V129ZM64.3542 129V130H66.3681V129V128H64.3542V129ZM68.382 129V130H70.3958V129V128H68.382V129ZM72.4097 129V130H74.4236V129V128H72.4097V129ZM76.4375 129V130H78.4514V129V128H76.4375V129ZM80.4653 129V130H82.4792V129V128H80.4653V129ZM84.4931 129V130H86.5069V129V128H84.4931V129ZM88.5208 129V130H90.5347V129V128H88.5208V129ZM92.5486 129V130H94.5625V129V128H92.5486V129ZM96.5764 129V130H98.5903V129V128H96.5764V129ZM100.604 129V130H102.618V129V128H100.604V129ZM104.632 129V130H106.646V129V128H104.632V129ZM108.66 129V130H110.674V129V128H108.66V129ZM112.687 129V130H114.701V129V128H112.687V129ZM116.715 129V130H118.729V129V128H116.715V129ZM120.743 129V130H122.757V129V128H120.743V129ZM124.771 129V130H126.785V129V128H124.771V129ZM128.799 129V130H130.812V129V128H128.799V129ZM132.826 129V130H134.84V129V128H132.826V129ZM136.854 129V130H138.868V129V128H136.854V129ZM140.882 129V130H142.896V129V128H140.882V129ZM144.91 129V130H146.924V129V128H144.91V129ZM148.937 129V130H150.951V129V128H148.937V129ZM152.965 129V130H154.979V129V128H152.965V129ZM156.993 129V130H158V129V128H156.993V129Z" fill="#E5E5E5" mask="url(#path-15-inside-2_137_515)"/>
<path d="M42.3984 123V114.516H45.2812C47.2734 114.516 48.1758 115.699 48.1758 117.211C48.1758 118.711 47.2734 119.918 45.293 119.918H43.4531V123H42.3984ZM43.4531 118.98H45.2461C46.5938 118.98 47.1328 118.219 47.1328 117.211C47.1328 116.191 46.5938 115.453 45.2344 115.453H43.4531V118.98ZM52.125 123.129C50.2852 123.129 49.1484 121.828 49.1484 119.871C49.1484 117.914 50.2969 116.555 52.0312 116.555C53.3672 116.555 54.7734 117.375 54.7734 119.73V120.152H50.1562C50.2031 121.5 50.9883 122.238 52.125 122.238C52.8867 122.238 53.3672 121.91 53.6016 121.512H54.6797C54.375 122.473 53.4375 123.129 52.125 123.129ZM50.168 119.297H53.7539C53.7539 118.23 53.0742 117.445 52.0312 117.445C50.9297 117.445 50.2266 118.312 50.168 119.297ZM56.2148 123V114.516H57.2695V118.711H57.375L61.1484 114.516H62.5312L58.9805 118.348L62.5312 123H61.2422L58.3242 119.074L57.2695 120.27V123H56.2148ZM70.4297 118.758C70.4297 121.441 68.8477 123.117 66.6797 123.117C64.5 123.117 62.9297 121.441 62.9297 118.758C62.9297 116.074 64.5 114.398 66.6797 114.398C68.8477 114.398 70.4297 116.074 70.4297 118.758ZM69.4102 118.758C69.4102 116.566 68.2148 115.383 66.6797 115.383C65.1445 115.383 63.9492 116.566 63.9492 118.758C63.9492 120.949 65.1445 122.133 66.6797 122.133C68.2148 122.133 69.4102 120.949 69.4102 118.758ZM74.6016 114.211C76.207 114.223 77.3672 115.207 77.3789 116.66C77.3672 117.967 76.4297 118.898 75.0703 119.062V120.844C76.043 120.797 77.0215 120.727 77.9297 120.609L77.9883 121.301C75.7852 121.676 73.3125 121.699 71.4844 121.688L71.332 120.914C72.1699 120.908 73.1426 120.902 74.1445 120.867V119.062C72.7617 118.904 71.8125 117.973 71.8242 116.66C71.8125 115.207 72.9727 114.223 74.6016 114.211ZM74.6016 115.008C73.5117 115.008 72.7148 115.688 72.7266 116.66C72.7148 117.633 73.5117 118.312 74.6016 118.312C75.6797 118.312 76.4648 117.633 76.4766 116.66C76.4648 115.688 75.6797 115.008 74.6016 115.008ZM79.5117 113.531V117.832H81.2109V118.629H79.5117V123.949H78.5977V113.531H79.5117ZM85.3594 123V114.516H86.4141V118.711H86.5195L90.293 114.516H91.6758L88.125 118.348L91.6758 123H90.3867L87.4688 119.074L86.4141 120.27V123H85.3594ZM99.5742 118.758C99.5742 121.441 97.9922 123.117 95.8242 123.117C93.6445 123.117 92.0742 121.441 92.0742 118.758C92.0742 116.074 93.6445 114.398 95.8242 114.398C97.9922 114.398 99.5742 116.074 99.5742 118.758ZM98.5547 118.758C98.5547 116.566 97.3594 115.383 95.8242 115.383C94.2891 115.383 93.0938 116.566 93.0938 118.758C93.0938 120.949 94.2891 122.133 95.8242 122.133C97.3594 122.133 98.5547 120.949 98.5547 118.758ZM102.176 114.516V123H101.121V114.516H102.176ZM109.84 117.188C109.594 116.016 108.586 115.383 107.473 115.383C105.938 115.383 104.742 116.566 104.742 118.758C104.742 120.949 105.938 122.133 107.473 122.133C108.586 122.133 109.582 121.5 109.84 120.34H110.895C110.59 122.074 109.195 123.117 107.473 123.117C105.293 123.117 103.723 121.441 103.723 118.758C103.723 116.074 105.293 114.398 107.473 114.398C109.184 114.398 110.578 115.43 110.895 117.188H109.84ZM112.734 123H111.633L114.738 114.516H115.852L118.957 123H117.844L117 120.609H113.59L112.734 123ZM113.906 119.684H116.672L115.324 115.887H115.254L113.906 119.684ZM123 114.293C124.641 114.293 125.801 115.289 125.801 116.742C125.801 118.195 124.641 119.191 123 119.191C121.359 119.191 120.176 118.195 120.188 116.742C120.176 115.289 121.359 114.293 123 114.293ZM123 115.102C121.887 115.102 121.078 115.77 121.09 116.742C121.078 117.715 121.887 118.383 123 118.383C124.102 118.383 124.898 117.715 124.898 116.742C124.898 115.77 124.102 115.102 123 115.102ZM128.133 113.531V123.973H127.219V113.531H128.133ZM119.648 120.891C121.57 120.891 124.219 120.879 126.527 120.539L126.598 121.219C124.219 121.664 121.652 121.676 119.777 121.676L119.648 120.891Z" fill="#333333"/>
<mask id="path-18-inside-3_137_515" fill="white">
<path d="M13 134H158V154H13V134Z"/>
</mask>
<path d="M13 154V154.5H14.0069V154V153.5H13V154ZM16.0208 154V154.5H18.0347V154V153.5H16.0208V154ZM20.0486 154V154.5H22.0625V154V153.5H20.0486V154ZM24.0764 154V154.5H26.0903V154V153.5H24.0764V154ZM28.1042 154V154.5H30.1181V154V153.5H28.1042V154ZM32.1319 154V154.5H34.1458V154V153.5H32.1319V154ZM36.1597 154V154.5H38.1736V154V153.5H36.1597V154ZM40.1875 154V154.5H42.2014V154V153.5H40.1875V154ZM44.2153 154V154.5H46.2292V154V153.5H44.2153V154ZM48.2431 154V154.5H50.2569V154V153.5H48.2431V154ZM52.2708 154V154.5H54.2847V154V153.5H52.2708V154ZM56.2986 154V154.5H58.3125V154V153.5H56.2986V154ZM60.3264 154V154.5H62.3403V154V153.5H60.3264V154ZM64.3542 154V154.5H66.3681V154V153.5H64.3542V154ZM68.382 154V154.5H70.3958V154V153.5H68.382V154ZM72.4097 154V154.5H74.4236V154V153.5H72.4097V154ZM76.4375 154V154.5H78.4514V154V153.5H76.4375V154ZM80.4653 154V154.5H82.4792V154V153.5H80.4653V154ZM84.4931 154V154.5H86.5069V154V153.5H84.4931V154ZM88.5208 154V154.5H90.5347V154V153.5H88.5208V154ZM92.5486 154V154.5H94.5625V154V153.5H92.5486V154ZM96.5764 154V154.5H98.5903V154V153.5H96.5764V154ZM100.604 154V154.5H102.618V154V153.5H100.604V154ZM104.632 154V154.5H106.646V154V153.5H104.632V154ZM108.66 154V154.5H110.674V154V153.5H108.66V154ZM112.687 154V154.5H114.701V154V153.5H112.687V154ZM116.715 154V154.5H118.729V154V153.5H116.715V154ZM120.743 154V154.5H122.757V154V153.5H120.743V154ZM124.771 154V154.5H126.785V154V153.5H124.771V154ZM128.799 154V154.5H130.812V154V153.5H128.799V154ZM132.826 154V154.5H134.84V154V153.5H132.826V154ZM136.854 154V154.5H138.868V154V153.5H136.854V154ZM140.882 154V154.5H142.896V154V153.5H140.882V154ZM144.91 154V154.5H146.924V154V153.5H144.91V154ZM148.937 154V154.5H150.951V154V153.5H148.937V154ZM152.965 154V154.5H154.979V154V153.5H152.965V154ZM156.993 154V154.5H158V154V153.5H156.993V154ZM13 154V155H14.0069V154V153H13V154ZM16.0208 154V155H18.0347V154V153H16.0208V154ZM20.0486 154V155H22.0625V154V153H20.0486V154ZM24.0764 154V155H26.0903V154V153H24.0764V154ZM28.1042 154V155H30.1181V154V153H28.1042V154ZM32.1319 154V155H34.1458V154V153H32.1319V154ZM36.1597 154V155H38.1736V154V153H36.1597V154ZM40.1875 154V155H42.2014V154V153H40.1875V154ZM44.2153 154V155H46.2292V154V153H44.2153V154ZM48.2431 154V155H50.2569V154V153H48.2431V154ZM52.2708 154V155H54.2847V154V153H52.2708V154ZM56.2986 154V155H58.3125V154V153H56.2986V154ZM60.3264 154V155H62.3403V154V153H60.3264V154ZM64.3542 154V155H66.3681V154V153H64.3542V154ZM68.382 154V155H70.3958V154V153H68.382V154ZM72.4097 154V155H74.4236V154V153H72.4097V154ZM76.4375 154V155H78.4514V154V153H76.4375V154ZM80.4653 154V155H82.4792V154V153H80.4653V154ZM84.4931 154V155H86.5069V154V153H84.4931V154ZM88.5208 154V155H90.5347V154V153H88.5208V154ZM92.5486 154V155H94.5625V154V153H92.5486V154ZM96.5764 154V155H98.5903V154V153H96.5764V154ZM100.604 154V155H102.618V154V153H100.604V154ZM104.632 154V155H106.646V154V153H104.632V154ZM108.66 154V155H110.674V154V153H108.66V154ZM112.687 154V155H114.701V154V153H112.687V154ZM116.715 154V155H118.729V154V153H116.715V154ZM120.743 154V155H122.757V154V153H120.743V154ZM124.771 154V155H126.785V154V153H124.771V154ZM128.799 154V155H130.812V154V153H128.799V154ZM132.826 154V155H134.84V154V153H132.826V154ZM136.854 154V155H138.868V154V153H136.854V154ZM140.882 154V155H142.896V154V153H140.882V154ZM144.91 154V155H146.924V154V153H144.91V154ZM148.937 154V155H150.951V154V153H148.937V154ZM152.965 154V155H154.979V154V153H152.965V154ZM156.993 154V155H158V154V153H156.993V154Z" fill="#E5E5E5" mask="url(#path-18-inside-3_137_515)"/>
<path d="M44.8125 138.531V148.973H43.8867V138.531H44.8125ZM39.2695 139.34C40.8164 139.352 41.9297 140.758 41.9297 142.973C41.9297 145.188 40.8164 146.594 39.2695 146.594C37.7109 146.594 36.6094 145.188 36.6094 142.973C36.6094 140.758 37.7109 139.352 39.2695 139.34ZM39.2695 140.16C38.2266 140.172 37.5 141.273 37.5 142.973C37.5 144.672 38.2266 145.773 39.2695 145.773C40.3125 145.773 41.0391 144.672 41.0391 142.973C41.0391 141.273 40.3125 140.172 39.2695 140.16ZM49.3828 139.34C50.918 139.352 52.0078 140.758 52.0195 142.973C52.0078 145.188 50.918 146.594 49.3828 146.594C47.8359 146.594 46.7578 145.188 46.7578 142.973C46.7578 140.758 47.8359 139.352 49.3828 139.34ZM49.3828 140.16C48.3516 140.172 47.625 141.273 47.625 142.973C47.625 144.672 48.3516 145.773 49.3828 145.773C50.4258 145.773 51.1289 144.672 51.1289 142.973C51.1289 141.273 50.4258 140.172 49.3828 140.16ZM56.3438 141.156V141.941H54.6562V144.262H56.3438V145.035H54.6562V148.949H53.7422V138.531H54.6562V141.156H56.3438ZM65.5781 138.531V148.949H64.6523V138.531H65.5781ZM62.4961 139.668C62.4844 142.668 61.0898 145.316 57.5977 146.992L57.0938 146.242C59.9121 144.906 61.3477 142.908 61.5586 140.418H57.5742V139.668H62.4961ZM75.3984 138.531V142.773H77.0859V143.547H75.3984V148.949H74.4844V138.531H75.3984ZM72.7031 139.656C72.7031 142.609 71.3203 145.293 67.9219 146.969L67.4062 146.242C70.1016 144.9 71.5664 142.896 71.7773 140.43H67.8867V139.656H72.7031ZM89.3555 138.531V144.109H88.4297V142.539H86.6836V141.789H88.4297V140.805H86.6836V140.066H88.4297V138.531H89.3555ZM86.5664 139.211V139.961H85.5V142.879C85.9863 142.85 86.4609 142.809 86.9062 142.762L86.9531 143.441C84.9492 143.746 82.5938 143.77 80.8477 143.77L80.7422 142.984L82.0898 142.973V139.961H81.0352V139.211H86.5664ZM89.3555 144.602V146.992H83.5312V148.094H89.7422V148.832H82.6289V146.289H88.4414V145.328H82.6055V144.602H89.3555ZM82.9805 142.961C83.5137 142.961 84.0645 142.943 84.6094 142.926V139.961H82.9805V142.961ZM99.7148 138.531V148.973H98.8008V144.777H96.6562V144.016H98.8008V142.609H96.6562V141.836H98.8008V138.531H99.7148ZM94.6875 141.93C94.6875 143.652 95.8594 145.352 97.4062 146.043L96.8789 146.758C95.6953 146.213 94.7109 145.07 94.2539 143.688C93.7969 145.146 92.8242 146.359 91.6406 146.934L91.1133 146.219C92.6367 145.504 93.7852 143.723 93.7852 141.93V141.098H91.3945V140.348H93.7852V138.73H94.6992V140.348H97.0547V141.098H94.6875V141.93ZM105.211 140.254C105.211 141.613 106.348 142.82 107.895 143.289L107.426 144.016C106.207 143.629 105.229 142.791 104.754 141.719C104.297 142.867 103.312 143.764 102.07 144.191L101.59 143.465C103.16 142.973 104.285 141.684 104.285 140.254V139.984H101.848V139.234H107.613V139.984H105.211V140.254ZM110.062 138.531V144.168H109.148V138.531H110.062ZM104.227 144.684V145.949H109.148V144.684H110.062V148.809H103.312V144.684H104.227ZM104.227 148.059H109.148V146.688H104.227V148.059ZM120.422 138.531V148.949H119.508V138.531H120.422ZM113.414 139.562V145.469C115.002 145.463 116.648 145.334 118.395 144.965L118.523 145.75C116.672 146.137 115.02 146.266 113.355 146.266H112.512V139.562H113.414ZM130.266 138.531V142.656H132.012V143.43H130.266V148.973H129.352V138.531H130.266ZM127.523 139.551V140.312H123.574V145.586C125.461 145.586 126.797 145.498 128.344 145.211L128.461 146.008C126.832 146.301 125.461 146.359 123.48 146.359H122.66V139.551H127.523ZM133.676 148.07C133.266 148.07 132.914 147.73 132.926 147.309C132.914 146.898 133.266 146.559 133.676 146.559C134.086 146.559 134.426 146.898 134.426 147.309C134.426 147.73 134.086 148.07 133.676 148.07Z" fill="#333333"/>
<rect x="52" y="58" width="66" height="11" fill="#DDF7FF"/>
<path d="M55.006 60.821C55.5047 61.1497 55.992 61.3933 56.468 61.552C56.944 61.7107 57.4484 61.79 57.981 61.79C58.457 61.79 58.8424 61.6823 59.137 61.467C59.4317 61.2403 59.579 60.9513 59.579 60.6C59.579 60.2033 59.4204 59.8577 59.103 59.563C58.797 59.2683 58.1964 58.934 57.301 58.56C56.2924 58.1407 55.567 57.6703 55.125 57.149C54.683 56.6277 54.462 56.0043 54.462 55.279C54.462 54.6103 54.6207 54.0267 54.938 53.528C55.2554 53.018 55.7087 52.627 56.298 52.355C56.8874 52.0717 57.5674 51.93 58.338 51.93C58.9387 51.93 59.4884 52.015 59.987 52.185C60.4857 52.3437 60.922 52.5533 61.296 52.814C61.4094 52.8933 61.466 52.9953 61.466 53.12C61.466 53.1993 61.4434 53.2787 61.398 53.358L60.565 54.735C60.225 54.5197 59.8567 54.3553 59.46 54.242C59.0747 54.1173 58.7064 54.055 58.355 54.055C57.8904 54.055 57.5164 54.157 57.233 54.361C56.961 54.5537 56.825 54.82 56.825 55.16C56.825 55.466 56.9554 55.738 57.216 55.976C57.4767 56.2027 57.9357 56.4577 58.593 56.741C59.8057 57.2397 60.6727 57.7893 61.194 58.39C61.7267 58.9907 61.993 59.733 61.993 60.617C61.993 61.7163 61.6247 62.5493 60.888 63.116C60.1514 63.6713 59.2107 63.949 58.066 63.949C56.3774 63.949 55.1137 63.609 54.275 62.929C54.105 62.793 54.02 62.6513 54.02 62.504C54.02 62.436 54.0484 62.3567 54.105 62.266L55.006 60.821ZM69.2733 63.66C68.7179 63.898 68.0323 64.017 67.2163 64.017C65.9243 64.017 64.8873 63.6657 64.1053 62.963C63.3346 62.249 62.9493 61.1043 62.9493 59.529C62.9493 58.101 63.3119 56.9733 64.0373 56.146C64.7739 55.3073 65.7769 54.888 67.0463 54.888C67.4996 54.888 67.9359 54.956 68.3553 55.092C68.7746 55.228 69.1259 55.4093 69.4093 55.636C69.5453 55.7493 69.6133 55.874 69.6133 56.01C69.6133 56.078 69.5963 56.146 69.5623 56.214L69.0183 57.54C68.7463 57.3247 68.4459 57.1603 68.1173 57.047C67.7999 56.9337 67.4826 56.877 67.1653 56.877C66.5533 56.877 66.0659 57.1093 65.7033 57.574C65.3406 58.0273 65.1593 58.6563 65.1593 59.461C65.1593 61.1723 65.9299 62.028 67.4713 62.028C67.7659 62.028 68.0719 61.9997 68.3893 61.943C68.7066 61.8863 68.9786 61.8127 69.2053 61.722L69.5113 63.218C69.5226 63.2407 69.5283 63.2803 69.5283 63.337C69.5283 63.4957 69.4433 63.6033 69.2733 63.66ZM74.375 54.888C75.0323 54.888 75.6217 55.0127 76.143 55.262C76.6643 55.5113 77.0723 55.8683 77.367 56.333C77.673 56.7977 77.826 57.3473 77.826 57.982V62.555C77.826 63.031 77.724 63.371 77.52 63.575C77.316 63.7677 76.9137 63.864 76.313 63.864H75.888V63.269C75.6727 63.507 75.361 63.694 74.953 63.83C74.5563 63.9547 74.1257 64.017 73.661 64.017C72.7657 64.017 72.046 63.813 71.502 63.405C70.958 62.9857 70.686 62.3567 70.686 61.518C70.686 60.5547 71.0543 59.8123 71.791 59.291C72.539 58.7697 73.5703 58.509 74.885 58.509C75.0323 58.509 75.2873 58.5203 75.65 58.543V58.237C75.65 57.795 75.5027 57.4607 75.208 57.234C74.9247 56.996 74.5677 56.877 74.137 56.877C73.797 56.877 73.4853 56.9507 73.202 57.098C72.93 57.234 72.6523 57.4437 72.369 57.727L71.349 56.945C71.1903 56.8203 71.111 56.6843 71.111 56.537C71.111 56.4237 71.162 56.3103 71.264 56.197C72.0687 55.3243 73.1057 54.888 74.375 54.888ZM75.65 60.175C75.31 60.1523 75.072 60.141 74.936 60.141C74.256 60.141 73.7403 60.2487 73.389 60.464C73.049 60.668 72.879 60.9457 72.879 61.297C72.879 61.9317 73.304 62.249 74.154 62.249C74.732 62.249 75.2307 62.1187 75.65 61.858V60.175ZM83.8266 54.871C84.6313 54.871 85.2943 55.1487 85.8156 55.704C86.3483 56.248 86.6146 57.0243 86.6146 58.033V62.538C86.6146 63.0253 86.5069 63.371 86.2916 63.575C86.0876 63.7677 85.6853 63.864 85.0846 63.864H84.4216V58.458C84.4216 57.4493 83.9739 56.945 83.0786 56.945C82.7953 56.945 82.5346 57.013 82.2966 57.149C82.0699 57.2737 81.8943 57.455 81.7696 57.693V62.538C81.7696 63.0253 81.6676 63.371 81.4636 63.575C81.2596 63.7677 80.8573 63.864 80.2566 63.864H79.5766V55.041H81.2256C81.5883 55.041 81.7696 55.2167 81.7696 55.568V55.755C82.0416 55.483 82.3533 55.2677 82.7046 55.109C83.0559 54.9503 83.4299 54.871 83.8266 54.871ZM102.563 52.083C102.96 52.083 103.158 52.2757 103.158 52.661V62.453C103.158 62.9403 103.056 63.286 102.852 63.49C102.648 63.694 102.246 63.796 101.645 63.796H100.948V55.857L98.398 59.886C98.33 59.9993 98.2337 60.0843 98.109 60.141C97.9843 60.1977 97.8483 60.226 97.701 60.226C97.5537 60.226 97.4177 60.1977 97.293 60.141C97.1797 60.0843 97.089 60.005 97.021 59.903L94.522 55.857V62.453C94.522 62.9403 94.4143 63.286 94.199 63.49C93.995 63.694 93.604 63.796 93.026 63.796H92.312V52.083H94.522L97.718 57.132L100.948 52.083H102.563ZM111.604 63.643C111.23 63.7903 110.873 63.8923 110.533 63.949C110.193 63.9943 109.807 64.017 109.377 64.017C107.949 64.017 106.815 63.6657 105.977 62.963C105.138 62.249 104.719 61.0817 104.719 59.461C104.719 58.441 104.889 57.591 105.229 56.911C105.569 56.2197 106.028 55.7097 106.606 55.381C107.184 55.0523 107.841 54.888 108.578 54.888C109.201 54.888 109.768 55.0183 110.278 55.279C110.799 55.5397 111.207 55.9137 111.502 56.401C111.796 56.8883 111.944 57.455 111.944 58.101C111.944 58.815 111.751 59.3703 111.366 59.767C110.98 60.1523 110.357 60.3563 109.496 60.379L106.912 60.447C106.912 60.9343 107.144 61.3367 107.609 61.654C108.073 61.96 108.668 62.113 109.394 62.113C110.176 62.113 110.901 61.994 111.57 61.756L111.876 63.167C111.887 63.201 111.893 63.2463 111.893 63.303C111.893 63.4503 111.796 63.5637 111.604 63.643ZM109.989 57.982C109.989 57.6307 109.864 57.336 109.615 57.098C109.365 56.8487 109.031 56.724 108.612 56.724C108.079 56.724 107.66 56.8997 107.354 57.251C107.059 57.6023 106.912 58.101 106.912 58.747L109.309 58.713C109.535 58.713 109.705 58.6563 109.819 58.543C109.932 58.4183 109.989 58.2313 109.989 57.982ZM115.126 52.236C115.511 52.236 115.704 52.423 115.704 52.797L115.653 59.444C115.653 59.954 115.557 60.311 115.364 60.515C115.183 60.719 114.831 60.8153 114.31 60.804L113.579 60.787L113.494 52.236H115.126ZM114.582 63.949C114.197 63.949 113.902 63.8583 113.698 63.677C113.505 63.4957 113.409 63.2407 113.409 62.912C113.409 62.5833 113.517 62.3057 113.732 62.079C113.947 61.841 114.231 61.722 114.582 61.722C114.933 61.722 115.217 61.841 115.432 62.079C115.647 62.3057 115.755 62.5833 115.755 62.912C115.755 63.2407 115.653 63.4957 115.449 63.677C115.256 63.8583 114.967 63.949 114.582 63.949Z" fill="#3060D1"/>
</svg>
