<svg width="347" height="188" viewBox="0 0 347 188" fill="none" xmlns="http://www.w3.org/2000/svg">
<rect y="7" width="184" height="159" fill="#B6EBFD"/>
<rect x="205" y="3" width="29" height="20" rx="10" fill="#B0E7F9"/>
<path d="M217.363 9.69922H217.469C217.578 9.69922 217.721 9.84375 217.896 10.1328V10.2383L218.324 15.7109L217.896 16.0332H217.469C217.254 15.9629 217.146 15.748 217.146 15.3887V13.5664C217.146 13.4062 217.111 13.2617 217.041 13.1328C217.041 13.0625 217.076 13.0273 217.146 13.0273C217.002 12.0977 216.93 11.0957 216.93 10.0215L217.363 9.69922ZM212.318 11.2051H213.068C214.283 11.623 214.891 12.4102 214.891 13.5664C214.891 14.2266 214.211 14.6543 212.852 14.8496C211.988 14.8496 211.488 14.1719 211.352 12.8164C211.352 12.1719 211.674 11.6348 212.318 11.2051ZM212.318 13.0273C212.51 13.5039 212.725 13.791 212.963 13.8887H213.496C213.785 13.7715 213.93 13.5195 213.93 13.1328C213.93 12.6758 213.607 12.3906 212.963 12.2773C212.533 12.4609 212.318 12.7109 212.318 13.0273ZM224.512 8.29883C224.941 8.44727 225.156 8.73438 225.156 9.16016V10.2324C225.156 10.9043 224.549 11.2988 223.334 11.416L222.256 11.1992L222.15 11.416V11.5215L222.367 11.8438C223.238 11.6992 224.061 11.627 224.834 11.627L224.945 11.8438V12.3828C224.945 12.668 224.264 12.8105 222.9 12.8105H222.256C221.471 12.8105 221.078 12.2734 221.078 11.1992C221.148 10.4844 221.363 10.127 221.723 10.127C222.484 10.2676 222.984 10.3379 223.223 10.3379H223.545C223.916 10.3379 224.131 10.2305 224.189 10.0156V9.48242L224.084 9.26562C222.58 9.41016 221.543 9.48242 220.973 9.48242C220.684 9.37305 220.539 9.26562 220.539 9.16016V8.62109C220.562 8.48047 220.635 8.41016 220.756 8.41016H220.973L221.617 8.51562L221.828 8.41016C221.902 8.41016 221.939 8.44531 221.939 8.51562C222.928 8.37109 223.785 8.29883 224.512 8.29883ZM226.768 13.0273C227.057 13.0977 227.201 13.3125 227.201 13.6719V13.7773C227.201 14.0391 225.912 14.2539 223.334 14.4219C223.193 14.3516 223.086 14.3164 223.012 14.3164C222.938 14.3164 222.9 14.3516 222.9 14.4219L222.367 14.3164H220.434C219.574 14.3164 219.145 14.1719 219.145 13.8828V13.4551C219.145 13.3535 219.252 13.2461 219.467 13.1328C220.006 13.2773 220.508 13.3496 220.973 13.3496H223.334C224.174 13.3496 225.318 13.2422 226.768 13.0273ZM221.617 15.1719C224.121 15.1719 225.373 15.4219 225.373 15.9219L225.479 17C225.479 17.8594 225.014 18.2891 224.084 18.2891C223.432 18.3594 222.717 18.3945 221.939 18.3945C221.436 18.3945 221.184 17.6777 221.184 16.2441C221.223 15.7949 221.367 15.4375 221.617 15.1719ZM222.256 16.3555V17.3223H222.367C223.727 17.3223 224.406 17.1426 224.406 16.7832C224.301 16.498 224.193 16.3555 224.084 16.3555H223.117C222.957 16.3555 222.814 16.3184 222.689 16.2441C222.564 16.3184 222.42 16.3555 222.256 16.3555Z" fill="black"/>
<path d="M246.195 8.11719C248.961 8.7526 250.344 9.89844 250.344 11.5547V11.9844C250.344 13.7031 249.102 14.5625 246.617 14.5625H246.336C245.523 14.5625 244.904 14.4661 244.477 14.2734L244.328 14.5625C244.328 14.849 244.378 14.9922 244.477 14.9922L244.328 15.7109V16.7109L244.477 17.5703C244.247 19.0964 243.961 19.8594 243.617 19.8594C243.268 19.6823 243.029 19.3958 242.898 19C242.992 17.0885 243.039 15.6562 243.039 14.7031C243.039 12.875 242.849 11.1562 242.469 9.54688C242.469 8.70833 243.568 8.23177 245.766 8.11719H246.195ZM243.898 9.83594C244.07 11.9349 244.357 12.9844 244.758 12.9844L247.195 13.2734C248.435 13.1172 249.055 12.6406 249.055 11.8438V11.4141C248.674 10.6224 247.672 10 246.047 9.54688H245.477C244.799 9.54688 244.273 9.64323 243.898 9.83594ZM256.305 8.97656C257.091 8.97656 257.807 9.64583 258.453 10.9844L258.312 11.2656C258.406 11.4323 258.453 11.625 258.453 11.8438C258.099 13.0833 256.859 13.7031 254.734 13.7031H254.586C253.727 13.5104 253.107 13.4141 252.727 13.4141V13.7031C252.727 15.0469 253.539 15.8099 255.164 15.9922C255.164 16.0859 255.354 16.1328 255.734 16.1328C256.401 15.7526 256.878 15.5625 257.164 15.5625H257.305C257.497 15.5938 257.594 15.6901 257.594 15.8516V16.8516C256.922 17.2318 256.112 17.4219 255.164 17.4219H255.016C252.63 17.0625 251.438 15.8698 251.438 13.8438V12.125C252.109 10.6979 253.398 9.64844 255.305 8.97656H256.305ZM253.297 12.125L254.734 12.2734C256.354 12.2734 257.164 12.0807 257.164 11.6953V11.125C257.164 10.9948 256.924 10.7552 256.445 10.4062H256.164C254.253 10.5938 253.297 11.1667 253.297 12.125ZM259.977 9.26562H260.266C260.651 9.33333 260.984 10.3828 261.266 12.4141L261.555 12.5547C263.013 11.5443 264.013 10.7344 264.555 10.125H264.844C264.979 10.125 265.122 10.2682 265.273 10.5547V11.125C264.44 11.9896 263.487 12.8021 262.414 13.5625C264.232 15.4948 265.901 16.6875 267.422 17.1406L267.562 17.8516C267.193 18.138 266.906 18.2812 266.703 18.2812C265.641 18.2812 263.971 17.138 261.695 14.8516H261.406V14.9922C261.406 15.3464 261.456 16.5391 261.555 18.5703L260.977 19H260.547C260.26 19 260.07 18.3802 259.977 17.1406L260.117 14.8516C260.117 14.0234 259.974 13.2578 259.688 12.5547L259.836 11.6953C259.643 10.7839 259.547 10.0677 259.547 9.54688L259.977 9.26562ZM272.523 9.11719C274.56 9.11719 275.943 9.73958 276.672 10.9844C277.151 11.6927 277.391 12.3594 277.391 12.9844V14.5625C277.391 15.5833 276.721 16.6328 275.383 17.7109C274.367 18.0911 273.557 18.2812 272.953 18.2812H272.234C270.229 18.2812 269.036 16.8021 268.656 13.8438V12.9844C268.656 11.3177 269.562 10.125 271.375 9.40625C271.724 9.21354 272.107 9.11719 272.523 9.11719ZM269.805 13.5625C270.143 15.849 271.096 16.9922 272.664 16.9922C275.049 16.9922 276.242 15.7526 276.242 13.2734V13.1328C276.242 12.0391 275.383 11.1797 273.664 10.5547C273.289 10.4557 272.956 10.4062 272.664 10.4062C270.977 10.4062 270.023 11.4583 269.805 13.5625ZM286.852 9.54688C287.904 10.4479 288.43 11.0703 288.43 11.4141C287.477 12.1693 287 12.8359 287 13.4141V13.8438C287 13.974 287.284 14.6901 287.852 15.9922V16.2812C287.852 16.4062 287.375 16.8828 286.422 17.7109C285.516 17.7109 284.609 16.8047 283.703 14.9922V13.8438C283.87 10.9792 284.919 9.54688 286.852 9.54688ZM284.992 13.8438V14.4219C285.273 15.5625 285.703 16.1328 286.281 16.1328C286.375 15.9505 286.422 15.8099 286.422 15.7109C285.849 14.6589 285.562 13.75 285.562 12.9844C286.057 12.1094 286.393 11.5859 286.57 11.4141V11.2656C286.57 11.0781 286.474 10.9844 286.281 10.9844C285.589 10.9844 285.159 11.9375 284.992 13.8438ZM299.117 10.1328H299.406C299.786 10.1328 300.026 10.7995 300.125 12.1328C300.026 12.9453 299.977 13.6146 299.977 14.1406V16.4297C299.977 16.6432 299.93 16.8333 299.836 17C299.93 17.1667 299.977 17.3568 299.977 17.5703C299.539 17.763 299.112 17.8594 298.695 17.8594C298.596 17.6719 298.547 17.5286 298.547 17.4297L298.695 15.1406C298.695 15.0417 298.646 14.9922 298.547 14.9922L298.695 14.2812V10.5625C298.695 10.4219 298.836 10.2786 299.117 10.1328ZM290.25 10.8438C290.651 10.8438 291.128 10.9401 291.68 11.1328C291.773 11.1328 291.82 11.0859 291.82 10.9922L292.539 11.1328C292.799 11.1328 293.896 11.0365 295.828 10.8438L296.258 11.4141C296.258 11.6797 295.875 12.0625 295.109 12.5625C295.109 12.8594 295.159 13.7656 295.258 15.2812H296.547C296.734 15.3125 296.828 15.4089 296.828 15.5703V16.1406C296.828 16.3594 296.591 16.5026 296.117 16.5703C292.435 16.4766 290.383 16.4297 289.961 16.4297L289.531 15.8516V15.5703C289.531 15.4297 289.674 15.2865 289.961 15.1406C290.477 15.2344 290.906 15.2812 291.25 15.2812V15.1406C291.25 13.0417 291.01 11.9922 290.531 11.9922C290.057 11.9245 289.82 11.7812 289.82 11.5625V11.1328C289.82 10.9401 289.964 10.8438 290.25 10.8438ZM292.25 12.1328V12.2734C292.443 14.2786 292.682 15.2812 292.969 15.2812H293.25C293.401 15.2812 293.594 15.0911 293.828 14.7109V13.2812C293.828 12.5781 293.685 12.1953 293.398 12.1328H292.25ZM306.508 8.71094H307.789C308.174 8.86719 308.367 9.20052 308.367 9.71094C308.367 12.4766 308.174 13.8594 307.789 13.8594H307.219C307.073 13.8594 306.883 13.6693 306.648 13.2891C306.841 12.9766 306.938 12.6901 306.938 12.4297V12.2891C306.849 12.2891 306.466 12.1927 305.789 12C304.773 12.1927 304.107 12.2891 303.789 12.2891H302.93C302.784 12.2891 302.594 12.0964 302.359 11.7109V11.5703C302.359 11.4193 302.549 11.2292 302.93 11H303.789C304.841 11 305.747 10.9036 306.508 10.7109C306.674 10.8099 306.865 10.8594 307.078 10.8594V10.5703L306.938 9.85938H305.648C304.883 9.85938 304.026 9.95312 303.078 10.1406L302.648 9.57031V9.28125C302.648 8.90104 303.935 8.71094 306.508 8.71094ZM304.219 13.4297H304.648C304.914 13.4297 305.151 14.3828 305.359 16.2891H307.938C308.151 16.2891 308.341 16.2396 308.508 16.1406C308.94 16.3281 309.177 16.5208 309.219 16.7188V17.1406C309.161 17.4271 308.781 17.5703 308.078 17.5703H305.938C305.594 17.5703 305.211 17.7604 304.789 18.1406H304.359C304.286 18.1406 304.146 18 303.938 17.7188C303.792 17.7188 303.029 17.7656 301.648 17.8594L301.219 17.2891V17.1406L301.648 16.5703C301.747 16.5703 301.891 16.6198 302.078 16.7188C303.318 16.6198 303.938 16.4271 303.938 16.1406V15.8594C303.938 15.3802 303.888 14.6641 303.789 13.7109L304.219 13.4297ZM312.32 8.25781C314.029 8.25781 315.315 9.5 316.18 11.9844C316.279 12.3385 316.328 12.7682 316.328 13.2734C316.328 14.4453 315.898 15.8281 315.039 17.4219L314.32 17.5703H314.18C313.956 17.2839 313.336 16.901 312.32 16.4219C311.935 15.8854 311.742 15.5521 311.742 15.4219C312.029 14.7865 312.268 14.0703 312.461 13.2734C312.461 12.3672 311.745 11.6042 310.312 10.9844V10.125C311.375 8.88021 312.044 8.25781 312.32 8.25781ZM311.891 10.2656C313.13 11.125 313.75 12.224 313.75 13.5625V13.7031C313.75 13.9167 313.607 14.4896 313.32 15.4219L313.891 15.7109C314.557 15.5443 314.94 14.5417 315.039 12.7031C315.039 11.7344 314.37 10.7318 313.031 9.69531H312.461C312.31 9.69531 312.12 9.88542 311.891 10.2656Z" fill="black"/>
<path d="M227.891 36.7227H227.674C227.572 36.7227 227.465 36.6152 227.352 36.4004V36.1895C227.879 34.4707 228.488 33.6113 229.18 33.6113C229.324 33.8457 229.396 34.0254 229.396 34.1504C228.475 35.8535 227.973 36.7109 227.891 36.7227ZM233.018 33.5879C235.092 34.0645 236.129 34.9238 236.129 36.166V36.4883C236.129 37.7773 235.197 38.4219 233.334 38.4219H233.123C232.514 38.4219 232.049 38.3496 231.729 38.2051L231.617 38.4219C231.617 38.6367 231.654 38.7441 231.729 38.7441L231.617 39.2832V40.0332L231.729 40.6777C231.557 41.8223 231.342 42.3945 231.084 42.3945C230.822 42.2617 230.643 42.0469 230.545 41.75C230.615 40.3164 230.65 39.2422 230.65 38.5273C230.65 37.1562 230.508 35.8672 230.223 34.6602C230.223 34.0312 231.047 33.6738 232.695 33.5879H233.018ZM231.295 34.877C231.424 36.4512 231.639 37.2383 231.939 37.2383L233.768 37.4551C234.697 37.3379 235.162 36.9805 235.162 36.3828V36.0605C234.877 35.4668 234.125 35 232.906 34.6602H232.479C231.971 34.6602 231.576 34.7324 231.295 34.877ZM240.6 34.2324C241.189 34.2324 241.727 34.7344 242.211 35.7383L242.105 35.9492C242.176 36.0742 242.211 36.2188 242.211 36.3828C241.945 37.3125 241.016 37.7773 239.422 37.7773H239.311C238.666 37.6328 238.201 37.5605 237.916 37.5605V37.7773C237.916 38.7852 238.525 39.3574 239.744 39.4941C239.744 39.5645 239.887 39.5996 240.172 39.5996C240.672 39.3145 241.029 39.1719 241.244 39.1719H241.35C241.494 39.1953 241.566 39.2676 241.566 39.3887V40.1387C241.062 40.4238 240.455 40.5664 239.744 40.5664H239.633C237.844 40.2969 236.949 39.4023 236.949 37.8828V36.5938C237.453 35.5234 238.42 34.7363 239.85 34.2324H240.6ZM238.344 36.5938L239.422 36.7051C240.637 36.7051 241.244 36.5605 241.244 36.2715V35.8438C241.244 35.7461 241.064 35.5664 240.705 35.3047H240.494C239.061 35.4453 238.344 35.875 238.344 36.5938ZM245.609 34.0156H246.465C247.516 34.0156 248.197 34.9473 248.51 36.8105C248.436 37.2676 248.363 38.1973 248.293 39.5996C248.438 39.834 248.51 40.0137 248.51 40.1387C248.076 40.5684 247.395 40.7832 246.465 40.7832H246.037C244.248 40.4785 243.354 39.6562 243.354 38.3164C243.354 37.6172 243.963 37.0078 245.182 36.4883H245.932C246.213 36.4883 246.678 36.7031 247.326 37.1328H247.432V36.8105C247.432 35.8965 247.109 35.2871 246.465 34.9824H246.143C245.271 34.9824 244.414 35.1621 243.57 35.5215H243.354C243.139 35.4512 243.031 35.2363 243.031 34.877C243.816 34.3027 244.676 34.0156 245.609 34.0156ZM244.426 38.5273V38.7441C244.75 39.3887 245.359 39.7109 246.254 39.7109C246.254 39.7812 246.396 39.8164 246.682 39.8164C247.041 39.7266 247.221 39.6191 247.221 39.4941V39.0664C247.053 38.0625 246.588 37.5605 245.826 37.5605H245.393C244.748 37.6543 244.426 37.9766 244.426 38.5273ZM252.131 34.3379C254.49 34.3379 255.67 35.127 255.67 36.7051L255.348 36.916C255.148 36.916 254.826 36.5938 254.381 35.9492C254.037 35.6641 253.287 35.4492 252.131 35.3047C251.174 35.3047 250.6 35.9141 250.408 37.1328V37.4551C250.604 38.959 251.32 39.7109 252.559 39.7109C253.488 39.7812 253.953 39.9238 253.953 40.1387V40.4609C253.953 40.5742 253.811 40.7168 253.525 40.8887H253.414C251.719 40.8887 250.539 40.3164 249.875 39.1719C249.516 38.4375 249.336 37.793 249.336 37.2383C249.336 36.1211 249.873 35.2617 250.947 34.6602C251.498 34.4453 251.893 34.3379 252.131 34.3379ZM260.146 34.2324C260.736 34.2324 261.273 34.7344 261.758 35.7383L261.652 35.9492C261.723 36.0742 261.758 36.2188 261.758 36.3828C261.492 37.3125 260.562 37.7773 258.969 37.7773H258.857C258.213 37.6328 257.748 37.5605 257.463 37.5605V37.7773C257.463 38.7852 258.072 39.3574 259.291 39.4941C259.291 39.5645 259.434 39.5996 259.719 39.5996C260.219 39.3145 260.576 39.1719 260.791 39.1719H260.896C261.041 39.1953 261.113 39.2676 261.113 39.3887V40.1387C260.609 40.4238 260.002 40.5664 259.291 40.5664H259.18C257.391 40.2969 256.496 39.4023 256.496 37.8828V36.5938C257 35.5234 257.967 34.7363 259.396 34.2324H260.146ZM257.891 36.5938L258.969 36.7051C260.184 36.7051 260.791 36.5605 260.791 36.2715V35.8438C260.791 35.7461 260.611 35.5664 260.252 35.3047H260.041C258.607 35.4453 257.891 35.875 257.891 36.5938ZM266.814 34.4492H267.031C267.32 34.5 267.57 35.2871 267.781 36.8105L267.998 36.916C269.092 36.1582 269.842 35.5508 270.248 35.0938H270.465C270.566 35.0938 270.674 35.2012 270.787 35.416V35.8438C270.162 36.4922 269.447 37.1016 268.643 37.6719C270.006 39.1211 271.258 40.0156 272.398 40.3555L272.504 40.8887C272.227 41.1035 272.012 41.2109 271.859 41.2109C271.062 41.2109 269.811 40.3535 268.104 38.6387H267.887V38.7441C267.887 39.0098 267.924 39.9043 267.998 41.4277L267.564 41.75H267.242C267.027 41.75 266.885 41.2852 266.814 40.3555L266.92 38.6387C266.92 38.0176 266.812 37.4434 266.598 36.916L266.709 36.2715C266.564 35.5879 266.492 35.0508 266.492 34.6602L266.814 34.4492ZM276.225 34.3379C277.752 34.3379 278.789 34.8047 279.336 35.7383C279.695 36.2695 279.875 36.7695 279.875 37.2383V38.4219C279.875 39.1875 279.373 39.9746 278.369 40.7832C277.607 41.0684 277 41.2109 276.547 41.2109H276.008C274.504 41.2109 273.609 40.1016 273.324 37.8828V37.2383C273.324 35.9883 274.004 35.0938 275.363 34.5547C275.625 34.4102 275.912 34.3379 276.225 34.3379ZM274.186 37.6719C274.439 39.3867 275.154 40.2441 276.33 40.2441C278.119 40.2441 279.014 39.3145 279.014 37.4551V37.3496C279.014 36.5293 278.369 35.8848 277.08 35.416C276.799 35.3418 276.549 35.3047 276.33 35.3047C275.064 35.3047 274.35 36.0938 274.186 37.6719ZM283.596 33.5879L283.918 34.0156V34.127C283.918 34.5566 283.738 34.7715 283.379 34.7715C283.379 34.6973 283.344 34.6602 283.273 34.6602L283.168 34.877V34.9824C283.168 35.2402 283.203 35.5625 283.273 35.9492L283.168 36.166L283.273 36.7051C283.203 38.377 283.131 39.4492 283.057 39.9219C283.131 39.9219 283.168 39.959 283.168 40.0332L283.701 39.9219H283.918C284.02 39.9219 284.127 40.0293 284.24 40.2441C284.24 40.6309 284.096 40.8828 283.807 41H282.846C282.432 41 281.857 41.0352 281.123 41.1055C280.838 41.0352 280.695 40.8926 280.695 40.6777C280.695 40.3496 281.125 40.1348 281.984 40.0332C282.129 38.5684 282.201 36.9219 282.201 35.0938C282.057 35.0938 281.984 35.0215 281.984 34.877L281.768 34.9824H281.445C281.336 34.9824 281.193 34.8398 281.018 34.5547V34.3379C281.018 34.0879 281.877 33.8379 283.596 33.5879ZM288.289 34.5547C289.199 34.5547 290.094 35.0918 290.973 36.166V36.4883C290.973 36.5898 290.865 36.6973 290.65 36.8105H290.328C289.516 35.9512 288.729 35.5215 287.967 35.5215C287.545 35.5215 287.043 35.8438 286.461 36.4883C286.246 37.2812 286.139 38.1055 286.139 38.9609C286.139 39.9414 286.748 40.6211 287.967 41H288.178C288.83 41 289.439 40.6406 290.006 39.9219H290.111C290.471 40.1367 290.65 40.3887 290.65 40.6777C290.65 41.166 289.863 41.5957 288.289 41.9668H287.861C286.143 41.4902 285.283 40.7383 285.283 39.7109C285.162 39.7109 285.09 39.4609 285.066 38.9609V38.4219C285.066 35.8438 286.141 34.5547 288.289 34.5547ZM294.693 34.0156C295.666 35.0508 296.238 36.1973 296.41 37.4551C296.512 37.7715 296.654 38.0586 296.838 38.3164V38.8496C296.982 40.0645 297.055 40.7441 297.055 40.8887C296.984 41.1035 296.77 41.2109 296.41 41.2109C296.156 41.2109 295.906 40.4961 295.66 39.0664L293.404 38.7441H293.299C293.01 38.7441 292.865 39.2441 292.865 40.2441V41C292.822 41.2148 292.537 41.3223 292.01 41.3223L291.793 41V40.0332C291.867 38.6816 292.512 36.9277 293.727 34.7715C293.816 34.7715 293.959 34.5195 294.154 34.0156H294.693ZM293.51 37.5605C293.51 37.7051 294.119 37.7773 295.338 37.7773C295.338 37.1602 295.123 36.4082 294.693 35.5215H294.588C294.057 36.0566 293.697 36.7363 293.51 37.5605ZM299.381 33.6113H299.598C299.699 33.6113 299.807 33.7188 299.92 33.9336V34.1445C299.393 35.8633 298.783 36.7227 298.092 36.7227C297.947 36.4883 297.875 36.3086 297.875 36.1836C298.797 34.4805 299.299 33.623 299.381 33.6113ZM307.771 34.5605C308.631 34.5605 309.061 35.4902 309.061 37.3496V37.6719C308.705 38.1211 307.811 38.4434 306.377 38.6387L306.271 38.8555C306.314 39.4258 306.422 39.7109 306.594 39.7109H307.238C307.648 39.7109 308.363 39.6406 309.383 39.5C309.527 39.7344 309.6 39.9492 309.6 40.1445V40.25C309.6 40.6094 308.633 40.7891 306.699 40.7891C305.699 40.7891 305.199 39.8574 305.199 37.9941C305.5 37.8184 306.43 37.5684 307.988 37.2441V36.3828C307.988 35.9922 307.773 35.707 307.344 35.5273C306.152 35.7422 305.438 35.8496 305.199 35.8496H304.982C304.881 35.8496 304.773 35.7422 304.66 35.5273V35.0996C304.855 34.7402 305.893 34.5605 307.771 34.5605ZM311.639 34.666C311.924 34.9082 312.139 35.4102 312.283 36.1719H312.816C313.074 36.1719 313.396 36.1348 313.783 36.0605C314.143 36.1621 314.322 36.4141 314.322 36.8164V36.9219C314.322 37.1094 313.678 37.2891 312.389 37.4609V37.8887L312.494 38.5332C312.396 38.8262 312.219 39.041 311.961 39.1777C311.602 38.9707 311.422 38.7559 311.422 38.5332C311.422 38.0918 311.314 36.875 311.1 34.8828C311.334 34.7383 311.514 34.666 311.639 34.666ZM316.543 32.1992C316.973 32.1992 317.26 32.6992 317.404 33.6992C317.475 33.6992 317.582 33.9141 317.727 34.3438C318.887 34.0586 319.602 33.916 319.871 33.916C320.258 33.916 320.508 34.0957 320.621 34.4551C320.621 34.8848 319.979 35.0996 318.693 35.0996C318.693 35.2402 318.191 35.3477 317.188 35.4219C316.789 35.0898 316.432 34.2305 316.115 32.8438V32.7383C316.119 32.6328 316.262 32.4531 316.543 32.1992ZM322.232 36.2773L322.555 36.7051V36.9219C322.555 37.2578 320.73 37.4727 317.082 37.5664H316.971C315.756 37.5664 315.148 37.2793 315.148 36.7051L315.576 36.3828L316.115 36.4941C316.186 36.4941 316.221 36.457 316.221 36.3828L316.648 36.4941C317.129 36.4941 318.99 36.4219 322.232 36.2773ZM316.971 38.4277C317.439 38.4277 317.762 39.2148 317.938 40.7891C319.281 40.7148 320.428 40.6074 321.377 40.4668C321.592 40.7441 321.699 40.959 321.699 41.1113C321.699 41.5059 320.805 41.7559 319.016 41.8613C318.84 41.8613 318.303 41.8965 317.404 41.9668C317.139 41.9668 316.816 40.9297 316.438 38.8555C316.508 38.5703 316.686 38.4277 316.971 38.4277ZM333.84 32.0879L334.162 32.5156V32.8379C334.162 32.9395 334.055 33.0469 333.84 33.1602H333.307C332.518 33.1602 332.123 33.2676 332.123 33.4824V33.8047L332.229 34.3438H333.09L333.84 34.2324C334.055 34.4941 334.162 34.7461 334.162 34.9883C333.889 35.2734 333.424 35.416 332.768 35.416H332.018C331.443 35.1543 331.156 34.5098 331.156 33.4824L331.051 32.5156C331.531 32.2305 332.461 32.0879 333.84 32.0879ZM330.512 32.1934L330.834 32.6211C330.834 33.1211 330.404 33.4082 329.545 33.4824C329.471 33.4824 329.363 33.5176 329.223 33.5879L328.578 33.4824C328.508 33.6191 328.473 33.7266 328.473 33.8047C328.543 34.8086 328.686 35.3105 328.9 35.3105L331.051 34.9883L331.373 35.416V35.7383C331.373 36.0234 330.299 36.2734 328.15 36.4883C327.912 36.4883 327.697 35.4141 327.506 33.2656V32.8379C327.506 32.6074 328.258 32.4648 329.762 32.4102C329.762 32.2656 330.012 32.1934 330.512 32.1934ZM333.951 37.3496C334.307 37.4473 334.484 37.6973 334.484 38.0996C334.184 38.3887 333.898 38.5332 333.629 38.5332H333.195C332.82 38.5332 332.213 38.5684 331.373 38.6387C331.588 38.8535 332.088 39.6055 332.873 40.8945C332.803 41.3242 332.695 41.5391 332.551 41.5391C332.055 41.5391 331.625 41.1094 331.262 40.25C331.133 40.25 330.668 40.752 329.867 41.7559H329.545C329.33 41.6816 329.223 41.4668 329.223 41.1113V41L331.051 38.8555V38.7441H330.939C330.588 38.7441 330.158 38.7812 329.65 38.8555C328.076 38.7969 327.289 38.6523 327.289 38.4219V37.9941L327.611 37.5664L328.684 37.6719H329.328C330.555 37.6719 332.096 37.5645 333.951 37.3496Z" fill="#5672E0"/>
<rect x="205" y="52.2402" width="45" height="19.8849" rx="9.94246" fill="#B0E7F9"/>
<path d="M212.068 57.6621C212.236 57.8301 212.451 58.4023 212.713 59.3789V60.0234H214.107C214.213 60.0234 214.32 60.1309 214.43 60.3457V60.4512C214.43 60.5488 214.252 60.7285 213.896 60.9902C213.717 60.9902 213.43 60.9531 213.035 60.8789C212.07 60.9531 211.248 60.9902 210.568 60.9902C210.424 60.7012 210.352 60.4492 210.352 60.2344L210.674 60.0234H211.746L211.852 59.4844C211.566 58.8242 211.424 58.2871 211.424 57.873C211.717 57.7324 211.932 57.6621 212.068 57.6621ZM215.613 59.2676C215.969 59.2676 216.219 59.877 216.363 61.0957C217.148 60.9512 217.828 60.8789 218.402 60.8789L218.619 61.2012V61.418C218.436 61.7734 218.148 61.9512 217.758 61.9512C217.684 61.9512 217.576 61.916 217.436 61.8457C216.65 61.9551 216.258 62.0977 216.258 62.2734V63.5625C216.184 63.7773 215.969 63.8848 215.613 63.8848C215.398 63.8418 215.291 63.5566 215.291 63.0293C215.291 62.8652 215.326 62.7207 215.396 62.5957L215.291 62.3848C215.291 62.3301 215.326 62.1152 215.396 61.7402C215.252 60.5684 215.18 59.8164 215.18 59.4844C215.469 59.4297 215.613 59.3574 215.613 59.2676ZM211.852 61.6289H212.174L212.713 62.4902C212.807 62.4902 212.914 62.7051 213.035 63.1348C213.035 63.7363 212.463 64.0938 211.318 64.207C210.959 64.1289 210.779 63.8438 210.779 63.3516L210.891 62.5957C210.816 62.4707 210.779 62.3281 210.779 62.168C211.244 61.8086 211.602 61.6289 211.852 61.6289ZM213.574 64.207H213.68C213.793 64.207 213.936 64.3496 214.107 64.6348V65.0684C214.107 65.998 214.215 66.4629 214.43 66.4629L217.225 66.1406C217.365 66.4336 217.436 66.6484 217.436 66.7852C217.205 66.9844 216.92 67.127 216.58 67.2129C216.506 67.2129 216.469 67.1777 216.469 67.1074C216.188 67.1777 215.223 67.2852 213.574 67.4297C213.285 67.1172 213.141 66.3301 213.141 65.0684V64.6348C213.141 64.5254 213.285 64.3828 213.574 64.207ZM223.523 57.123L223.846 57.5508L223.523 58.5176C223.777 58.8301 224.242 59.2598 224.918 59.8066V60.0234C224.918 60.1328 224.775 60.2754 224.49 60.4512C224.189 60.4512 223.652 60.0938 222.879 59.3789C221.902 60.3789 221.223 60.8789 220.84 60.8789C220.738 60.8789 220.631 60.7715 220.518 60.5566V60.3457C221.615 59.3184 222.223 58.6387 222.34 58.3066V58.1953H222.234C222.164 58.1953 221.557 58.2676 220.412 58.4121L220.195 58.0898V57.873C220.195 57.6113 221.305 57.3613 223.523 57.123ZM224.812 61.5234C225.312 61.6211 225.562 61.7637 225.562 61.9512V62.168C225.562 62.2773 225.42 62.4199 225.135 62.5957H223.74C223.596 62.6191 223.523 62.6914 223.523 62.8125V62.918C223.539 63.2773 223.611 63.457 223.74 63.457C223.826 63.457 224.184 63.4199 224.812 63.3457C225.312 63.5879 225.562 64.0898 225.562 64.8516C225.562 65.6562 224.668 66.1562 222.879 66.3516C222.754 66.2812 222.611 66.2461 222.451 66.2461H221.912C221.771 66.2656 221.701 66.3359 221.701 66.457V66.7793C221.721 66.9238 221.791 66.9961 221.912 66.9961C222.361 66.9961 223.436 66.8535 225.135 66.5684L225.346 66.8906V67.2129C225.346 67.498 224.309 67.748 222.234 67.9629H221.162C220.803 67.8027 220.623 67.4453 220.623 66.8906V65.707C220.74 65.4219 220.992 65.2793 221.379 65.2793C221.984 65.2793 222.557 65.3516 223.096 65.4961C224.025 65.3555 224.49 65.1406 224.49 64.8516C224.49 64.4922 224.418 64.3125 224.273 64.3125C224 64.3125 222.928 64.3848 221.057 64.5293C220.842 64.2949 220.734 64.1152 220.734 63.9902C220.84 63.7051 220.947 63.5625 221.057 63.5625H222.34C222.484 63.5625 222.557 63.4902 222.557 63.3457V62.918L222.451 62.7012C221.736 62.7754 221.199 62.8125 220.84 62.8125C219.91 62.8125 219.445 62.7051 219.445 62.4902V61.9512L219.551 61.7402L220.84 61.8457H222.234C222.43 61.8457 222.645 61.7734 222.879 61.6289C223.266 61.7031 223.588 61.7402 223.846 61.7402H223.951C224.455 61.5957 224.742 61.5234 224.812 61.5234ZM229.494 57.5625H229.705C229.92 57.5625 230.064 58.0273 230.139 58.957C231.709 60.5273 232.494 61.4922 232.494 61.8516V61.957C232.381 62.3164 232.168 62.4961 231.855 62.4961C230.516 60.9219 229.799 60.1348 229.705 60.1348H229.6C229.479 60.1348 229.264 60.5645 228.955 61.4238C228.393 62.3535 227.893 62.8184 227.455 62.8184C227.311 62.8184 227.238 62.7461 227.238 62.6016V62.0625C228.109 61.0703 228.754 59.6406 229.172 57.7734L229.494 57.5625ZM229.922 61.8516C230.25 61.9883 230.43 62.1309 230.461 62.2793V64.1016L230.566 64.3184C231.406 64.248 232.014 64.2129 232.389 64.2129C232.916 64.2129 233.201 64.3184 233.244 64.5293V64.7461C233.244 64.8438 233.066 65.0234 232.711 65.2852H229.6C229.205 65.2852 228.705 65.3203 228.1 65.3906L227.883 65.2852L227.238 65.3906H226.811C226.662 65.3594 226.52 65.1797 226.383 64.8516L226.705 64.3184C226.865 64.3184 227.008 64.3535 227.133 64.4238C227.742 64.3535 228.242 64.3184 228.633 64.3184H229.277C229.422 64.3184 229.494 64.2461 229.494 64.1016C229.494 63.8633 229.459 63.6855 229.389 63.5684L229.494 62.9238V62.2793C229.494 62.166 229.637 62.0234 229.922 61.8516ZM240.082 59.1621H240.293C240.406 59.1621 240.549 59.3047 240.721 59.5898V61.6289C240.721 61.7891 241.15 61.8965 242.01 61.9512L242.121 61.7402V60.4512C242.121 60.3457 242.227 60.2383 242.438 60.1289H242.76C243.049 60.1289 243.193 60.5586 243.193 61.418V64.418C243.193 64.5312 243.049 64.6758 242.76 64.8516C242.334 64.7031 242.121 64.5586 242.121 64.418V63.1348C242.121 62.9902 241.654 62.8828 240.721 62.8125C240.721 63.8125 240.471 64.3125 239.971 64.3125C239.783 64.3125 239.605 64.1328 239.438 63.7734C239.578 63.3086 239.648 62.9883 239.648 62.8125V61.6289C239.648 61.3711 239.686 61.0488 239.76 60.6621C239.76 60.5918 239.723 60.5566 239.648 60.5566C239.723 59.627 239.867 59.1621 240.082 59.1621ZM234.82 60.5566C234.82 60.7715 235.215 60.8789 236.004 60.8789H238.148C238.434 60.9961 238.576 61.2461 238.576 61.6289C238.404 63.6328 238.154 64.6348 237.826 64.6348H237.398C237.184 64.5645 237.076 64.3496 237.076 63.9902C237.361 63.1504 237.504 62.4707 237.504 61.9512L237.287 61.8457H235.359C234.5 61.8457 234.07 61.5957 234.07 61.0957C234.168 60.7363 234.418 60.5566 234.82 60.5566Z" fill="black"/>
<rect x="205" y="146.694" width="39" height="19.8849" rx="9.94246" fill="#B0E7F9"/>
<path d="M214.463 153.944C214.748 154.053 214.891 154.161 214.891 154.266V154.805L214.785 155.555C215.641 155.891 216.355 156.391 216.93 157.055C216.93 157.157 216.822 157.264 216.607 157.377H216.068C215.061 156.663 214.453 156.305 214.246 156.305C214.105 156.739 213.678 157.239 212.963 157.805H212.424C212.279 157.805 212.207 157.733 212.207 157.588V157.377C213.281 156.053 213.818 155.266 213.818 155.016C213.748 155.016 213.713 154.981 213.713 154.911L213.496 155.016H211.779C211.67 155.016 211.527 154.874 211.352 154.588V154.483L211.674 154.049L212.318 154.161C212.529 154.161 213.244 154.088 214.463 153.944ZM217.574 154.372H217.785C218.047 154.372 218.262 154.874 218.43 155.877H219.607C220.037 155.92 220.252 156.026 220.252 156.194V156.411C220.252 156.508 220.074 156.688 219.719 156.95C219.324 156.875 219.037 156.838 218.857 156.838L218.43 157.055L218.535 158.127V158.45C218.535 158.571 218.357 158.678 218.002 158.772C217.674 158.631 217.494 158.489 217.463 158.344V157.7C217.463 157.02 217.393 155.983 217.252 154.588L217.574 154.372ZM214.463 157.055H214.785C215.07 157.153 215.213 157.475 215.213 158.022V158.661L215.107 158.877L215.318 158.983H216.824C216.926 158.983 217.031 159.09 217.141 159.305V159.627C217.141 159.772 217.07 159.844 216.93 159.844H212.852C212.352 159.844 212.102 159.665 212.102 159.305L212.424 158.877L213.174 158.983H214.141C214.141 158.745 214.176 158.567 214.246 158.45C214.176 158.063 214.141 157.741 214.141 157.483V157.377C214.141 157.276 214.248 157.168 214.463 157.055ZM224.189 151.577H224.406C225.344 151.577 225.986 152.149 226.334 153.293V153.616C226.334 154.358 225.799 154.858 224.729 155.116C223.439 154.979 222.795 154.407 222.795 153.399C222.725 153.399 222.689 153.364 222.689 153.293C223.041 152.149 223.541 151.577 224.189 151.577ZM224.295 152.866V152.76C223.939 152.893 223.762 153.178 223.762 153.616C223.945 153.975 224.23 154.155 224.617 154.155C224.977 154.155 225.229 153.975 225.373 153.616V153.51C225.283 152.936 225.068 152.649 224.729 152.649L224.295 152.866ZM224.295 156.299L225.373 156.405H227.518C227.732 156.475 227.84 156.69 227.84 157.049C227.551 157.334 227.336 157.477 227.195 157.477C226.434 157.336 225.932 157.266 225.689 157.266H225.373C225.229 157.286 225.156 157.356 225.156 157.477V158.872L225.262 159.627C224.746 159.913 224.424 160.055 224.295 160.055C224.295 159.911 224.225 159.838 224.084 159.838C224.084 159.764 224.119 159.657 224.189 159.516L223.973 157.477H223.223C223.062 157.477 222.92 157.514 222.795 157.588C221.65 157.588 221.078 157.301 221.078 156.727C221.078 156.625 221.186 156.518 221.4 156.405C222.436 156.475 223.008 156.51 223.117 156.51C223.902 156.471 224.295 156.401 224.295 156.299ZM236.066 152.76C236.422 152.76 236.6 154.12 236.6 156.838V157.477C236.6 157.59 236.457 157.735 236.172 157.911H235.955C235.709 157.911 235.531 157.516 235.422 156.727L234.666 156.838H233.811C233.525 156.721 233.383 156.469 233.383 156.083L233.811 155.76C234.025 155.76 234.133 155.797 234.133 155.872C235.062 155.797 235.527 155.69 235.527 155.549V155.227C235.527 155.083 235.455 155.01 235.311 155.01H233.705L233.594 154.477V154.26C233.668 154.045 233.883 153.938 234.238 153.938C234.316 153.938 234.424 153.973 234.561 154.043L235.205 153.938H235.422V153.293C235.422 153.223 235.385 153.188 235.311 153.188C235.385 152.903 235.637 152.76 236.066 152.76ZM229.199 153.833C229.551 153.833 229.979 153.868 230.482 153.938C230.873 153.868 231.268 153.833 231.666 153.833C232.166 154.352 232.416 155.317 232.416 156.727C232.416 156.961 231.414 157.141 229.41 157.266C229.105 157.266 228.855 156.229 228.66 154.155C228.895 153.94 229.074 153.833 229.199 153.833ZM229.838 154.905V155.655C229.838 155.85 229.91 156.065 230.055 156.299C230.914 156.135 231.344 155.993 231.344 155.872V155.438L231.232 154.905H229.838ZM233.488 158.233C234.703 158.233 235.311 158.518 235.311 159.088C235.455 159.596 235.527 159.991 235.527 160.272C235.527 160.819 235.205 161.211 234.561 161.45C233.061 161.45 232.311 160.805 232.311 159.516C232.486 158.661 232.879 158.233 233.488 158.233ZM233.383 159.516V160.272C233.848 160.413 234.17 160.483 234.35 160.483C234.49 160.249 234.561 160.034 234.561 159.838C234.561 159.678 234.168 159.571 233.383 159.516Z" fill="black"/>
<path d="M222.529 85.166C222.928 85.166 223.25 85.8809 223.496 87.3105L223.713 87.416C224.307 87.416 225.486 87.3086 227.252 87.0938L227.574 87.5273V87.7383C227.574 88.1055 226.145 88.3574 223.285 88.4941H223.174C222.9 88.4941 222.508 87.5996 221.996 85.8105C222.094 85.5137 222.271 85.2988 222.529 85.166ZM223.496 90.4219H224.463C225.033 90.4219 225.785 90.459 226.719 90.5332C226.844 90.459 226.986 90.4219 227.146 90.4219C227.439 90.5195 227.654 90.6992 227.791 90.9609V91.1719C227.791 91.2773 227.684 91.3848 227.469 91.4941H226.719C226.555 91.4941 226.41 91.5312 226.285 91.6055C226.16 91.5312 226.018 91.4941 225.857 91.4941H225.752L225.535 91.6055L225.646 92.8887V93.4277C225.646 93.5293 225.539 93.6367 225.324 93.75H225.002C224.686 93.75 224.506 93.0352 224.463 91.6055L224.246 91.4941H223.174C222.666 91.4941 222.273 91.5664 221.996 91.7109C221.781 91.7109 221.566 91.4961 221.352 91.0664C221.352 90.6367 222.066 90.4219 223.496 90.4219ZM232.918 84.6152C233.203 84.877 233.346 85.4141 233.346 86.2266V86.9824C233.346 87.5098 233.238 87.7949 233.023 87.8379H232.807C232.521 87.7246 232.379 87.4746 232.379 87.0879V86.0156C232.379 85.8711 232.307 85.7988 232.162 85.7988C231.529 85.8691 231.137 85.9043 230.984 85.9043L230.768 85.7988C230.627 85.8691 230.52 85.9043 230.445 85.9043C230.367 85.9043 230.26 85.8691 230.123 85.7988L229.479 85.9043L229.156 85.4766V85.0488C229.156 84.9434 229.264 84.8359 229.479 84.7266H230.656C230.914 84.7266 231.238 84.7617 231.629 84.832C231.75 84.7617 232.18 84.6895 232.918 84.6152ZM231.629 88.2715C231.699 88.2715 231.734 88.3066 231.734 88.377C232.699 88.3066 233.416 88.2715 233.885 88.2715H235.385C235.529 88.2949 235.602 88.3652 235.602 88.4824V89.0215C235.602 89.127 235.494 89.2344 235.279 89.3438H232.484L232.273 89.4551C232.328 90.3145 232.398 90.7441 232.484 90.7441C232.414 91.8887 232.271 92.4609 232.057 92.4609H231.734L231.307 92.1387L231.412 91.0664C231.361 89.9922 231.219 89.4551 230.984 89.4551H229.045C228.936 89.4551 228.793 89.3105 228.617 89.0215V88.5938C228.641 88.4492 228.713 88.377 228.834 88.377H231.195C231.355 88.377 231.5 88.3418 231.629 88.2715ZM241.361 85.2715C241.686 85.4121 241.863 85.5547 241.895 85.6992V86.1328C241.895 86.2344 241.787 86.3418 241.572 86.4551H240.717C239.283 86.4551 238.566 86.5977 238.566 86.8828L238.889 88.5996H239.645C240.094 88.5996 240.666 88.4922 241.361 88.2773C241.654 88.375 241.869 88.5547 242.006 88.8164V89.0273C242.006 89.3555 241.004 89.5703 239 89.6719C238.211 89.6719 237.816 89.2793 237.816 88.4941C237.602 87.584 237.494 86.7246 237.494 85.916C237.494 85.7246 238.783 85.5098 241.361 85.2715ZM239.428 89.8887C239.713 90.2051 239.855 90.3848 239.855 90.4277C239.93 91.6777 239.967 92.4648 239.967 92.7891C240.037 92.7891 240.072 92.8242 240.072 92.8945C240.58 92.75 241.188 92.6777 241.895 92.6777C242.039 92.9668 242.111 93.2188 242.111 93.4336C241.779 93.8594 240.598 94.0723 238.566 94.0723C237.137 94.0723 236.422 93.7871 236.422 93.2168C236.559 92.8887 236.701 92.709 236.85 92.6777C237.568 92.8926 238.248 93 238.889 93C238.889 92.9297 238.926 92.8945 239 92.8945L238.783 90.4277C238.9 90.0684 239.115 89.8887 239.428 89.8887ZM249.963 84.3164H250.174C250.389 84.3164 250.533 84.7812 250.607 85.7109C252.178 87.2812 252.963 88.2461 252.963 88.6055V88.7109C252.85 89.0703 252.637 89.25 252.324 89.25C250.984 87.6758 250.268 86.8887 250.174 86.8887H250.068C249.947 86.8887 249.732 87.3184 249.424 88.1777C248.861 89.1074 248.361 89.5723 247.924 89.5723C247.779 89.5723 247.707 89.5 247.707 89.3555V88.8164C248.578 87.8242 249.223 86.3945 249.641 84.5273L249.963 84.3164ZM250.391 88.6055C250.719 88.7422 250.898 88.8848 250.93 89.0332V90.8555L251.035 91.0723C251.875 91.002 252.482 90.9668 252.857 90.9668C253.385 90.9668 253.67 91.0723 253.713 91.2832V91.5C253.713 91.5977 253.535 91.7773 253.18 92.0391H250.068C249.674 92.0391 249.174 92.0742 248.568 92.1445L248.352 92.0391L247.707 92.1445H247.279C247.131 92.1133 246.988 91.9336 246.852 91.6055L247.174 91.0723C247.334 91.0723 247.477 91.1074 247.602 91.1777C248.211 91.1074 248.711 91.0723 249.102 91.0723H249.746C249.891 91.0723 249.963 91 249.963 90.8555C249.963 90.6172 249.928 90.4395 249.857 90.3223L249.963 89.6777V89.0332C249.963 88.9199 250.105 88.7773 250.391 88.6055ZM257.117 85.6992H257.223L258.4 86.7773C258.615 87.1328 258.723 87.418 258.723 87.6328C258.652 88.2773 258.438 88.5996 258.078 88.5996V89.6719L258.189 90.2109H259.15C259.295 90.2305 259.367 90.3008 259.367 90.4219V90.5273C259.367 91.1719 258.795 91.4941 257.65 91.4941C257.182 91.4238 256.717 91.3887 256.256 91.3887H254.967C254.779 91.3887 254.637 91.1387 254.539 90.6387L254.967 90.3164H257.117V90.2109C257.117 89.3516 256.865 88.9219 256.361 88.9219C256.123 88.9219 255.873 88.457 255.611 87.5273C255.721 86.3086 256.223 85.6992 257.117 85.6992ZM260.762 86.4551H261.084C261.658 86.8027 261.945 88.5898 261.945 91.8164H262.051C262.051 92.0039 261.801 92.1465 261.301 92.2441C261.086 92.1738 260.979 92.1035 260.979 92.0332C260.85 88.6699 260.67 86.9883 260.439 86.9883C260.533 86.6328 260.641 86.4551 260.762 86.4551ZM256.9 86.9883L256.684 87.3105V87.8496C256.684 87.9512 256.791 88.0586 257.006 88.1719C257.506 88.0703 257.756 87.9258 257.756 87.7383V87.416C257.756 87.2012 257.471 87.0586 256.9 86.9883ZM268.982 84.7441H269.305C269.594 84.7441 269.773 85.2793 269.844 86.3496C269.98 86.4238 270.088 86.4609 270.166 86.4609C270.256 86.4609 270.613 86.4238 271.238 86.3496L271.561 86.7832V87.0996C271.561 87.3379 271.023 87.4824 269.949 87.5332C269.949 88.5332 269.664 89.0332 269.094 89.0332C268.879 88.7559 268.771 88.541 268.771 88.3887L268.877 87.4219L268.771 86.9941C268.771 86.9238 268.807 86.8887 268.877 86.8887C268.787 85.9473 268.715 85.4102 268.66 85.2773C268.754 84.9219 268.861 84.7441 268.982 84.7441ZM266.627 85.0664H266.732C267.123 85.0664 267.338 85.8164 267.377 87.3164V88.7109C267.377 89.0781 266.482 89.5078 264.693 90C264.693 90.0703 264.658 90.1055 264.588 90.1055C264.049 90.1055 263.691 89.498 263.516 88.2832C263.516 88.0684 263.301 87.1738 262.871 85.5996V85.2773C262.906 85.2773 263.049 85.2422 263.299 85.1719C263.568 85.1719 263.891 85.8145 264.266 87.0996H264.371C265.57 86.959 266.25 86.8164 266.41 86.6719C266.266 85.9922 266.193 85.5645 266.193 85.3887L266.627 85.0664ZM264.482 88.2832C264.596 88.7129 264.701 88.9277 264.799 88.9277C265.873 88.7285 266.41 88.3711 266.41 87.8555L266.193 87.7441H265.982C265.146 87.9355 264.646 88.1152 264.482 88.2832ZM270.271 89.6777C270.486 89.9551 270.594 90.1699 270.594 90.3223C270.594 90.584 269.486 90.7969 267.271 90.9609C267.127 91.1992 267.055 91.4141 267.055 91.6055C267.055 92.0352 267.197 92.25 267.482 92.25C267.74 92.25 268.385 92.1426 269.416 91.9277H269.627C269.842 91.998 269.949 92.2129 269.949 92.5723C269.949 92.9199 268.949 93.1699 266.949 93.3223C266.445 93.3223 266.193 92.8926 266.193 92.0332C266.123 91.6504 266.088 91.3301 266.088 91.0723C266.088 90.2832 266.803 89.8887 268.232 89.8887C268.924 89.748 269.604 89.6777 270.271 89.6777ZM278.609 86.5605H278.826C279.139 86.5605 279.316 87.168 279.359 88.3828V91.9277C279.359 91.998 279.396 92.0332 279.471 92.0332C279.369 92.3887 279.117 92.5664 278.715 92.5664C278.57 92.5664 278.428 92.3887 278.287 92.0332L278.398 91.4941V90.4219C278.398 88.9141 278.326 87.7344 278.182 86.8828L278.609 86.5605ZM272.604 87.2051C273.314 87.2754 273.85 87.3105 274.209 87.3105H274.748L275.82 87.2051C275.965 87.377 276.037 87.5195 276.037 87.6328C276.037 88.0117 275.822 88.5488 275.393 89.2441C276.178 90.2207 276.57 90.8633 276.57 91.1719C276.309 91.3867 276.059 91.4941 275.82 91.4941C275.414 90.8535 275.092 90.4609 274.854 90.3164C273.889 91.3906 273.316 91.9277 273.137 91.9277C272.949 91.9277 272.771 91.748 272.604 91.3887C272.604 91.2754 272.889 90.9531 273.459 90.4219C274.146 89.5039 274.576 88.7539 274.748 88.1719H273.676C272.816 88.1719 272.387 88.0273 272.387 87.7383V87.5273L272.604 87.2051ZM290.867 84.6211H291.189C291.479 84.6211 291.693 85.2656 291.834 86.5547C291.908 86.5547 291.945 86.5898 291.945 86.6602L292.479 86.5547H293.34C293.449 86.5547 293.592 86.6973 293.768 86.9824V87.0938C293.768 87.1641 293.588 87.3418 293.229 87.627C293.158 87.627 293.123 87.5918 293.123 87.5215L292.156 87.7383C292.156 87.6641 292.121 87.627 292.051 87.627C291.906 87.8027 291.834 87.9473 291.834 88.0605C291.834 88.1113 291.871 88.3262 291.945 88.7051C291.844 89.0605 291.592 89.2383 291.189 89.2383C291.01 89.2383 290.902 89.0957 290.867 88.8105C290.867 88.0332 290.797 86.6738 290.656 84.7324L290.867 84.6211ZM285.928 85.377H286.145C287.109 85.377 287.717 86.1641 287.967 87.7383V88.0605C287.768 88.8457 287.088 89.2383 285.928 89.2383C285.006 89.2383 284.434 88.4512 284.211 86.877C284.75 85.877 285.322 85.377 285.928 85.377ZM285.178 87.1992C285.428 87.9141 285.715 88.2715 286.039 88.2715C286.684 88.2012 287.006 88.0586 287.006 87.8438V87.7383C286.908 86.8789 286.621 86.4492 286.145 86.4492C285.711 86.4492 285.389 86.6992 285.178 87.1992ZM289.256 89.3496C290.662 89.8457 291.379 90.168 291.406 90.3164L291.512 90.5273V90.8496C291.902 90.8496 292.117 91.0996 292.156 91.5996C292.055 91.5996 291.947 91.707 291.834 91.9219V92.0332C292.123 92.334 292.268 92.6191 292.268 92.8887C292.268 93.502 291.766 93.9316 290.762 94.1777C290.418 94.1074 290.096 93.8574 289.795 93.4277C288.42 93.7871 287.346 93.9668 286.572 93.9668C286.479 93.9668 286.336 93.752 286.145 93.3223L286.25 92.7832V90.8496C286.25 90.7402 286.395 90.5977 286.684 90.4219H286.789C286.898 90.4219 287.041 90.5645 287.217 90.8496V91.4941C287.217 92.4238 287.324 92.8887 287.539 92.8887C287.941 92.8887 288.586 92.7109 289.473 92.3555C289.613 92.4258 289.721 92.4609 289.795 92.4609L290.117 92.0332V91.9219H288.934C288.648 91.7812 288.506 91.5684 288.506 91.2832L288.723 90.8496L290.012 90.9609H290.439C290.439 90.8867 289.975 90.6348 289.045 90.2051L288.934 89.9941V89.6719C288.934 89.5664 289.041 89.459 289.256 89.3496ZM295.988 84.1992C296.418 84.1992 296.705 84.6992 296.85 85.6992C296.92 85.6992 297.027 85.9141 297.172 86.3438C298.332 86.0586 299.047 85.916 299.316 85.916C299.703 85.916 299.953 86.0957 300.066 86.4551C300.066 86.8848 299.424 87.0996 298.139 87.0996C298.139 87.2402 297.637 87.3477 296.633 87.4219C296.234 87.0898 295.877 86.2305 295.561 84.8438V84.7383C295.564 84.6328 295.707 84.4531 295.988 84.1992ZM301.678 88.2773L302 88.7051V88.9219C302 89.2578 300.176 89.4727 296.527 89.5664H296.416C295.201 89.5664 294.594 89.2793 294.594 88.7051L295.021 88.3828L295.561 88.4941C295.631 88.4941 295.666 88.457 295.666 88.3828L296.094 88.4941C296.574 88.4941 298.436 88.4219 301.678 88.2773ZM296.416 90.4277C296.885 90.4277 297.207 91.2148 297.383 92.7891C298.727 92.7148 299.873 92.6074 300.822 92.4668C301.037 92.7441 301.145 92.959 301.145 93.1113C301.145 93.5059 300.25 93.7559 298.461 93.8613C298.285 93.8613 297.748 93.8965 296.85 93.9668C296.584 93.9668 296.262 92.9297 295.883 90.8555C295.953 90.5703 296.131 90.4277 296.416 90.4277ZM313.062 86.3496C313.562 86.3496 313.812 87.1016 313.812 88.6055V90.8555C313.812 91 313.74 91.0723 313.596 91.0723H313.062C312.848 91.0723 312.74 90.6797 312.74 89.8945L312.846 89.3555C312.529 89.1406 312.209 89.0332 311.885 89.0332L310.379 89.1387C310.055 89.002 309.877 88.8594 309.846 88.7109V88.5C309.846 88.3906 309.988 88.2832 310.273 88.1777C310.668 88.248 310.953 88.2832 311.129 88.2832L311.346 88.1777C311.416 88.1777 311.451 88.2129 311.451 88.2832C312.311 88.2832 312.74 88.1406 312.74 87.8555C312.67 87.2227 312.635 86.8281 312.635 86.6719C312.92 86.5312 313.062 86.4238 313.062 86.3496ZM314.668 86.3496C315.172 86.3496 315.424 86.7793 315.424 87.6387C315.494 87.9473 315.529 88.4844 315.529 89.25V90.8555L315.635 91.9277L315.424 92.0391H314.779C314.564 91.9922 314.457 91.7051 314.457 91.1777C314.457 90.7676 314.492 90.5176 314.562 90.4277C314.492 90.041 314.422 88.7539 314.352 86.5664L314.668 86.3496ZM308.662 86.4609H309.096C309.217 86.4609 309.324 86.6387 309.418 86.9941L308.879 88.9277C309.953 90.1816 310.49 91.0039 310.49 91.3945V91.5C310.49 91.6445 310.418 91.7168 310.273 91.7168H309.951C309.912 91.7168 309.447 91.252 308.557 90.3223H308.451C308.322 90.3223 308.18 90.6426 308.023 91.2832C307.734 91.7871 307.447 92.0391 307.162 92.0391C306.877 91.9297 306.734 91.8223 306.734 91.7168V91.6055C306.734 91.4492 307.02 90.5918 307.59 89.0332C308.117 87.3184 308.475 86.4609 308.662 86.4609ZM322.361 84.9609H322.467C322.658 84.9609 322.908 85.4609 323.217 86.4609C323.287 86.3867 323.717 86.3145 324.506 86.2441L324.717 86.5664V86.8887C324.717 87.084 324.252 87.2988 323.322 87.5332L323.434 89.25C323.066 89.3906 322.779 89.4609 322.572 89.4609C322.357 89.2461 322.18 88.1738 322.039 86.2441C321.895 86.2441 321.822 85.959 321.822 85.3887L322.361 84.9609ZM318.389 85.3887H318.5C318.609 85.3887 318.752 85.5312 318.928 85.8164C318.643 86.6914 318.5 87.2285 318.5 87.4277C319.215 88.0957 319.572 88.5957 319.572 88.9277V89.0332C319.572 89.1348 319.465 89.2422 319.25 89.3555H318.928L317.961 88.5H317.855C317.855 88.7852 317.57 89.2129 317 89.7832H316.678C316.533 89.7832 316.461 89.7129 316.461 89.5723V89.1387C317.609 86.6738 318.252 85.4238 318.389 85.3887ZM321.289 90.3223H321.5C322.027 90.3223 322.529 90.5723 323.006 91.0723C323.006 92.7871 322.504 93.6445 321.5 93.6445C320.215 93.6445 319.572 93.1094 319.572 92.0391V91.8223C319.572 91.1738 320.145 90.6738 321.289 90.3223ZM320.539 91.9277V92.25C320.652 92.5352 320.902 92.6777 321.289 92.6777H321.5C321.613 92.6777 321.758 92.5352 321.934 92.25V92.1445C321.934 91.7539 321.789 91.4668 321.5 91.2832C321.109 91.2832 320.789 91.498 320.539 91.9277ZM328.121 84.416C329.191 84.5879 329.727 85.0156 329.727 85.6992C329.727 86.5586 329.084 86.9883 327.799 86.9883C327.357 86.9883 326.963 86.416 326.615 85.2715C326.615 84.7012 327.117 84.416 328.121 84.416ZM327.688 85.3828V85.4883C327.688 85.6211 327.867 85.8359 328.227 86.1328C328.551 85.9922 328.729 85.8477 328.76 85.6992C328.76 85.5977 328.652 85.4922 328.438 85.3828H327.688ZM325.971 87.7383C327.096 87.832 327.705 87.9043 327.799 87.9551C328.186 87.8848 328.506 87.8496 328.76 87.8496H329.943C330.053 87.8496 330.195 87.9922 330.371 88.2773V88.4941C330.371 88.5645 330.229 88.707 329.943 88.9219L328.121 88.7051C327.742 88.7793 327.383 88.8164 327.043 88.8164H326.082C325.984 88.8164 325.805 88.6367 325.543 88.2773V88.0605C325.543 87.9551 325.686 87.8477 325.971 87.7383ZM328.871 89.7773L329.082 89.8887C329.207 89.8145 329.352 89.7773 329.516 89.7773C330.016 89.7773 330.266 90.3496 330.266 91.4941C329.949 91.7988 328.732 92.2285 326.615 92.7832V92.8887C326.615 93.0137 326.688 93.2285 326.832 93.5332L330.799 93L330.91 93.2109V93.6445C330.91 93.8594 330.766 93.9668 330.477 93.9668C329.93 93.9668 328.607 94.1094 326.51 94.3945H326.188C325.926 94.3945 325.711 93.8223 325.543 92.6777V92.4609C325.543 92.2461 326.723 91.8164 329.082 91.1719L329.193 90.9609C329.193 90.8867 329.049 90.7793 328.76 90.6387L326.082 90.9609C325.969 90.9609 325.824 90.8184 325.648 90.5332V90.4219C325.762 89.9922 326.836 89.7773 328.871 89.7773ZM223.93 103.811H224.246C225.035 103.811 225.502 104.346 225.646 105.416V105.85C225.646 106.154 225.145 106.439 224.141 106.705C223.141 106.471 222.641 106.041 222.641 105.416C222.805 104.346 223.234 103.811 223.93 103.811ZM223.713 105.527L224.246 105.85C224.574 105.709 224.754 105.564 224.785 105.416V105.205C224.785 105.092 224.643 104.949 224.357 104.777H224.141C223.98 104.777 223.838 105.027 223.713 105.527ZM227.896 104.666C228.182 104.83 228.324 105.725 228.324 107.35V108.961C228.324 109.031 228.361 109.066 228.436 109.066C228.389 109.281 228.174 109.461 227.791 109.605C227.506 109.496 227.363 109.389 227.363 109.283V108.1C227.363 107.861 227.398 107.684 227.469 107.566C227.398 106.695 227.291 105.908 227.146 105.205C227.244 104.846 227.494 104.666 227.896 104.666ZM224.246 107.566C224.484 107.707 224.699 107.777 224.891 107.777C225 107.777 225.502 107.742 226.396 107.672L226.607 107.994V108.211C226.463 108.496 226.285 108.639 226.074 108.639C225.996 108.639 225.889 108.604 225.752 108.533C225.107 108.604 224.785 108.709 224.785 108.85V110.139C224.742 110.354 224.457 110.461 223.93 110.461C223.785 110.289 223.713 110.146 223.713 110.033L223.818 109.389C223.748 108.889 223.641 108.639 223.496 108.639C223.316 108.639 223.031 108.674 222.641 108.744C221.781 108.674 221.352 108.531 221.352 108.316V107.889L221.457 107.672C222.172 107.742 222.709 107.777 223.068 107.777H223.391C223.699 107.777 223.984 107.707 224.246 107.566ZM230.979 103.699H231.406C231.645 103.699 231.896 104.236 232.162 105.311L232.051 105.85H232.162L232.695 105.744C232.984 106.045 233.129 106.33 233.129 106.6C232.84 106.744 232.588 106.816 232.373 106.816L231.945 106.6C231.23 106.67 230.693 106.705 230.334 106.705C229.799 106.705 229.441 106.527 229.262 106.172V105.955C229.262 105.814 229.477 105.707 229.906 105.633C230.141 105.777 230.355 105.85 230.551 105.85H231.195C231.195 105.635 231.23 105.527 231.301 105.527C230.941 104.672 230.762 104.17 230.762 104.021V103.916C230.785 103.771 230.857 103.699 230.979 103.699ZM236.773 104.238H237.207C237.316 104.238 237.459 104.381 237.635 104.666V107.244C237.635 109.033 237.455 109.928 237.096 109.928H236.773C236.676 109.928 236.568 109.713 236.451 109.283L236.668 107.672L236.451 107.566C236.275 107.566 235.883 107.639 235.273 107.783V108.211C235.273 108.371 235.238 108.514 235.168 108.639L235.273 108.855C235.273 109.355 234.986 109.605 234.412 109.605C234.271 109.43 234.201 109.287 234.201 109.178C234.201 106.17 234.416 104.666 234.846 104.666H235.057C235.17 104.666 235.314 104.811 235.49 105.1C235.416 105.705 235.379 106.205 235.379 106.6C235.453 106.6 235.49 106.635 235.49 106.705C236.275 106.705 236.668 106.562 236.668 106.277C236.668 105.988 236.633 105.344 236.562 104.344L236.773 104.238ZM230.979 107.139H231.406C231.98 107.139 232.268 107.424 232.268 107.994V108.105C232.268 108.688 231.695 109.115 230.551 109.389C230.266 109.389 230.051 109.246 229.906 108.961V108.316C230.051 107.531 230.408 107.139 230.979 107.139ZM246.137 103.482C246.512 103.553 246.727 103.588 246.781 103.588L247.854 103.482C248.068 103.76 248.176 103.975 248.176 104.127C248.176 104.51 247.674 104.725 246.67 104.771V105.633C246.693 105.773 246.766 105.844 246.887 105.844H247.426C247.684 105.844 248.006 105.809 248.393 105.738C248.678 105.738 248.893 105.918 249.037 106.277C249.037 106.734 248.355 106.984 246.992 107.027L246.781 106.922C246.641 106.992 246.533 107.027 246.459 107.027C246.1 106.906 245.92 106.727 245.92 106.488C245.92 106.688 244.953 106.867 243.02 107.027L242.375 104.344C242.375 103.84 243.27 103.588 245.059 103.588C245.348 103.697 245.492 103.805 245.492 103.91V104.021C245.492 104.451 245.24 104.666 244.736 104.666C243.951 104.721 243.559 104.828 243.559 104.988C243.629 105.379 243.664 105.664 243.664 105.844C244.121 105.844 244.73 105.773 245.492 105.633C245.492 105.703 245.527 105.738 245.598 105.738C245.598 105.668 245.633 105.633 245.703 105.633L245.598 104.344C245.598 103.953 245.777 103.666 246.137 103.482ZM249.787 104.666H250.109C250.395 104.779 250.537 105.029 250.537 105.416V105.955C250.537 106.209 250.502 106.531 250.432 106.922L250.537 107.133C250.537 107.293 250.502 107.438 250.432 107.566C250.502 108.348 250.537 109.027 250.537 109.605V110.033C250.537 110.127 250.322 110.271 249.893 110.467C249.607 110.393 249.465 110.178 249.465 109.822V107.889L249.359 107.244L249.465 107.027C249.395 106.418 249.359 105.916 249.359 105.521V105.416C249.359 105.029 249.502 104.779 249.787 104.666ZM246.137 107.889C246.645 108.029 246.93 108.1 246.992 108.1C247.371 108.029 247.586 107.994 247.637 107.994C247.934 108.092 248.148 108.271 248.281 108.533V108.639C248.098 108.998 247.812 109.178 247.426 109.178L247.209 109.066L246.67 109.283L246.781 110.033V110.25C246.781 110.363 246.637 110.506 246.348 110.678H246.025C245.811 110.607 245.703 110.393 245.703 110.033V109.283H245.598C245.375 109.283 244.695 109.318 243.559 109.389L243.236 108.961V108.744C243.236 108.424 244.131 108.209 245.92 108.1C245.943 107.959 246.016 107.889 246.137 107.889ZM258.02 103.482H258.236C258.338 103.482 258.445 103.59 258.559 103.805V105.416L258.986 105.949V106.166C258.631 106.396 258.453 107.076 258.453 108.205V108.961C258.453 109.07 258.309 109.213 258.02 109.389H257.697C257.627 109.389 257.52 109.246 257.375 108.961L257.486 108.205V106.594C256.643 106.523 256.033 106.488 255.658 106.488H255.336C255.051 106.344 254.908 106.129 254.908 105.844C255.143 105.629 255.32 105.521 255.441 105.521C255.812 105.521 256.529 105.557 257.592 105.627L257.697 105.094V103.805C257.697 103.699 257.805 103.592 258.02 103.482ZM252.869 105.199C254.014 105.598 254.586 106.242 254.586 107.133V107.561C254.586 108.26 253.977 108.727 252.758 108.961C251.973 108.961 251.508 108.424 251.363 107.35V107.133C251.574 105.844 252.076 105.199 252.869 105.199ZM252.33 106.916V107.35C252.33 107.732 252.473 107.982 252.758 108.1C253.402 108.1 253.725 107.812 253.725 107.238C253.725 106.855 253.582 106.605 253.297 106.488H253.191C252.656 106.574 252.369 106.717 252.33 106.916ZM265.824 103.699H266.041C266.428 103.824 266.641 104.541 266.68 105.85H267.002C267.088 105.85 267.482 105.777 268.186 105.633L268.508 106.061V106.383C268.508 106.617 267.936 106.869 266.791 107.139V108.639C266.791 109.01 266.684 109.225 266.469 109.283C266.082 109.283 265.832 109.141 265.719 108.855V108.744C265.719 107.564 265.646 105.955 265.502 103.916L265.824 103.699ZM263.141 104.133C263.426 104.238 263.568 104.346 263.568 104.455V104.777C263.568 104.887 263.426 105.029 263.141 105.205H263.035C261.602 105.248 260.885 105.391 260.885 105.633V105.744C260.885 107.029 260.992 107.672 261.207 107.672H263.246C263.371 107.672 263.479 107.852 263.568 108.211C263.432 108.535 263.289 108.713 263.141 108.744H262.602C262.188 108.744 261.615 108.781 260.885 108.855C260.17 108.855 259.812 107.496 259.812 104.777C259.812 104.52 260.922 104.305 263.141 104.133ZM275.34 103.916H275.445C276.09 103.916 276.412 104.668 276.412 106.172C276.588 106.312 276.73 106.383 276.84 106.383C276.918 106.383 277.025 106.348 277.162 106.277C278.381 106.277 278.99 106.564 278.99 107.139L278.562 107.566L278.023 107.461H276.734L276.518 107.566C276.592 108.406 276.629 109.014 276.629 109.389V110.25C276.629 110.363 276.486 110.506 276.201 110.678H275.879C275.68 110.678 275.535 110.32 275.445 109.605C275.445 109.535 275.482 109.5 275.557 109.5C275.557 107.629 275.377 105.91 275.018 104.344C275.123 104.059 275.23 103.916 275.34 103.916ZM269.756 105.422H269.867C270.223 105.422 270.508 106.209 270.723 107.783C271.039 107.924 271.541 107.994 272.229 107.994L272.979 107.889C273.264 107.994 273.406 108.102 273.406 108.211V108.639C273.289 108.924 273.039 109.066 272.656 109.066C270.723 109.066 269.756 108.854 269.756 108.428L269.328 105.744L269.756 105.422ZM280.244 103.693C280.748 103.693 281 105.305 281 108.527L281.105 109.277C281.105 109.547 280.891 109.834 280.461 110.139H280.139C279.994 110.139 279.922 110.031 279.922 109.816C279.922 109.617 279.959 108.9 280.033 107.666L279.922 107.455C279.922 107.381 279.959 107.344 280.033 107.344C279.959 106.973 279.887 105.826 279.816 103.904C279.992 103.764 280.135 103.693 280.244 103.693ZM283.32 102.199C283.75 102.199 284.037 102.699 284.182 103.699C284.252 103.699 284.359 103.914 284.504 104.344C285.664 104.059 286.379 103.916 286.648 103.916C287.035 103.916 287.285 104.096 287.398 104.455C287.398 104.885 286.756 105.1 285.471 105.1C285.471 105.24 284.969 105.348 283.965 105.422C283.566 105.09 283.209 104.23 282.893 102.844V102.738C282.896 102.633 283.039 102.453 283.32 102.199ZM289.01 106.277L289.332 106.705V106.922C289.332 107.258 287.508 107.473 283.859 107.566H283.748C282.533 107.566 281.926 107.279 281.926 106.705L282.354 106.383L282.893 106.494C282.963 106.494 282.998 106.457 282.998 106.383L283.426 106.494C283.906 106.494 285.768 106.422 289.01 106.277ZM283.748 108.428C284.217 108.428 284.539 109.215 284.715 110.789C286.059 110.715 287.205 110.607 288.154 110.467C288.369 110.744 288.477 110.959 288.477 111.111C288.477 111.506 287.582 111.756 285.793 111.861C285.617 111.861 285.08 111.896 284.182 111.967C283.916 111.967 283.594 110.93 283.215 108.855C283.285 108.57 283.463 108.428 283.748 108.428ZM225.541 120.188C226.037 120.188 226.324 120.904 226.402 122.338L226.08 122.982H227.369L228.014 122.871C228.443 123.02 228.658 123.307 228.658 123.732C228.396 123.947 228.146 124.055 227.908 124.055H226.941C225.996 124.055 224.312 124.234 221.891 124.594C221.699 124.594 221.52 124.414 221.352 124.055C221.352 123.555 222.211 123.305 223.93 123.305C223.93 123.16 224.574 123.088 225.863 123.088V122.982C225.434 122.697 225.219 122.16 225.219 121.371L225.008 121.26C223.809 121.404 222.805 121.477 221.996 121.477C221.852 121.242 221.779 121.027 221.779 120.832V120.615C221.779 120.475 221.887 120.404 222.102 120.404C223.066 120.404 224.213 120.332 225.541 120.188ZM226.08 125.455C226.795 125.455 227.152 126.062 227.152 127.277C227.152 127.918 226.4 128.385 224.896 128.678C224.682 128.678 224.574 128.748 224.574 128.889L224.791 129C225.412 129 226.307 128.82 227.475 128.461C227.803 128.602 227.982 128.744 228.014 128.889V129.211C228.014 129.52 227.082 129.807 225.219 130.072H225.008C224.004 130.072 223.502 129.75 223.502 129.105V128.678C223.596 127.889 223.918 127.494 224.469 127.494C225.543 127.424 226.08 127.281 226.08 127.066V126.85C226.08 126.748 225.973 126.641 225.758 126.527H225.541C225.166 126.527 224.414 126.6 223.285 126.744C223 126.455 222.857 126.24 222.857 126.1C222.857 125.67 223.932 125.455 226.08 125.455ZM230.451 120.844C230.596 120.844 230.668 120.879 230.668 120.949L231.74 120.844H233.885C234.1 120.887 234.207 121.172 234.207 121.699V123.205C234.207 123.99 233.635 124.383 232.49 124.383C231.201 124.504 230.557 124.648 230.557 124.816C230.6 125.531 230.707 125.889 230.879 125.889H231.096C232.127 125.889 233.271 125.781 234.529 125.566C234.744 125.801 234.852 125.98 234.852 126.105C234.852 126.605 234.029 126.855 232.385 126.855C232.643 127.105 232.82 127.713 232.918 128.678H233.352C233.605 128.678 233.926 128.643 234.312 128.572C234.641 128.709 234.82 128.852 234.852 129V129.322C234.852 129.607 234.207 129.75 232.918 129.75C232.359 129.75 231.357 129.715 229.912 129.645V129.75C229.627 129.68 229.484 129.467 229.484 129.111V128.895C229.484 128.793 229.592 128.686 229.807 128.572C230.646 128.643 231.254 128.678 231.629 128.678L231.74 128.467V127.389C231.74 127.35 231.883 127.172 232.168 126.855H230.234C229.734 126.598 229.484 125.953 229.484 124.922V124.061C229.484 124.021 229.627 123.844 229.912 123.527C229.99 123.527 230.098 123.562 230.234 123.633C232.168 123.508 233.135 123.33 233.135 123.1V122.021C233.135 121.881 233.062 121.811 232.918 121.811C231.988 121.881 231.238 121.916 230.668 121.916H230.557C230.408 121.885 230.266 121.705 230.129 121.377L230.451 120.844ZM242.428 120.633C242.838 120.633 243.125 121.635 243.289 123.639V124.066L243.178 124.605C243.537 124.605 243.717 125.141 243.717 126.211C242.869 126.926 241.832 127.283 240.605 127.283V127.605L240.711 128.145H241.145C241.719 128.145 242.396 128.107 243.178 128.033C243.467 128.143 243.611 128.25 243.611 128.355V128.467C243.611 128.896 243.396 129.111 242.967 129.111H240.5C239.926 129.111 239.639 128.646 239.639 127.717L239.533 126.645L239.961 126.322H240.072C241.787 126.322 242.645 126.107 242.645 125.678V125.355H242.539C242.383 125.355 241.988 125.32 241.355 125.25L241.145 125.355C240.695 125.355 240.373 125.176 240.178 124.816V124.605L240.389 124.283L241.355 124.389L242.322 124.283C242.322 123.494 242.18 123.1 241.895 123.1C241.719 123.1 241.182 123.137 240.283 123.211C239.928 123.109 239.75 122.859 239.75 122.461V122.35C239.75 122.303 239.857 122.195 240.072 122.027L240.605 122.139H241.572L242.105 122.027L242 120.955C242 120.779 242.143 120.672 242.428 120.633ZM238.783 121.172H239.105C239.375 121.172 239.553 122.137 239.639 124.066C239.713 124.066 239.75 124.316 239.75 124.816C239.75 125.406 238.748 125.764 236.744 125.889C236.314 125.807 236.1 125.092 236.1 123.744C236.029 123.744 235.887 123.137 235.672 121.922C235.906 121.777 236.121 121.705 236.316 121.705C236.562 121.971 236.705 122.33 236.744 122.783H236.85C237.994 122.783 238.566 122.676 238.566 122.461V122.35L238.461 121.705C238.551 121.35 238.658 121.172 238.783 121.172ZM236.961 123.961L237.283 124.816C237.389 124.746 237.854 124.676 238.678 124.605V123.855C238.678 123.711 238.605 123.639 238.461 123.639C237.461 123.639 236.961 123.746 236.961 123.961ZM249.746 120.949H250.174C250.748 121.707 251.035 122.316 251.035 122.777L251.785 122.666H251.891C252.004 122.666 252.148 122.811 252.324 123.1V123.311C252.25 123.525 252.035 123.633 251.68 123.633H251.246C250.988 123.633 250.666 123.598 250.279 123.527L249.746 123.744C248.887 123.67 248.457 123.525 248.457 123.311V122.988C248.457 122.883 248.6 122.775 248.885 122.666L249.957 122.777L250.068 122.561C249.709 122.068 249.529 121.604 249.529 121.166C249.553 121.021 249.625 120.949 249.746 120.949ZM253.719 121.699H254.041C254.326 121.699 254.504 122.201 254.574 123.205H254.896C255.057 123.205 255.201 123.17 255.33 123.1C255.467 123.17 255.572 123.205 255.646 123.205L255.758 122.988L255.646 121.916L255.969 121.699H256.291C256.58 121.699 256.76 122.451 256.83 123.955C256.83 125.314 256.508 125.994 255.863 125.994C255.719 125.994 255.646 125.924 255.646 125.783V124.061C254.932 124.166 254.574 124.311 254.574 124.494V125.461C254.531 125.676 254.246 125.783 253.719 125.783C253.645 125.643 253.607 125.535 253.607 125.461L253.502 121.811L253.719 121.699ZM250.391 123.955C251.035 124.291 251.357 124.686 251.357 125.139V125.244C251.357 125.912 250.785 126.307 249.641 126.428C249.211 126.26 248.996 125.973 248.996 125.566C249.176 124.492 249.568 123.955 250.174 123.955H250.391ZM252.002 127.178C252.58 127.178 253.867 127.213 255.863 127.283C256.148 127.428 256.291 128.357 256.291 130.072C256.029 130.217 255.744 130.289 255.436 130.289L255.219 129.967V128.355C255.176 128.141 254.891 128.033 254.363 128.033V128.145L254.146 128.033H252.002C251.896 128.033 251.789 127.926 251.68 127.711V127.389C251.68 127.248 251.787 127.178 252.002 127.178ZM263.557 120.521H263.668C264.07 120.521 264.355 121.701 264.523 124.061C264.398 124.775 264.219 125.133 263.984 125.133H263.879C263.594 125.133 263.379 123.883 263.234 121.383C263.164 121.383 263.129 121.203 263.129 120.844L263.557 120.521ZM259.156 121.594C260.086 121.844 260.551 122.309 260.551 122.988C260.551 124.277 260.051 124.922 259.051 124.922H258.945C258.234 124.922 257.805 124.314 257.656 123.1C258.008 122.096 258.508 121.594 259.156 121.594ZM258.623 123.1V123.205C258.623 123.705 258.873 123.955 259.373 123.955L259.59 123.633V122.988C259.59 122.809 259.445 122.701 259.156 122.666C258.832 122.807 258.654 122.951 258.623 123.1ZM259.373 125.672H259.695C259.961 125.672 260.141 126.531 260.234 128.25C260.371 128.32 260.477 128.355 260.551 128.355C261.688 128.141 262.547 128.033 263.129 128.033H263.451C263.553 128.033 263.66 128.141 263.773 128.355V128.678C263.773 128.916 262.414 129.131 259.695 129.322C259.344 129.322 259.129 128.178 259.051 125.889L259.373 125.672ZM272.211 122.455H272.533C272.854 122.455 273.139 123.242 273.389 124.816H273.605C273.723 124.816 274.152 124.779 274.895 124.705C275.25 124.807 275.428 125.057 275.428 125.455C275.201 125.572 274.521 125.752 273.389 125.994L273.283 126.744C273.283 126.787 273.318 127.252 273.389 128.139L272.855 128.461C272.527 128.324 272.348 128.182 272.316 128.033V126.316C272.316 126.156 272.354 126.014 272.428 125.889C272.354 125.764 272.316 125.619 272.316 125.455V124.816C272.316 124.418 272.209 123.738 271.994 122.777V122.666C272.018 122.525 272.09 122.455 272.211 122.455ZM270.172 123.738C270.5 123.879 270.68 124.023 270.711 124.172V124.494C270.422 125.35 270.277 125.814 270.277 125.889C271.016 126.682 271.41 127.254 271.461 127.605L271.139 127.816H270.711L269.85 126.961H269.744C269.627 127.82 269.27 128.25 268.672 128.25C268.559 128.25 268.414 128.105 268.238 127.816C269.25 125.348 269.859 123.988 270.066 123.738H270.172ZM267.061 123.955H267.277C267.387 123.955 267.529 124.098 267.705 124.383V124.494C267.42 125.295 267.277 125.795 267.277 125.994C267.918 126.596 268.238 126.918 268.238 126.961V127.283C268.238 127.424 268.168 127.494 268.027 127.494H267.811C267.553 127.494 267.268 127.352 266.955 127.066H266.844L266.199 128.139L265.771 128.25C265.486 128.141 265.344 128.033 265.344 127.928V127.816C266.191 125.449 266.764 124.162 267.061 123.955ZM284.885 121.066C285.17 121.172 285.312 121.277 285.312 121.383V121.705C285.312 121.893 285.027 122.037 284.457 122.139C284.32 122.064 284.213 122.027 284.135 122.027L284.029 122.244C284.072 123.604 284.215 124.283 284.457 124.283L284.99 124.389C284.99 123.889 285.135 123.639 285.424 123.639L285.957 123.744C286.742 123.689 287.135 123.582 287.135 123.422V123.316L286.602 123.211H285.312C285.211 123.211 285.104 123.104 284.99 122.889V122.672C284.99 122.559 285.135 122.416 285.424 122.244H286.924L287.135 122.139L287.029 121.6V121.494C287.029 121.381 287.172 121.238 287.457 121.066H287.568C287.924 121.246 288.102 121.531 288.102 121.922V122.672C288.102 124.602 287.887 125.566 287.457 125.566H287.246C287.074 125.367 286.932 125.082 286.818 124.711C286.693 124.637 286.549 124.6 286.385 124.6L285.424 124.711C285.283 124.637 285.176 124.6 285.102 124.6C285.102 124.795 284.994 125.01 284.779 125.244L283.812 125.139C282.34 125.279 281.34 125.35 280.812 125.35C280.699 125.35 280.557 125.207 280.385 124.922V124.711C280.385 124.582 280.705 124.475 281.346 124.389V124.172C281.346 124.102 281.311 124.066 281.24 124.066L281.346 123.527C281.346 122.742 281.168 122.35 280.812 122.35C280.441 122.35 280.227 122.242 280.168 122.027V121.705C280.168 121.6 280.311 121.492 280.596 121.383L281.24 121.494C281.275 121.494 281.418 121.457 281.668 121.383L281.885 121.494L282.096 121.383C282.17 121.383 282.207 121.42 282.207 121.494L284.885 121.066ZM282.207 122.35L282.312 123.1V124.283C282.336 124.424 282.408 124.494 282.529 124.494C282.955 124.424 283.168 124.316 283.168 124.172V124.066C283.168 123.102 283.061 122.459 282.846 122.139L282.207 122.35ZM284.457 126.211H285.635C286.182 126.211 286.646 126.676 287.029 127.605V127.711C286.854 128.609 286.318 129.146 285.424 129.322H285.312C284.098 129.322 283.49 128.643 283.49 127.283V127.178C283.584 126.533 283.906 126.211 284.457 126.211ZM284.457 127.389V127.494C284.57 128.139 284.855 128.461 285.312 128.461C285.742 128.312 285.957 128.027 285.957 127.605C285.59 127.246 285.268 127.066 284.99 127.066H284.779C284.678 127.066 284.57 127.174 284.457 127.389ZM290.533 120.627C291.463 121.318 291.928 121.82 291.928 122.133H293C293.145 122.152 293.217 122.223 293.217 122.344V122.455C293.217 122.826 293.109 123.041 292.895 123.1L292.145 122.988C291.75 123.062 291.463 123.1 291.283 123.1V123.311C292.045 123.311 292.617 123.812 293 124.816C293 125.031 292.607 125.424 291.822 125.994C291.822 126.498 291.965 126.75 292.25 126.75C292.422 126.75 292.959 126.713 293.861 126.639L294.072 126.961V127.178C294.072 127.533 293.035 127.711 290.961 127.711C290.961 127.785 290.889 127.822 290.744 127.822C290.674 127.822 290.639 127.785 290.639 127.711L289.889 127.822H289.244C289.143 127.822 289.035 127.715 288.922 127.5V127.283C288.922 127.182 289.029 127.074 289.244 126.961H290.744C290.889 126.961 290.961 126.891 290.961 126.75V126.105C290.246 125.656 289.889 125.227 289.889 124.816V124.6C289.889 124.346 290.066 123.953 290.422 123.422C289.883 123.422 289.49 123.207 289.244 122.777C289.244 122.664 289.387 122.52 289.672 122.344C290.047 122.418 290.262 122.455 290.316 122.455L291.066 122.344V122.133C290.859 122.133 290.502 121.811 289.994 121.166V120.738L290.533 120.627ZM295.15 122.455C295.521 122.455 295.807 123.135 296.006 124.494H296.111C296.721 124.42 297.188 124.383 297.512 124.383C297.652 124.617 297.723 124.797 297.723 124.922C297.586 125.25 297.443 125.43 297.295 125.461L296.867 125.35C296.734 125.35 296.447 125.422 296.006 125.566C296.076 125.566 296.148 126.281 296.223 127.711L295.789 128.033H295.578C295.246 128.033 295.031 126.781 294.934 124.277C294.789 123.383 294.717 122.846 294.717 122.666L295.15 122.455ZM290.855 124.6V124.816C290.855 124.918 290.963 125.025 291.178 125.139H291.283C291.67 125.139 291.92 124.994 292.033 124.705C291.936 124.35 291.686 124.172 291.283 124.172C291.17 124.172 291.027 124.314 290.855 124.6ZM302.404 120.738C303.193 121.246 303.588 121.781 303.588 122.344V122.455C303.588 123.385 302.871 123.85 301.438 123.85C300.652 123.537 300.26 123.035 300.26 122.344V122.021C300.26 121.166 300.832 120.738 301.977 120.738H302.404ZM301.332 122.344V122.561C301.332 122.662 301.439 122.77 301.654 122.883H301.76C302.15 122.883 302.438 122.74 302.621 122.455C302.621 121.951 302.334 121.699 301.76 121.699H301.654C301.439 121.773 301.332 121.988 301.332 122.344ZM302.727 124.922H302.838C303.264 125.117 303.477 125.582 303.477 126.316L303.371 126.961C303.516 126.98 303.588 127.051 303.588 127.172C303.658 127.102 304.086 127.031 304.871 126.961L305.193 127.389C305.037 127.889 304.502 128.139 303.588 128.139C301.389 128.354 299.957 128.461 299.293 128.461C298.793 128.363 298.543 128.221 298.543 128.033V127.605C298.543 127.461 298.65 127.389 298.865 127.389C299.498 127.459 299.891 127.494 300.043 127.494L300.154 127.283C300.154 127.146 299.939 126.537 299.51 125.455V125.35C299.51 125.248 299.617 125.141 299.832 125.027C300.453 125.027 300.918 125.814 301.227 127.389H301.438C301.969 127.389 302.256 127.281 302.299 127.066V125.35C302.299 125.236 302.441 125.094 302.727 124.922ZM312.67 120.744H312.775C313.393 120.744 313.75 122.209 313.848 125.139L313.314 125.461C312.955 125.363 312.775 125.113 312.775 124.711V123.744C311.4 123.818 310.508 123.855 310.098 123.855L309.775 123.422C309.896 123.066 310.074 122.889 310.309 122.889C310.379 122.889 310.414 122.924 310.414 122.994C311.918 122.924 312.67 122.781 312.67 122.566C312.67 122.262 312.527 121.832 312.242 121.277C312.379 120.953 312.521 120.775 312.67 120.744ZM309.342 121.389L309.559 121.711C309.559 122.168 309.344 122.738 308.914 123.422C309.844 124.25 310.309 124.752 310.309 124.928V125.033C310.238 125.248 310.023 125.355 309.664 125.355L308.486 124.389H308.27C308.27 124.631 307.949 125.025 307.309 125.572C306.938 125.572 306.723 125.465 306.664 125.25C306.664 125.047 307.199 124.188 308.27 122.672V122.35H306.77C306.387 122.35 306.137 122.207 306.02 121.922V121.816C306.02 121.715 306.127 121.607 306.342 121.494H306.986C307.486 121.494 308.271 121.459 309.342 121.389ZM310.848 126H311.275C311.857 126 312.215 126.465 312.348 127.395V128.145C312.121 128.574 311.729 128.789 311.17 128.789H310.848C309.918 128.656 309.453 128.262 309.453 127.605V127.178C309.453 126.58 309.918 126.188 310.848 126ZM310.414 127.605C310.414 127.711 310.521 127.818 310.736 127.928H311.17C311.271 127.928 311.379 127.82 311.492 127.605C311.391 127.105 311.246 126.855 311.059 126.855H310.848C310.559 126.973 310.414 127.223 310.414 127.605Z" fill="black"/>
<path d="M227.363 177.916H227.469C228.113 177.916 228.436 178.668 228.436 180.172C228.611 180.312 228.754 180.383 228.863 180.383C228.941 180.383 229.049 180.348 229.186 180.277C230.404 180.277 231.014 180.564 231.014 181.139L230.586 181.566L230.047 181.461H228.758L228.541 181.566C228.615 182.406 228.652 183.014 228.652 183.389V184.25C228.652 184.363 228.51 184.506 228.225 184.678H227.902C227.703 184.678 227.559 184.32 227.469 183.605C227.469 183.535 227.506 183.5 227.58 183.5C227.58 181.629 227.4 179.91 227.041 178.344C227.146 178.059 227.254 177.916 227.363 177.916ZM221.779 179.422H221.891C222.246 179.422 222.531 180.209 222.746 181.783C223.062 181.924 223.564 181.994 224.252 181.994L225.002 181.889C225.287 181.994 225.43 182.102 225.43 182.211V182.639C225.312 182.924 225.062 183.066 224.68 183.066C222.746 183.066 221.779 182.854 221.779 182.428L221.352 179.744L221.779 179.422ZM236.135 176.732C236.545 176.732 236.795 177.305 236.885 178.449C236.885 179.082 235.955 179.439 234.096 179.521C233.881 179.686 233.773 179.793 233.773 179.844C233.797 179.988 233.869 180.061 233.99 180.061H234.523C234.898 180.061 235.65 179.988 236.779 179.844L237.102 180.271V180.594C237.102 180.828 236.064 181.043 233.99 181.238C233.287 181.238 232.82 180.559 232.59 179.199C232.59 178.801 233.629 178.514 235.707 178.338L235.812 178.127V177.91C234.973 177.98 234.365 178.016 233.99 178.016H233.129C233.016 178.016 232.873 177.873 232.701 177.588V177.377L233.023 176.943C233.648 177.018 234.006 177.055 234.096 177.055C234.389 177.055 235.068 176.947 236.135 176.732ZM232.057 181.35C233.709 181.49 234.818 181.561 235.385 181.561C236.877 181.42 237.807 181.35 238.174 181.35C238.389 181.584 238.496 181.762 238.496 181.883C238.398 182.242 238.148 182.422 237.746 182.422H236.562C236.172 182.422 235.672 182.457 235.062 182.527L234.846 182.422C234.771 182.422 234.664 182.457 234.523 182.527C233.742 182.457 233.062 182.422 232.484 182.422H232.162C231.947 182.352 231.84 182.137 231.84 181.777V181.672L232.057 181.35ZM233.557 182.85H236.24C236.885 182.85 237.207 183.674 237.207 185.322C236.773 185.752 236.059 185.967 235.062 185.967H233.773C233.773 186.041 233.738 186.148 233.668 186.289C233.738 186.289 233.773 186.324 233.773 186.395C234.957 186.324 235.852 186.289 236.457 186.289H237.207C237.312 186.289 237.457 186.467 237.641 186.822C237.504 187.182 237.217 187.361 236.779 187.361H236.674C235.775 187.361 234.666 187.396 233.346 187.467C232.916 187.326 232.701 186.934 232.701 186.289C232.701 185.355 232.986 184.889 233.557 184.889H235.273C235.805 184.889 236.092 184.781 236.135 184.566V184.139C236.092 183.924 235.805 183.816 235.273 183.816C234.559 183.816 233.844 183.889 233.129 184.033L232.807 183.6V183.283C232.924 182.994 233.174 182.85 233.557 182.85ZM249.131 177.699H249.348C249.648 177.699 249.898 178.344 250.098 179.633H250.203C250.992 179.594 251.387 179.521 251.387 179.416C251.742 179.518 251.92 179.77 251.92 180.172C251.92 180.48 251.348 180.658 250.203 180.705C250.133 180.846 250.098 180.953 250.098 181.027C250.168 181.914 250.203 182.379 250.203 182.422C249.93 182.637 249.609 182.744 249.242 182.744C249.098 182.482 249.025 182.197 249.025 181.889V180.494L248.92 179.85L249.025 179.633C249.025 179.434 248.918 178.896 248.703 178.021L249.131 177.699ZM245.809 178.238C246.094 178.555 246.236 178.734 246.236 178.777C246.236 178.941 246.057 179.477 245.697 180.383C246.842 181.367 247.414 182.082 247.414 182.527C247.152 182.672 246.867 182.744 246.559 182.744C245.859 181.814 245.395 181.35 245.164 181.35C244.59 182.564 244.088 183.172 243.658 183.172H243.553C243.338 183.102 243.23 182.887 243.23 182.527C244.52 180.387 245.164 179.064 245.164 178.561C245.441 178.346 245.656 178.238 245.809 178.238ZM259.08 177.061H259.297C259.527 177.061 259.777 177.668 260.047 178.883C261.191 178.883 261.764 179.025 261.764 179.311V179.633C261.764 179.832 261.406 179.975 260.691 180.061L260.475 179.955C260.189 180.064 260.047 180.172 260.047 180.277C260.117 180.672 260.152 180.959 260.152 181.139C260.055 181.432 259.875 181.646 259.613 181.783H259.508C259.398 181.783 259.256 181.639 259.08 181.35V180.172C259.08 179.934 258.973 179.684 258.758 179.422C258.758 179.297 258.83 179.082 258.975 178.777C258.76 177.953 258.652 177.523 258.652 177.488C258.652 177.375 258.795 177.232 259.08 177.061ZM253.174 177.488C255.107 177.613 256.074 177.756 256.074 177.916C256.359 178.35 256.502 178.994 256.502 179.85C256.307 180.564 255.592 180.922 254.357 180.922L254.246 181.139V181.35C254.27 181.494 254.342 181.566 254.463 181.566H256.719C256.867 181.598 257.01 181.777 257.146 182.105C257.146 182.535 256.037 182.75 253.818 182.75C253.389 182.469 253.174 181.645 253.174 180.277C253.174 179.977 253.926 179.762 255.43 179.633L255.535 179.422C255.535 178.918 255.105 178.666 254.246 178.666H253.174C252.889 178.553 252.746 178.303 252.746 177.916C252.797 177.701 252.939 177.559 253.174 177.488ZM258.113 182.639H258.758C259.312 182.639 259.67 182.818 259.83 183.178C259.83 183.338 259.795 183.48 259.725 183.605C259.939 183.973 260.047 184.33 260.047 184.678V185C260.047 185.66 259.582 186.055 258.652 186.184H258.113C257.113 185.914 256.613 185.27 256.613 184.25V184.145C256.613 183.547 256.898 183.117 257.469 182.855C257.703 182.711 257.918 182.639 258.113 182.639ZM257.574 184.467C257.676 184.76 257.855 184.975 258.113 185.111H258.436C258.807 185.111 259.021 185.004 259.08 184.789V184.355C259.08 184.227 258.83 184.012 258.33 183.711H258.219C257.789 183.91 257.574 184.162 257.574 184.467ZM264.307 178.021H264.629C264.934 178.021 265.256 178.773 265.596 180.277L265.812 180.172C266.453 180.289 266.773 180.432 266.773 180.6V180.922L266.562 181.244C265.676 181.174 265.211 181.139 265.168 181.139C263.914 181.209 263.127 181.244 262.807 181.244L262.59 180.922V180.6C262.59 180.498 262.697 180.391 262.912 180.277H264.629C264.629 180.055 264.449 179.41 264.09 178.344V178.238C264.113 178.094 264.186 178.021 264.307 178.021ZM268.385 178.666C268.674 178.928 268.818 179.465 268.818 180.277V180.705C268.838 180.85 268.908 180.922 269.029 180.922H269.996C270.711 181.012 271.068 181.154 271.068 181.35C271.068 181.752 270.891 182.004 270.535 182.105C270.027 182.031 269.598 181.994 269.246 181.994C269.105 182.068 268.998 182.105 268.924 182.105C268.854 183.074 268.818 183.754 268.818 184.145L268.496 184.355H268.174L267.852 184.145C267.922 183.176 267.957 182.459 267.957 181.994V181.672C267.957 180.957 267.885 180.062 267.74 178.988C268.018 178.773 268.232 178.666 268.385 178.666ZM264.09 181.994H264.412C265.201 182.482 265.596 182.947 265.596 183.389V183.605C265.596 183.852 265.201 184.066 264.412 184.25H263.879C263.492 184.25 263.242 184.107 263.129 183.822V182.961C263.219 182.316 263.539 181.994 264.09 181.994ZM276.939 176.199L277.156 176.521V176.627C277.156 176.998 277.049 177.213 276.834 177.271H276.295C275.393 177.271 274.533 177.414 273.717 177.699L273.934 178.561C274.418 178.561 275.527 178.418 277.262 178.133C277.477 178.367 277.584 178.545 277.584 178.666C277.299 179.311 276.154 179.633 274.15 179.633C274.15 179.707 273.898 179.744 273.395 179.744C273.164 179.744 272.914 178.85 272.645 177.061V176.738L272.967 176.521H273.506C275.24 176.307 276.385 176.199 276.939 176.199ZM278.334 179.955C278.549 180.189 278.656 180.369 278.656 180.494C278.488 180.924 278.238 181.139 277.906 181.139C274.699 181.279 272.768 181.35 272.111 181.35L271.895 180.816C271.895 180.75 272.037 180.535 272.322 180.172C272.377 180.172 272.592 180.207 272.967 180.277C274.135 180.277 275.924 180.17 278.334 179.955ZM275.117 181.672C275.527 181.672 276.385 182.531 277.689 184.25C277.787 184.254 277.932 184.434 278.123 184.789V185.111C277.979 185.396 277.764 185.539 277.479 185.539C277.322 185.539 276.678 184.859 275.545 183.5L275.328 183.389C274.977 184.189 274.332 184.941 273.395 185.645H273.078C272.973 185.645 272.865 185.537 272.756 185.322C272.756 185.045 273.291 184.33 274.361 183.178C274.771 182.174 275.023 181.672 275.117 181.672ZM289.297 176.305H289.508C289.723 176.305 289.975 176.877 290.264 178.021L291.764 177.811L292.086 178.238V178.666C292.086 178.783 291.479 178.963 290.264 179.205L290.475 180.6L290.047 180.922C289.547 180.922 289.297 180.492 289.297 179.633C289.152 178.188 289.008 177.186 288.863 176.627L289.297 176.305ZM283.93 176.949C284.359 176.949 284.574 177.486 284.574 178.561C284.688 178.99 284.793 179.205 284.891 179.205L286.824 178.883C287.008 178.883 287.258 179.133 287.574 179.633C287.551 179.824 287.373 179.967 287.041 180.061L286.824 179.955C285.746 180.17 284.816 180.277 284.035 180.277C283.836 179.969 283.656 179.074 283.496 177.594C283.426 177.594 283.391 177.521 283.391 177.377L283.93 176.949ZM286.824 181.461C286.992 181.461 287.529 181.531 288.436 181.672C288.576 181.602 288.684 181.566 288.758 181.566C289.832 181.613 290.369 181.863 290.369 182.316C290.369 184.105 290.012 185 289.297 185C288.734 185.074 288.16 185.111 287.574 185.111C286.719 185.018 286.291 184.838 286.291 184.572V182.961C286.291 182.27 286.469 181.77 286.824 181.461ZM287.258 183.5V183.822C287.277 183.963 287.348 184.033 287.469 184.033H288.541C289.045 184.033 289.297 183.604 289.297 182.744V182.639H287.574C287.363 182.686 287.258 182.973 287.258 183.5ZM295.484 176.416C296.555 176.588 297.09 177.016 297.09 177.699C297.09 178.559 296.447 178.988 295.162 178.988C294.721 178.988 294.326 178.416 293.979 177.271C293.979 176.701 294.48 176.416 295.484 176.416ZM295.051 177.383V177.488C295.051 177.621 295.23 177.836 295.59 178.133C295.914 177.992 296.092 177.848 296.123 177.699C296.123 177.598 296.016 177.492 295.801 177.383H295.051ZM293.334 179.738C294.459 179.832 295.068 179.904 295.162 179.955C295.549 179.885 295.869 179.85 296.123 179.85H297.307C297.416 179.85 297.559 179.992 297.734 180.277V180.494C297.734 180.564 297.592 180.707 297.307 180.922L295.484 180.705C295.105 180.779 294.746 180.816 294.406 180.816H293.445C293.348 180.816 293.168 180.637 292.906 180.277V180.061C292.906 179.955 293.049 179.848 293.334 179.738ZM296.234 181.777L296.445 181.889C296.57 181.814 296.715 181.777 296.879 181.777C297.379 181.777 297.629 182.35 297.629 183.494C297.312 183.799 296.096 184.229 293.979 184.783V184.889C293.979 185.014 294.051 185.229 294.195 185.533L298.162 185L298.273 185.211V185.645C298.273 185.859 298.129 185.967 297.84 185.967C297.293 185.967 295.971 186.109 293.873 186.395H293.551C293.289 186.395 293.074 185.822 292.906 184.678V184.461C292.906 184.246 294.086 183.816 296.445 183.172L296.557 182.961C296.557 182.887 296.412 182.779 296.123 182.639L293.445 182.961C293.332 182.961 293.188 182.818 293.012 182.533V182.422C293.125 181.992 294.199 181.777 296.234 181.777ZM308.908 177.699H309.125C309.426 177.699 309.676 178.344 309.875 179.633H309.98C310.77 179.594 311.164 179.521 311.164 179.416C311.52 179.518 311.697 179.77 311.697 180.172C311.697 180.48 311.125 180.658 309.98 180.705C309.91 180.846 309.875 180.953 309.875 181.027C309.945 181.914 309.98 182.379 309.98 182.422C309.707 182.637 309.387 182.744 309.02 182.744C308.875 182.482 308.803 182.197 308.803 181.889V180.494L308.697 179.85L308.803 179.633C308.803 179.434 308.695 178.896 308.48 178.021L308.908 177.699ZM305.586 178.238C305.871 178.555 306.014 178.734 306.014 178.777C306.014 178.941 305.834 179.477 305.475 180.383C306.619 181.367 307.191 182.082 307.191 182.527C306.93 182.672 306.645 182.744 306.336 182.744C305.637 181.814 305.172 181.35 304.941 181.35C304.367 182.564 303.865 183.172 303.436 183.172H303.33C303.115 183.102 303.008 182.887 303.008 182.527C304.297 180.387 304.941 179.064 304.941 178.561C305.219 178.346 305.434 178.238 305.586 178.238ZM318.857 177.061H319.074C319.305 177.061 319.555 177.668 319.824 178.883C320.969 178.883 321.541 179.025 321.541 179.311V179.633C321.541 179.832 321.184 179.975 320.469 180.061L320.252 179.955C319.967 180.064 319.824 180.172 319.824 180.277C319.895 180.672 319.93 180.959 319.93 181.139C319.832 181.432 319.652 181.646 319.391 181.783H319.285C319.176 181.783 319.033 181.639 318.857 181.35V180.172C318.857 179.934 318.75 179.684 318.535 179.422C318.535 179.297 318.607 179.082 318.752 178.777C318.537 177.953 318.43 177.523 318.43 177.488C318.43 177.375 318.572 177.232 318.857 177.061ZM312.951 177.488C314.885 177.613 315.852 177.756 315.852 177.916C316.137 178.35 316.279 178.994 316.279 179.85C316.084 180.564 315.369 180.922 314.135 180.922L314.023 181.139V181.35C314.047 181.494 314.119 181.566 314.24 181.566H316.496C316.645 181.598 316.787 181.777 316.924 182.105C316.924 182.535 315.814 182.75 313.596 182.75C313.166 182.469 312.951 181.645 312.951 180.277C312.951 179.977 313.703 179.762 315.207 179.633L315.312 179.422C315.312 178.918 314.883 178.666 314.023 178.666H312.951C312.666 178.553 312.523 178.303 312.523 177.916C312.574 177.701 312.717 177.559 312.951 177.488ZM317.891 182.639H318.535C319.09 182.639 319.447 182.818 319.607 183.178C319.607 183.338 319.572 183.48 319.502 183.605C319.717 183.973 319.824 184.33 319.824 184.678V185C319.824 185.66 319.359 186.055 318.43 186.184H317.891C316.891 185.914 316.391 185.27 316.391 184.25V184.145C316.391 183.547 316.676 183.117 317.246 182.855C317.48 182.711 317.695 182.639 317.891 182.639ZM317.352 184.467C317.453 184.76 317.633 184.975 317.891 185.111H318.213C318.584 185.111 318.799 185.004 318.857 184.789V184.355C318.857 184.227 318.607 184.012 318.107 183.711H317.996C317.566 183.91 317.352 184.162 317.352 184.467ZM324.084 178.021H324.406C324.711 178.021 325.033 178.773 325.373 180.277L325.59 180.172C326.23 180.289 326.551 180.432 326.551 180.6V180.922L326.34 181.244C325.453 181.174 324.988 181.139 324.945 181.139C323.691 181.209 322.904 181.244 322.584 181.244L322.367 180.922V180.6C322.367 180.498 322.475 180.391 322.689 180.277H324.406C324.406 180.055 324.227 179.41 323.867 178.344V178.238C323.891 178.094 323.963 178.021 324.084 178.021ZM328.162 178.666C328.451 178.928 328.596 179.465 328.596 180.277V180.705C328.615 180.85 328.686 180.922 328.807 180.922H329.773C330.488 181.012 330.846 181.154 330.846 181.35C330.846 181.752 330.668 182.004 330.312 182.105C329.805 182.031 329.375 181.994 329.023 181.994C328.883 182.068 328.775 182.105 328.701 182.105C328.631 183.074 328.596 183.754 328.596 184.145L328.273 184.355H327.951L327.629 184.145C327.699 183.176 327.734 182.459 327.734 181.994V181.672C327.734 180.957 327.662 180.062 327.518 178.988C327.795 178.773 328.01 178.666 328.162 178.666ZM323.867 181.994H324.189C324.979 182.482 325.373 182.947 325.373 183.389V183.605C325.373 183.852 324.979 184.066 324.189 184.25H323.656C323.27 184.25 323.02 184.107 322.906 183.822V182.961C322.996 182.316 323.316 181.994 323.867 181.994ZM337.572 177.699H337.895C338.008 177.699 338.15 177.844 338.322 178.133V179.205C338.322 179.635 338.467 179.85 338.756 179.85C338.799 179.85 339.264 179.812 340.15 179.738L340.473 180.172V180.277C340.473 180.664 339.793 180.879 338.434 180.922V181.027C338.434 181.418 338.504 182.025 338.645 182.85L338.217 183.172H337.895C337.465 183.172 337.25 181.42 337.25 177.916L337.572 177.699ZM332.316 178.777H332.639C332.799 178.777 332.941 178.812 333.066 178.883L333.283 178.777L333.494 178.883C333.889 178.812 334.176 178.777 334.355 178.777C335.141 178.777 335.533 178.99 335.533 179.416C335.104 180.35 334.889 180.922 334.889 181.133C335.408 181.582 335.73 182.049 335.855 182.533L335.428 182.85H335.105C334.535 182.279 334.213 181.994 334.139 181.994C334.139 182.268 333.854 182.625 333.283 183.066H332.85C332.744 183.066 332.639 182.924 332.533 182.639C333.678 181.119 334.25 180.152 334.25 179.738H332.316C331.945 179.738 331.73 179.631 331.672 179.416V179.1C331.742 178.885 331.957 178.777 332.316 178.777Z" fill="black"/>
</svg>
