<svg width="174" height="278" viewBox="0 0 174 278" fill="none" xmlns="http://www.w3.org/2000/svg">
<rect x="5" y="11" width="169" height="267" rx="5" fill="#3C5E9B"/>
<rect x="0.5" y="0.5" width="169" height="273" rx="4.5" fill="white" stroke="#3C5E9B"/>
<rect x="36" y="62" width="99" height="11" fill="#DDF7FF"/>
<path d="M48.7637 66.385V67.201C48.7637 67.643 48.741 67.9547 48.6957 68.136C48.639 68.4307 48.4917 68.646 48.2537 68.782C48.0157 68.9293 47.67 69.003 47.2167 69.003C47.092 69.003 46.8824 68.9917 46.5877 68.969V54.876H48.1857C48.571 54.876 48.7637 55.063 48.7637 55.437V66.385ZM38.4107 58.225C38.0027 58.225 37.7987 58.0267 37.7987 57.63V56.321H44.5817C44.9897 56.321 45.1937 56.5193 45.1937 56.916V58.225H38.4107ZM45.2277 63.24C45.2617 63.2287 45.3127 63.223 45.3807 63.223C45.5507 63.223 45.681 63.274 45.7717 63.376C45.8624 63.4667 45.9077 63.6027 45.9077 63.784V65.059C44.2417 65.3423 42.2697 65.484 39.9917 65.484C39.5497 65.484 38.966 65.4727 38.2407 65.45C37.8327 65.4387 37.6287 65.2403 37.6287 64.855V63.529C37.878 63.5403 38.2577 63.546 38.7677 63.546V58.735H40.1107C40.5187 58.735 40.7227 58.922 40.7227 59.296V63.546C41.0287 63.546 41.465 63.5347 42.0317 63.512L42.2697 58.769H43.6127C44.0434 58.769 44.2474 58.9617 44.2247 59.347L44.0207 63.376C44.3834 63.3533 44.7857 63.308 45.2277 63.24ZM53.2354 61.523C52.85 61.523 52.6574 61.336 52.6574 60.962V59.67H59.4234V58.242H53.4564C53.071 58.242 52.8784 58.055 52.8784 57.681V56.338H60.9364C61.0837 56.338 61.197 56.389 61.2764 56.491C61.367 56.5817 61.4124 56.7177 61.4124 56.899C61.4124 58.8597 61.4067 60.2933 61.3954 61.2C61.3954 62.1067 61.3784 62.6507 61.3444 62.832C61.2877 63.138 61.1517 63.3647 60.9364 63.512C60.7324 63.648 60.432 63.716 60.0354 63.716C59.854 63.716 59.65 63.699 59.4234 63.665V61.523H53.2354ZM62.8914 65.11C63.2767 65.11 63.4694 65.297 63.4694 65.671V66.98H51.4674C51.082 66.98 50.8894 66.793 50.8894 66.419V65.11H55.4284V62.39H57.2134C57.5987 62.39 57.7914 62.577 57.7914 62.951V65.11H62.8914ZM75.625 59.857V60.673C75.625 61.115 75.6024 61.4267 75.557 61.608C75.5004 61.9027 75.353 62.1237 75.115 62.271C74.877 62.407 74.5314 62.475 74.078 62.475C73.9534 62.475 73.7437 62.4637 73.449 62.441V54.876H75.047C75.4324 54.876 75.625 55.063 75.625 55.437V59.857ZM68.502 59.993C68.1054 60.6503 67.6747 61.2227 67.21 61.71C66.8134 62.0273 66.4564 62.186 66.139 62.186C65.8217 62.186 65.5384 62.084 65.289 61.88C65.051 61.6647 64.8867 61.4097 64.796 61.115C65.68 60.3557 66.3657 59.551 66.853 58.701C67.3404 57.851 67.584 57.0123 67.584 56.185V55.42H69.114C69.454 55.42 69.624 55.5957 69.624 55.947V56.44C69.624 56.916 69.556 57.4033 69.42 57.902L71.681 60.129C71.9757 60.3557 72.123 60.6277 72.123 60.945C72.123 61.0697 72.0947 61.2 72.038 61.336C71.8794 61.7213 71.511 61.999 70.933 62.169L68.502 59.993ZM74.928 63.291C75.2907 63.291 75.472 63.4667 75.472 63.818V67.881C75.03 68.2777 74.4237 68.5893 73.653 68.816C72.8824 69.0427 72.0437 69.156 71.137 69.156C70.8764 69.156 70.678 69.1503 70.542 69.139C69.59 69.0823 68.825 68.8783 68.247 68.527C67.669 68.187 67.2894 67.7053 67.108 67.082C67.006 66.6853 66.955 66.2433 66.955 65.756C66.955 64.9173 67.0627 64.0957 67.278 63.291H74.928ZM69.029 65.076C69.0064 65.3253 68.995 65.501 68.995 65.603C68.995 66.045 69.08 66.385 69.25 66.623C69.4314 66.861 69.726 67.031 70.134 67.133C70.4627 67.2123 70.8537 67.252 71.307 67.252C71.715 67.252 72.1004 67.218 72.463 67.15C72.837 67.082 73.143 66.98 73.381 66.844V65.076H69.029ZM80.0967 61.523C79.7114 61.523 79.5187 61.336 79.5187 60.962V59.67H86.2847V58.242H80.3177C79.9324 58.242 79.7397 58.055 79.7397 57.681V56.338H87.7977C87.945 56.338 88.0584 56.389 88.1377 56.491C88.2284 56.5817 88.2737 56.7177 88.2737 56.899C88.2737 58.8597 88.268 60.2933 88.2567 61.2C88.2567 62.1067 88.2397 62.6507 88.2057 62.832C88.149 63.138 88.013 63.3647 87.7977 63.512C87.5937 63.648 87.2934 63.716 86.8967 63.716C86.7154 63.716 86.5114 63.699 86.2847 63.665V61.523H80.0967ZM89.7527 65.11C90.138 65.11 90.3307 65.297 90.3307 65.671V66.98H78.3287C77.9434 66.98 77.7507 66.793 77.7507 66.419V65.11H82.2897V62.39H84.0747C84.46 62.39 84.6527 62.577 84.6527 62.951V65.11H89.7527ZM105.673 66.385V67.201C105.673 67.643 105.651 67.9547 105.605 68.136C105.549 68.4307 105.401 68.646 105.163 68.782C104.925 68.9293 104.58 69.003 104.126 69.003C104.002 69.003 103.792 68.9917 103.497 68.969V54.876H105.095C105.481 54.876 105.673 55.063 105.673 55.437V60.129C106.059 60.061 106.382 60.027 106.642 60.027C106.937 60.027 107.164 60.0723 107.322 60.163C107.481 60.2537 107.6 60.3953 107.679 60.588C107.736 60.724 107.764 60.911 107.764 61.149C107.764 61.5683 107.662 61.9423 107.458 62.271H105.673V66.385ZM102.001 63.444C102.262 63.7613 102.392 64.0503 102.392 64.311C102.392 64.4697 102.341 64.6283 102.239 64.787C102.115 64.9797 101.939 65.127 101.712 65.229C101.497 65.331 101.248 65.3877 100.964 65.399L98.6183 62.662C98.2443 63.4213 97.8023 64.1297 97.2923 64.787C97.077 65.059 96.8616 65.2403 96.6463 65.331C96.431 65.4217 96.193 65.4557 95.9323 65.433C95.7056 65.4103 95.4903 65.3197 95.2863 65.161C95.0936 64.991 94.9576 64.8097 94.8783 64.617C95.7396 63.597 96.4196 62.5657 96.9183 61.523C97.417 60.469 97.6663 59.4433 97.6663 58.446H95.9493C95.564 58.446 95.3713 58.259 95.3713 57.885V56.576H101.457C101.82 56.576 102.001 56.763 102.001 57.137V58.446H99.6723C99.6723 59.0807 99.593 59.7267 99.4343 60.384L102.001 63.444ZM121.11 59.092C121.167 59.228 121.195 59.415 121.195 59.653C121.195 60.0723 121.093 60.4463 120.889 60.775H119.104V62.39V63.206C119.104 63.648 119.081 63.9597 119.036 64.141C118.979 64.4357 118.832 64.6567 118.594 64.804C118.367 64.94 118.027 65.008 117.574 65.008C117.461 65.008 117.257 64.9967 116.962 64.974V54.876H118.526C118.911 54.876 119.104 55.063 119.104 55.437V58.633C119.489 58.565 119.812 58.531 120.073 58.531C120.368 58.531 120.594 58.5763 120.753 58.667C120.912 58.7577 121.031 58.8993 121.11 59.092ZM109.55 57.392C109.142 57.392 108.938 57.1937 108.938 56.797V55.556H115.296C115.704 55.556 115.908 55.7543 115.908 56.151V57.392H109.55ZM116.248 62.645C114.82 62.8603 113.137 62.968 111.199 62.968C110.757 62.968 110.151 62.9567 109.38 62.934C108.972 62.9227 108.768 62.7243 108.768 62.339V61.115L109.822 61.149V57.783H111.131C111.539 57.783 111.743 57.97 111.743 58.344V61.149C112.004 61.149 112.372 61.1377 112.848 61.115L112.967 57.834H114.259C114.69 57.834 114.894 58.0323 114.871 58.429L114.769 61.013L115.568 60.928C115.783 60.9053 115.948 60.945 116.061 61.047C116.186 61.1377 116.248 61.2793 116.248 61.472V62.645ZM118.577 66.64C118.611 66.6287 118.668 66.623 118.747 66.623C119.121 66.623 119.308 66.8327 119.308 67.252V68.425C118.254 68.629 117.047 68.731 115.687 68.731C114.758 68.731 113.919 68.68 113.171 68.578C112.446 68.4647 111.89 68.2607 111.505 67.966C111.12 67.6713 110.87 67.2747 110.757 66.776C110.655 66.402 110.604 65.8637 110.604 65.161C110.604 64.719 110.632 64.2883 110.689 63.869H112.151C112.525 63.869 112.712 64.0787 112.712 64.498C112.701 64.7133 112.701 64.9513 112.712 65.212C112.735 65.4727 112.757 65.6767 112.78 65.824C112.871 66.2887 113.256 66.5833 113.936 66.708C114.378 66.7873 114.973 66.827 115.721 66.827C116.786 66.827 117.738 66.7647 118.577 66.64ZM133.266 66.385V67.201C133.266 67.643 133.243 67.9547 133.198 68.136C133.141 68.4307 132.994 68.646 132.756 68.782C132.518 68.9293 132.172 69.003 131.719 69.003C131.594 69.003 131.384 68.9917 131.09 68.969V54.876H132.688C133.073 54.876 133.266 55.063 133.266 55.437V66.385ZM128.302 56.559C128.483 56.559 128.613 56.593 128.693 56.661C128.783 56.729 128.829 56.848 128.829 57.018V57.834C128.829 59.33 128.443 60.7467 127.673 62.084C126.913 63.4213 125.95 64.4923 124.783 65.297C124.363 65.5803 123.984 65.722 123.644 65.722C123.44 65.722 123.258 65.6823 123.1 65.603C122.918 65.5123 122.76 65.3763 122.624 65.195C122.488 65.0137 122.391 64.8153 122.335 64.6C123.627 63.7953 124.658 62.832 125.429 61.71C126.199 60.5767 126.624 59.483 126.704 58.429H123.338C122.964 58.429 122.777 58.2477 122.777 57.885V56.559H128.302Z" fill="#3060D1"/>
<path d="M5 0.5H165C167.485 0.500003 169.5 2.51472 169.5 5V21.5H0.5V5C0.5 2.51472 2.51472 0.5 5 0.5Z" fill="#B3E7F6"/>
<path d="M5 0.5H165C167.485 0.500003 169.5 2.51472 169.5 5V21.5H0.5V5C0.5 2.51472 2.51472 0.5 5 0.5Z" stroke="#3C5E9B"/>
<line x1="31.5" y1="15.5" x2="23.5" y2="15.5" stroke="#3C5E9B" stroke-linecap="round"/>
<rect x="38.5" y="7.5" width="8" height="8" stroke="#3C5E9B"/>
<path d="M13 11L17 15M13 11L9 7M13 11L9 15M13 11L17 7" stroke="#3C5E9B" stroke-linecap="round" stroke-linejoin="round"/>
<line x1="57.45" y1="6.55" x2="159.55" y2="6.55" stroke="#90C3EB" stroke-width="0.9" stroke-linecap="round"/>
<line x1="57.45" y1="11.05" x2="159.55" y2="11.05" stroke="#90C3EB" stroke-width="0.9" stroke-linecap="round"/>
<line x1="57.45" y1="15.55" x2="159.55" y2="15.55" stroke="#90C3EB" stroke-width="0.9" stroke-linecap="round"/>
<mask id="path-12-inside-1_172_129" fill="white">
<path d="M16.5 88H154.5V108H16.5V88Z"/>
</mask>
<path d="M16.5 108V108.5H17.4857V108V107.5H16.5V108ZM19.4571 108V108.5H21.4286V108V107.5H19.4571V108ZM23.4 108V108.5H25.3714V108V107.5H23.4V108ZM27.3429 108V108.5H29.3143V108V107.5H27.3429V108ZM31.2857 108V108.5H33.2571V108V107.5H31.2857V108ZM35.2286 108V108.5H37.2V108V107.5H35.2286V108ZM39.1714 108V108.5H41.1429V108V107.5H39.1714V108ZM43.1143 108V108.5H45.0857V108V107.5H43.1143V108ZM47.0571 108V108.5H49.0286V108V107.5H47.0571V108ZM51 108V108.5H52.9714V108V107.5H51V108ZM54.9429 108V108.5H56.9143V108V107.5H54.9429V108ZM58.8857 108V108.5H60.8571V108V107.5H58.8857V108ZM62.8286 108V108.5H64.8V108V107.5H62.8286V108ZM66.7714 108V108.5H68.7428V108V107.5H66.7714V108ZM70.7143 108V108.5H72.6857V108V107.5H70.7143V108ZM74.6571 108V108.5H76.6286V108V107.5H74.6571V108ZM78.6 108V108.5H80.5714V108V107.5H78.6V108ZM82.5428 108V108.5H84.5143V108V107.5H82.5428V108ZM86.4857 108V108.5H88.4571V108V107.5H86.4857V108ZM90.4286 108V108.5H92.4V108V107.5H90.4286V108ZM94.3714 108V108.5H96.3428V108V107.5H94.3714V108ZM98.3143 108V108.5H100.286V108V107.5H98.3143V108ZM102.257 108V108.5H104.229V108V107.5H102.257V108ZM106.2 108V108.5H108.171V108V107.5H106.2V108ZM110.143 108V108.5H112.114V108V107.5H110.143V108ZM114.086 108V108.5H116.057V108V107.5H114.086V108ZM118.029 108V108.5H120V108V107.5H118.029V108ZM121.971 108V108.5H123.943V108V107.5H121.971V108ZM125.914 108V108.5H127.886V108V107.5H125.914V108ZM129.857 108V108.5H131.829V108V107.5H129.857V108ZM133.8 108V108.5H135.771V108V107.5H133.8V108ZM137.743 108V108.5H139.714V108V107.5H137.743V108ZM141.686 108V108.5H143.657V108V107.5H141.686V108ZM145.629 108V108.5H147.6V108V107.5H145.629V108ZM149.571 108V108.5H151.543V108V107.5H149.571V108ZM153.514 108V108.5H154.5V108V107.5H153.514V108ZM16.5 108V109H17.4857V108V107H16.5V108ZM19.4571 108V109H21.4286V108V107H19.4571V108ZM23.4 108V109H25.3714V108V107H23.4V108ZM27.3429 108V109H29.3143V108V107H27.3429V108ZM31.2857 108V109H33.2571V108V107H31.2857V108ZM35.2286 108V109H37.2V108V107H35.2286V108ZM39.1714 108V109H41.1429V108V107H39.1714V108ZM43.1143 108V109H45.0857V108V107H43.1143V108ZM47.0571 108V109H49.0286V108V107H47.0571V108ZM51 108V109H52.9714V108V107H51V108ZM54.9429 108V109H56.9143V108V107H54.9429V108ZM58.8857 108V109H60.8571V108V107H58.8857V108ZM62.8286 108V109H64.8V108V107H62.8286V108ZM66.7714 108V109H68.7428V108V107H66.7714V108ZM70.7143 108V109H72.6857V108V107H70.7143V108ZM74.6571 108V109H76.6286V108V107H74.6571V108ZM78.6 108V109H80.5714V108V107H78.6V108ZM82.5428 108V109H84.5143V108V107H82.5428V108ZM86.4857 108V109H88.4571V108V107H86.4857V108ZM90.4286 108V109H92.4V108V107H90.4286V108ZM94.3714 108V109H96.3428V108V107H94.3714V108ZM98.3143 108V109H100.286V108V107H98.3143V108ZM102.257 108V109H104.229V108V107H102.257V108ZM106.2 108V109H108.171V108V107H106.2V108ZM110.143 108V109H112.114V108V107H110.143V108ZM114.086 108V109H116.057V108V107H114.086V108ZM118.029 108V109H120V108V107H118.029V108ZM121.971 108V109H123.943V108V107H121.971V108ZM125.914 108V109H127.886V108V107H125.914V108ZM129.857 108V109H131.829V108V107H129.857V108ZM133.8 108V109H135.771V108V107H133.8V108ZM137.743 108V109H139.714V108V107H137.743V108ZM141.686 108V109H143.657V108V107H141.686V108ZM145.629 108V109H147.6V108V107H145.629V108ZM149.571 108V109H151.543V108V107H149.571V108ZM153.514 108V109H154.5V108V107H153.514V108Z" fill="#E5E5E5" mask="url(#path-12-inside-1_172_129)"/>
<path d="M41.1738 92.5312V102.949H40.248V92.5312H41.1738ZM38.7715 93.668V94.4297H37.5879V99.4453C38.1738 99.4043 38.7539 99.3516 39.3105 99.2812L39.3691 99.9727C37.0957 100.324 34.5879 100.359 32.6543 100.371L32.5488 99.5859L33.9902 99.5742V94.4297H32.8184V93.668H38.7715ZM34.8926 99.5625C35.4785 99.5508 36.082 99.5273 36.6855 99.4922V94.4297H34.8926V99.5625ZM51.2637 93.5508V94.5586C51.252 95.8242 51.2637 97.2539 50.8301 99.375L49.9277 99.2695C50.1328 98.3262 50.2383 97.5 50.3027 96.7617L43.9277 97.1484L43.7754 96.3398L50.3379 96.0703C50.3613 95.5195 50.3613 95.0215 50.3613 94.5586V94.3125H44.0801V93.5508H51.2637ZM52.4238 100.746V101.531H42.9316V100.746H46.6582V98.0508H47.5605V100.746H52.4238ZM61.9043 92.543V98.4609H60.9902V92.543H61.9043ZM61.9043 99.0586V102.809H55.1309V99.0586H61.9043ZM56.0332 99.8086V102.059H61.002V99.8086H56.0332ZM56.9941 93.9727C56.9824 95.4492 58.1074 96.75 59.6426 97.2891L59.1738 97.9922C57.9668 97.5762 57.0059 96.6973 56.5371 95.5547C56.0742 96.7734 55.1016 97.7344 53.8535 98.1914L53.3848 97.4648C54.9668 96.9141 56.0566 95.5078 56.0566 93.9727V92.9531H56.9941V93.9727ZM72.0059 93.5508V94.5586C71.9941 95.8242 72.0059 97.2539 71.5723 99.375L70.6699 99.2695C70.875 98.3262 70.9805 97.5 71.0449 96.7617L64.6699 97.1484L64.5176 96.3398L71.0801 96.0703C71.1035 95.5195 71.1035 95.0215 71.1035 94.5586V94.3125H64.8223V93.5508H72.0059ZM73.166 100.746V101.531H63.6738V100.746H67.4004V98.0508H68.3027V100.746H73.166ZM80.584 95.7305C80.5723 97.4062 81.7793 99.2461 83.291 99.9609L82.7637 100.688C81.5918 100.119 80.6016 98.877 80.1387 97.4648C79.6582 99 78.6094 100.348 77.4434 100.945L76.8809 100.219C78.3809 99.4922 79.6699 97.5117 79.6816 95.7305V94.3711H77.2559V93.6094H82.9277V94.3711H80.584V95.7305ZM85.1191 92.5312V96.75H86.8652V97.5352H85.1191V102.949H84.2051V92.5312H85.1191ZM93.3809 93.5273V94.2773H92.3145V97.7227C92.8477 97.6875 93.375 97.6406 93.873 97.582L93.9434 98.2734C91.834 98.6016 89.373 98.6484 87.5684 98.6484L87.4629 97.8867L88.8105 97.8633V94.2773H87.7559V93.5273H93.3809ZM95.5723 92.543V95.707H97.1426V96.4922H95.5723V100.207H94.6582V92.543H95.5723ZM96.0527 101.953V102.727H89.0566V99.4805H89.959V101.953H96.0527ZM89.7129 97.8516C90.2695 97.834 90.8438 97.8164 91.4121 97.7812V94.2773H89.7129V97.8516ZM106.412 92.5312V102.949H105.486V92.5312H106.412ZM103.33 93.668C103.318 96.668 101.924 99.3164 98.4316 100.992L97.9277 100.242C100.746 98.9062 102.182 96.9082 102.393 94.418H98.4082V93.668H103.33ZM117.1 92.5312V102.949H116.209V92.5312H117.1ZM115.002 92.7539V102.422H114.123V97.3594H112.787C112.688 99.3867 111.826 100.652 110.537 100.652C109.178 100.652 108.299 99.2461 108.299 97.0312C108.299 94.8164 109.178 93.4102 110.537 93.4102C111.803 93.4102 112.658 94.6348 112.775 96.5977H114.123V92.7539H115.002ZM110.537 94.2773C109.693 94.2773 109.154 95.332 109.166 97.0312C109.154 98.7188 109.693 99.7852 110.537 99.7734C111.381 99.7852 111.92 98.7188 111.92 97.0312C111.92 95.332 111.381 94.2773 110.537 94.2773ZM122.209 95.332C122.209 97.2188 123.416 99.1172 124.928 99.8086L124.377 100.559C123.193 99.9492 122.215 98.7012 121.752 97.2188C121.289 98.7773 120.311 100.113 119.127 100.746L118.529 100.008C120.053 99.2578 121.271 97.2539 121.271 95.332V93.4336H122.209V95.332ZM127.178 92.5312V102.973H126.264V96.8438H123.791V96.0938H126.264V92.5312H127.178ZM137.338 95.6953V96.4336H130.201V92.918H131.115V95.6953H137.338ZM138.439 97.8516V98.6016H128.9V97.8516H138.439ZM137.396 101.93V102.691H130.143V99.668H131.057V101.93H137.396Z" fill="#333333"/>
<mask id="path-15-inside-2_172_129" fill="white">
<path d="M16.5 113H154.5V133H16.5V113Z"/>
</mask>
<path d="M16.5 133V133.5H17.4857V133V132.5H16.5V133ZM19.4571 133V133.5H21.4286V133V132.5H19.4571V133ZM23.4 133V133.5H25.3714V133V132.5H23.4V133ZM27.3429 133V133.5H29.3143V133V132.5H27.3429V133ZM31.2857 133V133.5H33.2571V133V132.5H31.2857V133ZM35.2286 133V133.5H37.2V133V132.5H35.2286V133ZM39.1714 133V133.5H41.1429V133V132.5H39.1714V133ZM43.1143 133V133.5H45.0857V133V132.5H43.1143V133ZM47.0571 133V133.5H49.0286V133V132.5H47.0571V133ZM51 133V133.5H52.9714V133V132.5H51V133ZM54.9429 133V133.5H56.9143V133V132.5H54.9429V133ZM58.8857 133V133.5H60.8571V133V132.5H58.8857V133ZM62.8286 133V133.5H64.8V133V132.5H62.8286V133ZM66.7714 133V133.5H68.7428V133V132.5H66.7714V133ZM70.7143 133V133.5H72.6857V133V132.5H70.7143V133ZM74.6571 133V133.5H76.6286V133V132.5H74.6571V133ZM78.6 133V133.5H80.5714V133V132.5H78.6V133ZM82.5428 133V133.5H84.5143V133V132.5H82.5428V133ZM86.4857 133V133.5H88.4571V133V132.5H86.4857V133ZM90.4286 133V133.5H92.4V133V132.5H90.4286V133ZM94.3714 133V133.5H96.3428V133V132.5H94.3714V133ZM98.3143 133V133.5H100.286V133V132.5H98.3143V133ZM102.257 133V133.5H104.229V133V132.5H102.257V133ZM106.2 133V133.5H108.171V133V132.5H106.2V133ZM110.143 133V133.5H112.114V133V132.5H110.143V133ZM114.086 133V133.5H116.057V133V132.5H114.086V133ZM118.029 133V133.5H120V133V132.5H118.029V133ZM121.971 133V133.5H123.943V133V132.5H121.971V133ZM125.914 133V133.5H127.886V133V132.5H125.914V133ZM129.857 133V133.5H131.829V133V132.5H129.857V133ZM133.8 133V133.5H135.771V133V132.5H133.8V133ZM137.743 133V133.5H139.714V133V132.5H137.743V133ZM141.686 133V133.5H143.657V133V132.5H141.686V133ZM145.629 133V133.5H147.6V133V132.5H145.629V133ZM149.571 133V133.5H151.543V133V132.5H149.571V133ZM153.514 133V133.5H154.5V133V132.5H153.514V133ZM16.5 133V134H17.4857V133V132H16.5V133ZM19.4571 133V134H21.4286V133V132H19.4571V133ZM23.4 133V134H25.3714V133V132H23.4V133ZM27.3429 133V134H29.3143V133V132H27.3429V133ZM31.2857 133V134H33.2571V133V132H31.2857V133ZM35.2286 133V134H37.2V133V132H35.2286V133ZM39.1714 133V134H41.1429V133V132H39.1714V133ZM43.1143 133V134H45.0857V133V132H43.1143V133ZM47.0571 133V134H49.0286V133V132H47.0571V133ZM51 133V134H52.9714V133V132H51V133ZM54.9429 133V134H56.9143V133V132H54.9429V133ZM58.8857 133V134H60.8571V133V132H58.8857V133ZM62.8286 133V134H64.8V133V132H62.8286V133ZM66.7714 133V134H68.7428V133V132H66.7714V133ZM70.7143 133V134H72.6857V133V132H70.7143V133ZM74.6571 133V134H76.6286V133V132H74.6571V133ZM78.6 133V134H80.5714V133V132H78.6V133ZM82.5428 133V134H84.5143V133V132H82.5428V133ZM86.4857 133V134H88.4571V133V132H86.4857V133ZM90.4286 133V134H92.4V133V132H90.4286V133ZM94.3714 133V134H96.3428V133V132H94.3714V133ZM98.3143 133V134H100.286V133V132H98.3143V133ZM102.257 133V134H104.229V133V132H102.257V133ZM106.2 133V134H108.171V133V132H106.2V133ZM110.143 133V134H112.114V133V132H110.143V133ZM114.086 133V134H116.057V133V132H114.086V133ZM118.029 133V134H120V133V132H118.029V133ZM121.971 133V134H123.943V133V132H121.971V133ZM125.914 133V134H127.886V133V132H125.914V133ZM129.857 133V134H131.829V133V132H129.857V133ZM133.8 133V134H135.771V133V132H133.8V133ZM137.743 133V134H139.714V133V132H137.743V133ZM141.686 133V134H143.657V133V132H141.686V133ZM145.629 133V134H147.6V133V132H145.629V133ZM149.571 133V134H151.543V133V132H149.571V133ZM153.514 133V134H154.5V133V132H153.514V133Z" fill="#E5E5E5" mask="url(#path-15-inside-2_172_129)"/>
<path d="M38.707 121.75L39.6445 118.516H40.6406L40.0195 121.75H38.707ZM47.3555 118.258V119.16H46.3477V122.336C46.793 122.301 47.2207 122.26 47.6367 122.207L47.6836 123.051C45.668 123.367 43.3125 123.402 41.625 123.402L41.4844 122.477L42.7617 122.465V119.16H41.7773V118.258H47.3555ZM50.2266 117.496V123.953H49.1133V122.125H47.5078V121.234H49.1133V120.215H47.5078V119.324H49.1133V117.496H50.2266ZM46.7109 124.152C48.9258 124.152 50.2617 124.844 50.2617 126.074C50.2617 127.27 48.9258 127.984 46.7109 127.973C44.4961 127.984 43.1484 127.27 43.1602 126.074C43.1484 124.844 44.4961 124.152 46.7109 124.152ZM46.7109 125.02C45.1641 125.02 44.2617 125.395 44.2617 126.074C44.2617 126.742 45.1641 127.117 46.7109 127.117C48.2461 127.117 49.1602 126.742 49.1602 126.074C49.1602 125.395 48.2461 125.02 46.7109 125.02ZM43.8398 122.453C44.3145 122.441 44.7949 122.424 45.2812 122.395V119.16H43.8398V122.453ZM60.0703 117.496V121.891H61.6523V122.828H60.0703V127.996H58.957V117.496H60.0703ZM51.7148 125.137C52.541 125.137 53.502 125.137 54.5039 125.102V124.035C53.3203 123.871 52.5469 123.156 52.5586 122.137C52.5469 120.953 53.5664 120.168 55.0664 120.168C56.5547 120.168 57.5859 120.953 57.5977 122.137C57.5859 123.156 56.8008 123.877 55.6172 124.047V125.055C56.5488 125.02 57.4863 124.943 58.3594 124.82L58.4297 125.641C56.1562 126.051 53.6953 126.062 51.8906 126.062L51.7148 125.137ZM58.207 118.738V119.629H51.9141V118.738H54.5039V117.52H55.6172V118.738H58.207ZM55.0664 121.035C54.1875 121.035 53.6016 121.469 53.6016 122.137C53.6016 122.805 54.1875 123.215 55.0664 123.215C55.9453 123.215 56.5312 122.805 56.5312 122.137C56.5312 121.469 55.9453 121.035 55.0664 121.035ZM65.6367 118.246C67.3008 118.234 68.4844 119.266 68.4961 120.742C68.4844 122.219 67.3008 123.25 65.6367 123.25C63.9844 123.25 62.7656 122.219 62.7773 120.742C62.7656 119.266 63.9844 118.234 65.6367 118.246ZM65.6367 119.207C64.6172 119.207 63.8672 119.816 63.8789 120.742C63.8672 121.668 64.6172 122.277 65.6367 122.277C66.6562 122.277 67.4062 121.668 67.4062 120.742C67.4062 119.816 66.6562 119.207 65.6367 119.207ZM70.8984 117.496V128.02H69.7852V117.496H70.8984ZM62.2734 124.832C64.1836 124.832 66.832 124.809 69.1289 124.48L69.2109 125.289C66.832 125.746 64.2891 125.758 62.4141 125.758L62.2734 124.832ZM83.7422 117.496V121.891H85.3242V122.828H83.7422V127.996H82.6289V117.496H83.7422ZM75.3867 125.137C76.2129 125.137 77.1738 125.137 78.1758 125.102V124.035C76.9922 123.871 76.2188 123.156 76.2305 122.137C76.2188 120.953 77.2383 120.168 78.7383 120.168C80.2266 120.168 81.2578 120.953 81.2695 122.137C81.2578 123.156 80.4727 123.877 79.2891 124.047V125.055C80.2207 125.02 81.1582 124.943 82.0312 124.82L82.1016 125.641C79.8281 126.051 77.3672 126.062 75.5625 126.062L75.3867 125.137ZM81.8789 118.738V119.629H75.5859V118.738H78.1758V117.52H79.2891V118.738H81.8789ZM78.7383 121.035C77.8594 121.035 77.2734 121.469 77.2734 122.137C77.2734 122.805 77.8594 123.215 78.7383 123.215C79.6172 123.215 80.2031 122.805 80.2031 122.137C80.2031 121.469 79.6172 121.035 78.7383 121.035ZM95.4844 122.992V123.883H91.3125V125.816H90.2109V123.883H85.875V122.992H95.4844ZM94.418 126.871V127.773H87.0703V124.902H88.1719V126.871H94.418ZM88.2422 117.824V119.102H93.1055V117.824H94.2188V122.066H87.1406V117.824H88.2422ZM88.2422 121.176H93.1055V119.934H88.2422V121.176ZM104.848 118.562C104.848 121.656 103.816 124.445 99.9609 126.32L99.3633 125.453C101.244 124.539 102.416 123.408 103.078 122.066L99.5742 122.395L99.4219 121.422L103.43 121.164C103.594 120.631 103.699 120.062 103.746 119.465H99.9492V118.562H104.848ZM107.918 117.496V127.996H106.793V117.496H107.918ZM118.078 123.086V123.977H110.766V118.363H117.973V119.266H111.891V120.684H117.75V121.562H111.891V123.086H118.078ZM119.168 125.758V126.672H109.559V125.758H119.168ZM121.922 118.527L120.984 121.762H119.988L120.609 118.527H121.922ZM132.316 122.371V123.098H122.777V122.371H132.316ZM131.121 123.93V126.145H124.863V127.141H131.461V127.809H123.938V125.512H130.207V124.621H123.926V123.93H131.121ZM131.086 117.848V120.004H124.934V120.918H131.273V121.586H124.02V119.371H130.16V118.516H123.984V117.848H131.086Z" fill="#333333"/>
<mask id="path-18-inside-3_172_129" fill="white">
<path d="M16.5 138H154.5V158H16.5V138Z"/>
</mask>
<path d="M16.5 158V158.5H17.4857V158V157.5H16.5V158ZM19.4571 158V158.5H21.4286V158V157.5H19.4571V158ZM23.4 158V158.5H25.3714V158V157.5H23.4V158ZM27.3429 158V158.5H29.3143V158V157.5H27.3429V158ZM31.2857 158V158.5H33.2571V158V157.5H31.2857V158ZM35.2286 158V158.5H37.2V158V157.5H35.2286V158ZM39.1714 158V158.5H41.1429V158V157.5H39.1714V158ZM43.1143 158V158.5H45.0857V158V157.5H43.1143V158ZM47.0571 158V158.5H49.0286V158V157.5H47.0571V158ZM51 158V158.5H52.9714V158V157.5H51V158ZM54.9429 158V158.5H56.9143V158V157.5H54.9429V158ZM58.8857 158V158.5H60.8571V158V157.5H58.8857V158ZM62.8286 158V158.5H64.8V158V157.5H62.8286V158ZM66.7714 158V158.5H68.7428V158V157.5H66.7714V158ZM70.7143 158V158.5H72.6857V158V157.5H70.7143V158ZM74.6571 158V158.5H76.6286V158V157.5H74.6571V158ZM78.6 158V158.5H80.5714V158V157.5H78.6V158ZM82.5428 158V158.5H84.5143V158V157.5H82.5428V158ZM86.4857 158V158.5H88.4571V158V157.5H86.4857V158ZM90.4286 158V158.5H92.4V158V157.5H90.4286V158ZM94.3714 158V158.5H96.3428V158V157.5H94.3714V158ZM98.3143 158V158.5H100.286V158V157.5H98.3143V158ZM102.257 158V158.5H104.229V158V157.5H102.257V158ZM106.2 158V158.5H108.171V158V157.5H106.2V158ZM110.143 158V158.5H112.114V158V157.5H110.143V158ZM114.086 158V158.5H116.057V158V157.5H114.086V158ZM118.029 158V158.5H120V158V157.5H118.029V158ZM121.971 158V158.5H123.943V158V157.5H121.971V158ZM125.914 158V158.5H127.886V158V157.5H125.914V158ZM129.857 158V158.5H131.829V158V157.5H129.857V158ZM133.8 158V158.5H135.771V158V157.5H133.8V158ZM137.743 158V158.5H139.714V158V157.5H137.743V158ZM141.686 158V158.5H143.657V158V157.5H141.686V158ZM145.629 158V158.5H147.6V158V157.5H145.629V158ZM149.571 158V158.5H151.543V158V157.5H149.571V158ZM153.514 158V158.5H154.5V158V157.5H153.514V158ZM16.5 158V159H17.4857V158V157H16.5V158ZM19.4571 158V159H21.4286V158V157H19.4571V158ZM23.4 158V159H25.3714V158V157H23.4V158ZM27.3429 158V159H29.3143V158V157H27.3429V158ZM31.2857 158V159H33.2571V158V157H31.2857V158ZM35.2286 158V159H37.2V158V157H35.2286V158ZM39.1714 158V159H41.1429V158V157H39.1714V158ZM43.1143 158V159H45.0857V158V157H43.1143V158ZM47.0571 158V159H49.0286V158V157H47.0571V158ZM51 158V159H52.9714V158V157H51V158ZM54.9429 158V159H56.9143V158V157H54.9429V158ZM58.8857 158V159H60.8571V158V157H58.8857V158ZM62.8286 158V159H64.8V158V157H62.8286V158ZM66.7714 158V159H68.7428V158V157H66.7714V158ZM70.7143 158V159H72.6857V158V157H70.7143V158ZM74.6571 158V159H76.6286V158V157H74.6571V158ZM78.6 158V159H80.5714V158V157H78.6V158ZM82.5428 158V159H84.5143V158V157H82.5428V158ZM86.4857 158V159H88.4571V158V157H86.4857V158ZM90.4286 158V159H92.4V158V157H90.4286V158ZM94.3714 158V159H96.3428V158V157H94.3714V158ZM98.3143 158V159H100.286V158V157H98.3143V158ZM102.257 158V159H104.229V158V157H102.257V158ZM106.2 158V159H108.171V158V157H106.2V158ZM110.143 158V159H112.114V158V157H110.143V158ZM114.086 158V159H116.057V158V157H114.086V158ZM118.029 158V159H120V158V157H118.029V158ZM121.971 158V159H123.943V158V157H121.971V158ZM125.914 158V159H127.886V158V157H125.914V158ZM129.857 158V159H131.829V158V157H129.857V158ZM133.8 158V159H135.771V158V157H133.8V158ZM137.743 158V159H139.714V158V157H137.743V158ZM141.686 158V159H143.657V158V157H141.686V158ZM145.629 158V159H147.6V158V157H145.629V158ZM149.571 158V159H151.543V158V157H149.571V158ZM153.514 158V159H154.5V158V157H153.514V158Z" fill="#E5E5E5" mask="url(#path-18-inside-3_172_129)"/>
<path d="M50.3496 143.48V148.273H45.5332V143.48H50.3496ZM46.4355 144.23V147.535H49.459V144.23H46.4355ZM53.2324 142.531V145.707H54.8027V146.48H53.2324V150.172H52.3184V142.531H53.2324ZM53.7129 151.953V152.727H46.7168V149.445H47.6191V151.953H53.7129ZM63.6035 142.531V144.711H65.1738V145.484H63.6035V147.793H62.6895V142.531H63.6035ZM56.8887 143V146.492C58.3711 146.498 59.9004 146.393 61.5879 146.047L61.7051 146.82C59.9238 147.184 58.3652 147.289 56.7949 147.289H55.9629V143H56.8887ZM63.6035 148.297V150.84H57.8965V152.059H63.9902V152.809H56.9824V150.113H62.6895V149.035H56.959V148.297H63.6035ZM74.0684 143.504C74.0684 144.969 75.9902 146.246 77.8652 146.504L77.4902 147.254C75.873 146.984 74.2734 146.088 73.5996 144.805C72.9316 146.094 71.3262 146.984 69.709 147.254L69.334 146.504C71.209 146.246 73.1191 144.992 73.1191 143.504V142.906H74.0684V143.504ZM78.334 148.402V149.176H74.0215V152.949H73.1191V149.176H68.8418V148.402H78.334ZM85.752 149.527C85.752 150.447 86.2441 151.426 87.2402 151.988C88.2246 151.373 88.752 150.336 88.752 149.527V148.953H89.6543V149.527C89.6543 150.594 90.4395 151.672 91.7754 152.129L91.3184 152.809C90.2754 152.439 89.543 151.713 89.1855 150.84C88.8633 151.684 88.2246 152.48 87.2637 152.891C86.25 152.504 85.6055 151.736 85.2949 150.863C84.9258 151.707 84.2051 152.434 83.209 152.809L82.7402 152.129C84.0527 151.637 84.8496 150.523 84.8613 149.527V148.953H85.752V149.527ZM90.8262 142.543V148.496H89.9121V142.543H90.8262ZM85.2012 143.152C86.7832 143.152 87.9316 144.137 87.9316 145.59C87.9316 147.02 86.7832 148.004 85.2012 148.004C83.6191 148.004 82.4707 147.02 82.4707 145.59C82.4707 144.137 83.6191 143.152 85.2012 143.152ZM85.2012 143.938C84.1348 143.926 83.3613 144.617 83.373 145.59C83.3613 146.551 84.1348 147.23 85.2012 147.242C86.2559 147.23 87.0293 146.551 87.0293 145.59C87.0293 144.617 86.2559 143.926 85.2012 143.938ZM94.7168 148.789V150.008H99.9199V148.789H100.846V152.809H93.8027V148.789H94.7168ZM94.7168 152.07H99.9199V150.734H94.7168V152.07ZM102.088 147.289V148.051H92.5957V147.289H102.088ZM97.8223 143.141C97.8223 144.43 99.7207 145.578 101.549 145.812L101.209 146.551C99.5918 146.311 98.0098 145.484 97.3535 144.312C96.6855 145.49 95.0918 146.311 93.4863 146.551L93.1348 145.812C94.9863 145.566 96.873 144.465 96.873 143.141V142.648H97.8223V143.141ZM111.557 142.531V152.949H110.643V142.531H111.557ZM104.549 143.562V149.469C106.137 149.463 107.783 149.334 109.529 148.965L109.658 149.75C107.807 150.137 106.154 150.266 104.49 150.266H103.646V143.562H104.549ZM121.4 142.531V146.656H123.146V147.43H121.4V152.973H120.486V142.531H121.4ZM118.658 143.551V144.312H114.709V149.586C116.596 149.586 117.932 149.498 119.479 149.211L119.596 150.008C117.967 150.301 116.596 150.359 114.615 150.359H113.795V143.551H118.658ZM124.811 152.07C124.4 152.07 124.049 151.73 124.061 151.309C124.049 150.898 124.4 150.559 124.811 150.559C125.221 150.559 125.561 150.898 125.561 151.309C125.561 151.73 125.221 152.07 124.811 152.07Z" fill="#333333"/>
<mask id="path-21-inside-4_172_129" fill="white">
<path d="M16.5 163H154.5V183H16.5V163Z"/>
</mask>
<path d="M16.5 183V183.5H17.4857V183V182.5H16.5V183ZM19.4571 183V183.5H21.4286V183V182.5H19.4571V183ZM23.4 183V183.5H25.3714V183V182.5H23.4V183ZM27.3429 183V183.5H29.3143V183V182.5H27.3429V183ZM31.2857 183V183.5H33.2571V183V182.5H31.2857V183ZM35.2286 183V183.5H37.2V183V182.5H35.2286V183ZM39.1714 183V183.5H41.1429V183V182.5H39.1714V183ZM43.1143 183V183.5H45.0857V183V182.5H43.1143V183ZM47.0571 183V183.5H49.0286V183V182.5H47.0571V183ZM51 183V183.5H52.9714V183V182.5H51V183ZM54.9429 183V183.5H56.9143V183V182.5H54.9429V183ZM58.8857 183V183.5H60.8571V183V182.5H58.8857V183ZM62.8286 183V183.5H64.8V183V182.5H62.8286V183ZM66.7714 183V183.5H68.7428V183V182.5H66.7714V183ZM70.7143 183V183.5H72.6857V183V182.5H70.7143V183ZM74.6571 183V183.5H76.6286V183V182.5H74.6571V183ZM78.6 183V183.5H80.5714V183V182.5H78.6V183ZM82.5428 183V183.5H84.5143V183V182.5H82.5428V183ZM86.4857 183V183.5H88.4571V183V182.5H86.4857V183ZM90.4286 183V183.5H92.4V183V182.5H90.4286V183ZM94.3714 183V183.5H96.3428V183V182.5H94.3714V183ZM98.3143 183V183.5H100.286V183V182.5H98.3143V183ZM102.257 183V183.5H104.229V183V182.5H102.257V183ZM106.2 183V183.5H108.171V183V182.5H106.2V183ZM110.143 183V183.5H112.114V183V182.5H110.143V183ZM114.086 183V183.5H116.057V183V182.5H114.086V183ZM118.029 183V183.5H120V183V182.5H118.029V183ZM121.971 183V183.5H123.943V183V182.5H121.971V183ZM125.914 183V183.5H127.886V183V182.5H125.914V183ZM129.857 183V183.5H131.829V183V182.5H129.857V183ZM133.8 183V183.5H135.771V183V182.5H133.8V183ZM137.743 183V183.5H139.714V183V182.5H137.743V183ZM141.686 183V183.5H143.657V183V182.5H141.686V183ZM145.629 183V183.5H147.6V183V182.5H145.629V183ZM149.571 183V183.5H151.543V183V182.5H149.571V183ZM153.514 183V183.5H154.5V183V182.5H153.514V183ZM16.5 183V184H17.4857V183V182H16.5V183ZM19.4571 183V184H21.4286V183V182H19.4571V183ZM23.4 183V184H25.3714V183V182H23.4V183ZM27.3429 183V184H29.3143V183V182H27.3429V183ZM31.2857 183V184H33.2571V183V182H31.2857V183ZM35.2286 183V184H37.2V183V182H35.2286V183ZM39.1714 183V184H41.1429V183V182H39.1714V183ZM43.1143 183V184H45.0857V183V182H43.1143V183ZM47.0571 183V184H49.0286V183V182H47.0571V183ZM51 183V184H52.9714V183V182H51V183ZM54.9429 183V184H56.9143V183V182H54.9429V183ZM58.8857 183V184H60.8571V183V182H58.8857V183ZM62.8286 183V184H64.8V183V182H62.8286V183ZM66.7714 183V184H68.7428V183V182H66.7714V183ZM70.7143 183V184H72.6857V183V182H70.7143V183ZM74.6571 183V184H76.6286V183V182H74.6571V183ZM78.6 183V184H80.5714V183V182H78.6V183ZM82.5428 183V184H84.5143V183V182H82.5428V183ZM86.4857 183V184H88.4571V183V182H86.4857V183ZM90.4286 183V184H92.4V183V182H90.4286V183ZM94.3714 183V184H96.3428V183V182H94.3714V183ZM98.3143 183V184H100.286V183V182H98.3143V183ZM102.257 183V184H104.229V183V182H102.257V183ZM106.2 183V184H108.171V183V182H106.2V183ZM110.143 183V184H112.114V183V182H110.143V183ZM114.086 183V184H116.057V183V182H114.086V183ZM118.029 183V184H120V183V182H118.029V183ZM121.971 183V184H123.943V183V182H121.971V183ZM125.914 183V184H127.886V183V182H125.914V183ZM129.857 183V184H131.829V183V182H129.857V183ZM133.8 183V184H135.771V183V182H133.8V183ZM137.743 183V184H139.714V183V182H137.743V183ZM141.686 183V184H143.657V183V182H141.686V183ZM145.629 183V184H147.6V183V182H145.629V183ZM149.571 183V184H151.543V183V182H149.571V183ZM153.514 183V184H154.5V183V182H153.514V183Z" fill="#E5E5E5" mask="url(#path-21-inside-4_172_129)"/>
<path d="M33.0469 170.73C33.0352 172.406 34.2422 174.246 35.7539 174.961L35.2266 175.688C34.0547 175.119 33.0645 173.877 32.6016 172.465C32.1211 174 31.0723 175.348 29.9062 175.945L29.3438 175.219C30.8438 174.492 32.1328 172.512 32.1445 170.73V169.371H29.7188V168.609H35.3906V169.371H33.0469V170.73ZM37.582 167.531V171.75H39.3281V172.535H37.582V177.949H36.668V167.531H37.582ZM45.8438 168.527V169.277H44.7773V172.723C45.3105 172.688 45.8379 172.641 46.3359 172.582L46.4062 173.273C44.2969 173.602 41.8359 173.648 40.0312 173.648L39.9258 172.887L41.2734 172.863V169.277H40.2188V168.527H45.8438ZM48.0352 167.543V170.707H49.6055V171.492H48.0352V175.207H47.1211V167.543H48.0352ZM48.5156 176.953V177.727H41.5195V174.48H42.4219V176.953H48.5156ZM42.1758 172.852C42.7324 172.834 43.3066 172.816 43.875 172.781V169.277H42.1758V172.852ZM58.875 167.531V177.949H57.9492V167.531H58.875ZM55.793 168.668C55.7812 171.668 54.3867 174.316 50.8945 175.992L50.3906 175.242C53.209 173.906 54.6445 171.908 54.8555 169.418H50.8711V168.668H55.793ZM69.5625 167.531V177.949H68.6719V167.531H69.5625ZM67.4648 167.754V177.422H66.5859V172.359H65.25C65.1504 174.387 64.2891 175.652 63 175.652C61.6406 175.652 60.7617 174.246 60.7617 172.031C60.7617 169.816 61.6406 168.41 63 168.41C64.2656 168.41 65.1211 169.635 65.2383 171.598H66.5859V167.754H67.4648ZM63 169.277C62.1562 169.277 61.6172 170.332 61.6289 172.031C61.6172 173.719 62.1562 174.785 63 174.773C63.8438 174.785 64.3828 173.719 64.3828 172.031C64.3828 170.332 63.8438 169.277 63 169.277ZM74.6719 170.332C74.6719 172.219 75.8789 174.117 77.3906 174.809L76.8398 175.559C75.6562 174.949 74.6777 173.701 74.2148 172.219C73.752 173.777 72.7734 175.113 71.5898 175.746L70.9922 175.008C72.5156 174.258 73.7344 172.254 73.7344 170.332V168.434H74.6719V170.332ZM79.6406 167.531V177.973H78.7266V171.844H76.2539V171.094H78.7266V167.531H79.6406ZM92.4727 167.531V171.973H94.1367V172.746H92.4727V177.949H91.5469V167.531H92.4727ZM84.2578 175.172C85.1074 175.172 86.0977 175.172 87.1289 175.137V173.977C85.916 173.842 85.125 173.133 85.1367 172.102C85.125 170.93 86.1211 170.168 87.5977 170.168C89.0508 170.168 90.0586 170.93 90.0703 172.102C90.0586 173.133 89.2559 173.842 88.0547 173.988V175.102C89.0273 175.055 90.0059 174.979 90.9141 174.844L90.9727 175.547C88.6992 175.934 86.2383 175.957 84.4102 175.957L84.2578 175.172ZM90.7266 168.809V169.559H84.4453V168.809H87.1289V167.555H88.0547V168.809H90.7266ZM87.5977 170.883C86.6367 170.883 85.9922 171.375 85.9922 172.102C85.9922 172.828 86.6367 173.297 87.5977 173.285C88.5469 173.297 89.1914 172.828 89.1914 172.102C89.1914 171.375 88.5469 170.883 87.5977 170.883ZM104.285 173.051V173.801H100.043V175.84H99.1289V173.801H94.7461V173.051H104.285ZM103.219 176.953V177.727H95.9648V174.879H96.8789V176.953H103.219ZM96.9375 167.871V169.207H102.094V167.871H103.008V172.031H96.0234V167.871H96.9375ZM96.9375 171.281H102.094V169.91H96.9375V171.281ZM109.875 167.719C112.195 167.719 113.555 168.352 113.555 169.512C113.555 170.695 112.195 171.328 109.875 171.34C107.555 171.328 106.184 170.695 106.184 169.512C106.184 168.352 107.555 167.719 109.875 167.719ZM109.875 168.41C108.141 168.41 107.133 168.832 107.145 169.512C107.133 170.238 108.141 170.637 109.875 170.637C111.598 170.637 112.617 170.238 112.617 169.512C112.617 168.832 111.598 168.41 109.875 168.41ZM114.621 172.043V172.793H105.129V172.043H114.621ZM113.402 173.695V176.027H107.215V177.105H113.719V177.832H106.301V175.348H112.5V174.398H106.277V173.695H113.402ZM120.305 167.707V168.844H121.969V167.707H122.848V171.363H123.68V167.707H124.559V168.844H126.234V167.707H127.102V171.457H123.715V172.629H128.004V173.367H118.512V172.629H122.801V171.457H119.402V167.707H120.305ZM120.305 170.695H121.969V169.57H120.305V170.695ZM124.559 170.695H126.234V169.57H124.559V170.695ZM120.633 174.07V175.125H125.859V174.07H126.797V177.809H119.719V174.07H120.633ZM120.633 177.07H125.859V175.852H120.633V177.07ZM137.238 168.586V169.629C137.227 170.906 137.227 172.336 136.852 174.434L135.914 174.328C136.312 172.336 136.312 170.871 136.312 169.629V169.348H129.891V168.586H137.238ZM138.375 175.711V176.473H128.883V175.711H132.609V171.984H133.512V175.711H138.375ZM140.965 176.215L140.051 179.402H139.184L139.828 176.215H140.965Z" fill="#333333"/>
<mask id="path-24-inside-5_172_129" fill="white">
<path d="M16.5 188H154.5V208H16.5V188Z"/>
</mask>
<path d="M16.5 208V208.5H17.4857V208V207.5H16.5V208ZM19.4571 208V208.5H21.4286V208V207.5H19.4571V208ZM23.4 208V208.5H25.3714V208V207.5H23.4V208ZM27.3429 208V208.5H29.3143V208V207.5H27.3429V208ZM31.2857 208V208.5H33.2571V208V207.5H31.2857V208ZM35.2286 208V208.5H37.2V208V207.5H35.2286V208ZM39.1714 208V208.5H41.1429V208V207.5H39.1714V208ZM43.1143 208V208.5H45.0857V208V207.5H43.1143V208ZM47.0571 208V208.5H49.0286V208V207.5H47.0571V208ZM51 208V208.5H52.9714V208V207.5H51V208ZM54.9429 208V208.5H56.9143V208V207.5H54.9429V208ZM58.8857 208V208.5H60.8571V208V207.5H58.8857V208ZM62.8286 208V208.5H64.8V208V207.5H62.8286V208ZM66.7714 208V208.5H68.7428V208V207.5H66.7714V208ZM70.7143 208V208.5H72.6857V208V207.5H70.7143V208ZM74.6571 208V208.5H76.6286V208V207.5H74.6571V208ZM78.6 208V208.5H80.5714V208V207.5H78.6V208ZM82.5428 208V208.5H84.5143V208V207.5H82.5428V208ZM86.4857 208V208.5H88.4571V208V207.5H86.4857V208ZM90.4286 208V208.5H92.4V208V207.5H90.4286V208ZM94.3714 208V208.5H96.3428V208V207.5H94.3714V208ZM98.3143 208V208.5H100.286V208V207.5H98.3143V208ZM102.257 208V208.5H104.229V208V207.5H102.257V208ZM106.2 208V208.5H108.171V208V207.5H106.2V208ZM110.143 208V208.5H112.114V208V207.5H110.143V208ZM114.086 208V208.5H116.057V208V207.5H114.086V208ZM118.029 208V208.5H120V208V207.5H118.029V208ZM121.971 208V208.5H123.943V208V207.5H121.971V208ZM125.914 208V208.5H127.886V208V207.5H125.914V208ZM129.857 208V208.5H131.829V208V207.5H129.857V208ZM133.8 208V208.5H135.771V208V207.5H133.8V208ZM137.743 208V208.5H139.714V208V207.5H137.743V208ZM141.686 208V208.5H143.657V208V207.5H141.686V208ZM145.629 208V208.5H147.6V208V207.5H145.629V208ZM149.571 208V208.5H151.543V208V207.5H149.571V208ZM153.514 208V208.5H154.5V208V207.5H153.514V208ZM16.5 208V209H17.4857V208V207H16.5V208ZM19.4571 208V209H21.4286V208V207H19.4571V208ZM23.4 208V209H25.3714V208V207H23.4V208ZM27.3429 208V209H29.3143V208V207H27.3429V208ZM31.2857 208V209H33.2571V208V207H31.2857V208ZM35.2286 208V209H37.2V208V207H35.2286V208ZM39.1714 208V209H41.1429V208V207H39.1714V208ZM43.1143 208V209H45.0857V208V207H43.1143V208ZM47.0571 208V209H49.0286V208V207H47.0571V208ZM51 208V209H52.9714V208V207H51V208ZM54.9429 208V209H56.9143V208V207H54.9429V208ZM58.8857 208V209H60.8571V208V207H58.8857V208ZM62.8286 208V209H64.8V208V207H62.8286V208ZM66.7714 208V209H68.7428V208V207H66.7714V208ZM70.7143 208V209H72.6857V208V207H70.7143V208ZM74.6571 208V209H76.6286V208V207H74.6571V208ZM78.6 208V209H80.5714V208V207H78.6V208ZM82.5428 208V209H84.5143V208V207H82.5428V208ZM86.4857 208V209H88.4571V208V207H86.4857V208ZM90.4286 208V209H92.4V208V207H90.4286V208ZM94.3714 208V209H96.3428V208V207H94.3714V208ZM98.3143 208V209H100.286V208V207H98.3143V208ZM102.257 208V209H104.229V208V207H102.257V208ZM106.2 208V209H108.171V208V207H106.2V208ZM110.143 208V209H112.114V208V207H110.143V208ZM114.086 208V209H116.057V208V207H114.086V208ZM118.029 208V209H120V208V207H118.029V208ZM121.971 208V209H123.943V208V207H121.971V208ZM125.914 208V209H127.886V208V207H125.914V208ZM129.857 208V209H131.829V208V207H129.857V208ZM133.8 208V209H135.771V208V207H133.8V208ZM137.743 208V209H139.714V208V207H137.743V208ZM141.686 208V209H143.657V208V207H141.686V208ZM145.629 208V209H147.6V208V207H145.629V208ZM149.571 208V209H151.543V208V207H149.571V208ZM153.514 208V209H154.5V208V207H153.514V208Z" fill="#E5E5E5" mask="url(#path-24-inside-5_172_129)"/>
<path d="M25.9043 197.594V198.367H21.6035V202.961H20.6895V198.367H16.4121V197.594H19.1543C19.5762 195.994 19.6523 194.787 19.6816 194.02H17.1738V193.27H20.5723V193.586C20.5723 194.248 20.5723 195.619 20.0918 197.594H23.5137C23.877 195.971 23.918 194.793 23.9238 194.02H21.3457V193.27H24.8379V193.727C24.8379 194.441 24.8379 195.73 24.4512 197.594H25.9043ZM32.2207 193.445V198.273H27.334V193.445H32.2207ZM28.2363 194.207V197.535H31.3184V194.207H28.2363ZM35.3848 192.543V200.031H34.4707V192.543H35.3848ZM35.7129 201.836V202.598H28.6582V199.305H29.5723V201.836H35.7129ZM48.7559 192.543V202.961H47.8535V192.543H48.7559ZM40.1191 198.215C42.1934 198.203 44.7949 198.191 47.1035 197.934L47.1504 198.637C46.1426 198.771 45.1055 198.859 44.0918 198.906V202.633H43.1777V198.953C42.1406 198.988 41.1387 199 40.2363 199L40.1191 198.215ZM46.3066 196.117V196.891H41.1152V193.129H46.166V193.879H42.041V196.117H46.3066ZM58.6934 195.648C58.5996 194.816 57.8379 194.336 56.8184 194.336C55.6934 194.336 54.9551 194.922 54.9551 195.73C54.9551 196.621 55.9512 196.949 56.5957 197.113L57.4395 197.348C58.3535 197.582 59.8418 198.109 59.8418 199.691C59.8418 201.074 58.7285 202.152 56.7598 202.152C54.9316 202.152 53.7949 201.203 53.7012 199.797H54.7793C54.873 200.746 55.752 201.191 56.7598 201.191C57.9316 201.191 58.8105 200.594 58.8105 199.668C58.8105 198.848 58.0254 198.531 57.1348 198.273L56.0918 197.992C54.7559 197.605 53.9355 196.926 53.9355 195.777C53.9355 194.348 55.2129 193.398 56.8535 193.398C58.4941 193.398 59.6777 194.359 59.7246 195.648H58.6934ZM68.0918 193.516V202H67.084L62.4902 195.391H62.4082V202H61.3535V193.516H62.373L66.9668 200.137H67.0488V193.516H68.0918ZM74.5957 195.648C74.502 194.816 73.7402 194.336 72.7207 194.336C71.5957 194.336 70.8574 194.922 70.8574 195.73C70.8574 196.621 71.8535 196.949 72.498 197.113L73.3418 197.348C74.2559 197.582 75.7441 198.109 75.7441 199.691C75.7441 201.074 74.6309 202.152 72.6621 202.152C70.834 202.152 69.6973 201.203 69.6035 199.797H70.6816C70.7754 200.746 71.6543 201.191 72.6621 201.191C73.834 201.191 74.7129 200.594 74.7129 199.668C74.7129 198.848 73.9277 198.531 73.0371 198.273L71.9941 197.992C70.6582 197.605 69.8379 196.926 69.8379 195.777C69.8379 194.348 71.1152 193.398 72.7559 193.398C74.3965 193.398 75.5801 194.359 75.627 195.648H74.5957ZM86.2793 200.887V201.66H76.7402V200.887H81.0293V198.918H77.9355V195.707H84.1699V194.066H77.9121V193.305H85.0723V196.457H78.8496V198.156H85.3184V198.918H81.9316V200.887H86.2793ZM94.834 199.117C97.0723 199.117 98.4902 199.82 98.4902 201.027C98.4902 202.223 97.0723 202.926 94.834 202.926C92.6074 202.926 91.1895 202.223 91.1895 201.027C91.1895 199.82 92.6074 199.117 94.834 199.117ZM94.834 199.82C93.1699 199.832 92.0918 200.289 92.1035 201.027C92.0918 201.754 93.1699 202.199 94.834 202.199C96.498 202.199 97.5645 201.754 97.5762 201.027C97.5645 200.289 96.498 199.832 94.834 199.82ZM98.4082 193.07V193.949C98.4082 194.793 98.4082 195.637 98.1152 196.715L97.2129 196.609C97.4941 195.531 97.4941 194.77 97.4941 193.949V193.82H91.2598V193.07H98.4082ZM99.6152 197.395V198.145H90.1348V197.395H94.0605V195.379H94.9629V197.395H99.6152ZM110.021 198.473V199.234H107.502V202.949H106.576V199.234H103.904V202.949H102.955V199.234H100.482V198.473H110.021ZM105.229 192.953C107.42 192.953 108.896 193.832 108.896 195.227C108.896 196.609 107.42 197.488 105.229 197.477C103.037 197.488 101.561 196.609 101.561 195.227C101.561 193.832 103.037 192.953 105.229 192.953ZM105.229 193.703C103.6 193.703 102.498 194.301 102.51 195.227C102.498 196.152 103.6 196.738 105.229 196.738C106.846 196.738 107.959 196.152 107.959 195.227C107.959 194.301 106.846 193.703 105.229 193.703ZM116.068 194.336V195.086H110.842V194.336H113.01V192.848H113.924V194.336H116.068ZM113.455 195.789C114.768 195.789 115.705 196.773 115.717 198.156C115.705 199.551 114.768 200.547 113.455 200.547C112.154 200.547 111.217 199.551 111.217 198.156C111.217 196.773 112.154 195.789 113.455 195.789ZM113.455 196.562C112.635 196.574 112.037 197.242 112.037 198.156C112.037 199.082 112.635 199.75 113.455 199.738C114.287 199.75 114.896 199.082 114.896 198.156C114.896 197.242 114.287 196.574 113.455 196.562ZM119.736 192.531V202.949H118.857V197.688H117.475V202.434H116.607V192.789H117.475V196.926H118.857V192.531H119.736ZM130.775 200.852V201.613H121.236V200.852H125.525V198.602H122.361V193.27H123.287V195.156H128.701V193.27H129.604V198.602H126.428V200.852H130.775ZM123.287 197.852H128.701V195.906H123.287V197.852ZM134.701 195.496C134.701 197.148 135.51 198.941 136.893 199.762L136.365 200.477C135.363 199.867 134.643 198.754 134.279 197.488C133.893 198.871 133.119 200.061 132.076 200.699L131.49 200.008C132.932 199.164 133.811 197.312 133.811 195.531V193.516H134.701V195.496ZM140.537 192.531V202.949H139.646V192.531H140.537ZM138.381 192.754V202.422H137.514V197.055H135.744V196.27H137.514V192.754H138.381ZM151.518 200.84V201.613H141.979V200.84H144.346V198.027C143.455 197.564 142.916 196.814 142.916 195.871C142.916 194.254 144.498 193.199 146.725 193.188C148.951 193.199 150.533 194.254 150.533 195.871C150.533 196.797 150.012 197.541 149.15 198.004V200.84H151.518ZM146.725 193.949C145.014 193.938 143.807 194.711 143.807 195.871C143.807 197.031 145.014 197.816 146.725 197.816C148.424 197.816 149.643 197.031 149.643 195.871C149.643 194.711 148.424 193.938 146.725 193.949ZM145.248 200.84H148.225V198.355C147.773 198.479 147.27 198.543 146.725 198.543C146.191 198.543 145.693 198.484 145.248 198.367V200.84ZM154.037 193.516L153.955 199.609H152.971L152.889 193.516H154.037ZM153.463 202.07C153.053 202.07 152.701 201.73 152.713 201.309C152.701 200.898 153.053 200.559 153.463 200.559C153.873 200.559 154.213 200.898 154.213 201.309C154.213 201.73 153.873 202.07 153.463 202.07Z" fill="#333333"/>
<path d="M30.8762 237.152C31.2028 237.152 31.3662 237.306 31.3662 237.614V238.832H25.9202C25.5935 238.832 25.4302 238.673 25.4302 238.356V229.186H26.7602C27.0868 229.186 27.2502 229.345 27.2502 229.662V237.152H30.8762ZM37.8055 238.706C37.4975 238.827 37.2035 238.911 36.9235 238.958C36.6435 238.995 36.3262 239.014 35.9715 239.014C34.7955 239.014 33.8622 238.725 33.1715 238.146C32.4808 237.558 32.1355 236.597 32.1355 235.262C32.1355 234.422 32.2755 233.722 32.5555 233.162C32.8355 232.593 33.2135 232.173 33.6895 231.902C34.1655 231.631 34.7068 231.496 35.3135 231.496C35.8268 231.496 36.2935 231.603 36.7135 231.818C37.1428 232.033 37.4788 232.341 37.7215 232.742C37.9642 233.143 38.0855 233.61 38.0855 234.142C38.0855 234.73 37.9268 235.187 37.6095 235.514C37.2922 235.831 36.7788 235.999 36.0695 236.018L33.9415 236.074C33.9415 236.475 34.1328 236.807 34.5155 237.068C34.8982 237.32 35.3882 237.446 35.9855 237.446C36.6295 237.446 37.2268 237.348 37.7775 237.152L38.0295 238.314C38.0388 238.342 38.0435 238.379 38.0435 238.426C38.0435 238.547 37.9642 238.641 37.8055 238.706ZM36.4755 234.044C36.4755 233.755 36.3728 233.512 36.1675 233.316C35.9622 233.111 35.6868 233.008 35.3415 233.008C34.9028 233.008 34.5575 233.153 34.3055 233.442C34.0628 233.731 33.9415 234.142 33.9415 234.674L35.9155 234.646C36.1022 234.646 36.2422 234.599 36.3355 234.506C36.4288 234.403 36.4755 234.249 36.4755 234.044ZM43.5267 238.174C43.5547 238.23 43.5687 238.286 43.5687 238.342C43.5687 238.482 43.48 238.594 43.3027 238.678C42.9387 238.874 42.4954 238.972 41.9727 238.972C41.2727 238.972 40.7174 238.795 40.3067 238.44C39.9054 238.076 39.7047 237.521 39.7047 236.774V233.232H38.9767C38.678 233.232 38.5287 233.087 38.5287 232.798V231.566H39.7047V229.368H41.0767C41.3754 229.368 41.5247 229.517 41.5247 229.816V231.566H42.6167C42.9247 231.566 43.0787 231.715 43.0787 232.014V233.232H41.5247V236.354C41.5247 236.662 41.576 236.881 41.6787 237.012C41.7907 237.133 41.968 237.194 42.2107 237.194C42.472 237.194 42.752 237.119 43.0507 236.97L43.5267 238.174ZM44.4471 232.476C44.6711 232.215 44.8671 231.935 45.0351 231.636C45.2124 231.337 45.3384 231.053 45.4131 230.782C45.0771 230.763 44.8111 230.67 44.6151 230.502C44.4284 230.325 44.3351 230.091 44.3351 229.802C44.3351 229.485 44.4424 229.214 44.6571 228.99C44.8811 228.757 45.1611 228.64 45.4971 228.64C45.8331 228.64 46.1037 228.757 46.3091 228.99C46.5144 229.223 46.6171 229.55 46.6171 229.97C46.6171 230.549 46.4864 231.118 46.2251 231.678C45.9637 232.238 45.6791 232.649 45.3711 232.91C45.3057 232.957 45.2497 232.98 45.2031 232.98C45.1564 232.98 45.1144 232.966 45.0771 232.938L44.4471 232.476ZM52.667 233.624C52.3217 233.428 51.981 233.283 51.645 233.19C51.309 233.087 50.9357 233.036 50.525 233.036C50.2077 233.036 49.965 233.087 49.797 233.19C49.6384 233.283 49.559 233.419 49.559 233.596C49.559 233.773 49.6617 233.927 49.867 234.058C50.0724 234.179 50.455 234.319 51.015 234.478C52.5177 234.898 53.269 235.696 53.269 236.872C53.269 237.591 53.0264 238.127 52.541 238.482C52.0557 238.837 51.3697 239.014 50.483 239.014C49.9324 239.014 49.419 238.949 48.943 238.818C48.467 238.678 48.0657 238.482 47.739 238.23C47.6177 238.146 47.557 238.048 47.557 237.936C47.557 237.852 47.585 237.768 47.641 237.684L48.341 236.718C48.985 237.185 49.6617 237.418 50.371 237.418C51.0617 237.418 51.407 237.227 51.407 236.844C51.407 236.657 51.309 236.489 51.113 236.34C50.917 236.191 50.5717 236.051 50.077 235.92C49.2464 235.696 48.6444 235.411 48.271 235.066C47.8977 234.721 47.711 234.273 47.711 233.722C47.711 233.013 47.963 232.467 48.467 232.084C48.971 231.692 49.657 231.496 50.525 231.496C50.9544 231.496 51.365 231.547 51.757 231.65C52.149 231.753 52.4897 231.897 52.779 232.084C52.947 232.187 53.031 232.303 53.031 232.434C53.031 232.49 53.0264 232.532 53.017 232.56L52.667 233.624ZM64.0381 233.554C64.3648 233.554 64.5281 233.708 64.5281 234.016V237.866C64.5281 238.193 64.3928 238.417 64.1221 238.538C63.5901 238.79 62.8901 238.916 62.0221 238.916C60.6128 238.916 59.4974 238.529 58.6761 237.754C57.8548 236.979 57.4441 235.789 57.4441 234.184C57.4441 233.092 57.6401 232.163 58.0321 231.398C58.4241 230.623 58.9561 230.04 59.6281 229.648C60.3094 229.256 61.0794 229.06 61.9381 229.06C62.4234 229.06 62.8761 229.125 63.2961 229.256C63.7254 229.377 64.0614 229.536 64.3041 229.732C64.4068 229.816 64.4581 229.905 64.4581 229.998C64.4581 230.026 64.4394 230.087 64.4021 230.18L63.8141 231.286C63.5434 231.099 63.2541 230.964 62.9461 230.88C62.6474 230.796 62.3114 230.754 61.9381 230.754C61.1261 230.754 60.4868 231.053 60.0201 231.65C59.5628 232.238 59.3341 233.083 59.3341 234.184C59.3341 235.061 59.5208 235.766 59.8941 236.298C60.2674 236.83 60.7854 237.147 61.4481 237.25C61.6161 237.278 61.7934 237.292 61.9801 237.292C62.3068 237.292 62.5961 237.255 62.8481 237.18V235.136H61.7561C61.4201 235.136 61.2521 234.977 61.2521 234.66V233.554H64.0381ZM70.4746 231.734C70.6053 231.799 70.6706 231.893 70.6706 232.014C70.6706 232.051 70.6613 232.098 70.6426 232.154L70.2226 233.442C69.9426 233.311 69.6346 233.246 69.2986 233.246C68.7106 233.246 68.2159 233.535 67.8146 234.114V237.796C67.8146 238.197 67.7259 238.482 67.5486 238.65C67.3806 238.809 67.0446 238.888 66.5406 238.888H65.9946V231.622H67.1566C67.4646 231.622 67.6186 231.767 67.6186 232.056V232.476C67.8613 232.14 68.1413 231.893 68.4586 231.734C68.7759 231.566 69.0886 231.482 69.3966 231.482C69.6019 231.482 69.7839 231.505 69.9426 231.552C70.1013 231.589 70.2786 231.65 70.4746 231.734ZM77.3073 235.248C77.3073 236.069 77.1673 236.765 76.8873 237.334C76.6166 237.894 76.2386 238.314 75.7533 238.594C75.2679 238.874 74.7219 239.014 74.1153 239.014C73.1539 239.014 72.3793 238.692 71.7913 238.048C71.2126 237.404 70.9233 236.471 70.9233 235.248C70.9233 234.025 71.2126 233.097 71.7913 232.462C72.3793 231.818 73.1539 231.496 74.1153 231.496C74.7313 231.496 75.2773 231.636 75.7533 231.916C76.2386 232.196 76.6166 232.616 76.8873 233.176C77.1673 233.736 77.3073 234.427 77.3073 235.248ZM75.4873 235.248C75.4873 234.548 75.3659 234.016 75.1233 233.652C74.8806 233.279 74.5446 233.092 74.1153 233.092C73.6766 233.092 73.3359 233.274 73.0933 233.638C72.8599 234.002 72.7433 234.539 72.7433 235.248C72.7433 235.957 72.8599 236.499 73.0933 236.872C73.3359 237.236 73.6766 237.418 74.1153 237.418C74.5446 237.418 74.8806 237.231 75.1233 236.858C75.3659 236.485 75.4873 235.948 75.4873 235.248ZM86.5558 231.622C86.8451 231.622 86.9758 231.762 86.9478 232.042C86.8731 232.919 86.7145 233.909 86.4718 235.01C86.2385 236.111 85.9351 237.189 85.5618 238.244C85.4778 238.496 85.3798 238.669 85.2678 238.762C85.1558 238.846 84.9785 238.888 84.7358 238.888H83.3778L82.5238 234.73C82.1971 236.289 81.8798 237.474 81.5718 238.286C81.4785 238.51 81.3665 238.669 81.2358 238.762C81.1051 238.846 80.9138 238.888 80.6618 238.888H79.3598L77.7078 231.622H79.1078C79.4065 231.622 79.5838 231.748 79.6398 232L80.5498 236.69C80.9511 235.561 81.2498 234.189 81.4458 232.574H82.9438C83.1025 232.574 83.2191 232.602 83.2938 232.658C83.3778 232.714 83.4385 232.807 83.4758 232.938L84.3438 236.69C84.7545 235.29 85.0485 233.601 85.2258 231.622H86.5558ZM98.155 230.88H95.509V237.726C95.509 238.118 95.4203 238.403 95.243 238.58C95.075 238.748 94.753 238.832 94.277 238.832H93.689V230.88H91.519C91.1923 230.88 91.029 230.726 91.029 230.418V229.186H97.665C97.9917 229.186 98.155 229.345 98.155 229.662V230.88ZM104.419 235.248C104.419 236.069 104.279 236.765 103.999 237.334C103.728 237.894 103.35 238.314 102.865 238.594C102.379 238.874 101.833 239.014 101.227 239.014C100.265 239.014 99.4906 238.692 98.9026 238.048C98.3239 237.404 98.0346 236.471 98.0346 235.248C98.0346 234.025 98.3239 233.097 98.9026 232.462C99.4906 231.818 100.265 231.496 101.227 231.496C101.843 231.496 102.389 231.636 102.865 231.916C103.35 232.196 103.728 232.616 103.999 233.176C104.279 233.736 104.419 234.427 104.419 235.248ZM102.599 235.248C102.599 234.548 102.477 234.016 102.235 233.652C101.992 233.279 101.656 233.092 101.227 233.092C100.788 233.092 100.447 233.274 100.205 233.638C99.9713 234.002 99.8546 234.539 99.8546 235.248C99.8546 235.957 99.9713 236.499 100.205 236.872C100.447 237.236 100.788 237.418 101.227 237.418C101.656 237.418 101.992 237.231 102.235 236.858C102.477 236.485 102.599 235.948 102.599 235.248ZM111.344 232.77C111.129 232.677 110.914 232.63 110.7 232.63C110.606 232.63 110.536 232.635 110.49 232.644C110.779 233.036 110.924 233.498 110.924 234.03C110.924 234.767 110.653 235.346 110.112 235.766C109.57 236.186 108.875 236.396 108.026 236.396C107.886 236.396 107.783 236.391 107.718 236.382C107.503 236.485 107.396 236.615 107.396 236.774C107.396 236.951 107.494 237.087 107.69 237.18C107.886 237.264 108.254 237.315 108.796 237.334C109.608 237.362 110.242 237.591 110.7 238.02C111.157 238.44 111.386 238.991 111.386 239.672C111.386 240.428 111.115 241.016 110.574 241.436C110.032 241.856 109.239 242.066 108.194 242.066C107.148 242.066 106.346 241.879 105.786 241.506C105.235 241.133 104.96 240.619 104.96 239.966C104.96 239.583 105.048 239.233 105.226 238.916C105.412 238.599 105.688 238.337 106.052 238.132C105.809 237.861 105.688 237.535 105.688 237.152C105.688 236.667 105.907 236.284 106.346 236.004C105.982 235.808 105.697 235.542 105.492 235.206C105.286 234.87 105.184 234.478 105.184 234.03C105.184 233.283 105.45 232.686 105.982 232.238C106.514 231.79 107.195 231.566 108.026 231.566C108.548 231.566 109.024 231.659 109.454 231.846C109.808 231.491 110.252 231.314 110.784 231.314C111.036 231.314 111.269 231.361 111.484 231.454C111.605 231.51 111.666 231.599 111.666 231.72C111.666 231.739 111.656 231.785 111.638 231.86L111.344 232.77ZM108.054 235.024C108.436 235.024 108.73 234.935 108.936 234.758C109.15 234.571 109.258 234.329 109.258 234.03C109.258 233.713 109.15 233.451 108.936 233.246C108.73 233.041 108.436 232.938 108.054 232.938C107.671 232.938 107.372 233.041 107.158 233.246C106.952 233.451 106.85 233.713 106.85 234.03C106.85 234.329 106.952 234.571 107.158 234.758C107.372 234.935 107.671 235.024 108.054 235.024ZM109.692 239.798C109.692 239.471 109.552 239.21 109.272 239.014C108.992 238.818 108.548 238.72 107.942 238.72C107.792 238.72 107.596 238.711 107.354 238.692C107.102 238.813 106.915 238.963 106.794 239.14C106.672 239.317 106.612 239.504 106.612 239.7C106.612 240.027 106.733 240.269 106.976 240.428C107.228 240.596 107.634 240.68 108.194 240.68C108.707 240.68 109.085 240.605 109.328 240.456C109.57 240.316 109.692 240.097 109.692 239.798ZM117.567 238.706C117.259 238.827 116.965 238.911 116.685 238.958C116.405 238.995 116.088 239.014 115.733 239.014C114.557 239.014 113.624 238.725 112.933 238.146C112.243 237.558 111.897 236.597 111.897 235.262C111.897 234.422 112.037 233.722 112.317 233.162C112.597 232.593 112.975 232.173 113.451 231.902C113.927 231.631 114.469 231.496 115.075 231.496C115.589 231.496 116.055 231.603 116.475 231.818C116.905 232.033 117.241 232.341 117.483 232.742C117.726 233.143 117.847 233.61 117.847 234.142C117.847 234.73 117.689 235.187 117.371 235.514C117.054 235.831 116.541 235.999 115.831 236.018L113.703 236.074C113.703 236.475 113.895 236.807 114.277 237.068C114.66 237.32 115.15 237.446 115.747 237.446C116.391 237.446 116.989 237.348 117.539 237.152L117.791 238.314C117.801 238.342 117.805 238.379 117.805 238.426C117.805 238.547 117.726 238.641 117.567 238.706ZM116.237 234.044C116.237 233.755 116.135 233.512 115.929 233.316C115.724 233.111 115.449 233.008 115.103 233.008C114.665 233.008 114.319 233.153 114.067 233.442C113.825 233.731 113.703 234.142 113.703 234.674L115.677 234.646C115.864 234.646 116.004 234.599 116.097 234.506C116.191 234.403 116.237 234.249 116.237 234.044ZM123.288 238.174C123.316 238.23 123.33 238.286 123.33 238.342C123.33 238.482 123.242 238.594 123.064 238.678C122.7 238.874 122.257 238.972 121.734 238.972C121.034 238.972 120.479 238.795 120.068 238.44C119.667 238.076 119.466 237.521 119.466 236.774V233.232H118.738C118.44 233.232 118.29 233.087 118.29 232.798V231.566H119.466V229.368H120.838C121.137 229.368 121.286 229.517 121.286 229.816V231.566H122.378C122.686 231.566 122.84 231.715 122.84 232.014V233.232H121.286V236.354C121.286 236.662 121.338 236.881 121.44 237.012C121.552 237.133 121.73 237.194 121.972 237.194C122.234 237.194 122.514 237.119 122.812 236.97L123.288 238.174ZM127.668 231.412C128.331 231.412 128.877 231.641 129.306 232.098C129.745 232.546 129.964 233.185 129.964 234.016V237.74C129.964 238.132 129.876 238.412 129.698 238.58C129.521 238.739 129.185 238.818 128.69 238.818H128.144V234.366C128.144 233.946 128.046 233.633 127.85 233.428C127.664 233.223 127.398 233.12 127.052 233.12C126.828 233.12 126.618 233.176 126.422 233.288C126.236 233.391 126.091 233.531 125.988 233.708V237.74C125.988 238.132 125.904 238.412 125.736 238.58C125.568 238.739 125.237 238.818 124.742 238.818H124.168V228.668H125.54C125.839 228.668 125.988 228.817 125.988 229.116V232.112C126.492 231.645 127.052 231.412 127.668 231.412ZM136.708 238.706C136.4 238.827 136.106 238.911 135.826 238.958C135.546 238.995 135.229 239.014 134.874 239.014C133.698 239.014 132.765 238.725 132.074 238.146C131.383 237.558 131.038 236.597 131.038 235.262C131.038 234.422 131.178 233.722 131.458 233.162C131.738 232.593 132.116 232.173 132.592 231.902C133.068 231.631 133.609 231.496 134.216 231.496C134.729 231.496 135.196 231.603 135.616 231.818C136.045 232.033 136.381 232.341 136.624 232.742C136.867 233.143 136.988 233.61 136.988 234.142C136.988 234.73 136.829 235.187 136.512 235.514C136.195 235.831 135.681 235.999 134.972 236.018L132.844 236.074C132.844 236.475 133.035 236.807 133.418 237.068C133.801 237.32 134.291 237.446 134.888 237.446C135.532 237.446 136.129 237.348 136.68 237.152L136.932 238.314C136.941 238.342 136.946 238.379 136.946 238.426C136.946 238.547 136.867 238.641 136.708 238.706ZM135.378 234.044C135.378 233.755 135.275 233.512 135.07 233.316C134.865 233.111 134.589 233.008 134.244 233.008C133.805 233.008 133.46 233.153 133.208 233.442C132.965 233.731 132.844 234.142 132.844 234.674L134.818 234.646C135.005 234.646 135.145 234.599 135.238 234.506C135.331 234.403 135.378 234.249 135.378 234.044ZM142.73 231.734C142.861 231.799 142.926 231.893 142.926 232.014C142.926 232.051 142.917 232.098 142.898 232.154L142.478 233.442C142.198 233.311 141.89 233.246 141.554 233.246C140.966 233.246 140.472 233.535 140.07 234.114V237.796C140.07 238.197 139.982 238.482 139.804 238.65C139.636 238.809 139.3 238.888 138.796 238.888H138.25V231.622H139.412C139.72 231.622 139.874 231.767 139.874 232.056V232.476C140.117 232.14 140.397 231.893 140.714 231.734C141.032 231.566 141.344 231.482 141.652 231.482C141.858 231.482 142.04 231.505 142.198 231.552C142.357 231.589 142.534 231.65 142.73 231.734ZM145.105 229.312C145.422 229.312 145.581 229.466 145.581 229.774L145.539 235.248C145.539 235.668 145.459 235.962 145.301 236.13C145.151 236.298 144.862 236.377 144.433 236.368L143.831 236.354L143.761 229.312H145.105ZM144.657 238.958C144.339 238.958 144.097 238.883 143.929 238.734C143.77 238.585 143.691 238.375 143.691 238.104C143.691 237.833 143.779 237.605 143.957 237.418C144.134 237.222 144.367 237.124 144.657 237.124C144.946 237.124 145.179 237.222 145.357 237.418C145.534 237.605 145.623 237.833 145.623 238.104C145.623 238.375 145.539 238.585 145.371 238.734C145.212 238.883 144.974 238.958 144.657 238.958Z" fill="#333333"/>
</svg>
