<svg width="174" height="247" viewBox="0 0 174 247" fill="none" xmlns="http://www.w3.org/2000/svg">
<rect x="5" y="10" width="169" height="237" rx="5" fill="#3C5E9B"/>
<rect x="0.5" y="0.5" width="169" height="241" rx="4.5" fill="white" stroke="#3C5E9B"/>
<path d="M5 0.5H165C167.485 0.500003 169.5 2.51472 169.5 5V21.5H0.5V5C0.5 2.51472 2.51472 0.5 5 0.5Z" fill="#B3E7F6"/>
<path d="M5 0.5H165C167.485 0.500003 169.5 2.51472 169.5 5V21.5H0.5V5C0.5 2.51472 2.51472 0.5 5 0.5Z" stroke="#3C5E9B"/>
<line x1="31.5" y1="15.5" x2="23.5" y2="15.5" stroke="#3C5E9B" stroke-linecap="round"/>
<rect x="38.5" y="7.5" width="8" height="8" stroke="#3C5E9B"/>
<path d="M13 11L17 15M13 11L9 7M13 11L9 15M13 11L17 7" stroke="#3C5E9B" stroke-linecap="round" stroke-linejoin="round"/>
<line x1="57.45" y1="6.55" x2="159.55" y2="6.55" stroke="#90C3EB" stroke-width="0.9" stroke-linecap="round"/>
<line x1="57.45" y1="11.05" x2="159.55" y2="11.05" stroke="#90C3EB" stroke-width="0.9" stroke-linecap="round"/>
<line x1="57.45" y1="15.55" x2="159.55" y2="15.55" stroke="#90C3EB" stroke-width="0.9" stroke-linecap="round"/>
<mask id="path-10-inside-1_137_492" fill="white">
<path d="M16 88H154V108H16V88Z"/>
</mask>
<path d="M16 108V108.5H16.9857V108V107.5H16V108ZM18.9571 108V108.5H20.9286V108V107.5H18.9571V108ZM22.9 108V108.5H24.8714V108V107.5H22.9V108ZM26.8429 108V108.5H28.8143V108V107.5H26.8429V108ZM30.7857 108V108.5H32.7571V108V107.5H30.7857V108ZM34.7286 108V108.5H36.7V108V107.5H34.7286V108ZM38.6714 108V108.5H40.6429V108V107.5H38.6714V108ZM42.6143 108V108.5H44.5857V108V107.5H42.6143V108ZM46.5571 108V108.5H48.5286V108V107.5H46.5571V108ZM50.5 108V108.5H52.4714V108V107.5H50.5V108ZM54.4429 108V108.5H56.4143V108V107.5H54.4429V108ZM58.3857 108V108.5H60.3571V108V107.5H58.3857V108ZM62.3286 108V108.5H64.3V108V107.5H62.3286V108ZM66.2714 108V108.5H68.2428V108V107.5H66.2714V108ZM70.2143 108V108.5H72.1857V108V107.5H70.2143V108ZM74.1571 108V108.5H76.1286V108V107.5H74.1571V108ZM78.1 108V108.5H80.0714V108V107.5H78.1V108ZM82.0428 108V108.5H84.0143V108V107.5H82.0428V108ZM85.9857 108V108.5H87.9571V108V107.5H85.9857V108ZM89.9286 108V108.5H91.9V108V107.5H89.9286V108ZM93.8714 108V108.5H95.8428V108V107.5H93.8714V108ZM97.8143 108V108.5H99.7857V108V107.5H97.8143V108ZM101.757 108V108.5H103.729V108V107.5H101.757V108ZM105.7 108V108.5H107.671V108V107.5H105.7V108ZM109.643 108V108.5H111.614V108V107.5H109.643V108ZM113.586 108V108.5H115.557V108V107.5H113.586V108ZM117.529 108V108.5H119.5V108V107.5H117.529V108ZM121.471 108V108.5H123.443V108V107.5H121.471V108ZM125.414 108V108.5H127.386V108V107.5H125.414V108ZM129.357 108V108.5H131.329V108V107.5H129.357V108ZM133.3 108V108.5H135.271V108V107.5H133.3V108ZM137.243 108V108.5H139.214V108V107.5H137.243V108ZM141.186 108V108.5H143.157V108V107.5H141.186V108ZM145.129 108V108.5H147.1V108V107.5H145.129V108ZM149.071 108V108.5H151.043V108V107.5H149.071V108ZM153.014 108V108.5H154V108V107.5H153.014V108ZM16 108V109H16.9857V108V107H16V108ZM18.9571 108V109H20.9286V108V107H18.9571V108ZM22.9 108V109H24.8714V108V107H22.9V108ZM26.8429 108V109H28.8143V108V107H26.8429V108ZM30.7857 108V109H32.7571V108V107H30.7857V108ZM34.7286 108V109H36.7V108V107H34.7286V108ZM38.6714 108V109H40.6429V108V107H38.6714V108ZM42.6143 108V109H44.5857V108V107H42.6143V108ZM46.5571 108V109H48.5286V108V107H46.5571V108ZM50.5 108V109H52.4714V108V107H50.5V108ZM54.4429 108V109H56.4143V108V107H54.4429V108ZM58.3857 108V109H60.3571V108V107H58.3857V108ZM62.3286 108V109H64.3V108V107H62.3286V108ZM66.2714 108V109H68.2428V108V107H66.2714V108ZM70.2143 108V109H72.1857V108V107H70.2143V108ZM74.1571 108V109H76.1286V108V107H74.1571V108ZM78.1 108V109H80.0714V108V107H78.1V108ZM82.0428 108V109H84.0143V108V107H82.0428V108ZM85.9857 108V109H87.9571V108V107H85.9857V108ZM89.9286 108V109H91.9V108V107H89.9286V108ZM93.8714 108V109H95.8428V108V107H93.8714V108ZM97.8143 108V109H99.7857V108V107H97.8143V108ZM101.757 108V109H103.729V108V107H101.757V108ZM105.7 108V109H107.671V108V107H105.7V108ZM109.643 108V109H111.614V108V107H109.643V108ZM113.586 108V109H115.557V108V107H113.586V108ZM117.529 108V109H119.5V108V107H117.529V108ZM121.471 108V109H123.443V108V107H121.471V108ZM125.414 108V109H127.386V108V107H125.414V108ZM129.357 108V109H131.329V108V107H129.357V108ZM133.3 108V109H135.271V108V107H133.3V108ZM137.243 108V109H139.214V108V107H137.243V108ZM141.186 108V109H143.157V108V107H141.186V108ZM145.129 108V109H147.1V108V107H145.129V108ZM149.071 108V109H151.043V108V107H149.071V108ZM153.014 108V109H154V108V107H153.014V108Z" fill="#E5E5E5" mask="url(#path-10-inside-1_137_492)"/>
<path d="M38.5293 102V93.5156H41.4121C43.4043 93.5156 44.3066 94.6992 44.3066 96.2109C44.3066 97.7109 43.4043 98.918 41.4238 98.918H39.584V102H38.5293ZM39.584 97.9805H41.377C42.7246 97.9805 43.2637 97.2188 43.2637 96.2109C43.2637 95.1914 42.7246 94.4531 41.3652 94.4531H39.584V97.9805ZM48.2559 102.129C46.416 102.129 45.2793 100.828 45.2793 98.8711C45.2793 96.9141 46.4277 95.5547 48.1621 95.5547C49.498 95.5547 50.9043 96.375 50.9043 98.7305V99.1523H46.2871C46.334 100.5 47.1191 101.238 48.2559 101.238C49.0176 101.238 49.498 100.91 49.7324 100.512H50.8105C50.5059 101.473 49.5684 102.129 48.2559 102.129ZM46.2988 98.2969H49.8848C49.8848 97.2305 49.2051 96.4453 48.1621 96.4453C47.0605 96.4453 46.3574 97.3125 46.2988 98.2969ZM52.3457 102V93.5156H53.4004V97.7109H53.5059L57.2793 93.5156H58.6621L55.1113 97.3477L58.6621 102H57.373L54.4551 98.0742L53.4004 99.2695V102H52.3457ZM66.5605 97.7578C66.5605 100.441 64.9785 102.117 62.8105 102.117C60.6309 102.117 59.0605 100.441 59.0605 97.7578C59.0605 95.0742 60.6309 93.3984 62.8105 93.3984C64.9785 93.3984 66.5605 95.0742 66.5605 97.7578ZM65.541 97.7578C65.541 95.5664 64.3457 94.3828 62.8105 94.3828C61.2754 94.3828 60.0801 95.5664 60.0801 97.7578C60.0801 99.9492 61.2754 101.133 62.8105 101.133C64.3457 101.133 65.541 99.9492 65.541 97.7578ZM74.1309 95.7305C74.1191 97.4062 75.3262 99.2461 76.8379 99.9609L76.3105 100.688C75.1387 100.119 74.1484 98.877 73.6855 97.4648C73.2051 99 72.1562 100.348 70.9902 100.945L70.4277 100.219C71.9277 99.4922 73.2168 97.5117 73.2285 95.7305V94.3711H70.8027V93.6094H76.4746V94.3711H74.1309V95.7305ZM78.666 92.5312V96.75H80.4121V97.5352H78.666V102.949H77.752V92.5312H78.666ZM86.9277 93.5273V94.2773H85.8613V97.7227C86.3945 97.6875 86.9219 97.6406 87.4199 97.582L87.4902 98.2734C85.3809 98.6016 82.9199 98.6484 81.1152 98.6484L81.0098 97.8867L82.3574 97.8633V94.2773H81.3027V93.5273H86.9277ZM89.1191 92.543V95.707H90.6895V96.4922H89.1191V100.207H88.2051V92.543H89.1191ZM89.5996 101.953V102.727H82.6035V99.4805H83.5059V101.953H89.5996ZM83.2598 97.8516C83.8164 97.834 84.3906 97.8164 84.959 97.7812V94.2773H83.2598V97.8516ZM99.959 92.5312V102.949H99.0332V92.5312H99.959ZM96.877 93.668C96.8652 96.668 95.4707 99.3164 91.9785 100.992L91.4746 100.242C94.293 98.9062 95.7285 96.9082 95.9395 94.418H91.9551V93.668H96.877ZM110.646 92.5312V102.949H109.756V92.5312H110.646ZM108.549 92.7539V102.422H107.67V97.3594H106.334C106.234 99.3867 105.373 100.652 104.084 100.652C102.725 100.652 101.846 99.2461 101.846 97.0312C101.846 94.8164 102.725 93.4102 104.084 93.4102C105.35 93.4102 106.205 94.6348 106.322 96.5977H107.67V92.7539H108.549ZM104.084 94.2773C103.24 94.2773 102.701 95.332 102.713 97.0312C102.701 98.7188 103.24 99.7852 104.084 99.7734C104.928 99.7852 105.467 98.7188 105.467 97.0312C105.467 95.332 104.928 94.2773 104.084 94.2773ZM115.756 95.332C115.756 97.2188 116.963 99.1172 118.475 99.8086L117.924 100.559C116.74 99.9492 115.762 98.7012 115.299 97.2188C114.836 98.7773 113.857 100.113 112.674 100.746L112.076 100.008C113.6 99.2578 114.818 97.2539 114.818 95.332V93.4336H115.756V95.332ZM120.725 92.5312V102.973H119.811V96.8438H117.338V96.0938H119.811V92.5312H120.725ZM130.885 95.6953V96.4336H123.748V92.918H124.662V95.6953H130.885ZM131.986 97.8516V98.6016H122.447V97.8516H131.986ZM130.943 101.93V102.691H123.689V99.668H124.604V101.93H130.943Z" fill="#333333"/>
<mask id="path-13-inside-2_137_492" fill="white">
<path d="M16 113H154V133H16V113Z"/>
</mask>
<path d="M16 133V133.5H16.9857V133V132.5H16V133ZM18.9571 133V133.5H20.9286V133V132.5H18.9571V133ZM22.9 133V133.5H24.8714V133V132.5H22.9V133ZM26.8429 133V133.5H28.8143V133V132.5H26.8429V133ZM30.7857 133V133.5H32.7571V133V132.5H30.7857V133ZM34.7286 133V133.5H36.7V133V132.5H34.7286V133ZM38.6714 133V133.5H40.6429V133V132.5H38.6714V133ZM42.6143 133V133.5H44.5857V133V132.5H42.6143V133ZM46.5571 133V133.5H48.5286V133V132.5H46.5571V133ZM50.5 133V133.5H52.4714V133V132.5H50.5V133ZM54.4429 133V133.5H56.4143V133V132.5H54.4429V133ZM58.3857 133V133.5H60.3571V133V132.5H58.3857V133ZM62.3286 133V133.5H64.3V133V132.5H62.3286V133ZM66.2714 133V133.5H68.2428V133V132.5H66.2714V133ZM70.2143 133V133.5H72.1857V133V132.5H70.2143V133ZM74.1571 133V133.5H76.1286V133V132.5H74.1571V133ZM78.1 133V133.5H80.0714V133V132.5H78.1V133ZM82.0428 133V133.5H84.0143V133V132.5H82.0428V133ZM85.9857 133V133.5H87.9571V133V132.5H85.9857V133ZM89.9286 133V133.5H91.9V133V132.5H89.9286V133ZM93.8714 133V133.5H95.8428V133V132.5H93.8714V133ZM97.8143 133V133.5H99.7857V133V132.5H97.8143V133ZM101.757 133V133.5H103.729V133V132.5H101.757V133ZM105.7 133V133.5H107.671V133V132.5H105.7V133ZM109.643 133V133.5H111.614V133V132.5H109.643V133ZM113.586 133V133.5H115.557V133V132.5H113.586V133ZM117.529 133V133.5H119.5V133V132.5H117.529V133ZM121.471 133V133.5H123.443V133V132.5H121.471V133ZM125.414 133V133.5H127.386V133V132.5H125.414V133ZM129.357 133V133.5H131.329V133V132.5H129.357V133ZM133.3 133V133.5H135.271V133V132.5H133.3V133ZM137.243 133V133.5H139.214V133V132.5H137.243V133ZM141.186 133V133.5H143.157V133V132.5H141.186V133ZM145.129 133V133.5H147.1V133V132.5H145.129V133ZM149.071 133V133.5H151.043V133V132.5H149.071V133ZM153.014 133V133.5H154V133V132.5H153.014V133ZM16 133V134H16.9857V133V132H16V133ZM18.9571 133V134H20.9286V133V132H18.9571V133ZM22.9 133V134H24.8714V133V132H22.9V133ZM26.8429 133V134H28.8143V133V132H26.8429V133ZM30.7857 133V134H32.7571V133V132H30.7857V133ZM34.7286 133V134H36.7V133V132H34.7286V133ZM38.6714 133V134H40.6429V133V132H38.6714V133ZM42.6143 133V134H44.5857V133V132H42.6143V133ZM46.5571 133V134H48.5286V133V132H46.5571V133ZM50.5 133V134H52.4714V133V132H50.5V133ZM54.4429 133V134H56.4143V133V132H54.4429V133ZM58.3857 133V134H60.3571V133V132H58.3857V133ZM62.3286 133V134H64.3V133V132H62.3286V133ZM66.2714 133V134H68.2428V133V132H66.2714V133ZM70.2143 133V134H72.1857V133V132H70.2143V133ZM74.1571 133V134H76.1286V133V132H74.1571V133ZM78.1 133V134H80.0714V133V132H78.1V133ZM82.0428 133V134H84.0143V133V132H82.0428V133ZM85.9857 133V134H87.9571V133V132H85.9857V133ZM89.9286 133V134H91.9V133V132H89.9286V133ZM93.8714 133V134H95.8428V133V132H93.8714V133ZM97.8143 133V134H99.7857V133V132H97.8143V133ZM101.757 133V134H103.729V133V132H101.757V133ZM105.7 133V134H107.671V133V132H105.7V133ZM109.643 133V134H111.614V133V132H109.643V133ZM113.586 133V134H115.557V133V132H113.586V133ZM117.529 133V134H119.5V133V132H117.529V133ZM121.471 133V134H123.443V133V132H121.471V133ZM125.414 133V134H127.386V133V132H125.414V133ZM129.357 133V134H131.329V133V132H129.357V133ZM133.3 133V134H135.271V133V132H133.3V133ZM137.243 133V134H139.214V133V132H137.243V133ZM141.186 133V134H143.157V133V132H141.186V133ZM145.129 133V134H147.1V133V132H145.129V133ZM149.071 133V134H151.043V133V132H149.071V133ZM153.014 133V134H154V133V132H153.014V133Z" fill="#E5E5E5" mask="url(#path-13-inside-2_137_492)"/>
<path d="M38.207 121.75L39.1445 118.516H40.1406L39.5195 121.75H38.207ZM46.8555 118.258V119.16H45.8477V122.336C46.293 122.301 46.7207 122.26 47.1367 122.207L47.1836 123.051C45.168 123.367 42.8125 123.402 41.125 123.402L40.9844 122.477L42.2617 122.465V119.16H41.2773V118.258H46.8555ZM49.7266 117.496V123.953H48.6133V122.125H47.0078V121.234H48.6133V120.215H47.0078V119.324H48.6133V117.496H49.7266ZM46.2109 124.152C48.4258 124.152 49.7617 124.844 49.7617 126.074C49.7617 127.27 48.4258 127.984 46.2109 127.973C43.9961 127.984 42.6484 127.27 42.6602 126.074C42.6484 124.844 43.9961 124.152 46.2109 124.152ZM46.2109 125.02C44.6641 125.02 43.7617 125.395 43.7617 126.074C43.7617 126.742 44.6641 127.117 46.2109 127.117C47.7461 127.117 48.6602 126.742 48.6602 126.074C48.6602 125.395 47.7461 125.02 46.2109 125.02ZM43.3398 122.453C43.8145 122.441 44.2949 122.424 44.7812 122.395V119.16H43.3398V122.453ZM59.5703 117.496V121.891H61.1523V122.828H59.5703V127.996H58.457V117.496H59.5703ZM51.2148 125.137C52.041 125.137 53.002 125.137 54.0039 125.102V124.035C52.8203 123.871 52.0469 123.156 52.0586 122.137C52.0469 120.953 53.0664 120.168 54.5664 120.168C56.0547 120.168 57.0859 120.953 57.0977 122.137C57.0859 123.156 56.3008 123.877 55.1172 124.047V125.055C56.0488 125.02 56.9863 124.943 57.8594 124.82L57.9297 125.641C55.6562 126.051 53.1953 126.062 51.3906 126.062L51.2148 125.137ZM57.707 118.738V119.629H51.4141V118.738H54.0039V117.52H55.1172V118.738H57.707ZM54.5664 121.035C53.6875 121.035 53.1016 121.469 53.1016 122.137C53.1016 122.805 53.6875 123.215 54.5664 123.215C55.4453 123.215 56.0312 122.805 56.0312 122.137C56.0312 121.469 55.4453 121.035 54.5664 121.035ZM65.1367 118.246C66.8008 118.234 67.9844 119.266 67.9961 120.742C67.9844 122.219 66.8008 123.25 65.1367 123.25C63.4844 123.25 62.2656 122.219 62.2773 120.742C62.2656 119.266 63.4844 118.234 65.1367 118.246ZM65.1367 119.207C64.1172 119.207 63.3672 119.816 63.3789 120.742C63.3672 121.668 64.1172 122.277 65.1367 122.277C66.1562 122.277 66.9062 121.668 66.9062 120.742C66.9062 119.816 66.1562 119.207 65.1367 119.207ZM70.3984 117.496V128.02H69.2852V117.496H70.3984ZM61.7734 124.832C63.6836 124.832 66.332 124.809 68.6289 124.48L68.7109 125.289C66.332 125.746 63.7891 125.758 61.9141 125.758L61.7734 124.832ZM83.2422 117.496V121.891H84.8242V122.828H83.2422V127.996H82.1289V117.496H83.2422ZM74.8867 125.137C75.7129 125.137 76.6738 125.137 77.6758 125.102V124.035C76.4922 123.871 75.7188 123.156 75.7305 122.137C75.7188 120.953 76.7383 120.168 78.2383 120.168C79.7266 120.168 80.7578 120.953 80.7695 122.137C80.7578 123.156 79.9727 123.877 78.7891 124.047V125.055C79.7207 125.02 80.6582 124.943 81.5312 124.82L81.6016 125.641C79.3281 126.051 76.8672 126.062 75.0625 126.062L74.8867 125.137ZM81.3789 118.738V119.629H75.0859V118.738H77.6758V117.52H78.7891V118.738H81.3789ZM78.2383 121.035C77.3594 121.035 76.7734 121.469 76.7734 122.137C76.7734 122.805 77.3594 123.215 78.2383 123.215C79.1172 123.215 79.7031 122.805 79.7031 122.137C79.7031 121.469 79.1172 121.035 78.2383 121.035ZM94.9844 122.992V123.883H90.8125V125.816H89.7109V123.883H85.375V122.992H94.9844ZM93.918 126.871V127.773H86.5703V124.902H87.6719V126.871H93.918ZM87.7422 117.824V119.102H92.6055V117.824H93.7188V122.066H86.6406V117.824H87.7422ZM87.7422 121.176H92.6055V119.934H87.7422V121.176ZM104.348 118.562C104.348 121.656 103.316 124.445 99.4609 126.32L98.8633 125.453C100.744 124.539 101.916 123.408 102.578 122.066L99.0742 122.395L98.9219 121.422L102.93 121.164C103.094 120.631 103.199 120.062 103.246 119.465H99.4492V118.562H104.348ZM107.418 117.496V127.996H106.293V117.496H107.418ZM117.578 123.086V123.977H110.266V118.363H117.473V119.266H111.391V120.684H117.25V121.562H111.391V123.086H117.578ZM118.668 125.758V126.672H109.059V125.758H118.668ZM121.422 118.527L120.484 121.762H119.488L120.109 118.527H121.422ZM131.816 122.371V123.098H122.277V122.371H131.816ZM130.621 123.93V126.145H124.363V127.141H130.961V127.809H123.438V125.512H129.707V124.621H123.426V123.93H130.621ZM130.586 117.848V120.004H124.434V120.918H130.773V121.586H123.52V119.371H129.66V118.516H123.484V117.848H130.586Z" fill="#333333"/>
<mask id="path-16-inside-3_137_492" fill="white">
<path d="M16 138H154V158H16V138Z"/>
</mask>
<path d="M16 158V158.5H16.9857V158V157.5H16V158ZM18.9571 158V158.5H20.9286V158V157.5H18.9571V158ZM22.9 158V158.5H24.8714V158V157.5H22.9V158ZM26.8429 158V158.5H28.8143V158V157.5H26.8429V158ZM30.7857 158V158.5H32.7571V158V157.5H30.7857V158ZM34.7286 158V158.5H36.7V158V157.5H34.7286V158ZM38.6714 158V158.5H40.6429V158V157.5H38.6714V158ZM42.6143 158V158.5H44.5857V158V157.5H42.6143V158ZM46.5571 158V158.5H48.5286V158V157.5H46.5571V158ZM50.5 158V158.5H52.4714V158V157.5H50.5V158ZM54.4429 158V158.5H56.4143V158V157.5H54.4429V158ZM58.3857 158V158.5H60.3571V158V157.5H58.3857V158ZM62.3286 158V158.5H64.3V158V157.5H62.3286V158ZM66.2714 158V158.5H68.2428V158V157.5H66.2714V158ZM70.2143 158V158.5H72.1857V158V157.5H70.2143V158ZM74.1571 158V158.5H76.1286V158V157.5H74.1571V158ZM78.1 158V158.5H80.0714V158V157.5H78.1V158ZM82.0428 158V158.5H84.0143V158V157.5H82.0428V158ZM85.9857 158V158.5H87.9571V158V157.5H85.9857V158ZM89.9286 158V158.5H91.9V158V157.5H89.9286V158ZM93.8714 158V158.5H95.8428V158V157.5H93.8714V158ZM97.8143 158V158.5H99.7857V158V157.5H97.8143V158ZM101.757 158V158.5H103.729V158V157.5H101.757V158ZM105.7 158V158.5H107.671V158V157.5H105.7V158ZM109.643 158V158.5H111.614V158V157.5H109.643V158ZM113.586 158V158.5H115.557V158V157.5H113.586V158ZM117.529 158V158.5H119.5V158V157.5H117.529V158ZM121.471 158V158.5H123.443V158V157.5H121.471V158ZM125.414 158V158.5H127.386V158V157.5H125.414V158ZM129.357 158V158.5H131.329V158V157.5H129.357V158ZM133.3 158V158.5H135.271V158V157.5H133.3V158ZM137.243 158V158.5H139.214V158V157.5H137.243V158ZM141.186 158V158.5H143.157V158V157.5H141.186V158ZM145.129 158V158.5H147.1V158V157.5H145.129V158ZM149.071 158V158.5H151.043V158V157.5H149.071V158ZM153.014 158V158.5H154V158V157.5H153.014V158ZM16 158V159H16.9857V158V157H16V158ZM18.9571 158V159H20.9286V158V157H18.9571V158ZM22.9 158V159H24.8714V158V157H22.9V158ZM26.8429 158V159H28.8143V158V157H26.8429V158ZM30.7857 158V159H32.7571V158V157H30.7857V158ZM34.7286 158V159H36.7V158V157H34.7286V158ZM38.6714 158V159H40.6429V158V157H38.6714V158ZM42.6143 158V159H44.5857V158V157H42.6143V158ZM46.5571 158V159H48.5286V158V157H46.5571V158ZM50.5 158V159H52.4714V158V157H50.5V158ZM54.4429 158V159H56.4143V158V157H54.4429V158ZM58.3857 158V159H60.3571V158V157H58.3857V158ZM62.3286 158V159H64.3V158V157H62.3286V158ZM66.2714 158V159H68.2428V158V157H66.2714V158ZM70.2143 158V159H72.1857V158V157H70.2143V158ZM74.1571 158V159H76.1286V158V157H74.1571V158ZM78.1 158V159H80.0714V158V157H78.1V158ZM82.0428 158V159H84.0143V158V157H82.0428V158ZM85.9857 158V159H87.9571V158V157H85.9857V158ZM89.9286 158V159H91.9V158V157H89.9286V158ZM93.8714 158V159H95.8428V158V157H93.8714V158ZM97.8143 158V159H99.7857V158V157H97.8143V158ZM101.757 158V159H103.729V158V157H101.757V158ZM105.7 158V159H107.671V158V157H105.7V158ZM109.643 158V159H111.614V158V157H109.643V158ZM113.586 158V159H115.557V158V157H113.586V158ZM117.529 158V159H119.5V158V157H117.529V158ZM121.471 158V159H123.443V158V157H121.471V158ZM125.414 158V159H127.386V158V157H125.414V158ZM129.357 158V159H131.329V158V157H129.357V158ZM133.3 158V159H135.271V158V157H133.3V158ZM137.243 158V159H139.214V158V157H137.243V158ZM141.186 158V159H143.157V158V157H141.186V158ZM145.129 158V159H147.1V158V157H145.129V158ZM149.071 158V159H151.043V158V157H149.071V158ZM153.014 158V159H154V158V157H153.014V158Z" fill="#E5E5E5" mask="url(#path-16-inside-3_137_492)"/>
<path d="M49.8496 143.48V148.273H45.0332V143.48H49.8496ZM45.9355 144.23V147.535H48.959V144.23H45.9355ZM52.7324 142.531V145.707H54.3027V146.48H52.7324V150.172H51.8184V142.531H52.7324ZM53.2129 151.953V152.727H46.2168V149.445H47.1191V151.953H53.2129ZM63.1035 142.531V144.711H64.6738V145.484H63.1035V147.793H62.1895V142.531H63.1035ZM56.3887 143V146.492C57.8711 146.498 59.4004 146.393 61.0879 146.047L61.2051 146.82C59.4238 147.184 57.8652 147.289 56.2949 147.289H55.4629V143H56.3887ZM63.1035 148.297V150.84H57.3965V152.059H63.4902V152.809H56.4824V150.113H62.1895V149.035H56.459V148.297H63.1035ZM73.5684 143.504C73.5684 144.969 75.4902 146.246 77.3652 146.504L76.9902 147.254C75.373 146.984 73.7734 146.088 73.0996 144.805C72.4316 146.094 70.8262 146.984 69.209 147.254L68.834 146.504C70.709 146.246 72.6191 144.992 72.6191 143.504V142.906H73.5684V143.504ZM77.834 148.402V149.176H73.5215V152.949H72.6191V149.176H68.3418V148.402H77.834ZM85.252 149.527C85.252 150.447 85.7441 151.426 86.7402 151.988C87.7246 151.373 88.252 150.336 88.252 149.527V148.953H89.1543V149.527C89.1543 150.594 89.9395 151.672 91.2754 152.129L90.8184 152.809C89.7754 152.439 89.043 151.713 88.6855 150.84C88.3633 151.684 87.7246 152.48 86.7637 152.891C85.75 152.504 85.1055 151.736 84.7949 150.863C84.4258 151.707 83.7051 152.434 82.709 152.809L82.2402 152.129C83.5527 151.637 84.3496 150.523 84.3613 149.527V148.953H85.252V149.527ZM90.3262 142.543V148.496H89.4121V142.543H90.3262ZM84.7012 143.152C86.2832 143.152 87.4316 144.137 87.4316 145.59C87.4316 147.02 86.2832 148.004 84.7012 148.004C83.1191 148.004 81.9707 147.02 81.9707 145.59C81.9707 144.137 83.1191 143.152 84.7012 143.152ZM84.7012 143.938C83.6348 143.926 82.8613 144.617 82.873 145.59C82.8613 146.551 83.6348 147.23 84.7012 147.242C85.7559 147.23 86.5293 146.551 86.5293 145.59C86.5293 144.617 85.7559 143.926 84.7012 143.938ZM94.2168 148.789V150.008H99.4199V148.789H100.346V152.809H93.3027V148.789H94.2168ZM94.2168 152.07H99.4199V150.734H94.2168V152.07ZM101.588 147.289V148.051H92.0957V147.289H101.588ZM97.3223 143.141C97.3223 144.43 99.2207 145.578 101.049 145.812L100.709 146.551C99.0918 146.311 97.5098 145.484 96.8535 144.312C96.1855 145.49 94.5918 146.311 92.9863 146.551L92.6348 145.812C94.4863 145.566 96.373 144.465 96.373 143.141V142.648H97.3223V143.141ZM111.057 142.531V152.949H110.143V142.531H111.057ZM104.049 143.562V149.469C105.637 149.463 107.283 149.334 109.029 148.965L109.158 149.75C107.307 150.137 105.654 150.266 103.99 150.266H103.146V143.562H104.049ZM120.9 142.531V146.656H122.646V147.43H120.9V152.973H119.986V142.531H120.9ZM118.158 143.551V144.312H114.209V149.586C116.096 149.586 117.432 149.498 118.979 149.211L119.096 150.008C117.467 150.301 116.096 150.359 114.115 150.359H113.295V143.551H118.158ZM124.311 152.07C123.9 152.07 123.549 151.73 123.561 151.309C123.549 150.898 123.9 150.559 124.311 150.559C124.721 150.559 125.061 150.898 125.061 151.309C125.061 151.73 124.721 152.07 124.311 152.07Z" fill="#333333"/>
<mask id="path-19-inside-4_137_492" fill="white">
<path d="M16 163H154V183H16V163Z"/>
</mask>
<path d="M16 183V183.5H16.9857V183V182.5H16V183ZM18.9571 183V183.5H20.9286V183V182.5H18.9571V183ZM22.9 183V183.5H24.8714V183V182.5H22.9V183ZM26.8429 183V183.5H28.8143V183V182.5H26.8429V183ZM30.7857 183V183.5H32.7571V183V182.5H30.7857V183ZM34.7286 183V183.5H36.7V183V182.5H34.7286V183ZM38.6714 183V183.5H40.6429V183V182.5H38.6714V183ZM42.6143 183V183.5H44.5857V183V182.5H42.6143V183ZM46.5571 183V183.5H48.5286V183V182.5H46.5571V183ZM50.5 183V183.5H52.4714V183V182.5H50.5V183ZM54.4429 183V183.5H56.4143V183V182.5H54.4429V183ZM58.3857 183V183.5H60.3571V183V182.5H58.3857V183ZM62.3286 183V183.5H64.3V183V182.5H62.3286V183ZM66.2714 183V183.5H68.2428V183V182.5H66.2714V183ZM70.2143 183V183.5H72.1857V183V182.5H70.2143V183ZM74.1571 183V183.5H76.1286V183V182.5H74.1571V183ZM78.1 183V183.5H80.0714V183V182.5H78.1V183ZM82.0428 183V183.5H84.0143V183V182.5H82.0428V183ZM85.9857 183V183.5H87.9571V183V182.5H85.9857V183ZM89.9286 183V183.5H91.9V183V182.5H89.9286V183ZM93.8714 183V183.5H95.8428V183V182.5H93.8714V183ZM97.8143 183V183.5H99.7857V183V182.5H97.8143V183ZM101.757 183V183.5H103.729V183V182.5H101.757V183ZM105.7 183V183.5H107.671V183V182.5H105.7V183ZM109.643 183V183.5H111.614V183V182.5H109.643V183ZM113.586 183V183.5H115.557V183V182.5H113.586V183ZM117.529 183V183.5H119.5V183V182.5H117.529V183ZM121.471 183V183.5H123.443V183V182.5H121.471V183ZM125.414 183V183.5H127.386V183V182.5H125.414V183ZM129.357 183V183.5H131.329V183V182.5H129.357V183ZM133.3 183V183.5H135.271V183V182.5H133.3V183ZM137.243 183V183.5H139.214V183V182.5H137.243V183ZM141.186 183V183.5H143.157V183V182.5H141.186V183ZM145.129 183V183.5H147.1V183V182.5H145.129V183ZM149.071 183V183.5H151.043V183V182.5H149.071V183ZM153.014 183V183.5H154V183V182.5H153.014V183ZM16 183V184H16.9857V183V182H16V183ZM18.9571 183V184H20.9286V183V182H18.9571V183ZM22.9 183V184H24.8714V183V182H22.9V183ZM26.8429 183V184H28.8143V183V182H26.8429V183ZM30.7857 183V184H32.7571V183V182H30.7857V183ZM34.7286 183V184H36.7V183V182H34.7286V183ZM38.6714 183V184H40.6429V183V182H38.6714V183ZM42.6143 183V184H44.5857V183V182H42.6143V183ZM46.5571 183V184H48.5286V183V182H46.5571V183ZM50.5 183V184H52.4714V183V182H50.5V183ZM54.4429 183V184H56.4143V183V182H54.4429V183ZM58.3857 183V184H60.3571V183V182H58.3857V183ZM62.3286 183V184H64.3V183V182H62.3286V183ZM66.2714 183V184H68.2428V183V182H66.2714V183ZM70.2143 183V184H72.1857V183V182H70.2143V183ZM74.1571 183V184H76.1286V183V182H74.1571V183ZM78.1 183V184H80.0714V183V182H78.1V183ZM82.0428 183V184H84.0143V183V182H82.0428V183ZM85.9857 183V184H87.9571V183V182H85.9857V183ZM89.9286 183V184H91.9V183V182H89.9286V183ZM93.8714 183V184H95.8428V183V182H93.8714V183ZM97.8143 183V184H99.7857V183V182H97.8143V183ZM101.757 183V184H103.729V183V182H101.757V183ZM105.7 183V184H107.671V183V182H105.7V183ZM109.643 183V184H111.614V183V182H109.643V183ZM113.586 183V184H115.557V183V182H113.586V183ZM117.529 183V184H119.5V183V182H117.529V183ZM121.471 183V184H123.443V183V182H121.471V183ZM125.414 183V184H127.386V183V182H125.414V183ZM129.357 183V184H131.329V183V182H129.357V183ZM133.3 183V184H135.271V183V182H133.3V183ZM137.243 183V184H139.214V183V182H137.243V183ZM141.186 183V184H143.157V183V182H141.186V183ZM145.129 183V184H147.1V183V182H145.129V183ZM149.071 183V184H151.043V183V182H149.071V183ZM153.014 183V184H154V183V182H153.014V183Z" fill="#E5E5E5" mask="url(#path-19-inside-4_137_492)"/>
<path d="M20.6699 170.73C20.6582 172.406 21.8652 174.246 23.377 174.961L22.8496 175.688C21.6777 175.119 20.6875 173.877 20.2246 172.465C19.7441 174 18.6953 175.348 17.5293 175.945L16.9668 175.219C18.4668 174.492 19.7559 172.512 19.7676 170.73V169.371H17.3418V168.609H23.0137V169.371H20.6699V170.73ZM25.2051 167.531V171.75H26.9512V172.535H25.2051V177.949H24.291V167.531H25.2051ZM33.4668 168.527V169.277H32.4004V172.723C32.9336 172.688 33.4609 172.641 33.959 172.582L34.0293 173.273C31.9199 173.602 29.459 173.648 27.6543 173.648L27.5488 172.887L28.8965 172.863V169.277H27.8418V168.527H33.4668ZM35.6582 167.543V170.707H37.2285V171.492H35.6582V175.207H34.7441V167.543H35.6582ZM36.1387 176.953V177.727H29.1426V174.48H30.0449V176.953H36.1387ZM29.7988 172.852C30.3555 172.834 30.9297 172.816 31.498 172.781V169.277H29.7988V172.852ZM46.498 167.531V177.949H45.5723V167.531H46.498ZM43.416 168.668C43.4043 171.668 42.0098 174.316 38.5176 175.992L38.0137 175.242C40.832 173.906 42.2676 171.908 42.4785 169.418H38.4941V168.668H43.416ZM57.1855 167.531V177.949H56.2949V167.531H57.1855ZM55.0879 167.754V177.422H54.209V172.359H52.873C52.7734 174.387 51.9121 175.652 50.623 175.652C49.2637 175.652 48.3848 174.246 48.3848 172.031C48.3848 169.816 49.2637 168.41 50.623 168.41C51.8887 168.41 52.7441 169.635 52.8613 171.598H54.209V167.754H55.0879ZM50.623 169.277C49.7793 169.277 49.2402 170.332 49.252 172.031C49.2402 173.719 49.7793 174.785 50.623 174.773C51.4668 174.785 52.0059 173.719 52.0059 172.031C52.0059 170.332 51.4668 169.277 50.623 169.277ZM62.2949 170.332C62.2949 172.219 63.502 174.117 65.0137 174.809L64.4629 175.559C63.2793 174.949 62.3008 173.701 61.8379 172.219C61.375 173.777 60.3965 175.113 59.2129 175.746L58.6152 175.008C60.1387 174.258 61.3574 172.254 61.3574 170.332V168.434H62.2949V170.332ZM67.2637 167.531V177.973H66.3496V171.844H63.877V171.094H66.3496V167.531H67.2637ZM80.0957 167.531V171.973H81.7598V172.746H80.0957V177.949H79.1699V167.531H80.0957ZM71.8809 175.172C72.7305 175.172 73.7207 175.172 74.752 175.137V173.977C73.5391 173.842 72.748 173.133 72.7598 172.102C72.748 170.93 73.7441 170.168 75.2207 170.168C76.6738 170.168 77.6816 170.93 77.6934 172.102C77.6816 173.133 76.8789 173.842 75.6777 173.988V175.102C76.6504 175.055 77.6289 174.979 78.5371 174.844L78.5957 175.547C76.3223 175.934 73.8613 175.957 72.0332 175.957L71.8809 175.172ZM78.3496 168.809V169.559H72.0684V168.809H74.752V167.555H75.6777V168.809H78.3496ZM75.2207 170.883C74.2598 170.883 73.6152 171.375 73.6152 172.102C73.6152 172.828 74.2598 173.297 75.2207 173.285C76.1699 173.297 76.8145 172.828 76.8145 172.102C76.8145 171.375 76.1699 170.883 75.2207 170.883ZM91.9082 173.051V173.801H87.666V175.84H86.752V173.801H82.3691V173.051H91.9082ZM90.8418 176.953V177.727H83.5879V174.879H84.502V176.953H90.8418ZM84.5605 167.871V169.207H89.7168V167.871H90.6309V172.031H83.6465V167.871H84.5605ZM84.5605 171.281H89.7168V169.91H84.5605V171.281ZM101.354 168.621C101.342 171.633 100.252 174.41 96.4902 176.25L95.9746 175.512C97.9258 174.574 99.1328 173.373 99.7949 171.961L96.1738 172.312L96.0215 171.492L100.088 171.223C100.275 170.643 100.387 170.027 100.428 169.383H96.5488V168.621H101.354ZM104.377 167.531V177.949H103.451V167.531H104.377ZM114.572 173.168V173.918H107.365V168.434H114.455V169.207H108.303V170.754H114.232V171.492H108.303V173.168H114.572ZM115.674 175.828V176.59H106.135V175.828H115.674ZM126.033 172.371V173.098H116.494V172.371H126.033ZM124.838 173.93V176.145H118.58V177.141H125.178V177.809H117.654V175.512H123.924V174.621H117.643V173.93H124.838ZM124.803 167.848V170.004H118.65V170.918H124.99V171.586H117.736V169.371H123.877V168.516H117.701V167.848H124.803ZM131.682 167.707V168.844H133.346V167.707H134.225V171.363H135.057V167.707H135.936V168.844H137.611V167.707H138.479V171.457H135.092V172.629H139.381V173.367H129.889V172.629H134.178V171.457H130.779V167.707H131.682ZM131.682 170.695H133.346V169.57H131.682V170.695ZM135.936 170.695H137.611V169.57H135.936V170.695ZM132.01 174.07V175.125H137.236V174.07H138.174V177.809H131.096V174.07H132.01ZM132.01 177.07H137.236V175.852H132.01V177.07ZM148.615 168.586V169.629C148.604 170.906 148.604 172.336 148.229 174.434L147.291 174.328C147.689 172.336 147.689 170.871 147.689 169.629V169.348H141.268V168.586H148.615ZM149.752 175.711V176.473H140.26V175.711H143.986V171.984H144.889V175.711H149.752ZM152.342 176.215L151.428 179.402H150.561L151.205 176.215H152.342Z" fill="#333333"/>
<mask id="path-22-inside-5_137_492" fill="white">
<path d="M16 188H154V208H16V188Z"/>
</mask>
<path d="M16 208V208.5H16.9857V208V207.5H16V208ZM18.9571 208V208.5H20.9286V208V207.5H18.9571V208ZM22.9 208V208.5H24.8714V208V207.5H22.9V208ZM26.8429 208V208.5H28.8143V208V207.5H26.8429V208ZM30.7857 208V208.5H32.7571V208V207.5H30.7857V208ZM34.7286 208V208.5H36.7V208V207.5H34.7286V208ZM38.6714 208V208.5H40.6429V208V207.5H38.6714V208ZM42.6143 208V208.5H44.5857V208V207.5H42.6143V208ZM46.5571 208V208.5H48.5286V208V207.5H46.5571V208ZM50.5 208V208.5H52.4714V208V207.5H50.5V208ZM54.4429 208V208.5H56.4143V208V207.5H54.4429V208ZM58.3857 208V208.5H60.3571V208V207.5H58.3857V208ZM62.3286 208V208.5H64.3V208V207.5H62.3286V208ZM66.2714 208V208.5H68.2428V208V207.5H66.2714V208ZM70.2143 208V208.5H72.1857V208V207.5H70.2143V208ZM74.1571 208V208.5H76.1286V208V207.5H74.1571V208ZM78.1 208V208.5H80.0714V208V207.5H78.1V208ZM82.0428 208V208.5H84.0143V208V207.5H82.0428V208ZM85.9857 208V208.5H87.9571V208V207.5H85.9857V208ZM89.9286 208V208.5H91.9V208V207.5H89.9286V208ZM93.8714 208V208.5H95.8428V208V207.5H93.8714V208ZM97.8143 208V208.5H99.7857V208V207.5H97.8143V208ZM101.757 208V208.5H103.729V208V207.5H101.757V208ZM105.7 208V208.5H107.671V208V207.5H105.7V208ZM109.643 208V208.5H111.614V208V207.5H109.643V208ZM113.586 208V208.5H115.557V208V207.5H113.586V208ZM117.529 208V208.5H119.5V208V207.5H117.529V208ZM121.471 208V208.5H123.443V208V207.5H121.471V208ZM125.414 208V208.5H127.386V208V207.5H125.414V208ZM129.357 208V208.5H131.329V208V207.5H129.357V208ZM133.3 208V208.5H135.271V208V207.5H133.3V208ZM137.243 208V208.5H139.214V208V207.5H137.243V208ZM141.186 208V208.5H143.157V208V207.5H141.186V208ZM145.129 208V208.5H147.1V208V207.5H145.129V208ZM149.071 208V208.5H151.043V208V207.5H149.071V208ZM153.014 208V208.5H154V208V207.5H153.014V208ZM16 208V209H16.9857V208V207H16V208ZM18.9571 208V209H20.9286V208V207H18.9571V208ZM22.9 208V209H24.8714V208V207H22.9V208ZM26.8429 208V209H28.8143V208V207H26.8429V208ZM30.7857 208V209H32.7571V208V207H30.7857V208ZM34.7286 208V209H36.7V208V207H34.7286V208ZM38.6714 208V209H40.6429V208V207H38.6714V208ZM42.6143 208V209H44.5857V208V207H42.6143V208ZM46.5571 208V209H48.5286V208V207H46.5571V208ZM50.5 208V209H52.4714V208V207H50.5V208ZM54.4429 208V209H56.4143V208V207H54.4429V208ZM58.3857 208V209H60.3571V208V207H58.3857V208ZM62.3286 208V209H64.3V208V207H62.3286V208ZM66.2714 208V209H68.2428V208V207H66.2714V208ZM70.2143 208V209H72.1857V208V207H70.2143V208ZM74.1571 208V209H76.1286V208V207H74.1571V208ZM78.1 208V209H80.0714V208V207H78.1V208ZM82.0428 208V209H84.0143V208V207H82.0428V208ZM85.9857 208V209H87.9571V208V207H85.9857V208ZM89.9286 208V209H91.9V208V207H89.9286V208ZM93.8714 208V209H95.8428V208V207H93.8714V208ZM97.8143 208V209H99.7857V208V207H97.8143V208ZM101.757 208V209H103.729V208V207H101.757V208ZM105.7 208V209H107.671V208V207H105.7V208ZM109.643 208V209H111.614V208V207H109.643V208ZM113.586 208V209H115.557V208V207H113.586V208ZM117.529 208V209H119.5V208V207H117.529V208ZM121.471 208V209H123.443V208V207H121.471V208ZM125.414 208V209H127.386V208V207H125.414V208ZM129.357 208V209H131.329V208V207H129.357V208ZM133.3 208V209H135.271V208V207H133.3V208ZM137.243 208V209H139.214V208V207H137.243V208ZM141.186 208V209H143.157V208V207H141.186V208ZM145.129 208V209H147.1V208V207H145.129V208ZM149.071 208V209H151.043V208V207H149.071V208ZM153.014 208V209H154V208V207H153.014V208Z" fill="#E5E5E5" mask="url(#path-22-inside-5_137_492)"/>
<path d="M32.0371 196.691V197.465H30.3496V202.949H29.4355V192.531H30.3496V196.691H32.0371ZM23.6348 193.562V199.527C25.1582 199.521 26.7109 199.404 28.4277 199.047L28.5449 199.832C26.752 200.195 25.1348 200.301 23.5527 200.301H22.7207V193.562H23.6348ZM37.9199 193.48V198.273H33.1035V193.48H37.9199ZM34.0059 194.23V197.535H37.0293V194.23H34.0059ZM40.8027 192.531V195.707H42.373V196.48H40.8027V200.172H39.8887V192.531H40.8027ZM41.2832 201.953V202.727H34.2871V199.445H35.1895V201.953H41.2832ZM46.4395 193.293C48.0801 193.293 49.2402 194.289 49.2402 195.742C49.2402 197.195 48.0801 198.191 46.4395 198.191C44.7988 198.191 43.6152 197.195 43.627 195.742C43.6152 194.289 44.7988 193.293 46.4395 193.293ZM46.4395 194.102C45.3262 194.102 44.5176 194.77 44.5293 195.742C44.5176 196.715 45.3262 197.383 46.4395 197.383C47.541 197.383 48.3379 196.715 48.3379 195.742C48.3379 194.77 47.541 194.102 46.4395 194.102ZM51.5723 192.531V202.973H50.6582V192.531H51.5723ZM43.0879 199.891C45.0098 199.891 47.6582 199.879 49.9668 199.539L50.0371 200.219C47.6582 200.664 45.0918 200.676 43.2168 200.676L43.0879 199.891ZM64.498 192.531V196.973H66.1621V197.746H64.498V202.949H63.5723V192.531H64.498ZM56.2832 200.172C57.1328 200.172 58.123 200.172 59.1543 200.137V198.977C57.9414 198.842 57.1504 198.133 57.1621 197.102C57.1504 195.93 58.1465 195.168 59.623 195.168C61.0762 195.168 62.084 195.93 62.0957 197.102C62.084 198.133 61.2812 198.842 60.0801 198.988V200.102C61.0527 200.055 62.0312 199.979 62.9395 199.844L62.998 200.547C60.7246 200.934 58.2637 200.957 56.4355 200.957L56.2832 200.172ZM62.752 193.809V194.559H56.4707V193.809H59.1543V192.555H60.0801V193.809H62.752ZM59.623 195.883C58.6621 195.883 58.0176 196.375 58.0176 197.102C58.0176 197.828 58.6621 198.297 59.623 198.285C60.5723 198.297 61.2168 197.828 61.2168 197.102C61.2168 196.375 60.5723 195.883 59.623 195.883ZM76.3105 198.051V198.801H72.0684V200.84H71.1543V198.801H66.7715V198.051H76.3105ZM75.2441 201.953V202.727H67.9902V199.879H68.9043V201.953H75.2441ZM68.9629 192.871V194.207H74.1191V192.871H75.0332V197.031H68.0488V192.871H68.9629ZM68.9629 196.281H74.1191V194.91H68.9629V196.281ZM81.9004 192.719C84.2207 192.719 85.5801 193.352 85.5801 194.512C85.5801 195.695 84.2207 196.328 81.9004 196.34C79.5801 196.328 78.209 195.695 78.209 194.512C78.209 193.352 79.5801 192.719 81.9004 192.719ZM81.9004 193.41C80.166 193.41 79.1582 193.832 79.1699 194.512C79.1582 195.238 80.166 195.637 81.9004 195.637C83.623 195.637 84.6426 195.238 84.6426 194.512C84.6426 193.832 83.623 193.41 81.9004 193.41ZM86.6465 197.043V197.793H77.1543V197.043H86.6465ZM85.4277 198.695V201.027H79.2402V202.105H85.7441V202.832H78.3262V200.348H84.5254V199.398H78.3027V198.695H85.4277ZM100.029 197.594V198.367H95.7285V202.961H94.8145V198.367H90.5371V197.594H93.2793C93.7012 195.994 93.7773 194.787 93.8066 194.02H91.2988V193.27H94.6973V193.586C94.6973 194.248 94.6973 195.619 94.2168 197.594H97.6387C98.002 195.971 98.043 194.793 98.0488 194.02H95.4707V193.27H98.9629V193.727C98.9629 194.441 98.9629 195.73 98.5762 197.594H100.029ZM106.076 193.574V195.039H108.631V192.531H109.545V202.973H108.631V198.672H106.076V200.312H101.33V193.574H106.076ZM102.244 194.301V199.574H105.186V194.301H102.244ZM106.076 197.91H108.631V195.801H106.076V197.91ZM120.818 200.852V201.613H111.279V200.852H115.568V198.602H112.404V193.27H113.33V195.156H118.744V193.27H119.646V198.602H116.471V200.852H120.818ZM113.33 197.852H118.744V195.906H113.33V197.852ZM124.744 195.496C124.744 197.148 125.553 198.941 126.936 199.762L126.408 200.477C125.406 199.867 124.686 198.754 124.322 197.488C123.936 198.871 123.162 200.061 122.119 200.699L121.533 200.008C122.975 199.164 123.854 197.312 123.854 195.531V193.516H124.744V195.496ZM130.58 192.531V202.949H129.689V192.531H130.58ZM128.424 192.754V202.422H127.557V197.055H125.787V196.27H127.557V192.754H128.424ZM141.561 200.84V201.613H132.021V200.84H134.389V198.027C133.498 197.564 132.959 196.814 132.959 195.871C132.959 194.254 134.541 193.199 136.768 193.188C138.994 193.199 140.576 194.254 140.576 195.871C140.576 196.797 140.055 197.541 139.193 198.004V200.84H141.561ZM136.768 193.949C135.057 193.938 133.85 194.711 133.85 195.871C133.85 197.031 135.057 197.816 136.768 197.816C138.467 197.816 139.686 197.031 139.686 195.871C139.686 194.711 138.467 193.938 136.768 193.949ZM135.291 200.84H138.268V198.355C137.816 198.479 137.312 198.543 136.768 198.543C136.234 198.543 135.736 198.484 135.291 198.367V200.84ZM143.494 202.07C143.084 202.07 142.732 201.73 142.744 201.309C142.732 200.898 143.084 200.559 143.494 200.559C143.904 200.559 144.244 200.898 144.244 201.309C144.244 201.73 143.904 202.07 143.494 202.07Z" fill="#333333"/>
<rect x="35" y="62" width="99" height="11" fill="#DDF7FF"/>
<path d="M47.7637 66.385V67.201C47.7637 67.643 47.741 67.9547 47.6957 68.136C47.639 68.4307 47.4917 68.646 47.2537 68.782C47.0157 68.9293 46.67 69.003 46.2167 69.003C46.092 69.003 45.8824 68.9917 45.5877 68.969V54.876H47.1857C47.571 54.876 47.7637 55.063 47.7637 55.437V66.385ZM37.4107 58.225C37.0027 58.225 36.7987 58.0267 36.7987 57.63V56.321H43.5817C43.9897 56.321 44.1937 56.5193 44.1937 56.916V58.225H37.4107ZM44.2277 63.24C44.2617 63.2287 44.3127 63.223 44.3807 63.223C44.5507 63.223 44.681 63.274 44.7717 63.376C44.8624 63.4667 44.9077 63.6027 44.9077 63.784V65.059C43.2417 65.3423 41.2697 65.484 38.9917 65.484C38.5497 65.484 37.966 65.4727 37.2407 65.45C36.8327 65.4387 36.6287 65.2403 36.6287 64.855V63.529C36.878 63.5403 37.2577 63.546 37.7677 63.546V58.735H39.1107C39.5187 58.735 39.7227 58.922 39.7227 59.296V63.546C40.0287 63.546 40.465 63.5347 41.0317 63.512L41.2697 58.769H42.6127C43.0434 58.769 43.2474 58.9617 43.2247 59.347L43.0207 63.376C43.3834 63.3533 43.7857 63.308 44.2277 63.24ZM52.2354 61.523C51.85 61.523 51.6574 61.336 51.6574 60.962V59.67H58.4234V58.242H52.4564C52.071 58.242 51.8784 58.055 51.8784 57.681V56.338H59.9364C60.0837 56.338 60.197 56.389 60.2764 56.491C60.367 56.5817 60.4124 56.7177 60.4124 56.899C60.4124 58.8597 60.4067 60.2933 60.3954 61.2C60.3954 62.1067 60.3784 62.6507 60.3444 62.832C60.2877 63.138 60.1517 63.3647 59.9364 63.512C59.7324 63.648 59.432 63.716 59.0354 63.716C58.854 63.716 58.65 63.699 58.4234 63.665V61.523H52.2354ZM61.8914 65.11C62.2767 65.11 62.4694 65.297 62.4694 65.671V66.98H50.4674C50.082 66.98 49.8894 66.793 49.8894 66.419V65.11H54.4284V62.39H56.2134C56.5987 62.39 56.7914 62.577 56.7914 62.951V65.11H61.8914ZM74.625 59.857V60.673C74.625 61.115 74.6024 61.4267 74.557 61.608C74.5004 61.9027 74.353 62.1237 74.115 62.271C73.877 62.407 73.5314 62.475 73.078 62.475C72.9534 62.475 72.7437 62.4637 72.449 62.441V54.876H74.047C74.4324 54.876 74.625 55.063 74.625 55.437V59.857ZM67.502 59.993C67.1054 60.6503 66.6747 61.2227 66.21 61.71C65.8134 62.0273 65.4564 62.186 65.139 62.186C64.8217 62.186 64.5384 62.084 64.289 61.88C64.051 61.6647 63.8867 61.4097 63.796 61.115C64.68 60.3557 65.3657 59.551 65.853 58.701C66.3404 57.851 66.584 57.0123 66.584 56.185V55.42H68.114C68.454 55.42 68.624 55.5957 68.624 55.947V56.44C68.624 56.916 68.556 57.4033 68.42 57.902L70.681 60.129C70.9757 60.3557 71.123 60.6277 71.123 60.945C71.123 61.0697 71.0947 61.2 71.038 61.336C70.8794 61.7213 70.511 61.999 69.933 62.169L67.502 59.993ZM73.928 63.291C74.2907 63.291 74.472 63.4667 74.472 63.818V67.881C74.03 68.2777 73.4237 68.5893 72.653 68.816C71.8824 69.0427 71.0437 69.156 70.137 69.156C69.8764 69.156 69.678 69.1503 69.542 69.139C68.59 69.0823 67.825 68.8783 67.247 68.527C66.669 68.187 66.2894 67.7053 66.108 67.082C66.006 66.6853 65.955 66.2433 65.955 65.756C65.955 64.9173 66.0627 64.0957 66.278 63.291H73.928ZM68.029 65.076C68.0064 65.3253 67.995 65.501 67.995 65.603C67.995 66.045 68.08 66.385 68.25 66.623C68.4314 66.861 68.726 67.031 69.134 67.133C69.4627 67.2123 69.8537 67.252 70.307 67.252C70.715 67.252 71.1004 67.218 71.463 67.15C71.837 67.082 72.143 66.98 72.381 66.844V65.076H68.029ZM79.0967 61.523C78.7114 61.523 78.5187 61.336 78.5187 60.962V59.67H85.2847V58.242H79.3177C78.9324 58.242 78.7397 58.055 78.7397 57.681V56.338H86.7977C86.945 56.338 87.0584 56.389 87.1377 56.491C87.2284 56.5817 87.2737 56.7177 87.2737 56.899C87.2737 58.8597 87.268 60.2933 87.2567 61.2C87.2567 62.1067 87.2397 62.6507 87.2057 62.832C87.149 63.138 87.013 63.3647 86.7977 63.512C86.5937 63.648 86.2934 63.716 85.8967 63.716C85.7154 63.716 85.5114 63.699 85.2847 63.665V61.523H79.0967ZM88.7527 65.11C89.138 65.11 89.3307 65.297 89.3307 65.671V66.98H77.3287C76.9434 66.98 76.7507 66.793 76.7507 66.419V65.11H81.2897V62.39H83.0747C83.46 62.39 83.6527 62.577 83.6527 62.951V65.11H88.7527ZM104.673 66.385V67.201C104.673 67.643 104.651 67.9547 104.605 68.136C104.549 68.4307 104.401 68.646 104.163 68.782C103.925 68.9293 103.58 69.003 103.126 69.003C103.002 69.003 102.792 68.9917 102.497 68.969V54.876H104.095C104.481 54.876 104.673 55.063 104.673 55.437V60.129C105.059 60.061 105.382 60.027 105.642 60.027C105.937 60.027 106.164 60.0723 106.322 60.163C106.481 60.2537 106.6 60.3953 106.679 60.588C106.736 60.724 106.764 60.911 106.764 61.149C106.764 61.5683 106.662 61.9423 106.458 62.271H104.673V66.385ZM101.001 63.444C101.262 63.7613 101.392 64.0503 101.392 64.311C101.392 64.4697 101.341 64.6283 101.239 64.787C101.115 64.9797 100.939 65.127 100.712 65.229C100.497 65.331 100.248 65.3877 99.9643 65.399L97.6183 62.662C97.2443 63.4213 96.8023 64.1297 96.2923 64.787C96.077 65.059 95.8616 65.2403 95.6463 65.331C95.431 65.4217 95.193 65.4557 94.9323 65.433C94.7056 65.4103 94.4903 65.3197 94.2863 65.161C94.0936 64.991 93.9576 64.8097 93.8783 64.617C94.7396 63.597 95.4196 62.5657 95.9183 61.523C96.417 60.469 96.6663 59.4433 96.6663 58.446H94.9493C94.564 58.446 94.3713 58.259 94.3713 57.885V56.576H100.457C100.82 56.576 101.001 56.763 101.001 57.137V58.446H98.6723C98.6723 59.0807 98.593 59.7267 98.4343 60.384L101.001 63.444ZM120.11 59.092C120.167 59.228 120.195 59.415 120.195 59.653C120.195 60.0723 120.093 60.4463 119.889 60.775H118.104V62.39V63.206C118.104 63.648 118.081 63.9597 118.036 64.141C117.979 64.4357 117.832 64.6567 117.594 64.804C117.367 64.94 117.027 65.008 116.574 65.008C116.461 65.008 116.257 64.9967 115.962 64.974V54.876H117.526C117.911 54.876 118.104 55.063 118.104 55.437V58.633C118.489 58.565 118.812 58.531 119.073 58.531C119.368 58.531 119.594 58.5763 119.753 58.667C119.912 58.7577 120.031 58.8993 120.11 59.092ZM108.55 57.392C108.142 57.392 107.938 57.1937 107.938 56.797V55.556H114.296C114.704 55.556 114.908 55.7543 114.908 56.151V57.392H108.55ZM115.248 62.645C113.82 62.8603 112.137 62.968 110.199 62.968C109.757 62.968 109.151 62.9567 108.38 62.934C107.972 62.9227 107.768 62.7243 107.768 62.339V61.115L108.822 61.149V57.783H110.131C110.539 57.783 110.743 57.97 110.743 58.344V61.149C111.004 61.149 111.372 61.1377 111.848 61.115L111.967 57.834H113.259C113.69 57.834 113.894 58.0323 113.871 58.429L113.769 61.013L114.568 60.928C114.783 60.9053 114.948 60.945 115.061 61.047C115.186 61.1377 115.248 61.2793 115.248 61.472V62.645ZM117.577 66.64C117.611 66.6287 117.668 66.623 117.747 66.623C118.121 66.623 118.308 66.8327 118.308 67.252V68.425C117.254 68.629 116.047 68.731 114.687 68.731C113.758 68.731 112.919 68.68 112.171 68.578C111.446 68.4647 110.89 68.2607 110.505 67.966C110.12 67.6713 109.87 67.2747 109.757 66.776C109.655 66.402 109.604 65.8637 109.604 65.161C109.604 64.719 109.632 64.2883 109.689 63.869H111.151C111.525 63.869 111.712 64.0787 111.712 64.498C111.701 64.7133 111.701 64.9513 111.712 65.212C111.735 65.4727 111.757 65.6767 111.78 65.824C111.871 66.2887 112.256 66.5833 112.936 66.708C113.378 66.7873 113.973 66.827 114.721 66.827C115.786 66.827 116.738 66.7647 117.577 66.64ZM132.266 66.385V67.201C132.266 67.643 132.243 67.9547 132.198 68.136C132.141 68.4307 131.994 68.646 131.756 68.782C131.518 68.9293 131.172 69.003 130.719 69.003C130.594 69.003 130.384 68.9917 130.09 68.969V54.876H131.688C132.073 54.876 132.266 55.063 132.266 55.437V66.385ZM127.302 56.559C127.483 56.559 127.613 56.593 127.693 56.661C127.783 56.729 127.829 56.848 127.829 57.018V57.834C127.829 59.33 127.443 60.7467 126.673 62.084C125.913 63.4213 124.95 64.4923 123.783 65.297C123.363 65.5803 122.984 65.722 122.644 65.722C122.44 65.722 122.258 65.6823 122.1 65.603C121.918 65.5123 121.76 65.3763 121.624 65.195C121.488 65.0137 121.391 64.8153 121.335 64.6C122.627 63.7953 123.658 62.832 124.429 61.71C125.199 60.5767 125.624 59.483 125.704 58.429H122.338C121.964 58.429 121.777 58.2477 121.777 57.885V56.559H127.302Z" fill="#3060D1"/>
</svg>
