<svg width="238" height="52" viewBox="0 0 238 52" fill="none" xmlns="http://www.w3.org/2000/svg">
<path d="M13.8239 12.32H17.8559V21.312H20.7039V12.16H24.7999V38.848H20.7039V24.896H17.8559V38.688H13.8239V12.32ZM12.3839 33.248H2.62392C1.79192 33.248 1.14126 33.024 0.671922 32.576C0.223922 32.1067 -7.79629e-05 31.456 -7.79629e-05 30.624V13.792H11.1039V17.376H4.09592V29.664H12.3839V33.248ZM55.4609 23.936H51.3329V32.864H47.1089V12.16H51.3329V20.352H55.4609V23.936ZM36.5489 36.96H51.8449V40.544H34.7889C33.9143 40.544 33.2849 40.352 32.9009 39.968C32.5169 39.584 32.3249 38.9547 32.3249 38.08V32.192H36.5489V36.96ZM34.2449 14.912V11.808H38.4689V14.912H44.6129V18.272H28.0369V14.912H34.2449ZM39.1729 24.768C39.1729 24.0213 38.8956 23.4133 38.3409 22.944C37.8076 22.4747 37.1463 22.24 36.3569 22.24C35.5676 22.24 34.8956 22.4747 34.3409 22.944C33.8076 23.4133 33.5409 24.0213 33.5409 24.768C33.5409 25.5147 33.8076 26.1227 34.3409 26.592C34.8956 27.0613 35.5676 27.296 36.3569 27.296C37.1463 27.296 37.8076 27.0613 38.3409 26.592C38.8956 26.1227 39.1729 25.5147 39.1729 24.768ZM29.5089 24.768C29.5089 23.936 29.6903 23.168 30.0529 22.464C30.4156 21.76 30.9063 21.1627 31.5249 20.672C32.1436 20.16 32.8689 19.7653 33.7009 19.488C34.5329 19.2107 35.4183 19.072 36.3569 19.072C37.2956 19.072 38.1809 19.2107 39.0129 19.488C39.8449 19.7653 40.5703 20.16 41.1889 20.672C41.8076 21.1627 42.2983 21.76 42.6609 22.464C43.0236 23.168 43.2049 23.936 43.2049 24.768C43.2049 25.6 43.0236 26.368 42.6609 27.072C42.2983 27.776 41.8076 28.384 41.1889 28.896C40.5703 29.3867 39.8449 29.7707 39.0129 30.048C38.1809 30.3253 37.2956 30.464 36.3569 30.464C35.4183 30.464 34.5329 30.3253 33.7009 30.048C32.8689 29.7707 32.1436 29.3867 31.5249 28.896C30.9063 28.384 30.4156 27.776 30.0529 27.072C29.6903 26.368 29.5089 25.6 29.5089 24.768ZM77.7699 12.16H81.9939V31.904H77.7699V12.16ZM67.3699 36.864H82.6659V40.448H65.6099C64.7353 40.448 64.1059 40.256 63.7219 39.872C63.3379 39.488 63.1459 38.8587 63.1459 37.984V30.912H67.3699V36.864ZM59.0499 13.28H73.2899V25.248C73.2899 27.04 72.3939 27.936 70.6019 27.936H61.7379C59.9459 27.936 59.0499 27.04 59.0499 25.248V13.28ZM63.2419 24.352H69.0979V16.864H63.2419V24.352ZM109.647 12.736V22.112H105.423V16.32H89.7429V12.736H109.647ZM97.7429 30.4V26.784H86.7349V23.232H112.975V26.784H101.967V30.4H97.7429ZM109.871 31.2V40.832H105.647V34.784H89.5189V31.2H109.871ZM140.404 38.816H136.18V12.16H140.404V38.816ZM115.508 35.328V31.744H134.804V35.328H115.508ZM129.268 20.256C129.268 18.9973 128.895 18.016 128.148 17.312C127.401 16.5867 126.473 16.224 125.364 16.224C124.255 16.224 123.327 16.5867 122.58 17.312C121.833 18.016 121.46 18.9973 121.46 20.256C121.46 21.5147 121.833 22.5067 122.58 23.232C123.327 23.936 124.255 24.288 125.364 24.288C126.473 24.288 127.401 23.936 128.148 23.232C128.895 22.5067 129.268 21.5147 129.268 20.256ZM117.364 20.256C117.364 19.1253 117.556 18.1013 117.94 17.184C118.345 16.2453 118.9 15.456 119.604 14.816C120.329 14.1547 121.183 13.6427 122.164 13.28C123.145 12.9173 124.212 12.736 125.364 12.736C126.516 12.736 127.583 12.9173 128.564 13.28C129.545 13.6427 130.388 14.1547 131.092 14.816C131.817 15.456 132.372 16.2453 132.756 17.184C133.161 18.1013 133.364 19.1253 133.364 20.256C133.364 21.3867 133.161 22.4213 132.756 23.36C132.372 24.2773 131.817 25.0667 131.092 25.728C130.388 26.368 129.545 26.8693 128.564 27.232C127.583 27.5947 126.516 27.776 125.364 27.776C124.212 27.776 123.145 27.5947 122.164 27.232C121.183 26.8693 120.329 26.368 119.604 25.728C118.9 25.0667 118.345 24.2773 117.94 23.36C117.556 22.4213 117.364 21.3867 117.364 20.256ZM174.739 12.16H178.963V38.816H174.739V12.16ZM154.355 21.92C154.355 20.768 154.547 19.7013 154.931 18.72C155.336 17.7173 155.901 16.8533 156.627 16.128C157.352 15.3813 158.227 14.8053 159.251 14.4C160.275 13.9733 161.416 13.76 162.675 13.76C163.933 13.76 165.075 13.9733 166.099 14.4C167.123 14.8053 167.997 15.3813 168.723 16.128C169.448 16.8533 170.003 17.7173 170.387 18.72C170.792 19.7013 170.995 20.768 170.995 21.92C170.995 23.072 170.792 24.1493 170.387 25.152C170.003 26.1333 169.448 26.9973 168.723 27.744C167.997 28.4693 167.123 29.0453 166.099 29.472C165.075 29.8773 163.933 30.08 162.675 30.08C161.416 30.08 160.275 29.8773 159.251 29.472C158.227 29.0453 157.352 28.4693 156.627 27.744C155.901 26.9973 155.336 26.1333 154.931 25.152C154.547 24.1493 154.355 23.072 154.355 21.92ZM166.771 21.92C166.771 21.28 166.685 20.6827 166.515 20.128C166.344 19.5733 166.088 19.0933 165.747 18.688C165.405 18.2613 164.979 17.9307 164.467 17.696C163.955 17.4613 163.357 17.344 162.675 17.344C161.992 17.344 161.395 17.4613 160.883 17.696C160.371 17.9307 159.944 18.2613 159.603 18.688C159.261 19.0933 159.005 19.5733 158.835 20.128C158.664 20.6827 158.579 21.28 158.579 21.92C158.579 22.56 158.664 23.1573 158.835 23.712C159.005 24.2667 159.261 24.7573 159.603 25.184C159.944 25.5893 160.371 25.9093 160.883 26.144C161.395 26.3787 161.992 26.496 162.675 26.496C163.357 26.496 163.955 26.3787 164.467 26.144C164.979 25.9093 165.405 25.5893 165.747 25.184C166.088 24.7573 166.344 24.2667 166.515 23.712C166.685 23.1573 166.771 22.56 166.771 21.92ZM182.936 21.92C182.936 20.768 183.128 19.7013 183.512 18.72C183.917 17.7173 184.482 16.8533 185.208 16.128C185.933 15.3813 186.808 14.8053 187.832 14.4C188.856 13.9733 189.997 13.76 191.256 13.76C192.514 13.76 193.656 13.9733 194.68 14.4C195.704 14.8053 196.578 15.3813 197.304 16.128C198.029 16.8533 198.584 17.7173 198.968 18.72C199.373 19.7013 199.576 20.768 199.576 21.92C199.576 23.072 199.373 24.1493 198.968 25.152C198.584 26.1333 198.029 26.9973 197.304 27.744C196.578 28.4693 195.704 29.0453 194.68 29.472C193.656 29.8773 192.514 30.08 191.256 30.08C189.997 30.08 188.856 29.8773 187.832 29.472C186.808 29.0453 185.933 28.4693 185.208 27.744C184.482 26.9973 183.917 26.1333 183.512 25.152C183.128 24.1493 182.936 23.072 182.936 21.92ZM211 20.192H206.872V25.248H211V28.832H206.872V38.816H202.648V12.16H206.872V16.608H211V20.192ZM195.352 21.92C195.352 21.28 195.266 20.6827 195.096 20.128C194.925 19.5733 194.669 19.0933 194.328 18.688C193.986 18.2613 193.56 17.9307 193.048 17.696C192.536 17.4613 191.938 17.344 191.256 17.344C190.573 17.344 189.976 17.4613 189.464 17.696C188.952 17.9307 188.525 18.2613 188.184 18.688C187.842 19.0933 187.586 19.5733 187.416 20.128C187.245 20.6827 187.16 21.28 187.16 21.92C187.16 22.56 187.245 23.1573 187.416 23.712C187.586 24.2667 187.842 24.7573 188.184 25.184C188.525 25.5893 188.952 25.9093 189.464 26.144C189.976 26.3787 190.573 26.496 191.256 26.496C191.938 26.496 192.536 26.3787 193.048 26.144C193.56 25.9093 193.986 25.5893 194.328 25.184C194.669 24.7573 194.925 24.2667 195.096 23.712C195.266 23.1573 195.352 22.56 195.352 21.92ZM232.989 12.16H237.213V38.816H232.989V12.16ZM228.093 13.6V33.28H223.869V17.184H213.309V13.6H228.093Z" fill="white"/>
</svg>
