<svg width="221" height="52" viewBox="0 0 221 52" fill="none" xmlns="http://www.w3.org/2000/svg">
<path d="M28.7225 12.864V23.808C28.7225 25.6 27.8265 26.496 26.0345 26.496H16.8505C15.0585 26.496 14.1625 25.6 14.1625 23.808V12.864H18.3545V16.48H24.5305V12.864H28.7225ZM20.2105 40.448C18.4185 40.448 17.5225 39.552 17.5225 37.76V29.28H37.0105V32.832H21.7465V36.896H37.3305V40.448H20.2105ZM40.9785 21.376H36.8505V28H32.6265V12.16H36.8505V17.792H40.9785V21.376ZM24.5305 22.976V20H18.3545V22.976H24.5305ZM56.7275 18.72H63.2875V12.16H67.5115V31.904H63.2875V22.304H56.7275V18.72ZM52.8875 36.864H68.1835V40.448H51.1275C50.2528 40.448 49.6235 40.256 49.2395 39.872C48.8555 39.488 48.6635 38.8587 48.6635 37.984V30.912H52.8875V36.864ZM47.2555 28.32C45.4635 28.32 44.5675 27.424 44.5675 25.632V13.28H58.7435V16.832H48.7915V24.768H60.4715V28.32H47.2555ZM109.142 24.448H104.694V38.816H100.47V12.16H104.694V20.864H109.142V24.448ZM85.2703 32.8C83.4143 32.8 82.4863 31.872 82.4863 30.016V13.6H86.7103V29.216H98.0382V32.8H85.2703ZM83.0943 16.896H86.1023V14.112H83.0943V16.896ZM111.291 21.536H120.987V17.088H111.291V13.504H125.211V25.12H115.515V29.92H127.515V33.504H114.075C112.219 33.504 111.291 32.576 111.291 30.72V21.536ZM138.267 24.768H134.139V38.816H129.915V12.16H134.139V21.184H138.267V24.768ZM165.696 38.848H161.6V12.16H165.696V38.848ZM153.44 19.776H155.904V12.32H159.872V38.688H155.904V23.36H153.44V19.776ZM138.656 21.76C138.656 20.6293 138.795 19.584 139.072 18.624C139.371 17.6427 139.808 16.7893 140.384 16.064C140.96 15.3387 141.686 14.7733 142.56 14.368C143.435 13.9627 144.459 13.76 145.632 13.76C146.806 13.76 147.83 13.9627 148.704 14.368C149.579 14.7733 150.304 15.3387 150.88 16.064C151.456 16.7893 151.883 17.6427 152.16 18.624C152.459 19.584 152.608 20.6293 152.608 21.76C152.608 22.8907 152.459 23.9467 152.16 24.928C151.883 25.888 151.456 26.7307 150.88 27.456C150.304 28.1813 149.579 28.7467 148.704 29.152C147.83 29.5573 146.806 29.76 145.632 29.76C144.459 29.76 143.435 29.5573 142.56 29.152C141.686 28.7467 140.96 28.1813 140.384 27.456C139.808 26.7307 139.371 25.888 139.072 24.928C138.795 23.9467 138.656 22.8907 138.656 21.76ZM148.448 21.76C148.448 21.1627 148.395 20.5973 148.288 20.064C148.182 19.5093 148.011 19.04 147.776 18.656C147.563 18.2507 147.275 17.9307 146.912 17.696C146.571 17.4613 146.144 17.344 145.632 17.344C145.12 17.344 144.683 17.4613 144.32 17.696C143.958 17.9307 143.659 18.2507 143.424 18.656C143.211 19.04 143.051 19.5093 142.944 20.064C142.859 20.5973 142.816 21.1627 142.816 21.76C142.816 22.3787 142.859 22.9547 142.944 23.488C143.051 24.0213 143.211 24.4907 143.424 24.896C143.659 25.28 143.958 25.5893 144.32 25.824C144.683 26.0587 145.12 26.176 145.632 26.176C146.144 26.176 146.571 26.0587 146.912 25.824C147.275 25.5893 147.563 25.28 147.776 24.896C148.011 24.4907 148.182 24.0213 148.288 23.488C148.395 22.9547 148.448 22.3787 148.448 21.76ZM177.893 21.6C177.573 22.304 177.189 23.168 176.741 24.192C176.293 25.216 175.813 26.2933 175.301 27.424C174.811 28.5333 174.309 29.632 173.797 30.72C173.307 31.808 172.869 32.768 172.485 33.6L168.869 32C169.189 31.296 169.584 30.4533 170.053 29.472C170.523 28.4693 171.024 27.4027 171.557 26.272C172.091 25.12 172.645 23.9253 173.221 22.688C173.797 21.4507 174.352 20.2453 174.885 19.072C175.44 17.8773 175.963 16.7467 176.453 15.68C176.944 14.6133 177.371 13.6747 177.733 12.864H178.053C178.416 13.6747 178.832 14.6027 179.301 15.648C179.792 16.6933 180.304 17.792 180.837 18.944C181.371 20.096 181.915 21.2693 182.469 22.464C183.045 23.6587 183.589 24.8107 184.101 25.92C184.635 27.0293 185.125 28.064 185.573 29.024C186.021 29.984 186.416 30.816 186.757 31.52L183.141 33.184C182.757 32.352 182.32 31.4133 181.829 30.368C181.36 29.3013 180.88 28.2347 180.389 27.168C179.92 26.1013 179.461 25.0773 179.013 24.096C178.587 23.1147 178.213 22.2827 177.893 21.6ZM189.381 12.16H193.605V38.816H189.381V23.552H184.805V19.968H189.381V12.16ZM199.818 32.832H204.266L201.258 41.28H197.866L199.818 32.832Z" fill="white"/>
<rect x="83" y="14" width="3.5" height="3" fill="white"/>
</svg>
