<svg width="221" height="52" viewBox="0 0 221 52" fill="none" xmlns="http://www.w3.org/2000/svg">
<path d="M57.2426 12.96V16.544H50.5546C51.7706 17.7387 52.9866 18.9333 54.2026 20.128C55.4186 21.3013 56.6133 22.4427 57.7866 23.552L54.9066 26.4C53.648 25.2053 52.368 23.9573 51.0666 22.656C49.7866 21.3547 48.56 20.096 47.3866 18.88C46.2133 20.1173 44.976 21.408 43.6746 22.752C42.3946 24.0747 41.1253 25.344 39.8666 26.56L36.9866 23.712C38.16 22.5813 39.3546 21.408 40.5706 20.192C41.808 18.976 43.0346 17.76 44.2506 16.544H37.6586V12.96H57.2426ZM45.3386 39.968V32.032H34.3306V28.448H60.5706V32.032H49.5626V39.968H45.3386ZM89.6956 25.952V29.536H63.4556V25.952H89.6956ZM68.9916 23.104C67.5196 23.104 66.7836 22.368 66.7836 20.896V12.8H71.0076V19.52H86.7196V23.104H68.9916ZM70.8796 36.864H87.1036V40.448H69.1196C68.245 40.448 67.6156 40.256 67.2316 39.872C66.8476 39.488 66.6556 38.8587 66.6556 37.984V31.52H70.8796V36.864ZM129.47 24.448H125.022V38.816H120.798V12.16H125.022V20.864H129.47V24.448ZM105.598 32.8C103.742 32.8 102.814 31.872 102.814 30.016V13.6H107.038V29.216H118.366V32.8H105.598ZM103.422 16.896H106.43V14.112H103.422V16.896ZM131.619 21.536H141.315V17.088H131.619V13.504H145.539V25.12H135.843V29.92H147.843V33.504H134.403C132.547 33.504 131.619 32.576 131.619 30.72V21.536ZM158.595 24.768H154.467V38.816H150.243V12.16H154.467V21.184H158.595V24.768ZM175.656 29.856V33.12H186.664V36.704H160.424V33.12H171.432V29.856H175.656ZM167.848 24.864H184.2V28.416H166.088C164.446 28.416 163.624 27.5947 163.624 25.952V19.008H179.304V16.832H163.624V13.28H183.528V22.464H167.848V24.864Z" fill="white"/>
<rect x="103" y="14" width="3.5" height="3" fill="white"/>
</svg>
