<svg width="221" height="52" viewBox="0 0 221 52" fill="none" xmlns="http://www.w3.org/2000/svg">
<path d="M61.3066 23.936H57.1786V32.864H52.9546V12.16H57.1786V20.352H61.3066V23.936ZM42.3946 36.96H57.6906V40.544H40.6346C39.76 40.544 39.1306 40.352 38.7466 39.968C38.3626 39.584 38.1706 38.9547 38.1706 38.08V32.192H42.3946V36.96ZM40.0906 14.912V11.808H44.3146V14.912H50.4586V18.272H33.8826V14.912H40.0906ZM45.0186 24.768C45.0186 24.0213 44.7413 23.4133 44.1866 22.944C43.6533 22.4747 42.992 22.24 42.2026 22.24C41.4133 22.24 40.7413 22.4747 40.1866 22.944C39.6533 23.4133 39.3866 24.0213 39.3866 24.768C39.3866 25.5147 39.6533 26.1227 40.1866 26.592C40.7413 27.0613 41.4133 27.296 42.2026 27.296C42.992 27.296 43.6533 27.0613 44.1866 26.592C44.7413 26.1227 45.0186 25.5147 45.0186 24.768ZM35.3546 24.768C35.3546 23.936 35.536 23.168 35.8986 22.464C36.2613 21.76 36.752 21.1627 37.3706 20.672C37.9893 20.16 38.7146 19.7653 39.5466 19.488C40.3786 19.2107 41.264 19.072 42.2026 19.072C43.1413 19.072 44.0266 19.2107 44.8586 19.488C45.6906 19.7653 46.416 20.16 47.0346 20.672C47.6533 21.1627 48.144 21.76 48.5066 22.464C48.8693 23.168 49.0506 23.936 49.0506 24.768C49.0506 25.6 48.8693 26.368 48.5066 27.072C48.144 27.776 47.6533 28.384 47.0346 28.896C46.416 29.3867 45.6906 29.7707 44.8586 30.048C44.0266 30.3253 43.1413 30.464 42.2026 30.464C41.264 30.464 40.3786 30.3253 39.5466 30.048C38.7146 29.7707 37.9893 29.3867 37.3706 28.896C36.752 28.384 36.2613 27.776 35.8986 27.072C35.536 26.368 35.3546 25.6 35.3546 24.768ZM90.4316 20.896H86.3036V27.136H82.0796V12.16H86.3036V17.312H90.4316V20.896ZM77.5356 13.12V25.088H73.3116V16.704H63.6156V13.12H77.5356ZM74.7196 34.72C74.7196 35.2747 74.8156 35.7653 75.0076 36.192C75.1996 36.6187 75.4663 36.9707 75.8076 37.248C76.149 37.5467 76.5436 37.7707 76.9916 37.92C77.4396 38.0693 77.909 38.144 78.3996 38.144C78.8903 38.144 79.3596 38.0693 79.8076 37.92C80.2556 37.7707 80.6396 37.5467 80.9596 37.248C81.301 36.9707 81.5676 36.6187 81.7596 36.192C81.973 35.7653 82.0796 35.2747 82.0796 34.72C82.0796 34.1653 81.973 33.6747 81.7596 33.248C81.5676 32.8213 81.301 32.4693 80.9596 32.192C80.6396 31.8933 80.2556 31.6693 79.8076 31.52C79.3596 31.3707 78.8903 31.296 78.3996 31.296C77.909 31.296 77.4396 31.3707 76.9916 31.52C76.5436 31.6693 76.149 31.8933 75.8076 32.192C75.4663 32.4693 75.1996 32.8213 75.0076 33.248C74.8156 33.6747 74.7196 34.1653 74.7196 34.72ZM86.3036 34.72C86.3036 35.808 86.0903 36.7787 85.6636 37.632C85.2583 38.5067 84.693 39.2427 83.9676 39.84C83.2423 40.4587 82.3996 40.928 81.4396 41.248C80.501 41.568 79.4876 41.728 78.3996 41.728C77.3116 41.728 76.2876 41.568 75.3276 41.248C74.3676 40.928 73.525 40.4587 72.7996 39.84C72.0956 39.2427 71.5303 38.5067 71.1036 37.632C70.6983 36.7787 70.4956 35.808 70.4956 34.72C70.4956 33.632 70.6983 32.6613 71.1036 31.808C71.5303 30.9333 72.1063 30.1973 72.8316 29.6C73.557 28.9813 74.389 28.512 75.3276 28.192C76.2876 27.872 77.3116 27.712 78.3996 27.712C79.4876 27.712 80.501 27.872 81.4396 28.192C82.3996 28.512 83.2423 28.9813 83.9676 29.6C84.693 30.1973 85.2583 30.9333 85.6636 31.808C86.0903 32.6613 86.3036 33.632 86.3036 34.72ZM117.125 38.816H112.901V12.16H117.125V38.816ZM92.2286 35.328V31.744H111.525V35.328H92.2286ZM105.989 20.256C105.989 18.9973 105.615 18.016 104.869 17.312C104.122 16.5867 103.194 16.224 102.085 16.224C100.975 16.224 100.047 16.5867 99.3006 17.312C98.554 18.016 98.1806 18.9973 98.1806 20.256C98.1806 21.5147 98.554 22.5067 99.3006 23.232C100.047 23.936 100.975 24.288 102.085 24.288C103.194 24.288 104.122 23.936 104.869 23.232C105.615 22.5067 105.989 21.5147 105.989 20.256ZM94.0846 20.256C94.0846 19.1253 94.2766 18.1013 94.6606 17.184C95.066 16.2453 95.6206 15.456 96.3246 14.816C97.05 14.1547 97.9033 13.6427 98.8846 13.28C99.866 12.9173 100.933 12.736 102.085 12.736C103.237 12.736 104.303 12.9173 105.285 13.28C106.266 13.6427 107.109 14.1547 107.813 14.816C108.538 15.456 109.093 16.2453 109.477 17.184C109.882 18.1013 110.085 19.1253 110.085 20.256C110.085 21.3867 109.882 22.4213 109.477 23.36C109.093 24.2773 108.538 25.0667 107.813 25.728C107.109 26.368 106.266 26.8693 105.285 27.232C104.303 27.5947 103.237 27.776 102.085 27.776C100.933 27.776 99.866 27.5947 98.8846 27.232C97.9033 26.8693 97.05 26.368 96.3246 25.728C95.6206 25.0667 95.066 24.2773 94.6606 23.36C94.2766 22.4213 94.0846 21.3867 94.0846 20.256ZM151.459 12.16H155.683V38.816H151.459V12.16ZM146.563 13.6V33.28H142.339V17.184H131.779V13.6H146.563ZM160.616 26.016C161.747 24.544 162.878 23.0293 164.008 21.472C165.139 19.8933 166.259 18.304 167.368 16.704H161.64V13.12H176.968V16.704H171.144C172.232 18.2187 173.32 19.712 174.408 21.184C175.496 22.6347 176.595 24.0427 177.704 25.408L174.632 27.808C173.736 26.6347 172.819 25.408 171.88 24.128C170.963 22.8267 170.078 21.5573 169.224 20.32C168.328 21.6427 167.4 22.9867 166.44 24.352C165.502 25.696 164.563 26.9867 163.624 28.224L160.616 26.016ZM184.808 29.856V40.832H180.584V33.44H165.32V29.856H184.808ZM176.648 18.56H180.584V12.16H184.808V28.576H180.584V22.144H176.648V18.56Z" fill="white"/>
<rect x="83" y="14" width="3.5" height="3" fill="white"/>
</svg>
