<svg width="639" height="205" viewBox="0 0 639 205" fill="none" xmlns="http://www.w3.org/2000/svg">
<path d="M155.945 26.728V48.616C155.945 52.2 154.153 53.992 150.569 53.992H132.201C128.617 53.992 126.825 52.2 126.825 48.616V26.728H135.209V33.96H147.561V26.728H155.945ZM138.921 81.896C135.337 81.896 133.545 80.104 133.545 76.52V59.56H172.521V66.664H141.993V74.792H173.161V81.896H138.921ZM180.457 43.752H172.201V57H163.753V25.32H172.201V36.584H180.457V43.752ZM147.561 46.952V41H135.209V46.952H147.561ZM211.955 38.44H225.075V25.32H233.523V64.808H225.075V45.608H211.955V38.44ZM204.275 74.728H234.867V81.896H200.755C199.006 81.896 197.747 81.512 196.979 80.744C196.211 79.976 195.827 78.7173 195.827 76.968V62.824H204.275V74.728ZM193.011 57.64C189.427 57.64 187.635 55.848 187.635 52.264V27.56H215.987V34.664H196.083V50.536H219.443V57.64H193.011ZM316.785 49.896H307.889V78.632H299.441V25.32H307.889V42.728H316.785V49.896ZM269.041 66.6C265.329 66.6 263.473 64.744 263.473 61.032V28.2H271.921V59.432H294.576V66.6H269.041ZM264.689 34.792H270.705V29.224H264.689V34.792ZM321.083 44.072H340.475V35.176H321.083V28.008H348.923V51.24H329.531V60.84H353.531V68.008H326.651C322.939 68.008 321.083 66.152 321.083 62.44V44.072ZM375.035 50.536H366.779V78.632H358.331V25.32H366.779V43.368H375.035V50.536ZM429.893 78.696H421.701V25.32H429.893V78.696ZM405.381 40.552H410.309V25.64H418.245V78.376H410.309V47.72H405.381V40.552ZM375.812 44.52C375.812 42.2587 376.09 40.168 376.645 38.248C377.242 36.2853 378.117 34.5787 379.269 33.128C380.421 31.6773 381.871 30.5467 383.621 29.736C385.37 28.9253 387.418 28.52 389.765 28.52C392.111 28.52 394.159 28.9253 395.909 29.736C397.658 30.5467 399.109 31.6773 400.261 33.128C401.413 34.5787 402.266 36.2853 402.821 38.248C403.418 40.168 403.717 42.2587 403.717 44.52C403.717 46.7813 403.418 48.8933 402.821 50.856C402.266 52.776 401.413 54.4613 400.261 55.912C399.109 57.3627 397.658 58.4933 395.909 59.304C394.159 60.1147 392.111 60.52 389.765 60.52C387.418 60.52 385.37 60.1147 383.621 59.304C381.871 58.4933 380.421 57.3627 379.269 55.912C378.117 54.4613 377.242 52.776 376.645 50.856C376.09 48.8933 375.812 46.7813 375.812 44.52ZM395.397 44.52C395.397 43.3253 395.29 42.1947 395.077 41.128C394.863 40.0187 394.522 39.08 394.053 38.312C393.626 37.5013 393.05 36.8613 392.325 36.392C391.642 35.9227 390.789 35.688 389.765 35.688C388.741 35.688 387.866 35.9227 387.141 36.392C386.415 36.8613 385.818 37.5013 385.349 38.312C384.922 39.08 384.602 40.0187 384.389 41.128C384.218 42.1947 384.133 43.3253 384.133 44.52C384.133 45.7573 384.218 46.9093 384.389 47.976C384.602 49.0427 384.922 49.9813 385.349 50.792C385.818 51.56 386.415 52.1787 387.141 52.648C387.866 53.1173 388.741 53.352 389.765 53.352C390.789 53.352 391.642 53.1173 392.325 52.648C393.05 52.1787 393.626 51.56 394.053 50.792C394.522 49.9813 394.863 49.0427 395.077 47.976C395.29 46.9093 395.397 45.7573 395.397 44.52ZM454.287 44.2C453.647 45.608 452.879 47.336 451.983 49.384C451.087 51.432 450.127 53.5867 449.103 55.848C448.121 58.0667 447.119 60.264 446.095 62.44C445.113 64.616 444.239 66.536 443.47 68.2L436.239 65C436.879 63.592 437.668 61.9067 438.607 59.944C439.545 57.9387 440.548 55.8053 441.615 53.544C442.681 51.24 443.791 48.8507 444.943 46.376C446.095 43.9013 447.204 41.4907 448.271 39.144C449.38 36.7547 450.425 34.4933 451.407 32.36C452.388 30.2267 453.241 28.3493 453.967 26.728H454.607C455.332 28.3493 456.164 30.2053 457.103 32.296C458.084 34.3867 459.108 36.584 460.175 38.888C461.241 41.192 462.329 43.5387 463.439 45.928C464.591 48.3173 465.679 50.6213 466.703 52.84C467.769 55.0587 468.751 57.128 469.647 59.048C470.543 60.968 471.332 62.632 472.015 64.04L464.783 67.368C464.015 65.704 463.14 63.8267 462.159 61.736C461.22 59.6027 460.26 57.4693 459.279 55.336C458.34 53.2027 457.423 51.1547 456.527 49.192C455.673 47.2293 454.927 45.5653 454.287 44.2ZM477.263 25.32H485.711V78.632H477.263V48.104H468.111V40.936H477.263V25.32ZM498.137 66.664H507.033L501.017 83.56H494.233L498.137 66.664ZM212.985 128.92V136.088H199.609C202.041 138.477 204.473 140.867 206.905 143.256C209.337 145.603 211.727 147.885 214.073 150.104L208.313 155.8C205.796 153.411 203.236 150.915 200.633 148.312C198.073 145.709 195.62 143.192 193.273 140.76C190.927 143.235 188.452 145.816 185.849 148.504C183.289 151.149 180.751 153.688 178.233 156.12L172.473 150.424C174.82 148.163 177.209 145.816 179.641 143.384C182.116 140.952 184.569 138.52 187.001 136.088H173.817V128.92H212.985ZM189.177 182.936V167.064H167.161V159.896H219.641V167.064H197.625V182.936H189.177ZM277.891 154.904V162.072H225.411V154.904H277.891ZM236.483 149.208C233.539 149.208 232.067 147.736 232.067 144.792V128.6H240.515V142.04H271.939V149.208H236.483ZM240.259 176.728H272.707V183.896H236.739C234.99 183.896 233.731 183.512 232.963 182.744C232.195 181.976 231.811 180.717 231.811 178.968V166.04H240.259V176.728ZM357.441 151.896H348.545V180.632H340.097V127.32H348.545V144.728H357.441V151.896ZM309.697 168.6C305.985 168.6 304.129 166.744 304.129 163.032V130.2H312.577V161.432H335.233V168.6H309.697ZM305.345 136.792H311.361V131.224H305.345V136.792ZM361.739 146.072H381.131V137.176H361.739V130.008H389.579V153.24H370.187V162.84H394.187V170.008H367.307C363.595 170.008 361.739 168.152 361.739 164.44V146.072ZM415.691 152.536H407.435V180.632H398.987V127.32H407.435V145.368H415.691V152.536ZM449.813 162.712V169.24H471.829V176.408H419.349V169.24H441.365V162.712H449.813ZM434.197 152.728H466.901V159.832H430.677C427.391 159.832 425.749 158.189 425.749 154.904V141.016H457.109V136.664H425.749V129.56H465.557V147.928H434.197V152.728Z" fill="white"/>
<rect x="264" y="29" width="7" height="6" fill="white"/>
<rect x="305" y="131" width="7" height="6" fill="white"/>
<rect x="300.406" y="66" width="8.91036" height="3" fill="white"/>
</svg>
