<svg width="475" height="161" viewBox="0 0 475 161" fill="none" xmlns="http://www.w3.org/2000/svg">
<path d="M140.047 24.2558H131.791V42.1118H123.343V0.703785H131.791V17.0878H140.047V24.2558ZM102.223 50.3038H132.815V57.4718H98.7031C96.9538 57.4718 95.6951 57.0878 94.9271 56.3198C94.1591 55.5518 93.7751 54.2931 93.7751 52.5438V40.7678H102.223V50.3038ZM97.6151 6.20779V-0.000213623H106.063V6.20779H118.351V12.9278H85.1991V6.20779H97.6151ZM107.471 25.9198C107.471 24.4265 106.916 23.2105 105.807 22.2718C104.74 21.3331 103.418 20.8638 101.839 20.8638C100.26 20.8638 98.9164 21.3331 97.8071 22.2718C96.7404 23.2105 96.2071 24.4265 96.2071 25.9198C96.2071 27.4131 96.7404 28.6291 97.8071 29.5678C98.9164 30.5065 100.26 30.9758 101.839 30.9758C103.418 30.9758 104.74 30.5065 105.807 29.5678C106.916 28.6291 107.471 27.4131 107.471 25.9198ZM88.1431 25.9198C88.1431 24.2558 88.5058 22.7198 89.2311 21.3118C89.9564 19.9038 90.9378 18.7091 92.1751 17.7278C93.4124 16.7038 94.8631 15.9145 96.5271 15.3598C98.1911 14.8051 99.9618 14.5278 101.839 14.5278C103.716 14.5278 105.487 14.8051 107.151 15.3598C108.815 15.9145 110.266 16.7038 111.503 17.7278C112.74 18.7091 113.722 19.9038 114.447 21.3118C115.172 22.7198 115.535 24.2558 115.535 25.9198C115.535 27.5838 115.172 29.1198 114.447 30.5278C113.722 31.9358 112.74 33.1518 111.503 34.1758C110.266 35.1571 108.815 35.9251 107.151 36.4798C105.487 37.0345 103.716 37.3118 101.839 37.3118C99.9618 37.3118 98.1911 37.0345 96.5271 36.4798C94.8631 35.9251 93.4124 35.1571 92.1751 34.1758C90.9378 33.1518 89.9564 31.9358 89.2311 30.5278C88.5058 29.1198 88.1431 27.5838 88.1431 25.9198ZM198.297 18.1758H190.041V30.6558H181.593V0.703785H190.041V11.0078H198.297V18.1758ZM172.505 2.62379V26.5598H164.057V9.79179H144.665V2.62379H172.505ZM166.873 45.8238C166.873 46.9331 167.065 47.9145 167.449 48.7678C167.833 49.6211 168.366 50.3251 169.049 50.8798C169.732 51.4771 170.521 51.9251 171.417 52.2238C172.313 52.5225 173.252 52.6718 174.233 52.6718C175.214 52.6718 176.153 52.5225 177.049 52.2238C177.945 51.9251 178.713 51.4771 179.353 50.8798C180.036 50.3251 180.569 49.6211 180.953 48.7678C181.38 47.9145 181.593 46.9331 181.593 45.8238C181.593 44.7145 181.38 43.7331 180.953 42.8798C180.569 42.0265 180.036 41.3225 179.353 40.7678C178.713 40.1705 177.945 39.7225 177.049 39.4238C176.153 39.1251 175.214 38.9758 174.233 38.9758C173.252 38.9758 172.313 39.1251 171.417 39.4238C170.521 39.7225 169.732 40.1705 169.049 40.7678C168.366 41.3225 167.833 42.0265 167.449 42.8798C167.065 43.7331 166.873 44.7145 166.873 45.8238ZM190.041 45.8238C190.041 47.9998 189.614 49.9411 188.761 51.6478C187.95 53.3971 186.82 54.8691 185.369 56.0638C183.918 57.3011 182.233 58.2398 180.313 58.8798C178.436 59.5198 176.409 59.8398 174.233 59.8398C172.057 59.8398 170.009 59.5198 168.089 58.8798C166.169 58.2398 164.484 57.3011 163.033 56.0638C161.625 54.8691 160.494 53.3971 159.641 51.6478C158.83 49.9411 158.425 47.9998 158.425 45.8238C158.425 43.6478 158.83 41.7065 159.641 39.9998C160.494 38.2505 161.646 36.7785 163.097 35.5838C164.548 34.3465 166.212 33.4078 168.089 32.7678C170.009 32.1278 172.057 31.8078 174.233 31.8078C176.409 31.8078 178.436 32.1278 180.313 32.7678C182.233 33.4078 183.918 34.3465 185.369 35.5838C186.82 36.7785 187.95 38.2505 188.761 39.9998C189.614 41.7065 190.041 43.6478 190.041 45.8238ZM251.683 54.0158H243.235V0.703785H251.683V54.0158ZM201.891 47.0398V39.8718H240.483V47.0398H201.891ZM229.411 16.8958C229.411 14.3785 228.664 12.4158 227.171 11.0078C225.678 9.55712 223.822 8.83179 221.603 8.83179C219.384 8.83179 217.528 9.55712 216.035 11.0078C214.542 12.4158 213.795 14.3785 213.795 16.8958C213.795 19.4131 214.542 21.3971 216.035 22.8478C217.528 24.2558 219.384 24.9598 221.603 24.9598C223.822 24.9598 225.678 24.2558 227.171 22.8478C228.664 21.3971 229.411 19.4131 229.411 16.8958ZM205.603 16.8958C205.603 14.6345 205.987 12.5865 206.755 10.7518C207.566 8.87445 208.675 7.29579 210.083 6.01579C211.534 4.69312 213.24 3.66912 215.203 2.94379C217.166 2.21845 219.299 1.85579 221.603 1.85579C223.907 1.85579 226.04 2.21845 228.003 2.94379C229.966 3.66912 231.651 4.69312 233.059 6.01579C234.51 7.29579 235.619 8.87445 236.387 10.7518C237.198 12.5865 237.603 14.6345 237.603 16.8958C237.603 19.1571 237.198 21.2265 236.387 23.1038C235.619 24.9385 234.51 26.5171 233.059 27.8398C231.651 29.1198 229.966 30.1225 228.003 30.8478C226.04 31.5731 223.907 31.9358 221.603 31.9358C219.299 31.9358 217.166 31.5731 215.203 30.8478C213.24 30.1225 211.534 29.1198 210.083 27.8398C208.675 26.5171 207.566 24.9385 206.755 23.1038C205.987 21.2265 205.603 19.1571 205.603 16.8958ZM320.353 0.703785H328.801V54.0158H320.353V0.703785ZM310.561 3.58379V42.9438H302.113V10.7518H280.993V3.58379H310.561ZM338.667 28.4158C340.928 25.4718 343.189 22.4425 345.451 19.3278C347.712 16.1705 349.952 12.9918 352.171 9.79179H340.715V2.62379H371.371V9.79179H359.723C361.899 12.8211 364.075 15.8078 366.251 18.7518C368.427 21.6531 370.624 24.4691 372.843 27.1998L366.699 31.9998C364.907 29.6531 363.072 27.1998 361.195 24.6398C359.36 22.0371 357.589 19.4985 355.883 17.0238C354.091 19.6691 352.235 22.3571 350.315 25.0878C348.437 27.7758 346.56 30.3571 344.683 32.8318L338.667 28.4158ZM387.051 36.0958V58.0478H378.603V43.2638H348.075V36.0958H387.051ZM370.731 13.5038H378.603V0.703785H387.051V33.5358H378.603V20.6718H370.731V13.5038ZM27.6481 103.024H35.7121V121.008H41.4081V102.704H49.6001V156.08H41.4081V128.176H35.7121V155.76H27.6481V103.024ZM24.7681 144.88H5.24809C3.58409 144.88 2.28275 144.432 1.34409 143.536C0.448088 142.597 8.82149e-05 141.296 8.82149e-05 139.632V105.968H22.2081V113.136H8.19209V137.712H24.7681V144.88ZM110.922 126.256H102.666V144.112H94.2181V102.704H102.666V119.088H110.922V126.256ZM73.0981 152.304H103.69V159.472H69.5781C67.8288 159.472 66.5701 159.088 65.8021 158.32C65.0341 157.552 64.6501 156.293 64.6501 154.544V142.768H73.0981V152.304ZM68.4901 108.208V102H76.9381V108.208H89.2261V114.928H56.0741V108.208H68.4901ZM78.3461 127.92C78.3461 126.426 77.7914 125.21 76.6821 124.272C75.6154 123.333 74.2928 122.864 72.7141 122.864C71.1354 122.864 69.7914 123.333 68.6821 124.272C67.6154 125.21 67.0821 126.426 67.0821 127.92C67.0821 129.413 67.6154 130.629 68.6821 131.568C69.7914 132.506 71.1354 132.976 72.7141 132.976C74.2928 132.976 75.6154 132.506 76.6821 131.568C77.7914 130.629 78.3461 129.413 78.3461 127.92ZM59.0181 127.92C59.0181 126.256 59.3808 124.72 60.1061 123.312C60.8314 121.904 61.8128 120.709 63.0501 119.728C64.2874 118.704 65.7381 117.914 67.4021 117.36C69.0661 116.805 70.8368 116.528 72.7141 116.528C74.5914 116.528 76.3621 116.805 78.0261 117.36C79.6901 117.914 81.1408 118.704 82.3781 119.728C83.6154 120.709 84.5968 121.904 85.3221 123.312C86.0474 124.72 86.4101 126.256 86.4101 127.92C86.4101 129.584 86.0474 131.12 85.3221 132.528C84.5968 133.936 83.6154 135.152 82.3781 136.176C81.1408 137.157 79.6901 137.925 78.0261 138.48C76.3621 139.034 74.5914 139.312 72.7141 139.312C70.8368 139.312 69.0661 139.034 67.4021 138.48C65.7381 137.925 64.2874 137.157 63.0501 136.176C61.8128 135.152 60.8314 133.936 60.1061 132.528C59.3808 131.12 59.0181 129.584 59.0181 127.92ZM155.54 102.704H163.988V142.192H155.54V102.704ZM134.74 152.112H165.332V159.28H131.22C129.471 159.28 128.212 158.896 127.444 158.128C126.676 157.36 126.292 156.101 126.292 154.352V140.208H134.74V152.112ZM118.1 104.944H146.58V128.88C146.58 132.464 144.788 134.256 141.204 134.256H123.476C119.892 134.256 118.1 132.464 118.1 128.88V104.944ZM126.484 127.088H138.196V112.112H126.484V127.088ZM219.294 103.856V122.608H210.846V111.024H179.486V103.856H219.294ZM195.486 139.184V131.952H173.47V124.848H225.95V131.952H203.934V139.184H195.486ZM219.742 140.784V160.048H211.294V147.952H179.038V140.784H219.742ZM280.808 156.016H272.36V102.704H280.808V156.016ZM231.016 149.04V141.872H269.608V149.04H231.016ZM258.536 118.896C258.536 116.378 257.789 114.416 256.296 113.008C254.803 111.557 252.947 110.832 250.728 110.832C248.509 110.832 246.653 111.557 245.16 113.008C243.667 114.416 242.92 116.378 242.92 118.896C242.92 121.413 243.667 123.397 245.16 124.848C246.653 126.256 248.509 126.96 250.728 126.96C252.947 126.96 254.803 126.256 256.296 124.848C257.789 123.397 258.536 121.413 258.536 118.896ZM234.728 118.896C234.728 116.634 235.112 114.586 235.88 112.752C236.691 110.874 237.8 109.296 239.208 108.016C240.659 106.693 242.365 105.669 244.328 104.944C246.291 104.218 248.424 103.856 250.728 103.856C253.032 103.856 255.165 104.218 257.128 104.944C259.091 105.669 260.776 106.693 262.184 108.016C263.635 109.296 264.744 110.874 265.512 112.752C266.323 114.586 266.728 116.634 266.728 118.896C266.728 121.157 266.323 123.226 265.512 125.104C264.744 126.938 263.635 128.517 262.184 129.84C260.776 131.12 259.091 132.122 257.128 132.848C255.165 133.573 253.032 133.936 250.728 133.936C248.424 133.936 246.291 133.573 244.328 132.848C242.365 132.122 240.659 131.12 239.208 129.84C237.8 128.517 236.691 126.938 235.88 125.104C235.112 123.226 234.728 121.157 234.728 118.896ZM349.478 102.704H357.926V156.016H349.478V102.704ZM308.71 122.224C308.71 119.92 309.094 117.786 309.862 115.824C310.672 113.818 311.803 112.09 313.254 110.64C314.704 109.146 316.454 107.994 318.502 107.184C320.55 106.33 322.832 105.904 325.35 105.904C327.867 105.904 330.15 106.33 332.198 107.184C334.246 107.994 335.995 109.146 337.446 110.64C338.896 112.09 340.006 113.818 340.774 115.824C341.584 117.786 341.99 119.92 341.99 122.224C341.99 124.528 341.584 126.682 340.774 128.688C340.006 130.65 338.896 132.378 337.446 133.872C335.995 135.322 334.246 136.474 332.198 137.328C330.15 138.138 327.867 138.544 325.35 138.544C322.832 138.544 320.55 138.138 318.502 137.328C316.454 136.474 314.704 135.322 313.254 133.872C311.803 132.378 310.672 130.65 309.862 128.688C309.094 126.682 308.71 124.528 308.71 122.224ZM333.542 122.224C333.542 120.944 333.371 119.749 333.03 118.64C332.688 117.53 332.176 116.57 331.494 115.76C330.811 114.906 329.958 114.245 328.934 113.776C327.91 113.306 326.715 113.072 325.35 113.072C323.984 113.072 322.79 113.306 321.766 113.776C320.742 114.245 319.888 114.906 319.206 115.76C318.523 116.57 318.011 117.53 317.67 118.64C317.328 119.749 317.158 120.944 317.158 122.224C317.158 123.504 317.328 124.698 317.67 125.808C318.011 126.917 318.523 127.898 319.206 128.752C319.888 129.562 320.742 130.202 321.766 130.672C322.79 131.141 323.984 131.376 325.35 131.376C326.715 131.376 327.91 131.141 328.934 130.672C329.958 130.202 330.811 129.562 331.494 128.752C332.176 127.898 332.688 126.917 333.03 125.808C333.371 124.698 333.542 123.504 333.542 122.224ZM365.872 122.224C365.872 119.92 366.256 117.786 367.024 115.824C367.834 113.818 368.965 112.09 370.416 110.64C371.866 109.146 373.616 107.994 375.664 107.184C377.712 106.33 379.994 105.904 382.512 105.904C385.029 105.904 387.312 106.33 389.36 107.184C391.408 107.994 393.157 109.146 394.608 110.64C396.058 112.09 397.168 113.818 397.936 115.824C398.746 117.786 399.152 119.92 399.152 122.224C399.152 124.528 398.746 126.682 397.936 128.688C397.168 130.65 396.058 132.378 394.608 133.872C393.157 135.322 391.408 136.474 389.36 137.328C387.312 138.138 385.029 138.544 382.512 138.544C379.994 138.544 377.712 138.138 375.664 137.328C373.616 136.474 371.866 135.322 370.416 133.872C368.965 132.378 367.834 130.65 367.024 128.688C366.256 126.682 365.872 124.528 365.872 122.224ZM422 118.768H413.744V128.88H422V136.048H413.744V156.016H405.296V102.704H413.744V111.6H422V118.768ZM390.704 122.224C390.704 120.944 390.533 119.749 390.192 118.64C389.85 117.53 389.338 116.57 388.656 115.76C387.973 114.906 387.12 114.245 386.096 113.776C385.072 113.306 383.877 113.072 382.512 113.072C381.146 113.072 379.952 113.306 378.928 113.776C377.904 114.245 377.05 114.906 376.368 115.76C375.685 116.57 375.173 117.53 374.832 118.64C374.49 119.749 374.32 120.944 374.32 122.224C374.32 123.504 374.49 124.698 374.832 125.808C375.173 126.917 375.685 127.898 376.368 128.752C377.05 129.562 377.904 130.202 378.928 130.672C379.952 131.141 381.146 131.376 382.512 131.376C383.877 131.376 385.072 131.141 386.096 130.672C387.12 130.202 387.973 129.562 388.656 128.752C389.338 127.898 389.85 126.917 390.192 125.808C390.533 124.698 390.704 123.504 390.704 122.224ZM465.978 102.704H474.426V156.016H465.978V102.704ZM456.186 105.584V144.944H447.738V112.752H426.618V105.584H456.186Z" fill="white"/>
</svg>
