<svg width="128" height="61" viewBox="0 0 128 61" fill="none" xmlns="http://www.w3.org/2000/svg">
<path d="M3.3501 38.3496V2.34961H29.3749L33.3501 8.98119V38.3496H3.3501Z" fill="#3C5E9B" stroke="#3C5E9B" stroke-width="0.7"/>
<path d="M0.350098 36.3496V0.349609H26.3749L30.3501 6.98119V36.3496H0.350098Z" fill="white"/>
<path d="M30.3501 6.98119V36.3496H0.350098V0.349609H26.3749M30.3501 6.98119L26.3749 0.349609M30.3501 6.98119H25.4321L26.3749 0.349609" stroke="#3C5E9B" stroke-width="0.7"/>
<rect x="4.31338" y="13.9994" width="20.8" height="15.45" fill="#FAD1D1" stroke="#3C5E9B" stroke-width="0.7"/>
<path d="M9.38307 22.1994L4.94092 28.8494H24.4864L17.3789 18.3994L12.9368 25.0494L9.38307 22.1994Z" fill="#F79887" stroke="#3C5E9B" stroke-width="0.7"/>
<path d="M8.84961 16.8496C9.74518 16.8496 10.4551 17.5536 10.4551 18.4004C10.4549 19.247 9.74504 19.9502 8.84961 19.9502C7.95439 19.95 7.24534 19.2468 7.24512 18.4004C7.24512 17.5538 7.95425 16.8498 8.84961 16.8496Z" fill="#CFD897" stroke="#3C5E9B" stroke-width="0.7"/>
<path d="M3.02097 46.4696C3.30897 46.4696 3.56764 46.5149 3.79697 46.6056C4.03164 46.6909 4.22897 46.8136 4.38897 46.9736C4.55431 47.1336 4.67964 47.3283 4.76497 47.5576C4.85564 47.7869 4.90097 48.0429 4.90097 48.3256V49.6936C4.90097 49.9763 4.85564 50.2323 4.76497 50.4616C4.67964 50.6909 4.55431 50.8856 4.38897 51.0456C4.22897 51.2109 4.03164 51.3363 3.79697 51.4216C3.56764 51.5123 3.30897 51.5576 3.02097 51.5576H2.70097C2.40764 51.5576 2.13831 51.5123 1.89297 51.4216V53.2936H0.740973V46.4696H3.02097ZM1.89297 47.6136V49.6616C1.89297 49.8803 1.95964 50.0589 2.09297 50.1976C2.22631 50.3363 2.39964 50.4056 2.61297 50.4056H3.02097C3.23431 50.4056 3.41031 50.3363 3.54897 50.1976C3.68764 50.0589 3.75697 49.8803 3.75697 49.6616V48.3576C3.75697 48.1389 3.68764 47.9603 3.54897 47.8216C3.41031 47.6829 3.23431 47.6136 3.02097 47.6136H1.89297ZM5.49822 48.2776C5.49822 48.0323 5.54356 47.8003 5.63422 47.5816C5.73022 47.3629 5.85556 47.1709 6.01022 47.0056C6.16489 46.8403 6.34089 46.7096 6.53822 46.6136C6.73556 46.5176 6.93556 46.4696 7.13822 46.4696H8.27422C8.53556 46.4696 8.76756 46.5256 8.97022 46.6376C9.17289 46.7443 9.34356 46.8829 9.48222 47.0536C9.62089 47.2243 9.72756 47.4163 9.80222 47.6296C9.87689 47.8376 9.91422 48.0403 9.91422 48.2376V49.5256H6.67422V49.7976C6.67422 50.0376 6.74089 50.2083 6.87422 50.3096C7.01289 50.4056 7.19156 50.4536 7.41022 50.4536H9.73822V51.5736H7.14622C6.92222 51.5736 6.70889 51.5283 6.50622 51.4376C6.30889 51.3523 6.13556 51.2323 5.98622 51.0776C5.83689 50.9229 5.71689 50.7389 5.62622 50.5256C5.54089 50.3123 5.49822 50.0803 5.49822 49.8296V48.2776ZM6.69022 48.5816H8.75422V48.5256C8.75422 48.2696 8.68756 48.0563 8.55422 47.8856C8.42089 47.7149 8.24222 47.6296 8.01822 47.6296H7.39422C7.28756 47.6296 7.19156 47.6536 7.10622 47.7016C7.02089 47.7496 6.94622 47.8163 6.88222 47.9016C6.82356 47.9816 6.77556 48.0776 6.73822 48.1896C6.70622 48.2963 6.69022 48.4083 6.69022 48.5256V48.5816ZM14.8729 51.5576H13.5529L11.8329 49.6216V51.5576H10.6569V44.7496H11.8329V48.0776L13.4569 46.4696H14.8409L12.3929 48.8216L14.8729 51.5576ZM17.4415 46.4696C17.7349 46.4696 17.9962 46.5149 18.2255 46.6056C18.4602 46.6909 18.6575 46.8136 18.8175 46.9736C18.9829 47.1336 19.1082 47.3283 19.1935 47.5576C19.2789 47.7869 19.3215 48.0429 19.3215 48.3256V49.6936C19.3215 49.9763 19.2789 50.2323 19.1935 50.4616C19.1082 50.6909 18.9829 50.8856 18.8175 51.0456C18.6575 51.2109 18.4602 51.3363 18.2255 51.4216C17.9962 51.5123 17.7349 51.5576 17.4415 51.5576H17.0335C16.7455 51.5576 16.4842 51.5123 16.2495 51.4216C16.0202 51.3363 15.8229 51.2109 15.6575 51.0456C15.4975 50.8856 15.3749 50.6909 15.2895 50.4616C15.2042 50.2323 15.1615 49.9763 15.1615 49.6936V48.3256C15.1615 48.0429 15.2042 47.7869 15.2895 47.5576C15.3749 47.3283 15.4975 47.1336 15.6575 46.9736C15.8229 46.8136 16.0202 46.6909 16.2495 46.6056C16.4842 46.5149 16.7455 46.4696 17.0335 46.4696H17.4415ZM17.0335 47.6136C16.8255 47.6136 16.6495 47.6829 16.5055 47.8216C16.3669 47.9603 16.2975 48.1389 16.2975 48.3576V49.6616C16.2975 49.8803 16.3669 50.0589 16.5055 50.1976C16.6495 50.3363 16.8255 50.4056 17.0335 50.4056H17.4415C17.6549 50.4056 17.8309 50.3363 17.9695 50.1976C18.1082 50.0589 18.1775 49.8803 18.1775 49.6616V48.3576C18.1775 48.1389 18.1082 47.9603 17.9695 47.8216C17.8309 47.6829 17.6549 47.6136 17.4415 47.6136H17.0335ZM20.1033 51.7896V50.6376H21.2873V51.7896H20.1033ZM23.1913 45.9176H22.0873V44.7496H23.1913V45.9176ZM21.1193 52.2216H21.3273C21.5567 52.2216 21.7353 52.1523 21.8633 52.0136C21.9913 51.8749 22.0553 51.6963 22.0553 51.4776V46.4696H23.2073V51.4376C23.2073 51.7203 23.17 51.9763 23.0953 52.2056C23.026 52.4349 22.914 52.6296 22.7593 52.7896C22.61 52.9496 22.4153 53.0723 22.1753 53.1576C21.9407 53.2483 21.658 53.2936 21.3273 53.2936H21.1193V52.2216ZM26.2866 46.4696C26.5746 46.4696 26.8333 46.5149 27.0626 46.6056C27.2973 46.6909 27.4946 46.8136 27.6546 46.9736C27.8199 47.1336 27.9453 47.3283 28.0306 47.5576C28.1213 47.7869 28.1666 48.0429 28.1666 48.3256V49.6936C28.1666 49.9763 28.1213 50.2323 28.0306 50.4616C27.9453 50.6909 27.8199 50.8856 27.6546 51.0456C27.4946 51.2109 27.2973 51.3363 27.0626 51.4216C26.8333 51.5123 26.5746 51.5576 26.2866 51.5576H25.9666C25.6733 51.5576 25.4039 51.5123 25.1586 51.4216V53.2936H24.0066V46.4696H26.2866ZM25.1586 47.6136V49.6616C25.1586 49.8803 25.2253 50.0589 25.3586 50.1976C25.4919 50.3363 25.6653 50.4056 25.8786 50.4056H26.2866C26.4999 50.4056 26.6759 50.3363 26.8146 50.1976C26.9533 50.0589 27.0226 49.8803 27.0226 49.6616V48.3576C27.0226 48.1389 26.9533 47.9603 26.8146 47.8216C26.6759 47.6829 26.4999 47.6136 26.2866 47.6136H25.1586ZM32.9638 46.4696V51.5656C32.9638 51.8376 32.9238 52.0776 32.8438 52.2856C32.7638 52.4989 32.6518 52.6803 32.5078 52.8296C32.3692 52.9789 32.1985 53.0909 31.9958 53.1656C31.7985 53.2456 31.5798 53.2856 31.3398 53.2856H29.0518V52.1736H31.1558C31.3585 52.1736 31.5292 52.1096 31.6678 51.9816C31.8065 51.8589 31.8758 51.6856 31.8758 51.4616V51.3976H30.3878C30.1638 51.3976 29.9532 51.3576 29.7558 51.2776C29.5585 51.2029 29.3852 51.0883 29.2358 50.9336C29.0918 50.7843 28.9772 50.5976 28.8918 50.3736C28.8065 50.1496 28.7638 49.8909 28.7638 49.5976V48.2696C28.7638 47.9763 28.8065 47.7176 28.8918 47.4936C28.9772 47.2696 29.0918 47.0829 29.2358 46.9336C29.3852 46.7789 29.5585 46.6643 29.7558 46.5896C29.9532 46.5096 30.1638 46.4696 30.3878 46.4696H32.9638ZM31.8678 47.5816H30.6358C30.5345 47.5816 30.4385 47.6029 30.3478 47.6456C30.2625 47.6883 30.1852 47.7469 30.1158 47.8216C30.0518 47.8963 30.0012 47.9816 29.9638 48.0776C29.9265 48.1736 29.9078 48.2776 29.9078 48.3896V49.4696C29.9078 49.5816 29.9265 49.6883 29.9638 49.7896C30.0012 49.8856 30.0518 49.9709 30.1158 50.0456C30.1852 50.1203 30.2625 50.1789 30.3478 50.2216C30.4385 50.2643 30.5345 50.2856 30.6358 50.2856H31.8678V47.5816Z" fill="#3C5E9B"/>
<path d="M50.3501 38.3496V2.34961H76.3749L80.3501 8.98119V38.3496H50.3501Z" fill="#3C5E9B" stroke="#3C5E9B" stroke-width="0.7"/>
<path d="M47.3501 36.3496V0.349609H73.3749L77.3501 6.98119V36.3496H47.3501Z" fill="white"/>
<path d="M77.3501 6.98119V36.3496H47.3501V0.349609H73.3749M77.3501 6.98119L73.3749 0.349609M77.3501 6.98119H72.4321L73.3749 0.349609" stroke="#3C5E9B" stroke-width="0.7"/>
<rect x="51.3134" y="13.9994" width="20.8" height="15.45" fill="#FAD1D1" stroke="#3C5E9B" stroke-width="0.7"/>
<path d="M56.3831 22.1994L51.9409 28.8494H71.4864L64.3789 18.3994L59.9368 25.0494L56.3831 22.1994Z" fill="#F79887" stroke="#3C5E9B" stroke-width="0.7"/>
<path d="M55.8496 16.8496C56.7452 16.8496 57.4551 17.5536 57.4551 18.4004C57.4549 19.247 56.745 19.9502 55.8496 19.9502C54.9544 19.95 54.2453 19.2468 54.2451 18.4004C54.2451 17.5538 54.9542 16.8498 55.8496 16.8496Z" fill="#CFD897" stroke="#3C5E9B" stroke-width="0.7"/>
<path d="M52.4025 46.4696C52.6958 46.4696 52.9571 46.5149 53.1865 46.6056C53.4211 46.6909 53.6185 46.8136 53.7785 46.9736C53.9438 47.1336 54.0691 47.3283 54.1545 47.5576C54.2398 47.7869 54.2825 48.0429 54.2825 48.3256V49.6936C54.2825 49.9763 54.2398 50.2323 54.1545 50.4616C54.0691 50.6909 53.9438 50.8856 53.7785 51.0456C53.6185 51.2109 53.4211 51.3363 53.1865 51.4216C52.9571 51.5123 52.6958 51.5576 52.4025 51.5576H51.9945C51.7065 51.5576 51.4451 51.5123 51.2105 51.4216C50.9811 51.3363 50.7838 51.2109 50.6185 51.0456C50.4585 50.8856 50.3358 50.6909 50.2505 50.4616C50.1651 50.2323 50.1225 49.9763 50.1225 49.6936V48.3256C50.1225 48.0429 50.1651 47.7869 50.2505 47.5576C50.3358 47.3283 50.4585 47.1336 50.6185 46.9736C50.7838 46.8136 50.9811 46.6909 51.2105 46.6056C51.4451 46.5149 51.7065 46.4696 51.9945 46.4696H52.4025ZM51.9945 47.6136C51.7865 47.6136 51.6105 47.6829 51.4665 47.8216C51.3278 47.9603 51.2585 48.1389 51.2585 48.3576V49.6616C51.2585 49.8803 51.3278 50.0589 51.4665 50.1976C51.6105 50.3363 51.7865 50.4056 51.9945 50.4056H52.4025C52.6158 50.4056 52.7918 50.3363 52.9305 50.1976C53.0691 50.0589 53.1385 49.8803 53.1385 49.6616V48.3576C53.1385 48.1389 53.0691 47.9603 52.9305 47.8216C52.7918 47.6829 52.6158 47.6136 52.4025 47.6136H51.9945ZM56.7683 51.5576C56.4803 51.5576 56.219 51.5123 55.9843 51.4216C55.755 51.3363 55.5576 51.2109 55.3923 51.0456C55.2323 50.8856 55.1096 50.6909 55.0243 50.4616C54.939 50.2323 54.8963 49.9763 54.8963 49.6936V48.3256C54.8963 48.0429 54.939 47.7869 55.0243 47.5576C55.1096 47.3283 55.2323 47.1336 55.3923 46.9736C55.5576 46.8136 55.755 46.6909 55.9843 46.6056C56.219 46.5149 56.4803 46.4696 56.7683 46.4696H57.1763C57.4536 46.4696 57.7043 46.5096 57.9283 46.5896V44.7496H59.0563V51.5576H56.7683ZM57.9283 50.4056V48.3576C57.9283 48.1389 57.8563 47.9603 57.7123 47.8216C57.5683 47.6829 57.3896 47.6136 57.1763 47.6136H56.7683C56.555 47.6136 56.3736 47.6829 56.2243 47.8216C56.075 47.9603 56.0003 48.1389 56.0003 48.3576V49.6616C56.0003 49.8803 56.075 50.0589 56.2243 50.1976C56.3736 50.3363 56.555 50.4056 56.7683 50.4056H57.9283ZM59.6541 48.0776C59.6701 47.8643 59.7154 47.6616 59.7901 47.4696C59.8701 47.2776 59.9821 47.1069 60.1261 46.9576C60.2754 46.8083 60.4594 46.6909 60.6781 46.6056C60.8968 46.5149 61.1501 46.4696 61.4381 46.4696H62.0381C62.3368 46.4696 62.5981 46.5203 62.8221 46.6216C63.0461 46.7176 63.2301 46.8483 63.3741 47.0136C63.5234 47.1789 63.6354 47.3656 63.7101 47.5736C63.7848 47.7816 63.8221 47.9923 63.8221 48.2056V51.5576H60.9821C60.7581 51.5576 60.5608 51.5149 60.3901 51.4296C60.2194 51.3496 60.0754 51.2403 59.9581 51.1016C59.8408 50.9629 59.7528 50.8003 59.6941 50.6136C59.6354 50.4269 59.6061 50.2296 59.6061 50.0216C59.6061 49.8136 59.6354 49.6189 59.6941 49.4376C59.7581 49.2563 59.8461 49.1016 59.9581 48.9736C60.0754 48.8403 60.2168 48.7363 60.3821 48.6616C60.5528 48.5869 60.7448 48.5496 60.9581 48.5496H62.6701V48.4456C62.6701 48.3283 62.6594 48.2189 62.6381 48.1176C62.6221 48.0109 62.5848 47.9203 62.5261 47.8456C62.4728 47.7709 62.3928 47.7123 62.2861 47.6696C62.1794 47.6269 62.0381 47.6056 61.8621 47.6056H61.6141C61.3421 47.6056 61.1501 47.6456 61.0381 47.7256C60.9261 47.8003 60.8488 47.9176 60.8061 48.0776H59.6541ZM60.6781 50.0216C60.6781 50.1923 60.7128 50.3176 60.7821 50.3976C60.8568 50.4829 60.9368 50.5256 61.0221 50.5256H62.6701V49.5096H61.0221C60.9368 49.5096 60.8568 49.5523 60.7821 49.6376C60.7128 49.7229 60.6781 49.8509 60.6781 50.0216ZM64.6658 51.7896V50.6376H65.8498V51.7896H64.6658ZM67.7538 45.9176H66.6498V44.7496H67.7538V45.9176ZM65.6818 52.2216H65.8898C66.1192 52.2216 66.2978 52.1523 66.4258 52.0136C66.5538 51.8749 66.6178 51.6963 66.6178 51.4776V46.4696H67.7698V51.4376C67.7698 51.7203 67.7325 51.9763 67.6578 52.2056C67.5885 52.4349 67.4765 52.6296 67.3218 52.7896C67.1725 52.9496 66.9778 53.0723 66.7378 53.1576C66.5032 53.2483 66.2205 53.2936 65.8898 53.2936H65.6818V52.2216ZM70.8491 46.4696C71.1371 46.4696 71.3958 46.5149 71.6251 46.6056C71.8598 46.6909 72.0571 46.8136 72.2171 46.9736C72.3824 47.1336 72.5078 47.3283 72.5931 47.5576C72.6838 47.7869 72.7291 48.0429 72.7291 48.3256V49.6936C72.7291 49.9763 72.6838 50.2323 72.5931 50.4616C72.5078 50.6909 72.3824 50.8856 72.2171 51.0456C72.0571 51.2109 71.8598 51.3363 71.6251 51.4216C71.3958 51.5123 71.1371 51.5576 70.8491 51.5576H70.5291C70.2358 51.5576 69.9664 51.5123 69.7211 51.4216V53.2936H68.5691V46.4696H70.8491ZM69.7211 47.6136V49.6616C69.7211 49.8803 69.7878 50.0589 69.9211 50.1976C70.0544 50.3363 70.2278 50.4056 70.4411 50.4056H70.8491C71.0624 50.4056 71.2384 50.3363 71.3771 50.1976C71.5158 50.0589 71.5851 49.8803 71.5851 49.6616V48.3576C71.5851 48.1389 71.5158 47.9603 71.3771 47.8216C71.2384 47.6829 71.0624 47.6136 70.8491 47.6136H69.7211ZM77.5263 46.4696V51.5656C77.5263 51.8376 77.4863 52.0776 77.4063 52.2856C77.3263 52.4989 77.2143 52.6803 77.0703 52.8296C76.9317 52.9789 76.761 53.0909 76.5583 53.1656C76.361 53.2456 76.1423 53.2856 75.9023 53.2856H73.6143V52.1736H75.7183C75.921 52.1736 76.0917 52.1096 76.2303 51.9816C76.369 51.8589 76.4383 51.6856 76.4383 51.4616V51.3976H74.9503C74.7263 51.3976 74.5157 51.3576 74.3183 51.2776C74.121 51.2029 73.9477 51.0883 73.7983 50.9336C73.6543 50.7843 73.5397 50.5976 73.4543 50.3736C73.369 50.1496 73.3263 49.8909 73.3263 49.5976V48.2696C73.3263 47.9763 73.369 47.7176 73.4543 47.4936C73.5397 47.2696 73.6543 47.0829 73.7983 46.9336C73.9477 46.7789 74.121 46.6643 74.3183 46.5896C74.5157 46.5096 74.7263 46.4696 74.9503 46.4696H77.5263ZM76.4303 47.5816H75.1983C75.097 47.5816 75.001 47.6029 74.9103 47.6456C74.825 47.6883 74.7477 47.7469 74.6783 47.8216C74.6143 47.8963 74.5637 47.9816 74.5263 48.0776C74.489 48.1736 74.4703 48.2776 74.4703 48.3896V49.4696C74.4703 49.5816 74.489 49.6883 74.5263 49.7896C74.5637 49.8856 74.6143 49.9709 74.6783 50.0456C74.7477 50.1203 74.825 50.1789 74.9103 50.2216C75.001 50.2643 75.097 50.2856 75.1983 50.2856H76.4303V47.5816Z" fill="#3C5E9B"/>
<path d="M97.3501 38.3496V2.34961H123.375L127.35 8.98119V38.3496H97.3501Z" fill="#3C5E9B" stroke="#3C5E9B" stroke-width="0.7"/>
<path d="M94.3501 36.3496V0.349609H120.375L124.35 6.98119V36.3496H94.3501Z" fill="white"/>
<path d="M124.35 6.98119V36.3496H94.3501V0.349609H120.375M124.35 6.98119L120.375 0.349609M124.35 6.98119H119.432L120.375 0.349609" stroke="#3C5E9B" stroke-width="0.7"/>
<rect x="98.3134" y="13.9994" width="20.8" height="15.45" fill="#FAD1D1" stroke="#3C5E9B" stroke-width="0.7"/>
<path d="M103.383 22.1994L98.9409 28.8494H118.486L111.379 18.3994L106.937 25.0494L103.383 22.1994Z" fill="#F79887" stroke="#3C5E9B" stroke-width="0.7"/>
<path d="M102.85 16.8496C103.745 16.8496 104.455 17.5536 104.455 18.4004C104.455 19.247 103.745 19.9502 102.85 19.9502C101.954 19.95 101.245 19.2468 101.245 18.4004C101.245 17.5538 101.954 16.8498 102.85 16.8496Z" fill="#CFD897" stroke="#3C5E9B" stroke-width="0.7"/>
<path d="M98.2479 51.5576H96.9279L95.2079 49.6216V51.5576H94.0319V44.7496H95.2079V48.0776L96.8319 46.4696H98.2159L95.7679 48.8216L98.2479 51.5576ZM100.817 46.4696C101.11 46.4696 101.371 46.5149 101.601 46.6056C101.835 46.6909 102.033 46.8136 102.193 46.9736C102.358 47.1336 102.483 47.3283 102.569 47.5576C102.654 47.7869 102.697 48.0429 102.697 48.3256V49.6936C102.697 49.9763 102.654 50.2323 102.569 50.4616C102.483 50.6909 102.358 50.8856 102.193 51.0456C102.033 51.2109 101.835 51.3363 101.601 51.4216C101.371 51.5123 101.11 51.5576 100.817 51.5576H100.409C100.121 51.5576 99.8592 51.5123 99.6245 51.4216C99.3952 51.3363 99.1979 51.2109 99.0325 51.0456C98.8725 50.8856 98.7499 50.6909 98.6645 50.4616C98.5792 50.2323 98.5365 49.9763 98.5365 49.6936V48.3256C98.5365 48.0429 98.5792 47.7869 98.6645 47.5576C98.7499 47.3283 98.8725 47.1336 99.0325 46.9736C99.1979 46.8136 99.3952 46.6909 99.6245 46.6056C99.8592 46.5149 100.121 46.4696 100.409 46.4696H100.817ZM100.409 47.6136C100.201 47.6136 100.025 47.6829 99.8805 47.8216C99.7419 47.9603 99.6725 48.1389 99.6725 48.3576V49.6616C99.6725 49.8803 99.7419 50.0589 99.8805 50.1976C100.025 50.3363 100.201 50.4056 100.409 50.4056H100.817C101.03 50.4056 101.206 50.3363 101.345 50.1976C101.483 50.0589 101.553 49.8803 101.553 49.6616V48.3576C101.553 48.1389 101.483 47.9603 101.345 47.8216C101.206 47.6829 101.03 47.6136 100.817 47.6136H100.409ZM104.622 51.5576H103.446V46.4696H104.622V51.5576ZM104.622 45.9176H103.446V44.7496H104.622V45.9176ZM107.581 50.4056C107.741 50.4056 107.877 50.3683 107.989 50.2936C108.101 50.2189 108.176 50.1123 108.213 49.9736H109.397C109.338 50.4589 109.152 50.8429 108.837 51.1256C108.528 51.4136 108.109 51.5576 107.581 51.5576H107.173C106.885 51.5576 106.624 51.5123 106.389 51.4216C106.16 51.3363 105.962 51.2109 105.797 51.0456C105.637 50.8856 105.512 50.6909 105.421 50.4616C105.336 50.2323 105.293 49.9763 105.293 49.6936V48.3256C105.293 48.0429 105.336 47.7869 105.421 47.5576C105.512 47.3283 105.637 47.1336 105.797 46.9736C105.962 46.8136 106.16 46.6909 106.389 46.6056C106.624 46.5149 106.885 46.4696 107.173 46.4696H107.581C108.12 46.4696 108.546 46.6136 108.861 46.9016C109.176 47.1843 109.357 47.5763 109.405 48.0776H108.221C108.184 47.9336 108.109 47.8216 107.997 47.7416C107.89 47.6563 107.752 47.6136 107.581 47.6136H107.173C106.96 47.6136 106.784 47.6829 106.645 47.8216C106.506 47.9603 106.437 48.1389 106.437 48.3576V49.6616C106.437 49.8803 106.506 50.0589 106.645 50.1976C106.784 50.3363 106.96 50.4056 107.173 50.4056H107.581ZM109.881 48.0776C109.897 47.8643 109.942 47.6616 110.017 47.4696C110.097 47.2776 110.209 47.1069 110.353 46.9576C110.502 46.8083 110.686 46.6909 110.905 46.6056C111.123 46.5149 111.377 46.4696 111.665 46.4696H112.265C112.563 46.4696 112.825 46.5203 113.049 46.6216C113.273 46.7176 113.457 46.8483 113.601 47.0136C113.75 47.1789 113.862 47.3656 113.937 47.5736C114.011 47.7816 114.049 47.9923 114.049 48.2056V51.5576H111.209C110.985 51.5576 110.787 51.5149 110.617 51.4296C110.446 51.3496 110.302 51.2403 110.185 51.1016C110.067 50.9629 109.979 50.8003 109.921 50.6136C109.862 50.4269 109.833 50.2296 109.833 50.0216C109.833 49.8136 109.862 49.6189 109.921 49.4376C109.985 49.2563 110.073 49.1016 110.185 48.9736C110.302 48.8403 110.443 48.7363 110.609 48.6616C110.779 48.5869 110.971 48.5496 111.185 48.5496H112.897V48.4456C112.897 48.3283 112.886 48.2189 112.865 48.1176C112.849 48.0109 112.811 47.9203 112.753 47.8456C112.699 47.7709 112.619 47.7123 112.513 47.6696C112.406 47.6269 112.265 47.6056 112.089 47.6056H111.841C111.569 47.6056 111.377 47.6456 111.265 47.7256C111.153 47.8003 111.075 47.9176 111.033 48.0776H109.881ZM110.905 50.0216C110.905 50.1923 110.939 50.3176 111.009 50.3976C111.083 50.4829 111.163 50.5256 111.249 50.5256H112.897V49.5096H111.249C111.163 49.5096 111.083 49.5523 111.009 49.6376C110.939 49.7229 110.905 49.8509 110.905 50.0216ZM114.892 51.7896V50.6376H116.076V51.7896H114.892ZM117.98 45.9176H116.876V44.7496H117.98V45.9176ZM115.908 52.2216H116.116C116.346 52.2216 116.524 52.1523 116.652 52.0136C116.78 51.8749 116.844 51.6963 116.844 51.4776V46.4696H117.996V51.4376C117.996 51.7203 117.959 51.9763 117.884 52.2056C117.815 52.4349 117.703 52.6296 117.548 52.7896C117.399 52.9496 117.204 53.0723 116.964 53.1576C116.73 53.2483 116.447 53.2936 116.116 53.2936H115.908V52.2216ZM121.076 46.4696C121.364 46.4696 121.622 46.5149 121.852 46.6056C122.086 46.6909 122.284 46.8136 122.444 46.9736C122.609 47.1336 122.734 47.3283 122.82 47.5576C122.91 47.7869 122.956 48.0429 122.956 48.3256V49.6936C122.956 49.9763 122.91 50.2323 122.82 50.4616C122.734 50.6909 122.609 50.8856 122.444 51.0456C122.284 51.2109 122.086 51.3363 121.852 51.4216C121.622 51.5123 121.364 51.5576 121.076 51.5576H120.756C120.462 51.5576 120.193 51.5123 119.948 51.4216V53.2936H118.796V46.4696H121.076ZM119.948 47.6136V49.6616C119.948 49.8803 120.014 50.0589 120.148 50.1976C120.281 50.3363 120.454 50.4056 120.668 50.4056H121.076C121.289 50.4056 121.465 50.3363 121.604 50.1976C121.742 50.0589 121.812 49.8803 121.812 49.6616V48.3576C121.812 48.1389 121.742 47.9603 121.604 47.8216C121.465 47.6829 121.289 47.6136 121.076 47.6136H119.948ZM127.753 46.4696V51.5656C127.753 51.8376 127.713 52.0776 127.633 52.2856C127.553 52.4989 127.441 52.6803 127.297 52.8296C127.158 52.9789 126.988 53.0909 126.785 53.1656C126.588 53.2456 126.369 53.2856 126.129 53.2856H123.841V52.1736H125.945C126.148 52.1736 126.318 52.1096 126.457 51.9816C126.596 51.8589 126.665 51.6856 126.665 51.4616V51.3976H125.177C124.953 51.3976 124.742 51.3576 124.545 51.2776C124.348 51.2029 124.174 51.0883 124.025 50.9336C123.881 50.7843 123.766 50.5976 123.681 50.3736C123.596 50.1496 123.553 49.8909 123.553 49.5976V48.2696C123.553 47.9763 123.596 47.7176 123.681 47.4936C123.766 47.2696 123.881 47.0829 124.025 46.9336C124.174 46.7789 124.348 46.6643 124.545 46.5896C124.742 46.5096 124.953 46.4696 125.177 46.4696H127.753ZM126.657 47.5816H125.425C125.324 47.5816 125.228 47.6029 125.137 47.6456C125.052 47.6883 124.974 47.7469 124.905 47.8216C124.841 47.8963 124.79 47.9816 124.753 48.0776C124.716 48.1736 124.697 48.2776 124.697 48.3896V49.4696C124.697 49.5816 124.716 49.6883 124.753 49.7896C124.79 49.8856 124.841 49.9709 124.905 50.0456C124.974 50.1203 125.052 50.1789 125.137 50.2216C125.228 50.2643 125.324 50.2856 125.425 50.2856H126.657V47.5816Z" fill="#3C5E9B"/>
</svg>
