<svg width="128" height="61" viewBox="0 0 128 61" fill="none" xmlns="http://www.w3.org/2000/svg">
<path d="M3.3501 38.3496V2.34961H29.3749L33.3501 8.98119V38.3496H3.3501Z" fill="#3C5E9B" stroke="#3C5E9B" stroke-width="0.7"/>
<path d="M0.350098 36.3496V0.349609H26.3749L30.3501 6.98119V36.3496H0.350098Z" fill="white"/>
<path d="M30.3501 6.98119V36.3496H0.350098V0.349609H26.3749M30.3501 6.98119L26.3749 0.349609M30.3501 6.98119H25.4321L26.3749 0.349609" stroke="#3C5E9B" stroke-width="0.7"/>
<rect x="4.31338" y="13.9994" width="20.8" height="15.45" fill="#FAD1D1" stroke="#3C5E9B" stroke-width="0.7"/>
<path d="M9.38307 22.1994L4.94092 28.8494H24.4864L17.3789 18.3994L12.9368 25.0494L9.38307 22.1994Z" fill="#F79887" stroke="#3C5E9B" stroke-width="0.7"/>
<path d="M8.84961 16.8496C9.74518 16.8496 10.4551 17.5536 10.4551 18.4004C10.4549 19.247 9.74504 19.9502 8.84961 19.9502C7.95439 19.95 7.24534 19.2468 7.24512 18.4004C7.24512 17.5538 7.95425 16.8498 8.84961 16.8496Z" fill="#CFD897" stroke="#3C5E9B" stroke-width="0.7"/>
<path d="M6.06666 44.7096C6.32266 44.7096 6.56266 44.7603 6.78666 44.8616C7.01599 44.9576 7.21333 45.0909 7.37866 45.2616C7.54933 45.4269 7.68266 45.6243 7.77866 45.8536C7.87999 46.0776 7.93066 46.3176 7.93066 46.5736V49.6936C7.93066 49.9496 7.87999 50.1896 7.77866 50.4136C7.68266 50.6429 7.54933 50.8403 7.37866 51.0056C7.21333 51.1763 7.01599 51.3096 6.78666 51.4056C6.56266 51.5069 6.32266 51.5576 6.06666 51.5576H5.05066C4.79466 51.5576 4.55199 51.5069 4.32266 51.4056C4.09866 51.3096 3.90133 51.1763 3.73066 51.0056C3.56533 50.8403 3.43466 50.6429 3.33866 50.4136C3.24266 50.1896 3.19466 49.9496 3.19466 49.6936V46.5736C3.19466 46.3176 3.24266 46.0776 3.33866 45.8536C3.43466 45.6243 3.56533 45.4269 3.73066 45.2616C3.90133 45.0909 4.09866 44.9576 4.32266 44.8616C4.55199 44.7603 4.79466 44.7096 5.05066 44.7096H6.06666ZM6.77066 46.7816C6.77066 46.6643 6.74666 46.5549 6.69866 46.4536C6.65599 46.3469 6.59733 46.2563 6.52266 46.1816C6.44799 46.1016 6.35999 46.0403 6.25866 45.9976C6.15733 45.9496 6.04799 45.9256 5.93066 45.9256H5.18666C5.06933 45.9256 4.95999 45.9496 4.85866 45.9976C4.75733 46.0403 4.66666 46.1016 4.58666 46.1816C4.51199 46.2563 4.45333 46.3469 4.41066 46.4536C4.36799 46.5549 4.34666 46.6643 4.34666 46.7816V49.4856C4.34666 49.6029 4.36799 49.7149 4.41066 49.8216C4.45333 49.9229 4.51199 50.0136 4.58666 50.0936C4.66666 50.1683 4.75733 50.2296 4.85866 50.2776C4.95999 50.3203 5.06933 50.3416 5.18666 50.3416H5.93066C6.04799 50.3416 6.15733 50.3203 6.25866 50.2776C6.35999 50.2296 6.44799 50.1683 6.52266 50.0936C6.59733 50.0136 6.65599 49.9229 6.69866 49.8216C6.74666 49.7149 6.77066 49.6029 6.77066 49.4856V46.7816ZM11.5588 44.7096C11.8148 44.7096 12.0548 44.7603 12.2788 44.8616C12.5082 44.9576 12.7055 45.0909 12.8708 45.2616C13.0415 45.4269 13.1748 45.6243 13.2708 45.8536C13.3722 46.0776 13.4228 46.3176 13.4228 46.5736V49.6936C13.4228 49.9496 13.3722 50.1896 13.2708 50.4136C13.1748 50.6429 13.0415 50.8403 12.8708 51.0056C12.7055 51.1763 12.5082 51.3096 12.2788 51.4056C12.0548 51.5069 11.8148 51.5576 11.5588 51.5576H10.5428C10.2868 51.5576 10.0442 51.5069 9.81485 51.4056C9.59085 51.3096 9.39351 51.1763 9.22285 51.0056C9.05751 50.8403 8.92685 50.6429 8.83085 50.4136C8.73485 50.1896 8.68685 49.9496 8.68685 49.6936V46.5736C8.68685 46.3176 8.73485 46.0776 8.83085 45.8536C8.92685 45.6243 9.05751 45.4269 9.22285 45.2616C9.39351 45.0909 9.59085 44.9576 9.81485 44.8616C10.0442 44.7603 10.2868 44.7096 10.5428 44.7096H11.5588ZM12.2628 46.7816C12.2628 46.6643 12.2388 46.5549 12.1908 46.4536C12.1482 46.3469 12.0895 46.2563 12.0148 46.1816C11.9402 46.1016 11.8522 46.0403 11.7508 45.9976C11.6495 45.9496 11.5402 45.9256 11.4228 45.9256H10.6788C10.5615 45.9256 10.4522 45.9496 10.3508 45.9976C10.2495 46.0403 10.1588 46.1016 10.0788 46.1816C10.0042 46.2563 9.94551 46.3469 9.90285 46.4536C9.86018 46.5549 9.83885 46.6643 9.83885 46.7816V49.4856C9.83885 49.6029 9.86018 49.7149 9.90285 49.8216C9.94551 49.9229 10.0042 50.0136 10.0788 50.0936C10.1588 50.1683 10.2495 50.2296 10.3508 50.2776C10.4522 50.3203 10.5615 50.3416 10.6788 50.3416H11.4228C11.5402 50.3416 11.6495 50.3203 11.7508 50.2776C11.8522 50.2296 11.9402 50.1683 12.0148 50.0936C12.0895 50.0136 12.1482 49.9229 12.1908 49.8216C12.2388 49.7149 12.2628 49.6029 12.2628 49.4856V46.7816ZM14.283 45.9896L15.067 44.7496H16.411V51.5576H15.251V45.9896H14.283ZM17.6737 51.7896V50.6376H18.8577V51.7896H17.6737ZM20.7617 45.9176H19.6577V44.7496H20.7617V45.9176ZM18.6897 52.2216H18.8977C19.127 52.2216 19.3057 52.1523 19.4337 52.0136C19.5617 51.8749 19.6257 51.6963 19.6257 51.4776V46.4696H20.7777V51.4376C20.7777 51.7203 20.7403 51.9763 20.6657 52.2056C20.5963 52.4349 20.4843 52.6296 20.3297 52.7896C20.1803 52.9496 19.9857 53.0723 19.7457 53.1576C19.511 53.2483 19.2283 53.2936 18.8977 53.2936H18.6897V52.2216ZM23.8569 46.4696C24.1449 46.4696 24.4036 46.5149 24.6329 46.6056C24.8676 46.6909 25.0649 46.8136 25.2249 46.9736C25.3902 47.1336 25.5156 47.3283 25.6009 47.5576C25.6916 47.7869 25.7369 48.0429 25.7369 48.3256V49.6936C25.7369 49.9763 25.6916 50.2323 25.6009 50.4616C25.5156 50.6909 25.3902 50.8856 25.2249 51.0456C25.0649 51.2109 24.8676 51.3363 24.6329 51.4216C24.4036 51.5123 24.1449 51.5576 23.8569 51.5576H23.5369C23.2436 51.5576 22.9742 51.5123 22.7289 51.4216V53.2936H21.5769V46.4696H23.8569ZM22.7289 47.6136V49.6616C22.7289 49.8803 22.7956 50.0589 22.9289 50.1976C23.0622 50.3363 23.2356 50.4056 23.4489 50.4056H23.8569C24.0702 50.4056 24.2462 50.3363 24.3849 50.1976C24.5236 50.0589 24.5929 49.8803 24.5929 49.6616V48.3576C24.5929 48.1389 24.5236 47.9603 24.3849 47.8216C24.2462 47.6829 24.0702 47.6136 23.8569 47.6136H22.7289ZM30.5342 46.4696V51.5656C30.5342 51.8376 30.4942 52.0776 30.4142 52.2856C30.3342 52.4989 30.2222 52.6803 30.0782 52.8296C29.9395 52.9789 29.7688 53.0909 29.5662 53.1656C29.3688 53.2456 29.1502 53.2856 28.9102 53.2856H26.6222V52.1736H28.7262C28.9288 52.1736 29.0995 52.1096 29.2382 51.9816C29.3768 51.8589 29.4462 51.6856 29.4462 51.4616V51.3976H27.9582C27.7342 51.3976 27.5235 51.3576 27.3262 51.2776C27.1288 51.2029 26.9555 51.0883 26.8062 50.9336C26.6622 50.7843 26.5475 50.5976 26.4622 50.3736C26.3768 50.1496 26.3342 49.8909 26.3342 49.5976V48.2696C26.3342 47.9763 26.3768 47.7176 26.4622 47.4936C26.5475 47.2696 26.6622 47.0829 26.8062 46.9336C26.9555 46.7789 27.1288 46.6643 27.3262 46.5896C27.5235 46.5096 27.7342 46.4696 27.9582 46.4696H30.5342ZM29.4382 47.5816H28.2062C28.1048 47.5816 28.0088 47.6029 27.9182 47.6456C27.8328 47.6883 27.7555 47.7469 27.6862 47.8216C27.6222 47.8963 27.5715 47.9816 27.5342 48.0776C27.4968 48.1736 27.4782 48.2776 27.4782 48.3896V49.4696C27.4782 49.5816 27.4968 49.6883 27.5342 49.7896C27.5715 49.8856 27.6222 49.9709 27.6862 50.0456C27.7555 50.1203 27.8328 50.1789 27.9182 50.2216C28.0088 50.2643 28.1048 50.2856 28.2062 50.2856H29.4382V47.5816Z" fill="#3C5E9B"/>
<path d="M50.3501 38.3496V2.34961H76.3749L80.3501 8.98119V38.3496H50.3501Z" fill="#3C5E9B" stroke="#3C5E9B" stroke-width="0.7"/>
<path d="M47.3501 36.3496V0.349609H73.3749L77.3501 6.98119V36.3496H47.3501Z" fill="white"/>
<path d="M77.3501 6.98119V36.3496H47.3501V0.349609H73.3749M77.3501 6.98119L73.3749 0.349609M77.3501 6.98119H72.4321L73.3749 0.349609" stroke="#3C5E9B" stroke-width="0.7"/>
<rect x="51.3134" y="13.9994" width="20.8" height="15.45" fill="#FAD1D1" stroke="#3C5E9B" stroke-width="0.7"/>
<path d="M56.3831 22.1994L51.9409 28.8494H71.4864L64.3789 18.3994L59.9368 25.0494L56.3831 22.1994Z" fill="#F79887" stroke="#3C5E9B" stroke-width="0.7"/>
<path d="M55.8496 16.8496C56.7452 16.8496 57.4551 17.5536 57.4551 18.4004C57.4549 19.247 56.745 19.9502 55.8496 19.9502C54.9544 19.95 54.2453 19.2468 54.2451 18.4004C54.2451 17.5538 54.9542 16.8498 55.8496 16.8496Z" fill="#CFD897" stroke="#3C5E9B" stroke-width="0.7"/>
<path d="M52.3284 44.7096C52.5844 44.7096 52.8244 44.7603 53.0484 44.8616C53.2777 44.9576 53.475 45.0909 53.6404 45.2616C53.811 45.4269 53.9444 45.6243 54.0404 45.8536C54.1417 46.0776 54.1924 46.3176 54.1924 46.5736V49.6936C54.1924 49.9496 54.1417 50.1896 54.0404 50.4136C53.9444 50.6429 53.811 50.8403 53.6404 51.0056C53.475 51.1763 53.2777 51.3096 53.0484 51.4056C52.8244 51.5069 52.5844 51.5576 52.3284 51.5576H51.3124C51.0564 51.5576 50.8137 51.5069 50.5844 51.4056C50.3604 51.3096 50.163 51.1763 49.9924 51.0056C49.827 50.8403 49.6964 50.6429 49.6004 50.4136C49.5044 50.1896 49.4564 49.9496 49.4564 49.6936V46.5736C49.4564 46.3176 49.5044 46.0776 49.6004 45.8536C49.6964 45.6243 49.827 45.4269 49.9924 45.2616C50.163 45.0909 50.3604 44.9576 50.5844 44.8616C50.8137 44.7603 51.0564 44.7096 51.3124 44.7096H52.3284ZM53.0324 46.7816C53.0324 46.6643 53.0084 46.5549 52.9604 46.4536C52.9177 46.3469 52.859 46.2563 52.7844 46.1816C52.7097 46.1016 52.6217 46.0403 52.5204 45.9976C52.419 45.9496 52.3097 45.9256 52.1924 45.9256H51.4484C51.331 45.9256 51.2217 45.9496 51.1204 45.9976C51.019 46.0403 50.9284 46.1016 50.8484 46.1816C50.7737 46.2563 50.715 46.3469 50.6724 46.4536C50.6297 46.5549 50.6084 46.6643 50.6084 46.7816V49.4856C50.6084 49.6029 50.6297 49.7149 50.6724 49.8216C50.715 49.9229 50.7737 50.0136 50.8484 50.0936C50.9284 50.1683 51.019 50.2296 51.1204 50.2776C51.2217 50.3203 51.331 50.3416 51.4484 50.3416H52.1924C52.3097 50.3416 52.419 50.3203 52.5204 50.2776C52.6217 50.2296 52.7097 50.1683 52.7844 50.0936C52.859 50.0136 52.9177 49.9229 52.9604 49.8216C53.0084 49.7149 53.0324 49.6029 53.0324 49.4856V46.7816ZM57.8206 44.7096C58.0766 44.7096 58.3166 44.7603 58.5406 44.8616C58.7699 44.9576 58.9672 45.0909 59.1326 45.2616C59.3032 45.4269 59.4366 45.6243 59.5326 45.8536C59.6339 46.0776 59.6846 46.3176 59.6846 46.5736V49.6936C59.6846 49.9496 59.6339 50.1896 59.5326 50.4136C59.4366 50.6429 59.3032 50.8403 59.1326 51.0056C58.9672 51.1763 58.7699 51.3096 58.5406 51.4056C58.3166 51.5069 58.0766 51.5576 57.8206 51.5576H56.8046C56.5486 51.5576 56.3059 51.5069 56.0766 51.4056C55.8526 51.3096 55.6552 51.1763 55.4846 51.0056C55.3192 50.8403 55.1886 50.6429 55.0926 50.4136C54.9966 50.1896 54.9486 49.9496 54.9486 49.6936V46.5736C54.9486 46.3176 54.9966 46.0776 55.0926 45.8536C55.1886 45.6243 55.3192 45.4269 55.4846 45.2616C55.6552 45.0909 55.8526 44.9576 56.0766 44.8616C56.3059 44.7603 56.5486 44.7096 56.8046 44.7096H57.8206ZM58.5246 46.7816C58.5246 46.6643 58.5006 46.5549 58.4526 46.4536C58.4099 46.3469 58.3512 46.2563 58.2766 46.1816C58.2019 46.1016 58.1139 46.0403 58.0126 45.9976C57.9112 45.9496 57.8019 45.9256 57.6846 45.9256H56.9406C56.8232 45.9256 56.7139 45.9496 56.6126 45.9976C56.5112 46.0403 56.4206 46.1016 56.3406 46.1816C56.2659 46.2563 56.2072 46.3469 56.1646 46.4536C56.1219 46.5549 56.1006 46.6643 56.1006 46.7816V49.4856C56.1006 49.6029 56.1219 49.7149 56.1646 49.8216C56.2072 49.9229 56.2659 50.0136 56.3406 50.0936C56.4206 50.1683 56.5112 50.2296 56.6126 50.2776C56.7139 50.3203 56.8232 50.3416 56.9406 50.3416H57.6846C57.8019 50.3416 57.9112 50.3203 58.0126 50.2776C58.1139 50.2296 58.2019 50.1683 58.2766 50.0936C58.3512 50.0136 58.4099 49.9229 58.4526 49.8216C58.5006 49.7149 58.5246 49.6029 58.5246 49.4856V46.7816ZM60.3608 50.0456C60.8301 49.6936 61.2808 49.3283 61.7128 48.9496C62.1501 48.5656 62.5688 48.1896 62.9688 47.8216C63.0754 47.7203 63.1661 47.6296 63.2408 47.5496C63.3208 47.4643 63.3848 47.3789 63.4328 47.2936C63.4808 47.2029 63.5154 47.1069 63.5368 47.0056C63.5634 46.8989 63.5768 46.7709 63.5768 46.6216C63.5768 46.5096 63.5554 46.4029 63.5128 46.3016C63.4701 46.2003 63.4114 46.1123 63.3368 46.0376C63.2621 45.9629 63.1768 45.9043 63.0808 45.8616C62.9848 45.8189 62.8808 45.7976 62.7688 45.7976H62.2088C62.0968 45.7976 61.9901 45.8189 61.8888 45.8616C61.7928 45.9043 61.7074 45.9629 61.6328 46.0376C61.5581 46.1123 61.4994 46.2003 61.4568 46.3016C61.4141 46.4029 61.3928 46.5096 61.3928 46.6216V46.8616H60.2968V46.4136C60.2968 46.1683 60.3421 45.9389 60.4328 45.7256C60.5288 45.5069 60.6568 45.3176 60.8168 45.1576C60.9821 44.9976 61.1714 44.8723 61.3848 44.7816C61.6034 44.6856 61.8354 44.6376 62.0808 44.6376H62.9528C63.1981 44.6376 63.4274 44.6856 63.6408 44.7816C63.8594 44.8723 64.0488 44.9976 64.2088 45.1576C64.3741 45.3176 64.5021 45.5069 64.5928 45.7256C64.6888 45.9389 64.7368 46.1683 64.7368 46.4136V46.5656C64.7368 46.7683 64.7261 46.9523 64.7048 47.1176C64.6888 47.2829 64.6541 47.4403 64.6008 47.5896C64.5474 47.7389 64.4701 47.8829 64.3688 48.0216C64.2674 48.1603 64.1368 48.3069 63.9768 48.4616C63.5928 48.8243 63.1928 49.1843 62.7768 49.5416C62.3608 49.8989 61.9394 50.2323 61.5128 50.5416H64.6168V51.5576H60.3608V50.0456ZM65.4119 51.7896V50.6376H66.5959V51.7896H65.4119ZM68.4999 45.9176H67.3959V44.7496H68.4999V45.9176ZM66.4279 52.2216H66.6359C66.8653 52.2216 67.0439 52.1523 67.1719 52.0136C67.2999 51.8749 67.3639 51.6963 67.3639 51.4776V46.4696H68.5159V51.4376C68.5159 51.7203 68.4786 51.9763 68.4039 52.2056C68.3346 52.4349 68.2226 52.6296 68.0679 52.7896C67.9186 52.9496 67.7239 53.0723 67.4839 53.1576C67.2493 53.2483 66.9666 53.2936 66.6359 53.2936H66.4279V52.2216ZM71.5952 46.4696C71.8832 46.4696 72.1419 46.5149 72.3712 46.6056C72.6059 46.6909 72.8032 46.8136 72.9632 46.9736C73.1285 47.1336 73.2539 47.3283 73.3392 47.5576C73.4299 47.7869 73.4752 48.0429 73.4752 48.3256V49.6936C73.4752 49.9763 73.4299 50.2323 73.3392 50.4616C73.2539 50.6909 73.1285 50.8856 72.9632 51.0456C72.8032 51.2109 72.6059 51.3363 72.3712 51.4216C72.1419 51.5123 71.8832 51.5576 71.5952 51.5576H71.2752C70.9819 51.5576 70.7125 51.5123 70.4672 51.4216V53.2936H69.3152V46.4696H71.5952ZM70.4672 47.6136V49.6616C70.4672 49.8803 70.5339 50.0589 70.6672 50.1976C70.8005 50.3363 70.9739 50.4056 71.1872 50.4056H71.5952C71.8085 50.4056 71.9845 50.3363 72.1232 50.1976C72.2619 50.0589 72.3312 49.8803 72.3312 49.6616V48.3576C72.3312 48.1389 72.2619 47.9603 72.1232 47.8216C71.9845 47.6829 71.8085 47.6136 71.5952 47.6136H70.4672ZM78.2724 46.4696V51.5656C78.2724 51.8376 78.2324 52.0776 78.1524 52.2856C78.0724 52.4989 77.9604 52.6803 77.8164 52.8296C77.6778 52.9789 77.5071 53.0909 77.3044 53.1656C77.1071 53.2456 76.8884 53.2856 76.6484 53.2856H74.3604V52.1736H76.4644C76.6671 52.1736 76.8378 52.1096 76.9764 51.9816C77.1151 51.8589 77.1844 51.6856 77.1844 51.4616V51.3976H75.6964C75.4724 51.3976 75.2618 51.3576 75.0644 51.2776C74.8671 51.2029 74.6938 51.0883 74.5444 50.9336C74.4004 50.7843 74.2858 50.5976 74.2004 50.3736C74.1151 50.1496 74.0724 49.8909 74.0724 49.5976V48.2696C74.0724 47.9763 74.1151 47.7176 74.2004 47.4936C74.2858 47.2696 74.4004 47.0829 74.5444 46.9336C74.6938 46.7789 74.8671 46.6643 75.0644 46.5896C75.2618 46.5096 75.4724 46.4696 75.6964 46.4696H78.2724ZM77.1764 47.5816H75.9444C75.8431 47.5816 75.7471 47.6029 75.6564 47.6456C75.5711 47.6883 75.4938 47.7469 75.4244 47.8216C75.3604 47.8963 75.3098 47.9816 75.2724 48.0776C75.2351 48.1736 75.2164 48.2776 75.2164 48.3896V49.4696C75.2164 49.5816 75.2351 49.6883 75.2724 49.7896C75.3098 49.8856 75.3604 49.9709 75.4244 50.0456C75.4938 50.1203 75.5711 50.1789 75.6564 50.2216C75.7471 50.2643 75.8431 50.2856 75.9444 50.2856H77.1764V47.5816Z" fill="#3C5E9B"/>
<path d="M97.3501 38.3496V2.34961H123.375L127.35 8.98119V38.3496H97.3501Z" fill="#3C5E9B" stroke="#3C5E9B" stroke-width="0.7"/>
<path d="M94.3501 36.3496V0.349609H120.375L124.35 6.98119V36.3496H94.3501Z" fill="white"/>
<path d="M124.35 6.98119V36.3496H94.3501V0.349609H120.375M124.35 6.98119L120.375 0.349609M124.35 6.98119H119.432L120.375 0.349609" stroke="#3C5E9B" stroke-width="0.7"/>
<rect x="98.3134" y="13.9994" width="20.8" height="15.45" fill="#FAD1D1" stroke="#3C5E9B" stroke-width="0.7"/>
<path d="M103.383 22.1994L98.9409 28.8494H118.486L111.379 18.3994L106.937 25.0494L103.383 22.1994Z" fill="#F79887" stroke="#3C5E9B" stroke-width="0.7"/>
<path d="M102.85 16.8496C103.745 16.8496 104.455 17.5536 104.455 18.4004C104.455 19.247 103.745 19.9502 102.85 19.9502C101.954 19.95 101.245 19.2468 101.245 18.4004C101.245 17.5538 101.954 16.8498 102.85 16.8496Z" fill="#CFD897" stroke="#3C5E9B" stroke-width="0.7"/>
<path d="M99.2463 44.7096C99.5023 44.7096 99.7423 44.7603 99.9663 44.8616C100.196 44.9576 100.393 45.0909 100.558 45.2616C100.729 45.4269 100.862 45.6243 100.958 45.8536C101.06 46.0776 101.11 46.3176 101.11 46.5736V49.6936C101.11 49.9496 101.06 50.1896 100.958 50.4136C100.862 50.6429 100.729 50.8403 100.558 51.0056C100.393 51.1763 100.196 51.3096 99.9663 51.4056C99.7423 51.5069 99.5023 51.5576 99.2463 51.5576H98.2303C97.9743 51.5576 97.7317 51.5069 97.5023 51.4056C97.2783 51.3096 97.081 51.1763 96.9103 51.0056C96.745 50.8403 96.6143 50.6429 96.5183 50.4136C96.4223 50.1896 96.3743 49.9496 96.3743 49.6936V46.5736C96.3743 46.3176 96.4223 46.0776 96.5183 45.8536C96.6143 45.6243 96.745 45.4269 96.9103 45.2616C97.081 45.0909 97.2783 44.9576 97.5023 44.8616C97.7317 44.7603 97.9743 44.7096 98.2303 44.7096H99.2463ZM99.9503 46.7816C99.9503 46.6643 99.9263 46.5549 99.8783 46.4536C99.8357 46.3469 99.777 46.2563 99.7023 46.1816C99.6277 46.1016 99.5397 46.0403 99.4383 45.9976C99.337 45.9496 99.2277 45.9256 99.1103 45.9256H98.3663C98.249 45.9256 98.1397 45.9496 98.0383 45.9976C97.937 46.0403 97.8463 46.1016 97.7663 46.1816C97.6917 46.2563 97.633 46.3469 97.5903 46.4536C97.5477 46.5549 97.5263 46.6643 97.5263 46.7816V49.4856C97.5263 49.6029 97.5477 49.7149 97.5903 49.8216C97.633 49.9229 97.6917 50.0136 97.7663 50.0936C97.8463 50.1683 97.937 50.2296 98.0383 50.2776C98.1397 50.3203 98.249 50.3416 98.3663 50.3416H99.1103C99.2277 50.3416 99.337 50.3203 99.4383 50.2776C99.5397 50.2296 99.6277 50.1683 99.7023 50.0936C99.777 50.0136 99.8357 49.9229 99.8783 49.8216C99.9263 49.7149 99.9503 49.6029 99.9503 49.4856V46.7816ZM104.739 44.7096C104.995 44.7096 105.235 44.7603 105.459 44.8616C105.688 44.9576 105.885 45.0909 106.051 45.2616C106.221 45.4269 106.355 45.6243 106.451 45.8536C106.552 46.0776 106.603 46.3176 106.603 46.5736V49.6936C106.603 49.9496 106.552 50.1896 106.451 50.4136C106.355 50.6429 106.221 50.8403 106.051 51.0056C105.885 51.1763 105.688 51.3096 105.459 51.4056C105.235 51.5069 104.995 51.5576 104.739 51.5576H103.723C103.467 51.5576 103.224 51.5069 102.995 51.4056C102.771 51.3096 102.573 51.1763 102.403 51.0056C102.237 50.8403 102.107 50.6429 102.011 50.4136C101.915 50.1896 101.867 49.9496 101.867 49.6936V46.5736C101.867 46.3176 101.915 46.0776 102.011 45.8536C102.107 45.6243 102.237 45.4269 102.403 45.2616C102.573 45.0909 102.771 44.9576 102.995 44.8616C103.224 44.7603 103.467 44.7096 103.723 44.7096H104.739ZM105.443 46.7816C105.443 46.6643 105.419 46.5549 105.371 46.4536C105.328 46.3469 105.269 46.2563 105.195 46.1816C105.12 46.1016 105.032 46.0403 104.931 45.9976C104.829 45.9496 104.72 45.9256 104.603 45.9256H103.859C103.741 45.9256 103.632 45.9496 103.531 45.9976C103.429 46.0403 103.339 46.1016 103.259 46.1816C103.184 46.2563 103.125 46.3469 103.083 46.4536C103.04 46.5549 103.019 46.6643 103.019 46.7816V49.4856C103.019 49.6029 103.04 49.7149 103.083 49.8216C103.125 49.9229 103.184 50.0136 103.259 50.0936C103.339 50.1683 103.429 50.2296 103.531 50.2776C103.632 50.3203 103.741 50.3416 103.859 50.3416H104.603C104.72 50.3416 104.829 50.3203 104.931 50.2776C105.032 50.2296 105.12 50.1683 105.195 50.0936C105.269 50.0136 105.328 49.9229 105.371 49.8216C105.419 49.7149 105.443 49.6029 105.443 49.4856V46.7816ZM111.711 45.9176C111.828 46.2696 111.855 46.6163 111.791 46.9576C111.732 47.2936 111.559 47.5896 111.271 47.8456L111.207 47.9176L111.271 47.9816C111.452 48.1629 111.585 48.3656 111.671 48.5896C111.921 49.1976 111.921 49.8029 111.671 50.4056C111.585 50.6189 111.463 50.8109 111.303 50.9816C111.148 51.1523 110.967 51.2856 110.759 51.3816C110.604 51.4509 110.449 51.5016 110.295 51.5336C110.145 51.5656 109.993 51.5843 109.839 51.5896C109.689 51.6003 109.537 51.6029 109.383 51.5976C109.228 51.5976 109.068 51.5976 108.903 51.5976C108.663 51.5976 108.436 51.5496 108.223 51.4536C108.009 51.3629 107.823 51.2349 107.663 51.0696C107.503 50.9096 107.377 50.7203 107.287 50.5016C107.196 50.2883 107.151 50.0589 107.151 49.8136V49.6136H108.231C108.231 49.7309 108.249 49.8349 108.287 49.9256C108.329 50.0376 108.393 50.1283 108.479 50.1976C108.569 50.2669 108.671 50.3203 108.783 50.3576C108.895 50.3949 109.009 50.4189 109.127 50.4296C109.249 50.4403 109.361 50.4429 109.463 50.4376C109.601 50.4269 109.743 50.4083 109.887 50.3816C110.031 50.3549 110.161 50.2963 110.279 50.2056C110.428 50.0936 110.524 49.9363 110.567 49.7336C110.609 49.5256 110.604 49.3203 110.551 49.1176C110.46 48.7709 110.215 48.5603 109.815 48.4856C109.649 48.4483 109.436 48.4296 109.175 48.4296H108.823V47.3976H109.175C109.436 47.3976 109.649 47.3789 109.815 47.3416C110.012 47.3096 110.167 47.2483 110.279 47.1576C110.359 47.0936 110.423 47.0136 110.471 46.9176C110.519 46.8163 110.543 46.7123 110.543 46.6056C110.548 46.4989 110.529 46.3949 110.487 46.2936C110.444 46.1869 110.375 46.0909 110.279 46.0056C110.204 45.9416 110.103 45.8909 109.975 45.8536C109.847 45.8109 109.705 45.7869 109.551 45.7816C109.401 45.7709 109.247 45.7789 109.087 45.8056C108.932 45.8269 108.791 45.8723 108.663 45.9416C108.535 46.0056 108.431 46.0936 108.351 46.2056C108.271 46.3176 108.231 46.4536 108.231 46.6136H107.151V46.4056C107.151 46.1176 107.209 45.8643 107.327 45.6456C107.449 45.4216 107.607 45.2376 107.799 45.0936C107.996 44.9443 108.217 44.8323 108.463 44.7576C108.713 44.6776 108.967 44.6376 109.223 44.6376C109.351 44.6376 109.452 44.6376 109.527 44.6376C109.601 44.6376 109.657 44.6403 109.695 44.6456C109.737 44.6456 109.767 44.6456 109.783 44.6456C109.799 44.6456 109.807 44.6456 109.807 44.6456C109.892 44.6509 109.975 44.6589 110.055 44.6696C110.14 44.6749 110.223 44.6856 110.303 44.7016C110.447 44.7336 110.593 44.7843 110.743 44.8536C110.892 44.9229 111.025 45.0083 111.143 45.1096C111.271 45.2163 111.383 45.3389 111.479 45.4776C111.58 45.6163 111.657 45.7629 111.711 45.9176ZM112.494 51.7896V50.6376H113.678V51.7896H112.494ZM115.582 45.9176H114.478V44.7496H115.582V45.9176ZM113.51 52.2216H113.718C113.947 52.2216 114.126 52.1523 114.254 52.0136C114.382 51.8749 114.446 51.6963 114.446 51.4776V46.4696H115.598V51.4376C115.598 51.7203 115.561 51.9763 115.486 52.2056C115.417 52.4349 115.305 52.6296 115.15 52.7896C115.001 52.9496 114.806 53.0723 114.566 53.1576C114.331 53.2483 114.049 53.2936 113.718 53.2936H113.51V52.2216ZM118.677 46.4696C118.965 46.4696 119.224 46.5149 119.453 46.6056C119.688 46.6909 119.885 46.8136 120.045 46.9736C120.211 47.1336 120.336 47.3283 120.421 47.5576C120.512 47.7869 120.557 48.0429 120.557 48.3256V49.6936C120.557 49.9763 120.512 50.2323 120.421 50.4616C120.336 50.6909 120.211 50.8856 120.045 51.0456C119.885 51.2109 119.688 51.3363 119.453 51.4216C119.224 51.5123 118.965 51.5576 118.677 51.5576H118.357C118.064 51.5576 117.795 51.5123 117.549 51.4216V53.2936H116.397V46.4696H118.677ZM117.549 47.6136V49.6616C117.549 49.8803 117.616 50.0589 117.749 50.1976C117.883 50.3363 118.056 50.4056 118.269 50.4056H118.677C118.891 50.4056 119.067 50.3363 119.205 50.1976C119.344 50.0589 119.413 49.8803 119.413 49.6616V48.3576C119.413 48.1389 119.344 47.9603 119.205 47.8216C119.067 47.6829 118.891 47.6136 118.677 47.6136H117.549ZM125.354 46.4696V51.5656C125.354 51.8376 125.314 52.0776 125.234 52.2856C125.154 52.4989 125.042 52.6803 124.898 52.8296C124.76 52.9789 124.589 53.0909 124.386 53.1656C124.189 53.2456 123.97 53.2856 123.73 53.2856H121.442V52.1736H123.546C123.749 52.1736 123.92 52.1096 124.058 51.9816C124.197 51.8589 124.266 51.6856 124.266 51.4616V51.3976H122.778C122.554 51.3976 122.344 51.3576 122.146 51.2776C121.949 51.2029 121.776 51.0883 121.626 50.9336C121.482 50.7843 121.368 50.5976 121.282 50.3736C121.197 50.1496 121.154 49.8909 121.154 49.5976V48.2696C121.154 47.9763 121.197 47.7176 121.282 47.4936C121.368 47.2696 121.482 47.0829 121.626 46.9336C121.776 46.7789 121.949 46.6643 122.146 46.5896C122.344 46.5096 122.554 46.4696 122.778 46.4696H125.354ZM124.258 47.5816H123.026C122.925 47.5816 122.829 47.6029 122.738 47.6456C122.653 47.6883 122.576 47.7469 122.506 47.8216C122.442 47.8963 122.392 47.9816 122.354 48.0776C122.317 48.1736 122.298 48.2776 122.298 48.3896V49.4696C122.298 49.5816 122.317 49.6883 122.354 49.7896C122.392 49.8856 122.442 49.9709 122.506 50.0456C122.576 50.1203 122.653 50.1789 122.738 50.2216C122.829 50.2643 122.925 50.2856 123.026 50.2856H124.258V47.5816Z" fill="#3C5E9B"/>
</svg>
